<svg width="1170" height="559" viewBox="0 0 1170 559" fill="none" xmlns="http://www.w3.org/2000/svg">
<rect y="510" width="50" height="50" fill="#F7F9FC"/>
<rect x="51" y="510" width="50" height="50" fill="#F7F9FC"/>
<rect x="102" y="510" width="50" height="50" fill="#F7F9FC"/>
<rect x="153" y="510" width="50" height="50" fill="#F7F9FC"/>
<rect x="204" y="510" width="50" height="50" fill="#F7F9FC"/>
<rect x="255" y="510" width="50" height="50" fill="#F7F9FC"/>
<rect x="306" y="510" width="50" height="50" fill="#F7F9FC"/>
<rect x="357" y="510" width="50" height="50" fill="#F7F9FC"/>
<rect x="408" y="510" width="50" height="50" fill="#F7F9FC"/>
<rect x="459" y="510" width="50" height="50" fill="#F7F9FC"/>
<rect x="510" y="510" width="50" height="50" fill="#F7F9FC"/>
<rect x="561" y="510" width="50" height="50" fill="#F7F9FC"/>
<rect x="612" y="510" width="50" height="50" fill="#F7F9FC"/>
<rect x="663" y="510" width="50" height="50" fill="#F7F9FC"/>
<rect x="714" y="510" width="50" height="50" fill="#F7F9FC"/>
<rect x="765" y="510" width="50" height="50" fill="#F7F9FC"/>
<rect x="816" y="510" width="50" height="50" fill="#F7F9FC"/>
<rect x="867" y="510" width="50" height="50" fill="#F7F9FC"/>
<rect x="918" y="510" width="50" height="50" fill="#F7F9FC"/>
<rect x="969" y="510" width="50" height="50" fill="#F7F9FC"/>
<rect x="1020" y="510" width="50" height="50" fill="#F7F9FC"/>
<rect x="1071" y="510" width="50" height="50" fill="#F7F9FC"/>
<rect x="1122" y="510" width="50" height="50" fill="#F7F9FC"/>
<rect y="459" width="50" height="50" fill="#F7F9FC"/>
<rect x="51" y="459" width="50" height="50" fill="#F7F9FC"/>
<rect x="102" y="459" width="50" height="50" fill="#F7F9FC"/>
<rect x="153" y="459" width="50" height="50" fill="#F7F9FC"/>
<rect x="204" y="459" width="50" height="50" fill="#F7F9FC"/>
<rect x="255" y="459" width="50" height="50" fill="#F7F9FC"/>
<rect x="306" y="459" width="50" height="50" fill="#F7F9FC"/>
<rect x="357" y="459" width="50" height="50" fill="#F7F9FC"/>
<rect x="408" y="459" width="50" height="50" fill="#F7F9FC"/>
<rect x="459" y="459" width="50" height="50" fill="#F7F9FC"/>
<rect x="510" y="459" width="50" height="50" fill="#F7F9FC"/>
<rect x="561" y="459" width="50" height="50" fill="#F7F9FC"/>
<rect x="612" y="459" width="50" height="50" fill="#F7F9FC"/>
<rect x="663" y="459" width="50" height="50" fill="#F7F9FC"/>
<rect x="714" y="459" width="50" height="50" fill="#F7F9FC"/>
<rect x="765" y="459" width="50" height="50" fill="#F7F9FC"/>
<rect x="816" y="459" width="50" height="50" fill="#F7F9FC"/>
<rect x="867" y="459" width="50" height="50" fill="#F7F9FC"/>
<rect x="918" y="459" width="50" height="50" fill="#F7F9FC"/>
<rect x="969" y="459" width="50" height="50" fill="#F7F9FC"/>
<rect x="1020" y="459" width="50" height="50" fill="#F7F9FC"/>
<rect x="1071" y="459" width="50" height="50" fill="#F7F9FC"/>
<rect x="1122" y="459" width="50" height="50" fill="#F7F9FC"/>
<rect y="408" width="50" height="50" fill="#F7F9FC"/>
<rect x="51" y="408" width="50" height="50" fill="#F7F9FC"/>
<rect x="102" y="408" width="50" height="50" fill="#F7F9FC"/>
<rect x="153" y="408" width="50" height="50" fill="#F7F9FC"/>
<rect x="204" y="408" width="50" height="50" fill="#F7F9FC"/>
<rect x="255" y="408" width="50" height="50" fill="#F7F9FC"/>
<rect x="306" y="408" width="50" height="50" fill="#F7F9FC"/>
<rect x="357" y="408" width="50" height="50" fill="#F7F9FC"/>
<rect x="408" y="408" width="50" height="50" fill="#F7F9FC"/>
<rect x="459" y="408" width="50" height="50" fill="#F7F9FC"/>
<rect x="510" y="408" width="50" height="50" fill="#F7F9FC"/>
<rect x="561" y="408" width="50" height="50" fill="#F7F9FC"/>
<rect x="612" y="408" width="50" height="50" fill="#F7F9FC"/>
<rect x="663" y="408" width="50" height="50" fill="#F7F9FC"/>
<rect x="714" y="408" width="50" height="50" fill="#F7F9FC"/>
<rect x="765" y="408" width="50" height="50" fill="#F7F9FC"/>
<rect x="816" y="408" width="50" height="50" fill="#F7F9FC"/>
<rect x="867" y="408" width="50" height="50" fill="#F7F9FC"/>
<rect x="918" y="408" width="50" height="50" fill="#F7F9FC"/>
<rect x="969" y="408" width="50" height="50" fill="#F7F9FC"/>
<rect x="1020" y="408" width="50" height="50" fill="#F7F9FC"/>
<rect x="1071" y="408" width="50" height="50" fill="#F7F9FC"/>
<rect x="1122" y="408" width="50" height="50" fill="#F7F9FC"/>
<rect y="357" width="50" height="50" fill="#F7F9FC"/>
<rect x="51" y="357" width="50" height="50" fill="#F7F9FC"/>
<rect x="102" y="357" width="50" height="50" fill="#F7F9FC"/>
<rect x="153" y="357" width="50" height="50" fill="#F7F9FC"/>
<rect x="204" y="357" width="50" height="50" fill="#F7F9FC"/>
<rect x="255" y="357" width="50" height="50" fill="#F7F9FC"/>
<rect x="306" y="357" width="50" height="50" fill="#F7F9FC"/>
<rect x="357" y="357" width="50" height="50" fill="#F7F9FC"/>
<rect x="408" y="357" width="50" height="50" fill="#F7F9FC"/>
<rect x="459" y="357" width="50" height="50" fill="#F7F9FC"/>
<rect x="510" y="357" width="50" height="50" fill="#F7F9FC"/>
<rect x="561" y="357" width="50" height="50" fill="#F7F9FC"/>
<rect x="612" y="357" width="50" height="50" fill="#F7F9FC"/>
<rect x="663" y="357" width="50" height="50" fill="#F7F9FC"/>
<rect x="714" y="357" width="50" height="50" fill="#F7F9FC"/>
<rect x="765" y="357" width="50" height="50" fill="#F7F9FC"/>
<rect x="816" y="357" width="50" height="50" fill="#F7F9FC"/>
<rect x="867" y="357" width="50" height="50" fill="#F7F9FC"/>
<rect x="918" y="357" width="50" height="50" fill="#F7F9FC"/>
<rect x="969" y="357" width="50" height="50" fill="#F7F9FC"/>
<rect x="1020" y="357" width="50" height="50" fill="#F7F9FC"/>
<rect x="1071" y="357" width="50" height="50" fill="#F7F9FC"/>
<rect x="1122" y="357" width="50" height="50" fill="#F7F9FC"/>
<rect y="306" width="50" height="50" fill="#F7F9FC"/>
<rect x="51" y="306" width="50" height="50" fill="#F7F9FC"/>
<rect x="102" y="306" width="50" height="50" fill="#F7F9FC"/>
<rect x="153" y="306" width="50" height="50" fill="#F7F9FC"/>
<rect x="204" y="306" width="50" height="50" fill="#F7F9FC"/>
<rect x="255" y="306" width="50" height="50" fill="#F7F9FC"/>
<rect x="306" y="306" width="50" height="50" fill="#F7F9FC"/>
<rect x="357" y="306" width="50" height="50" fill="#F7F9FC"/>
<rect x="408" y="306" width="50" height="50" fill="#F7F9FC"/>
<rect x="459" y="306" width="50" height="50" fill="#F7F9FC"/>
<rect x="510" y="306" width="50" height="50" fill="#F7F9FC"/>
<rect x="561" y="306" width="50" height="50" fill="#F7F9FC"/>
<rect x="612" y="306" width="50" height="50" fill="#F7F9FC"/>
<rect x="663" y="306" width="50" height="50" fill="#F7F9FC"/>
<rect x="714" y="306" width="50" height="50" fill="#F7F9FC"/>
<rect x="765" y="306" width="50" height="50" fill="#F7F9FC"/>
<rect x="816" y="306" width="50" height="50" fill="#F7F9FC"/>
<rect x="867" y="306" width="50" height="50" fill="#F7F9FC"/>
<rect x="918" y="306" width="50" height="50" fill="#F7F9FC"/>
<rect x="969" y="306" width="50" height="50" fill="#F7F9FC"/>
<rect x="1020" y="306" width="50" height="50" fill="#F7F9FC"/>
<rect x="1071" y="306" width="50" height="50" fill="#F7F9FC"/>
<rect x="1122" y="306" width="50" height="50" fill="#F7F9FC"/>
<rect y="255" width="50" height="50" fill="#F7F9FC"/>
<rect x="51" y="255" width="50" height="50" fill="#F7F9FC"/>
<rect x="102" y="255" width="50" height="50" fill="#F7F9FC"/>
<rect x="153" y="255" width="50" height="50" fill="#F7F9FC"/>
<rect x="204" y="255" width="50" height="50" fill="#F7F9FC"/>
<rect x="255" y="255" width="50" height="50" fill="#F7F9FC"/>
<rect x="306" y="255" width="50" height="50" fill="#F7F9FC"/>
<rect x="357" y="255" width="50" height="50" fill="#F7F9FC"/>
<rect x="408" y="255" width="50" height="50" fill="#F7F9FC"/>
<rect x="459" y="255" width="50" height="50" fill="#F7F9FC"/>
<rect x="510" y="255" width="50" height="50" fill="#F7F9FC"/>
<rect x="561" y="255" width="50" height="50" fill="#F7F9FC"/>
<rect x="612" y="255" width="50" height="50" fill="#F7F9FC"/>
<rect x="663" y="255" width="50" height="50" fill="#F7F9FC"/>
<rect x="714" y="255" width="50" height="50" fill="#F7F9FC"/>
<rect x="765" y="255" width="50" height="50" fill="#F7F9FC"/>
<rect x="816" y="255" width="50" height="50" fill="#F7F9FC"/>
<rect x="867" y="255" width="50" height="50" fill="#F7F9FC"/>
<rect x="918" y="255" width="50" height="50" fill="#F7F9FC"/>
<rect x="969" y="255" width="50" height="50" fill="#F7F9FC"/>
<rect x="1020" y="255" width="50" height="50" fill="#F7F9FC"/>
<rect x="1071" y="255" width="50" height="50" fill="#F7F9FC"/>
<rect x="1122" y="255" width="50" height="50" fill="#F7F9FC"/>
<rect y="204" width="50" height="50" fill="#F7F9FC"/>
<rect x="51" y="204" width="50" height="50" fill="#F7F9FC"/>
<rect x="102" y="204" width="50" height="50" fill="#F7F9FC"/>
<rect x="153" y="204" width="50" height="50" fill="#F7F9FC"/>
<rect x="204" y="204" width="50" height="50" fill="#F7F9FC"/>
<rect x="255" y="204" width="50" height="50" fill="#F7F9FC"/>
<rect x="306" y="204" width="50" height="50" fill="#F7F9FC"/>
<rect x="357" y="204" width="50" height="50" fill="#F7F9FC"/>
<rect x="408" y="204" width="50" height="50" fill="#F7F9FC"/>
<rect x="459" y="204" width="50" height="50" fill="#F7F9FC"/>
<rect x="510" y="204" width="50" height="50" fill="#F7F9FC"/>
<rect x="561" y="204" width="50" height="50" fill="#F7F9FC"/>
<rect x="612" y="204" width="50" height="50" fill="#F7F9FC"/>
<rect x="663" y="204" width="50" height="50" fill="#F7F9FC"/>
<rect x="714" y="204" width="50" height="50" fill="#F7F9FC"/>
<rect x="765" y="204" width="50" height="50" fill="#F7F9FC"/>
<rect x="816" y="204" width="50" height="50" fill="#F7F9FC"/>
<rect x="867" y="204" width="50" height="50" fill="#F7F9FC"/>
<rect x="918" y="204" width="50" height="50" fill="#F7F9FC"/>
<rect x="969" y="204" width="50" height="50" fill="#F7F9FC"/>
<rect x="1020" y="204" width="50" height="50" fill="#F7F9FC"/>
<rect x="1071" y="204" width="50" height="50" fill="#F7F9FC"/>
<rect x="1122" y="204" width="50" height="50" fill="#F7F9FC"/>
<rect y="153" width="50" height="50" fill="#F7F9FC"/>
<rect x="51" y="153" width="50" height="50" fill="#F7F9FC"/>
<rect x="102" y="153" width="50" height="50" fill="#F7F9FC"/>
<rect x="153" y="153" width="50" height="50" fill="#F7F9FC"/>
<rect x="204" y="153" width="50" height="50" fill="#F7F9FC"/>
<rect x="255" y="153" width="50" height="50" fill="#F7F9FC"/>
<rect x="306" y="153" width="50" height="50" fill="#F7F9FC"/>
<rect x="357" y="153" width="50" height="50" fill="#F7F9FC"/>
<rect x="408" y="153" width="50" height="50" fill="#F7F9FC"/>
<rect x="459" y="153" width="50" height="50" fill="#F7F9FC"/>
<rect x="510" y="153" width="50" height="50" fill="#F7F9FC"/>
<rect x="561" y="153" width="50" height="50" fill="#F7F9FC"/>
<rect x="612" y="153" width="50" height="50" fill="#F7F9FC"/>
<rect x="663" y="153" width="50" height="50" fill="#F7F9FC"/>
<rect x="714" y="153" width="50" height="50" fill="#F7F9FC"/>
<rect x="765" y="153" width="50" height="50" fill="#F7F9FC"/>
<rect x="816" y="153" width="50" height="50" fill="#F7F9FC"/>
<rect x="867" y="153" width="50" height="50" fill="#F7F9FC"/>
<rect x="918" y="153" width="50" height="50" fill="#F7F9FC"/>
<rect x="969" y="153" width="50" height="50" fill="#F7F9FC"/>
<rect x="1020" y="153" width="50" height="50" fill="#F7F9FC"/>
<rect x="1071" y="153" width="50" height="50" fill="#F7F9FC"/>
<rect x="1122" y="153" width="50" height="50" fill="#F7F9FC"/>
<rect y="102" width="50" height="50" fill="#F7F9FC"/>
<rect x="51" y="102" width="50" height="50" fill="#F7F9FC"/>
<rect x="102" y="102" width="50" height="50" fill="#F7F9FC"/>
<rect x="153" y="102" width="50" height="50" fill="#F7F9FC"/>
<rect x="204" y="102" width="50" height="50" fill="#F7F9FC"/>
<rect x="255" y="102" width="50" height="50" fill="#F7F9FC"/>
<rect x="306" y="102" width="50" height="50" fill="#F7F9FC"/>
<rect x="357" y="102" width="50" height="50" fill="#F7F9FC"/>
<rect x="408" y="102" width="50" height="50" fill="#F7F9FC"/>
<rect x="459" y="102" width="50" height="50" fill="#F7F9FC"/>
<rect x="510" y="102" width="50" height="50" fill="#F7F9FC"/>
<rect x="561" y="102" width="50" height="50" fill="#F7F9FC"/>
<rect x="612" y="102" width="50" height="50" fill="#F7F9FC"/>
<rect x="663" y="102" width="50" height="50" fill="#F7F9FC"/>
<rect x="714" y="102" width="50" height="50" fill="#F7F9FC"/>
<rect x="765" y="102" width="50" height="50" fill="#F7F9FC"/>
<rect x="816" y="102" width="50" height="50" fill="#F7F9FC"/>
<rect x="867" y="102" width="50" height="50" fill="#F7F9FC"/>
<rect x="918" y="102" width="50" height="50" fill="#F7F9FC"/>
<rect x="969" y="102" width="50" height="50" fill="#F7F9FC"/>
<rect x="1020" y="102" width="50" height="50" fill="#F7F9FC"/>
<rect x="1071" y="102" width="50" height="50" fill="#F7F9FC"/>
<rect x="1122" y="102" width="50" height="50" fill="#F7F9FC"/>
<rect y="51" width="50" height="50" fill="#F7F9FC"/>
<rect x="51" y="51" width="50" height="50" fill="#F7F9FC"/>
<rect x="102" y="51" width="50" height="50" fill="#F7F9FC"/>
<rect x="153" y="51" width="50" height="50" fill="#F7F9FC"/>
<rect x="204" y="51" width="50" height="50" fill="#F7F9FC"/>
<rect x="255" y="51" width="50" height="50" fill="#F7F9FC"/>
<rect x="306" y="51" width="50" height="50" fill="#F7F9FC"/>
<rect x="357" y="51" width="50" height="50" fill="#F7F9FC"/>
<rect x="408" y="51" width="50" height="50" fill="#F7F9FC"/>
<rect x="459" y="51" width="50" height="50" fill="#F7F9FC"/>
<rect x="510" y="51" width="50" height="50" fill="#F7F9FC"/>
<rect x="561" y="51" width="50" height="50" fill="#F7F9FC"/>
<rect x="612" y="51" width="50" height="50" fill="#F7F9FC"/>
<rect x="663" y="51" width="50" height="50" fill="#F7F9FC"/>
<rect x="714" y="51" width="50" height="50" fill="#F7F9FC"/>
<rect x="765" y="51" width="50" height="50" fill="#F7F9FC"/>
<rect x="816" y="51" width="50" height="50" fill="#F7F9FC"/>
<rect x="867" y="51" width="50" height="50" fill="#F7F9FC"/>
<rect x="918" y="51" width="50" height="50" fill="#F7F9FC"/>
<rect x="969" y="51" width="50" height="50" fill="#F7F9FC"/>
<rect x="1020" y="51" width="50" height="50" fill="#F7F9FC"/>
<rect x="1071" y="51" width="50" height="50" fill="#F7F9FC"/>
<rect x="1122" y="51" width="50" height="50" fill="#F7F9FC"/>
<rect width="50" height="50" fill="#F7F9FC"/>
<rect x="51" width="50" height="50" fill="#F7F9FC"/>
<rect x="102" width="50" height="50" fill="#F7F9FC"/>
<rect x="153" width="50" height="50" fill="#F7F9FC"/>
<rect x="204" width="50" height="50" fill="#F7F9FC"/>
<rect x="255" width="50" height="50" fill="#F7F9FC"/>
<rect x="306" width="50" height="50" fill="#F7F9FC"/>
<rect x="357" width="50" height="50" fill="#F7F9FC"/>
<rect x="408" width="50" height="50" fill="#F7F9FC"/>
<rect x="459" width="50" height="50" fill="#F7F9FC"/>
<rect x="510" width="50" height="50" fill="#F7F9FC"/>
<rect x="561" width="50" height="50" fill="#F7F9FC"/>
<rect x="612" width="50" height="50" fill="#F7F9FC"/>
<rect x="663" width="50" height="50" fill="#F7F9FC"/>
<rect x="714" width="50" height="50" fill="#F7F9FC"/>
<rect x="765" width="50" height="50" fill="#F7F9FC"/>
<rect x="816" width="50" height="50" fill="#F7F9FC"/>
<rect x="867" width="50" height="50" fill="#F7F9FC"/>
<rect x="918" width="50" height="50" fill="#F7F9FC"/>
<rect x="969" width="50" height="50" fill="#F7F9FC"/>
<rect x="1020" width="50" height="50" fill="#F7F9FC"/>
<rect x="1071" width="50" height="50" fill="#F7F9FC"/>
<rect x="1122" width="50" height="50" fill="#F7F9FC"/>
</svg>
