<svg width="472" height="40" viewBox="0 0 472 40" fill="none" xmlns="http://www.w3.org/2000/svg">
<rect x="0.5" y="0.5" width="470.625" height="39" rx="19.5" fill="white"/>
<path d="M52.175 25V15.625H50.12L51.17 14.35H53.465V25H52.175ZM59.5429 25.15C58.4329 25.15 57.5279 24.78 56.8279 24.04C56.1279 23.29 55.7779 22.325 55.7779 21.145V18.175C55.7779 16.995 56.1279 16.035 56.8279 15.295C57.5379 14.545 58.4429 14.17 59.5429 14.17C60.6429 14.17 61.5479 14.545 62.2579 15.295C62.9679 16.045 63.3229 17.005 63.3229 18.175V21.145C63.3229 22.325 62.9679 23.29 62.2579 24.04C61.5479 24.78 60.6429 25.15 59.5429 25.15ZM59.5429 23.89C60.2829 23.89 60.8829 23.645 61.3429 23.155C61.8029 22.665 62.0329 21.995 62.0329 21.145V18.175C62.0329 17.325 61.8029 16.655 61.3429 16.165C60.8829 15.675 60.2829 15.43 59.5429 15.43C58.8129 15.43 58.2179 15.675 57.7579 16.165C57.2979 16.655 57.0679 17.325 57.0679 18.175V21.145C57.0679 21.995 57.2979 22.665 57.7579 23.155C58.2179 23.645 58.8129 23.89 59.5429 23.89ZM68.8886 25.15C67.7786 25.15 66.8736 24.78 66.1736 24.04C65.4736 23.29 65.1236 22.325 65.1236 21.145V18.175C65.1236 16.995 65.4736 16.035 66.1736 15.295C66.8836 14.545 67.7886 14.17 68.8886 14.17C69.9886 14.17 70.8936 14.545 71.6036 15.295C72.3136 16.045 72.6686 17.005 72.6686 18.175V21.145C72.6686 22.325 72.3136 23.29 71.6036 24.04C70.8936 24.78 69.9886 25.15 68.8886 25.15ZM68.8886 23.89C69.6286 23.89 70.2286 23.645 70.6886 23.155C71.1486 22.665 71.3786 21.995 71.3786 21.145V18.175C71.3786 17.325 71.1486 16.655 70.6886 16.165C70.2286 15.675 69.6286 15.43 68.8886 15.43C68.1586 15.43 67.5636 15.675 67.1036 16.165C66.6436 16.655 66.4136 17.325 66.4136 18.175V21.145C66.4136 21.995 66.6436 22.665 67.1036 23.155C67.5636 23.645 68.1586 23.89 68.8886 23.89ZM78.3243 25H76.9293L83.6793 14.35H85.0743L78.3243 25ZM84.9993 25.12C84.1793 25.12 83.4793 24.83 82.8993 24.25C82.3293 23.67 82.0443 22.975 82.0443 22.165C82.0443 21.345 82.3293 20.65 82.8993 20.08C83.4793 19.5 84.1793 19.21 84.9993 19.21C85.8093 19.21 86.5043 19.5 87.0843 20.08C87.6643 20.65 87.9543 21.345 87.9543 22.165C87.9543 22.975 87.6643 23.67 87.0843 24.25C86.5043 24.83 85.8093 25.12 84.9993 25.12ZM84.9993 23.95C85.4793 23.95 85.8943 23.775 86.2443 23.425C86.5943 23.065 86.7693 22.645 86.7693 22.165C86.7693 21.685 86.5943 21.27 86.2443 20.92C85.8943 20.56 85.4793 20.38 84.9993 20.38C84.4993 20.38 84.0793 20.555 83.7393 20.905C83.3993 21.255 83.2293 21.675 83.2293 22.165C83.2293 22.655 83.3993 23.075 83.7393 23.425C84.0793 23.775 84.4993 23.95 84.9993 23.95ZM77.0043 20.14C76.1843 20.14 75.4843 19.85 74.9043 19.27C74.3343 18.69 74.0493 17.995 74.0493 17.185C74.0493 16.365 74.3343 15.67 74.9043 15.1C75.4843 14.52 76.1843 14.23 77.0043 14.23C77.8143 14.23 78.5093 14.52 79.0893 15.1C79.6693 15.67 79.9593 16.365 79.9593 17.185C79.9593 17.995 79.6693 18.69 79.0893 19.27C78.5093 19.85 77.8143 20.14 77.0043 20.14ZM77.0043 18.97C77.4843 18.97 77.8993 18.795 78.2493 18.445C78.5993 18.085 78.7743 17.665 78.7743 17.185C78.7743 16.705 78.5993 16.29 78.2493 15.94C77.8993 15.58 77.4843 15.4 77.0043 15.4C76.5043 15.4 76.0843 15.575 75.7443 15.925C75.4043 16.275 75.2343 16.695 75.2343 17.185C75.2343 17.675 75.4043 18.095 75.7443 18.445C76.0843 18.795 76.5043 18.97 77.0043 18.97ZM96.4057 25.18C95.3257 25.18 94.4407 24.885 93.7507 24.295C93.0707 23.705 92.7207 22.99 92.7007 22.15H94.0957C94.1557 22.7 94.4107 23.125 94.8607 23.425C95.3207 23.725 95.8307 23.875 96.3907 23.875C96.9707 23.875 97.4507 23.73 97.8307 23.44C98.2107 23.15 98.4007 22.765 98.4007 22.285C98.4007 21.475 97.8957 20.88 96.8857 20.5L95.4157 19.96C94.5757 19.67 93.9557 19.285 93.5557 18.805C93.1657 18.325 92.9657 17.71 92.9557 16.96C92.9557 16.11 93.2557 15.435 93.8557 14.935C94.4657 14.425 95.2457 14.17 96.1957 14.17C97.1957 14.17 97.9857 14.46 98.5657 15.04C99.1557 15.61 99.4857 16.28 99.5557 17.05H98.1757C98.0457 16.52 97.7957 16.125 97.4257 15.865C97.0657 15.605 96.6457 15.475 96.1657 15.475C95.6457 15.475 95.2107 15.605 94.8607 15.865C94.5207 16.125 94.3507 16.475 94.3507 16.915C94.3507 17.355 94.4707 17.705 94.7107 17.965C94.9507 18.225 95.3407 18.45 95.8807 18.64L97.2457 19.135C98.0857 19.435 98.7207 19.835 99.1507 20.335C99.5807 20.825 99.7957 21.46 99.7957 22.24C99.7957 23.13 99.4807 23.845 98.8507 24.385C98.2207 24.915 97.4057 25.18 96.4057 25.18ZM104.784 25.15C103.744 25.15 102.869 24.77 102.159 24.01C101.459 23.25 101.109 22.33 101.109 21.25C101.109 20.17 101.459 19.25 102.159 18.49C102.869 17.73 103.744 17.35 104.784 17.35C105.334 17.35 105.844 17.475 106.314 17.725C106.794 17.965 107.164 18.275 107.424 18.655V17.5H108.714V25H107.424V23.845C107.164 24.225 106.794 24.54 106.314 24.79C105.844 25.03 105.334 25.15 104.784 25.15ZM104.979 23.965C105.719 23.965 106.329 23.705 106.809 23.185C107.289 22.665 107.529 22.02 107.529 21.25C107.529 20.48 107.289 19.835 106.809 19.315C106.329 18.795 105.719 18.535 104.979 18.535C104.229 18.535 103.614 18.795 103.134 19.315C102.654 19.835 102.414 20.48 102.414 21.25C102.414 22.02 102.654 22.665 103.134 23.185C103.614 23.705 104.229 23.965 104.979 23.965ZM111.772 25V18.685H110.182V17.5H111.772V15.985C111.772 15.235 111.982 14.66 112.402 14.26C112.822 13.86 113.377 13.66 114.067 13.66C114.477 13.66 114.867 13.725 115.237 13.855V14.995C115.007 14.895 114.697 14.845 114.307 14.845C113.877 14.845 113.562 14.94 113.362 15.13C113.162 15.32 113.062 15.65 113.062 16.12V17.5H115.237V18.685H113.062V25H111.772ZM119.654 25.15C118.564 25.15 117.659 24.78 116.939 24.04C116.229 23.3 115.874 22.37 115.874 21.25C115.874 20.12 116.219 19.19 116.909 18.46C117.609 17.72 118.534 17.35 119.684 17.35C120.844 17.35 121.754 17.76 122.414 18.58C123.074 19.4 123.364 20.405 123.284 21.595H117.179C117.199 22.275 117.449 22.845 117.929 23.305C118.409 23.755 118.989 23.98 119.669 23.98C120.689 23.98 121.414 23.56 121.844 22.72H123.164C122.974 23.42 122.569 24 121.949 24.46C121.329 24.92 120.564 25.15 119.654 25.15ZM121.124 19.03C120.714 18.67 120.219 18.49 119.639 18.49C119.059 18.49 118.539 18.665 118.079 19.015C117.629 19.365 117.349 19.885 117.239 20.575H121.919C121.799 19.895 121.534 19.38 121.124 19.03ZM131.854 25.15C130.814 25.15 129.939 24.77 129.229 24.01C128.529 23.25 128.179 22.33 128.179 21.25C128.179 20.17 128.529 19.25 129.229 18.49C129.939 17.73 130.814 17.35 131.854 17.35C132.404 17.35 132.914 17.475 133.384 17.725C133.864 17.965 134.234 18.275 134.494 18.655V17.5H135.784V25H134.494V23.845C134.234 24.225 133.864 24.54 133.384 24.79C132.914 25.03 132.404 25.15 131.854 25.15ZM132.049 23.965C132.789 23.965 133.399 23.705 133.879 23.185C134.359 22.665 134.599 22.02 134.599 21.25C134.599 20.48 134.359 19.835 133.879 19.315C133.399 18.795 132.789 18.535 132.049 18.535C131.299 18.535 130.684 18.795 130.204 19.315C129.724 19.835 129.484 20.48 129.484 21.25C129.484 22.02 129.724 22.665 130.204 23.185C130.684 23.705 131.299 23.965 132.049 23.965ZM138.212 25V17.5H139.502V18.655C140.012 17.785 140.807 17.35 141.887 17.35C142.737 17.35 143.422 17.625 143.942 18.175C144.462 18.725 144.722 19.46 144.722 20.38V25H143.447V20.575C143.447 19.945 143.287 19.45 142.967 19.09C142.647 18.72 142.217 18.535 141.677 18.535C141.057 18.535 140.537 18.78 140.117 19.27C139.707 19.76 139.502 20.43 139.502 21.28V25H138.212ZM150.135 25.15C149.095 25.15 148.22 24.77 147.51 24.01C146.81 23.25 146.46 22.33 146.46 21.25C146.46 20.17 146.81 19.25 147.51 18.49C148.22 17.73 149.095 17.35 150.135 17.35C150.685 17.35 151.195 17.475 151.665 17.725C152.145 17.965 152.515 18.275 152.775 18.655V13.75H154.065V25H152.775V23.845C152.515 24.225 152.145 24.54 151.665 24.79C151.195 25.03 150.685 25.15 150.135 25.15ZM150.33 23.965C151.07 23.965 151.68 23.705 152.16 23.185C152.64 22.665 152.88 22.02 152.88 21.25C152.88 20.48 152.64 19.835 152.16 19.315C151.68 18.795 151.07 18.535 150.33 18.535C149.58 18.535 148.965 18.795 148.485 19.315C148.005 19.835 147.765 20.48 147.765 21.25C147.765 22.02 148.005 22.665 148.485 23.185C148.965 23.705 149.58 23.965 150.33 23.965ZM163.246 25.18C162.166 25.18 161.281 24.885 160.591 24.295C159.911 23.705 159.561 22.99 159.541 22.15H160.936C160.996 22.7 161.251 23.125 161.701 23.425C162.161 23.725 162.671 23.875 163.231 23.875C163.811 23.875 164.291 23.73 164.671 23.44C165.051 23.15 165.241 22.765 165.241 22.285C165.241 21.475 164.736 20.88 163.726 20.5L162.256 19.96C161.416 19.67 160.796 19.285 160.396 18.805C160.006 18.325 159.806 17.71 159.796 16.96C159.796 16.11 160.096 15.435 160.696 14.935C161.306 14.425 162.086 14.17 163.036 14.17C164.036 14.17 164.826 14.46 165.406 15.04C165.996 15.61 166.326 16.28 166.396 17.05H165.016C164.886 16.52 164.636 16.125 164.266 15.865C163.906 15.605 163.486 15.475 163.006 15.475C162.486 15.475 162.051 15.605 161.701 15.865C161.361 16.125 161.191 16.475 161.191 16.915C161.191 17.355 161.311 17.705 161.551 17.965C161.791 18.225 162.181 18.45 162.721 18.64L164.086 19.135C164.926 19.435 165.561 19.835 165.991 20.335C166.421 20.825 166.636 21.46 166.636 22.24C166.636 23.13 166.321 23.845 165.691 24.385C165.061 24.915 164.246 25.18 163.246 25.18ZM171.729 25.15C170.639 25.15 169.734 24.78 169.014 24.04C168.304 23.3 167.949 22.37 167.949 21.25C167.949 20.12 168.294 19.19 168.984 18.46C169.684 17.72 170.609 17.35 171.759 17.35C172.919 17.35 173.829 17.76 174.489 18.58C175.149 19.4 175.439 20.405 175.359 21.595H169.254C169.274 22.275 169.524 22.845 170.004 23.305C170.484 23.755 171.064 23.98 171.744 23.98C172.764 23.98 173.489 23.56 173.919 22.72H175.239C175.049 23.42 174.644 24 174.024 24.46C173.404 24.92 172.639 25.15 171.729 25.15ZM173.199 19.03C172.789 18.67 172.294 18.49 171.714 18.49C171.134 18.49 170.614 18.665 170.154 19.015C169.704 19.365 169.424 19.885 169.314 20.575H173.994C173.874 19.895 173.609 19.38 173.199 19.03ZM180.551 25.15C179.421 25.15 178.486 24.775 177.746 24.025C177.006 23.265 176.636 22.34 176.636 21.25C176.636 20.16 177.006 19.24 177.746 18.49C178.486 17.73 179.421 17.35 180.551 17.35C181.481 17.35 182.286 17.61 182.966 18.13C183.646 18.64 184.101 19.31 184.331 20.14H182.951C182.771 19.65 182.471 19.26 182.051 18.97C181.631 18.68 181.131 18.535 180.551 18.535C179.781 18.535 179.151 18.795 178.661 19.315C178.181 19.835 177.941 20.48 177.941 21.25C177.941 22.02 178.181 22.665 178.661 23.185C179.151 23.705 179.781 23.965 180.551 23.965C181.131 23.965 181.631 23.82 182.051 23.53C182.471 23.24 182.771 22.85 182.951 22.36H184.331C184.111 23.19 183.661 23.865 182.981 24.385C182.301 24.895 181.491 25.15 180.551 25.15ZM188.694 25.15C187.874 25.15 187.209 24.875 186.699 24.325C186.189 23.765 185.934 23.025 185.934 22.105V17.5H187.224V21.91C187.224 22.54 187.374 23.04 187.674 23.41C187.984 23.78 188.399 23.965 188.919 23.965C189.519 23.965 190.014 23.72 190.404 23.23C190.804 22.73 191.004 22.06 191.004 21.22V17.5H192.294V25H191.004V23.845C190.514 24.715 189.744 25.15 188.694 25.15ZM194.726 25V17.5H196.016V18.955C196.156 18.495 196.426 18.125 196.826 17.845C197.236 17.565 197.666 17.425 198.116 17.425C198.336 17.425 198.531 17.445 198.701 17.485V18.82C198.521 18.74 198.286 18.7 197.996 18.7C197.476 18.7 197.016 18.925 196.616 19.375C196.216 19.825 196.016 20.46 196.016 21.28V25H194.726ZM203.15 25.15C202.06 25.15 201.155 24.78 200.435 24.04C199.725 23.3 199.37 22.37 199.37 21.25C199.37 20.12 199.715 19.19 200.405 18.46C201.105 17.72 202.03 17.35 203.18 17.35C204.34 17.35 205.25 17.76 205.91 18.58C206.57 19.4 206.86 20.405 206.78 21.595H200.675C200.695 22.275 200.945 22.845 201.425 23.305C201.905 23.755 202.485 23.98 203.165 23.98C204.185 23.98 204.91 23.56 205.34 22.72H206.66C206.47 23.42 206.065 24 205.445 24.46C204.825 24.92 204.06 25.15 203.15 25.15ZM204.62 19.03C204.21 18.67 203.715 18.49 203.135 18.49C202.555 18.49 202.035 18.665 201.575 19.015C201.125 19.365 200.845 19.885 200.735 20.575H205.415C205.295 19.895 205.03 19.38 204.62 19.03ZM218.35 15.31C219.03 15.95 219.37 16.76 219.37 17.74C219.37 18.72 219.03 19.53 218.35 20.17C217.68 20.8 216.8 21.115 215.71 21.115H213.85V25H212.455V14.35H215.71C216.8 14.35 217.68 14.67 218.35 15.31ZM217.375 19.24C217.785 18.85 217.99 18.35 217.99 17.74C217.99 17.13 217.785 16.63 217.375 16.24C216.975 15.85 216.42 15.655 215.71 15.655H213.85V19.825H215.71C216.42 19.825 216.975 19.63 217.375 19.24ZM223.919 25.15C222.879 25.15 222.004 24.77 221.294 24.01C220.594 23.25 220.244 22.33 220.244 21.25C220.244 20.17 220.594 19.25 221.294 18.49C222.004 17.73 222.879 17.35 223.919 17.35C224.469 17.35 224.979 17.475 225.449 17.725C225.929 17.965 226.299 18.275 226.559 18.655V17.5H227.849V25H226.559V23.845C226.299 24.225 225.929 24.54 225.449 24.79C224.979 25.03 224.469 25.15 223.919 25.15ZM224.114 23.965C224.854 23.965 225.464 23.705 225.944 23.185C226.424 22.665 226.664 22.02 226.664 21.25C226.664 20.48 226.424 19.835 225.944 19.315C225.464 18.795 224.854 18.535 224.114 18.535C223.364 18.535 222.749 18.795 222.269 19.315C221.789 19.835 221.549 20.48 221.549 21.25C221.549 22.02 221.789 22.665 222.269 23.185C222.749 23.705 223.364 23.965 224.114 23.965ZM232.273 28.135H230.833L232.468 24.61L229.183 17.5H230.608L233.188 23.2L235.753 17.5H237.193L232.273 28.135ZM248.141 25V20.59C248.141 19.97 248.011 19.475 247.751 19.105C247.501 18.725 247.136 18.535 246.656 18.535C246.056 18.535 245.566 18.77 245.186 19.24C244.816 19.71 244.621 20.35 244.601 21.16V25H243.311V20.59C243.311 19.96 243.181 19.46 242.921 19.09C242.671 18.72 242.311 18.535 241.841 18.535C241.221 18.535 240.721 18.785 240.341 19.285C239.961 19.775 239.771 20.44 239.771 21.28V25H238.481V17.5H239.771V18.655C240.251 17.785 241.006 17.35 242.036 17.35C243.176 17.35 243.946 17.885 244.346 18.955C244.546 18.465 244.866 18.075 245.306 17.785C245.746 17.495 246.246 17.35 246.806 17.35C247.616 17.35 248.256 17.625 248.726 18.175C249.196 18.725 249.431 19.465 249.431 20.395V25H248.141ZM254.947 25.15C253.857 25.15 252.952 24.78 252.232 24.04C251.522 23.3 251.167 22.37 251.167 21.25C251.167 20.12 251.512 19.19 252.202 18.46C252.902 17.72 253.827 17.35 254.977 17.35C256.137 17.35 257.047 17.76 257.707 18.58C258.367 19.4 258.657 20.405 258.577 21.595H252.472C252.492 22.275 252.742 22.845 253.222 23.305C253.702 23.755 254.282 23.98 254.962 23.98C255.982 23.98 256.707 23.56 257.137 22.72H258.457C258.267 23.42 257.862 24 257.242 24.46C256.622 24.92 255.857 25.15 254.947 25.15ZM256.417 19.03C256.007 18.67 255.512 18.49 254.932 18.49C254.352 18.49 253.832 18.665 253.372 19.015C252.922 19.365 252.642 19.885 252.532 20.575H257.212C257.092 19.895 256.827 19.38 256.417 19.03ZM260.439 25V17.5H261.729V18.655C262.239 17.785 263.034 17.35 264.114 17.35C264.964 17.35 265.649 17.625 266.169 18.175C266.689 18.725 266.949 19.46 266.949 20.38V25H265.674V20.575C265.674 19.945 265.514 19.45 265.194 19.09C264.874 18.72 264.444 18.535 263.904 18.535C263.284 18.535 262.764 18.78 262.344 19.27C261.934 19.76 261.729 20.43 261.729 21.28V25H260.439ZM272.094 25.075C271.404 25.075 270.849 24.88 270.429 24.49C270.009 24.1 269.799 23.53 269.799 22.78V18.685H268.209V17.5H269.799V15.415H271.089V17.5H273.249V18.685H271.089V22.615C271.089 23.085 271.189 23.415 271.389 23.605C271.589 23.795 271.904 23.89 272.334 23.89C272.714 23.89 273.019 23.84 273.249 23.74V24.895C272.889 25.015 272.504 25.075 272.094 25.075ZM277.312 25.15C276.472 25.15 275.767 24.945 275.197 24.535C274.637 24.125 274.327 23.555 274.267 22.825H275.587C275.667 23.245 275.867 23.555 276.187 23.755C276.517 23.955 276.897 24.055 277.327 24.055C277.757 24.055 278.102 23.97 278.362 23.8C278.632 23.63 278.767 23.385 278.767 23.065C278.767 22.765 278.667 22.52 278.467 22.33C278.277 22.14 277.962 21.985 277.522 21.865L276.442 21.58C275.152 21.24 274.507 20.505 274.507 19.375C274.507 18.765 274.747 18.275 275.227 17.905C275.717 17.535 276.342 17.35 277.102 17.35C277.872 17.35 278.502 17.555 278.992 17.965C279.492 18.365 279.772 18.875 279.832 19.495H278.542C278.442 19.165 278.262 18.905 278.002 18.715C277.752 18.525 277.452 18.43 277.102 18.43C276.732 18.43 276.422 18.515 276.172 18.685C275.932 18.855 275.812 19.08 275.812 19.36C275.812 19.63 275.902 19.85 276.082 20.02C276.262 20.19 276.552 20.33 276.952 20.44L278.152 20.755C279.432 21.075 280.072 21.815 280.072 22.975C280.072 23.695 279.817 24.24 279.307 24.61C278.797 24.97 278.132 25.15 277.312 25.15ZM291.607 15.31C292.287 15.95 292.627 16.76 292.627 17.74C292.627 18.72 292.287 19.53 291.607 20.17C290.937 20.8 290.057 21.115 288.967 21.115H287.107V25H285.712V14.35H288.967C290.057 14.35 290.937 14.67 291.607 15.31ZM290.632 19.24C291.042 18.85 291.247 18.35 291.247 17.74C291.247 17.13 291.042 16.63 290.632 16.24C290.232 15.85 289.677 15.655 288.967 15.655H287.107V19.825H288.967C289.677 19.825 290.232 19.63 290.632 19.24ZM297.401 25.15C296.271 25.15 295.331 24.775 294.581 24.025C293.841 23.265 293.471 22.34 293.471 21.25C293.471 20.16 293.841 19.24 294.581 18.49C295.331 17.73 296.271 17.35 297.401 17.35C298.521 17.35 299.451 17.73 300.191 18.49C300.941 19.24 301.316 20.16 301.316 21.25C301.316 22.34 300.941 23.265 300.191 24.025C299.451 24.775 298.521 25.15 297.401 25.15ZM295.511 23.17C296.001 23.69 296.631 23.95 297.401 23.95C298.171 23.95 298.796 23.69 299.276 23.17C299.756 22.65 299.996 22.01 299.996 21.25C299.996 20.49 299.756 19.85 299.276 19.33C298.796 18.81 298.171 18.55 297.401 18.55C296.631 18.55 296.001 18.81 295.511 19.33C295.031 19.85 294.791 20.49 294.791 21.25C294.791 22.01 295.031 22.65 295.511 23.17ZM309.499 25L307.639 19.615L305.794 25H304.654L302.104 17.5H303.454L305.269 22.975L307.144 17.5H308.134L310.009 22.975L311.824 17.5H313.189L310.639 25H309.499ZM317.745 25.15C316.655 25.15 315.75 24.78 315.03 24.04C314.32 23.3 313.965 22.37 313.965 21.25C313.965 20.12 314.31 19.19 315 18.46C315.7 17.72 316.625 17.35 317.775 17.35C318.935 17.35 319.845 17.76 320.505 18.58C321.165 19.4 321.455 20.405 321.375 21.595H315.27C315.29 22.275 315.54 22.845 316.02 23.305C316.5 23.755 317.08 23.98 317.76 23.98C318.78 23.98 319.505 23.56 319.935 22.72H321.255C321.065 23.42 320.66 24 320.04 24.46C319.42 24.92 318.655 25.15 317.745 25.15ZM319.215 19.03C318.805 18.67 318.31 18.49 317.73 18.49C317.15 18.49 316.63 18.665 316.17 19.015C315.72 19.365 315.44 19.885 315.33 20.575H320.01C319.89 19.895 319.625 19.38 319.215 19.03ZM323.236 25V17.5H324.526V18.955C324.666 18.495 324.936 18.125 325.336 17.845C325.746 17.565 326.176 17.425 326.626 17.425C326.846 17.425 327.041 17.445 327.211 17.485V18.82C327.031 18.74 326.796 18.7 326.506 18.7C325.986 18.7 325.526 18.925 325.126 19.375C324.726 19.825 324.526 20.46 324.526 21.28V25H323.236ZM331.661 25.15C330.571 25.15 329.666 24.78 328.946 24.04C328.236 23.3 327.881 22.37 327.881 21.25C327.881 20.12 328.226 19.19 328.916 18.46C329.616 17.72 330.541 17.35 331.691 17.35C332.851 17.35 333.761 17.76 334.421 18.58C335.081 19.4 335.371 20.405 335.291 21.595H329.186C329.206 22.275 329.456 22.845 329.936 23.305C330.416 23.755 330.996 23.98 331.676 23.98C332.696 23.98 333.421 23.56 333.851 22.72H335.171C334.981 23.42 334.576 24 333.956 24.46C333.336 24.92 332.571 25.15 331.661 25.15ZM333.131 19.03C332.721 18.67 332.226 18.49 331.646 18.49C331.066 18.49 330.546 18.665 330.086 19.015C329.636 19.365 329.356 19.885 329.246 20.575H333.926C333.806 19.895 333.541 19.38 333.131 19.03ZM340.243 25.15C339.203 25.15 338.328 24.77 337.618 24.01C336.918 23.25 336.568 22.33 336.568 21.25C336.568 20.17 336.918 19.25 337.618 18.49C338.328 17.73 339.203 17.35 340.243 17.35C340.793 17.35 341.303 17.475 341.773 17.725C342.253 17.965 342.623 18.275 342.883 18.655V13.75H344.173V25H342.883V23.845C342.623 24.225 342.253 24.54 341.773 24.79C341.303 25.03 340.793 25.15 340.243 25.15ZM340.438 23.965C341.178 23.965 341.788 23.705 342.268 23.185C342.748 22.665 342.988 22.02 342.988 21.25C342.988 20.48 342.748 19.835 342.268 19.315C341.788 18.795 341.178 18.535 340.438 18.535C339.688 18.535 339.073 18.795 338.593 19.315C338.113 19.835 337.873 20.48 337.873 21.25C337.873 22.02 338.113 22.665 338.593 23.185C339.073 23.705 339.688 23.965 340.438 23.965ZM354.149 25.15C353.599 25.15 353.084 25.03 352.604 24.79C352.134 24.54 351.769 24.225 351.509 23.845V25H350.219V13.75H351.509V18.655C351.769 18.275 352.134 17.965 352.604 17.725C353.084 17.475 353.599 17.35 354.149 17.35C355.189 17.35 356.059 17.73 356.759 18.49C357.469 19.25 357.824 20.17 357.824 21.25C357.824 22.33 357.469 23.25 356.759 24.01C356.059 24.77 355.189 25.15 354.149 25.15ZM352.124 23.185C352.604 23.705 353.214 23.965 353.954 23.965C354.694 23.965 355.304 23.705 355.784 23.185C356.264 22.665 356.504 22.02 356.504 21.25C356.504 20.48 356.264 19.835 355.784 19.315C355.304 18.795 354.694 18.535 353.954 18.535C353.214 18.535 352.604 18.795 352.124 19.315C351.644 19.835 351.404 20.48 351.404 21.25C351.404 22.02 351.644 22.665 352.124 23.185ZM361.516 28.135H360.076L361.711 24.61L358.426 17.5H359.851L362.431 23.2L364.996 17.5H366.436L361.516 28.135ZM370.765 21.445V20.155H374.59V21.445H370.765Z" fill="black"/>
<path d="M36.6875 15.1874V14.3749C36.6875 11.8749 34.8125 9.74994 32.4375 9.56244C31.125 9.43744 29.8125 9.90619 28.8438 10.7812C27.875 11.6562 27.3125 12.9062 27.3125 14.1874V15.1874C25.5 15.5312 24.125 17.1249 24.125 19.0624V24.7187C24.125 26.7812 25.8125 28.4374 27.8438 28.4374H36.0938C38.1562 28.4374 39.8438 26.7499 39.8438 24.6874V18.9999C39.875 17.1249 38.5 15.5624 36.6875 15.1874ZM29.7812 11.8124C30.4687 11.1874 31.375 10.8749 32.3125 10.9687C33.9688 11.1249 35.2812 12.6249 35.2812 14.3749V15.0937H28.7188V14.1562C28.7188 13.2812 29.0937 12.4374 29.7812 11.8124ZM38.4688 24.7187C38.4688 25.9999 37.4062 27.0624 36.125 27.0624H27.875C26.5937 27.0624 25.5625 26.0312 25.5625 24.7499V19.0624C25.5625 17.6562 26.6875 16.5312 28.0938 16.5312H35.9062C37.3125 16.5312 38.4688 17.6562 38.4688 18.9999V24.7187Z" fill="#22AD5C"/>
<path d="M32 19.7812C31.625 19.7812 31.2812 20.0937 31.2812 20.5V23.7812C31.2812 24.1562 31.5937 24.5 32 24.5C32.375 24.5 32.7187 24.1875 32.7187 23.7812V20.4688C32.7187 20.0938 32.375 19.7812 32 19.7812Z" fill="#22AD5C"/>
<path fill-rule="evenodd" clip-rule="evenodd" d="M415.201 14.6799C416.793 14.6799 418.203 15.4798 419.089 16.7403V10H420.901V25.0001H419.089V23.2598C418.203 24.5227 416.793 25.3201 415.201 25.3201C412.22 25.3201 409.702 22.9801 409.702 20.0003C409.702 17.0205 412.22 14.6799 415.201 14.6799ZM415.201 23.7198C417.558 23.7198 419.089 22.14 419.089 20.0003C419.089 17.8606 417.558 16.2802 415.201 16.2802C413.106 16.2802 411.515 17.78 411.515 20.0003C411.515 22.2206 413.106 23.7198 415.201 23.7198ZM406.681 16.7402C405.795 15.4797 404.385 14.6799 402.793 14.6799C399.812 14.6799 397.294 17.0204 397.294 20.0003C397.294 22.9801 399.812 25.3201 402.793 25.3201C404.365 25.3201 405.772 24.5226 406.681 23.2598V25.0001H408.494V14.9998H406.681V16.7402ZM406.681 20.0003C406.681 22.1201 405.13 23.7198 402.793 23.7198C400.698 23.7198 399.107 22.2206 399.107 20.0003C399.107 17.78 400.698 16.2801 402.793 16.2801C405.15 16.2801 406.681 17.8599 406.681 20.0003ZM384 19.7386V20.2799C384.331 20.2799 384.659 20.3448 384.964 20.4707C385.27 20.5966 385.548 20.7811 385.781 21.0136C386.015 21.2461 386.201 21.5221 386.327 21.8258C386.453 22.1294 386.518 22.4548 386.518 22.7834H387.022C387.022 22.1204 387.287 21.4847 387.759 21.0159C388.231 20.5471 388.872 20.2836 389.54 20.2835V19.7423C389.209 19.7422 388.881 19.6773 388.575 19.5514C388.27 19.4256 387.992 19.2411 387.758 19.0086C387.524 18.7761 387.339 18.5001 387.212 18.1964C387.086 17.8928 387.021 17.5673 387.022 17.2388H386.518C386.518 17.9017 386.252 18.5374 385.78 19.0063C385.308 19.4751 384.668 19.7385 384 19.7386ZM390.848 16.3H386.518V14.6997H390.848C393.89 14.6997 396.287 17.0806 396.287 20.0003C396.287 22.9199 393.89 25.3002 390.848 25.3002H388.331V29.9999H386.518V23.6999H390.848C392.964 23.6999 394.475 22.2007 394.475 20.0003C394.475 17.7998 392.963 16.3 390.848 16.3ZM431.699 16.7403C430.812 15.4798 429.402 14.6799 427.811 14.6799C424.83 14.6799 422.312 17.0205 422.312 20.0003C422.312 22.9801 424.83 25.3201 427.811 25.3201C429.402 25.3201 430.812 24.5227 431.699 23.2598V25.0001H433.512V10H431.699V16.7403ZM431.699 20.0003C431.699 22.14 430.168 23.7198 427.811 23.7198C425.716 23.7198 424.125 22.2206 424.125 20.0003C424.125 17.78 425.716 16.2802 427.811 16.2802C430.168 16.2802 431.699 17.8606 431.699 20.0003ZM435.323 25.0001V10H437.136V25.0001H435.323ZM449.001 20.7009C449.001 17.4005 447.329 14.7003 443.845 14.7003C440.803 14.7003 438.446 17.1214 438.446 20.0009C438.446 22.8803 440.803 25.3008 443.845 25.3008C446.262 25.3008 448.054 23.7805 448.739 22.2404H446.785C446.06 23.3403 445.094 23.9008 443.845 23.9008C442.032 23.9008 440.581 22.6403 440.3 20.7009H449.001ZM443.845 16.1003C445.778 16.1003 447.188 17.6603 447.188 19.3009H440.3C440.581 17.3632 442.032 16.1003 443.845 16.1003Z" fill="#1C274C"/>
<rect x="0.5" y="0.5" width="470.625" height="39" rx="19.5" stroke="#EAEAEA"/>
</svg>
