<svg width="879" height="36" viewBox="0 0 879 36" fill="none" xmlns="http://www.w3.org/2000/svg">
<g clip-path="url(#clip0_198_10862)">
<path d="M702.038 17.6602V26.5506H699.22V4.6048H706.693C708.496 4.5698 710.228 5.25232 711.541 6.51237C712.853 7.68492 713.588 9.38247 713.553 11.1325C713.588 12.9001 712.853 14.5976 711.541 15.7877C710.228 17.0303 708.618 17.6602 706.711 17.6602H702.038ZM702.038 7.2999V14.9651H706.763C707.813 15.0002 708.828 14.5802 709.546 13.8276C711.033 12.3926 711.051 10.03 709.616 8.54245L709.546 8.47244C708.828 7.70242 707.813 7.2824 706.763 7.3174L702.038 7.2999ZM720.046 11.045C722.129 11.045 723.774 11.6051 724.981 12.7076C726.189 13.8276 726.784 15.3502 726.784 17.2927V26.5331H724.089V24.4506H723.966C722.794 26.1656 721.254 27.0231 719.311 27.0231C717.666 27.0231 716.266 26.5331 715.163 25.5531C714.078 24.6431 713.466 23.2955 713.501 21.8779C713.501 20.3203 714.096 19.0954 715.268 18.1678C716.441 17.2403 718.016 16.7853 719.976 16.7853C721.656 16.7853 723.021 17.1002 724.106 17.6953V17.0478C724.106 16.0853 723.686 15.1752 722.951 14.5627C722.199 13.8976 721.236 13.5301 720.239 13.5301C718.663 13.5301 717.421 14.1952 716.493 15.5252L714.008 13.9677C715.356 12.0251 717.368 11.045 720.046 11.045ZM716.406 21.948C716.406 22.683 716.756 23.3655 717.333 23.7855C717.963 24.2756 718.733 24.538 719.521 24.5205C720.711 24.5205 721.849 24.048 722.689 23.208C723.616 22.333 724.089 21.3004 724.089 20.1103C723.214 19.4103 721.989 19.0603 720.414 19.0603C719.276 19.0603 718.313 19.3404 717.543 19.8829C716.791 20.4429 716.406 21.1254 716.406 21.948ZM742.254 11.5351L732.839 33.1659H729.934L733.434 25.6056L727.239 11.5526H730.301L734.764 22.333H734.834L739.192 11.5526L742.254 11.5351Z" fill="#5F6368"/>
<path d="M690.645 15.7352C690.645 14.8777 690.575 14.0201 690.435 13.1801H678.552V18.0277H685.36C685.08 19.5853 684.17 20.9854 682.84 21.8604V25.0105H686.9C689.28 22.8229 690.645 19.5853 690.645 15.7352Z" fill="#4285F4"/>
<path d="M678.552 28.0557C681.947 28.0557 684.817 26.9357 686.9 25.0106L682.84 21.8605C681.702 22.6305 680.25 23.0681 678.552 23.0681C675.262 23.0681 672.48 20.8454 671.482 17.8704H667.299V21.1255C669.434 25.3607 673.792 28.0557 678.552 28.0557Z" fill="#34A853"/>
<path d="M671.482 17.8703C670.957 16.3128 670.957 14.6152 671.482 13.0401V9.80255H667.299C666.41 11.5543 665.947 13.491 665.947 15.4553C665.947 17.4196 666.41 19.3562 667.299 21.108L671.482 17.8703Z" fill="#FBBC04"/>
<path d="M678.552 7.84245C680.355 7.80745 682.087 8.48997 683.382 9.73252L686.97 6.14489C684.695 3.99231 681.685 2.81976 678.552 2.85477C673.792 2.85477 669.434 5.54987 667.299 9.80253L671.482 13.0577C672.48 10.065 675.262 7.84245 678.552 7.84245Z" fill="#EA4335"/>
</g>
<g clip-path="url(#clip1_198_10862)">
<path fill-rule="evenodd" clip-rule="evenodd" d="M261.006 5.22745H225.841C225.124 5.22745 224.436 5.51197 223.928 6.01861C223.42 6.52525 223.134 7.21264 223.132 7.92998V28.2308C223.132 28.9491 223.418 29.6382 223.926 30.1462C224.434 30.6542 225.123 30.9396 225.841 30.9396H261.006C261.363 30.9422 261.718 30.8739 262.048 30.7389C262.379 30.6039 262.68 30.4048 262.934 30.153C263.187 29.9012 263.388 29.6017 263.526 29.2718C263.663 28.9419 263.734 28.5881 263.734 28.2308V7.92998C263.732 7.57341 263.66 7.22066 263.522 6.89187C263.384 6.56308 263.183 6.26469 262.93 6.01373C262.676 5.76278 262.376 5.56418 262.046 5.42926C261.716 5.29435 261.363 5.22577 261.006 5.22745Z" fill="#227FBB"/>
<path fill-rule="evenodd" clip-rule="evenodd" d="M226.793 14.4643L226.012 12.5611L225.232 14.4643H226.793ZM244.004 13.7094C243.828 13.792 243.633 13.8249 243.439 13.8045H242.05V12.7451H243.433C243.617 12.7288 243.803 12.7593 243.972 12.8339C244.05 12.8709 244.115 12.9309 244.158 13.0057C244.201 13.0805 244.22 13.1666 244.213 13.2526C244.219 13.3428 244.2 13.4329 244.159 13.5134C244.118 13.5938 244.055 13.6615 243.979 13.7094H244.004ZM253.894 14.4643L253.108 12.5611L252.315 14.4643H253.894ZM235.459 16.5261H234.285V12.7832L232.648 16.5261H231.627L229.965 12.7832V16.5261H227.643L227.205 15.4603H224.826L224.401 16.5261H223.132L225.188 11.7364H226.888L228.842 16.2723V11.7364H230.701L232.198 14.9781L233.555 11.7364H235.459V16.5135V16.5261ZM240.122 16.5261H236.315V11.7364H240.122V12.7324H237.451V13.6396H240.058V14.6165H237.451V15.5428H240.122V16.5325V16.5261ZM245.495 13.0369C245.501 13.3035 245.428 13.5661 245.286 13.7917C245.144 14.0173 244.939 14.1961 244.696 14.3057C244.916 14.3869 245.11 14.5248 245.26 14.7054C245.416 14.9689 245.481 15.2768 245.444 15.5809V16.5197H244.296V15.9235C244.344 15.6014 244.282 15.2725 244.118 14.9909C243.878 14.8181 243.58 14.7453 243.287 14.7878H242.05V16.5261H240.895V11.7364H243.516C243.989 11.6911 244.465 11.7698 244.899 11.9648C245.086 12.0675 245.24 12.222 245.343 12.4098C245.445 12.5976 245.491 12.8109 245.476 13.0242L245.495 13.0369ZM247.322 16.5261H246.161V11.7364H247.322V16.5135V16.5261ZM260.835 16.5261H259.217L257.054 12.9417V16.5261H254.732L254.288 15.4603H251.915L251.484 16.5261H250.145C249.549 16.564 248.96 16.376 248.496 15.9996C248.269 15.7557 248.095 15.4674 247.986 15.1528C247.877 14.8383 247.834 14.5043 247.861 14.1725C247.837 13.835 247.881 13.4961 247.99 13.1758C248.099 12.8555 248.271 12.5602 248.496 12.3074C248.732 12.1004 249.008 11.9431 249.307 11.845C249.605 11.7469 249.921 11.71 250.234 11.7364H251.338V12.7578H250.253C250.095 12.7391 249.935 12.7549 249.784 12.8042C249.633 12.8535 249.494 12.9351 249.377 13.0433C249.137 13.3516 249.019 13.7381 249.048 14.1281C249.013 14.5265 249.126 14.9239 249.365 15.2446C249.474 15.3359 249.6 15.4047 249.737 15.4472C249.873 15.4897 250.016 15.505 250.158 15.492H250.672L252.277 11.7364H253.989L255.893 16.2533V11.7364H257.631L259.636 15.067V11.7364H260.803V16.5135L260.835 16.5261ZM223.132 17.446H225.08L225.524 16.3865H226.507L226.939 17.446H230.777V16.653L231.126 17.446H233.118L233.46 16.6213V17.446H242.976V15.7204H243.16C243.287 15.7204 243.325 15.7204 243.325 15.9552V17.446H248.255V17.04C248.823 17.3225 249.453 17.4619 250.088 17.446H252.162L252.606 16.3865H253.583L254.047 17.446H258.024V16.4564L258.659 17.446H261.831V10.8038H258.659V11.5905L258.215 10.8038H254.985V11.5905L254.573 10.8038H250.183C249.526 10.7738 248.873 10.9068 248.28 11.1908V10.8038H245.241V11.1908C244.878 10.9138 244.428 10.7765 243.972 10.8038H232.87L232.128 12.523L231.38 10.8038H227.878V11.5905L227.491 10.8038H224.515L223.132 13.9695V17.446ZM263.734 20.9606H261.653C261.493 20.9441 261.332 20.9749 261.19 21.0493C261.134 21.0861 261.089 21.1374 261.06 21.1977C261.031 21.258 261.019 21.3252 261.025 21.3919C261.022 21.4699 261.045 21.5466 261.09 21.6107C261.134 21.6747 261.198 21.7226 261.272 21.7472C261.416 21.7924 261.566 21.8118 261.716 21.8043H262.351C262.807 21.7691 263.26 21.9073 263.62 22.1913C263.662 22.225 263.699 22.2658 263.728 22.3118L263.734 20.9606ZM263.734 24.1325C263.548 24.3573 263.309 24.5328 263.039 24.6433C262.769 24.754 262.476 24.7964 262.186 24.7669H259.978V23.7202H262.173C262.337 23.742 262.504 23.6988 262.636 23.5996C262.68 23.5605 262.715 23.5126 262.739 23.4591C262.763 23.4055 262.776 23.3474 262.776 23.2888C262.777 23.2289 262.766 23.1694 262.742 23.1146C262.717 23.0597 262.682 23.0109 262.636 22.9716C262.517 22.8906 262.374 22.8525 262.23 22.8638C261.158 22.8321 259.82 22.9018 259.82 21.3856C259.82 20.6941 260.264 19.9645 261.463 19.9645H263.734V19.0129H261.621C261.115 18.9867 260.615 19.1246 260.194 19.4063V19.0129H257.066C256.58 18.9879 256.1 19.1264 255.702 19.4063V19.0129H250.126V19.4063C249.658 19.1362 249.125 19.0001 248.584 19.0129H244.905V19.4063C244.425 19.1024 243.859 18.9642 243.293 19.0129H239.176L238.237 20.0344L237.349 19.0129H231.196V25.6931H237.235L238.206 24.6591L239.119 25.6931H242.843V24.1135H243.211C243.75 24.1488 244.291 24.0688 244.797 23.8788V25.6931H247.874V23.9422H248.026C248.21 23.9422 248.229 23.9422 248.229 24.1389V25.6931H257.555C258.104 25.7141 258.647 25.5657 259.109 25.2682V25.6931H262.065C262.638 25.7066 263.206 25.5985 263.734 25.376V24.1072V24.1325ZM259.179 22.2293C259.303 22.3646 259.397 22.5241 259.456 22.6978C259.515 22.8714 259.537 23.0554 259.521 23.238C259.521 24.2657 258.887 24.7479 257.726 24.7479H255.487V23.7202H257.701C257.867 23.738 258.033 23.6952 258.17 23.5996C258.212 23.5593 258.245 23.5109 258.268 23.4576C258.291 23.4043 258.303 23.3469 258.303 23.2888C258.304 23.2291 258.291 23.17 258.267 23.1154C258.243 23.0606 258.208 23.0117 258.164 22.9716C258.045 22.8906 257.901 22.8525 257.758 22.8638C256.686 22.8321 255.353 22.9018 255.353 21.3856C255.353 20.6941 255.785 19.9645 256.984 19.9645H259.293V20.9796H257.2C257.042 20.9621 256.882 20.993 256.743 21.0684C256.685 21.1038 256.638 21.1546 256.608 21.2151C256.578 21.2757 256.565 21.3436 256.571 21.4109C256.568 21.4892 256.59 21.5664 256.635 21.6307C256.68 21.6949 256.744 21.7426 256.819 21.7663C256.962 21.8115 257.113 21.8308 257.263 21.8234H257.897C258.353 21.7919 258.805 21.9297 259.166 22.2103L259.179 22.2293ZM248.883 21.9312C248.707 22.0166 248.512 22.0518 248.318 22.0327H246.929V20.9542H248.337C248.523 20.9362 248.71 20.9645 248.883 21.0367C248.958 21.0799 249.019 21.1431 249.061 21.2192C249.102 21.2953 249.122 21.3815 249.117 21.468C249.122 21.5581 249.102 21.6477 249.061 21.7278C249.02 21.808 248.958 21.876 248.883 21.9248V21.9312ZM249.568 22.5276C249.789 22.6059 249.985 22.7442 250.132 22.9272C250.286 23.1871 250.35 23.49 250.316 23.7899V24.7415H249.174V24.1453C249.221 23.8205 249.156 23.4895 248.99 23.2063C248.749 23.0303 248.449 22.9552 248.153 22.997H246.929V24.7415H245.78V19.9836H248.419C248.888 19.9424 249.36 20.021 249.79 20.2119C249.983 20.3071 250.144 20.4559 250.254 20.6404C250.364 20.825 250.419 21.0375 250.411 21.2524C250.42 21.5211 250.347 21.7861 250.202 22.0125C250.057 22.239 249.847 22.4163 249.599 22.5212L249.568 22.5276ZM251.046 19.9836H254.852V20.9732H252.15V21.8234H254.757V22.794H252.15V23.7456H254.852V24.7415H251.046V19.9836ZM243.313 22.1722H241.834V20.9542H243.325C243.738 20.9542 244.023 21.1192 244.023 21.5379C244.023 21.9566 243.75 22.1722 243.313 22.1722ZM240.699 24.3102L238.948 22.3625L240.699 20.4593V24.2657V24.3102ZM236.176 23.7456H233.365V22.794H235.871V21.8234H233.365V20.9542H236.226L237.495 22.3435L236.195 23.7456H236.176ZM245.247 21.5379C245.247 22.8638 244.258 23.1429 243.262 23.1429H241.834V24.7415H239.627L238.212 23.1556L236.753 24.7353H232.23V19.9836H236.823L238.225 21.5505L239.677 19.9836H243.325C244.232 19.9836 245.228 20.2373 245.228 21.5569L245.247 21.5379Z" fill="white"/>
</g>
<g clip-path="url(#clip2_198_10862)">
<path d="M577.701 8.50043C579.072 8.61614 580.442 7.80614 581.301 6.77385V6.7708C582.144 5.7172 582.701 4.29209 582.564 2.8548C581.343 2.91265 579.848 3.6648 578.992 4.72145C578.201 5.62279 577.528 7.10881 577.701 8.50043ZM574.309 27.3557C575.825 27.2978 576.422 26.36 578.249 26.36C580.089 26.36 580.625 27.3557 582.223 27.3344C583.88 27.3009 584.918 25.8302 585.932 24.3198C587.083 22.6054 587.564 20.9458 587.589 20.8545C587.555 20.821 584.391 19.5907 584.355 15.8818C584.321 12.7758 586.858 11.3019 586.968 11.2106C585.539 9.05464 583.313 8.82321 582.537 8.76535L582.543 8.7684C580.554 8.64964 578.855 9.91336 577.917 9.91336C576.958 9.91336 575.521 8.82321 573.944 8.8567C571.903 8.89324 570.006 10.0656 568.968 11.9292C566.821 15.6717 568.408 21.2016 570.484 24.2498C571.501 25.754 572.71 27.4135 574.309 27.3557ZM611.338 15.6047H614.456C614.718 14.2131 615.984 13.2965 617.723 13.2965C619.836 13.2965 621.024 14.2922 621.024 16.1345V17.3861L616.709 17.654C612.702 17.8977 610.531 19.5664 610.531 22.4623C610.543 25.3825 612.778 27.3284 615.987 27.3313C618.159 27.3313 620.168 26.2199 621.079 24.4477H621.146V27.1609H624.343V15.9183C624.343 12.6631 621.773 10.5528 617.824 10.5528C614.157 10.5528 611.444 12.6814 611.338 15.6047ZM621.036 21.0433C621.036 23.1535 619.264 24.6578 616.925 24.6578C615.086 24.6578 613.911 23.7534 613.911 22.3861C613.911 20.958 615.04 20.1389 617.199 20.011L621.036 19.7673V21.0433ZM594.005 4.5692V27.1578H597.464V19.4385H602.248C606.621 19.4385 609.681 16.3903 609.681 11.9871C609.681 7.58385 606.669 4.5692 602.361 4.5692H594.005ZM606.167 11.9992C606.167 14.8495 604.456 16.4969 601.438 16.4969H597.464V7.52599H601.45C604.453 7.52599 606.167 9.14599 606.167 11.9992Z" fill="black"/>
<path d="M633.383 24.1097L629.317 10.7722H625.709L631.556 27.2187L631.236 28.2145C630.709 29.9045 629.853 30.5684 628.325 30.5684C628.051 30.5684 627.527 30.5349 627.308 30.5105V33.2237C627.515 33.2724 628.373 33.3059 628.635 33.3059L628.632 33.2998C632 33.2998 633.587 31.9904 634.972 28.0379L641.035 10.7722H637.518L633.453 24.1097H633.383Z" fill="black"/>
</g>
<g clip-path="url(#clip3_198_10862)">
<path d="M334.817 2.8548H290.983C289.598 2.8548 288.476 3.97739 288.476 5.36218V30.7985C288.476 32.1833 289.598 33.3059 290.983 33.3059H334.817C336.202 33.3059 337.324 32.1833 337.324 30.7985V5.36218C337.324 3.97739 336.202 2.8548 334.817 2.8548Z" fill="#F4F5FB"/>
<path d="M336.742 20.1125C336.742 20.1125 323.98 29.2267 300.605 33.3059H336.742V20.1125Z" fill="#F58025"/>
<path d="M293.119 13.0009H291.17V19.8899H293.109C294.14 19.8899 294.884 19.6438 295.538 19.0946C295.922 18.7721 296.232 18.3682 296.446 17.9112C296.659 17.4543 296.771 16.9556 296.774 16.4502C296.774 14.4171 295.273 13.0009 293.119 13.0009ZM294.671 18.176C294.253 18.5573 293.711 18.7237 292.853 18.7237H292.497V14.1682H292.853C293.711 14.1682 294.232 14.3235 294.671 14.7252C294.904 14.9438 295.09 15.2092 295.216 15.5044C295.343 15.7997 295.408 16.1184 295.406 16.4402C295.408 16.7652 295.344 17.087 295.217 17.3857C295.09 17.6843 294.904 17.9534 294.671 18.176Z" fill="#231F20"/>
<path d="M298.712 13.0009H297.384V19.8899H298.712V13.0009Z" fill="#231F20"/>
<path d="M301.959 15.6446C301.162 15.3461 300.928 15.1494 300.928 14.7772C300.928 14.3433 301.345 14.0135 301.917 14.0135C302.126 14.0181 302.331 14.0707 302.516 14.1674C302.702 14.264 302.863 14.4023 302.988 14.5714L303.683 13.6509C303.132 13.1545 302.42 12.8824 301.683 12.887C300.478 12.887 299.56 13.7335 299.56 14.861C299.56 15.81 299.987 16.296 301.234 16.7502C301.552 16.8516 301.859 16.9829 302.152 17.1426C302.274 17.216 302.375 17.3204 302.445 17.4455C302.515 17.5705 302.551 17.7118 302.55 17.8554C302.549 17.9888 302.521 18.1206 302.468 18.2427C302.415 18.3648 302.338 18.4747 302.241 18.5656C302.145 18.6566 302.031 18.7266 301.907 18.7716C301.783 18.8165 301.651 18.8355 301.519 18.8271C301.216 18.832 300.918 18.7478 300.66 18.5848C300.403 18.4217 300.198 18.1868 300.07 17.9083L299.212 18.7442C299.824 19.653 300.559 20.0557 301.569 20.0557C302.949 20.0557 303.917 19.1273 303.917 17.7936C303.917 16.699 303.469 16.2036 301.959 15.6446Z" fill="#231F20"/>
<path d="M304.336 16.4502C304.332 16.9268 304.422 17.3994 304.602 17.84C304.782 18.2806 305.047 18.6801 305.382 19.0153C305.717 19.3504 306.115 19.6142 306.552 19.7911C306.99 19.968 307.458 20.0544 307.929 20.0452C308.507 20.046 309.077 19.9084 309.593 19.6437V18.0619C309.062 18.5995 308.592 18.8164 307.99 18.8164C306.653 18.8164 305.704 17.8352 305.704 16.4402C305.694 16.1363 305.744 15.8335 305.851 15.5494C305.957 15.2652 306.119 15.0055 306.326 14.7853C306.533 14.5651 306.782 14.3887 307.057 14.2666C307.332 14.1445 307.628 14.0791 307.929 14.0741C308.562 14.0741 309.041 14.3028 309.593 14.8493V13.2682C309.093 12.9903 308.531 12.8448 307.96 12.8451C307.487 12.8391 307.019 12.9278 306.58 13.1062C306.142 13.2844 305.743 13.5487 305.406 13.8839C305.069 14.219 304.801 14.6182 304.617 15.0587C304.434 15.4991 304.338 15.9721 304.336 16.4502Z" fill="#231F20"/>
<path d="M320.121 17.6283L318.306 13.0009H316.855L319.744 20.0668H320.458L323.399 13.0009H321.96L320.121 17.6283Z" fill="#231F20"/>
<path d="M324 19.8898H327.765V18.7238H325.326V16.8642H327.675V15.6974H325.326V14.168H327.765V13.0009H324V19.8898Z" fill="#231F20"/>
<path d="M333.022 15.0347C333.022 13.745 332.145 13.0009 330.613 13.0009H328.645V19.8899H329.971V17.1225H330.144L331.982 19.8899H333.615L331.472 16.9877C332.472 16.7818 333.022 16.0896 333.022 15.0347ZM330.359 16.1725H329.971V14.086H330.38C331.207 14.086 331.656 14.4366 331.656 15.1071C331.656 15.7997 331.207 16.1725 330.359 16.1725Z" fill="#231F20"/>
<path d="M317.254 16.4499C317.254 17.1744 317.041 17.8825 316.644 18.4849C316.246 19.0872 315.681 19.5567 315.019 19.8339C314.358 20.1111 313.63 20.1836 312.928 20.0423C312.226 19.9009 311.581 19.552 311.075 19.0398C310.569 18.5275 310.224 17.8748 310.085 17.1643C309.945 16.4538 310.017 15.7173 310.291 15.048C310.565 14.3787 311.028 13.8066 311.624 13.4041C312.219 13.0016 312.919 12.7867 313.634 12.7867C314.11 12.7866 314.58 12.8813 315.02 13.0654C315.459 13.2494 315.858 13.5193 316.194 13.8595C316.53 14.1996 316.797 14.6034 316.979 15.0479C317.16 15.4924 317.254 15.9688 317.254 16.4499Z" fill="#F58025"/>
<path d="M333.731 13.1374C333.731 13.0168 333.649 12.9507 333.505 12.9507H333.312V13.5562H333.455V13.3214L333.623 13.5562H333.797L333.6 13.3065C333.638 13.2986 333.672 13.2772 333.696 13.2463C333.72 13.2153 333.733 13.1767 333.731 13.1374ZM333.48 13.2201H333.455V13.0618H333.481C333.551 13.0618 333.588 13.0876 333.588 13.1397C333.588 13.1932 333.551 13.2201 333.48 13.2201Z" fill="#231F20"/>
<path d="M333.534 12.7246C333.43 12.7232 333.329 12.753 333.242 12.8101C333.155 12.8672 333.087 12.9492 333.047 13.0456C333.006 13.1419 332.995 13.2483 333.014 13.3511C333.033 13.454 333.083 13.5488 333.155 13.6233C333.228 13.6978 333.321 13.7488 333.422 13.7697C333.524 13.7907 333.629 13.7806 333.725 13.7408C333.82 13.701 333.902 13.6334 333.96 13.5464C334.018 13.4594 334.048 13.357 334.048 13.2524C334.049 13.1133 333.995 12.9796 333.899 12.8807C333.802 12.7818 333.671 12.7255 333.534 12.7246ZM333.531 13.686C333.446 13.689 333.362 13.6663 333.289 13.6205C333.217 13.5748 333.16 13.5082 333.125 13.4294C333.09 13.3504 333.079 13.2627 333.094 13.1777C333.109 13.0925 333.149 13.0139 333.208 12.9516C333.267 12.8895 333.344 12.8467 333.427 12.8287C333.511 12.8108 333.597 12.8185 333.677 12.8509C333.756 12.8833 333.824 12.9389 333.871 13.0106C333.919 13.0822 333.945 13.1667 333.944 13.2531C333.946 13.3658 333.904 13.4746 333.826 13.5557C333.749 13.6369 333.643 13.6837 333.531 13.686Z" fill="#231F20"/>
</g>
<g clip-path="url(#clip4_198_10862)">
<path d="M196.887 32.887V32.9694H196.956H196.995C196.997 32.9647 196.999 32.9591 196.999 32.9536C196.999 32.948 196.997 32.9426 196.995 32.9377H196.956L196.887 32.887ZM196.956 32.8362C196.971 32.8303 196.986 32.8272 197.001 32.8272C197.016 32.8272 197.031 32.8303 197.045 32.8362C197.05 32.8471 197.053 32.859 197.053 32.8711C197.053 32.8832 197.05 32.8951 197.045 32.906C197.049 32.915 197.051 32.9247 197.051 32.9346C197.051 32.9444 197.049 32.9541 197.045 32.9631C197.023 32.9713 196.998 32.9713 196.975 32.9631L197.071 33.0709H196.995L196.906 32.9631V33.0709H196.842V32.7791L196.956 32.8362ZM196.956 33.2296C196.988 33.2385 197.021 33.2385 197.052 33.2296C197.083 33.2189 197.111 33.2016 197.134 33.1788C197.155 33.156 197.172 33.1303 197.185 33.1026C197.21 33.0395 197.21 32.9691 197.185 32.906C197.172 32.8783 197.155 32.8527 197.134 32.8299C197.111 32.8053 197.083 32.7858 197.052 32.7728H196.956H196.861C196.83 32.7858 196.802 32.8053 196.779 32.8299C196.745 32.8655 196.722 32.9103 196.713 32.9588C196.704 33.0072 196.709 33.0571 196.728 33.1026C196.74 33.1312 196.757 33.1571 196.779 33.1788C196.802 33.2034 196.83 33.2228 196.861 33.2359C196.893 33.2419 196.925 33.2419 196.956 33.2359V33.2296ZM196.956 32.6649C197.042 32.6651 197.124 32.6993 197.185 32.7601C197.216 32.788 197.24 32.8228 197.255 32.8616C197.274 32.9 197.284 32.9424 197.284 32.9853C197.284 33.0282 197.274 33.0706 197.255 33.109C197.241 33.1486 197.217 33.1837 197.185 33.2105C197.156 33.2407 197.122 33.2645 197.083 33.2803C197.043 33.297 197 33.3057 196.956 33.3057C196.913 33.3057 196.87 33.297 196.83 33.2803C196.79 33.2631 196.754 33.2395 196.722 33.2105C196.695 33.1807 196.673 33.1463 196.658 33.109C196.639 33.0706 196.629 33.0282 196.629 32.9853C196.629 32.9424 196.639 32.9 196.658 32.8616C196.692 32.7852 196.753 32.7241 196.83 32.6903C196.871 32.6808 196.915 32.6808 196.956 32.6903V32.6649ZM166.994 31.5484C167 31.3568 167.063 31.1715 167.175 31.0156C167.286 30.8597 167.441 30.7403 167.621 30.6725C167.8 30.6048 167.995 30.5916 168.182 30.6346C168.369 30.6777 168.539 30.775 168.67 30.9145C168.802 31.0539 168.889 31.2292 168.921 31.4181C168.953 31.6071 168.928 31.8013 168.85 31.9763C168.772 32.1513 168.644 32.2993 168.482 32.4015C168.319 32.5037 168.131 32.5557 167.939 32.5507C167.806 32.5528 167.674 32.5272 167.551 32.4756C167.428 32.424 167.317 32.3475 167.225 32.251C167.134 32.1544 167.063 32.0398 167.017 31.9146C166.972 31.7892 166.953 31.6559 166.962 31.523L166.994 31.5484ZM169.563 31.523V29.918H168.865V30.3113C168.747 30.1565 168.592 30.0325 168.416 29.9497C168.239 29.8669 168.045 29.8277 167.85 29.8355C167.403 29.8355 166.974 30.0133 166.657 30.3298C166.341 30.6463 166.163 31.0754 166.163 31.523C166.163 31.9705 166.341 32.3998 166.657 32.7163C166.974 33.0327 167.403 33.2105 167.85 33.2105C168.045 33.218 168.238 33.1793 168.414 33.0977C168.591 33.0161 168.745 32.8939 168.865 32.741V33.128H169.563V31.523ZM193.163 31.523C193.174 31.3339 193.24 31.1521 193.353 31.0002C193.467 30.8483 193.622 30.7328 193.8 30.668C193.978 30.6032 194.171 30.5919 194.355 30.6356C194.54 30.6792 194.707 30.7759 194.837 30.9137C194.967 31.0514 195.054 31.2242 195.087 31.4108C195.121 31.5973 195.098 31.7895 195.023 31.9636C194.949 32.1376 194.824 32.286 194.666 32.3903C194.508 32.4947 194.323 32.5504 194.133 32.5507C194.001 32.5519 193.869 32.5257 193.747 32.4736C193.625 32.4217 193.515 32.3451 193.424 32.2486C193.333 32.1521 193.263 32.0379 193.218 31.913C193.173 31.7882 193.154 31.6554 193.163 31.523ZM195.764 31.523V28.6301H195.072V30.3113C194.956 30.1558 194.803 30.0312 194.627 29.9483C194.451 29.8653 194.258 29.8266 194.064 29.8355C193.616 29.8355 193.187 30.0133 192.87 30.3298C192.554 30.6463 192.376 31.0754 192.376 31.523C192.376 31.9705 192.554 32.3998 192.87 32.7163C193.187 33.0327 193.616 33.2105 194.064 33.2105C194.257 33.219 194.45 33.1809 194.625 33.0991C194.801 33.0174 194.954 32.8946 195.072 32.741V33.128H195.776L195.764 31.523ZM178.242 30.4636C178.346 30.461 178.451 30.4793 178.548 30.5171C178.646 30.5551 178.735 30.612 178.81 30.6845C178.886 30.757 178.946 30.8438 178.988 30.9398C179.03 31.0359 179.052 31.1392 179.054 31.2439H177.392C177.403 31.0284 177.499 30.8261 177.657 30.6803C177.816 30.5345 178.026 30.4566 178.242 30.4636ZM178.242 29.8291C177.794 29.835 177.367 30.0185 177.055 30.3391C176.743 30.6598 176.571 31.0913 176.576 31.5389C176.582 31.9864 176.766 32.4133 177.086 32.7256C177.407 33.0379 177.839 33.2101 178.286 33.2042C178.764 33.2217 179.232 33.0611 179.599 32.7538L179.257 32.2335C178.992 32.447 178.664 32.5654 178.324 32.5697C178.094 32.5893 177.864 32.5182 177.685 32.3711C177.506 32.2242 177.392 32.0132 177.366 31.7832H179.752C179.752 31.7006 179.752 31.6119 179.752 31.5167C179.772 31.3034 179.747 31.0882 179.68 30.8848C179.612 30.6815 179.503 30.4945 179.359 30.3357C179.216 30.1769 179.04 30.0498 178.844 29.9626C178.649 29.8754 178.437 29.83 178.223 29.8291H178.242ZM186.66 31.5167C186.671 31.3275 186.738 31.1458 186.851 30.9938C186.964 30.8419 187.119 30.7264 187.297 30.6616C187.475 30.5969 187.668 30.5856 187.853 30.6292C188.037 30.6729 188.205 30.7696 188.335 30.9073C188.465 31.0451 188.552 31.2179 188.585 31.4044C188.618 31.591 188.596 31.7832 188.521 31.9572C188.446 32.1312 188.322 32.2796 188.164 32.384C188.006 32.4883 187.82 32.544 187.631 32.5444C187.498 32.5456 187.367 32.5193 187.245 32.4673C187.122 32.4153 187.012 32.3387 186.921 32.2422C186.83 32.1458 186.76 32.0315 186.715 31.9067C186.67 31.7818 186.651 31.6491 186.66 31.5167ZM189.255 31.5167V29.918H188.557V30.3113C188.439 30.1557 188.285 30.0311 188.108 29.9482C187.931 29.8653 187.737 29.8267 187.542 29.8355C187.094 29.8355 186.665 30.0133 186.349 30.3298C186.032 30.6463 185.855 31.0754 185.855 31.523C185.855 31.9705 186.032 32.3998 186.349 32.7163C186.665 33.0327 187.094 33.2105 187.542 33.2105C187.736 33.219 187.93 33.1809 188.107 33.0991C188.283 33.0175 188.438 32.8947 188.557 32.741V33.128H189.255V31.523V31.5167ZM182.714 31.5167C182.704 31.7439 182.742 31.9709 182.825 32.1827C182.908 32.3946 183.035 32.5865 183.197 32.7463C183.359 32.9059 183.553 33.0297 183.766 33.1098C183.979 33.1897 184.206 33.2241 184.433 33.2105C184.853 33.2316 185.266 33.0934 185.588 32.8235L185.252 32.2589C185.01 32.4456 184.714 32.548 184.408 32.5507C184.135 32.5507 183.874 32.4424 183.681 32.2497C183.489 32.057 183.38 31.7956 183.38 31.523C183.38 31.2504 183.489 30.989 183.681 30.7962C183.874 30.6036 184.135 30.4953 184.408 30.4953C184.712 30.4989 185.008 30.5988 185.252 30.7807L185.588 30.2162C185.264 29.9508 184.852 29.8152 184.433 29.8355C184.207 29.823 183.981 29.8578 183.769 29.9378C183.558 30.0178 183.365 30.1413 183.203 30.3002C183.042 30.459 182.916 30.6499 182.833 30.8605C182.75 31.0711 182.711 31.2968 182.721 31.523L182.714 31.5167ZM191.723 29.8355C191.553 29.8307 191.385 29.8718 191.236 29.9544C191.088 30.037 190.964 30.1581 190.879 30.3049V29.918H190.213V33.128H190.911V31.3264C190.911 30.7998 191.139 30.5016 191.596 30.5016C191.746 30.5008 191.894 30.5288 192.034 30.5841L192.243 29.9497C192.085 29.8906 191.917 29.8605 191.748 29.8609L191.723 29.8355ZM173.014 30.1717C172.631 29.9438 172.191 29.8274 171.745 29.8355C170.933 29.8355 170.407 30.2288 170.407 30.8632C170.407 31.3898 170.794 31.7133 171.517 31.8148L171.847 31.8593C172.228 31.91 172.412 32.0115 172.412 32.1955C172.412 32.3794 172.151 32.5825 171.676 32.5825C171.293 32.5947 170.917 32.4761 170.61 32.2462L170.28 32.7918C170.686 33.0779 171.173 33.2247 171.669 33.2105C172.596 33.2105 173.135 32.7728 173.135 32.1638C173.135 31.5548 172.71 31.301 172.012 31.1994L171.682 31.1551C171.384 31.117 171.143 31.0536 171.143 30.8378C171.143 30.6222 171.371 30.4636 171.777 30.4636C172.129 30.4683 172.474 30.5622 172.779 30.7364L173.078 30.1717H173.014ZM182.029 29.8355C181.858 29.8309 181.69 29.872 181.54 29.9546C181.391 30.0371 181.266 30.158 181.179 30.3049V29.918H180.5V33.128H181.198V31.3264C181.198 30.7998 181.426 30.5016 181.883 30.5016C182.033 30.5001 182.182 30.5282 182.321 30.5841L182.537 29.9497C182.378 29.8906 182.211 29.8605 182.042 29.8609L182.029 29.8355ZM176.078 29.9433H174.917V28.941H174.232V29.918H173.598V30.5524H174.232V32.0368C174.232 32.7855 174.524 33.2296 175.349 33.2296C175.658 33.2301 175.961 33.1444 176.224 32.9822L176.021 32.3477C175.829 32.4624 175.611 32.5257 175.387 32.5317C175.038 32.5317 174.924 32.316 174.924 31.9925V30.5587H176.066L176.078 29.9433ZM165.636 33.128V31.117C165.646 30.9477 165.621 30.7782 165.56 30.6196C165.5 30.4611 165.407 30.3171 165.287 30.1972C165.167 30.0773 165.023 29.9842 164.865 29.924C164.706 29.8639 164.537 29.838 164.367 29.8482C164.146 29.8363 163.925 29.8826 163.727 29.9828C163.528 30.083 163.36 30.2335 163.238 30.4191C163.129 30.2377 162.973 30.0889 162.787 29.9884C162.6 29.8879 162.39 29.8395 162.179 29.8482C161.994 29.8388 161.811 29.8778 161.646 29.9612C161.481 30.0447 161.341 30.1697 161.24 30.324V29.9307H160.548V33.1407H161.253V31.3454C161.237 31.2356 161.247 31.1239 161.28 31.0182C161.313 30.9124 161.369 30.8154 161.445 30.7341C161.52 30.6527 161.612 30.5892 161.715 30.5479C161.818 30.5066 161.929 30.4886 162.039 30.4953C162.502 30.4953 162.737 30.7998 162.737 31.339V33.128H163.441V31.3454C163.427 31.2358 163.437 31.1245 163.471 31.0193C163.505 30.9142 163.561 30.8176 163.636 30.7365C163.711 30.6554 163.803 30.5918 163.905 30.5502C164.007 30.5085 164.118 30.4897 164.228 30.4953C164.704 30.4953 164.932 30.7935 164.932 31.339V33.128H165.636Z" fill="#231F20"/>
<path d="M197.28 22.4449V21.9753H197.16L197.02 22.2989L196.88 21.9753H196.754V22.4449H196.842V22.0959L196.976 22.4004H197.064L197.198 22.0895V22.4449H197.28ZM196.506 22.4449V22.0578H196.665V21.9753H196.265V22.0578H196.417V22.4449H196.506Z" fill="#F79410"/>
<path d="M183.38 24.4623H172.798V5.43036H183.38V24.4623Z" fill="#FF5F00"/>
<path d="M173.471 14.9526C173.468 13.1207 173.882 11.3122 174.682 9.66444C175.482 8.01665 176.648 6.57292 178.089 5.44297C176.304 4.04163 174.161 3.17063 171.905 2.92947C169.648 2.68831 167.369 3.08672 165.328 4.0792C163.287 5.07166 161.567 6.61816 160.363 8.54203C159.159 10.4659 158.521 12.6895 158.521 14.9589C158.521 17.2284 159.159 19.452 160.363 21.3758C161.567 23.2998 163.287 24.8462 165.328 25.8387C167.369 26.8311 169.648 27.2296 171.905 26.9884C174.161 26.7473 176.304 25.8763 178.089 24.4749C176.647 23.3443 175.481 21.8996 174.681 20.2506C173.88 18.6016 173.467 16.7919 173.471 14.9589" fill="#EB001B"/>
<path d="M197.66 14.9526C197.662 17.223 197.025 19.448 195.821 21.3729C194.617 23.2979 192.895 24.845 190.853 25.8372C188.811 26.8295 186.531 27.2267 184.274 26.9836C182.017 26.7404 179.873 25.8666 178.089 24.4623C179.531 23.3303 180.697 21.8855 181.499 20.237C182.3 18.5885 182.717 16.7793 182.717 14.9463C182.717 13.1131 182.3 11.304 181.499 9.6555C180.697 8.00699 179.531 6.5622 178.089 5.43028C179.874 4.02555 182.017 3.15168 184.275 2.90875C186.533 2.66581 188.814 3.06363 190.856 4.05665C192.899 5.04966 194.62 6.59774 195.823 8.52362C197.027 10.4495 197.663 12.6753 197.66 14.9463" fill="#F79E1B"/>
</g>
<g clip-path="url(#clip5_198_10862)">
<path d="M24.5862 4.29812L18.1939 23.9536L16.9845 18.4251C15.1493 13.6405 11.9054 9.52543 7.68164 6.62382L13.8082 31.8743H21.184L31.5101 4.33799H24.5862V4.29812ZM79.6457 4.29812H72.2698L60.9603 31.8211H67.8443L69.3195 27.8342H78.1705L79.1539 31.8211H85.0545L79.6457 4.29812ZM70.7947 22.9702L74.7816 12.6574L76.7484 22.9702H70.7947ZM51.1258 12.1524C51.1258 10.6905 52.1093 9.20203 55.5513 9.20203C57.3453 9.37187 59.0523 10.0547 60.4685 11.1689L61.9437 5.28155C59.9118 4.43131 57.7503 3.93249 55.5513 3.8064C48.1755 3.8064 44.7335 7.79332 44.7335 12.1656C44.7335 21.0033 54.5678 19.5414 54.5678 23.9536C54.5678 24.9371 54.0761 26.4123 50.1424 26.4123C47.7695 26.4095 45.4239 25.9069 43.2583 24.9371L42.2748 30.8378C44.5727 31.9347 47.1077 32.4417 49.6506 32.3129C54.0761 32.8046 60.9603 28.8709 60.9603 23.0101C60.9603 16.0861 51.1258 15.6077 51.1258 12.1524Z" fill="#1565C0"/>
<path d="M30.4863 32.3129H37.3705L41.796 4.78979H34.4201L30.4863 32.3129Z" fill="#1565C0"/>
<path d="M17.2766 19.5282L14.7517 7.24847C14.4021 6.49227 13.8376 5.85581 13.1285 5.41855C12.4195 4.98129 11.5973 4.76263 10.7647 4.78986H0C0 4.78986 14.2599 9.21535 17.2766 19.5282Z" fill="#FF9800"/>
</g>
<path d="M116.307 31.3837L116.806 28.2434H115.693H110.44L114.094 5.03385C114.104 4.96199 114.14 4.896 114.194 4.84829C114.252 4.804 114.322 4.77896 114.394 4.77692H123.258C126.213 4.77692 128.24 5.3907 129.31 6.60399C129.784 7.11295 130.114 7.73864 130.267 8.41646C130.433 9.24108 130.433 10.0902 130.267 10.9148V11.6285L130.766 11.914C131.147 12.1032 131.49 12.3593 131.78 12.6701C132.216 13.197 132.498 13.8349 132.593 14.5119C132.701 15.3968 132.662 16.2941 132.479 17.1668C132.291 18.2272 131.919 19.2459 131.38 20.1782C130.945 20.9262 130.356 21.573 129.653 22.0771C128.946 22.5599 128.158 22.9123 127.326 23.1187C126.393 23.3544 125.434 23.4694 124.472 23.4612H123.772C123.282 23.4621 122.807 23.6333 122.43 23.9466C122.052 24.2663 121.803 24.7133 121.731 25.2027V25.4881L120.86 31.0265V31.241C120.871 31.2785 120.871 31.3176 120.86 31.3552H120.774L116.307 31.3837Z" fill="#253D80"/>
<path d="M131.238 11.0576L131.152 11.5861C129.982 17.5812 125.971 19.6652 120.861 19.6652H118.263C117.638 19.6644 117.105 20.1179 117.007 20.7353L115.679 29.1855L115.294 31.5835C115.265 31.776 115.32 31.971 115.447 32.1186C115.572 32.2662 115.757 32.3527 115.951 32.3543H120.576C121.124 32.3543 121.59 31.9538 121.674 31.4123V31.1839L122.546 25.6602V25.3601C122.623 24.8209 123.085 24.4196 123.63 24.418H124.386C128.855 24.418 132.366 22.6056 133.379 17.281C133.927 15.4613 133.589 13.4898 132.466 11.9572C132.109 11.591 131.694 11.2876 131.238 11.0576Z" fill="#189BD7"/>
<path d="M130.01 10.5723L129.468 10.4295L128.868 10.3154C128.112 10.202 127.349 10.1498 126.584 10.1579H119.619C119.456 10.1539 119.295 10.1881 119.147 10.2583C118.817 10.4132 118.586 10.724 118.534 11.0861L117.106 20.4637V20.7354C117.204 20.1179 117.738 19.6636 118.363 19.6644H120.96C126.071 19.6644 130.081 17.5804 131.252 11.5853L131.337 11.0576C131.031 10.8986 130.71 10.7648 130.381 10.6579L130.01 10.5723Z" fill="#242E65"/>
<path d="M118.534 11.0861C118.586 10.7248 118.817 10.4132 119.148 10.2582C119.295 10.1881 119.456 10.1538 119.619 10.1579H126.584C127.349 10.1498 128.112 10.202 128.868 10.3153L129.468 10.4295L130.01 10.5723L130.282 10.6579C130.61 10.7648 130.93 10.8985 131.238 11.0576C131.702 9.27456 131.277 7.3766 130.096 5.96176C128.668 4.44872 126.327 3.8064 123.273 3.8064H114.394C113.77 3.80566 113.237 4.25966 113.138 4.87695L109.442 28.3006C109.408 28.5216 109.473 28.7459 109.618 28.9156C109.763 29.0852 109.974 29.1839 110.198 29.1855H115.679L117.106 20.4645L118.534 11.0861Z" fill="#253D80"/>
<path d="M449.771 27.0456H452.761L453.28 28.7126H455.119L452.263 20.6123H450.312L447.427 28.7134H449.209L449.771 27.0456ZM451.261 22.4417H451.284L452.287 25.6439H450.223L451.261 22.4417ZM446.936 26.3133C446.936 25.512 446.677 24.7225 445.685 24.3512C446.022 24.1825 446.677 23.856 446.677 22.6921C446.677 21.857 446.17 20.6146 444.183 20.6146H440.247V28.7165H443.676C445.335 28.7165 445.776 28.434 446.237 27.9804C446.665 27.5652 446.936 26.953 446.936 26.3133ZM441.872 22.0156H443.813C444.58 22.0156 445.054 22.218 445.054 22.8836C445.054 23.5279 444.525 23.7869 443.857 23.7869H441.872V22.0156ZM443.946 27.3164H441.872V25.1494H444.026C444.637 25.1494 445.244 25.4233 445.244 26.1313C445.244 26.953 444.77 27.3164 443.946 27.3164ZM468.144 23.9314L471.64 28.7126H469.462L466.959 25.1588L466.169 25.9719V28.7126H464.477V20.6123H466.169V23.9062L469.261 20.6123H471.45L468.144 23.9314ZM447.429 33.2113C447.429 32.4367 447.243 32.3095 446.901 32.1596C447.312 32.0207 447.543 31.6299 447.543 31.1699C447.543 30.8121 447.342 29.9982 446.238 29.9982H444.139V34.1469H444.991V32.5246H445.886C446.528 32.5246 446.563 32.7451 446.563 33.3086C446.563 33.7356 446.596 33.9522 446.654 34.1461H447.613V34.0378C447.429 33.9679 447.429 33.8164 447.429 33.2113ZM446.004 31.8269H444.99V30.7147H446.069C446.577 30.7147 446.676 31.0365 446.676 31.2578C446.675 31.666 446.457 31.8269 446.004 31.8269ZM448.816 13.5228C448.81 13.3368 448.804 13.1123 448.796 12.8533C448.78 12.5912 448.848 12.3055 448.875 11.9829C448.908 11.6596 448.952 11.3087 449.074 10.9509C449.177 10.5898 449.268 10.1943 449.465 9.82461C449.552 9.63468 449.641 9.44003 449.735 9.24382C449.831 9.05075 449.966 8.87573 450.082 8.68658C450.311 8.29808 450.609 7.95668 450.913 7.61528C451.207 7.25817 451.57 6.98583 451.901 6.67189C452.263 6.41525 452.609 6.1178 452.981 5.90824C453.346 5.67829 453.705 5.47187 454.06 5.30234C454.41 5.1132 454.757 4.98527 455.073 4.844C455.562 4.65406 455.997 4.50652 456.355 4.40135C456.206 4.03326 456.077 3.65026 455.982 3.24136C455.881 2.82146 455.797 2.39137 455.789 1.9032C456.259 2.03427 456.652 2.22577 457.035 2.4259C457.417 2.62839 457.764 2.85364 458.09 3.09851C458.747 3.58276 459.306 4.14157 459.813 4.74118C460.199 5.19482 460.232 5.82898 459.946 6.31323L459.886 6.41211C459.42 7.19146 458.865 7.91665 458.194 8.56493C457.862 8.89064 457.495 9.19516 457.088 9.47535C456.883 9.6127 456.667 9.74612 456.448 9.87484C456.22 9.99884 455.981 10.1134 455.717 10.2139C455.699 9.93291 455.702 9.66606 455.723 9.40863C455.748 9.15434 455.781 8.90634 455.82 8.66069C455.907 8.17644 456.031 7.71574 456.191 7.27858C456.207 7.2307 456.227 7.18675 456.245 7.13966C456.089 7.15928 455.927 7.18047 455.751 7.20559C455.477 7.26445 455.163 7.30448 454.851 7.39552C454.529 7.46851 454.2 7.57054 453.867 7.69219C453.517 7.795 453.204 7.97316 452.848 8.11522C452.536 8.30829 452.175 8.46762 451.879 8.70307C451.568 8.92753 451.255 9.15357 450.998 9.43376C450.868 9.56953 450.716 9.69354 450.598 9.83795C450.486 9.98629 450.372 10.1362 450.262 10.2806C450.017 10.5631 449.866 10.8896 449.701 11.1918C449.519 11.4893 449.409 11.7985 449.314 12.0881C449.224 12.3785 449.096 12.6414 449.059 12.8894C449.012 13.1374 448.97 13.3533 448.936 13.5322C448.87 13.8932 448.83 14.1004 448.83 14.1004C448.83 14.1004 448.827 13.8901 448.816 13.5228ZM440.247 29.9982H443.622V30.7351H442.366V34.1492H441.502V30.7351H440.247V29.9982ZM449.354 29.9982L447.875 34.1469H448.789L449.077 33.2906H450.608L450.875 34.1469H451.817L450.356 29.9982H449.354ZM449.31 32.5748L449.842 30.9353H449.851L450.368 32.5748H449.31ZM456.972 15.999C456.627 16.1975 456.284 16.3372 455.972 16.4871C455.488 16.6912 455.061 16.8513 454.705 16.9675C454.867 17.3301 455.006 17.7099 455.113 18.1157C455.221 18.5332 455.321 18.9594 455.346 19.446C454.87 19.3298 454.472 19.1501 454.084 18.9617C453.695 18.7718 453.34 18.5575 453.009 18.3221C452.339 17.8575 451.763 17.3151 451.238 16.732C450.838 16.2886 450.785 15.6568 451.058 15.1639L451.115 15.065C451.558 14.2707 452.091 13.5298 452.742 12.8619C453.063 12.5252 453.421 12.2105 453.817 11.9186C454.021 11.7749 454.228 11.6352 454.445 11.501C454.669 11.37 454.905 11.2475 455.166 11.14C455.192 11.4194 455.195 11.687 455.182 11.9452C455.164 12.1995 455.141 12.4491 455.109 12.6963C455.037 13.1822 454.925 13.6452 454.78 14.0894C454.764 14.1365 454.744 14.1813 454.73 14.2284C454.884 14.2056 455.046 14.1789 455.221 14.1475C455.494 14.0824 455.806 14.0321 456.115 13.9317C456.434 13.8493 456.76 13.7386 457.088 13.606C457.435 13.4937 457.744 13.3054 458.094 13.1531C458.401 12.9498 458.759 12.7819 459.045 12.537C459.35 12.3047 459.656 12.0669 459.902 11.7812C460.032 11.6415 460.178 11.512 460.295 11.3653C460.401 11.2122 460.51 11.0599 460.615 10.9116C460.852 10.6212 460.992 10.2916 461.148 9.98471C461.322 9.68098 461.422 9.37018 461.506 9.07665C461.586 8.78391 461.707 8.51784 461.737 8.26904C461.776 8.01946 461.81 7.80207 461.839 7.62312C461.901 7.26052 461.93 7.05254 461.93 7.05254C461.93 7.05254 461.947 7.26131 461.965 7.62705C461.976 7.81306 461.987 8.0383 462.005 8.29652C462.028 8.55787 461.972 8.84669 461.951 9.16847C461.928 9.49261 461.892 9.84502 461.783 10.2053C461.689 10.5679 461.611 10.9673 461.425 11.3417C461.344 11.5348 461.259 11.7318 461.174 11.9303C461.081 12.1265 460.955 12.3055 460.843 12.4986C460.625 12.8941 460.34 13.2426 460.046 13.5934C459.762 13.9576 459.407 14.2425 459.087 14.565C458.73 14.8335 458.392 15.1403 458.028 15.3609C457.675 15.6026 457.319 15.82 456.972 15.999ZM460.412 29.9982H463.363V30.7351H461.279V31.6715H463.105V32.4053H461.279V34.15H460.412V29.9982ZM454.908 29.9982H455.718V34.1469H454.849L453.157 31.188H453.144V34.1469H452.336V29.9982H453.248L454.897 32.8864H454.907L454.908 29.9982ZM471.092 33.2113C471.092 32.4367 470.903 32.3095 470.564 32.1596C470.973 32.0207 471.209 31.6299 471.209 31.1699C471.209 30.8121 471.005 29.9982 469.902 29.9982H467.805V34.1469H468.656V32.5246H469.551C470.191 32.5246 470.228 32.7451 470.228 33.3086C470.228 33.7356 470.261 33.9522 470.32 34.1461H471.276V34.0378C471.092 33.9679 471.092 33.8164 471.092 33.2113ZM469.67 31.8269H468.655V30.7147H469.732C470.242 30.7147 470.341 31.0365 470.341 31.2578C470.341 31.666 470.122 31.8269 469.67 31.8269ZM459.75 32.8997C459.75 34.1437 458.477 34.2575 458.115 34.2575C456.6 34.2575 456.343 33.3871 456.343 32.8699H457.172C457.178 33.1014 457.294 33.5402 458.052 33.5402C458.46 33.5402 458.918 33.4397 458.918 33.0057C458.918 32.68 458.604 32.5952 458.166 32.4893L457.723 32.3841C457.052 32.2303 456.406 32.078 456.406 31.1637C456.406 30.7022 456.653 29.8883 458 29.8883C459.271 29.8883 459.611 30.7187 459.617 31.2272H458.788C458.765 31.0428 458.695 30.6049 457.937 30.6049C457.61 30.6049 457.214 30.7249 457.214 31.1001C457.214 31.4234 457.481 31.4933 457.655 31.5349L458.664 31.7837C459.229 31.921 459.75 32.1541 459.75 32.8997ZM464.795 33.413H467.095V34.1492H463.946V30.0005H466.998V30.7359H464.795V31.6079H466.817V32.3417H464.795V33.413ZM457.705 28.7165H456.125V20.6154H457.908L461.124 26.2561H461.145V20.6154H462.724V28.7173H461.035L457.727 22.9417H457.706L457.705 28.7165Z" fill="#1C2033"/>
<path d="M504.964 2.8548H517.114C518.81 2.8548 519.865 4.23756 519.469 5.93865L513.813 30.2263C513.413 31.9223 511.715 33.3059 510.018 33.3059H497.868C496.174 33.3059 495.117 31.9223 495.513 30.2263L501.172 5.93865C501.568 4.23756 503.265 2.8548 504.964 2.8548Z" fill="#E21836"/>
<path d="M516.103 2.8548H530.076C531.772 2.8548 531.007 4.23756 530.608 5.93865L524.952 30.2263C524.555 31.9223 524.678 33.3059 522.979 33.3059H509.006C507.307 33.3059 506.255 31.9223 506.654 30.2263L512.31 5.93865C512.712 4.23756 514.406 2.8548 516.103 2.8548Z" fill="#00447C"/>
<path d="M529.522 2.8548H541.672C543.37 2.8548 544.426 4.23756 544.026 5.93865L538.371 30.2263C537.972 31.9223 536.272 33.3059 534.574 33.3059H522.428C520.73 33.3059 519.676 31.9223 520.074 30.2263L525.73 5.93865C526.126 4.23756 527.822 2.8548 529.522 2.8548Z" fill="#007B84"/>
<path d="M508.137 10.6385C506.887 10.6511 506.518 10.6385 506.4 10.6107C506.355 10.8254 505.512 14.7152 505.509 14.7185C505.328 15.5051 505.196 16.0659 504.747 16.4289C504.492 16.6394 504.195 16.7405 503.85 16.7405C503.296 16.7405 502.974 16.466 502.919 15.9438L502.909 15.7645C502.909 15.7645 503.078 14.7101 503.078 14.7042C503.078 14.7042 503.962 11.1606 504.121 10.6915C504.129 10.6646 504.131 10.6511 504.134 10.6385C502.411 10.6536 502.106 10.6385 502.085 10.6107C502.073 10.6486 502.03 10.8684 502.03 10.8684L501.127 14.8634L501.049 15.2019L500.899 16.3102C500.899 16.6394 500.964 16.9072 501.092 17.1346C501.504 17.8538 502.678 17.9616 503.342 17.9616C504.199 17.9616 505.001 17.7797 505.544 17.4479C506.486 16.8912 506.732 16.0213 506.952 15.2482L507.054 14.8516C507.054 14.8516 507.966 11.1707 508.121 10.6915C508.127 10.6646 508.128 10.6511 508.137 10.6385ZM511.238 13.6078C511.018 13.6078 510.617 13.6617 510.256 13.8385C510.125 13.9051 510.001 13.9834 509.871 14.06L509.988 13.6347L509.924 13.5631C509.159 13.7181 508.988 13.7383 508.281 13.8385L508.222 13.8773C508.14 14.5577 508.068 15.0697 507.763 16.4062C507.647 16.8996 507.527 17.3965 507.406 17.8883L507.439 17.9506C508.163 17.9127 508.383 17.9127 509.012 17.9228L509.063 17.8681C509.143 17.458 509.154 17.362 509.331 16.5325C509.414 16.1392 509.588 15.2752 509.673 14.9678C509.83 14.8946 509.985 14.823 510.133 14.823C510.486 14.823 510.443 15.1303 510.43 15.2533C510.415 15.4588 510.286 16.1316 510.154 16.7085L510.066 17.0807C510.005 17.3561 509.938 17.6239 509.876 17.8967L509.903 17.9506C510.617 17.9127 510.835 17.9127 511.444 17.9228L511.516 17.8681C511.626 17.2281 511.658 17.0571 511.854 16.1257L511.952 15.6971C512.143 14.86 512.239 14.4356 512.095 14.0895C511.941 13.7013 511.575 13.6078 511.238 13.6078ZM514.703 14.4853C514.324 14.5577 514.082 14.6065 513.841 14.6377C513.603 14.6756 513.37 14.711 513.003 14.7615L512.975 14.7876L512.948 14.8086C512.91 15.0823 512.883 15.3181 512.832 15.5952C512.789 15.8824 512.724 16.2083 512.616 16.6773C512.533 17.0361 512.49 17.1607 512.442 17.287C512.396 17.4133 512.346 17.5354 512.252 17.8883L512.274 17.9211L512.292 17.9506C512.634 17.9346 512.859 17.9228 513.089 17.9211C513.319 17.9127 513.557 17.9211 513.927 17.9228L513.959 17.8967L513.994 17.8681C514.047 17.5498 514.055 17.4639 514.088 17.3089C514.12 17.1422 514.175 16.9123 514.312 16.2967C514.377 16.0078 514.448 15.719 514.516 15.4242C514.585 15.1303 514.658 14.8415 514.727 14.5518L514.717 14.5173L514.703 14.4853ZM514.711 13.3029C514.367 13.0991 513.761 13.164 513.354 13.4444C512.948 13.7198 512.902 14.1114 513.246 14.3168C513.584 14.5147 514.191 14.4558 514.596 14.1729C515.001 13.8916 515.051 13.5042 514.711 13.3029ZM516.796 18.0146C517.493 18.0146 518.208 17.8226 518.746 17.2516C519.161 16.7893 519.35 16.1013 519.416 15.8175C519.63 14.8785 519.463 14.4398 519.254 14.1729C518.936 13.7653 518.373 13.6347 517.791 13.6347C517.44 13.6347 516.605 13.6693 515.952 14.2705C515.484 14.7051 515.268 15.2937 515.137 15.8579C515.005 16.4331 514.853 17.4689 515.806 17.8538C516.1 17.9801 516.522 18.0146 516.796 18.0146ZM516.741 15.9009C516.902 15.1893 517.092 14.5922 517.577 14.5922C517.957 14.5922 517.984 15.0369 517.815 15.7501C517.785 15.9093 517.646 16.4979 517.459 16.7489C517.328 16.9342 517.173 17.0462 517.002 17.0462C516.951 17.0462 516.648 17.0462 516.643 16.5965C516.64 16.3742 516.686 16.1476 516.741 15.9009ZM521.159 17.9228L521.214 17.8681C521.291 17.458 521.304 17.362 521.475 16.5325C521.561 16.1392 521.738 15.2752 521.821 14.9678C521.979 14.8946 522.131 14.823 522.284 14.823C522.635 14.823 522.592 15.1303 522.578 15.2533C522.565 15.4588 522.437 16.1308 522.303 16.7085L522.219 17.0807C522.155 17.3561 522.086 17.6239 522.025 17.8967L522.052 17.9506C522.768 17.9127 522.977 17.9127 523.59 17.9228L523.665 17.8681C523.771 17.2281 523.801 17.0563 524.002 16.1257L524.098 15.6971C524.29 14.86 524.387 14.4356 524.245 14.0895C524.087 13.7021 523.718 13.6078 523.387 13.6078C523.167 13.6078 522.763 13.6608 522.405 13.8385C522.276 13.9051 522.148 13.9825 522.022 14.06L522.131 13.6347L522.072 13.5631C521.307 13.7181 521.133 13.7392 520.427 13.8385L520.373 13.8773C520.288 14.5577 520.218 15.0689 519.914 16.4062C519.797 16.8996 519.678 17.3965 519.557 17.8883L519.589 17.9506C520.315 17.9127 520.531 17.9127 521.159 17.9228ZM526.421 17.9506C526.466 17.7308 526.733 16.4289 526.736 16.4289C526.736 16.4289 526.964 15.4731 526.977 15.4386C526.977 15.4386 527.049 15.3384 527.121 15.2996H527.226C528.221 15.2996 529.345 15.2996 530.225 14.652C530.824 14.2074 531.233 13.5514 531.416 12.7539C531.463 12.5585 531.499 12.3261 531.499 12.0936C531.499 11.788 531.437 11.4865 531.26 11.2498C530.812 10.6225 529.917 10.6107 528.885 10.6056C528.881 10.6056 528.376 10.6107 528.376 10.6107C527.055 10.6267 526.525 10.6225 526.308 10.5955C526.289 10.6915 526.255 10.8625 526.255 10.8625C526.255 10.8625 525.782 13.0562 525.782 13.0596C525.782 13.0596 524.649 17.7232 524.595 17.943C525.749 17.9287 526.222 17.9287 526.421 17.9506ZM527.298 14.055C527.298 14.055 527.801 11.8654 527.798 11.8739L527.815 11.7619L527.822 11.676L528.023 11.697C528.023 11.697 529.061 11.7863 529.085 11.788C529.495 11.9471 529.664 12.3555 529.546 12.8886C529.438 13.3754 529.122 13.7855 528.716 13.9825C528.382 14.1509 527.972 14.1644 527.55 14.1644H527.277L527.298 14.055ZM530.431 15.9413C530.298 16.5081 530.145 17.5439 531.092 17.9127C531.394 18.0416 531.665 18.0794 531.94 18.066C532.231 18.05 532.5 17.9043 532.749 17.6946C532.727 17.7805 532.705 17.8672 532.682 17.9531L532.725 18.0087C533.406 17.9801 533.618 17.9801 534.356 17.986L534.423 17.9346C534.531 17.3005 534.632 16.6857 534.913 15.4731C535.049 14.892 535.186 14.3169 535.325 13.7383L535.303 13.6752C534.541 13.8166 534.338 13.8461 533.604 13.9505L533.548 13.996C533.541 14.055 533.533 14.1114 533.527 14.1678C533.412 13.9834 533.247 13.8267 532.992 13.7282C532.666 13.6002 531.9 13.7653 531.242 14.3649C530.779 14.7927 530.557 15.3788 530.431 15.9413ZM532.032 15.9758C532.195 15.2777 532.382 14.6866 532.868 14.6866C533.175 14.6866 533.337 14.9695 533.304 15.4529C533.278 15.5733 533.25 15.7005 533.217 15.8445C533.168 16.0516 533.115 16.2579 533.064 16.4643C533.012 16.6049 532.951 16.7379 532.885 16.8264C532.759 17.0032 532.462 17.1135 532.291 17.1135C532.242 17.1135 531.943 17.1135 531.932 16.6714C531.93 16.4516 531.975 16.2251 532.032 15.9758ZM540.392 13.6693L540.333 13.6019C539.579 13.7552 539.442 13.7796 538.749 13.8731L538.699 13.9236C538.696 13.932 538.695 13.9446 538.69 13.9564L538.689 13.9446C538.173 15.1354 538.188 14.8786 537.768 15.815C537.765 15.7729 537.765 15.7459 537.763 15.7005L537.658 13.6693L537.591 13.6019C536.802 13.7552 536.783 13.7796 536.053 13.8731L535.997 13.9236C535.988 13.948 535.988 13.975 535.984 14.0036L535.988 14.0137C536.08 14.4802 536.058 14.3766 536.149 15.1118C536.192 15.4731 536.248 15.836 536.291 16.1923C536.364 16.7893 536.403 17.0832 536.492 17.9936C535.999 18.807 535.882 19.1144 535.408 19.8285L535.411 19.8353L535.077 20.3641C535.038 20.4197 535.004 20.4576 534.956 20.4744C534.902 20.5005 534.833 20.5056 534.737 20.5056H534.551L534.276 21.4201L535.22 21.437C535.774 21.4345 536.123 21.1751 536.31 20.8273L536.904 19.81H536.894L536.957 19.7384C537.356 18.8786 540.392 13.6693 540.392 13.6693ZM530.431 25.688H530.03L531.512 20.7869H532.004L532.16 20.2816L532.175 20.8433C532.156 21.1903 532.43 21.4976 533.147 21.4471H533.976L534.262 20.5031H533.95C533.771 20.5031 533.687 20.4576 533.698 20.3608L533.682 19.789H532.146V19.7923C531.649 19.8024 530.167 19.8403 529.866 19.9203C529.503 20.0138 529.12 20.2892 529.12 20.2892L529.271 19.7831H527.834L527.534 20.7869L526.033 25.763H525.741L525.455 26.7003H528.317L528.221 27.0127H529.632L529.725 26.7003H530.121L530.431 25.688ZM529.256 21.7823C529.026 21.8463 528.599 22.0391 528.599 22.0391L528.979 20.7869H530.121L529.845 21.6989C529.845 21.6989 529.493 21.7199 529.256 21.7823ZM529.278 23.5726C529.278 23.5726 528.919 23.6173 528.684 23.6703C528.451 23.741 528.015 23.9634 528.015 23.9634L528.408 22.6598H529.556L529.278 23.5726ZM528.639 25.6998H527.494L527.825 24.5992H528.967L528.639 25.6998ZM531.397 22.6598H533.047L532.81 23.4278H531.137L530.887 24.2674H532.35L531.242 25.8278C531.164 25.9424 531.095 25.9836 531.017 26.0156C530.94 26.0552 530.838 26.1015 530.72 26.1015H530.314L530.035 27.0211H531.097C531.649 27.0211 531.975 26.7701 532.216 26.44L532.976 25.4L533.139 26.456C533.174 26.6539 533.316 26.7702 533.412 26.8148C533.518 26.8678 533.628 26.9596 533.783 26.9731C533.95 26.9807 534.07 26.9857 534.15 26.9857H534.672L534.985 25.9567H534.78C534.661 25.9567 534.458 25.9364 534.423 25.8994C534.389 25.8548 534.389 25.7857 534.37 25.6796L534.205 24.6219H533.527L533.824 24.2674H535.493L535.75 23.4278H534.205L534.445 22.6598H535.986L536.272 21.7124H531.678L531.397 22.6598ZM517.454 25.9137L517.84 24.632H519.423L519.712 23.6787H518.128L518.369 22.8897H519.918L520.205 21.9667H516.33L516.048 22.8897H516.929L516.694 23.6787H515.811L515.519 24.648H516.399L515.885 26.344C515.816 26.5689 515.918 26.6539 515.983 26.7584C516.048 26.8603 516.116 26.9268 516.266 26.9655C516.421 27.0001 516.528 27.0211 516.672 27.0211H518.457L518.775 25.9651L517.984 26.0737C517.831 26.0737 517.408 26.0552 517.454 25.9137ZM517.636 19.778L517.234 20.5031C517.148 20.6614 517.072 20.7599 517.002 20.8054C516.94 20.8433 516.819 20.8593 516.643 20.8593H516.433L516.154 21.7873H516.849C517.184 21.7873 517.44 21.6644 517.562 21.6029C517.695 21.533 517.729 21.5726 517.831 21.4749L518.066 21.2711H520.237L520.526 20.3052H518.936L519.214 19.778H517.636ZM520.842 25.9322C520.805 25.8792 520.831 25.7849 520.888 25.5895L521.481 23.6257H523.592C523.9 23.6206 524.123 23.6172 524.267 23.6071C524.422 23.5903 524.591 23.5356 524.774 23.4354C524.965 23.3318 525.062 23.2214 525.144 23.0951C525.235 22.9697 525.382 22.6943 525.508 22.2699L526.254 19.7831L524.064 19.7965C524.064 19.7965 523.388 19.8959 523.092 20.0054C522.792 20.1283 522.363 20.4702 522.363 20.4702L522.561 19.789H521.208L519.313 26.0737C519.246 26.3171 519.201 26.4948 519.19 26.6009C519.187 26.7154 519.335 26.8291 519.431 26.9142C519.545 27 519.712 26.9857 519.873 27.0001C520.042 27.0127 520.283 27.0211 520.614 27.0211H521.654L521.974 25.9424L521.043 26.0308C520.944 26.0308 520.871 25.9777 520.842 25.9322ZM521.864 22.2985H524.081L523.941 22.7406C523.921 22.7507 523.873 22.7187 523.648 22.7448H521.728L521.864 22.2985ZM522.309 20.8163H524.545L524.384 21.3486C524.384 21.3486 523.33 21.3385 523.161 21.3696C522.418 21.4976 521.984 21.8951 521.984 21.8951L522.309 20.8163ZM523.99 24.2202C523.972 24.2859 523.943 24.3263 523.903 24.3566C523.857 24.3853 523.785 24.3962 523.675 24.3962H523.36L523.378 23.8581H522.064L522.011 26.4889C522.009 26.6784 522.027 26.7887 522.166 26.8763C522.305 26.9866 522.733 27.0001 523.309 27.0001H524.133L524.43 26.0156L523.713 26.0544L523.474 26.0687C523.442 26.0543 523.411 26.0417 523.376 26.0072C523.346 25.9777 523.295 25.9962 523.303 25.8059L523.309 25.1314L524.061 25.1002C524.467 25.1002 524.64 24.9689 524.789 24.8425C524.93 24.7221 524.976 24.5832 525.03 24.3962L525.155 23.7992H524.122L523.99 24.2202Z" fill="#FEFEFE"/>
<path d="M800.675 21.441H803.923H804.317C804.987 21.3108 805.469 20.7178 805.456 20.0348C805.432 19.3646 804.967 18.7908 804.317 18.6285C804.186 18.6132 804.054 18.6132 803.923 18.6285H800.675V21.441Z" fill="#40A648"/>
<path d="M803.544 0.951538C800.437 0.951538 797.919 3.46993 797.919 6.57654V12.4129H805.863C806.051 12.3912 806.239 12.3912 806.426 12.4129C808.212 12.4972 809.548 13.4254 809.548 15.0285C809.512 16.4339 808.38 17.5654 806.975 17.6015C808.803 17.7285 810.195 18.741 810.195 20.3297C810.195 21.9191 808.648 23.1422 806.609 23.1422H797.89V34.7015H806.159C809.266 34.7015 811.784 32.1831 811.784 29.0765V0.951538H803.544Z" fill="#40A648"/>
<path d="M805.062 15.4504C805.113 14.7545 804.614 14.1389 803.923 14.0441H803.614H800.675V16.7578H803.614C803.716 16.7739 803.821 16.7739 803.923 16.7578C804.584 16.6726 805.075 16.1029 805.062 15.4359V15.4504Z" fill="#40A648"/>
<path d="M772.409 0.951538C769.303 0.951538 766.784 3.46993 766.784 6.57654V20.4566C768.284 21.2425 769.943 21.6748 771.636 21.7222C772.424 21.8139 773.212 21.5543 773.792 21.0127C774.372 20.4711 774.683 19.7021 774.646 18.9097V12.3847H779.44V18.9097C779.44 21.441 777.865 23.5078 772.522 23.5078C770.587 23.507 768.661 23.2707 766.784 22.8047V34.7015H775.039C778.145 34.7015 780.664 32.1831 780.664 29.0765V0.951538H772.409Z" fill="#0D67B0"/>
<path d="M788.005 0.951538C784.899 0.951538 782.38 3.46993 782.38 6.57654V13.9316C783.786 12.7222 786.275 11.9484 790.255 12.1453C791.744 12.2345 793.223 12.4603 794.671 12.8203V15.1972C793.365 14.4965 791.928 14.0747 790.452 13.9597C787.428 13.7484 785.6 15.2254 785.6 17.8265C785.6 20.4285 787.428 21.9328 790.452 21.6941C791.925 21.5591 793.358 21.1388 794.671 20.4566V22.8328C793.223 23.196 791.745 23.4226 790.255 23.5078C786.275 23.7047 783.8 22.9316 782.38 21.7222V34.7015H790.691C793.797 34.7015 796.316 32.1831 796.316 29.0765V0.951538H788.005Z" fill="#BE2034"/>
<path fill-rule="evenodd" clip-rule="evenodd" d="M841.945 24.0256C841.945 24.9393 841.41 27.2174 838.162 27.2174H835.616V26.9787C835.629 26.9771 835.641 26.9763 835.653 26.9747C836.178 26.9217 836.447 26.8944 836.447 26.2756V21.8455C836.447 21.058 836.025 21.058 835.616 21.058V20.8194H838.275C839.193 20.7294 840.108 21.0227 840.802 21.6294C841.497 22.2369 841.911 23.1039 841.945 24.0256ZM838.063 21.1569C837.825 21.1432 837.585 21.1432 837.347 21.1569L837.29 26.135C837.29 26.8381 837.797 26.9225 838.247 26.9225C838.985 26.9514 839.699 26.6573 840.204 26.1173C840.71 25.5773 840.955 24.8453 840.876 24.11C840.914 23.3402 840.636 22.588 840.104 22.0295C839.572 21.4719 838.835 21.1561 838.063 21.1569Z" fill="#211E1F"/>
<path d="M844.222 27.2183V26.9797H844.068C843.8 26.9797 843.604 26.9797 843.604 26.6703V23.1547V23.0277C843.548 23.0149 843.491 23.0149 843.435 23.0277C843.113 23.1579 842.785 23.2712 842.45 23.3652V23.5058C842.788 23.689 842.929 23.7453 842.929 24.1527V26.6277C842.929 26.9371 842.746 26.9371 842.493 26.9371H842.31V27.2183H844.279H844.222Z" fill="#211E1F"/>
<path d="M843.238 21.6776C843.36 21.6776 843.477 21.6286 843.562 21.541C843.647 21.4535 843.692 21.3353 843.688 21.2132C843.681 20.9705 843.482 20.7776 843.238 20.7776C842.99 20.7776 842.788 20.9793 842.788 21.2276C842.788 21.476 842.99 21.6776 843.238 21.6776Z" fill="#211E1F"/>
<path d="M849.075 27.035H848.92C848.653 27.035 848.456 27.035 848.456 26.7256V24.4057C848.456 23.7026 848.188 23.1256 847.401 23.1256C846.814 23.1738 846.26 23.4165 845.826 23.8151V23.2245C845.826 23.1537 845.826 23.1256 845.826 23.1256C845.431 23.2936 845.028 23.439 844.617 23.5619V23.7444C845.038 23.9131 845.151 24.0119 845.151 24.3494V26.7682C845.151 27.0776 844.969 27.0776 844.701 27.0776H844.547V27.2182H846.501V26.9787H846.332C846.079 26.9787 845.882 26.9787 845.882 26.6694V24.0256C846.19 23.7886 846.553 23.6343 846.937 23.5756C847.159 23.5459 847.382 23.6166 847.546 23.7693C847.709 23.9219 847.795 24.1397 847.781 24.3631V26.7256C847.781 27.035 847.598 27.035 847.345 27.035H847.176V27.2182H849.075V27.035Z" fill="#211E1F"/>
<path fill-rule="evenodd" clip-rule="evenodd" d="M852.492 26.3736C852.129 26.9787 851.493 27.3676 850.79 27.4142C850.297 27.4038 849.828 27.1949 849.489 26.8357C849.151 26.4757 848.971 25.9951 848.99 25.5017C848.99 23.7017 850.199 23.1674 850.833 23.1674C851.229 23.128 851.624 23.2582 851.919 23.5266C852.214 23.795 852.381 24.175 852.379 24.5736V24.7424H852.295H849.721C849.706 24.9208 849.706 25.0992 849.721 25.2767C849.689 26.0956 850.311 26.7923 851.127 26.8517C851.605 26.826 852.051 26.6075 852.365 26.2475L852.492 26.3736ZM850.79 23.3795C850.802 23.3787 850.813 23.3787 850.824 23.3795H850.79ZM850.835 23.3795C850.831 23.3795 850.828 23.3795 850.824 23.3795H850.861C850.852 23.3795 850.843 23.3795 850.835 23.3795ZM850.835 23.3795C851.039 23.3868 851.233 23.4743 851.373 23.6246C851.523 23.7861 851.598 24.0039 851.577 24.2233C851.577 24.3358 851.577 24.4483 851.324 24.4483H849.806C849.916 23.7974 850.286 23.3916 850.835 23.3795Z" fill="#211E1F"/>
<path d="M852.899 27.035H852.646V27.2174H855.023V26.9787H854.517C854.249 26.9787 854.067 26.9787 854.067 26.6693V24.5736C854.07 24.1879 854.359 23.8633 854.742 23.8143C855.065 23.8143 855.065 24.0393 855.346 24.0393C855.464 24.036 855.576 23.9846 855.656 23.897C855.735 23.8094 855.776 23.6929 855.768 23.5756C855.768 23.4398 855.713 23.3096 855.614 23.2172C855.516 23.124 855.383 23.075 855.248 23.083C854.699 23.083 854.306 23.6736 854.081 24.0256V23.21C854.081 23.1111 854.081 23.083 853.996 23.083C853.912 23.083 853.546 23.3225 852.871 23.6037V23.7443C853.012 23.7443 853.349 23.8705 853.349 24.1518V26.7256C853.336 27.035 853.152 27.035 852.899 27.035Z" fill="#211E1F"/>
<path d="M857.329 27.1194C856.717 27.0864 856.225 26.6051 856.176 25.9944H856.008L856.12 27.035C856.458 27.2335 856.839 27.3444 857.231 27.3589C858.314 27.3589 858.806 26.712 858.806 26.1069C858.806 24.7006 856.683 24.9964 856.683 23.9276C856.693 23.75 856.776 23.5853 856.911 23.4712C857.047 23.3571 857.223 23.3032 857.399 23.3225C857.922 23.2984 858.368 23.7002 858.398 24.2225H858.637L858.567 23.2944C858.245 23.1273 857.889 23.0356 857.526 23.0276C857.18 22.9842 856.832 23.0863 856.564 23.3105C856.298 23.5347 856.137 23.8601 856.12 24.2089C856.12 25.6151 858.117 25.3339 858.117 26.4163C858.134 26.6228 858.053 26.8261 857.898 26.9643C857.743 27.1025 857.533 27.1596 857.329 27.1194Z" fill="#211E1F"/>
<path d="M866.878 26.9225L867.088 25.587H866.878C866.739 26.4982 865.958 27.1724 865.035 27.1757C863.41 27.0415 862.194 25.6256 862.307 23.9975C862.22 23.2607 862.45 22.5214 862.941 21.9653C863.433 21.4092 864.139 21.0894 864.881 21.087C865.84 20.9616 866.719 21.6342 866.85 22.5913H867.075L866.976 21.2839C866.293 20.9978 865.565 20.8315 864.825 20.7913C862.977 20.7358 861.427 22.1782 861.351 24.0257C861.296 24.9658 861.649 25.8835 862.32 26.5432C862.991 27.2038 863.914 27.5421 864.853 27.4714C865.558 27.4288 866.247 27.2424 866.878 26.9225Z" fill="#211E1F"/>
<path d="M869.366 27.2182V26.9796H869.212C868.944 26.9796 868.747 26.9795 868.747 26.6702V20.342V20.2151C868.747 20.2151 868.649 20.2151 868.55 20.3139C868.25 20.4746 867.935 20.6072 867.609 20.7077V20.862C867.946 20.9608 868.087 20.9745 868.087 21.5796V26.6702C868.087 26.9795 867.904 26.9796 867.65 26.9796H867.468V27.2182H869.437H869.366Z" fill="#211E1F"/>
<path d="M869.887 23.9693V26.3174C869.855 26.6002 869.946 26.8831 870.137 27.0928C870.328 27.3034 870.602 27.4207 870.886 27.4143C871.507 27.3709 872.09 27.0952 872.517 26.6412V27.3861C872.95 27.2568 873.392 27.1579 873.839 27.0912V26.9361H873.543C873.389 26.9361 873.277 26.9361 873.277 26.7674V23.3924C873.277 23.2943 873.277 23.2236 873.277 23.2236C873.277 23.2236 872.672 23.2943 871.87 23.3506V23.5193C872.193 23.6037 872.63 23.7162 872.63 23.885V26.36C872.328 26.6493 871.945 26.8405 871.533 26.908C870.731 26.908 870.731 26.1205 870.731 25.8537V23.4912C870.731 23.2943 870.731 23.2236 870.633 23.2236L869.452 23.2943V23.4631C869.887 23.5049 869.887 23.7299 869.887 23.9693Z" fill="#211E1F"/>
<path fill-rule="evenodd" clip-rule="evenodd" d="M874.373 25.5298V21.5923C874.373 21.0499 874.242 21.0178 873.88 20.9278C873.866 20.9245 873.853 20.9213 873.839 20.9173V20.763C874.167 20.6682 874.483 20.5356 874.781 20.3693L874.992 20.2704C875.062 20.2704 875.062 20.3974 875.062 20.3974V23.7579C875.441 23.3827 875.938 23.1496 876.468 23.0974C876.953 23.1191 877.408 23.3361 877.728 23.6993C878.049 24.0625 878.209 24.5406 878.17 25.0236C878.218 26.29 877.241 27.3603 875.976 27.4287C875.534 27.4262 875.1 27.3154 874.711 27.1048L874.43 27.3162L874.246 27.2173C874.333 26.6596 874.376 26.0955 874.373 25.5298ZM875.976 23.5329C875.643 23.5691 875.334 23.7242 875.105 23.9685L875.034 26.1903C875.055 26.7014 875.464 27.1112 875.976 27.1329C876.974 27.1329 877.383 26.1622 877.383 25.3466C877.434 24.4755 876.833 23.7001 875.976 23.5329Z" fill="#211E1F"/>
<path d="M836.334 29.2713H835.602V29.4682H835.7C835.884 29.4682 836.038 29.4682 836.052 29.7357V32.3369C836.052 32.59 835.884 32.6045 835.7 32.6045H835.574V32.8432H836.305H837.093V32.6607H837.05C836.868 32.6607 836.699 32.6608 836.699 32.3932V29.7076C836.699 29.4545 836.868 29.44 837.05 29.44H837.149V29.2432L836.334 29.2713Z" fill="#211E1F"/>
<path d="M840.707 29.2713H840.004V29.4682H840.131C840.285 29.4682 840.538 29.4682 840.553 29.9182V31.7463L838.359 29.285C838.19 29.285 838.049 29.285 837.894 29.285H837.318V29.4819H837.403C837.517 29.4787 837.628 29.5213 837.71 29.6008C837.792 29.6804 837.839 29.7896 837.838 29.9038V32.0131C837.838 32.4069 837.74 32.6182 837.403 32.6182H837.29V32.8432H837.979H838.612V32.66H838.499C838.134 32.66 838.063 32.5339 838.049 32.0975V30.0307L840.581 32.8432H840.819C840.819 32.6881 840.819 32.5194 840.819 32.3506V30.0307C840.819 29.4538 841.044 29.4256 841.241 29.4256H841.34V29.2288L840.707 29.2713Z" fill="#211E1F"/>
<path d="M844.785 29.0881C844.785 29.2142 844.673 29.2142 844.532 29.2142H841.931C841.804 29.2142 841.72 29.2142 841.678 29.0881H841.523C841.531 29.2239 841.531 29.3597 841.523 29.4955C841.523 29.6506 841.523 29.7912 841.523 29.9174H841.72C841.804 29.5517 841.804 29.4818 842.17 29.4818H842.957V32.1256C842.957 32.5049 842.845 32.5049 842.563 32.5193H842.451V32.8424H843.295H844.097V32.66H843.984C843.745 32.66 843.59 32.66 843.59 32.2517V29.5381H844.378C844.701 29.5381 844.715 29.8049 844.729 30.0017L844.912 29.9318V29.5236C844.912 29.3975 844.912 29.2568 844.912 29.1162H844.772L844.785 29.0881Z" fill="#211E1F"/>
<path d="M847.767 31.8861C847.627 32.4486 847.373 32.4768 846.783 32.4768C846.459 32.4768 846.192 32.4768 846.192 32.1674V31.0287H846.768C847.106 31.0287 847.106 31.2111 847.134 31.5068H847.317C847.317 31.31 847.317 31.1267 847.317 30.9443C847.317 30.7611 847.317 30.5506 847.317 30.3537H847.12C847.12 30.6205 847.036 30.7611 846.755 30.7756H846.178V29.51H846.853C847.359 29.51 847.402 29.7486 847.43 30.0725H847.598C847.598 29.9318 847.598 29.735 847.598 29.5662V29.285H846.318H845.081V29.4818H845.165C845.348 29.4818 845.503 29.4818 845.517 29.7486V32.3506C845.517 32.6037 845.348 32.6174 845.165 32.6174H845.081V32.8424H846.403H847.809C847.809 32.5892 847.921 32.3225 847.978 32.0549H847.823L847.767 31.8861Z" fill="#211E1F"/>
<path fill-rule="evenodd" clip-rule="evenodd" d="M850.242 31.0295L851.086 32.2807C851.15 32.5121 851.365 32.6696 851.606 32.6607V32.8432L851.058 32.7588H850.579C850.195 32.2493 849.847 31.7141 849.539 31.1557H849.243V32.2807C849.258 32.6608 849.398 32.6607 849.637 32.6607H849.721V32.8432H848.864H848.146V32.5764H848.259C848.442 32.5764 848.596 32.492 848.596 32.3232V29.792C848.596 29.44 848.414 29.44 848.259 29.44H848.146V29.2432H848.92H849.721C850.34 29.2432 850.931 29.4264 850.931 30.1432C850.921 30.5578 850.641 30.9178 850.242 31.0295ZM849.454 30.9307C849.946 30.9307 850.199 30.7619 850.199 30.1713C850.2 29.9897 850.125 29.8153 849.99 29.6924C849.857 29.5694 849.677 29.5083 849.496 29.5244H849.229V30.9307H849.454Z" fill="#211E1F"/>
<path d="M855.726 29.44V29.2432H855.108H854.404V29.44H854.531C854.686 29.44 854.939 29.44 854.952 29.89V31.7182L852.731 29.2576C852.562 29.2576 852.421 29.2576 852.267 29.2576H851.69V29.4545H851.774C851.888 29.4505 851.999 29.4931 852.082 29.5726C852.164 29.6522 852.211 29.7615 852.211 29.8764V31.9713C852.211 32.3795 852.112 32.59 851.774 32.59H851.69V32.8432H852.379H853.012V32.6607H852.899C852.534 32.6607 852.464 32.5338 852.464 32.0982V30.0307L854.981 32.8432H855.22C855.22 32.6889 855.22 32.5201 855.22 32.3514V30.0307C855.22 29.4545 855.445 29.4264 855.642 29.4264H855.74L855.726 29.44Z" fill="#211E1F"/>
<path fill-rule="evenodd" clip-rule="evenodd" d="M858.699 32.0219C858.759 32.1496 858.82 32.279 858.82 32.3923C858.82 32.5032 858.879 32.6053 858.975 32.6599C859.07 32.7154 859.188 32.7154 859.284 32.6599V32.8423H858.609H857.85V32.6599H857.92C858.047 32.6599 858.215 32.6318 858.215 32.5329C858.197 32.4124 858.164 32.2943 858.116 32.1818L857.92 31.6193H856.823L856.668 32.1255C856.623 32.2493 856.585 32.3762 856.556 32.5048C856.556 32.6599 856.753 32.6599 856.907 32.6599H856.991V32.8423H856.387H855.853V32.5892C856.046 32.5916 856.218 32.4654 856.275 32.2798L857.062 29.988C857.143 29.7823 857.208 29.5702 857.259 29.3548C857.422 29.3042 857.578 29.2335 857.723 29.1443V29.2704L858.637 31.8861C858.656 31.9311 858.677 31.9761 858.699 32.0219ZM856.795 31.2119H857.666L857.231 29.8755L856.795 31.2119Z" fill="#211E1F"/>
<path d="M862.096 29.0881C862.096 29.2142 861.984 29.2142 861.843 29.2142H859.256C859.129 29.2142 859.031 29.2142 859.003 29.0881H858.834C858.848 29.2231 858.848 29.3597 858.834 29.4955C858.834 29.6506 858.834 29.7912 858.834 29.9318H859.031C859.101 29.5662 859.101 29.4955 859.466 29.4955H860.268V32.1392C860.268 32.5193 860.141 32.5193 859.875 32.533H859.748V32.8424H860.591H861.407V32.66H861.295C861.056 32.66 860.901 32.66 860.901 32.2517V29.5381H861.703C862.012 29.5381 862.026 29.8049 862.04 30.0017L862.223 29.9318C862.215 29.796 862.215 29.6594 862.223 29.5236C862.223 29.3975 862.223 29.2568 862.223 29.1162H862.082L862.096 29.0881Z" fill="#211E1F"/>
<path d="M863.165 29.2713H862.42V29.4682H862.505C862.687 29.4682 862.856 29.4682 862.856 29.7357V32.3369C862.856 32.59 862.687 32.6045 862.505 32.6045H862.42V32.8432H863.151H863.939V32.6607H863.84C863.658 32.6607 863.503 32.6608 863.503 32.3932V29.7076C863.503 29.4545 863.658 29.44 863.84 29.44H863.939V29.2432L863.165 29.2713Z" fill="#211E1F"/>
<path fill-rule="evenodd" clip-rule="evenodd" d="M864.604 29.7124C864.954 29.3637 865.428 29.1692 865.921 29.1732C866.415 29.1258 866.906 29.2873 867.275 29.6192C867.644 29.9503 867.856 30.4212 867.862 30.917C867.882 31.4313 867.687 31.9303 867.325 32.2959C866.962 32.6607 866.464 32.8592 865.95 32.8431C865.454 32.8713 864.97 32.6913 864.612 32.3465C864.255 32.0026 864.056 31.5253 864.065 31.0295C864.061 30.5361 864.256 30.062 864.604 29.7124ZM867.116 31.0295C867.116 30.2982 866.723 29.44 865.921 29.44C865.063 29.44 864.81 30.1994 864.81 30.8607C864.81 31.7463 865.063 32.5764 866.006 32.5764C866.948 32.5764 867.116 31.7607 867.116 31.0295Z" fill="#211E1F"/>
<path d="M871.996 29.44V29.2432H871.391H870.688V29.44H870.815C870.956 29.44 871.222 29.44 871.222 29.89V31.7182L869.029 29.2576C868.86 29.2576 868.719 29.2576 868.579 29.2576H868.002V29.4545H868.087C868.2 29.4505 868.309 29.4931 868.39 29.5734C868.469 29.653 868.513 29.7631 868.509 29.8764V31.9857C868.509 32.3795 868.41 32.59 868.087 32.59H868.002V32.8432H868.677H869.324V32.6607H869.225C868.846 32.6607 868.79 32.5338 868.775 32.0982V30.0307L871.293 32.8432H871.518C871.504 32.6792 871.504 32.5145 871.518 32.3514V30.0307C871.518 29.4545 871.729 29.4264 871.94 29.4264H872.038L871.996 29.44Z" fill="#211E1F"/>
<path fill-rule="evenodd" clip-rule="evenodd" d="M874.907 31.8861C874.96 32.058 875.021 32.2268 875.09 32.3923C875.095 32.4831 875.141 32.5667 875.215 32.6181C875.289 32.6704 875.383 32.6856 875.469 32.6599V32.8423H874.781H874.035V32.6599H874.106C874.218 32.6599 874.387 32.6318 874.387 32.5329C874.367 32.4132 874.334 32.2951 874.288 32.1818L874.106 31.6193H873.191L873.037 32.1255C872.985 32.2469 872.947 32.3746 872.924 32.5048C872.924 32.6599 873.107 32.6599 873.276 32.6599V32.8423H872.671H872.137V32.5892C872.326 32.5852 872.49 32.4606 872.544 32.2798L873.346 29.988C873.427 29.7823 873.493 29.5702 873.543 29.3548C873.701 29.3018 873.852 29.2311 873.993 29.1443V29.2704L874.907 31.8861ZM873.051 31.2119H873.923L873.501 29.8755L873.051 31.2119Z" fill="#211E1F"/>
<path d="M878.324 31.8732C878.294 31.9986 878.242 32.1175 878.17 32.2244C878.053 32.365 877.887 32.455 877.706 32.4775H877.059C876.904 32.4775 876.777 32.4076 876.777 32.2107V29.6932C876.777 29.44 876.904 29.44 877.087 29.44H877.242V29.2432H876.483H875.695V29.44H875.779C875.962 29.44 876.131 29.44 876.131 29.7076V32.267C876.131 32.5619 875.962 32.5764 875.779 32.5764H875.695V32.8432H877.017H878.324C878.324 32.5619 878.451 32.2807 878.508 31.9994H878.324V31.8732Z" fill="#211E1F"/>
<path fill-rule="evenodd" clip-rule="evenodd" d="M877.818 29.6594C877.813 29.3742 878.039 29.1379 878.324 29.1299C878.465 29.1227 878.604 29.1741 878.706 29.2729C878.807 29.3718 878.862 29.5092 878.858 29.6506C878.858 29.9359 878.629 30.1681 878.342 30.1705C878.057 30.1729 877.823 29.9447 877.818 29.6594ZM877.903 29.6088C877.903 29.8419 878.092 30.0307 878.325 30.0307C878.436 30.0307 878.544 29.9865 878.623 29.9069C878.702 29.8282 878.747 29.7205 878.747 29.6088C878.747 29.3758 878.558 29.1869 878.325 29.1869C878.092 29.1869 877.903 29.3758 877.903 29.6088Z" fill="#211E1F"/>
<path fill-rule="evenodd" clip-rule="evenodd" d="M878.55 29.51C878.551 29.5855 878.497 29.6514 878.423 29.665V29.7775L878.536 29.9037H878.437C878.401 29.9037 878.37 29.8563 878.326 29.7888C878.303 29.7518 878.275 29.7092 878.24 29.665V29.8338H878.1V29.44V29.3693H878.367C878.465 29.3693 878.55 29.4119 878.55 29.51ZM878.268 29.4264V29.665H878.282C878.381 29.665 878.381 29.6088 878.381 29.5389C878.386 29.5075 878.375 29.4762 878.354 29.4537C878.331 29.4312 878.3 29.4216 878.268 29.4264Z" fill="#211E1F"/>
<path d="M859.143 19.61C864.081 19.6381 868.162 15.7673 868.396 10.835C868.366 8.41947 867.372 6.11643 865.634 4.43857C863.895 2.76152 861.558 1.84867 859.143 1.90572H854.924C852.541 1.85108 850.24 2.77438 848.555 4.46188C846.87 6.14858 845.95 8.45161 846.009 10.835C846.063 15.7135 850.045 19.6333 854.924 19.61H859.143Z" fill="#0779BE"/>
<path fill-rule="evenodd" clip-rule="evenodd" d="M855.009 2.6377C850.535 2.6377 846.909 6.26421 846.909 10.7377C846.909 15.2112 850.535 18.8377 855.009 18.8377C859.482 18.8377 863.109 15.2112 863.109 10.7377C863.109 6.26421 859.482 2.6377 855.009 2.6377ZM849.877 10.7377C849.878 8.61305 851.186 6.70778 853.167 5.94198V15.5326C851.183 14.77 849.874 12.8631 849.877 10.7377ZM860.14 10.7377C860.14 8.60904 858.826 6.70136 856.837 5.94198V15.5326C858.826 14.7732 860.14 12.8656 860.14 10.7377Z" fill="white"/>
<path d="M859.143 19.61C864.081 19.6381 868.162 15.7673 868.396 10.835C868.366 8.41947 867.372 6.11643 865.634 4.43857C863.895 2.76152 861.558 1.84867 859.143 1.90572H854.924C852.541 1.85108 850.24 2.77438 848.555 4.46188C846.87 6.14858 845.95 8.45161 846.009 10.835C846.063 15.7135 850.045 19.6333 854.924 19.61H859.143Z" fill="#0779BE"/>
<path fill-rule="evenodd" clip-rule="evenodd" d="M855.009 2.6377C850.535 2.6377 846.909 6.26421 846.909 10.7377C846.909 15.2112 850.535 18.8377 855.009 18.8377C859.482 18.8377 863.109 15.2112 863.109 10.7377C863.109 6.26421 859.482 2.6377 855.009 2.6377ZM849.877 10.7377C849.878 8.61305 851.186 6.70778 853.167 5.94198V15.5326C851.183 14.77 849.874 12.8631 849.877 10.7377ZM860.14 10.7377C860.14 8.60904 858.826 6.70136 856.837 5.94198V15.5326C858.826 14.7732 860.14 12.8656 860.14 10.7377Z" fill="white"/>
<g opacity="0.01">
<path opacity="0.01" d="M416.456 0H362.021V36H416.456V0Z" fill="#ECECF1"/>
</g>
<path d="M396.417 6.27203H382.06V29.7283H396.417V6.27203Z" fill="#7272B5"/>
<path d="M383.606 18.0003C383.582 13.4352 385.656 9.11198 389.231 6.27248C383.114 1.46206 374.327 2.16061 369.048 7.87689C363.767 13.5935 363.767 22.4079 369.048 28.1245C374.327 33.8403 383.114 34.5394 389.231 29.7284C385.656 26.8894 383.582 22.5662 383.606 18.0003Z" fill="#ED1C24"/>
<path fill-rule="evenodd" clip-rule="evenodd" d="M411.928 26.7609V27.239H411.844V26.7609H411.647V26.6628H412.14V26.7609H411.928ZM412.884 26.6628V27.239H412.786V26.8035L412.631 27.1827H412.519L412.35 26.8035V27.239H412.252V26.6628H412.393L412.575 27.0702L412.744 26.6628H412.884Z" fill="#00A1DE"/>
<path d="M413.362 18.0004C413.358 23.7089 410.098 28.9153 404.964 31.4104C399.83 33.9055 393.722 33.2529 389.231 29.7293C395.7 24.6354 396.82 15.265 391.734 8.78981C391.005 7.85205 390.165 7.00693 389.231 6.27263C393.722 2.74856 399.83 2.09566 404.964 4.59099C410.098 7.08632 413.358 12.2926 413.362 18.0004Z" fill="#00A1DE"/>
<defs>
<clipPath id="clip0_198_10862">
<rect width="78.031" height="30.4511" fill="white" transform="translate(664.963 2.8548)"/>
</clipPath>
<clipPath id="clip1_198_10862">
<rect width="40.9187" height="30.4511" fill="white" transform="translate(223.087 2.8548)"/>
</clipPath>
<clipPath id="clip2_198_10862">
<rect width="73.273" height="30.4511" fill="white" transform="translate(567.9 2.8548)"/>
</clipPath>
<clipPath id="clip3_198_10862">
<rect width="50.4347" height="30.4511" fill="white" transform="translate(287.796 2.8548)"/>
</clipPath>
<clipPath id="clip4_198_10862">
<rect width="41.8703" height="30.4511" fill="white" transform="translate(157.427 2.8548)"/>
</clipPath>
<clipPath id="clip5_198_10862">
<rect width="85.6438" height="28.5479" fill="white" transform="translate(0 3.8064)"/>
</clipPath>
</defs>
</svg>
