<svg width="170" height="32" viewBox="0 0 170 32" fill="none" xmlns="http://www.w3.org/2000/svg">
<path d="M33.2383 14.7851C33.4323 14.1163 33.626 13.336 33.6908 12.5C33.6908 13.2246 33.5291 14.0048 33.2383 14.7851Z" fill="#00AB62"/>
<path d="M5.1543 18.8535C4.89576 18.0175 4.79883 17.2093 4.79883 16.457C4.89576 17.8782 5.1543 18.7978 5.1543 18.8535Z" fill="#00B4FF"/>
<path d="M5.1543 18.8545C5.12199 18.7987 4.86346 17.8791 4.79883 16.4578V16.43C4.79883 15.6498 4.89576 14.9252 5.08967 14.2285C4.7665 16.5973 5.12199 18.6873 5.1543 18.8545Z" fill="#1D1D1D"/>
<path d="M9.88589 22.818C8.90742 24.9016 7.98593 27.227 7.42457 28.6999C7.08636 29.5872 6.12342 30.1954 5.0328 30.1954C4.07253 30.1954 3.77935 29.5172 4.67428 29.2192C4.91953 29.1377 5.09537 29.0883 5.12004 29.0815C5.12269 29.0807 5.12316 29.0807 5.12575 29.0798C5.2069 29.0534 7.05362 28.3398 5.18765 18.8535C8.32228 20.2469 9.43347 20.728 9.88589 22.818Z" fill="#FFC766"/>
<path d="M5.1543 18.8535C4.89576 18.0175 4.79883 17.2093 4.79883 16.457C4.89576 17.8782 5.1543 18.7978 5.1543 18.8535Z" fill="#FFA200"/>
<path d="M11.9769 19.5212C10.0056 19.4376 7.56207 19.5733 5.1582 18.8525C5.25516 18.6853 6.83625 15.5084 8.93681 11.6906C9.9386 11.3562 11.263 10.967 12.8118 11.4964C12.8118 11.4964 12.7831 11.527 12.8801 11.5549C13.2691 14.1275 12.8106 16.8905 11.9769 19.5212Z" fill="#EA6766"/>
<path d="M11.9769 19.5223C11.4598 21.3616 10.7489 23.0894 10.0702 24.5663C9.5855 22.4762 8.29286 20.2191 5.1582 18.8535C7.74349 19.2437 10.0056 19.4388 11.9769 19.5223Z" fill="#EA6766"/>
<path d="M14.139 19.5811C13.4017 23.9406 12.5357 28.2261 11.7683 29.9805C11.5303 30.5244 10.8941 30.7557 10.2154 30.7557H9.98091C9.05614 30.7557 8.29475 30.4966 9.0385 30.0262C9.31034 29.8543 10.0159 29.3192 10.075 29.0345C10.2392 28.2432 10.4965 26.4822 10.0672 24.5693C10.7458 23.0923 11.4567 21.3646 11.9738 19.5254C12.7494 19.5811 13.4603 19.5811 14.139 19.5811Z" fill="#EA6766"/>
<path d="M15.8803 7.81148C15.2988 7.70001 14.7817 7.61641 14.2646 7.56067C13.489 7.47708 12.778 7.47708 12.1317 7.50494C12.1317 7.50494 12.1317 7.5328 12.1641 7.5328C12.6811 8.42455 15.5895 9.95722 15.5895 9.95722C15.5895 11.7964 13.3897 11.5802 12.808 11.5245C13.0018 14.2555 12.666 17.119 11.9551 19.5991C12.7306 19.6271 14.1381 19.593 14.8167 19.5651C15.7862 13.7409 15.9127 7.81148 15.8803 7.81148C15.9127 7.81148 15.9127 7.81148 15.8803 7.81148Z" fill="#EA6766"/>
<path d="M8.96806 11.6914C6.86753 15.5092 5.25173 18.686 5.15479 18.8531C5.15479 18.5745 5.02552 13.0569 8.96806 11.6914Z" fill="#EA6766"/>
<path d="M12.1371 7.45958C11.8463 7.48744 11.5554 7.51531 11.2969 7.54318C11.4584 7.23663 11.6523 6.9301 11.8463 6.5957C11.9432 6.81863 12.1371 7.40384 12.1371 7.45958Z" fill="#1D1D1D"/>
<path d="M11.8472 6.5957C11.6533 6.90224 11.4917 7.20877 11.2978 7.54318C10.813 7.59891 10.3283 7.71038 9.9082 7.8497C11.0069 7.04158 11.8472 6.5957 11.8472 6.5957Z" fill="#1D1D1D"/>
<path d="M15.5935 9.90879C15.5935 11.748 13.3894 11.5821 12.8077 11.5263C12.7107 10.133 12.6204 8.84985 12.168 7.48438C12.6528 8.37612 15.5935 9.90879 15.5935 9.90879Z" fill="#1D1D1D"/>
<path d="M9.90687 7.84766C8.19413 9.10166 5.89969 11.3031 5.0918 14.257C5.44727 11.7211 6.61065 8.87873 9.90687 7.84766Z" fill="#1D1D1D"/>
<path d="M11.294 7.53711C10.4861 8.93046 9.71048 10.3516 8.96721 11.6892C4.99235 13.0547 5.15392 18.5724 5.15392 18.851C5.12161 18.6838 4.76614 16.5938 5.05699 14.2529C5.86488 11.2712 8.19163 9.09767 9.87206 7.84365C10.3245 7.70432 10.8092 7.59285 11.294 7.53711Z" fill="#1D1D1D"/>
<path d="M12.8109 11.5262C12.714 11.5262 12.7084 11.5262 12.7084 11.5262C11.1573 11.1918 9.9725 11.3291 8.9707 11.6635C9.71396 10.3259 10.4896 8.90468 11.2975 7.51133C11.556 7.48347 11.8469 7.4556 12.1377 7.42773C12.1377 7.42773 12.1377 7.4556 12.17 7.4556C12.6224 8.84894 12.714 10.1607 12.8109 11.5262Z" fill="#1D1D1D"/>
<path d="M29.9205 24.6071C30.1055 24.998 30.1489 25.4335 29.9989 25.8353L28.7726 29.1166C28.5262 29.7762 27.8097 30.224 27.0005 30.224H26.8122C25.5879 30.224 25.1797 29.4424 26.3057 29.0309C26.4487 28.9786 26.5383 28.9493 26.5383 28.9493C26.5383 28.9493 28.864 26.2424 24.3194 21.5573C23.1561 20.582 22.3805 19.3837 21.8633 18.1019C22.6067 17.7118 23.2115 17.1729 23.6317 16.6992C23.7609 16.9221 23.984 17.1314 24.0415 17.3713C24.0737 17.3991 24.1438 17.4323 24.1438 17.488C24.8548 18.4355 25.7476 19.3097 26.9433 20.1178C27.8481 20.7308 28.5447 21.3455 29.0941 21.9586C29.2518 23.0465 29.6408 24.0161 29.9205 24.6071Z" fill="#CAEE66"/>
<path d="M23.5751 16.7339C23.7044 16.9568 23.8658 17.1519 23.9951 17.3748C23.8658 17.1519 23.7044 16.9568 23.5751 16.7339C22.7348 15.452 22.1531 13.9194 21.8945 12.0801C22.1209 13.557 22.6055 15.1733 23.5751 16.7339Z" fill="#A6E200"/>
<path d="M33.2058 14.8145C32.9473 15.5669 32.6887 16.1243 32.5918 16.3194C32.6887 15.957 32.8503 15.5948 33.0118 15.2326C33.1089 15.0932 33.1735 14.9538 33.2058 14.8145Z" fill="#A6E200"/>
<path d="M33.6574 12.4718C33.5604 9.32285 30.361 6.78697 24.8027 6.8427C24.932 6.8427 25.0613 6.8427 25.1905 6.8427C25.3844 6.8427 25.5783 6.8427 25.8046 6.8427C27.2588 6.8427 28.4545 7.0099 29.424 7.2607H29.4562C32.9787 8.1803 33.7542 10.4375 33.6574 12.4718Z" fill="#A6E200"/>
<path d="M34.0226 24.0882C34.2676 24.4749 34.3713 24.9242 34.2615 25.354L33.2022 29.5031C33.0154 30.2343 32.2589 30.7554 31.3845 30.7554H30.7429C29.5629 30.7554 29.2111 30.0545 30.3203 29.7092C30.347 29.701 30.3618 29.6966 30.3618 29.6966C30.3618 29.6966 34.5378 28.1552 29.0691 22.1042C29.0367 21.8813 29.0691 21.5316 29.0691 21.3086C30.5233 22.0053 32.0098 22.4511 33.3024 22.7577C33.5557 23.31 33.8158 23.7618 34.0226 24.0882Z" fill="#66AA66"/>
<path d="M29.3261 22.5002C28.5818 21.2263 27.8063 20.7492 26.9337 20.1361C25.738 19.3279 24.8331 18.4084 24.0898 17.4609C25.4472 19.2165 28.3959 19.8728 29.0666 21.3343C29.0666 21.5574 31.7448 24.8887 29.3261 22.5002Z" fill="#66AA66"/>
<path d="M33.2685 22.7537C31.9758 22.4471 30.4894 22.0013 29.0352 21.3045C29.0352 19.6047 29.7784 17.6541 32.5575 16.3721C32.5575 16.3721 32.5575 16.3442 32.5898 16.3164C31.8143 18.8244 32.5252 21.1931 33.2685 22.7537Z" fill="#66AA66"/>
<path d="M33.6569 12.4718C33.6246 13.3357 33.4308 14.116 33.2043 14.7848C33.2043 14.7848 33.2043 14.7848 33.2043 14.8125C33.1398 14.952 33.0753 15.0913 33.0105 15.2306C32.8167 15.5928 32.6874 15.9552 32.5905 16.3174C32.5581 16.3731 32.5581 16.3731 32.5581 16.3731C29.7789 17.6551 29.0356 19.6057 29.068 21.3335C27.2583 20.4696 25.4486 19.2434 24.0913 17.4599C24.059 17.4321 24.0268 17.4042 24.0268 17.3485C23.8651 17.1534 23.7358 16.9305 23.6066 16.7075C26.6443 13.0291 22.0254 7.08502 22.0254 7.08502C22.0254 7.08502 22.12 7.03777 22.2817 7.03777C22.3139 7.03777 22.3786 7.03776 22.411 7.0099C23.2511 6.9263 24.0268 6.87056 24.77 6.8427H24.8023C30.3606 6.78697 33.5598 9.32285 33.6569 12.4718Z" fill="#66AA66"/>
<path d="M21.8953 18.1012C20.2795 18.9651 17.8236 19.5502 14.1719 19.5781C15.1737 13.7261 15.8818 7.81572 15.8818 7.81572C17.4651 7.95505 19.5362 7.79042 22.0246 7.09375C21.8953 7.40028 19.9888 13.3359 21.8953 18.1012Z" fill="#EA6766"/>
<path d="M23.6306 16.7283C23.2105 17.2298 22.5985 17.7114 21.8553 18.1015C19.9487 13.3363 21.8949 7.42177 21.9919 7.11523C21.9596 7.3103 21.4747 9.37931 21.8626 12.0266V12.0545C22.1534 13.9216 22.8228 15.4463 23.6306 16.7283Z" fill="#EA6766"/>
<path d="M21.7274 11.9735C21.3396 9.29825 21.9216 7.29048 22.0239 7.08594C22.0239 7.08594 26.9636 13.3639 23.5603 16.7574C22.7523 15.4755 21.986 13.8127 21.7274 11.9735Z" fill="#66AA66"/>
<path d="M33.045 15.2032C33.1098 15.0639 33.1743 14.9245 33.239 14.7852C32.9805 15.5377 32.7219 16.0949 32.625 16.2901C32.7219 15.9556 32.8512 15.5934 33.045 15.2032Z" fill="#66D2FF"/>
<path d="M33.6596 12.5C33.6918 13.2246 33.5303 14.0048 33.207 14.7851C33.4334 14.1442 33.6272 13.336 33.6596 12.5Z" fill="#FFBD00"/>
<path d="M36.9811 23.0647C37.0577 23.1802 36.9543 23.3298 36.7995 23.3184C36.1814 23.2732 34.8666 23.1426 33.2702 22.7835C32.527 21.223 31.816 18.8544 32.5915 16.3184C32.6885 16.1234 32.947 15.5661 33.2056 14.8137C33.2056 14.8137 33.2056 14.8137 33.2056 14.7858C33.5287 14.0055 33.658 13.2252 33.658 12.5007V12.4728C33.755 10.4385 32.9794 8.18132 29.457 7.26172C32.2361 7.93053 34.7568 9.5468 34.7568 13.1695C34.7568 19.1835 36.4014 22.1913 36.9811 23.0647Z" fill="#66D2FF"/>
<path d="M33.6561 12.4739C33.559 9.32495 30.3599 6.78906 24.8016 6.8448H24.7691C24.0582 6.87267 23.2503 6.92841 22.4102 7.012C22.5394 6.98413 22.6687 6.98413 22.8303 6.95627C22.8948 6.95627 22.9272 6.95627 22.9917 6.92841C23.0565 6.92841 23.1533 6.92841 23.2503 6.90053C23.4443 6.87267 23.6705 6.87267 23.9291 6.8448C24.0259 6.8448 24.1229 6.8448 24.2198 6.81693C24.2844 6.81693 24.3168 6.81693 24.3813 6.81693C24.6399 6.81693 24.8984 6.78906 25.1569 6.78906C25.3509 6.78906 25.5449 6.78906 25.771 6.78906C26.902 6.81693 28.1948 6.92841 29.3903 7.20707H29.4226C32.9774 8.18241 33.7531 10.4396 33.6561 12.4739Z" fill="#66D2FF"/>
<path fill-rule="evenodd" clip-rule="evenodd" d="M11.8123 1.27036C11.8123 1.27036 10.2289 1.68836 9.51795 2.58009C9.55021 2.4965 9.80875 1.54903 9.45334 1.24249C9.42098 1.21462 0.210938 3.13744 0.210938 8.9895C0.210938 15.9284 4.96138 18.7429 5.15527 18.8544C-4.29787 6.79093 9.72774 4.58216 10.5522 4.45234L10.5552 4.45187L10.5624 4.46249C5.18602 8.22343 4.60613 13.4523 4.76749 16.4579C4.76749 15.6776 4.86442 14.953 5.05833 14.2563C5.4138 11.7205 6.57718 8.87798 9.87344 7.84695C10.9721 7.0388 11.78 6.6208 11.78 6.6208H11.8123C11.4197 5.73528 10.6601 4.60634 10.5624 4.46249L10.5843 4.44718C10.5788 4.44814 10.569 4.44968 10.5552 4.45187L10.552 4.44718C10.552 4.44718 12.1678 2.60797 11.8123 1.27036ZM6.44814 3.75033C6.44814 3.75033 7.77313 2.05045 9.22729 1.60458C9.25965 1.60458 9.48583 3.63886 6.44814 3.75033ZM11.4571 1.77188C10.3583 2.27349 9.93819 3.30456 9.93819 3.30456C10.8385 3.09283 11.2781 2.14624 11.4127 1.85646C11.4376 1.80299 11.452 1.77188 11.4571 1.77188Z" fill="#66D2FF"/>
<path d="M4.80173 16.4559C4.80173 17.2362 4.931 18.0165 5.1572 18.8525C-4.47294 6.56318 10.2631 4.50103 10.5863 4.44531C5.22184 8.20733 4.60785 13.4184 4.80173 16.4559Z" fill="#66D2FF"/>
<path d="M5.1543 18.8535C4.89576 18.0175 4.79883 17.2093 4.79883 16.457C4.89576 17.8782 5.1543 18.7978 5.1543 18.8535Z" fill="#00B4FF"/>
<path d="M6.44531 3.74927C6.44531 3.74927 7.77027 2.04939 9.22449 1.60352C9.2568 1.60352 9.48302 3.63779 6.44531 3.74927Z" fill="#5AC8F6"/>
<path d="M11.4231 1.76953C11.4231 1.76953 10.9707 3.07928 9.9043 3.30221C9.93661 3.30221 10.3567 2.27113 11.4231 1.76953Z" fill="#5AC8F6"/>
<path d="M67.3804 7.91211V25.0001H65.271V12.3041L58.8595 25.0001H57.2497L50.7828 12.4001L50.8106 25.0001H48.7012V7.91211H50.5885L58.0824 22.6481L65.493 7.91211H67.3804ZM83.6624 18.9041H73.4208C73.4393 20.4401 73.8464 21.6001 74.642 22.3841C75.4562 23.1681 76.6311 23.5601 78.1669 23.5601C79.7952 23.5601 81.294 23.0881 82.6632 22.1441L83.4126 23.5601C82.802 24.0561 82.0156 24.4481 81.0534 24.7361C80.1098 25.0241 79.1383 25.1681 78.1392 25.1681C75.9558 25.1681 74.2442 24.6161 73.0045 23.5121C71.7647 22.3921 71.1449 20.8641 71.1449 18.9281C71.1449 17.6961 71.4224 16.6081 71.9775 15.6641C72.5326 14.7041 73.3098 13.9601 74.309 13.4321C75.3081 12.9041 76.4461 12.6401 77.7228 12.6401C79.5732 12.6401 81.0257 13.1681 82.0804 14.2241C83.1351 15.2641 83.6624 16.7041 83.6624 18.5441V18.9041ZM77.7506 14.1521C76.5849 14.1521 75.632 14.4561 74.8918 15.0641C74.1702 15.6721 73.7076 16.5281 73.5041 17.6321H81.6363C81.5253 16.4961 81.1367 15.6321 80.4706 15.0401C79.823 14.4481 78.9163 14.1521 77.7506 14.1521ZM89.9911 14.4641V21.0641C89.9911 21.9601 90.2038 22.5921 90.6294 22.9601C91.055 23.3121 91.6564 23.4881 92.4335 23.4881C92.9516 23.4881 93.4512 23.4161 93.9323 23.2721V24.9281C93.3587 25.0881 92.7111 25.1681 91.9894 25.1681C90.6572 25.1681 89.6117 24.8481 88.8531 24.2081C88.113 23.5521 87.7429 22.5921 87.7429 21.3281V14.4641H85.0229V12.9281H87.7429V9.83211L89.9911 9.13611V12.9281H93.9878V14.4641H89.9911ZM108.992 12.9281V25.0001H106.772V22.8161C106.365 23.5681 105.745 24.1521 104.912 24.5681C104.098 24.9681 103.145 25.1681 102.054 25.1681C100.814 25.1681 99.7222 24.9121 98.7786 24.4001C97.8534 23.8881 97.1317 23.1681 96.6137 22.2401C96.1141 21.2961 95.8643 20.2001 95.8643 18.9521C95.8643 17.7041 96.1233 16.6081 96.6414 15.6641C97.1595 14.7041 97.8811 13.9601 98.8063 13.4321C99.75 12.9041 100.832 12.6401 102.054 12.6401C103.145 12.6401 104.098 12.8481 104.912 13.2641C105.727 13.6801 106.346 14.2641 106.772 15.0161V12.9281H108.992ZM102.498 23.5601C103.867 23.5601 104.922 23.1601 105.662 22.3601C106.402 21.5441 106.772 20.3921 106.772 18.9041C106.772 17.4161 106.402 16.2721 105.662 15.4721C104.922 14.6721 103.867 14.2721 102.498 14.2721C101.128 14.2721 100.055 14.6881 99.2781 15.5201C98.5195 16.3361 98.1402 17.4801 98.1402 18.9521C98.1402 20.4241 98.5195 21.5601 99.2781 22.3601C100.037 23.1601 101.11 23.5601 102.498 23.5601ZM132.768 7.91211V25.0001H128.938V15.6641L124.386 25.0001H121.583L117.003 15.7841V25.0001H113.2V7.91211H116.642L123.026 20.5121L129.354 7.91211H132.768ZM150.575 12.8321V25.0001H146.44V23.2001C146.014 23.8241 145.413 24.3121 144.636 24.6641C143.858 25.0161 142.979 25.1921 141.999 25.1921C140.778 25.1921 139.695 24.9361 138.751 24.4241C137.826 23.9121 137.095 23.1841 136.559 22.2401C136.041 21.2801 135.782 20.1761 135.782 18.9281C135.782 17.6801 136.041 16.5681 136.559 15.5921C137.095 14.6161 137.836 13.8641 138.779 13.3361C139.723 12.7921 140.796 12.5201 141.999 12.5201C142.979 12.5201 143.858 12.7041 144.636 13.0721C145.413 13.4401 146.014 13.9361 146.44 14.5601V12.8321H150.575ZM143.22 22.4321C144.256 22.4321 145.052 22.1281 145.607 21.5201C146.162 20.9121 146.44 20.0321 146.44 18.8801C146.44 17.7281 146.162 16.8481 145.607 16.2401C145.052 15.6161 144.256 15.3041 143.22 15.3041C142.184 15.3041 141.379 15.6241 140.805 16.2641C140.232 16.9041 139.945 17.7921 139.945 18.9281C139.945 20.0641 140.222 20.9361 140.778 21.5441C141.351 22.1361 142.165 22.4321 143.22 22.4321ZM162.562 12.5201C163.765 12.5201 164.838 12.7921 165.781 13.3361C166.725 13.8641 167.456 14.6161 167.974 15.5921C168.511 16.5681 168.779 17.6801 168.779 18.9281C168.779 20.1761 168.52 21.2801 168.002 22.2401C167.484 23.1841 166.753 23.9121 165.809 24.4241C164.866 24.9361 163.783 25.1921 162.562 25.1921C161.581 25.1921 160.702 25.0161 159.925 24.6641C159.148 24.3121 158.556 23.8241 158.149 23.2001V30.1841H153.958V16.3121C153.958 15.0161 153.884 13.8561 153.736 12.8321H157.677L157.955 14.8481C158.325 14.1281 158.917 13.5601 159.731 13.1441C160.563 12.7281 161.507 12.5201 162.562 12.5201ZM161.368 22.4321C162.405 22.4321 163.2 22.1361 163.755 21.5441C164.31 20.9361 164.588 20.0641 164.588 18.9281C164.588 17.7921 164.301 16.9041 163.728 16.2641C163.172 15.6241 162.386 15.3041 161.368 15.3041C160.332 15.3041 159.527 15.6161 158.954 16.2401C158.399 16.8481 158.121 17.7281 158.121 18.8801C158.121 20.0321 158.399 20.9121 158.954 21.5201C159.527 22.1281 160.332 22.4321 161.368 22.4321Z" fill="#434343"/>
</svg>
