<svg width="170" height="43" viewBox="0 0 170 43" fill="none" xmlns="http://www.w3.org/2000/svg">
<g clip-path="url(#clip0_1742_2)">
<path d="M64.132 25.5512H56.0135L56.9397 23.4495L59.2827 18.1954C59.4461 17.8083 59.5551 17.4211 59.7186 16.9786C59.8821 16.5362 59.991 16.0938 60.1 15.596C60.2635 16.1491 60.3725 16.5915 60.5359 17.0339C60.6994 17.4764 60.8083 17.8636 60.9718 18.1954L64.132 25.5512ZM67.1288 32.4645H70.9975L60.0454 8.51676L49.0391 32.4645H52.9077L54.7058 28.4271H65.3852L67.1288 32.4645ZM80.5327 14.7664C80.5327 13.8815 80.8051 13.1625 81.4044 12.6647C82.0038 12.167 82.7666 11.8905 83.7474 11.8905C84.4558 11.8905 85.0551 12.0564 85.6 12.3882C86.1448 12.72 86.6352 13.2731 87.0711 13.9921L89.9589 12.4988C89.5231 11.2821 88.7602 10.3419 87.616 9.67815C86.4718 9.01451 85.1096 8.68267 83.4204 8.68267C81.4044 8.68267 79.7154 9.29106 78.4621 10.4525C77.2089 11.6139 76.5551 13.1625 76.5551 14.9877C76.5551 16.4257 76.991 17.6424 77.8083 18.6379C78.6256 19.6333 80.3147 20.7394 82.8211 22.0116C82.9846 22.0668 83.2025 22.1774 83.5295 22.3434C85.7635 23.3943 86.8531 24.611 86.8531 25.9384C86.8531 26.9892 86.5263 27.8187 85.8724 28.4271C85.2185 29.0354 84.3468 29.3673 83.2571 29.3673C82.1128 29.3673 81.132 29.0908 80.4237 28.5378C79.6609 27.9847 79.1705 27.2104 78.8981 26.1596L75.9558 27.5422C76.3371 29.2014 77.1544 30.5287 78.3532 31.4137C79.6064 32.2985 81.1865 32.741 83.0935 32.741C85.382 32.741 87.2346 32.0773 88.5968 30.8053C89.9589 29.5332 90.6128 27.7634 90.6128 25.6065C90.6128 24.1132 90.1769 22.8412 89.3596 21.8457C88.5423 20.8501 86.9621 19.7993 84.7281 18.7485C84.6192 18.6932 84.4558 18.6379 84.2377 18.5272C81.7858 17.4211 80.5327 16.1491 80.5327 14.7664ZM114.424 30.4734C115.949 28.9249 116.766 26.602 116.766 23.5048V9.18045H113.062V23.173C113.062 25.2746 112.571 26.8232 111.645 27.874C110.718 28.9249 109.302 29.4226 107.449 29.4226C105.543 29.4226 104.18 28.9249 103.199 27.874C102.273 26.8232 101.783 25.2746 101.783 23.173V9.18045H98.1317V23.5048C98.1317 26.6573 98.8948 28.9802 100.42 30.5287C101.946 32.0773 104.289 32.8517 107.395 32.8517C110.555 32.7964 112.898 32.022 114.424 30.4734ZM144.174 32.1879L136.164 21.4585C137.962 21.5138 139.379 20.8501 140.251 19.7993C141.122 18.7485 141.558 17.3105 141.558 15.4854C141.558 14.4346 141.341 13.4944 140.959 12.6094C140.578 11.7245 140.033 11.0055 139.324 10.4525C138.725 10.01 138.016 9.67824 137.199 9.45696C136.382 9.23575 135.183 9.18045 133.712 9.18045H124.558V32.1879H127.991V21.901V12.3882H130.552H132.895C132.895 12.3882 132.895 12.3882 132.949 12.3882H133.004C134.802 12.3882 136.055 12.6647 136.764 13.1625C137.472 13.6603 137.799 14.6005 137.799 15.8172C137.799 16.9787 137.472 17.8083 136.818 18.2507C136.218 18.6932 135.129 18.9144 133.439 18.9144C133.276 18.9144 130.497 18.9144 130.334 18.9144L133.004 22.5646L139.978 32.1326L144.174 32.1879ZM163.245 25.5512H154.853L155.889 23.1177L158.231 17.8636C158.395 17.4764 158.504 17.0893 158.668 16.6468C158.831 16.2044 158.939 15.7619 159.049 15.2641C159.212 15.8172 159.321 16.2597 159.485 16.7021C159.648 17.1446 159.757 17.5317 159.92 17.8636L163.245 25.5512ZM170.001 32.1879L159.049 8.24023L148.043 32.1879H151.911L153.545 28.4824H164.497L166.132 32.1879H170.001Z" fill="#0032A3"/>
<path d="M17.5447 22.9529L17.8171 22.6763L17.5447 22.3998C16.9453 21.7915 16.128 21.4043 15.2561 21.4043C14.3844 21.4043 13.5671 21.7915 12.9678 22.3998L12.6953 22.6763L12.9678 22.9529C13.5671 23.5612 14.3844 23.9484 15.2561 23.9484C16.128 23.893 16.9453 23.5612 17.5447 22.9529ZM15.2561 22.1786C15.8011 22.1786 16.2915 22.3445 16.7274 22.6763C16.2915 23.0082 15.8011 23.1741 15.2561 23.1741C14.7113 23.1741 14.2209 23.0082 13.7851 22.6763C14.2209 22.3445 14.7113 22.1786 15.2561 22.1786Z" fill="#0032A3"/>
<path d="M15.2556 20.0217C15.9095 20.0217 16.5633 20.1323 17.1083 20.4089L17.4352 19.7452C16.7813 19.4133 16.0185 19.3027 15.2556 19.3027C14.4929 19.3027 13.7845 19.4686 13.0762 19.7452L13.4031 20.4089C14.0025 20.1877 14.6563 20.0217 15.2556 20.0217Z" fill="#0032A3"/>
<path d="M4.95934 21.459C4.08755 21.459 3.27023 21.8462 2.67088 22.4545L2.39844 22.731L2.67088 23.0076C3.27023 23.6159 4.08755 24.0031 4.95934 24.0031C5.83114 24.0031 6.64845 23.6159 7.24781 23.0076L7.52025 22.731L7.24781 22.4545C6.64845 21.7355 5.83114 21.459 4.95934 21.459ZM4.95934 23.1182C4.41447 23.1182 3.92408 22.9523 3.48818 22.6204C3.92408 22.2885 4.41447 22.1226 4.95934 22.1226C5.50422 22.1226 5.99461 22.2885 6.4305 22.6204C5.99461 23.0076 5.50422 23.1182 4.95934 23.1182Z" fill="#0032A3"/>
<path d="M4.95878 20.0217C5.61263 20.0217 6.26645 20.1323 6.81132 20.4089L7.13827 19.7452C6.48442 19.4133 5.7216 19.3027 4.95878 19.3027C4.19596 19.3027 3.48763 19.4686 2.7793 19.7452L3.1062 20.4089C3.65108 20.1877 4.35942 20.0217 4.95878 20.0217Z" fill="#0032A3"/>
<path d="M16.6738 26.2146C17.1642 26.7123 17.927 27.0442 18.6354 27.0442C19.3437 27.0442 20.0521 26.7123 20.5969 26.2146L20.1065 25.7168C19.725 26.104 19.2348 26.3252 18.6898 26.3252C18.145 26.3252 17.6546 26.1593 17.2731 25.7168L16.6738 26.2146Z" fill="#0032A3"/>
<path d="M20.1595 28.0965C19.7235 27.9859 19.2877 27.9859 18.8518 28.1519C18.7973 28.2072 18.7428 28.2072 18.6883 28.2072C18.6339 28.2072 18.5793 28.2072 18.5249 28.1519C18.1434 27.9859 17.6531 27.8753 17.2172 28.0965C16.6178 28.2625 16.0184 28.5943 15.528 29.0367L15.2012 29.3686L15.528 29.6452C16.1274 30.1983 16.9992 30.4747 17.8165 30.4747H18.6883H19.5601C20.4319 30.4747 21.2492 30.143 21.8485 29.6452L22.1755 29.3686L21.8485 29.0367C21.3582 28.6497 20.7588 28.3731 20.1595 28.0965ZM19.5601 29.7558H18.6883H17.8165C17.3261 29.7558 16.8357 29.6452 16.3453 29.3686C16.6722 29.0921 16.9992 28.9814 17.3806 28.8709C17.6531 28.8156 17.871 28.8156 18.1435 28.9262C18.3069 28.9814 18.5249 29.0367 18.6338 29.0367C18.7972 29.0367 19.0152 28.9814 19.1242 28.9262C19.3966 28.8156 19.6145 28.8156 19.887 28.8709C20.2684 28.9814 20.6499 29.2027 20.9223 29.3686C20.5409 29.5899 20.0505 29.7558 19.5601 29.7558Z" fill="#0032A3"/>
<path d="M22.0667 23.8918C22.9385 23.8918 23.7558 23.5046 24.3552 22.8962L24.6276 22.6197L24.3552 22.3432C23.7558 21.7348 22.9385 21.3477 22.0667 21.3477C21.1949 21.3477 20.3776 21.7348 19.7782 22.3432L19.5059 22.6197L19.7782 22.8962C20.3776 23.5599 21.1949 23.8918 22.0667 23.8918ZM22.0667 22.1772C22.6115 22.1772 23.1019 22.3432 23.5378 22.675C23.1019 23.0068 22.6115 23.1727 22.0667 23.1727C21.5219 23.1727 21.0315 23.0068 20.5955 22.675C21.0315 22.3432 21.5219 22.1772 22.0667 22.1772Z" fill="#0032A3"/>
<path d="M22.0681 20.0217C22.722 20.0217 23.3758 20.1323 23.9207 20.4089L24.2476 19.7452C23.5937 19.4133 22.831 19.3027 22.0681 19.3027C21.3053 19.3027 20.597 19.4686 19.8887 19.7452L20.2156 20.4089C20.7604 20.1877 21.4143 20.0217 22.0681 20.0217Z" fill="#0032A3"/>
<path d="M32.4202 21.459C31.5484 21.459 30.7311 21.8462 30.1318 22.4545L29.8594 22.731L30.1318 23.0076C30.7311 23.6159 31.5484 24.0031 32.4202 24.0031C33.2921 24.0031 34.1094 23.6159 34.7088 23.0076L34.9811 22.731L34.7088 22.4545C34.0549 21.7355 33.2375 21.459 32.4202 21.459ZM32.4202 23.1182C31.8754 23.1182 31.385 22.9523 30.9491 22.6204C31.385 22.2885 31.8754 22.1226 32.4202 22.1226C32.9651 22.1226 33.4555 22.2885 33.8915 22.6204C33.4555 23.0076 32.9651 23.1182 32.4202 23.1182Z" fill="#0032A3"/>
<path d="M32.4197 20.0217C33.0735 20.0217 33.7274 20.1323 34.2723 20.4089L34.5992 19.7452C33.9454 19.4133 33.1825 19.3027 32.4197 19.3027C31.6569 19.3027 30.9485 19.4686 30.2402 19.7452L30.5672 20.4089C31.1121 20.1877 31.7114 20.0217 32.4197 20.0217Z" fill="#0032A3"/>
<path d="M37.4872 24.9433L36.0705 21.4037V19.9104C36.0705 18.583 35.6892 17.2557 35.0353 16.1495C34.6538 12.7205 32.1475 10.0105 28.9327 9.34682C28.6058 7.74293 27.5705 6.41557 26.2084 5.64127C25.2821 2.32288 22.2308 0 18.7981 0C15.3654 0 12.3141 2.32288 11.3879 5.64127C10.0256 6.41557 8.99039 7.68762 8.66347 9.34682C5.44873 9.95518 2.94232 12.6652 2.5609 16.1495C1.90705 17.2557 1.52567 18.583 1.52567 19.9104V21.4037L0.108981 24.9433C0.0544939 25.1092 0 25.3304 0 25.5517C0 26.3812 0.653853 27.0449 1.47116 27.0449H2.07054V28.7594H3.54167C4.08654 28.7594 4.63144 28.9253 5.06734 29.2572C4.63144 29.589 4.08654 29.755 3.54167 29.755H2.61541V30.8611L3.16028 31.4141V31.8566C3.16028 33.2946 4.35898 34.5666 5.83013 34.5666C6.37501 34.5666 6.91989 34.4006 7.41027 34.0135L8.17308 33.4605C9.48077 33.6264 10.516 34.5666 10.8975 35.8939C11.8782 39.5441 15.1475 42.033 18.8526 42.033C22.5577 42.033 25.8269 39.5441 26.8077 35.8939C27.1891 34.6219 28.2244 33.6817 29.5321 33.4605L30.2949 34.0135C30.7308 34.4006 31.2756 34.5666 31.875 34.5666C33.2917 34.5666 34.5448 33.3499 34.5448 31.8566V31.4141L35.0898 30.8611V29.755H34.1635C33.6186 29.755 33.0737 29.589 32.6379 29.2572C33.0737 28.9253 33.6186 28.7594 34.1635 28.7594H35.6346V27.0449H36.234C37.0513 27.0449 37.7052 26.3812 37.7052 25.5517C37.5962 25.3304 37.5417 25.1645 37.4872 24.9433ZM34.1635 15.873C33.7275 15.873 33.2371 15.9836 32.8013 16.0389C32.0385 12.9418 29.4231 10.8401 26.2629 10.8401C25.7725 10.8401 25.3365 10.8954 24.8462 10.9507C24.6827 10.8401 24.4648 10.6741 24.3013 10.6188C25.2276 10.1764 26.2083 9.95518 27.2436 9.95518C30.7308 9.95518 33.6186 12.4993 34.1635 15.873ZM27.1346 12.9971C28.6603 13.7713 30.0225 15.4858 30.1859 17.311C30.0769 17.3662 29.9135 17.4768 29.8045 17.5874C29.4231 17.864 29.0417 18.0852 28.7148 18.3618C28.7692 18.0299 28.7692 17.7534 28.7692 17.4215C28.8238 15.873 28.1699 14.2691 27.1346 12.9971ZM9.48077 23.2841L9.42631 23.2287C9.26284 23.0628 9.15387 22.7863 9.15387 22.5651C9.15387 22.012 9.64423 21.5142 10.1891 21.5142C10.734 21.5142 11.2244 22.012 11.2244 22.5651V25.994C11.2244 26.6025 11.2788 27.3214 11.4969 27.8745C11.4423 27.8745 11.3879 27.8745 11.3334 27.8745C10.7885 27.8745 10.2981 27.3767 10.2981 26.8237V25.1092C10.2436 24.4455 10.0256 23.8372 9.48077 23.2841ZM8.66347 18.3065C8.28206 18.1406 7.90066 17.864 7.57373 17.5321C7.46476 17.4215 7.30129 17.3662 7.19232 17.2557C7.35578 15.4305 8.66349 13.6607 10.2436 12.9418C9.20836 14.2138 8.55449 15.7624 8.55449 17.311C8.55449 17.6981 8.60899 17.9746 8.66347 18.3065ZM6.48399 16.8685C6.04809 16.592 5.61219 16.426 5.12181 16.2601C5.72116 13.4948 8.22759 11.5038 11.0609 11.5038C11.2244 11.5038 11.4423 11.5038 11.6058 11.5038C11.4423 11.6697 11.2244 11.8909 11.0609 12.0568C8.82695 12.4993 6.86539 14.5456 6.48399 16.8685ZM10.8429 13.2182C10.4071 14.1032 10.1891 15.2093 10.1891 16.1495C10.1891 17.5321 10.5705 18.8595 11.2788 20.021V21.0165C11.0064 20.8506 10.734 20.6847 10.3525 20.6847C9.69869 19.6339 9.31733 18.4724 9.31733 17.311C9.26284 15.9283 9.86215 14.4351 10.8429 13.2182ZM10.8429 16.2048C10.8429 14.6009 11.4423 12.6099 12.3686 11.8909C12.4231 11.8356 12.859 11.5038 12.9135 11.5038C12.3141 12.6099 11.9327 13.9373 11.9327 15.2646C11.9327 16.2601 12.0962 17.2557 12.4775 18.1959C12.0962 18.5277 11.8237 18.8595 11.5513 19.2467C11.0609 18.3065 10.8429 17.2557 10.8429 16.2048ZM22.6121 10.6741C22.8846 10.7294 23.1571 10.8401 23.4295 11.006L23.593 11.3379C24.2469 12.444 24.6282 13.8266 24.6282 15.2093C24.6282 16.0942 24.5192 16.9238 24.1923 17.6428C23.8109 17.3662 23.5385 17.1451 23.1025 16.9791C23.2115 16.2048 23.375 15.4858 23.375 14.6562C23.4295 13.2182 23.2115 11.8355 22.6121 10.6741ZM20.9775 10.1765C21.3045 10.2318 21.5769 10.2871 21.8494 10.3424C22.3942 11.5591 22.7212 13.0524 22.7212 14.6009C22.7212 15.2646 22.6667 15.9836 22.5577 16.592C22.1218 16.426 21.6859 16.2601 21.1955 16.1495C21.25 15.4859 21.3045 14.7668 21.3045 13.9926C21.25 12.6652 21.141 11.3379 20.9775 10.1765ZM22.9392 9.95518C22.7757 9.89988 22.5032 9.84459 22.3398 9.78929C22.3398 9.78929 22.3398 9.78929 22.3398 9.73399C22.3398 7.85355 20.9231 6.30495 19.0705 6.08372V3.09719C21.4679 3.2631 23.375 5.36474 23.375 7.85353C23.375 8.62783 23.2661 9.34682 22.9392 9.95518ZM21.5769 9.56801C20.6507 9.40212 19.7244 9.2362 18.6892 9.2362C17.7084 9.2362 16.7275 9.34682 15.8013 9.56801C15.8558 8.01944 17.1635 6.8027 18.6892 6.8027C20.2148 6.85801 21.468 8.01944 21.5769 9.56801ZM20.5962 14.0479C20.5962 14.7115 20.5962 15.3752 20.5417 15.9836C20.0513 15.9283 19.5609 15.873 19.0705 15.8177V9.89988C19.4519 9.89988 19.8879 9.95518 20.2692 9.95518C20.4871 11.2272 20.5962 12.6099 20.5962 14.0479ZM18.3077 9.95518V15.873C17.8173 15.873 17.3269 15.9283 16.8365 16.0389C16.7821 15.4305 16.7821 14.7668 16.7821 14.1032C16.7821 12.6652 16.891 11.2826 17.1635 10.0658C17.5448 10.0105 17.9263 9.95518 18.3077 9.95518ZM16.1282 16.2048C15.6923 16.3154 15.2019 16.4814 14.7661 16.6473C14.6571 16.0389 14.6026 15.3199 14.6026 14.6562C14.6026 13.1077 14.9295 11.6697 15.4744 10.3976C15.8013 10.3424 16.0192 10.2871 16.3462 10.2317C16.0737 11.4485 15.9648 12.7205 15.9648 14.1032C16.0738 14.8221 16.0738 15.4858 16.1282 16.2048ZM18.3077 6.08372C16.4552 6.24964 15.0385 7.85355 15.0385 9.73399C15.0385 9.73399 15.0385 9.73399 15.0385 9.78929C14.875 9.84459 14.6025 9.89988 14.4391 9.95518C14.1121 9.34682 13.9488 8.57253 13.9488 7.79825C13.9488 5.30945 15.8558 3.20778 18.2532 3.04186V6.02842H18.3077V6.08372ZM14.7115 10.6741C14.2212 11.8909 13.9488 13.2735 13.9488 14.6009C13.9488 15.4306 14.0032 16.1495 14.2212 16.9238C13.8398 17.0898 13.4584 17.3662 13.1315 17.5874C12.859 16.7579 12.6955 15.9836 12.6955 15.154C12.6955 13.7713 13.0225 12.3887 13.7308 11.2826L13.8942 10.9507C14.1667 10.8401 14.4936 10.7847 14.7115 10.6741ZM11.9871 22.5098V19.9104C13.2948 17.864 15.8558 16.5367 18.6892 16.5367C21.5225 16.5367 24.0834 17.8087 25.3911 19.9104V22.5098V25.9388C25.3911 28.4275 24.0288 30.7504 21.8494 31.9672C21.5225 32.1331 21.25 32.4097 21.0321 32.6308C20.4872 33.2945 19.6154 33.737 18.6892 33.737C17.7629 33.737 16.891 33.2945 16.3462 32.6308C16.0737 32.3544 15.8558 32.1331 15.5288 31.9672C13.3494 30.7504 11.9871 28.4275 11.9871 25.9388V22.5098ZM24.8462 18.1959C25.2276 17.2557 25.3911 16.2601 25.3911 15.2646C25.3911 13.9926 25.0642 12.6099 24.4103 11.5038C24.4648 11.5591 24.9007 11.8909 24.9552 11.8909C25.8815 12.7205 26.4808 14.6562 26.4808 16.2048C26.4808 17.2557 26.2083 18.2512 25.7179 19.1914C25.5545 18.8042 25.2276 18.4724 24.8462 18.1959ZM26.0994 25.9388V22.5098C26.0994 21.9567 26.5898 21.459 27.1346 21.459C27.6795 21.459 28.1698 21.9567 28.1698 22.5098C28.1698 22.7863 28.1154 23.0075 27.8975 23.1734L27.843 23.2287C27.2981 23.7818 27.0257 24.4454 27.0257 25.0539V26.7684C27.0257 27.3214 26.5352 27.8192 25.9904 27.8192C25.9359 27.8192 25.8814 27.8192 25.8269 27.8192C26.0448 27.2661 26.0994 26.6025 26.0994 25.9388ZM27.0257 20.6847C26.6442 20.6847 26.3718 20.7953 26.0994 21.0165V20.021C26.8621 18.8042 27.1891 17.5321 27.1891 16.1495C27.1891 15.2093 26.9167 14.1032 26.5352 13.2182C27.4615 14.4351 28.0609 15.9283 28.0609 17.311C28.0609 18.4724 27.6795 19.6892 27.0257 20.6847ZM26.2629 12.1121C26.0994 11.9462 25.8814 11.725 25.7179 11.5591C25.8814 11.5591 26.0994 11.5591 26.2629 11.5591C29.0962 11.5591 31.4936 13.5501 32.1475 16.3154C31.7115 16.4813 31.2212 16.7026 30.7852 16.9238C30.4583 14.5456 28.4968 12.4993 26.2629 12.1121ZM28.0609 9.29149C27.7885 9.29149 27.5705 9.2362 27.2981 9.2362C25.9904 9.2362 24.7371 9.56801 23.5385 10.2317C23.9198 9.45742 24.0833 8.68313 24.0833 7.85353C24.0833 7.07924 23.9744 6.41556 23.7019 5.80719C25.7725 5.8625 27.516 7.35576 28.0609 9.29149ZM18.6892 0.829598C21.5769 0.829598 24.1923 2.65472 25.1731 5.36474C24.6827 5.19882 24.1379 5.08821 23.6475 5.08821C23.5929 5.08821 23.484 5.08821 23.375 5.08821C22.4487 3.48432 20.6507 2.32288 18.6892 2.32288C16.7276 2.32288 14.9295 3.42901 14.0032 5.08821C13.9487 5.08821 13.8398 5.08821 13.7308 5.08821C13.1859 5.08821 12.6955 5.14352 12.2052 5.36474C13.1859 2.65472 15.7469 0.829598 18.6892 0.829598ZM13.6218 5.80719C13.3494 6.41556 13.2404 7.13454 13.2404 7.85353C13.2404 8.68313 13.4038 9.45742 13.7853 10.2317C12.5321 9.56801 11.3333 9.2362 10.0256 9.2362C9.75324 9.2362 9.53523 9.23618 9.26282 9.29149C9.86215 7.35576 11.5513 5.8625 13.6218 5.80719ZM10.0256 9.95518C11.0609 9.95518 12.0417 10.2318 12.968 10.6188C12.8045 10.7294 12.5865 10.7847 12.4231 10.9507C11.9872 10.8401 11.4968 10.8401 11.0064 10.8401C7.84616 10.8401 5.17629 13.0524 4.46795 16.0389C4.03205 15.9283 3.59616 15.873 3.10578 15.873C3.70513 12.4993 6.64745 9.95518 10.0256 9.95518ZM8.71795 32.7967L9.80769 31.9119L9.37176 31.3588L6.75643 33.3498C6.4295 33.6264 5.99359 33.737 5.5577 33.737C4.52244 33.737 3.65065 32.8521 3.65065 31.8013V31.027L3.10578 30.4739V30.4186H3.26923C4.14102 30.4186 5.01283 30.0867 5.66668 29.4784L5.99359 29.2019L5.66668 28.9253C5.06732 28.317 4.19552 27.9851 3.26923 27.9851H2.50643V26.9896H3.26923V26.2153H2.17948H1.19872C0.762827 26.2153 0.435924 25.8281 0.435924 25.441C0.435924 25.3304 0.435911 25.2751 0.490398 25.1092L1.96156 21.459V19.8551C1.96156 18.6384 2.28849 17.5322 2.88785 16.5367C4.35901 16.592 5.77567 17.1451 6.97438 18.0852C7.51926 18.5277 8.06412 18.9148 8.77246 19.1361C8.93592 19.6892 9.15387 20.1869 9.42631 20.6847C8.77247 20.9612 8.33657 21.6248 8.33657 22.3992C8.33657 22.8969 8.50001 23.3393 8.82693 23.6712L8.93591 23.7818C9.31732 24.169 9.42631 24.6114 9.42631 24.9986V26.7131C9.42631 27.7086 10.2436 28.5382 11.2244 28.5382C11.3334 28.5382 11.4969 28.5381 11.6058 28.4828C11.6603 29.0359 11.7148 29.5891 11.7148 30.1974C11.7148 31.6353 11.3879 33.1286 10.8429 34.4559C10.4071 33.737 9.64423 33.1286 8.71795 32.7967ZM25.9904 35.6174C25.0641 38.9358 22.1219 41.2033 18.6892 41.2033C15.2565 41.2033 12.3141 38.8805 11.3879 35.6174C11.3879 35.5621 11.3334 35.4515 11.3334 35.3409C12.1507 33.7923 12.5865 32.0225 12.5865 30.2527C12.5865 30.2527 12.5865 30.2527 12.5865 30.1974C13.2404 31.1929 14.1121 32.0225 15.2019 32.5755C15.4744 32.6861 15.6379 32.9074 15.8013 33.0733C16.4006 33.9029 17.3269 34.3453 18.3621 34.4559V37.1107H19.125V34.4559C20.1058 34.3453 21.0321 33.9029 21.6859 33.0733C21.8494 32.9074 22.0673 32.6861 22.2852 32.5755C23.3205 32.0225 24.2468 31.1929 24.9006 30.1974C24.9006 30.1974 24.9006 30.1974 24.9006 30.2527C24.9006 32.0225 25.3365 33.7923 26.1538 35.3409C26.0448 35.4515 25.9904 35.5621 25.9904 35.6174ZM36.0161 26.3259H35.0353H33.9455V27.1002H34.7083V28.0957H33.9455C33.0738 28.0957 32.2019 28.4276 31.5481 29.0359L31.2212 29.3125L31.5481 29.589C32.1475 30.1973 33.0192 30.5292 33.9455 30.5292H34.109V30.5845L33.5642 31.1376V31.9119C33.5642 32.9627 32.6923 33.8477 31.6571 33.8477C31.2212 33.8477 30.8398 33.737 30.4583 33.4605L27.843 31.4694L27.4071 32.0225L28.4969 32.9074C27.625 33.2392 26.8077 33.7924 26.3173 34.6219C25.7725 33.2946 25.4455 31.8566 25.4455 30.3633C25.4455 29.8102 25.5 29.2572 25.5545 28.6487C25.6635 28.6487 25.8269 28.7041 25.9359 28.7041C26.9167 28.7041 27.734 27.8745 27.734 26.879V25.1645C27.734 24.722 27.8975 24.3348 28.2244 23.9478L28.3333 23.8372C28.6602 23.5053 28.8237 23.0075 28.8237 22.5651C28.8237 21.7907 28.3333 21.1271 27.734 20.8506C28.0609 20.3528 28.2788 19.7998 28.3879 19.302C28.9872 19.0254 29.641 18.6936 30.1859 18.2512C31.3846 17.3109 32.8013 16.7579 34.2725 16.7026C34.8718 17.6981 35.1988 18.9148 35.1988 20.021V21.6248L36.6699 25.2751C36.7244 25.3857 36.7244 25.441 36.7244 25.6069C36.8333 25.9387 36.4519 26.3259 36.0161 26.3259Z" fill="#0032A3"/>
</g>
<defs>
<clipPath id="clip0_1742_2">
<rect width="170" height="42.033" fill="white"/>
</clipPath>
</defs>
</svg>
