<svg width="170" height="27" viewBox="0 0 170 27" fill="none" xmlns="http://www.w3.org/2000/svg">
<g clip-path="url(#clip0_1745_131)">
<path fill-rule="evenodd" clip-rule="evenodd" d="M53.4793 5.12891H41.6672L38.4922 21.5095H42.8202L43.9541 15.6833H50.7579L51.4948 11.8219H44.6911L45.2581 8.99031H52.7233L53.4793 5.12891ZM53.7817 21.5095H58.1096L59.149 16.1745H61.0201L63.8928 21.5095H68.7688L65.4048 15.5657C67.3514 14.8412 68.9768 13.3657 69.506 10.6517C70.3375 6.32185 67.1813 5.12891 63.855 5.12891H56.9568L53.7817 21.5095ZM59.8295 12.664L60.5664 8.87273H63.3259C64.5543 8.87273 65.2725 9.50428 65.0268 10.7693C64.7811 12.0343 63.8172 12.664 62.5887 12.664H59.8295ZM86.5341 5.12891H74.7599L71.5848 21.5095H83.5102L84.2283 17.7657H76.6309L77.1412 15.0973H83.9071L84.6254 11.3762H77.8593L78.3507 8.87273H85.8159L86.5341 5.12891ZM102.126 5.12891H90.3518L87.1768 21.5095H99.1021L99.8202 17.7657H92.2227L92.733 15.0973H99.4989L100.217 11.3762H93.4701L93.9426 8.87273H101.408L102.126 5.12891Z" fill="#01D676"/>
<path fill-rule="evenodd" clip-rule="evenodd" d="M103.279 13.5539C102.145 19.4048 106.133 21.8608 110.631 21.8608C112.34 21.8618 114.032 21.5113 115.601 20.831L116.414 16.6187C115.299 17.531 113.655 18.0469 111.973 18.0469C109.421 18.0469 107.116 16.7363 107.72 13.5539C108.42 9.99592 111.273 8.56972 113.863 8.56972C115.356 8.56972 116.754 9.06091 117.605 9.90299L118.398 5.80831C116.983 5.10778 115.422 4.7548 113.844 4.77846C109.421 4.77846 104.489 7.37676 103.279 13.5539ZM117.491 21.51H121.933L123.369 18.9363H130.154L130.588 21.51H135.03L131.779 5.12934H127.111L117.491 21.51ZM125.334 15.4257L127.943 10.6996C128.237 10.1686 128.483 9.61265 128.68 9.03817C128.652 9.59451 128.69 10.1522 128.793 10.6996L129.549 15.4257H125.334ZM139.093 9.59954C137.959 15.4486 146.634 14.6539 146.161 17.017C146.01 17.8363 145.236 18.117 143.516 18.117C141.645 18.117 139.604 17.6031 137.922 16.2679L137.127 20.3625C138.677 21.3223 140.757 21.8608 143.118 21.8608C146.709 21.8608 149.885 20.7381 150.64 16.8539C151.775 11.0504 143.137 11.7047 143.535 9.57488C143.667 8.96798 144.234 8.54506 145.821 8.5223C147.73 8.49954 149.469 9.0135 150.679 10.0661L151.434 6.08899C150.169 5.26968 148.24 4.77846 146.199 4.77846C142.836 4.77846 139.736 6.32227 139.093 9.59954ZM170.957 5.12934H166.648L165.42 11.4013H159.353L160.562 5.12934H156.235L153.06 21.51H157.388L158.597 15.2627H164.683L163.454 21.51H167.783L170.957 5.12934Z" fill="black"/>
</g>
<g clip-path="url(#clip1_1745_131)">
<path fill-rule="evenodd" clip-rule="evenodd" d="M25.8916 18.8293V13.5852C25.8916 13.5852 25.9293 12.3108 24.1528 13.4259C23.4913 13.8147 22.5087 14.3496 22.5275 16.7374V18.7325C22.5275 18.7325 22.5654 23.0434 17.6894 23.0434H17.2169V24.1037C17.2177 24.2214 17.1943 24.3382 17.1484 24.4467C17.1026 24.5552 17.0352 24.6532 16.9502 24.7345C16.8652 24.8158 16.7645 24.8789 16.6544 24.9197C16.5443 24.9607 16.4269 24.9786 16.3096 24.9723H14.6086C14.6086 24.9723 13.7772 24.9533 13.7772 24.1681V23.0434H10.2618C10.2618 23.0434 8.59875 23.0359 8.59875 21.2739C8.59691 21.0541 8.63878 20.836 8.72166 20.6325C8.80454 20.429 8.92681 20.244 9.08156 20.0884C9.23632 19.9327 9.42044 19.8095 9.62306 19.7259C9.82572 19.6422 10.0427 19.5998 10.2618 19.6011H17.4625C17.4625 19.6011 19.1069 19.6656 19.1069 17.8639C19.1069 16.9535 18.6721 16.0299 17.3303 16.0299H2.02185C2.02185 16.0299 0.169682 16.0033 -0.000410744 19.0872C-0.0382092 20.0734 0.0185624 20.8984 0.547741 21.4351C1.07692 21.9719 5.00789 25.9376 5.00789 25.9376C5.00789 25.9376 5.8395 26.7417 7.97511 26.7417H18.8422C18.8422 26.7417 25.8916 26.8726 25.8916 19.7624V18.8293ZM5.08356 7.91263V13.1566C5.08356 13.1566 5.0458 14.4311 6.82233 13.3159C7.4838 12.9271 8.48538 12.3923 8.44759 10.0045V8.00935C8.44759 8.00935 8.40971 3.69847 13.2857 3.69847H13.7772V2.6383C13.7734 2.52125 13.794 2.40467 13.8375 2.29604C13.8812 2.18742 13.9469 2.0891 14.0304 2.00737C14.114 1.92564 14.2136 1.86231 14.323 1.82137C14.4323 1.78044 14.549 1.76282 14.6655 1.76966H16.3664C16.3664 1.76966 17.1979 1.78861 17.1979 2.57379V3.69847H20.7321C20.7321 3.69847 22.3952 3.70604 22.3952 5.46796C22.397 5.68782 22.3554 5.90586 22.2725 6.10939C22.1896 6.31292 22.0672 6.49789 21.9123 6.65354C21.7576 6.80919 21.5737 6.93241 21.371 7.01605C21.1684 7.09968 20.9512 7.14208 20.7321 7.14074H13.5125C13.5125 7.14074 11.8873 7.07626 11.8873 8.878C11.8873 9.78832 12.303 10.712 13.6449 10.712H28.9533C28.9533 10.712 30.8054 10.7385 30.9755 7.6547C31.0134 6.66848 30.9565 5.84348 30.4273 5.30675C29.917 4.77192 25.986 0.804307 25.986 0.804307C25.986 0.804307 25.1357 0.000164912 23.0001 0.000164912H12.1329C12.1329 0.000164912 5.08356 -0.130688 5.08356 6.97954V7.91263Z" fill="#01D676"/>
</g>
<defs>
<clipPath id="clip0_1745_131">
<rect width="132.753" height="17.191" fill="white" transform="translate(37.248 4.77539)"/>
</clipPath>
<clipPath id="clip1_1745_131">
<rect width="31.5169" height="26.7416" fill="white"/>
</clipPath>
</defs>
</svg>
