<svg width="171" height="51" viewBox="0 0 171 51" fill="none" xmlns="http://www.w3.org/2000/svg">
<path d="M84.5893 30.9335V34.9842H67.6035V30.9335L78.1439 20.4397H67.7466V16.4102H84.4803V20.4397L74.0899 30.9335H84.5893Z" fill="#242833"/>
<path d="M86.7988 30.0579C86.7988 27.0847 88.0728 25.1609 92.74 24.3283L97.0188 23.5867C98.6813 23.2929 99.2604 22.8033 99.2604 21.7259C99.2604 20.4247 98.5382 19.5711 96.1126 19.5711C93.6871 19.5711 92.4879 20.5785 92.4197 22.4745H87.1667C87.3098 18.4938 90.4985 15.7793 96.024 15.7793C101.55 15.7793 104.2 18.1929 104.2 22.1386V30.1699C104.201 31.7859 104.299 33.4004 104.493 35.004H99.8191C99.6248 33.6867 99.529 32.3559 99.533 31.0233C98.6949 33.5909 96.5214 35.4867 92.8286 35.4867C89.1358 35.4867 86.7988 33.409 86.7988 30.0579ZM99.2604 26.1543V25.3357C98.3611 25.9391 97.3495 26.3439 96.2898 26.525L94.7704 26.8957C92.849 27.3785 92.0928 28.0852 92.0928 29.4983C92.0928 30.9114 93.1761 31.73 94.6273 31.73C97.4549 31.73 99.2604 29.6102 99.2604 26.1543Z" fill="#242833"/>
<path d="M125.798 16.4102L119.496 35.0052H111.961L105.672 16.4102H111.122L115.892 30.7307L120.661 16.4102H125.798Z" fill="#242833"/>
<path d="M148.058 16.4102L141.783 35.0052H134.22L127.918 16.4102H133.369L138.138 30.7307L142.907 16.4102H148.058Z" fill="#242833"/>
<path d="M170.446 16.4102L164.11 35.5649C162.625 40.1052 161.064 42.4488 155.845 42.4488H151.321V38.0973H158.311L159.504 34.6694H156.431L150.23 16.4102H155.682L159.668 28.0163L160.608 31.0666L161.446 28.0163L165.317 16.4102H170.446Z" fill="#242833"/>
<path d="M49.4879 32.3151H31.337L46.8443 16.3854C47.8767 15.3283 48.6437 14.0295 49.0791 12.6007V12.5587C49.1199 12.4328 49.154 12.3069 49.188 12.1809C49.1849 12.1601 49.1849 12.1388 49.188 12.118C49.2217 11.9936 49.2491 11.8675 49.2699 11.7402V11.6632C49.2699 11.5373 49.3175 11.4044 49.3379 11.2715C49.3379 11.2715 49.3379 11.2365 49.3379 11.2155C49.3379 11.0616 49.3788 10.9147 49.3924 10.7608C49.4572 10.1352 49.4572 9.50442 49.3924 8.87889V8.75296C49.3924 8.64801 49.3924 8.53608 49.3924 8.43115C49.3924 8.3262 49.3924 8.30522 49.3924 8.24225L49.3516 7.99041C49.3516 7.91346 49.3516 7.84349 49.3039 7.76654C49.2561 7.68958 49.3039 7.61963 49.2493 7.54966C49.1948 7.4797 49.2153 7.39575 49.1948 7.3188L49.1199 7.12991C49.1199 7.05996 49.0791 6.98999 49.0519 6.91304C49.0245 6.83608 49.0041 6.77313 48.9837 6.69617C48.9632 6.61922 48.936 6.56325 48.9088 6.50028L48.8201 6.26942C48.8201 6.21346 48.7725 6.15049 48.7451 6.09453C48.7179 6.03856 48.677 5.93361 48.6362 5.84967C48.5953 5.76572 48.5885 5.75172 48.5681 5.69575C48.5477 5.63979 48.4795 5.52786 48.4386 5.43691L48.3636 5.31099C48.3159 5.22004 48.2683 5.12908 48.2138 5.04515L48.1456 4.9262L47.9821 4.66037L47.9004 4.54144L47.73 4.29658L47.621 4.15666L47.4574 3.93979L47.3075 3.75789L47.1712 3.59699C46.9669 3.36379 46.7557 3.14693 46.5377 2.94637L46.3741 2.80646L46.2038 2.65255L45.9858 2.47765L45.8563 2.37272L45.6111 2.19782L45.4952 2.11387L45.2431 1.94596L45.1273 1.86901L44.8684 1.7151L44.739 1.64514L44.4868 1.51222L44.3437 1.44226L44.0985 1.32333L43.935 1.25337L43.6692 1.14144L43.4853 1.06448L43.2672 0.987528L43.0629 0.924564L42.8653 0.833619H42.654L42.4292 0.784647L42.2248 0.735677L41.9728 0.686706H41.7955L41.4686 0.64473H41.3595C41.0381 0.610968 40.7152 0.594622 40.3921 0.595759H0.445312V19.0999H18.6029L3.09571 35.0225C2.16648 35.973 1.45236 37.1219 1.00401 38.3875C0.969941 38.5064 0.92906 38.6184 0.894994 38.7373C0.880627 38.7688 0.86922 38.8016 0.860927 38.8352L0.7451 39.1711V39.3109C0.7451 39.3949 0.704221 39.4789 0.690594 39.5628C0.676967 39.6468 0.656528 39.6958 0.642901 39.7657C0.629274 39.8356 0.642901 39.9126 0.642901 39.9826L0.602021 40.2204V40.4163C0.602021 40.5003 0.60202 40.5912 0.567953 40.6752C0.533886 40.7592 0.567953 40.7871 0.567953 40.843C0.567953 41.088 0.567953 41.3397 0.567953 41.5916C0.562393 44.0363 1.49688 46.3843 3.16824 48.1254C4.83961 49.8665 7.11274 50.8597 9.49345 50.8892H49.5015L49.4879 32.3151Z" fill="url(#paint0_linear_1743_18)"/>
<path d="M18.5347 0.537109H0.445312V19.1112H18.5347V0.537109Z" fill="#6A35FF"/>
<path d="M31.4062 50.9072L49.5025 50.9002L49.4957 32.3262L31.4062 50.9072Z" fill="#B4A0FF"/>
<path d="M40.4544 19.1181C45.4515 19.1181 49.5025 14.9586 49.5025 9.82764C49.5025 4.69663 45.4515 0.537109 40.4544 0.537109C35.4572 0.537109 31.4062 4.69663 31.4062 9.82764C31.4062 14.9586 35.4572 19.1181 40.4544 19.1181Z" fill="#00D2C8"/>
<path d="M9.49345 50.9072C14.4906 50.9072 18.5415 46.7477 18.5415 41.6167C18.5415 36.4856 14.4906 32.3262 9.49345 32.3262C4.4963 32.3262 0.445312 36.4856 0.445312 41.6167C0.445312 46.7477 4.4963 50.9072 9.49345 50.9072Z" fill="#00AAFF"/>
<defs>
<linearGradient id="paint0_linear_1743_18" x1="3.0889" y1="48.1678" x2="48.0008" y2="4.42769" gradientUnits="userSpaceOnUse">
<stop stop-color="#9BA5FF"/>
<stop offset="0.16" stop-color="#9BA5FF" stop-opacity="0.76"/>
<stop offset="0.32" stop-color="#9BA5FF" stop-opacity="0.53"/>
<stop offset="0.49" stop-color="#9BA5FF" stop-opacity="0.34"/>
<stop offset="0.64" stop-color="#9BA5FF" stop-opacity="0.19"/>
<stop offset="0.78" stop-color="#9BA5FF" stop-opacity="0.09"/>
<stop offset="0.91" stop-color="#9BA5FF" stop-opacity="0.02"/>
<stop offset="1" stop-color="#9BA5FF" stop-opacity="0"/>
</linearGradient>
</defs>
</svg>
