<svg width="170" height="26" viewBox="0 0 170 26" fill="none" xmlns="http://www.w3.org/2000/svg">
<path d="M30.0162 9.81753L19.558 0.490147C17.7125 1.29668 16.1681 2.65083 15.1401 4.36389C15.1386 4.38148 15.1386 4.39919 15.1401 4.41678C15.1401 4.41678 15.1401 4.41678 15.1066 4.36389C14.7379 3.7359 11.0842 -2.18049 4.54115 0.866945C-1.90806 3.85489 -1.1103 11.8998 4.55458 17.2477C9.75689 22.1527 13.8932 25.5835 15.0999 26C16.3067 25.5835 20.4631 22.1527 25.652 17.2477C27.8375 15.266 29.3577 12.6739 30.0095 9.81753H30.0162Z" fill="#EB3656"/>
<path d="M27.1752 11.4768C22.863 11.6882 19.3233 8.21252 18.9925 2.42619L20.535 2.35059C20.648 4.2991 21.3979 6.13594 22.6204 7.45834C23.843 8.78077 25.4383 9.48093 27.0568 9.4053C27.6933 9.37113 28.3188 9.21901 28.9114 8.95429L29.5514 10.8964C28.793 11.239 27.9911 11.4349 27.1752 11.4768Z" fill="#8E243F"/>
<path d="M19.5515 0.446777C19.431 1.00314 19.3681 1.57016 19.3638 2.13907C19.3595 3.40634 19.6602 4.65658 20.2414 5.78686C20.8226 6.91717 21.6677 7.89531 22.707 8.64072C23.7463 9.38614 24.9504 9.87749 26.2199 10.0746C27.4895 10.2717 28.7884 10.1687 30.0097 9.77414L19.5515 0.446777Z" fill="#F49D9A"/>
<path d="M49.7338 12.9773C49.7338 8.33766 46.8124 5.69238 42.9989 5.69238C39.1646 5.69238 36.2642 8.33766 36.2642 12.9773C36.2642 17.596 39.1646 20.2621 42.9989 20.2621C46.8124 20.2621 49.7338 17.6168 49.7338 12.9773ZM46.6509 12.9773C46.6509 15.9826 45.2039 17.6099 42.9989 17.6099C40.7868 17.6099 39.3471 15.9826 39.3471 12.9773C39.3471 9.9719 40.7868 8.34454 42.9989 8.34454C45.2039 8.34454 46.6509 9.9719 46.6509 12.9773ZM54.2889 13.919C54.2959 12.5479 55.1244 11.7446 56.3324 11.7446C57.5334 11.7446 58.2568 12.5202 58.2498 13.822V20.0681H61.2413V13.2957C61.2413 10.8167 59.7664 9.29328 57.5193 9.29328C55.9184 9.29328 54.7594 10.0689 54.2749 11.3084H54.1484V9.43178H51.2974V20.0681H54.2889V13.919ZM67.8823 20.2759C70.5508 20.2759 72.3486 18.9949 72.7698 17.0212L70.0033 16.8412C69.7013 17.6514 68.9287 18.0738 67.9314 18.0738C66.4354 18.0738 65.4874 17.0974 65.4874 15.5117V15.5047H72.8332V14.6946C72.8332 11.0798 70.6138 9.29328 67.7628 9.29328C64.5884 9.29328 62.5309 11.5161 62.5309 14.7984C62.5309 18.1708 64.5604 20.2759 67.8823 20.2759ZM65.4874 13.6766C65.5508 12.4648 66.4848 11.4953 67.8119 11.4953C69.1113 11.4953 70.0103 12.4094 70.0173 13.6766H65.4874ZM78.1527 20.0681H81.1939V15.4702H83.7498C87.0578 15.4702 88.9819 13.5243 88.9819 10.6921C88.9819 7.87374 87.0927 5.88629 83.8274 5.88629H78.1527V20.0681ZM81.1939 13.0672V8.33766H83.2446C85 8.33766 85.8496 9.27939 85.8496 10.6921C85.8496 12.0978 85 13.0672 83.2581 13.0672H81.1939ZM93.0548 20.269C94.6487 20.269 95.6811 19.5834 96.2077 18.5932H96.2917V20.0681H99.1293V12.8941C99.1293 10.3597 96.952 9.29328 94.5498 9.29328C91.9661 9.29328 90.2662 10.512 89.8521 12.451L92.6193 12.6725C92.8228 11.9662 93.4618 11.4469 94.5362 11.4469C95.5545 11.4469 96.1372 11.9523 96.1372 12.8249V12.8664C96.1372 13.552 95.4001 13.642 93.5251 13.822C91.3898 14.016 89.4728 14.7223 89.4728 17.0974C89.4728 19.2025 90.9963 20.269 93.0548 20.269ZM93.9108 18.2331C92.9908 18.2331 92.3311 17.8107 92.3311 17.0006C92.3311 16.1695 93.0263 15.761 94.0794 15.6155C94.7326 15.5255 95.8007 15.3732 96.1586 15.1377V16.2664C96.1586 17.3814 95.2243 18.2331 93.9108 18.2331ZM105.677 24.2784C108.759 24.2784 110.951 22.8935 110.951 20.1721V9.43178H107.98V11.2183H107.868C107.468 10.3527 106.59 9.29328 104.785 9.29328C102.418 9.29328 100.417 11.1076 100.417 14.7292C100.417 18.2678 102.363 19.9158 104.792 19.9158C106.512 19.9158 107.475 19.064 107.868 18.1846H107.995V20.1305C107.995 21.5916 107.046 22.1594 105.747 22.1594C104.427 22.1594 103.76 21.5916 103.514 20.9476L100.747 21.3146C101.105 22.9904 102.77 24.2784 105.677 24.2784ZM105.74 17.6999C104.272 17.6999 103.472 16.5504 103.472 14.7153C103.472 12.908 104.258 11.6407 105.74 11.6407C107.194 11.6407 108.008 12.8526 108.008 14.7153C108.008 16.5919 107.18 17.6999 105.74 17.6999ZM117.615 20.2759C120.283 20.2759 122.081 18.9949 122.502 17.0212L119.735 16.8412C119.433 17.6514 118.661 18.0738 117.664 18.0738C116.168 18.0738 115.22 17.0974 115.22 15.5117V15.5047H122.566V14.6946C122.566 11.0798 120.346 9.29328 117.495 9.29328C114.321 9.29328 112.263 11.5161 112.263 14.7984C112.263 18.1708 114.293 20.2759 117.615 20.2759ZM115.22 13.6766C115.283 12.4648 116.217 11.4953 117.544 11.4953C118.844 11.4953 119.742 12.4094 119.749 13.6766H115.22ZM127.885 20.0681H137.092V17.596H130.926V5.88629H127.885V20.0681ZM143.29 20.2759C146.564 20.2759 148.6 18.067 148.6 14.7915C148.6 11.4953 146.564 9.29328 143.29 9.29328C140.018 9.29328 137.982 11.4953 137.982 14.7915C137.982 18.067 140.018 20.2759 143.29 20.2759ZM143.305 17.9908C141.795 17.9908 141.023 16.6266 141.023 14.7707C141.023 12.9149 141.795 11.5438 143.305 11.5438C144.786 11.5438 145.559 12.9149 145.559 14.7707C145.559 16.6266 144.786 17.9908 143.305 17.9908ZM159.602 9.43178H156.434L154.201 17.042H154.089L151.849 9.43178H148.688L152.46 20.0681H155.83L159.602 9.43178ZM165.049 20.2759C167.717 20.2759 169.515 18.9949 169.937 17.0212L167.17 16.8412C166.868 17.6514 166.096 18.0738 165.098 18.0738C163.602 18.0738 162.654 17.0974 162.654 15.5117V15.5047H170V14.6946C170 11.0798 167.781 9.29328 164.929 9.29328C161.755 9.29328 159.697 11.5161 159.697 14.7984C159.697 18.1708 161.727 20.2759 165.049 20.2759ZM162.654 13.6766C162.717 12.4648 163.652 11.4953 164.979 11.4953C166.278 11.4953 167.177 12.4094 167.184 13.6766H162.654Z" fill="#161515"/>
</svg>
