<svg width="443" height="406" viewBox="0 0 443 406" fill="none" xmlns="http://www.w3.org/2000/svg">
<path d="M0 10C0 4.47715 4.47715 0 10 0H433C438.523 0 443 4.47715 443 10V396C443 401.523 438.523 406 433 406H10C4.47715 406 0 401.523 0 396V10Z" fill="white"/>
<path d="M39.0568 86V77.2727H44.3239V78.2102H40.1136V81.1591H44.0511V82.0966H40.1136V85.0625H44.392V86H39.0568ZM45.9723 86V79.4545H46.9439V80.4773H47.0291C47.1655 80.1278 47.3857 79.8565 47.6897 79.6634C47.9936 79.4673 48.3587 79.3693 48.7848 79.3693C49.2166 79.3693 49.576 79.4673 49.863 79.6634C50.1527 79.8565 50.3786 80.1278 50.5405 80.4773H50.6087C50.7763 80.1392 51.0277 79.8707 51.363 79.6719C51.6982 79.4702 52.1002 79.3693 52.5689 79.3693C53.1541 79.3693 53.6328 79.5526 54.005 79.919C54.3772 80.2827 54.5632 80.8494 54.5632 81.6193V86H53.5576V81.6193C53.5576 81.1364 53.4255 80.7912 53.1613 80.5838C52.897 80.3764 52.586 80.2727 52.228 80.2727C51.7678 80.2727 51.4113 80.4119 51.1584 80.6903C50.9056 80.9659 50.7791 81.3153 50.7791 81.7386V86H49.7564V81.517C49.7564 81.1449 49.6357 80.8452 49.3942 80.6179C49.1527 80.3878 48.8416 80.2727 48.461 80.2727C48.1996 80.2727 47.9553 80.3423 47.728 80.4815C47.5036 80.6207 47.3218 80.8139 47.1826 81.0611C47.0462 81.3054 46.978 81.5881 46.978 81.9091V86H45.9723ZM58.2082 86.1534C57.7934 86.1534 57.417 86.0753 57.0789 85.919C56.7408 85.7599 56.4724 85.5312 56.2735 85.233C56.0746 84.9318 55.9752 84.5682 55.9752 84.142C55.9752 83.767 56.0491 83.4631 56.1968 83.2301C56.3445 82.9943 56.542 82.8097 56.7891 82.6761C57.0363 82.5426 57.309 82.4432 57.6073 82.3778C57.9084 82.3097 58.211 82.2557 58.515 82.2159C58.9127 82.1648 59.2351 82.1264 59.4823 82.1009C59.7323 82.0724 59.9141 82.0256 60.0278 81.9602C60.1442 81.8949 60.2025 81.7812 60.2025 81.6193V81.5852C60.2025 81.1648 60.0874 80.8381 59.8573 80.6051C59.63 80.3722 59.2849 80.2557 58.8218 80.2557C58.3417 80.2557 57.9653 80.3608 57.6925 80.571C57.4198 80.7812 57.228 81.0057 57.1172 81.2443L56.1627 80.9034C56.3332 80.5057 56.5604 80.196 56.8445 79.9744C57.1314 79.75 57.4439 79.5937 57.782 79.5057C58.1229 79.4148 58.4582 79.3693 58.7877 79.3693C58.9979 79.3693 59.2394 79.3949 59.5121 79.446C59.7877 79.4943 60.0533 79.5952 60.309 79.7486C60.5675 79.902 60.782 80.1335 60.9525 80.4432C61.1229 80.7528 61.2082 81.1676 61.2082 81.6875V86H60.2025V85.1136H60.1513C60.0832 85.2557 59.9695 85.4077 59.8104 85.5696C59.6513 85.7315 59.4397 85.8693 59.1755 85.983C58.9113 86.0966 58.5888 86.1534 58.2082 86.1534ZM58.3616 85.25C58.7593 85.25 59.0945 85.1719 59.3672 85.0156C59.6428 84.8594 59.8502 84.6577 59.9894 84.4105C60.1314 84.1634 60.2025 83.9034 60.2025 83.6307V82.7102C60.1599 82.7614 60.0661 82.8082 59.9212 82.8509C59.7792 82.8906 59.6144 82.9261 59.4269 82.9574C59.2422 82.9858 59.0618 83.0114 58.8857 83.0341C58.7124 83.054 58.5718 83.071 58.4638 83.0852C58.2025 83.1193 57.9582 83.1747 57.7309 83.2514C57.5064 83.3253 57.3246 83.4375 57.1854 83.5881C57.0491 83.7358 56.9809 83.9375 56.9809 84.1932C56.9809 84.5426 57.1101 84.8068 57.3687 84.9858C57.63 85.1619 57.961 85.25 58.3616 85.25ZM62.9237 86V79.4545H63.9294V86H62.9237ZM63.4351 78.3636C63.2391 78.3636 63.07 78.2969 62.928 78.1634C62.7888 78.0298 62.7192 77.8693 62.7192 77.6818C62.7192 77.4943 62.7888 77.3338 62.928 77.2003C63.07 77.0668 63.2391 77 63.4351 77C63.6311 77 63.7987 77.0668 63.9379 77.2003C64.08 77.3338 64.151 77.4943 64.151 77.6818C64.151 77.8693 64.08 78.0298 63.9379 78.1634C63.7987 78.2969 63.6311 78.3636 63.4351 78.3636ZM66.6571 77.2727V86H65.6514V77.2727H66.6571Z" fill="#0E0B3D"/>
<rect x="38" y="95" width="367" height="32" rx="6" fill="#F7F9FC"/>
<g clip-path="url(#clip0_198_9694)">
<path d="M53.6648 115.636C53.0341 115.636 52.4901 115.497 52.0327 115.219C51.5781 114.938 51.2273 114.545 50.9801 114.043C50.7358 113.537 50.6136 112.949 50.6136 112.278C50.6136 111.608 50.7358 111.017 50.9801 110.506C51.2273 109.991 51.571 109.591 52.0114 109.304C52.4545 109.014 52.9716 108.869 53.5625 108.869C53.9034 108.869 54.2401 108.926 54.5724 109.04C54.9048 109.153 55.2074 109.338 55.4801 109.594C55.7528 109.847 55.9702 110.182 56.1321 110.599C56.294 111.017 56.375 111.531 56.375 112.142V112.568H51.3295V111.699H55.3523C55.3523 111.33 55.2784 111 55.1307 110.71C54.9858 110.42 54.7784 110.192 54.5085 110.024C54.2415 109.857 53.9261 109.773 53.5625 109.773C53.1619 109.773 52.8153 109.872 52.5227 110.071C52.233 110.267 52.0099 110.523 51.8537 110.838C51.6974 111.153 51.6193 111.491 51.6193 111.852V112.432C51.6193 112.926 51.7045 113.345 51.875 113.689C52.0483 114.03 52.2884 114.29 52.5952 114.469C52.902 114.645 53.2585 114.733 53.6648 114.733C53.929 114.733 54.1676 114.696 54.3807 114.622C54.5966 114.545 54.7827 114.432 54.9389 114.281C55.0952 114.128 55.2159 113.937 55.3011 113.71L56.2727 113.983C56.1705 114.312 55.9986 114.602 55.7571 114.852C55.5156 115.099 55.2173 115.293 54.8622 115.432C54.5071 115.568 54.108 115.636 53.6648 115.636ZM58.359 108.955L59.9272 111.631L61.4954 108.955H62.6545L60.5409 112.227L62.6545 115.5H61.4954L59.9272 112.96L58.359 115.5H57.2L59.2795 112.227L57.2 108.955H58.359ZM65.8957 115.653C65.4809 115.653 65.1045 115.575 64.7664 115.419C64.4283 115.26 64.1599 115.031 63.961 114.733C63.7621 114.432 63.6627 114.068 63.6627 113.642C63.6627 113.267 63.7366 112.963 63.8843 112.73C64.032 112.494 64.2295 112.31 64.4766 112.176C64.7238 112.043 64.9965 111.943 65.2948 111.878C65.5959 111.81 65.8985 111.756 66.2025 111.716C66.6002 111.665 66.9226 111.626 67.1698 111.601C67.4198 111.572 67.6016 111.526 67.7153 111.46C67.8317 111.395 67.89 111.281 67.89 111.119V111.085C67.89 110.665 67.7749 110.338 67.5448 110.105C67.3175 109.872 66.9724 109.756 66.5093 109.756C66.0292 109.756 65.6528 109.861 65.38 110.071C65.1073 110.281 64.9155 110.506 64.8047 110.744L63.8502 110.403C64.0207 110.006 64.2479 109.696 64.532 109.474C64.8189 109.25 65.1314 109.094 65.4695 109.006C65.8104 108.915 66.1457 108.869 66.4752 108.869C66.6854 108.869 66.9269 108.895 67.1996 108.946C67.4752 108.994 67.7408 109.095 67.9965 109.249C68.255 109.402 68.4695 109.634 68.64 109.943C68.8104 110.253 68.8957 110.668 68.8957 111.188V115.5H67.89V114.614H67.8388C67.7707 114.756 67.657 114.908 67.4979 115.07C67.3388 115.232 67.1272 115.369 66.863 115.483C66.5988 115.597 66.2763 115.653 65.8957 115.653ZM66.0491 114.75C66.4468 114.75 66.782 114.672 67.0547 114.516C67.3303 114.359 67.5377 114.158 67.6769 113.911C67.8189 113.663 67.89 113.403 67.89 113.131V112.21C67.8474 112.261 67.7536 112.308 67.6087 112.351C67.4667 112.391 67.3019 112.426 67.1144 112.457C66.9297 112.486 66.7493 112.511 66.5732 112.534C66.3999 112.554 66.2593 112.571 66.1513 112.585C65.89 112.619 65.6457 112.675 65.4184 112.751C65.1939 112.825 65.0121 112.937 64.8729 113.088C64.7366 113.236 64.6684 113.437 64.6684 113.693C64.6684 114.043 64.7976 114.307 65.0562 114.486C65.3175 114.662 65.6485 114.75 66.0491 114.75ZM70.6112 115.5V108.955H71.5828V109.977H71.6681C71.8044 109.628 72.0246 109.357 72.3286 109.163C72.6325 108.967 72.9976 108.869 73.4237 108.869C73.8556 108.869 74.2149 108.967 74.5019 109.163C74.7916 109.357 75.0175 109.628 75.1794 109.977H75.2476C75.4152 109.639 75.6666 109.371 76.0019 109.172C76.3371 108.97 76.7391 108.869 77.2078 108.869C77.7931 108.869 78.2717 109.053 78.6439 109.419C79.0161 109.783 79.2021 110.349 79.2021 111.119V115.5H78.1965V111.119C78.1965 110.636 78.0644 110.291 77.8002 110.084C77.536 109.876 77.2249 109.773 76.8669 109.773C76.4067 109.773 76.0502 109.912 75.7973 110.19C75.5445 110.466 75.4181 110.815 75.4181 111.239V115.5H74.3953V111.017C74.3953 110.645 74.2746 110.345 74.0331 110.118C73.7916 109.888 73.4806 109.773 73.0999 109.773C72.8385 109.773 72.5942 109.842 72.3669 109.982C72.1425 110.121 71.9607 110.314 71.8215 110.561C71.6851 110.805 71.6169 111.088 71.6169 111.409V115.5H70.6112ZM80.9209 117.955V108.955H81.8925V109.994H82.0118C82.0857 109.881 82.188 109.736 82.3187 109.56C82.4522 109.381 82.6425 109.222 82.8897 109.082C83.1397 108.94 83.4777 108.869 83.9039 108.869C84.455 108.869 84.9408 109.007 85.3613 109.283C85.7817 109.558 86.1098 109.949 86.3456 110.455C86.5814 110.96 86.6993 111.557 86.6993 112.244C86.6993 112.938 86.5814 113.538 86.3456 114.047C86.1098 114.553 85.7831 114.945 85.3655 115.223C84.9479 115.499 84.4664 115.636 83.9209 115.636C83.5005 115.636 83.1638 115.567 82.911 115.428C82.6581 115.286 82.4635 115.125 82.3272 114.946C82.1908 114.764 82.0857 114.614 82.0118 114.494H81.9266V117.955H80.9209ZM81.9096 112.227C81.9096 112.722 81.982 113.158 82.1269 113.536C82.2718 113.911 82.4834 114.205 82.7618 114.418C83.0402 114.628 83.3812 114.733 83.7846 114.733C84.205 114.733 84.5559 114.622 84.8371 114.401C85.1212 114.176 85.3343 113.875 85.4763 113.497C85.6212 113.116 85.6937 112.693 85.6937 112.227C85.6937 111.767 85.6226 111.352 85.4806 110.983C85.3414 110.611 85.1297 110.317 84.8456 110.101C84.5644 109.882 84.2107 109.773 83.7846 109.773C83.3755 109.773 83.0317 109.876 82.7533 110.084C82.4749 110.288 82.2647 110.575 82.1226 110.945C81.9806 111.311 81.9096 111.739 81.9096 112.227ZM89.1191 106.773V115.5H88.1134V106.773H89.1191ZM93.5854 115.636C92.9547 115.636 92.4107 115.497 91.9533 115.219C91.4987 114.938 91.1479 114.545 90.9007 114.043C90.6564 113.537 90.5343 112.949 90.5343 112.278C90.5343 111.608 90.6564 111.017 90.9007 110.506C91.1479 109.991 91.4916 109.591 91.932 109.304C92.3752 109.014 92.8922 108.869 93.4831 108.869C93.824 108.869 94.1607 108.926 94.4931 109.04C94.8255 109.153 95.128 109.338 95.4007 109.594C95.6735 109.847 95.8908 110.182 96.0527 110.599C96.2147 111.017 96.2956 111.531 96.2956 112.142V112.568H91.2502V111.699H95.2729C95.2729 111.33 95.199 111 95.0513 110.71C94.9064 110.42 94.699 110.192 94.4291 110.024C94.1621 109.857 93.8468 109.773 93.4831 109.773C93.0826 109.773 92.736 109.872 92.4434 110.071C92.1536 110.267 91.9306 110.523 91.7743 110.838C91.6181 111.153 91.5399 111.491 91.5399 111.852V112.432C91.5399 112.926 91.6252 113.345 91.7956 113.689C91.9689 114.03 92.209 114.29 92.5158 114.469C92.8226 114.645 93.1791 114.733 93.5854 114.733C93.8496 114.733 94.0882 114.696 94.3013 114.622C94.5172 114.545 94.7033 114.432 94.8595 114.281C95.0158 114.128 95.1365 113.937 95.2218 113.71L96.1934 113.983C96.0911 114.312 95.9192 114.602 95.6777 114.852C95.4362 115.099 95.138 115.293 94.7828 115.432C94.4277 115.568 94.0286 115.636 93.5854 115.636ZM102.734 117.801C101.865 117.801 101.096 117.682 100.428 117.443C99.7609 117.207 99.1998 116.859 98.7452 116.399C98.2907 115.939 97.9469 115.375 97.714 114.707C97.481 114.04 97.3645 113.276 97.3645 112.415C97.3645 111.582 97.4824 110.838 97.7182 110.182C97.9569 109.526 98.302 108.969 98.7537 108.511C99.2083 108.051 99.7594 107.7 100.407 107.459C101.058 107.217 101.794 107.097 102.615 107.097C103.413 107.097 104.112 107.227 104.711 107.489C105.313 107.747 105.816 108.098 106.22 108.541C106.626 108.982 106.93 109.477 107.132 110.028C107.336 110.58 107.438 111.148 107.438 111.733C107.438 112.145 107.419 112.562 107.379 112.986C107.339 113.409 107.255 113.798 107.127 114.153C106.999 114.506 106.802 114.79 106.535 115.006C106.271 115.222 105.913 115.33 105.461 115.33C105.262 115.33 105.044 115.298 104.805 115.236C104.566 115.173 104.355 115.07 104.17 114.925C103.985 114.78 103.876 114.585 103.842 114.341H103.791C103.723 114.506 103.617 114.662 103.475 114.81C103.336 114.957 103.153 115.075 102.926 115.163C102.701 115.251 102.427 115.29 102.103 115.278C101.734 115.264 101.409 115.182 101.127 115.031C100.846 114.878 100.61 114.67 100.42 114.409C100.232 114.145 100.09 113.839 99.9938 113.493C99.9001 113.143 99.8532 112.767 99.8532 112.364C99.8532 111.98 99.91 111.629 100.024 111.311C100.137 110.993 100.295 110.714 100.497 110.476C100.701 110.237 100.94 110.047 101.213 109.905C101.488 109.76 101.785 109.67 102.103 109.636C102.387 109.608 102.646 109.621 102.879 109.675C103.112 109.726 103.303 109.804 103.454 109.909C103.605 110.011 103.7 110.125 103.74 110.25H103.791V109.773H104.694V113.625C104.694 113.864 104.761 114.074 104.894 114.256C105.028 114.437 105.223 114.528 105.478 114.528C105.768 114.528 105.99 114.429 106.143 114.23C106.299 114.031 106.406 113.724 106.463 113.31C106.522 112.895 106.552 112.364 106.552 111.716C106.552 111.335 106.499 110.96 106.394 110.591C106.292 110.219 106.136 109.871 105.926 109.547C105.718 109.223 105.455 108.937 105.137 108.69C104.819 108.443 104.446 108.25 104.017 108.111C103.59 107.969 103.106 107.898 102.563 107.898C101.896 107.898 101.298 108.001 100.769 108.209C100.244 108.413 99.7964 108.713 99.427 109.108C99.0606 109.5 98.7807 109.977 98.5876 110.54C98.3972 111.099 98.302 111.736 98.302 112.449C98.302 113.173 98.3972 113.817 98.5876 114.379C98.7807 114.942 99.0648 115.416 99.4398 115.803C99.8177 116.189 100.285 116.482 100.842 116.68C101.399 116.882 102.041 116.983 102.768 116.983C103.08 116.983 103.389 116.953 103.693 116.893C103.997 116.834 104.265 116.768 104.498 116.697C104.731 116.626 104.899 116.574 105.001 116.54L105.24 117.324C105.063 117.398 104.833 117.472 104.549 117.545C104.268 117.619 103.967 117.68 103.646 117.729C103.328 117.777 103.024 117.801 102.734 117.801ZM102.24 114.409C102.62 114.409 102.928 114.332 103.164 114.179C103.4 114.026 103.572 113.794 103.68 113.484C103.788 113.175 103.842 112.784 103.842 112.312C103.842 111.835 103.782 111.463 103.663 111.196C103.544 110.929 103.367 110.741 103.134 110.634C102.901 110.526 102.615 110.472 102.274 110.472C101.95 110.472 101.673 110.557 101.443 110.727C101.215 110.895 101.041 111.119 100.919 111.401C100.799 111.679 100.74 111.983 100.74 112.312C100.74 112.676 100.788 113.018 100.884 113.339C100.981 113.658 101.139 113.916 101.357 114.115C101.576 114.311 101.87 114.409 102.24 114.409ZM111.466 118.091C110.98 118.091 110.562 118.028 110.213 117.903C109.864 117.781 109.572 117.619 109.339 117.418C109.109 117.219 108.926 117.006 108.79 116.778L109.591 116.216C109.682 116.335 109.797 116.472 109.936 116.625C110.075 116.781 110.265 116.916 110.507 117.03C110.751 117.146 111.071 117.205 111.466 117.205C111.994 117.205 112.43 117.077 112.774 116.821C113.118 116.565 113.29 116.165 113.29 115.619V114.29H113.204C113.131 114.409 113.025 114.557 112.889 114.733C112.756 114.906 112.562 115.061 112.31 115.197C112.06 115.331 111.721 115.398 111.295 115.398C110.767 115.398 110.292 115.273 109.872 115.023C109.454 114.773 109.123 114.409 108.879 113.932C108.638 113.455 108.517 112.875 108.517 112.193C108.517 111.523 108.635 110.939 108.871 110.442C109.106 109.942 109.435 109.555 109.855 109.283C110.275 109.007 110.761 108.869 111.312 108.869C111.739 108.869 112.077 108.94 112.327 109.082C112.579 109.222 112.773 109.381 112.906 109.56C113.042 109.736 113.148 109.881 113.221 109.994H113.324V108.955H114.295V115.688C114.295 116.25 114.167 116.707 113.912 117.06C113.659 117.415 113.318 117.675 112.889 117.839C112.463 118.007 111.989 118.091 111.466 118.091ZM111.432 114.494C111.835 114.494 112.176 114.402 112.454 114.217C112.733 114.033 112.944 113.767 113.089 113.42C113.234 113.074 113.307 112.659 113.307 112.176C113.307 111.705 113.236 111.288 113.094 110.928C112.952 110.567 112.741 110.284 112.463 110.08C112.185 109.875 111.841 109.773 111.432 109.773C111.006 109.773 110.65 109.881 110.366 110.097C110.085 110.312 109.873 110.602 109.731 110.966C109.592 111.33 109.523 111.733 109.523 112.176C109.523 112.631 109.594 113.033 109.736 113.382C109.881 113.729 110.094 114.001 110.375 114.2C110.659 114.396 111.011 114.494 111.432 114.494ZM116.016 115.5V108.955H116.988V109.977H117.073C117.209 109.628 117.43 109.357 117.734 109.163C118.038 108.967 118.403 108.869 118.829 108.869C119.261 108.869 119.62 108.967 119.907 109.163C120.197 109.357 120.422 109.628 120.584 109.977H120.653C120.82 109.639 121.072 109.371 121.407 109.172C121.742 108.97 122.144 108.869 122.613 108.869C123.198 108.869 123.677 109.053 124.049 109.419C124.421 109.783 124.607 110.349 124.607 111.119V115.5H123.601V111.119C123.601 110.636 123.469 110.291 123.205 110.084C122.941 109.876 122.63 109.773 122.272 109.773C121.812 109.773 121.455 109.912 121.202 110.19C120.949 110.466 120.823 110.815 120.823 111.239V115.5H119.8V111.017C119.8 110.645 119.68 110.345 119.438 110.118C119.197 109.888 118.886 109.773 118.505 109.773C118.244 109.773 117.999 109.842 117.772 109.982C117.547 110.121 117.366 110.314 117.226 110.561C117.09 110.805 117.022 111.088 117.022 111.409V115.5H116.016ZM128.252 115.653C127.837 115.653 127.461 115.575 127.123 115.419C126.785 115.26 126.516 115.031 126.317 114.733C126.119 114.432 126.019 114.068 126.019 113.642C126.019 113.267 126.093 112.963 126.241 112.73C126.388 112.494 126.586 112.31 126.833 112.176C127.08 112.043 127.353 111.943 127.651 111.878C127.952 111.81 128.255 111.756 128.559 111.716C128.957 111.665 129.279 111.626 129.526 111.601C129.776 111.572 129.958 111.526 130.072 111.46C130.188 111.395 130.246 111.281 130.246 111.119V111.085C130.246 110.665 130.131 110.338 129.901 110.105C129.674 109.872 129.329 109.756 128.866 109.756C128.386 109.756 128.009 109.861 127.736 110.071C127.464 110.281 127.272 110.506 127.161 110.744L126.207 110.403C126.377 110.006 126.604 109.696 126.888 109.474C127.175 109.25 127.488 109.094 127.826 109.006C128.167 108.915 128.502 108.869 128.832 108.869C129.042 108.869 129.283 108.895 129.556 108.946C129.832 108.994 130.097 109.095 130.353 109.249C130.611 109.402 130.826 109.634 130.996 109.943C131.167 110.253 131.252 110.668 131.252 111.188V115.5H130.246V114.614H130.195C130.127 114.756 130.013 114.908 129.854 115.07C129.695 115.232 129.484 115.369 129.219 115.483C128.955 115.597 128.633 115.653 128.252 115.653ZM128.405 114.75C128.803 114.75 129.138 114.672 129.411 114.516C129.687 114.359 129.894 114.158 130.033 113.911C130.175 113.663 130.246 113.403 130.246 113.131V112.21C130.204 112.261 130.11 112.308 129.965 112.351C129.823 112.391 129.658 112.426 129.471 112.457C129.286 112.486 129.106 112.511 128.93 112.534C128.756 112.554 128.616 112.571 128.508 112.585C128.246 112.619 128.002 112.675 127.775 112.751C127.55 112.825 127.369 112.937 127.229 113.088C127.093 113.236 127.025 113.437 127.025 113.693C127.025 114.043 127.154 114.307 127.413 114.486C127.674 114.662 128.005 114.75 128.405 114.75ZM132.968 115.5V108.955H133.973V115.5H132.968ZM133.479 107.864C133.283 107.864 133.114 107.797 132.972 107.663C132.833 107.53 132.763 107.369 132.763 107.182C132.763 106.994 132.833 106.834 132.972 106.7C133.114 106.567 133.283 106.5 133.479 106.5C133.675 106.5 133.843 106.567 133.982 106.7C134.124 106.834 134.195 106.994 134.195 107.182C134.195 107.369 134.124 107.53 133.982 107.663C133.843 107.797 133.675 107.864 133.479 107.864ZM136.701 106.773V115.5H135.695V106.773H136.701ZM139.156 115.568C138.946 115.568 138.765 115.493 138.615 115.342C138.464 115.192 138.389 115.011 138.389 114.801C138.389 114.591 138.464 114.411 138.615 114.26C138.765 114.109 138.946 114.034 139.156 114.034C139.366 114.034 139.547 114.109 139.697 114.26C139.848 114.411 139.923 114.591 139.923 114.801C139.923 114.94 139.887 115.068 139.816 115.185C139.748 115.301 139.656 115.395 139.539 115.466C139.426 115.534 139.298 115.568 139.156 115.568ZM144.267 115.636C143.653 115.636 143.125 115.491 142.682 115.202C142.238 114.912 141.897 114.513 141.659 114.004C141.42 113.496 141.301 112.915 141.301 112.261C141.301 111.597 141.423 111.01 141.667 110.501C141.914 109.99 142.258 109.591 142.699 109.304C143.142 109.014 143.659 108.869 144.25 108.869C144.71 108.869 145.125 108.955 145.494 109.125C145.863 109.295 146.166 109.534 146.402 109.841C146.637 110.148 146.784 110.506 146.841 110.915H145.835C145.758 110.616 145.588 110.352 145.324 110.122C145.062 109.889 144.71 109.773 144.267 109.773C143.875 109.773 143.531 109.875 143.235 110.08C142.943 110.281 142.714 110.567 142.549 110.936C142.387 111.303 142.307 111.733 142.307 112.227C142.307 112.733 142.386 113.173 142.545 113.548C142.707 113.923 142.934 114.214 143.227 114.422C143.522 114.629 143.869 114.733 144.267 114.733C144.528 114.733 144.765 114.688 144.978 114.597C145.191 114.506 145.372 114.375 145.52 114.205C145.667 114.034 145.772 113.83 145.835 113.591H146.841C146.784 113.977 146.643 114.325 146.419 114.635C146.197 114.942 145.903 115.186 145.537 115.368C145.173 115.547 144.75 115.636 144.267 115.636ZM150.85 115.636C150.259 115.636 149.74 115.496 149.294 115.214C148.851 114.933 148.505 114.54 148.255 114.034C148.008 113.528 147.884 112.937 147.884 112.261C147.884 111.58 148.008 110.984 148.255 110.476C148.505 109.967 148.851 109.572 149.294 109.291C149.74 109.01 150.259 108.869 150.85 108.869C151.441 108.869 151.958 109.01 152.401 109.291C152.847 109.572 153.194 109.967 153.441 110.476C153.691 110.984 153.816 111.58 153.816 112.261C153.816 112.937 153.691 113.528 153.441 114.034C153.194 114.54 152.847 114.933 152.401 115.214C151.958 115.496 151.441 115.636 150.85 115.636ZM150.85 114.733C151.299 114.733 151.668 114.618 151.958 114.388C152.248 114.158 152.462 113.855 152.601 113.48C152.74 113.105 152.81 112.699 152.81 112.261C152.81 111.824 152.74 111.416 152.601 111.038C152.462 110.661 152.248 110.355 151.958 110.122C151.668 109.889 151.299 109.773 150.85 109.773C150.401 109.773 150.032 109.889 149.742 110.122C149.452 110.355 149.238 110.661 149.098 111.038C148.959 111.416 148.89 111.824 148.89 112.261C148.89 112.699 148.959 113.105 149.098 113.48C149.238 113.855 149.452 114.158 149.742 114.388C150.032 114.618 150.401 114.733 150.85 114.733ZM155.231 115.5V108.955H156.203V109.977H156.288C156.424 109.628 156.644 109.357 156.948 109.163C157.252 108.967 157.617 108.869 158.043 108.869C158.475 108.869 158.835 108.967 159.122 109.163C159.411 109.357 159.637 109.628 159.799 109.977H159.867C160.035 109.639 160.286 109.371 160.622 109.172C160.957 108.97 161.359 108.869 161.828 108.869C162.413 108.869 162.891 109.053 163.264 109.419C163.636 109.783 163.822 110.349 163.822 111.119V115.5H162.816V111.119C162.816 110.636 162.684 110.291 162.42 110.084C162.156 109.876 161.845 109.773 161.487 109.773C161.026 109.773 160.67 109.912 160.417 110.19C160.164 110.466 160.038 110.815 160.038 111.239V115.5H159.015V111.017C159.015 110.645 158.894 110.345 158.653 110.118C158.411 109.888 158.1 109.773 157.72 109.773C157.458 109.773 157.214 109.842 156.987 109.982C156.762 110.121 156.58 110.314 156.441 110.561C156.305 110.805 156.237 111.088 156.237 111.409V115.5H155.231Z" fill="#B3B8D0"/>
</g>
<path d="M43.8295 147.455C43.7784 147.023 43.571 146.688 43.2074 146.449C42.8438 146.21 42.3977 146.091 41.8693 146.091C41.483 146.091 41.1449 146.153 40.8551 146.278C40.5682 146.403 40.3438 146.575 40.1818 146.794C40.0227 147.013 39.9432 147.261 39.9432 147.54C39.9432 147.773 39.9986 147.973 40.1094 148.141C40.223 148.305 40.3679 148.443 40.544 148.554C40.7202 148.662 40.9048 148.751 41.098 148.822C41.2912 148.891 41.4688 148.946 41.6307 148.989L42.517 149.227C42.7443 149.287 42.9972 149.369 43.2756 149.474C43.5568 149.58 43.8253 149.723 44.081 149.905C44.3395 150.084 44.5526 150.314 44.7202 150.595C44.8878 150.876 44.9716 151.222 44.9716 151.631C44.9716 152.102 44.848 152.528 44.6009 152.909C44.3565 153.29 43.9986 153.592 43.527 153.817C43.0582 154.041 42.4886 154.153 41.8182 154.153C41.1932 154.153 40.652 154.053 40.1946 153.851C39.7401 153.649 39.3821 153.368 39.1207 153.007C38.8622 152.646 38.7159 152.227 38.6818 151.75H39.7727C39.8011 152.08 39.9119 152.352 40.1051 152.568C40.3011 152.781 40.5483 152.94 40.8466 153.045C41.1477 153.148 41.4716 153.199 41.8182 153.199C42.2216 153.199 42.5838 153.134 42.9048 153.003C43.2259 152.869 43.4801 152.685 43.6676 152.449C43.8551 152.21 43.9489 151.932 43.9489 151.614C43.9489 151.324 43.8679 151.088 43.706 150.906C43.544 150.724 43.331 150.577 43.0668 150.463C42.8026 150.349 42.517 150.25 42.2102 150.165L41.1364 149.858C40.4545 149.662 39.9148 149.382 39.517 149.018C39.1193 148.655 38.9205 148.179 38.9205 147.591C38.9205 147.102 39.0526 146.676 39.3168 146.312C39.5838 145.946 39.9418 145.662 40.3906 145.46C40.8423 145.256 41.3466 145.153 41.9034 145.153C42.4659 145.153 42.9659 145.254 43.4034 145.456C43.8409 145.655 44.1875 145.928 44.4432 146.274C44.7017 146.621 44.8381 147.014 44.8523 147.455H43.8295ZM50.5778 151.324V147.455H51.5835V154H50.5778V152.892H50.5096C50.3562 153.224 50.1176 153.507 49.7937 153.74C49.4698 153.97 49.0608 154.085 48.5664 154.085C48.1573 154.085 47.7937 153.996 47.4755 153.817C47.1573 153.635 46.9073 153.362 46.7255 152.999C46.5437 152.632 46.4528 152.17 46.4528 151.614V147.455H47.4585V151.545C47.4585 152.023 47.592 152.403 47.859 152.688C48.1289 152.972 48.4727 153.114 48.8903 153.114C49.1403 153.114 49.3946 153.05 49.6531 152.922C49.9144 152.794 50.1332 152.598 50.3093 152.334C50.4883 152.07 50.5778 151.733 50.5778 151.324ZM53.4418 154V145.273H54.4475V148.494H54.5327C54.6066 148.381 54.7089 148.236 54.8395 148.06C54.9731 147.881 55.1634 147.722 55.4106 147.582C55.6606 147.44 55.9986 147.369 56.4248 147.369C56.9759 147.369 57.4617 147.507 57.8822 147.783C58.3026 148.058 58.6307 148.449 58.8665 148.955C59.1023 149.46 59.2202 150.057 59.2202 150.744C59.2202 151.438 59.1023 152.038 58.8665 152.547C58.6307 153.053 58.304 153.445 57.8864 153.723C57.4688 153.999 56.9873 154.136 56.4418 154.136C56.0214 154.136 55.6847 154.067 55.4319 153.928C55.179 153.786 54.9844 153.625 54.8481 153.446C54.7117 153.264 54.6066 153.114 54.5327 152.994H54.4134V154H53.4418ZM54.4305 150.727C54.4305 151.222 54.5029 151.658 54.6478 152.036C54.7927 152.411 55.0043 152.705 55.2827 152.918C55.5611 153.128 55.902 153.233 56.3055 153.233C56.7259 153.233 57.0768 153.122 57.358 152.901C57.6421 152.676 57.8552 152.375 57.9972 151.997C58.1421 151.616 58.2145 151.193 58.2145 150.727C58.2145 150.267 58.1435 149.852 58.0015 149.483C57.8623 149.111 57.6506 148.817 57.3665 148.601C57.0853 148.382 56.7316 148.273 56.3055 148.273C55.8964 148.273 55.5526 148.376 55.2742 148.584C54.9958 148.788 54.7856 149.075 54.6435 149.445C54.5015 149.811 54.4305 150.239 54.4305 150.727ZM60.6386 147.455H61.6443V154.477C61.6443 154.881 61.5747 155.23 61.4355 155.526C61.2991 155.821 61.0917 156.05 60.8133 156.212C60.5377 156.374 60.1897 156.455 59.7693 156.455C59.7352 156.455 59.7011 156.455 59.667 156.455C59.6329 156.455 59.5988 156.455 59.5647 156.455V155.517C59.5988 155.517 59.6301 155.517 59.6585 155.517C59.6869 155.517 59.7181 155.517 59.7522 155.517C60.059 155.517 60.2835 155.426 60.4255 155.244C60.5676 155.065 60.6386 154.81 60.6386 154.477V147.455ZM61.1329 146.364C60.9369 146.364 60.7678 146.297 60.6258 146.163C60.4866 146.03 60.417 145.869 60.417 145.682C60.417 145.494 60.4866 145.334 60.6258 145.2C60.7678 145.067 60.9369 145 61.1329 145C61.3289 145 61.4965 145.067 61.6357 145.2C61.7778 145.334 61.8488 145.494 61.8488 145.682C61.8488 145.869 61.7778 146.03 61.6357 146.163C61.4965 146.297 61.3289 146.364 61.1329 146.364ZM66.1106 154.136C65.4799 154.136 64.9358 153.997 64.4785 153.719C64.0239 153.438 63.6731 153.045 63.4259 152.543C63.1816 152.037 63.0594 151.449 63.0594 150.778C63.0594 150.108 63.1816 149.517 63.4259 149.006C63.6731 148.491 64.0168 148.091 64.4571 147.804C64.9003 147.514 65.4174 147.369 66.0083 147.369C66.3492 147.369 66.6858 147.426 67.0182 147.54C67.3506 147.653 67.6532 147.838 67.9259 148.094C68.1986 148.347 68.416 148.682 68.5779 149.099C68.7398 149.517 68.8208 150.031 68.8208 150.642V151.068H63.7753V150.199H67.7981C67.7981 149.83 67.7242 149.5 67.5765 149.21C67.4316 148.92 67.2242 148.692 66.9543 148.524C66.6873 148.357 66.3719 148.273 66.0083 148.273C65.6077 148.273 65.2611 148.372 64.9685 148.571C64.6787 148.767 64.4557 149.023 64.2995 149.338C64.1432 149.653 64.0651 149.991 64.0651 150.352V150.932C64.0651 151.426 64.1503 151.845 64.3208 152.189C64.4941 152.53 64.7341 152.79 65.041 152.969C65.3478 153.145 65.7043 153.233 66.1106 153.233C66.3748 153.233 66.6134 153.196 66.8265 153.122C67.0424 153.045 67.2285 152.932 67.3847 152.781C67.541 152.628 67.6617 152.437 67.7469 152.21L68.7185 152.483C68.6162 152.812 68.4444 153.102 68.2029 153.352C67.9614 153.599 67.6631 153.793 67.308 153.932C66.9529 154.068 66.5537 154.136 66.1106 154.136ZM72.8897 154.136C72.2761 154.136 71.7477 153.991 71.3045 153.702C70.8613 153.412 70.5204 153.013 70.2817 152.504C70.0431 151.996 69.9238 151.415 69.9238 150.761C69.9238 150.097 70.046 149.51 70.2903 149.001C70.5374 148.49 70.8812 148.091 71.3215 147.804C71.7647 147.514 72.2817 147.369 72.8727 147.369C73.3329 147.369 73.7477 147.455 74.117 147.625C74.4863 147.795 74.7888 148.034 75.0246 148.341C75.2604 148.648 75.4067 149.006 75.4636 149.415H74.4579C74.3812 149.116 74.2107 148.852 73.9465 148.622C73.6852 148.389 73.3329 148.273 72.8897 148.273C72.4977 148.273 72.1539 148.375 71.8585 148.58C71.5658 148.781 71.3371 149.067 71.1724 149.436C71.0104 149.803 70.9295 150.233 70.9295 150.727C70.9295 151.233 71.009 151.673 71.1681 152.048C71.33 152.423 71.5573 152.714 71.8499 152.922C72.1454 153.129 72.492 153.233 72.8897 153.233C73.1511 153.233 73.3883 153.188 73.6013 153.097C73.8144 153.006 73.9948 152.875 74.1425 152.705C74.2903 152.534 74.3954 152.33 74.4579 152.091H75.4636C75.4067 152.477 75.2661 152.825 75.0417 153.135C74.8201 153.442 74.5261 153.686 74.1596 153.868C73.796 154.047 73.3727 154.136 72.8897 154.136ZM79.6603 147.455V148.307H76.2683V147.455H79.6603ZM77.2569 145.886H78.2626V152.125C78.2626 152.409 78.3038 152.622 78.3862 152.764C78.4714 152.903 78.5794 152.997 78.71 153.045C78.8436 153.091 78.9842 153.114 79.1319 153.114C79.2427 153.114 79.3336 153.108 79.4046 153.097C79.4757 153.082 79.5325 153.071 79.5751 153.062L79.7796 153.966C79.7115 153.991 79.6163 154.017 79.4941 154.043C79.372 154.071 79.2171 154.085 79.0296 154.085C78.7456 154.085 78.4671 154.024 78.1944 153.902C77.9245 153.78 77.7001 153.594 77.5211 153.344C77.345 153.094 77.2569 152.778 77.2569 152.398V145.886Z" fill="#0E0B3D"/>
<rect x="38" y="163" width="367" height="32" rx="6" fill="#F7F9FC"/>
<path d="M50.3068 175.273H51.517L53.9375 179.347H54.0398L56.4602 175.273H57.6705L54.517 180.403V184H53.4602V180.403L50.3068 175.273ZM60.5142 184.136C59.9233 184.136 59.4049 183.996 58.9588 183.714C58.5157 183.433 58.1691 183.04 57.9191 182.534C57.6719 182.028 57.5483 181.437 57.5483 180.761C57.5483 180.08 57.6719 179.484 57.9191 178.976C58.1691 178.467 58.5157 178.072 58.9588 177.791C59.4049 177.51 59.9233 177.369 60.5142 177.369C61.1051 177.369 61.6222 177.51 62.0654 177.791C62.5114 178.072 62.858 178.467 63.1051 178.976C63.3551 179.484 63.4801 180.08 63.4801 180.761C63.4801 181.437 63.3551 182.028 63.1051 182.534C62.858 183.04 62.5114 183.433 62.0654 183.714C61.6222 183.996 61.1051 184.136 60.5142 184.136ZM60.5142 183.233C60.9631 183.233 61.3324 183.118 61.6222 182.888C61.912 182.658 62.1264 182.355 62.2657 181.98C62.4049 181.605 62.4745 181.199 62.4745 180.761C62.4745 180.324 62.4049 179.916 62.2657 179.538C62.1264 179.161 61.912 178.855 61.6222 178.622C61.3324 178.389 60.9631 178.273 60.5142 178.273C60.0654 178.273 59.6961 178.389 59.4063 178.622C59.1165 178.855 58.902 179.161 58.7628 179.538C58.6236 179.916 58.554 180.324 58.554 180.761C58.554 181.199 58.6236 181.605 58.7628 181.98C58.902 182.355 59.1165 182.658 59.4063 182.888C59.6961 183.118 60.0654 183.233 60.5142 183.233ZM69.0203 181.324V177.455H70.026V184H69.0203V182.892H68.9521C68.7987 183.224 68.5601 183.507 68.2362 183.74C67.9123 183.97 67.5033 184.085 67.0089 184.085C66.5998 184.085 66.2362 183.996 65.918 183.817C65.5998 183.635 65.3498 183.362 65.168 182.999C64.9862 182.632 64.8953 182.17 64.8953 181.614V177.455H65.901V181.545C65.901 182.023 66.0345 182.403 66.3015 182.688C66.5714 182.972 66.9152 183.114 67.3328 183.114C67.5828 183.114 67.8371 183.05 68.0956 182.922C68.3569 182.794 68.5757 182.598 68.7518 182.334C68.9308 182.07 69.0203 181.733 69.0203 181.324ZM71.748 184V177.455H72.7195V178.443H72.7877C72.907 178.119 73.123 177.857 73.4355 177.655C73.748 177.453 74.1002 177.352 74.4923 177.352C74.5661 177.352 74.6585 177.354 74.7693 177.357C74.8801 177.359 74.9639 177.364 75.0207 177.369V178.392C74.9866 178.384 74.9085 178.371 74.7863 178.354C74.667 178.334 74.5406 178.324 74.407 178.324C74.0889 178.324 73.8048 178.391 73.5548 178.524C73.3076 178.655 73.1116 178.837 72.9667 179.07C72.8247 179.3 72.7536 179.562 72.7536 179.858V184H71.748ZM83.9842 178.92L83.0808 179.176C83.0239 179.026 82.9401 178.879 82.8293 178.737C82.7214 178.592 82.5737 178.473 82.3862 178.379C82.1987 178.286 81.9586 178.239 81.666 178.239C81.2654 178.239 80.9316 178.331 80.6646 178.516C80.4004 178.697 80.2683 178.929 80.2683 179.21C80.2683 179.46 80.3592 179.658 80.541 179.803C80.7228 179.947 81.0069 180.068 81.3933 180.165L82.3648 180.403C82.9501 180.545 83.3862 180.763 83.6731 181.055C83.96 181.345 84.1035 181.719 84.1035 182.176C84.1035 182.551 83.9955 182.886 83.7796 183.182C83.5665 183.477 83.2683 183.71 82.8847 183.881C82.5012 184.051 82.0552 184.136 81.5467 184.136C80.879 184.136 80.3265 183.991 79.889 183.702C79.4515 183.412 79.1745 182.989 79.058 182.432L80.0126 182.193C80.1035 182.545 80.2754 182.81 80.5282 182.986C80.7839 183.162 81.1177 183.25 81.5296 183.25C81.9984 183.25 82.3705 183.151 82.6461 182.952C82.9245 182.75 83.0637 182.509 83.0637 182.227C83.0637 182 82.9842 181.81 82.8251 181.656C82.666 181.5 82.4217 181.384 82.0921 181.307L81.0012 181.051C80.4018 180.909 79.9614 180.689 79.6802 180.391C79.4018 180.089 79.2626 179.713 79.2626 179.261C79.2626 178.892 79.3663 178.565 79.5737 178.281C79.7839 177.997 80.0694 177.774 80.4302 177.612C80.7938 177.45 81.2058 177.369 81.666 177.369C82.3137 177.369 82.8222 177.511 83.1915 177.795C83.5637 178.08 83.8279 178.455 83.9842 178.92ZM89.6223 181.324V177.455H90.628V184H89.6223V182.892H89.5541C89.4007 183.224 89.1621 183.507 88.8382 183.74C88.5144 183.97 88.1053 184.085 87.611 184.085C87.2019 184.085 86.8382 183.996 86.5201 183.817C86.2019 183.635 85.9519 183.362 85.7701 182.999C85.5882 182.632 85.4973 182.17 85.4973 181.614V177.455H86.503V181.545C86.503 182.023 86.6365 182.403 86.9036 182.688C87.1735 182.972 87.5172 183.114 87.9348 183.114C88.1848 183.114 88.4391 183.05 88.6976 182.922C88.959 182.794 89.1777 182.598 89.3539 182.334C89.5328 182.07 89.6223 181.733 89.6223 181.324ZM92.4863 184V175.273H93.492V178.494H93.5773C93.6511 178.381 93.7534 178.236 93.8841 178.06C94.0176 177.881 94.2079 177.722 94.4551 177.582C94.7051 177.44 95.0432 177.369 95.4693 177.369C96.0204 177.369 96.5062 177.507 96.9267 177.783C97.3471 178.058 97.6753 178.449 97.9111 178.955C98.1469 179.46 98.2648 180.057 98.2648 180.744C98.2648 181.438 98.1469 182.038 97.9111 182.547C97.6753 183.053 97.3486 183.445 96.931 183.723C96.5133 183.999 96.0318 184.136 95.4863 184.136C95.0659 184.136 94.7292 184.067 94.4764 183.928C94.2236 183.786 94.029 183.625 93.8926 183.446C93.7562 183.264 93.6511 183.114 93.5773 182.994H93.4579V184H92.4863ZM93.475 180.727C93.475 181.222 93.5474 181.658 93.6923 182.036C93.8372 182.411 94.0488 182.705 94.3273 182.918C94.6057 183.128 94.9466 183.233 95.35 183.233C95.7704 183.233 96.1213 183.122 96.4025 182.901C96.6866 182.676 96.8997 182.375 97.0417 181.997C97.1866 181.616 97.2591 181.193 97.2591 180.727C97.2591 180.267 97.1881 179.852 97.046 179.483C96.9068 179.111 96.6952 178.817 96.4111 178.601C96.1298 178.382 95.7761 178.273 95.35 178.273C94.9409 178.273 94.5971 178.376 94.3187 178.584C94.0403 178.788 93.8301 179.075 93.6881 179.445C93.546 179.811 93.475 180.239 93.475 180.727ZM99.6831 177.455H100.689V184.477C100.689 184.881 100.619 185.23 100.48 185.526C100.344 185.821 100.136 186.05 99.8578 186.212C99.5823 186.374 99.2342 186.455 98.8138 186.455C98.7797 186.455 98.7456 186.455 98.7115 186.455C98.6774 186.455 98.6433 186.455 98.6092 186.455V185.517C98.6433 185.517 98.6746 185.517 98.703 185.517C98.7314 185.517 98.7627 185.517 98.7967 185.517C99.1036 185.517 99.328 185.426 99.47 185.244C99.6121 185.065 99.6831 184.81 99.6831 184.477V177.455ZM100.177 176.364C99.9814 176.364 99.8124 176.297 99.6703 176.163C99.5311 176.03 99.4615 175.869 99.4615 175.682C99.4615 175.494 99.5311 175.334 99.6703 175.2C99.8124 175.067 99.9814 175 100.177 175C100.373 175 100.541 175.067 100.68 175.2C100.822 175.334 100.893 175.494 100.893 175.682C100.893 175.869 100.822 176.03 100.68 176.163C100.541 176.297 100.373 176.364 100.177 176.364ZM105.155 184.136C104.524 184.136 103.98 183.997 103.523 183.719C103.068 183.438 102.718 183.045 102.47 182.543C102.226 182.037 102.104 181.449 102.104 180.778C102.104 180.108 102.226 179.517 102.47 179.006C102.718 178.491 103.061 178.091 103.502 177.804C103.945 177.514 104.462 177.369 105.053 177.369C105.394 177.369 105.73 177.426 106.063 177.54C106.395 177.653 106.698 177.838 106.97 178.094C107.243 178.347 107.46 178.682 107.622 179.099C107.784 179.517 107.865 180.031 107.865 180.642V181.068H102.82V180.199H106.843C106.843 179.83 106.769 179.5 106.621 179.21C106.476 178.92 106.269 178.692 105.999 178.524C105.732 178.357 105.416 178.273 105.053 178.273C104.652 178.273 104.306 178.372 104.013 178.571C103.723 178.767 103.5 179.023 103.344 179.338C103.188 179.653 103.11 179.991 103.11 180.352V180.932C103.11 181.426 103.195 181.845 103.365 182.189C103.539 182.53 103.779 182.79 104.085 182.969C104.392 183.145 104.749 183.233 105.155 183.233C105.419 183.233 105.658 183.196 105.871 183.122C106.087 183.045 106.273 182.932 106.429 182.781C106.585 182.628 106.706 182.437 106.791 182.21L107.763 182.483C107.661 182.812 107.489 183.102 107.247 183.352C107.006 183.599 106.708 183.793 106.353 183.932C105.997 184.068 105.598 184.136 105.155 184.136ZM111.934 184.136C111.321 184.136 110.792 183.991 110.349 183.702C109.906 183.412 109.565 183.013 109.326 182.504C109.088 181.996 108.968 181.415 108.968 180.761C108.968 180.097 109.09 179.51 109.335 179.001C109.582 178.49 109.926 178.091 110.366 177.804C110.809 177.514 111.326 177.369 111.917 177.369C112.377 177.369 112.792 177.455 113.162 177.625C113.531 177.795 113.833 178.034 114.069 178.341C114.305 178.648 114.451 179.006 114.508 179.415H113.502C113.426 179.116 113.255 178.852 112.991 178.622C112.73 178.389 112.377 178.273 111.934 178.273C111.542 178.273 111.198 178.375 110.903 178.58C110.61 178.781 110.382 179.067 110.217 179.436C110.055 179.803 109.974 180.233 109.974 180.727C109.974 181.233 110.054 181.673 110.213 182.048C110.375 182.423 110.602 182.714 110.894 182.922C111.19 183.129 111.537 183.233 111.934 183.233C112.196 183.233 112.433 183.188 112.646 183.097C112.859 183.006 113.039 182.875 113.187 182.705C113.335 182.534 113.44 182.33 113.502 182.091H114.508C114.451 182.477 114.311 182.825 114.086 183.135C113.865 183.442 113.571 183.686 113.204 183.868C112.84 184.047 112.417 184.136 111.934 184.136ZM118.705 177.455V178.307H115.313V177.455H118.705ZM116.301 175.886H117.307V182.125C117.307 182.409 117.348 182.622 117.431 182.764C117.516 182.903 117.624 182.997 117.755 183.045C117.888 183.091 118.029 183.114 118.176 183.114C118.287 183.114 118.378 183.108 118.449 183.097C118.52 183.082 118.577 183.071 118.62 183.062L118.824 183.966C118.756 183.991 118.661 184.017 118.539 184.043C118.417 184.071 118.262 184.085 118.074 184.085C117.79 184.085 117.512 184.024 117.239 183.902C116.969 183.78 116.745 183.594 116.566 183.344C116.39 183.094 116.301 182.778 116.301 182.398V175.886Z" fill="#B3B8D0"/>
<path d="M39.0568 213.273H40.3182L43.2841 220.517H43.3864L46.3523 213.273H47.6136V222H46.625V215.369H46.5398L43.8125 222H42.858L40.1307 215.369H40.0455V222H39.0568V213.273ZM52.2206 222.136C51.5899 222.136 51.0458 221.997 50.5885 221.719C50.1339 221.438 49.7831 221.045 49.5359 220.543C49.2916 220.037 49.1694 219.449 49.1694 218.778C49.1694 218.108 49.2916 217.517 49.5359 217.006C49.7831 216.491 50.1268 216.091 50.5671 215.804C51.0103 215.514 51.5274 215.369 52.1183 215.369C52.4592 215.369 52.7958 215.426 53.1282 215.54C53.4606 215.653 53.7632 215.838 54.0359 216.094C54.3086 216.347 54.526 216.682 54.6879 217.099C54.8498 217.517 54.9308 218.031 54.9308 218.642V219.068H49.8853V218.199H53.9081C53.9081 217.83 53.8342 217.5 53.6865 217.21C53.5416 216.92 53.3342 216.692 53.0643 216.524C52.7973 216.357 52.4819 216.273 52.1183 216.273C51.7177 216.273 51.3711 216.372 51.0785 216.571C50.7887 216.767 50.5657 217.023 50.4095 217.338C50.2532 217.653 50.1751 217.991 50.1751 218.352V218.932C50.1751 219.426 50.2603 219.845 50.4308 220.189C50.6041 220.53 50.8441 220.79 51.151 220.969C51.4578 221.145 51.8143 221.233 52.2206 221.233C52.4848 221.233 52.7234 221.196 52.9365 221.122C53.1524 221.045 53.3385 220.932 53.4947 220.781C53.651 220.628 53.7717 220.437 53.8569 220.21L54.8285 220.483C54.7262 220.812 54.5544 221.102 54.3129 221.352C54.0714 221.599 53.7731 221.793 53.418 221.932C53.0629 222.068 52.6637 222.136 52.2206 222.136ZM60.977 216.92L60.0736 217.176C60.0167 217.026 59.9329 216.879 59.8221 216.737C59.7142 216.592 59.5665 216.473 59.379 216.379C59.1915 216.286 58.9514 216.239 58.6588 216.239C58.2582 216.239 57.9244 216.331 57.6574 216.516C57.3932 216.697 57.2611 216.929 57.2611 217.21C57.2611 217.46 57.352 217.658 57.5338 217.803C57.7156 217.947 57.9997 218.068 58.3861 218.165L59.3577 218.403C59.9429 218.545 60.379 218.763 60.6659 219.055C60.9528 219.345 61.0963 219.719 61.0963 220.176C61.0963 220.551 60.9883 220.886 60.7724 221.182C60.5594 221.477 60.2611 221.71 59.8775 221.881C59.494 222.051 59.048 222.136 58.5395 222.136C57.8719 222.136 57.3193 221.991 56.8818 221.702C56.4443 221.412 56.1673 220.989 56.0508 220.432L57.0054 220.193C57.0963 220.545 57.2682 220.81 57.521 220.986C57.7767 221.162 58.1105 221.25 58.5224 221.25C58.9912 221.25 59.3633 221.151 59.6389 220.952C59.9173 220.75 60.0565 220.509 60.0565 220.227C60.0565 220 59.977 219.81 59.8179 219.656C59.6588 219.5 59.4145 219.384 59.0849 219.307L57.994 219.051C57.3946 218.909 56.9542 218.689 56.673 218.391C56.3946 218.089 56.2554 217.713 56.2554 217.261C56.2554 216.892 56.3591 216.565 56.5665 216.281C56.7767 215.997 57.0622 215.774 57.423 215.612C57.7866 215.45 58.1986 215.369 58.6588 215.369C59.3065 215.369 59.815 215.511 60.1844 215.795C60.5565 216.08 60.8207 216.455 60.977 216.92ZM67.1265 216.92L66.2231 217.176C66.1663 217.026 66.0825 216.879 65.9717 216.737C65.8637 216.592 65.716 216.473 65.5285 216.379C65.341 216.286 65.1009 216.239 64.8083 216.239C64.4078 216.239 64.0739 216.331 63.8069 216.516C63.5427 216.697 63.4106 216.929 63.4106 217.21C63.4106 217.46 63.5015 217.658 63.6833 217.803C63.8651 217.947 64.1492 218.068 64.5356 218.165L65.5072 218.403C66.0924 218.545 66.5285 218.763 66.8154 219.055C67.1024 219.345 67.2458 219.719 67.2458 220.176C67.2458 220.551 67.1379 220.886 66.922 221.182C66.7089 221.477 66.4106 221.71 66.0271 221.881C65.6436 222.051 65.1975 222.136 64.689 222.136C64.0214 222.136 63.4688 221.991 63.0313 221.702C62.5938 221.412 62.3168 220.989 62.2004 220.432L63.1549 220.193C63.2458 220.545 63.4177 220.81 63.6705 220.986C63.9262 221.162 64.26 221.25 64.672 221.25C65.1407 221.25 65.5129 221.151 65.7884 220.952C66.0668 220.75 66.2061 220.509 66.2061 220.227C66.2061 220 66.1265 219.81 65.9674 219.656C65.8083 219.5 65.564 219.384 65.2345 219.307L64.1436 219.051C63.5441 218.909 63.1038 218.689 62.8225 218.391C62.5441 218.089 62.4049 217.713 62.4049 217.261C62.4049 216.892 62.5086 216.565 62.716 216.281C62.9262 215.997 63.2117 215.774 63.5725 215.612C63.9362 215.45 64.3481 215.369 64.8083 215.369C65.4561 215.369 65.9646 215.511 66.3339 215.795C66.7061 216.08 66.9703 216.455 67.1265 216.92ZM70.5658 222.153C70.151 222.153 69.7746 222.075 69.4365 221.919C69.0985 221.76 68.83 221.531 68.6312 221.233C68.4323 220.932 68.3329 220.568 68.3329 220.142C68.3329 219.767 68.4067 219.463 68.5544 219.23C68.7022 218.994 68.8996 218.81 69.1468 218.676C69.3939 218.543 69.6667 218.443 69.965 218.378C70.2661 218.31 70.5687 218.256 70.8726 218.216C71.2704 218.165 71.5928 218.126 71.84 218.101C72.09 218.072 72.2718 218.026 72.3854 217.96C72.5019 217.895 72.5601 217.781 72.5601 217.619V217.585C72.5601 217.165 72.4451 216.838 72.215 216.605C71.9877 216.372 71.6425 216.256 71.1794 216.256C70.6993 216.256 70.3229 216.361 70.0502 216.571C69.7775 216.781 69.5857 217.006 69.4749 217.244L68.5204 216.903C68.6908 216.506 68.9181 216.196 69.2022 215.974C69.4891 215.75 69.8016 215.594 70.1397 215.506C70.4806 215.415 70.8158 215.369 71.1454 215.369C71.3556 215.369 71.5971 215.395 71.8698 215.446C72.1454 215.494 72.411 215.595 72.6667 215.749C72.9252 215.902 73.1397 216.134 73.3101 216.443C73.4806 216.753 73.5658 217.168 73.5658 217.688V222H72.5601V221.114H72.509C72.4408 221.256 72.3272 221.408 72.1681 221.57C72.009 221.732 71.7973 221.869 71.5331 221.983C71.2689 222.097 70.9465 222.153 70.5658 222.153ZM70.7192 221.25C71.1169 221.25 71.4522 221.172 71.7249 221.016C72.0005 220.859 72.2079 220.658 72.3471 220.411C72.4891 220.163 72.5601 219.903 72.5601 219.631V218.71C72.5175 218.761 72.4238 218.808 72.2789 218.851C72.1368 218.891 71.9721 218.926 71.7846 218.957C71.5999 218.986 71.4195 219.011 71.2434 219.034C71.0701 219.054 70.9294 219.071 70.8215 219.085C70.5601 219.119 70.3158 219.175 70.0885 219.251C69.8641 219.325 69.6823 219.437 69.5431 219.588C69.4067 219.736 69.3385 219.937 69.3385 220.193C69.3385 220.543 69.4678 220.807 69.7263 220.986C69.9877 221.162 70.3187 221.25 70.7192 221.25ZM77.9234 224.591C77.4376 224.591 77.02 224.528 76.6706 224.403C76.3212 224.281 76.03 224.119 75.797 223.918C75.5669 223.719 75.3837 223.506 75.2473 223.278L76.0484 222.716C76.1393 222.835 76.2544 222.972 76.3936 223.125C76.5328 223.281 76.7232 223.416 76.9646 223.53C77.209 223.646 77.5286 223.705 77.9234 223.705C78.4518 223.705 78.8879 223.577 79.2317 223.321C79.5754 223.065 79.7473 222.665 79.7473 222.119V220.79H79.6621C79.5882 220.909 79.4831 221.057 79.3467 221.233C79.2132 221.406 79.02 221.561 78.7672 221.697C78.5172 221.831 78.1791 221.898 77.753 221.898C77.2246 221.898 76.7501 221.773 76.3297 221.523C75.9121 221.273 75.5811 220.909 75.3368 220.432C75.0953 219.955 74.9746 219.375 74.9746 218.693C74.9746 218.023 75.0925 217.439 75.3283 216.942C75.5641 216.442 75.8922 216.055 76.3126 215.783C76.7331 215.507 77.2189 215.369 77.77 215.369C78.1962 215.369 78.5342 215.44 78.7842 215.582C79.0371 215.722 79.2303 215.881 79.3638 216.06C79.5001 216.236 79.6053 216.381 79.6791 216.494H79.7814V215.455H80.753V222.188C80.753 222.75 80.6251 223.207 80.3695 223.56C80.1166 223.915 79.7757 224.175 79.3467 224.339C78.9206 224.507 78.4462 224.591 77.9234 224.591ZM77.8893 220.994C78.2928 220.994 78.6337 220.902 78.9121 220.717C79.1905 220.533 79.4021 220.267 79.547 219.92C79.6919 219.574 79.7643 219.159 79.7643 218.676C79.7643 218.205 79.6933 217.788 79.5513 217.428C79.4092 217.067 79.199 216.784 78.9206 216.58C78.6422 216.375 78.2984 216.273 77.8893 216.273C77.4632 216.273 77.1081 216.381 76.824 216.597C76.5428 216.812 76.3311 217.102 76.1891 217.466C76.0499 217.83 75.9803 218.233 75.9803 218.676C75.9803 219.131 76.0513 219.533 76.1933 219.882C76.3382 220.229 76.5513 220.501 76.8325 220.7C77.1166 220.896 77.4689 220.994 77.8893 220.994ZM85.2182 222.136C84.5875 222.136 84.0435 221.997 83.5861 221.719C83.1316 221.438 82.7807 221.045 82.5335 220.543C82.2892 220.037 82.1671 219.449 82.1671 218.778C82.1671 218.108 82.2892 217.517 82.5335 217.006C82.7807 216.491 83.1245 216.091 83.5648 215.804C84.008 215.514 84.525 215.369 85.1159 215.369C85.4568 215.369 85.7935 215.426 86.1259 215.54C86.4583 215.653 86.7608 215.838 87.0336 216.094C87.3063 216.347 87.5236 216.682 87.6855 217.099C87.8475 217.517 87.9284 218.031 87.9284 218.642V219.068H82.883V218.199H86.9057C86.9057 217.83 86.8318 217.5 86.6841 217.21C86.5392 216.92 86.3318 216.692 86.062 216.524C85.7949 216.357 85.4796 216.273 85.1159 216.273C84.7154 216.273 84.3688 216.372 84.0762 216.571C83.7864 216.767 83.5634 217.023 83.4071 217.338C83.2509 217.653 83.1728 217.991 83.1728 218.352V218.932C83.1728 219.426 83.258 219.845 83.4284 220.189C83.6017 220.53 83.8418 220.79 84.1486 220.969C84.4554 221.145 84.812 221.233 85.2182 221.233C85.4824 221.233 85.7211 221.196 85.9341 221.122C86.15 221.045 86.3361 220.932 86.4924 220.781C86.6486 220.628 86.7693 220.437 86.8546 220.21L87.8262 220.483C87.7239 220.812 87.552 221.102 87.3105 221.352C87.0691 221.599 86.7708 221.793 86.4157 221.932C86.0605 222.068 85.6614 222.136 85.2182 222.136Z" fill="#0E0B3D"/>
<rect x="38" y="231" width="367" height="79" rx="6" fill="#F7F9FC"/>
<path d="M51.0568 255V246.273H52.1136V254.062H56.1705V255H51.0568ZM60.2095 255.136C59.6186 255.136 59.1002 254.996 58.6541 254.714C58.211 254.433 57.8644 254.04 57.6144 253.534C57.3672 253.028 57.2436 252.437 57.2436 251.761C57.2436 251.08 57.3672 250.484 57.6144 249.976C57.8644 249.467 58.211 249.072 58.6541 248.791C59.1002 248.51 59.6186 248.369 60.2095 248.369C60.8005 248.369 61.3175 248.51 61.7607 248.791C62.2067 249.072 62.5533 249.467 62.8005 249.976C63.0505 250.484 63.1755 251.08 63.1755 251.761C63.1755 252.437 63.0505 253.028 62.8005 253.534C62.5533 254.04 62.2067 254.433 61.7607 254.714C61.3175 254.996 60.8005 255.136 60.2095 255.136ZM60.2095 254.233C60.6584 254.233 61.0277 254.118 61.3175 253.888C61.6073 253.658 61.8218 253.355 61.961 252.98C62.1002 252.605 62.1698 252.199 62.1698 251.761C62.1698 251.324 62.1002 250.916 61.961 250.538C61.8218 250.161 61.6073 249.855 61.3175 249.622C61.0277 249.389 60.6584 249.273 60.2095 249.273C59.7607 249.273 59.3914 249.389 59.1016 249.622C58.8118 249.855 58.5973 250.161 58.4581 250.538C58.3189 250.916 58.2493 251.324 58.2493 251.761C58.2493 252.199 58.3189 252.605 58.4581 252.98C58.5973 253.355 58.8118 253.658 59.1016 253.888C59.3914 254.118 59.7607 254.233 60.2095 254.233ZM64.5906 255V248.455H65.5622V249.443H65.6304C65.7497 249.119 65.9656 248.857 66.2781 248.655C66.5906 248.453 66.9429 248.352 67.3349 248.352C67.4088 248.352 67.5011 248.354 67.6119 248.357C67.7227 248.359 67.8065 248.364 67.8633 248.369V249.392C67.8292 249.384 67.7511 249.371 67.629 249.354C67.5096 249.334 67.3832 249.324 67.2497 249.324C66.9315 249.324 66.6474 249.391 66.3974 249.524C66.1503 249.655 65.9542 249.837 65.8094 250.07C65.6673 250.3 65.5963 250.562 65.5963 250.858V255H64.5906ZM71.4806 255.136C70.8499 255.136 70.3058 254.997 69.8485 254.719C69.3939 254.438 69.0431 254.045 68.7959 253.543C68.5516 253.037 68.4294 252.449 68.4294 251.778C68.4294 251.108 68.5516 250.517 68.7959 250.006C69.0431 249.491 69.3868 249.091 69.8271 248.804C70.2703 248.514 70.7874 248.369 71.3783 248.369C71.7192 248.369 72.0558 248.426 72.3882 248.54C72.7206 248.653 73.0232 248.838 73.2959 249.094C73.5686 249.347 73.786 249.682 73.9479 250.099C74.1098 250.517 74.1908 251.031 74.1908 251.642V252.068H69.1453V251.199H73.1681C73.1681 250.83 73.0942 250.5 72.9465 250.21C72.8016 249.92 72.5942 249.692 72.3243 249.524C72.0573 249.357 71.7419 249.273 71.3783 249.273C70.9777 249.273 70.6311 249.372 70.3385 249.571C70.0487 249.767 69.8257 250.023 69.6695 250.338C69.5132 250.653 69.4351 250.991 69.4351 251.352V251.932C69.4351 252.426 69.5203 252.845 69.6908 253.189C69.8641 253.53 70.1041 253.79 70.411 253.969C70.7178 254.145 71.0743 254.233 71.4806 254.233C71.7448 254.233 71.9834 254.196 72.1965 254.122C72.4124 254.045 72.5985 253.932 72.7547 253.781C72.911 253.628 73.0317 253.437 73.1169 253.21L74.0885 253.483C73.9862 253.812 73.8144 254.102 73.5729 254.352C73.3314 254.599 73.0331 254.793 72.678 254.932C72.3229 255.068 71.9237 255.136 71.4806 255.136ZM75.6006 255V248.455H76.5722V249.477H76.6574C76.7938 249.128 77.014 248.857 77.3179 248.663C77.6219 248.467 77.987 248.369 78.4131 248.369C78.8449 248.369 79.2043 248.467 79.4912 248.663C79.781 248.857 80.0069 249.128 80.1688 249.477H80.237C80.4046 249.139 80.656 248.871 80.9912 248.672C81.3265 248.47 81.7285 248.369 82.1972 248.369C82.7824 248.369 83.2611 248.553 83.6333 248.919C84.0054 249.283 84.1915 249.849 84.1915 250.619V255H83.1858V250.619C83.1858 250.136 83.0537 249.791 82.7895 249.584C82.5253 249.376 82.2142 249.273 81.8563 249.273C81.3961 249.273 81.0395 249.412 80.7867 249.69C80.5339 249.966 80.4074 250.315 80.4074 250.739V255H79.3847V250.517C79.3847 250.145 79.264 249.845 79.0225 249.618C78.781 249.388 78.4699 249.273 78.0892 249.273C77.8279 249.273 77.5836 249.342 77.3563 249.482C77.1319 249.621 76.95 249.814 76.8108 250.061C76.6745 250.305 76.6063 250.588 76.6063 250.909V255H75.6006ZM89.1653 255V248.455H90.171V255H89.1653ZM89.6767 247.364C89.4806 247.364 89.3116 247.297 89.1696 247.163C89.0304 247.03 88.9608 246.869 88.9608 246.682C88.9608 246.494 89.0304 246.334 89.1696 246.2C89.3116 246.067 89.4806 246 89.6767 246C89.8727 246 90.0403 246.067 90.1795 246.2C90.3215 246.334 90.3926 246.494 90.3926 246.682C90.3926 246.869 90.3215 247.03 90.1795 247.163C90.0403 247.297 89.8727 247.364 89.6767 247.364ZM91.893 257.455V248.455H92.8645V249.494H92.9839C93.0577 249.381 93.16 249.236 93.2907 249.06C93.4242 248.881 93.6145 248.722 93.8617 248.582C94.1117 248.44 94.4498 248.369 94.8759 248.369C95.427 248.369 95.9128 248.507 96.3333 248.783C96.7537 249.058 97.0819 249.449 97.3177 249.955C97.5535 250.46 97.6714 251.057 97.6714 251.744C97.6714 252.438 97.5535 253.038 97.3177 253.547C97.0819 254.053 96.7552 254.445 96.3376 254.723C95.9199 254.999 95.4384 255.136 94.893 255.136C94.4725 255.136 94.1359 255.067 93.883 254.928C93.6302 254.786 93.4356 254.625 93.2992 254.446C93.1628 254.264 93.0577 254.114 92.9839 253.994H92.8986V257.455H91.893ZM92.8816 251.727C92.8816 252.222 92.954 252.658 93.0989 253.036C93.2438 253.411 93.4555 253.705 93.7339 253.918C94.0123 254.128 94.3532 254.233 94.7566 254.233C95.177 254.233 95.5279 254.122 95.8091 253.901C96.0932 253.676 96.3063 253.375 96.4484 252.997C96.5932 252.616 96.6657 252.193 96.6657 251.727C96.6657 251.267 96.5947 250.852 96.4526 250.483C96.3134 250.111 96.1018 249.817 95.8177 249.601C95.5364 249.382 95.1827 249.273 94.7566 249.273C94.3475 249.273 94.0038 249.376 93.7253 249.584C93.4469 249.788 93.2367 250.075 93.0947 250.445C92.9526 250.811 92.8816 251.239 92.8816 251.727ZM103.722 249.92L102.818 250.176C102.762 250.026 102.678 249.879 102.567 249.737C102.459 249.592 102.311 249.473 102.124 249.379C101.936 249.286 101.696 249.239 101.404 249.239C101.003 249.239 100.669 249.331 100.402 249.516C100.138 249.697 100.006 249.929 100.006 250.21C100.006 250.46 100.097 250.658 100.279 250.803C100.46 250.947 100.745 251.068 101.131 251.165L102.103 251.403C102.688 251.545 103.124 251.763 103.411 252.055C103.698 252.345 103.841 252.719 103.841 253.176C103.841 253.551 103.733 253.886 103.517 254.182C103.304 254.477 103.006 254.71 102.622 254.881C102.239 255.051 101.793 255.136 101.284 255.136C100.617 255.136 100.064 254.991 99.6266 254.702C99.1891 254.412 98.9122 253.989 98.7957 253.432L99.7502 253.193C99.8411 253.545 100.013 253.81 100.266 253.986C100.522 254.162 100.855 254.25 101.267 254.25C101.736 254.25 102.108 254.151 102.384 253.952C102.662 253.75 102.801 253.509 102.801 253.227C102.801 253 102.722 252.81 102.563 252.656C102.404 252.5 102.159 252.384 101.83 252.307L100.739 252.051C100.139 251.909 99.6991 251.689 99.4178 251.391C99.1394 251.089 99.0002 250.713 99.0002 250.261C99.0002 249.892 99.1039 249.565 99.3113 249.281C99.5215 248.997 99.807 248.774 100.168 248.612C100.531 248.45 100.943 248.369 101.404 248.369C102.051 248.369 102.56 248.511 102.929 248.795C103.301 249.08 103.566 249.455 103.722 249.92ZM109.36 252.324V248.455H110.366V255H109.36V253.892H109.292C109.138 254.224 108.9 254.507 108.576 254.74C108.252 254.97 107.843 255.085 107.349 255.085C106.94 255.085 106.576 254.996 106.258 254.817C105.94 254.635 105.69 254.362 105.508 253.999C105.326 253.632 105.235 253.17 105.235 252.614V248.455H106.241V252.545C106.241 253.023 106.374 253.403 106.641 253.688C106.911 253.972 107.255 254.114 107.672 254.114C107.922 254.114 108.177 254.05 108.435 253.922C108.697 253.794 108.915 253.598 109.092 253.334C109.27 253.07 109.36 252.733 109.36 252.324ZM112.088 255V248.455H113.059V249.477H113.144C113.281 249.128 113.501 248.857 113.805 248.663C114.109 248.467 114.474 248.369 114.9 248.369C115.332 248.369 115.691 248.467 115.978 248.663C116.268 248.857 116.494 249.128 116.656 249.477H116.724C116.892 249.139 117.143 248.871 117.478 248.672C117.813 248.47 118.215 248.369 118.684 248.369C119.269 248.369 119.748 248.553 120.12 248.919C120.492 249.283 120.679 249.849 120.679 250.619V255H119.673V250.619C119.673 250.136 119.541 249.791 119.277 249.584C119.012 249.376 118.701 249.273 118.343 249.273C117.883 249.273 117.527 249.412 117.274 249.69C117.021 249.966 116.894 250.315 116.894 250.739V255H115.872V250.517C115.872 250.145 115.751 249.845 115.51 249.618C115.268 249.388 114.957 249.273 114.576 249.273C114.315 249.273 114.071 249.342 113.843 249.482C113.619 249.621 113.437 249.814 113.298 250.061C113.162 250.305 113.093 250.588 113.093 250.909V255H112.088ZM128.124 255.136C127.578 255.136 127.097 254.999 126.679 254.723C126.262 254.445 125.935 254.053 125.699 253.547C125.463 253.038 125.346 252.438 125.346 251.744C125.346 251.057 125.463 250.46 125.699 249.955C125.935 249.449 126.263 249.058 126.684 248.783C127.104 248.507 127.59 248.369 128.141 248.369C128.567 248.369 128.904 248.44 129.151 248.582C129.401 248.722 129.591 248.881 129.722 249.06C129.855 249.236 129.959 249.381 130.033 249.494H130.118V246.273H131.124V255H130.152V253.994H130.033C129.959 254.114 129.854 254.264 129.718 254.446C129.581 254.625 129.387 254.786 129.134 254.928C128.881 255.067 128.544 255.136 128.124 255.136ZM128.26 254.233C128.664 254.233 129.005 254.128 129.283 253.918C129.561 253.705 129.773 253.411 129.918 253.036C130.063 252.658 130.135 252.222 130.135 251.727C130.135 251.239 130.064 250.811 129.922 250.445C129.78 250.075 129.57 249.788 129.292 249.584C129.013 249.376 128.669 249.273 128.26 249.273C127.834 249.273 127.479 249.382 127.195 249.601C126.914 249.817 126.702 250.111 126.56 250.483C126.421 250.852 126.351 251.267 126.351 251.727C126.351 252.193 126.422 252.616 126.564 252.997C126.709 253.375 126.922 253.676 127.203 253.901C127.488 254.122 127.84 254.233 128.26 254.233ZM135.645 255.136C135.054 255.136 134.535 254.996 134.089 254.714C133.646 254.433 133.299 254.04 133.049 253.534C132.802 253.028 132.679 252.437 132.679 251.761C132.679 251.08 132.802 250.484 133.049 249.976C133.299 249.467 133.646 249.072 134.089 248.791C134.535 248.51 135.054 248.369 135.645 248.369C136.235 248.369 136.753 248.51 137.196 248.791C137.642 249.072 137.988 249.467 138.235 249.976C138.485 250.484 138.61 251.08 138.61 251.761C138.61 252.437 138.485 253.028 138.235 253.534C137.988 254.04 137.642 254.433 137.196 254.714C136.753 254.996 136.235 255.136 135.645 255.136ZM135.645 254.233C136.093 254.233 136.463 254.118 136.753 253.888C137.042 253.658 137.257 253.355 137.396 252.98C137.535 252.605 137.605 252.199 137.605 251.761C137.605 251.324 137.535 250.916 137.396 250.538C137.257 250.161 137.042 249.855 136.753 249.622C136.463 249.389 136.093 249.273 135.645 249.273C135.196 249.273 134.826 249.389 134.537 249.622C134.247 249.855 134.032 250.161 133.893 250.538C133.754 250.916 133.684 251.324 133.684 251.761C133.684 252.199 133.754 252.605 133.893 252.98C134.032 253.355 134.247 253.658 134.537 253.888C134.826 254.118 135.196 254.233 135.645 254.233ZM141.031 246.273V255H140.026V246.273H141.031ZM145.412 255.136C144.821 255.136 144.303 254.996 143.857 254.714C143.414 254.433 143.067 254.04 142.817 253.534C142.57 253.028 142.446 252.437 142.446 251.761C142.446 251.08 142.57 250.484 142.817 249.976C143.067 249.467 143.414 249.072 143.857 248.791C144.303 248.51 144.821 248.369 145.412 248.369C146.003 248.369 146.52 248.51 146.963 248.791C147.41 249.072 147.756 249.467 148.003 249.976C148.253 250.484 148.378 251.08 148.378 251.761C148.378 252.437 148.253 253.028 148.003 253.534C147.756 254.04 147.41 254.433 146.963 254.714C146.52 254.996 146.003 255.136 145.412 255.136ZM145.412 254.233C145.861 254.233 146.231 254.118 146.52 253.888C146.81 253.658 147.025 253.355 147.164 252.98C147.303 252.605 147.373 252.199 147.373 251.761C147.373 251.324 147.303 250.916 147.164 250.538C147.025 250.161 146.81 249.855 146.52 249.622C146.231 249.389 145.861 249.273 145.412 249.273C144.963 249.273 144.594 249.389 144.304 249.622C144.015 249.855 143.8 250.161 143.661 250.538C143.522 250.916 143.452 251.324 143.452 251.761C143.452 252.199 143.522 252.605 143.661 252.98C143.8 253.355 144.015 253.658 144.304 253.888C144.594 254.118 144.963 254.233 145.412 254.233ZM149.793 255V248.455H150.765V249.443H150.833C150.953 249.119 151.168 248.857 151.481 248.655C151.793 248.453 152.146 248.352 152.538 248.352C152.612 248.352 152.704 248.354 152.815 248.357C152.926 248.359 153.009 248.364 153.066 248.369V249.392C153.032 249.384 152.954 249.371 152.832 249.354C152.712 249.334 152.586 249.324 152.453 249.324C152.134 249.324 151.85 249.391 151.6 249.524C151.353 249.655 151.157 249.837 151.012 250.07C150.87 250.3 150.799 250.562 150.799 250.858V255H149.793ZM162.03 249.92L161.126 250.176C161.069 250.026 160.986 249.879 160.875 249.737C160.767 249.592 160.619 249.473 160.432 249.379C160.244 249.286 160.004 249.239 159.711 249.239C159.311 249.239 158.977 249.331 158.71 249.516C158.446 249.697 158.314 249.929 158.314 250.21C158.314 250.46 158.405 250.658 158.586 250.803C158.768 250.947 159.052 251.068 159.439 251.165L160.41 251.403C160.996 251.545 161.432 251.763 161.719 252.055C162.005 252.345 162.149 252.719 162.149 253.176C162.149 253.551 162.041 253.886 161.825 254.182C161.612 254.477 161.314 254.71 160.93 254.881C160.547 255.051 160.101 255.136 159.592 255.136C158.925 255.136 158.372 254.991 157.934 254.702C157.497 254.412 157.22 253.989 157.103 253.432L158.058 253.193C158.149 253.545 158.321 253.81 158.574 253.986C158.829 254.162 159.163 254.25 159.575 254.25C160.044 254.25 160.416 254.151 160.692 253.952C160.97 253.75 161.109 253.509 161.109 253.227C161.109 253 161.03 252.81 160.871 252.656C160.711 252.5 160.467 252.384 160.138 252.307L159.047 252.051C158.447 251.909 158.007 251.689 157.726 251.391C157.447 251.089 157.308 250.713 157.308 250.261C157.308 249.892 157.412 249.565 157.619 249.281C157.829 248.997 158.115 248.774 158.476 248.612C158.839 248.45 159.251 248.369 159.711 248.369C160.359 248.369 160.868 248.511 161.237 248.795C161.609 249.08 161.873 249.455 162.03 249.92ZM166.287 255.136C165.656 255.136 165.112 254.997 164.655 254.719C164.2 254.438 163.85 254.045 163.602 253.543C163.358 253.037 163.236 252.449 163.236 251.778C163.236 251.108 163.358 250.517 163.602 250.006C163.85 249.491 164.193 249.091 164.634 248.804C165.077 248.514 165.594 248.369 166.185 248.369C166.526 248.369 166.862 248.426 167.195 248.54C167.527 248.653 167.83 248.838 168.102 249.094C168.375 249.347 168.593 249.682 168.754 250.099C168.916 250.517 168.997 251.031 168.997 251.642V252.068H163.952V251.199H167.975C167.975 250.83 167.901 250.5 167.753 250.21C167.608 249.92 167.401 249.692 167.131 249.524C166.864 249.357 166.548 249.273 166.185 249.273C165.784 249.273 165.438 249.372 165.145 249.571C164.855 249.767 164.632 250.023 164.476 250.338C164.32 250.653 164.242 250.991 164.242 251.352V251.932C164.242 252.426 164.327 252.845 164.497 253.189C164.671 253.53 164.911 253.79 165.218 253.969C165.524 254.145 165.881 254.233 166.287 254.233C166.551 254.233 166.79 254.196 167.003 254.122C167.219 254.045 167.405 253.932 167.561 253.781C167.718 253.628 167.838 253.437 167.923 253.21L168.895 253.483C168.793 253.812 168.621 254.102 168.379 254.352C168.138 254.599 167.84 254.793 167.485 254.932C167.129 255.068 166.73 255.136 166.287 255.136ZM173.254 248.455V249.307H169.862V248.455H173.254ZM170.85 246.886H171.856V253.125C171.856 253.409 171.897 253.622 171.98 253.764C172.065 253.903 172.173 253.997 172.303 254.045C172.437 254.091 172.578 254.114 172.725 254.114C172.836 254.114 172.927 254.108 172.998 254.097C173.069 254.082 173.126 254.071 173.169 254.062L173.373 254.966C173.305 254.991 173.21 255.017 173.088 255.043C172.965 255.071 172.811 255.085 172.623 255.085C172.339 255.085 172.061 255.024 171.788 254.902C171.518 254.78 171.294 254.594 171.115 254.344C170.938 254.094 170.85 253.778 170.85 253.398V246.886ZM175.38 255.068C175.169 255.068 174.989 254.993 174.838 254.842C174.688 254.692 174.612 254.511 174.612 254.301C174.612 254.091 174.688 253.911 174.838 253.76C174.989 253.609 175.169 253.534 175.38 253.534C175.59 253.534 175.77 253.609 175.921 253.76C176.071 253.911 176.147 254.091 176.147 254.301C176.147 254.44 176.111 254.568 176.04 254.685C175.972 254.801 175.88 254.895 175.763 254.966C175.649 255.034 175.522 255.068 175.38 255.068ZM178.564 255.068C178.354 255.068 178.174 254.993 178.023 254.842C177.872 254.692 177.797 254.511 177.797 254.301C177.797 254.091 177.872 253.911 178.023 253.76C178.174 253.609 178.354 253.534 178.564 253.534C178.774 253.534 178.955 253.609 179.105 253.76C179.256 253.911 179.331 254.091 179.331 254.301C179.331 254.44 179.296 254.568 179.225 254.685C179.157 254.801 179.064 254.895 178.948 254.966C178.834 255.034 178.706 255.068 178.564 255.068ZM181.749 255.068C181.539 255.068 181.358 254.993 181.208 254.842C181.057 254.692 180.982 254.511 180.982 254.301C180.982 254.091 181.057 253.911 181.208 253.76C181.358 253.609 181.539 253.534 181.749 253.534C181.959 253.534 182.14 253.609 182.29 253.76C182.441 253.911 182.516 254.091 182.516 254.301C182.516 254.44 182.48 254.568 182.409 254.685C182.341 254.801 182.249 254.895 182.132 254.966C182.019 255.034 181.891 255.068 181.749 255.068ZM184.934 255.068C184.723 255.068 184.543 254.993 184.392 254.842C184.242 254.692 184.167 254.511 184.167 254.301C184.167 254.091 184.242 253.911 184.392 253.76C184.543 253.609 184.723 253.534 184.934 253.534C185.144 253.534 185.324 253.609 185.475 253.76C185.625 253.911 185.701 254.091 185.701 254.301C185.701 254.44 185.665 254.568 185.594 254.685C185.526 254.801 185.434 254.895 185.317 254.966C185.203 255.034 185.076 255.068 184.934 255.068ZM188.118 255.068C187.908 255.068 187.728 254.993 187.577 254.842C187.426 254.692 187.351 254.511 187.351 254.301C187.351 254.091 187.426 253.911 187.577 253.76C187.728 253.609 187.908 253.534 188.118 253.534C188.328 253.534 188.509 253.609 188.659 253.76C188.81 253.911 188.885 254.091 188.885 254.301C188.885 254.44 188.85 254.568 188.779 254.685C188.711 254.801 188.618 254.895 188.502 254.966C188.388 255.034 188.26 255.068 188.118 255.068Z" fill="#B3B8D0"/>
<g filter="url(#filter0_d_198_9694)">
<rect x="38" y="330" width="367" height="35" rx="6" fill="#5750F1" shape-rendering="crispEdges"/>
<path d="M182.504 346.664C182.504 347.912 183.236 348.728 184.652 349.052L186.08 349.376C186.908 349.568 187.28 350 187.28 350.684C187.28 351.548 186.548 352.088 185.396 352.088C184.304 352.088 183.608 351.56 183.584 350.732H182.384C182.456 352.22 183.632 353.144 185.396 353.144C187.244 353.144 188.456 352.148 188.456 350.588C188.456 349.364 187.736 348.596 186.32 348.272L184.892 347.936C184.076 347.744 183.68 347.324 183.68 346.628C183.68 345.776 184.388 345.224 185.48 345.224C186.452 345.224 187.064 345.728 187.124 346.592H188.312C188.216 345.092 187.148 344.168 185.492 344.168C183.704 344.168 182.504 345.176 182.504 346.664ZM192.274 353.144C193.726 353.144 194.71 352.436 194.998 351.176H193.942C193.75 351.848 193.174 352.208 192.298 352.208C191.182 352.208 190.534 351.524 190.45 350.288L194.986 350.276V349.856C194.986 348.116 193.894 346.964 192.226 346.964C190.522 346.964 189.358 348.236 189.358 350.072C189.358 351.896 190.546 353.144 192.274 353.144ZM192.226 347.912C193.222 347.912 193.858 348.56 193.858 349.532H190.474C190.618 348.5 191.242 347.912 192.226 347.912ZM197.374 353V349.892C197.374 348.752 197.986 347.996 199.042 347.996C199.906 347.996 200.458 348.476 200.458 349.664V353H201.586V349.412C201.586 347.912 200.878 346.964 199.33 346.964C198.502 346.964 197.758 347.36 197.386 348.032L197.266 347.132H196.246V353H197.374ZM205.5 353.144C206.436 353.144 207.228 352.736 207.612 351.932L207.708 353H208.716V344.168H207.6V348.08C207.204 347.36 206.448 346.964 205.548 346.964C203.808 346.964 202.764 348.284 202.764 350.084C202.764 351.872 203.796 353.144 205.5 353.144ZM205.728 352.124C204.576 352.124 203.904 351.26 203.904 350.048C203.904 348.848 204.576 347.984 205.728 347.984C206.88 347.984 207.588 348.848 207.588 350.048C207.588 351.272 206.88 352.124 205.728 352.124ZM214.969 353V349.292C214.969 348.08 214.945 347.192 214.885 346.772L217.405 353H218.509L221.041 346.748C220.981 347.36 220.969 347.948 220.969 349.568V353H222.121V344.324H220.945L217.957 351.62L214.969 344.324H213.817V353H214.969ZM226.481 353.144C227.933 353.144 228.917 352.436 229.205 351.176H228.149C227.957 351.848 227.381 352.208 226.505 352.208C225.389 352.208 224.741 351.524 224.657 350.288L229.193 350.276V349.856C229.193 348.116 228.101 346.964 226.433 346.964C224.729 346.964 223.565 348.236 223.565 350.072C223.565 351.896 224.753 353.144 226.481 353.144ZM226.433 347.912C227.429 347.912 228.065 348.56 228.065 349.532H224.681C224.825 348.5 225.449 347.912 226.433 347.912ZM229.973 351.296C229.973 352.412 230.849 353.144 232.229 353.144C233.621 353.144 234.581 352.436 234.581 351.32C234.581 350.444 234.089 349.988 233.093 349.748L232.061 349.496C231.485 349.352 231.197 349.088 231.197 348.692C231.197 348.152 231.593 347.84 232.301 347.84C232.985 347.84 233.381 348.212 233.405 348.8H234.485C234.461 347.684 233.621 346.964 232.337 346.964C231.041 346.964 230.129 347.648 230.129 348.728C230.129 349.592 230.621 350.108 231.665 350.36L232.697 350.6C233.309 350.756 233.501 350.996 233.501 351.392C233.501 351.932 233.045 352.256 232.253 352.256C231.509 352.256 231.053 351.896 231.053 351.296H229.973ZM235.352 351.296C235.352 352.412 236.228 353.144 237.608 353.144C239 353.144 239.96 352.436 239.96 351.32C239.96 350.444 239.468 349.988 238.472 349.748L237.44 349.496C236.864 349.352 236.576 349.088 236.576 348.692C236.576 348.152 236.972 347.84 237.68 347.84C238.364 347.84 238.76 348.212 238.784 348.8H239.864C239.84 347.684 239 346.964 237.716 346.964C236.42 346.964 235.508 347.648 235.508 348.728C235.508 349.592 236 350.108 237.044 350.36L238.076 350.6C238.688 350.756 238.88 350.996 238.88 351.392C238.88 351.932 238.424 352.256 237.632 352.256C236.888 352.256 236.432 351.896 236.432 351.296H235.352ZM242.927 353.144C243.875 353.144 244.679 352.724 244.979 352.052L245.099 353H246.059V349.316C246.059 347.732 245.075 346.964 243.623 346.964C242.111 346.964 241.103 347.768 241.103 348.992H242.087C242.087 348.284 242.627 347.864 243.575 347.864C244.367 347.864 244.955 348.212 244.955 349.196V349.364L243.107 349.508C241.727 349.616 240.923 350.288 240.923 351.368C240.923 352.436 241.667 353.144 242.927 353.144ZM243.251 352.268C242.519 352.268 242.063 351.956 242.063 351.332C242.063 350.756 242.471 350.372 243.467 350.276L244.967 350.156V350.468C244.967 351.572 244.319 352.268 243.251 352.268ZM247.249 349.916C247.249 351.56 248.305 352.844 249.973 352.844C250.897 352.844 251.665 352.436 252.049 351.752V352.928C252.049 354.044 251.329 354.764 250.225 354.764C249.241 354.764 248.593 354.26 248.449 353.396H247.321C247.537 354.884 248.629 355.784 250.225 355.784C252.025 355.784 253.165 354.608 253.165 352.76V347.132H252.157L252.073 348.128C251.701 347.396 250.969 346.964 250.021 346.964C248.317 346.964 247.249 348.26 247.249 349.916ZM248.377 349.892C248.377 348.812 249.049 347.948 250.177 347.948C251.329 347.948 252.001 348.764 252.001 349.892C252.001 351.044 251.305 351.86 250.165 351.86C249.061 351.86 248.377 350.996 248.377 349.892ZM257.325 353.144C258.777 353.144 259.761 352.436 260.049 351.176H258.993C258.801 351.848 258.225 352.208 257.349 352.208C256.233 352.208 255.585 351.524 255.501 350.288L260.037 350.276V349.856C260.037 348.116 258.945 346.964 257.277 346.964C255.573 346.964 254.409 348.236 254.409 350.072C254.409 351.896 255.597 353.144 257.325 353.144ZM257.277 347.912C258.273 347.912 258.909 348.56 258.909 349.532H255.525C255.669 348.5 256.293 347.912 257.277 347.912Z" fill="white"/>
</g>
<defs>
<filter id="filter0_d_198_9694" x="36" y="329" width="371" height="39" filterUnits="userSpaceOnUse" color-interpolation-filters="sRGB">
<feFlood flood-opacity="0" result="BackgroundImageFix"/>
<feColorMatrix in="SourceAlpha" type="matrix" values="0 0 0 0 0 0 0 0 0 0 0 0 0 0 0 0 0 0 127 0" result="hardAlpha"/>
<feOffset dy="1"/>
<feGaussianBlur stdDeviation="1"/>
<feComposite in2="hardAlpha" operator="out"/>
<feColorMatrix type="matrix" values="0 0 0 0 0.329531 0 0 0 0 0.33976 0 0 0 0 0.4625 0 0 0 0.1 0"/>
<feBlend mode="normal" in2="BackgroundImageFix" result="effect1_dropShadow_198_9694"/>
<feBlend mode="normal" in="SourceGraphic" in2="effect1_dropShadow_198_9694" result="shape"/>
</filter>
<clipPath id="clip0_198_9694">
<rect width="264" height="15" fill="white" transform="translate(46 103.5)"/>
</clipPath>
</defs>
</svg>
