<svg width="415" height="290" viewBox="0 0 415 290" fill="none" xmlns="http://www.w3.org/2000/svg">
<rect width="415" height="290" rx="10" fill="white"/>
<path d="M46 78V96H34.9448V92.3419H42.5841V88.7806H34.9448V85.2678H42.5841V81.755H31.4643V96H28V78H46Z" fill="#5750F1"/>
<path d="M61.0978 88.0684V86.1308H56.515V82.7779H61.9739V80.7898H54.3584V93.1061H56.515V88.0684H61.0978Z" fill="#0E0B3D"/>
<path d="M62.2316 88.9276C62.2316 91.5223 64.1018 93.3082 66.6796 93.3082C69.2574 93.3082 71.1276 91.5223 71.1276 88.9276C71.1276 86.333 69.2574 84.547 66.6796 84.547C64.1018 84.547 62.2316 86.333 62.2316 88.9276ZM64.2871 88.9276C64.2871 87.4113 65.2644 86.3835 66.6796 86.3835C68.0949 86.3835 69.0721 87.4113 69.0721 88.9276C69.0721 90.444 68.0949 91.4718 66.6796 91.4718C65.2644 91.4718 64.2871 90.444 64.2871 88.9276Z" fill="#0E0B3D"/>
<path d="M77.7272 84.7492C77.3902 84.665 77.1038 84.6313 76.8174 84.6313C75.7054 84.6313 74.9135 85.1873 74.5597 86.0129L74.4418 84.7998H72.5042V93.1061H74.5597V89.0624C74.5597 87.445 75.4864 86.6531 76.969 86.6531H77.7272V84.7492Z" fill="#0E0B3D"/>
<path d="M80.9213 93.1061V88.3885C80.9213 87.0406 81.7132 86.4004 82.6904 86.4004C83.6676 86.4004 84.291 87.0238 84.291 88.1863V93.1061H86.3465V88.3885C86.3465 87.0238 87.1047 86.3835 88.0987 86.3835C89.076 86.3835 89.7162 87.0069 89.7162 88.2032V93.1061H91.7549V87.664C91.7549 85.7433 90.6429 84.5302 88.621 84.5302C87.3574 84.5302 86.3802 85.1536 85.959 86.1139C85.5209 85.1536 84.6448 84.5302 83.3812 84.5302C82.1849 84.5302 81.3425 85.0693 80.9213 85.7601L80.7528 84.7829H78.8658V93.1061H80.9213Z" fill="#0E0B3D"/>
<path d="M93.8233 93.1061H98.8104C101.355 93.1061 102.82 91.8761 102.82 89.7701C102.82 88.3379 102.163 87.3607 100.866 86.9395C102.028 86.4509 102.635 85.4737 102.635 84.109C102.635 82.0535 101.152 80.7898 98.7262 80.7898H93.8233V93.1061ZM98.5408 82.6937C99.7539 82.6937 100.428 83.2666 100.428 84.328C100.428 85.4232 99.7708 86.0465 98.5914 86.0465H95.9799V82.6937H98.5408ZM98.7262 87.8662C99.9224 87.8662 100.613 88.4559 100.613 89.5005C100.613 90.6125 99.9393 91.2022 98.7262 91.2022H95.9799V87.8662H98.7262Z" fill="#0E0B3D"/>
<path d="M103.753 88.9276C103.753 91.5223 105.623 93.3082 108.201 93.3082C110.779 93.3082 112.649 91.5223 112.649 88.9276C112.649 86.333 110.779 84.547 108.201 84.547C105.623 84.547 103.753 86.333 103.753 88.9276ZM105.809 88.9276C105.809 87.4113 106.786 86.3835 108.201 86.3835C109.616 86.3835 110.594 87.4113 110.594 88.9276C110.594 90.444 109.616 91.4718 108.201 91.4718C106.786 91.4718 105.809 90.444 105.809 88.9276Z" fill="#0E0B3D"/>
<path d="M116.098 93.1061V80.5708H114.059V93.1061H116.098Z" fill="#0E0B3D"/>
<path d="M121.422 93.3251C122.685 93.3251 123.764 92.7691 124.269 91.8087L124.404 93.1061H126.291V80.5708H124.252V85.8444C123.73 85.0188 122.702 84.5302 121.54 84.5302C119.029 84.5302 117.513 86.3835 117.513 88.9782C117.513 91.556 119.013 93.3251 121.422 93.3251ZM121.877 91.4381C120.445 91.4381 119.569 90.3935 119.569 88.9108C119.569 87.4281 120.445 86.3667 121.877 86.3667C123.309 86.3667 124.236 87.4113 124.236 88.9108C124.236 90.4103 123.309 91.4381 121.877 91.4381Z" fill="#0E0B3D"/>
<path d="M31.06 195.472V199H32.236V195.472L35.152 190.324H33.868L31.948 193.792C31.792 194.08 31.768 194.152 31.66 194.368C31.564 194.164 31.492 193.996 31.372 193.792L29.44 190.324H28.12L31.06 195.472ZM34.4054 196.06C34.4054 197.872 35.7014 199.144 37.4654 199.144C39.2174 199.144 40.5134 197.872 40.5134 196.06C40.5134 194.248 39.2174 192.976 37.4654 192.976C35.7014 192.976 34.4054 194.248 34.4054 196.06ZM35.5454 196.06C35.5454 194.836 36.3254 193.984 37.4654 193.984C38.5934 193.984 39.3854 194.836 39.3854 196.06C39.3854 197.284 38.5934 198.136 37.4654 198.136C36.3254 198.136 35.5454 197.284 35.5454 196.06ZM45.5571 193.132V196.228C45.5571 197.488 44.9931 198.148 43.9611 198.148C43.0971 198.148 42.5571 197.668 42.5571 196.408V193.132H41.4291V196.78C41.4291 198.22 42.1971 199.144 43.5651 199.144C44.4291 199.144 45.2091 198.724 45.5451 198.112L45.6651 199H46.6731V193.132H45.5571ZM51.5494 193.084C51.3214 193.036 51.1534 193.012 50.9494 193.012C50.1454 193.012 49.5574 193.42 49.3174 194.032L49.2454 193.144H48.1894V199H49.3174V195.892C49.3174 194.764 49.9774 194.116 51.0454 194.116H51.5494V193.084ZM55.0239 193.132V194.08H55.8879V199H57.0159V194.08H58.4079V193.132H57.0159V192.196C57.0159 191.56 57.2079 191.188 57.9399 191.188H58.4439V190.216C58.2159 190.18 57.9639 190.168 57.7479 190.168C56.6799 190.168 55.8879 190.756 55.8879 192.196V193.132H55.0239ZM58.7764 196.06C58.7764 197.872 60.0724 199.144 61.8364 199.144C63.5884 199.144 64.8844 197.872 64.8844 196.06C64.8844 194.248 63.5884 192.976 61.8364 192.976C60.0724 192.976 58.7764 194.248 58.7764 196.06ZM59.9164 196.06C59.9164 194.836 60.6964 193.984 61.8364 193.984C62.9644 193.984 63.7564 194.836 63.7564 196.06C63.7564 197.284 62.9644 198.136 61.8364 198.136C60.6964 198.136 59.9164 197.284 59.9164 196.06ZM69.3727 193.084C69.1447 193.036 68.9767 193.012 68.7727 193.012C67.9687 193.012 67.3807 193.42 67.1407 194.032L67.0687 193.144H66.0127V199H67.1407V195.892C67.1407 194.764 67.8007 194.116 68.8687 194.116H69.3727V193.084ZM71.4383 199V195.52C71.4383 194.584 72.0023 193.996 72.8543 193.996C73.6463 193.996 74.1503 194.5 74.1503 195.424V199H75.2663V195.52C75.2663 194.584 75.8303 193.984 76.6823 193.984C77.4743 193.984 77.9903 194.512 77.9903 195.436V199H79.0943V195.16C79.0943 193.804 78.2783 192.964 76.9343 192.964C76.0223 192.964 75.3143 193.42 75.0383 194.152C74.7383 193.42 74.0903 192.964 73.1783 192.964C72.3503 192.964 71.7263 193.348 71.4263 193.9L71.3183 193.132H70.3103V199H71.4383ZM86.2306 199.144C87.6826 199.144 88.6666 198.436 88.9546 197.176H87.8986C87.7066 197.848 87.1306 198.208 86.2546 198.208C85.1386 198.208 84.4906 197.524 84.4066 196.288L88.9426 196.276V195.856C88.9426 194.116 87.8506 192.964 86.1826 192.964C84.4786 192.964 83.3146 194.236 83.3146 196.072C83.3146 197.896 84.5026 199.144 86.2306 199.144ZM86.1826 193.912C87.1786 193.912 87.8146 194.56 87.8146 195.532H84.4306C84.5746 194.5 85.1986 193.912 86.1826 193.912ZM91.2101 199V195.892C91.2101 194.752 91.8221 193.996 92.8781 193.996C93.7421 193.996 94.2941 194.476 94.2941 195.664V199H95.4221V195.412C95.4221 193.912 94.7141 192.964 93.1661 192.964C92.3381 192.964 91.5941 193.36 91.2221 194.032L91.1021 193.132H90.0821V199H91.2101ZM99.2162 199.144C100.152 199.144 100.944 198.736 101.328 197.932L101.424 199H102.432V190.168H101.316V194.08C100.92 193.36 100.164 192.964 99.2642 192.964C97.5242 192.964 96.4802 194.284 96.4802 196.084C96.4802 197.872 97.5122 199.144 99.2162 199.144ZM99.4442 198.124C98.2922 198.124 97.6202 197.26 97.6202 196.048C97.6202 194.848 98.2922 193.984 99.4442 193.984C100.596 193.984 101.304 194.848 101.304 196.048C101.304 197.272 100.596 198.124 99.4442 198.124ZM103.939 201.628H105.067V198.04C105.451 198.76 106.231 199.156 107.167 199.156C108.907 199.156 109.891 197.812 109.891 196.024C109.891 194.224 108.847 192.964 107.167 192.964C106.231 192.964 105.439 193.384 105.043 194.188L104.959 193.132H103.939V201.628ZM105.079 196.072C105.079 194.848 105.775 193.996 106.927 193.996C108.079 193.996 108.763 194.86 108.763 196.072C108.763 197.272 108.079 198.136 106.927 198.136C105.775 198.136 105.079 197.272 105.079 196.072ZM110.63 196.06C110.63 197.872 111.926 199.144 113.69 199.144C115.442 199.144 116.738 197.872 116.738 196.06C116.738 194.248 115.442 192.976 113.69 192.976C111.926 192.976 110.63 194.248 110.63 196.06ZM111.77 196.06C111.77 194.836 112.55 193.984 113.69 193.984C114.818 193.984 115.61 194.836 115.61 196.06C115.61 197.284 114.818 198.136 113.69 198.136C112.55 198.136 111.77 197.284 111.77 196.06ZM118.418 191.74C118.826 191.74 119.162 191.404 119.162 190.996C119.162 190.576 118.826 190.252 118.418 190.252C118.01 190.252 117.674 190.576 117.674 190.996C117.674 191.404 118.01 191.74 118.418 191.74ZM117.866 199H118.994V193.132H117.866V199ZM121.64 199V195.892C121.64 194.752 122.252 193.996 123.308 193.996C124.172 193.996 124.724 194.476 124.724 195.664V199H125.852V195.412C125.852 193.912 125.144 192.964 123.596 192.964C122.768 192.964 122.024 193.36 121.652 194.032L121.532 193.132H120.512V199H121.64ZM128.95 199V194.08H130.102V193.132H128.95V191.296H127.822V193.132H126.67V194.08H127.822V199H128.95Z" fill="#0E0B3D"/>
<rect x="28" y="216" width="358" height="36.1008" rx="18.0504" fill="#F7F9FC"/>
<path d="M44.9681 233.592V237.53H43.9624V228.802H44.9681V232.007H45.0534C45.2068 231.669 45.4369 231.4 45.7437 231.201C46.0534 231 46.4653 230.899 46.9795 230.899C47.4255 230.899 47.8161 230.988 48.1514 231.167C48.4866 231.343 48.7465 231.615 48.9312 231.981C49.1187 232.345 49.2124 232.808 49.2124 233.37V237.53H48.2068V233.439C48.2068 232.919 48.0718 232.517 47.8019 232.233C47.5349 231.946 47.1642 231.802 46.6897 231.802C46.3602 231.802 46.0647 231.872 45.8034 232.011C45.5448 232.15 45.3403 232.353 45.1897 232.62C45.042 232.887 44.9681 233.211 44.9681 233.592ZM53.7785 230.984V231.836H50.3865V230.984H53.7785ZM51.3751 229.416H52.3808V235.655C52.3808 235.939 52.422 236.152 52.5044 236.294C52.5896 236.433 52.6976 236.527 52.8283 236.575C52.9618 236.62 53.1024 236.643 53.2501 236.643C53.3609 236.643 53.4518 236.637 53.5229 236.626C53.5939 236.612 53.6507 236.601 53.6933 236.592L53.8979 237.495C53.8297 237.521 53.7345 237.547 53.6124 237.572C53.4902 237.601 53.3354 237.615 53.1479 237.615C52.8638 237.615 52.5854 237.554 52.3126 237.432C52.0428 237.309 51.8183 237.123 51.6393 236.873C51.4632 236.623 51.3751 236.308 51.3751 235.927V229.416ZM58.0176 230.984V231.836H54.6255V230.984H58.0176ZM55.6142 229.416H56.6199V235.655C56.6199 235.939 56.6611 236.152 56.7434 236.294C56.8287 236.433 56.9366 236.527 57.0673 236.575C57.2008 236.62 57.3414 236.643 57.4892 236.643C57.6 236.643 57.6909 236.637 57.7619 236.626C57.8329 236.612 57.8897 236.601 57.9324 236.592L58.1369 237.495C58.0687 237.521 57.9736 237.547 57.8514 237.572C57.7292 237.601 57.5744 237.615 57.3869 237.615C57.1028 237.615 56.8244 237.554 56.5517 237.432C56.2818 237.309 56.0574 237.123 55.8784 236.873C55.7022 236.623 55.6142 236.308 55.6142 235.927V229.416ZM59.41 239.984V230.984H60.3816V232.024H60.5009C60.5748 231.91 60.6771 231.765 60.8078 231.589C60.9413 231.41 61.1316 231.251 61.3788 231.112C61.6288 230.97 61.9669 230.899 62.393 230.899C62.9441 230.899 63.4299 231.037 63.8504 231.312C64.2708 231.588 64.599 231.978 64.8347 232.484C65.0705 232.99 65.1884 233.586 65.1884 234.274C65.1884 234.967 65.0705 235.568 64.8347 236.076C64.599 236.582 64.2722 236.974 63.8546 237.253C63.437 237.528 62.9555 237.666 62.41 237.666C61.9896 237.666 61.6529 237.596 61.4001 237.457C61.1472 237.315 60.9526 237.155 60.8163 236.976C60.6799 236.794 60.5748 236.643 60.5009 236.524H60.4157V239.984H59.41ZM60.3987 234.257C60.3987 234.751 60.4711 235.187 60.616 235.565C60.7609 235.94 60.9725 236.234 61.2509 236.447C61.5294 236.657 61.8703 236.762 62.2737 236.762C62.6941 236.762 63.045 236.652 63.3262 236.43C63.6103 236.206 63.8234 235.905 63.9654 235.527C64.1103 235.146 64.1828 234.723 64.1828 234.257C64.1828 233.797 64.1117 233.382 63.9697 233.012C63.8305 232.64 63.6188 232.346 63.3347 232.13C63.0535 231.912 62.6998 231.802 62.2737 231.802C61.8646 231.802 61.5208 231.906 61.2424 232.113C60.964 232.318 60.7538 232.605 60.6117 232.974C60.4697 233.341 60.3987 233.768 60.3987 234.257ZM71.2386 232.45L70.3352 232.706C70.2783 232.555 70.1945 232.409 70.0837 232.267C69.9758 232.122 69.828 232.003 69.6405 231.909C69.453 231.815 69.213 231.768 68.9204 231.768C68.5198 231.768 68.186 231.861 67.919 232.045C67.6548 232.227 67.5227 232.459 67.5227 232.74C67.5227 232.99 67.6136 233.187 67.7954 233.332C67.9772 233.477 68.2613 233.598 68.6477 233.694L69.6192 233.933C70.2045 234.075 70.6405 234.292 70.9275 234.585C71.2144 234.875 71.3579 235.248 71.3579 235.706C71.3579 236.081 71.2499 236.416 71.034 236.711C70.8209 237.007 70.5227 237.24 70.1391 237.41C69.7556 237.581 69.3096 237.666 68.8011 237.666C68.1334 237.666 67.5809 237.521 67.1434 237.231C66.7059 236.941 66.4289 236.518 66.3124 235.961L67.267 235.723C67.3579 236.075 67.5298 236.339 67.7826 236.515C68.0383 236.691 68.3721 236.78 68.784 236.78C69.2528 236.78 69.6249 236.68 69.9005 236.481C70.1789 236.28 70.3181 236.038 70.3181 235.757C70.3181 235.53 70.2386 235.339 70.0795 235.186C69.9204 235.03 69.6761 234.913 69.3465 234.836L68.2556 234.581C67.6562 234.439 67.2158 234.218 66.9346 233.92C66.6562 233.619 66.517 233.243 66.517 232.791C66.517 232.422 66.6207 232.095 66.828 231.811C67.0383 231.527 67.3238 231.304 67.6846 231.142C68.0482 230.98 68.4602 230.899 68.9204 230.899C69.5681 230.899 70.0766 231.041 70.4459 231.325C70.8181 231.609 71.0823 231.984 71.2386 232.45ZM73.4843 237.598C73.2741 237.598 73.0937 237.522 72.9432 237.372C72.7926 237.221 72.7173 237.041 72.7173 236.831C72.7173 236.62 72.7926 236.44 72.9432 236.289C73.0937 236.139 73.2741 236.064 73.4843 236.064C73.6946 236.064 73.875 236.139 74.0255 236.289C74.1761 236.44 74.2514 236.62 74.2514 236.831C74.2514 236.97 74.2159 237.098 74.1449 237.214C74.0767 237.331 73.9843 237.424 73.8679 237.495C73.7542 237.564 73.6264 237.598 73.4843 237.598ZM73.4843 232.74C73.2741 232.74 73.0937 232.664 72.9432 232.514C72.7926 232.363 72.7173 232.183 72.7173 231.973C72.7173 231.762 72.7926 231.582 72.9432 231.432C73.0937 231.281 73.2741 231.206 73.4843 231.206C73.6946 231.206 73.875 231.281 74.0255 231.432C74.1761 231.582 74.2514 231.762 74.2514 231.973C74.2514 232.112 74.2159 232.24 74.1449 232.356C74.0767 232.473 73.9843 232.566 73.8679 232.637C73.7542 232.706 73.6264 232.74 73.4843 232.74ZM79.021 228.393L76.2085 238.842H75.288L78.1005 228.393H79.021ZM83.178 228.393L80.3655 238.842H79.445L82.2575 228.393H83.178ZM87.1645 230.984V231.836H83.6361V230.984H87.1645ZM84.6929 237.53V230.081C84.6929 229.706 84.781 229.393 84.9571 229.143C85.1333 228.893 85.362 228.706 85.6432 228.581C85.9245 228.456 86.2213 228.393 86.5338 228.393C86.781 228.393 86.9827 228.413 87.139 228.453C87.2952 228.493 87.4117 228.53 87.4884 228.564L87.1986 229.433C87.1475 229.416 87.0765 229.395 86.9856 229.369C86.8975 229.343 86.781 229.331 86.6361 229.331C86.3037 229.331 86.0637 229.414 85.916 229.582C85.7711 229.75 85.6986 229.995 85.6986 230.319V237.53H84.6929ZM90.8432 237.666C90.2523 237.666 89.7338 237.525 89.2878 237.244C88.8446 236.963 88.498 236.569 88.248 236.064C88.0009 235.558 87.8773 234.967 87.8773 234.291C87.8773 233.609 88.0009 233.014 88.248 232.505C88.498 231.997 88.8446 231.602 89.2878 231.321C89.7338 231.039 90.2523 230.899 90.8432 230.899C91.4341 230.899 91.9512 231.039 92.3943 231.321C92.8404 231.602 93.1869 231.997 93.4341 232.505C93.6841 233.014 93.8091 233.609 93.8091 234.291C93.8091 234.967 93.6841 235.558 93.4341 236.064C93.1869 236.569 92.8404 236.963 92.3943 237.244C91.9512 237.525 91.4341 237.666 90.8432 237.666ZM90.8432 236.762C91.2921 236.762 91.6614 236.647 91.9512 236.417C92.2409 236.187 92.4554 235.885 92.5946 235.51C92.7338 235.135 92.8034 234.728 92.8034 234.291C92.8034 233.853 92.7338 233.446 92.5946 233.068C92.4554 232.69 92.2409 232.385 91.9512 232.152C91.6614 231.919 91.2921 231.802 90.8432 231.802C90.3943 231.802 90.025 231.919 89.7352 232.152C89.4455 232.385 89.231 232.69 89.0918 233.068C88.9526 233.446 88.883 233.853 88.883 234.291C88.883 234.728 88.9526 235.135 89.0918 235.51C89.231 235.885 89.4455 236.187 89.7352 236.417C90.025 236.647 90.3943 236.762 90.8432 236.762ZM95.2239 237.53V230.984H96.1955V231.973H96.2637C96.383 231.649 96.5989 231.386 96.9114 231.184C97.2239 230.983 97.5762 230.882 97.9682 230.882C98.0421 230.882 98.1344 230.883 98.2452 230.886C98.356 230.889 98.4398 230.893 98.4967 230.899V231.922C98.4626 231.913 98.3844 231.9 98.2623 231.883C98.143 231.863 98.0165 231.853 97.883 231.853C97.5648 231.853 97.2807 231.92 97.0307 232.054C96.7836 232.184 96.5876 232.366 96.4427 232.599C96.3006 232.829 96.2296 233.092 96.2296 233.387V237.53H95.2239ZM99.5684 237.53V230.984H100.54V232.007H100.625C100.762 231.657 100.982 231.386 101.286 231.193C101.59 230.997 101.955 230.899 102.381 230.899C102.813 230.899 103.172 230.997 103.459 231.193C103.749 231.386 103.975 231.657 104.137 232.007H104.205C104.372 231.669 104.624 231.4 104.959 231.201C105.294 231 105.696 230.899 106.165 230.899C106.75 230.899 107.229 231.082 107.601 231.449C107.973 231.812 108.159 232.379 108.159 233.149V237.53H107.154V233.149C107.154 232.666 107.022 232.321 106.757 232.113C106.493 231.906 106.182 231.802 105.824 231.802C105.364 231.802 105.007 231.941 104.755 232.22C104.502 232.495 104.375 232.845 104.375 233.268V237.53H103.353V233.047C103.353 232.674 103.232 232.375 102.99 232.147C102.749 231.917 102.438 231.802 102.057 231.802C101.796 231.802 101.551 231.872 101.324 232.011C101.1 232.15 100.918 232.343 100.779 232.591C100.642 232.835 100.574 233.118 100.574 233.439V237.53H99.5684ZM110.014 237.53V228.802H111.02V232.024H111.105C111.179 231.91 111.281 231.765 111.412 231.589C111.545 231.41 111.736 231.251 111.983 231.112C112.233 230.97 112.571 230.899 112.997 230.899C113.548 230.899 114.034 231.037 114.454 231.312C114.875 231.588 115.203 231.978 115.439 232.484C115.675 232.99 115.793 233.586 115.793 234.274C115.793 234.967 115.675 235.568 115.439 236.076C115.203 236.582 114.876 236.974 114.459 237.253C114.041 237.528 113.56 237.666 113.014 237.666C112.594 237.666 112.257 237.596 112.004 237.457C111.751 237.315 111.557 237.155 111.42 236.976C111.284 236.794 111.179 236.643 111.105 236.524H110.986V237.53H110.014ZM111.003 234.257C111.003 234.751 111.075 235.187 111.22 235.565C111.365 235.94 111.577 236.234 111.855 236.447C112.133 236.657 112.474 236.762 112.878 236.762C113.298 236.762 113.649 236.652 113.93 236.43C114.214 236.206 114.428 235.905 114.57 235.527C114.714 235.146 114.787 234.723 114.787 234.257C114.787 233.797 114.716 233.382 114.574 233.012C114.435 232.64 114.223 232.346 113.939 232.13C113.658 231.912 113.304 231.802 112.878 231.802C112.469 231.802 112.125 231.906 111.847 232.113C111.568 232.318 111.358 232.605 111.216 232.974C111.074 233.341 111.003 233.768 111.003 234.257ZM119.87 237.666C119.279 237.666 118.76 237.525 118.314 237.244C117.871 236.963 117.524 236.569 117.274 236.064C117.027 235.558 116.904 234.967 116.904 234.291C116.904 233.609 117.027 233.014 117.274 232.505C117.524 231.997 117.871 231.602 118.314 231.321C118.76 231.039 119.279 230.899 119.87 230.899C120.461 230.899 120.978 231.039 121.421 231.321C121.867 231.602 122.213 231.997 122.461 232.505C122.711 233.014 122.836 233.609 122.836 234.291C122.836 234.967 122.711 235.558 122.461 236.064C122.213 236.569 121.867 236.963 121.421 237.244C120.978 237.525 120.461 237.666 119.87 237.666ZM119.87 236.762C120.319 236.762 120.688 236.647 120.978 236.417C121.267 236.187 121.482 235.885 121.621 235.51C121.76 235.135 121.83 234.728 121.83 234.291C121.83 233.853 121.76 233.446 121.621 233.068C121.482 232.69 121.267 232.385 120.978 232.152C120.688 231.919 120.319 231.802 119.87 231.802C119.421 231.802 119.051 231.919 118.762 232.152C118.472 232.385 118.257 232.69 118.118 233.068C117.979 233.446 117.909 233.853 117.909 234.291C117.909 234.728 117.979 235.135 118.118 235.51C118.257 235.885 118.472 236.187 118.762 236.417C119.051 236.647 119.421 236.762 119.87 236.762ZM125.256 228.802V237.53H124.25V228.802H125.256ZM129.449 237.666C128.904 237.666 128.422 237.528 128.005 237.253C127.587 236.974 127.26 236.582 127.025 236.076C126.789 235.568 126.671 234.967 126.671 234.274C126.671 233.586 126.789 232.99 127.025 232.484C127.26 231.978 127.589 231.588 128.009 231.312C128.429 231.037 128.915 230.899 129.466 230.899C129.892 230.899 130.229 230.97 130.476 231.112C130.726 231.251 130.917 231.41 131.047 231.589C131.181 231.765 131.285 231.91 131.358 232.024H131.444V228.802H132.449V237.53H131.478V236.524H131.358C131.285 236.643 131.179 236.794 131.043 236.976C130.907 237.155 130.712 237.315 130.459 237.457C130.206 237.596 129.87 237.666 129.449 237.666ZM129.586 236.762C129.989 236.762 130.33 236.657 130.608 236.447C130.887 236.234 131.098 235.94 131.243 235.565C131.388 235.187 131.461 234.751 131.461 234.257C131.461 233.768 131.39 233.341 131.248 232.974C131.106 232.605 130.895 232.318 130.617 232.113C130.339 231.906 129.995 231.802 129.586 231.802C129.16 231.802 128.804 231.912 128.52 232.13C128.239 232.346 128.027 232.64 127.885 233.012C127.746 233.382 127.677 233.797 127.677 234.257C127.677 234.723 127.748 235.146 127.89 235.527C128.035 235.905 128.248 236.206 128.529 236.43C128.813 236.652 129.165 236.762 129.586 236.762ZM135.043 237.598C134.833 237.598 134.653 237.522 134.502 237.372C134.352 237.221 134.276 237.041 134.276 236.831C134.276 236.62 134.352 236.44 134.502 236.289C134.653 236.139 134.833 236.064 135.043 236.064C135.254 236.064 135.434 236.139 135.585 236.289C135.735 236.44 135.811 236.62 135.811 236.831C135.811 236.97 135.775 237.098 135.704 237.214C135.636 237.331 135.543 237.424 135.427 237.495C135.313 237.564 135.186 237.598 135.043 237.598ZM140.154 237.666C139.54 237.666 139.012 237.521 138.569 237.231C138.126 236.941 137.785 236.542 137.546 236.034C137.307 235.525 137.188 234.944 137.188 234.291C137.188 233.626 137.31 233.039 137.555 232.531C137.802 232.02 138.145 231.62 138.586 231.334C139.029 231.044 139.546 230.899 140.137 230.899C140.597 230.899 141.012 230.984 141.381 231.155C141.751 231.325 142.053 231.564 142.289 231.87C142.525 232.177 142.671 232.535 142.728 232.944H141.722C141.645 232.646 141.475 232.382 141.211 232.152C140.949 231.919 140.597 231.802 140.154 231.802C139.762 231.802 139.418 231.905 139.123 232.109C138.83 232.311 138.601 232.596 138.437 232.966C138.275 233.332 138.194 233.762 138.194 234.257C138.194 234.762 138.273 235.203 138.432 235.578C138.594 235.953 138.822 236.244 139.114 236.451C139.41 236.659 139.756 236.762 140.154 236.762C140.415 236.762 140.653 236.717 140.866 236.626C141.079 236.535 141.259 236.405 141.407 236.234C141.555 236.064 141.66 235.859 141.722 235.62H142.728C142.671 236.007 142.53 236.355 142.306 236.664C142.084 236.971 141.79 237.216 141.424 237.397C141.06 237.576 140.637 237.666 140.154 237.666ZM146.737 237.666C146.146 237.666 145.627 237.525 145.181 237.244C144.738 236.963 144.392 236.569 144.142 236.064C143.894 235.558 143.771 234.967 143.771 234.291C143.771 233.609 143.894 233.014 144.142 232.505C144.392 231.997 144.738 231.602 145.181 231.321C145.627 231.039 146.146 230.899 146.737 230.899C147.328 230.899 147.845 231.039 148.288 231.321C148.734 231.602 149.08 231.997 149.328 232.505C149.578 233.014 149.703 233.609 149.703 234.291C149.703 234.967 149.578 235.558 149.328 236.064C149.08 236.569 148.734 236.963 148.288 237.244C147.845 237.525 147.328 237.666 146.737 237.666ZM146.737 236.762C147.186 236.762 147.555 236.647 147.845 236.417C148.134 236.187 148.349 235.885 148.488 235.51C148.627 235.135 148.697 234.728 148.697 234.291C148.697 233.853 148.627 233.446 148.488 233.068C148.349 232.69 148.134 232.385 147.845 232.152C147.555 231.919 147.186 231.802 146.737 231.802C146.288 231.802 145.919 231.919 145.629 232.152C145.339 232.385 145.125 232.69 144.985 233.068C144.846 233.446 144.777 233.853 144.777 234.291C144.777 234.728 144.846 235.135 144.985 235.51C145.125 235.885 145.339 236.187 145.629 236.417C145.919 236.647 146.288 236.762 146.737 236.762ZM151.117 237.53V230.984H152.089V232.007H152.174C152.311 231.657 152.531 231.386 152.835 231.193C153.139 230.997 153.504 230.899 153.93 230.899C154.362 230.899 154.721 230.997 155.008 231.193C155.298 231.386 155.524 231.657 155.686 232.007H155.754C155.921 231.669 156.173 231.4 156.508 231.201C156.843 231 157.245 230.899 157.714 230.899C158.299 230.899 158.778 231.082 159.15 231.449C159.522 231.812 159.708 232.379 159.708 233.149V237.53H158.703V233.149C158.703 232.666 158.571 232.321 158.306 232.113C158.042 231.906 157.731 231.802 157.373 231.802C156.913 231.802 156.556 231.941 156.304 232.22C156.051 232.495 155.924 232.845 155.924 233.268V237.53H154.902V233.047C154.902 232.674 154.781 232.375 154.539 232.147C154.298 231.917 153.987 231.802 153.606 231.802C153.345 231.802 153.1 231.872 152.873 232.011C152.649 232.15 152.467 232.343 152.328 232.591C152.191 232.835 152.123 233.118 152.123 233.439V237.53H151.117ZM164.512 228.393L161.7 238.842H160.779L163.592 228.393H164.512ZM170.22 232.45L169.317 232.706C169.26 232.555 169.176 232.409 169.065 232.267C168.957 232.122 168.81 232.003 168.622 231.909C168.435 231.815 168.195 231.768 167.902 231.768C167.501 231.768 167.168 231.861 166.901 232.045C166.636 232.227 166.504 232.459 166.504 232.74C166.504 232.99 166.595 233.187 166.777 233.332C166.959 233.477 167.243 233.598 167.629 233.694L168.601 233.933C169.186 234.075 169.622 234.292 169.909 234.585C170.196 234.875 170.34 235.248 170.34 235.706C170.34 236.081 170.232 236.416 170.016 236.711C169.803 237.007 169.504 237.24 169.121 237.41C168.737 237.581 168.291 237.666 167.783 237.666C167.115 237.666 166.563 237.521 166.125 237.231C165.688 236.941 165.411 236.518 165.294 235.961L166.249 235.723C166.34 236.075 166.511 236.339 166.764 236.515C167.02 236.691 167.354 236.78 167.766 236.78C168.234 236.78 168.607 236.68 168.882 236.481C169.161 236.28 169.3 236.038 169.3 235.757C169.3 235.53 169.22 235.339 169.061 235.186C168.902 235.03 168.658 234.913 168.328 234.836L167.237 234.581C166.638 234.439 166.197 234.218 165.916 233.92C165.638 233.619 165.499 233.243 165.499 232.791C165.499 232.422 165.602 232.095 165.81 231.811C166.02 231.527 166.305 231.304 166.666 231.142C167.03 230.98 167.442 230.899 167.902 230.899C168.55 230.899 169.058 231.041 169.428 231.325C169.8 231.609 170.064 231.984 170.22 232.45ZM174.818 228.393L172.006 238.842H171.085L173.898 228.393H174.818ZM176.538 228.802L178.788 232.433H178.856L181.106 228.802H182.35L179.606 233.166L182.35 237.53H181.106L178.856 233.967H178.788L176.538 237.53H175.293L178.106 233.166L175.293 228.802H176.538ZM184.117 228.802L186.367 232.433H186.435L188.685 228.802H189.929L187.185 233.166L189.929 237.53H188.685L186.435 233.967H186.367L184.117 237.53H182.872L185.685 233.166L182.872 228.802H184.117ZM191.696 228.802L193.946 232.433H194.014L196.264 228.802H197.508L194.764 233.166L197.508 237.53H196.264L194.014 233.967H193.946L191.696 237.53H190.451L193.264 233.166L190.451 228.802H191.696ZM199.274 228.802L201.524 232.433H201.593L203.843 228.802H205.087L202.343 233.166L205.087 237.53H203.843L201.593 233.967H201.524L199.274 237.53H198.03L200.843 233.166L198.03 228.802H199.274ZM206.853 228.802L209.103 232.433H209.171L211.421 228.802H212.666L209.921 233.166L212.666 237.53H211.421L209.171 233.967H209.103L206.853 237.53H205.609L208.421 233.166L205.609 228.802H206.853ZM214.432 228.802L216.682 232.433H216.75L219 228.802H220.245L217.5 233.166L220.245 237.53H219L216.75 233.967H216.682L214.432 237.53H213.188L216 233.166L213.188 228.802H214.432ZM222.011 228.802L224.261 232.433H224.329L226.579 228.802H227.824L225.079 233.166L227.824 237.53H226.579L224.329 233.967H224.261L222.011 237.53H220.767L223.579 233.166L220.767 228.802H222.011Z" fill="#0E0B3D"/>
<g filter="url(#filter0_d_198_10077)">
<rect x="257" y="220.618" width="124" height="27" rx="13.5" fill="white" shape-rendering="crispEdges"/>
<path d="M271.916 230.396V228.516C271.916 228.349 271.982 228.19 272.1 228.072C272.217 227.955 272.377 227.889 272.543 227.889H280.064C280.23 227.889 280.39 227.955 280.507 228.072C280.625 228.19 280.691 228.349 280.691 228.516V237.29C280.691 237.456 280.625 237.616 280.507 237.733C280.39 237.851 280.23 237.917 280.064 237.917H278.184V239.797C278.184 240.143 277.902 240.424 277.553 240.424H270.04C269.958 240.424 269.876 240.408 269.799 240.377C269.723 240.346 269.653 240.3 269.594 240.242C269.536 240.183 269.489 240.114 269.457 240.038C269.426 239.962 269.409 239.88 269.409 239.797L269.411 231.023C269.411 230.677 269.693 230.396 270.042 230.396H271.916ZM273.17 230.396H278.184V236.663H279.437V229.142H273.17V230.396Z" fill="#0E0B3D"/>
<path d="M312.757 232.22H311.539C311.492 231.959 311.404 231.73 311.277 231.532C311.149 231.334 310.993 231.166 310.808 231.028C310.623 230.89 310.416 230.786 310.187 230.716C309.96 230.646 309.72 230.61 309.464 230.61C309.003 230.61 308.591 230.726 308.226 230.958C307.864 231.19 307.578 231.53 307.367 231.978C307.158 232.425 307.054 232.972 307.054 233.618C307.054 234.269 307.158 234.819 307.367 235.267C307.578 235.715 307.865 236.053 308.23 236.282C308.595 236.511 309.005 236.626 309.46 236.626C309.713 236.626 309.953 236.592 310.179 236.524C310.408 236.454 310.615 236.351 310.8 236.216C310.985 236.08 311.141 235.915 311.269 235.72C311.399 235.522 311.489 235.295 311.539 235.04L312.757 235.044C312.692 235.437 312.566 235.799 312.378 236.13C312.194 236.458 311.955 236.742 311.664 236.981C311.375 237.218 311.044 237.402 310.671 237.532C310.299 237.662 309.893 237.728 309.453 237.728C308.76 237.728 308.143 237.563 307.601 237.235C307.059 236.905 306.632 236.432 306.32 235.817C306.01 235.203 305.855 234.47 305.855 233.618C305.855 232.764 306.011 232.031 306.324 231.419C306.636 230.804 307.063 230.333 307.605 230.005C308.147 229.674 308.763 229.509 309.453 229.509C309.877 229.509 310.273 229.57 310.64 229.692C311.01 229.812 311.342 229.989 311.636 230.224C311.931 230.455 312.174 230.739 312.367 231.075C312.559 231.409 312.69 231.79 312.757 232.22ZM316.635 237.739C316.073 237.739 315.582 237.61 315.163 237.353C314.743 237.095 314.418 236.734 314.186 236.271C313.954 235.807 313.838 235.265 313.838 234.646C313.838 234.023 313.954 233.479 314.186 233.013C314.418 232.547 314.743 232.185 315.163 231.927C315.582 231.669 316.073 231.54 316.635 231.54C317.198 231.54 317.689 231.669 318.108 231.927C318.527 232.185 318.853 232.547 319.084 233.013C319.316 233.479 319.432 234.023 319.432 234.646C319.432 235.265 319.316 235.807 319.084 236.271C318.853 236.734 318.527 237.095 318.108 237.353C317.689 237.61 317.198 237.739 316.635 237.739ZM316.639 236.759C317.004 236.759 317.306 236.662 317.545 236.47C317.785 236.277 317.962 236.021 318.077 235.7C318.194 235.38 318.252 235.027 318.252 234.642C318.252 234.259 318.194 233.907 318.077 233.587C317.962 233.264 317.785 233.005 317.545 232.81C317.306 232.614 317.004 232.517 316.639 232.517C316.272 232.517 315.967 232.614 315.725 232.81C315.486 233.005 315.307 233.264 315.19 233.587C315.075 233.907 315.018 234.259 315.018 234.642C315.018 235.027 315.075 235.38 315.19 235.7C315.307 236.021 315.486 236.277 315.725 236.47C315.967 236.662 316.272 236.759 316.639 236.759ZM320.736 239.868V231.618H321.876V232.591H321.974C322.042 232.466 322.139 232.321 322.267 232.157C322.395 231.993 322.572 231.85 322.798 231.728C323.025 231.603 323.324 231.54 323.697 231.54C324.181 231.54 324.613 231.662 324.994 231.907C325.374 232.152 325.672 232.505 325.888 232.966C326.107 233.427 326.216 233.981 326.216 234.63C326.216 235.278 326.108 235.834 325.892 236.298C325.676 236.759 325.379 237.114 325.001 237.364C324.624 237.612 324.193 237.735 323.708 237.735C323.344 237.735 323.046 237.674 322.814 237.552C322.585 237.429 322.405 237.286 322.275 237.122C322.145 236.958 322.044 236.812 321.974 236.685H321.904V239.868H320.736ZM321.88 234.618C321.88 235.04 321.942 235.41 322.064 235.728C322.186 236.045 322.363 236.294 322.595 236.474C322.827 236.651 323.111 236.739 323.447 236.739C323.796 236.739 324.087 236.647 324.322 236.462C324.556 236.274 324.733 236.021 324.853 235.7C324.975 235.38 325.037 235.019 325.037 234.618C325.037 234.222 324.977 233.867 324.857 233.552C324.74 233.237 324.563 232.988 324.326 232.806C324.091 232.623 323.798 232.532 323.447 232.532C323.108 232.532 322.822 232.619 322.587 232.794C322.356 232.968 322.18 233.212 322.06 233.524C321.94 233.837 321.88 234.201 321.88 234.618ZM328.059 239.868C327.885 239.868 327.726 239.854 327.583 239.825C327.439 239.799 327.333 239.771 327.262 239.739L327.543 238.782C327.757 238.84 327.947 238.864 328.114 238.856C328.28 238.849 328.428 238.786 328.555 238.669C328.685 238.552 328.8 238.36 328.899 238.095L329.043 237.696L326.848 231.618H328.098L329.618 236.274H329.68L331.2 231.618H332.454L329.981 238.419C329.866 238.731 329.721 238.996 329.543 239.212C329.366 239.431 329.155 239.595 328.911 239.704C328.666 239.813 328.382 239.868 328.059 239.868Z" fill="#0E0B3D"/>
</g>
<rect x="28" y="127" width="36.1008" height="36.1008" rx="18.0504" fill="#F7F9FC"/>
<path fill-rule="evenodd" clip-rule="evenodd" d="M40.1287 138.199C39.25 139.077 39.25 140.491 39.25 143.32V146.32C39.25 149.148 39.25 150.562 40.1287 151.441C41.0074 152.32 42.4216 152.32 45.25 152.32H46.75C49.5784 152.32 50.9926 152.32 51.8713 151.441C52.75 150.562 52.75 149.148 52.75 146.32V143.32C52.75 140.491 52.75 139.077 51.8713 138.199C50.9926 137.32 49.5784 137.32 46.75 137.32H45.25C42.4216 137.32 41.0074 137.32 40.1287 138.199ZM42.4375 141.82C42.4375 141.509 42.6893 141.257 43 141.257H49C49.3107 141.257 49.5625 141.509 49.5625 141.82C49.5625 142.13 49.3107 142.382 49 142.382H43C42.6893 142.382 42.4375 142.13 42.4375 141.82ZM42.4375 144.82C42.4375 144.509 42.6893 144.257 43 144.257H49C49.3107 144.257 49.5625 144.509 49.5625 144.82C49.5625 145.13 49.3107 145.382 49 145.382H43C42.6893 145.382 42.4375 145.13 42.4375 144.82ZM43 147.257C42.6893 147.257 42.4375 147.509 42.4375 147.82C42.4375 148.13 42.6893 148.382 43 148.382H46.75C47.0607 148.382 47.3125 148.13 47.3125 147.82C47.3125 147.509 47.0607 147.257 46.75 147.257H43Z" fill="#0E0B3D" fill-opacity="0.41"/>
<path d="M81.6144 130.273H83.2124L85.9908 137.057H86.093L88.8715 130.273H90.4695V139H89.2166V132.685H89.1357L86.5618 138.987H85.522L82.9482 132.681H82.8672V139H81.6144V130.273ZM92.967 141.455C92.7767 141.455 92.6034 141.439 92.4471 141.408C92.2909 141.379 92.1744 141.348 92.0977 141.314L92.4045 140.27C92.6375 140.333 92.8449 140.359 93.0267 140.351C93.2085 140.342 93.369 140.274 93.5082 140.146C93.6502 140.019 93.7752 139.81 93.8832 139.52L94.0409 139.085L91.646 132.455H93.0096L94.6673 137.534H94.7355L96.3931 132.455H97.761L95.0636 139.874C94.9386 140.215 94.7795 140.503 94.5863 140.739C94.3931 140.977 94.163 141.156 93.896 141.276C93.6289 141.395 93.3193 141.455 92.967 141.455ZM106.756 132.565C106.711 132.162 106.524 131.85 106.194 131.628C105.864 131.404 105.45 131.291 104.95 131.291C104.592 131.291 104.282 131.348 104.021 131.462C103.759 131.573 103.556 131.726 103.411 131.922C103.269 132.115 103.198 132.335 103.198 132.583C103.198 132.79 103.247 132.969 103.343 133.119C103.443 133.27 103.572 133.396 103.731 133.499C103.893 133.598 104.066 133.682 104.251 133.75C104.435 133.815 104.613 133.869 104.783 133.912L105.636 134.134C105.914 134.202 106.2 134.294 106.492 134.411C106.785 134.527 107.056 134.681 107.306 134.871C107.556 135.061 107.758 135.297 107.911 135.578C108.068 135.859 108.146 136.196 108.146 136.588C108.146 137.083 108.018 137.521 107.762 137.905C107.509 138.288 107.141 138.591 106.658 138.813C106.178 139.034 105.597 139.145 104.916 139.145C104.262 139.145 103.697 139.041 103.22 138.834C102.742 138.627 102.369 138.333 102.099 137.952C101.829 137.568 101.68 137.114 101.651 136.588H102.972C102.998 136.904 103.1 137.166 103.279 137.377C103.461 137.584 103.693 137.739 103.974 137.841C104.258 137.94 104.569 137.99 104.907 137.99C105.279 137.99 105.61 137.932 105.9 137.815C106.193 137.696 106.423 137.531 106.59 137.321C106.758 137.108 106.842 136.859 106.842 136.575C106.842 136.317 106.768 136.105 106.62 135.94C106.475 135.776 106.278 135.639 106.028 135.531C105.781 135.423 105.501 135.328 105.188 135.246L104.157 134.965C103.458 134.774 102.904 134.494 102.495 134.125C102.089 133.756 101.886 133.267 101.886 132.659C101.886 132.156 102.022 131.717 102.295 131.342C102.568 130.967 102.937 130.676 103.403 130.469C103.869 130.259 104.394 130.154 104.979 130.154C105.57 130.154 106.092 130.257 106.543 130.465C106.998 130.672 107.356 130.958 107.617 131.321C107.879 131.682 108.015 132.097 108.026 132.565H106.756ZM110.916 139L108.99 132.455H110.307L111.589 137.261H111.653L112.94 132.455H114.257L115.535 137.24H115.599L116.873 132.455H118.19L116.268 139H114.969L113.639 134.274H113.541L112.211 139H110.916ZM121.901 139.132C121.256 139.132 120.701 138.994 120.235 138.719C119.772 138.44 119.414 138.05 119.161 137.547C118.911 137.041 118.786 136.449 118.786 135.77C118.786 135.1 118.911 134.509 119.161 133.997C119.414 133.486 119.766 133.087 120.218 132.8C120.672 132.513 121.204 132.369 121.812 132.369C122.181 132.369 122.539 132.431 122.885 132.553C123.232 132.675 123.543 132.867 123.819 133.128C124.094 133.389 124.312 133.729 124.471 134.146C124.63 134.561 124.709 135.065 124.709 135.659V136.111H119.506V135.156H123.461C123.461 134.821 123.393 134.524 123.256 134.266C123.12 134.004 122.928 133.798 122.681 133.648C122.437 133.497 122.15 133.422 121.82 133.422C121.462 133.422 121.15 133.51 120.883 133.686C120.618 133.859 120.414 134.087 120.269 134.368C120.127 134.646 120.056 134.949 120.056 135.276V136.021C120.056 136.459 120.133 136.831 120.286 137.138C120.442 137.445 120.66 137.679 120.938 137.841C121.216 138 121.542 138.08 121.914 138.08C122.155 138.08 122.376 138.046 122.574 137.977C122.773 137.906 122.945 137.801 123.09 137.662C123.235 137.523 123.346 137.351 123.422 137.146L124.628 137.364C124.532 137.719 124.358 138.03 124.108 138.297C123.861 138.561 123.55 138.767 123.175 138.915C122.803 139.06 122.378 139.132 121.901 139.132ZM128.824 139.132C128.179 139.132 127.624 138.994 127.158 138.719C126.695 138.44 126.337 138.05 126.084 137.547C125.834 137.041 125.709 136.449 125.709 135.77C125.709 135.1 125.834 134.509 126.084 133.997C126.337 133.486 126.689 133.087 127.141 132.8C127.595 132.513 128.127 132.369 128.735 132.369C129.104 132.369 129.462 132.431 129.808 132.553C130.155 132.675 130.466 132.867 130.742 133.128C131.017 133.389 131.235 133.729 131.394 134.146C131.553 134.561 131.632 135.065 131.632 135.659V136.111H126.429V135.156H130.384C130.384 134.821 130.316 134.524 130.179 134.266C130.043 134.004 129.851 133.798 129.604 133.648C129.36 133.497 129.073 133.422 128.743 133.422C128.385 133.422 128.073 133.51 127.806 133.686C127.541 133.859 127.337 134.087 127.192 134.368C127.05 134.646 126.979 134.949 126.979 135.276V136.021C126.979 136.459 127.056 136.831 127.209 137.138C127.365 137.445 127.583 137.679 127.861 137.841C128.139 138 128.465 138.08 128.837 138.08C129.078 138.08 129.298 138.046 129.497 137.977C129.696 137.906 129.868 137.801 130.013 137.662C130.158 137.523 130.269 137.351 130.345 137.146L131.551 137.364C131.455 137.719 131.281 138.03 131.031 138.297C130.784 138.561 130.473 138.767 130.098 138.915C129.726 139.06 129.301 139.132 128.824 139.132ZM135.981 132.455V133.477H132.406V132.455H135.981ZM133.365 130.886H134.639V137.078C134.639 137.325 134.676 137.511 134.75 137.636C134.824 137.759 134.919 137.842 135.035 137.888C135.155 137.931 135.284 137.952 135.423 137.952C135.525 137.952 135.615 137.945 135.692 137.931C135.768 137.916 135.828 137.905 135.871 137.896L136.101 138.949C136.027 138.977 135.922 139.006 135.785 139.034C135.649 139.065 135.479 139.083 135.274 139.085C134.939 139.091 134.626 139.031 134.336 138.906C134.047 138.781 133.812 138.588 133.633 138.327C133.454 138.065 133.365 137.737 133.365 137.342V130.886ZM140.429 139V130.273H145.841V131.406H141.746V134.065H145.453V135.195H141.746V139H140.429ZM149.515 139.132C148.901 139.132 148.365 138.992 147.908 138.71C147.451 138.429 147.095 138.036 146.843 137.53C146.59 137.024 146.463 136.433 146.463 135.757C146.463 135.078 146.59 134.484 146.843 133.976C147.095 133.467 147.451 133.073 147.908 132.791C148.365 132.51 148.901 132.369 149.515 132.369C150.128 132.369 150.664 132.51 151.121 132.791C151.578 133.073 151.934 133.467 152.186 133.976C152.439 134.484 152.566 135.078 152.566 135.757C152.566 136.433 152.439 137.024 152.186 137.53C151.934 138.036 151.578 138.429 151.121 138.71C150.664 138.992 150.128 139.132 149.515 139.132ZM149.519 138.063C149.916 138.063 150.246 137.958 150.507 137.747C150.769 137.537 150.962 137.257 151.087 136.908C151.215 136.558 151.279 136.173 151.279 135.753C151.279 135.335 151.215 134.952 151.087 134.602C150.962 134.25 150.769 133.967 150.507 133.754C150.246 133.541 149.916 133.435 149.519 133.435C149.118 133.435 148.786 133.541 148.522 133.754C148.26 133.967 148.066 134.25 147.938 134.602C147.813 134.952 147.75 135.335 147.75 135.753C147.75 136.173 147.813 136.558 147.938 136.908C148.066 137.257 148.26 137.537 148.522 137.747C148.786 137.958 149.118 138.063 149.519 138.063ZM153.868 139V132.455H155.099V133.494H155.168C155.287 133.142 155.497 132.865 155.798 132.663C156.102 132.459 156.446 132.357 156.83 132.357C156.909 132.357 157.003 132.359 157.111 132.365C157.222 132.371 157.308 132.378 157.371 132.386V133.605C157.32 133.591 157.229 133.575 157.098 133.558C156.967 133.538 156.837 133.529 156.706 133.529C156.405 133.529 156.136 133.592 155.901 133.72C155.668 133.845 155.483 134.02 155.347 134.244C155.21 134.466 155.142 134.719 155.142 135.003V139H153.868ZM158.353 139V132.455H159.576V133.52H159.657C159.794 133.159 160.017 132.878 160.326 132.676C160.636 132.472 161.007 132.369 161.439 132.369C161.876 132.369 162.243 132.472 162.538 132.676C162.836 132.881 163.056 133.162 163.199 133.52H163.267C163.423 133.171 163.672 132.892 164.012 132.685C164.353 132.475 164.76 132.369 165.231 132.369C165.825 132.369 166.309 132.556 166.684 132.928C167.062 133.3 167.251 133.861 167.251 134.611V139H165.977V134.73C165.977 134.287 165.856 133.966 165.615 133.767C165.373 133.568 165.085 133.469 164.75 133.469C164.335 133.469 164.012 133.597 163.782 133.852C163.552 134.105 163.437 134.431 163.437 134.828V139H162.167V134.649C162.167 134.294 162.056 134.009 161.835 133.793C161.613 133.577 161.325 133.469 160.97 133.469C160.728 133.469 160.505 133.533 160.301 133.661C160.099 133.786 159.936 133.96 159.811 134.185C159.689 134.409 159.627 134.669 159.627 134.965V139H158.353Z" fill="#0E0B3D"/>
<path d="M81.3068 150.034L83.1818 153.06H83.2386L85.1136 150.034H86.1506L83.8636 153.671L86.1506 157.307H85.1136L83.2386 154.338H83.1818L81.3068 157.307H80.2699L82.6136 153.671L80.2699 150.034H81.3068ZM87.6175 150.034L89.4925 153.06H89.5494L91.4244 150.034H92.4613L90.1744 153.671L92.4613 157.307H91.4244L89.5494 154.338H89.4925L87.6175 157.307H86.5806L88.9244 153.671L86.5806 150.034H87.6175ZM93.9283 150.034L95.8033 153.06H95.8601L97.7351 150.034H98.772L96.4851 153.671L98.772 157.307H97.7351L95.8601 154.338H95.8033L93.9283 157.307H92.8913L95.2351 153.671L92.8913 150.034H93.9283ZM100.239 150.034L102.114 153.06H102.171L104.046 150.034H105.083L102.796 153.671L105.083 157.307H104.046L102.171 154.338H102.114L100.239 157.307H99.2021L101.546 153.671L99.2021 150.034H100.239ZM106.55 150.034L108.425 153.06H108.482L110.357 150.034H111.393L109.107 153.671L111.393 157.307H110.357L108.482 154.338H108.425L106.55 157.307H105.513L107.857 153.671L105.513 150.034H106.55ZM112.86 150.034L114.735 153.06H114.792L116.667 150.034H117.704L115.417 153.671L117.704 157.307H116.667L114.792 154.338H114.735L112.86 157.307H111.823L114.167 153.671L111.823 150.034H112.86ZM119.171 150.034L121.046 153.06H121.103L122.978 150.034H124.015L121.728 153.671L124.015 157.307H122.978L121.103 154.338H121.046L119.171 157.307H118.134L120.478 153.671L118.134 150.034H119.171ZM125.482 150.034L127.357 153.06H127.414L129.289 150.034H130.326L128.039 153.671L130.326 157.307H129.289L127.414 154.338H127.357L125.482 157.307H124.445L126.789 153.671L124.445 150.034H125.482Z" fill="#6C6F93"/>
<path d="M192.835 132.57V139.256H193.825V131.644H191.235V132.57H192.835ZM200.219 139.246V138.288H196.702L198.282 136.919C199.629 135.75 200.166 134.981 200.166 133.897C200.166 132.433 199.187 131.507 197.66 131.507C196.113 131.507 195.081 132.57 195.049 134.202H196.081C196.102 133.118 196.713 132.433 197.65 132.433C198.566 132.433 199.113 133.002 199.113 133.96C199.113 134.771 198.766 135.287 197.534 136.35L195.081 138.467V139.256L200.219 139.246ZM203.55 139.383C205.193 139.383 206.319 138.277 206.319 136.698C206.319 135.234 205.319 134.15 203.771 134.15C203.203 134.15 202.697 134.308 202.297 134.613L202.802 132.591H205.867V131.644H202.055L201.128 135.55L202.002 135.771C202.35 135.339 202.939 135.034 203.582 135.034C204.645 135.034 205.266 135.761 205.266 136.74C205.266 137.772 204.603 138.456 203.571 138.456C202.602 138.456 202.002 137.856 202.002 136.877H200.981C200.981 138.393 201.992 139.383 203.55 139.383ZM209.807 133.697C209.807 134.792 210.45 135.508 211.692 135.792L212.945 136.076C213.672 136.245 213.998 136.624 213.998 137.224C213.998 137.982 213.356 138.456 212.345 138.456C211.387 138.456 210.776 137.993 210.755 137.266H209.702C209.765 138.572 210.797 139.383 212.345 139.383C213.966 139.383 215.03 138.509 215.03 137.14C215.03 136.066 214.398 135.392 213.156 135.108L211.903 134.813C211.187 134.644 210.839 134.276 210.839 133.665C210.839 132.918 211.46 132.433 212.419 132.433C213.271 132.433 213.808 132.876 213.861 133.634H214.903C214.819 132.317 213.882 131.507 212.429 131.507C210.86 131.507 209.807 132.391 209.807 133.697ZM219.612 134.107V136.824C219.612 137.93 219.117 138.509 218.211 138.509C217.453 138.509 216.979 138.088 216.979 136.982V134.107H215.99V137.308C215.99 138.572 216.663 139.383 217.864 139.383C218.622 139.383 219.306 139.014 219.601 138.477L219.706 139.256H220.591V134.107H219.612ZM222.817 139.256L222.89 138.319C223.227 139.025 223.912 139.383 224.722 139.383C226.218 139.383 227.144 138.267 227.144 136.708C227.144 135.118 226.26 133.96 224.786 133.96C223.943 133.96 223.248 134.318 222.911 134.992V131.507H221.922V139.256H222.817ZM222.922 136.666C222.922 135.613 223.533 134.855 224.543 134.855C225.554 134.855 226.154 135.613 226.154 136.666C226.154 137.73 225.554 138.488 224.543 138.488C223.533 138.488 222.922 137.74 222.922 136.666ZM229.12 139.256V136.203C229.12 135.382 229.615 134.866 230.362 134.866C231.057 134.866 231.499 135.308 231.499 136.119V139.256H232.479V136.203C232.479 135.382 232.973 134.855 233.721 134.855C234.416 134.855 234.869 135.318 234.869 136.129V139.256H235.837V135.887C235.837 134.697 235.121 133.96 233.942 133.96C233.142 133.96 232.521 134.36 232.278 135.002C232.015 134.36 231.447 133.96 230.646 133.96C229.92 133.96 229.372 134.297 229.109 134.781L229.014 134.107H228.13V139.256H229.12ZM237.589 132.886C237.947 132.886 238.241 132.591 238.241 132.233C238.241 131.865 237.947 131.58 237.589 131.58C237.231 131.58 236.936 131.865 236.936 132.233C236.936 132.591 237.231 132.886 237.589 132.886ZM237.104 139.256H238.094V134.107H237.104V139.256ZM239.004 137.761C239.004 138.74 239.773 139.383 240.984 139.383C242.205 139.383 243.048 138.761 243.048 137.782C243.048 137.014 242.616 136.613 241.742 136.403L240.837 136.182C240.331 136.055 240.078 135.824 240.078 135.476C240.078 135.002 240.426 134.729 241.047 134.729C241.647 134.729 241.995 135.055 242.016 135.571H242.963C242.942 134.592 242.205 133.96 241.079 133.96C239.942 133.96 239.141 134.56 239.141 135.508C239.141 136.266 239.573 136.719 240.489 136.94L241.395 137.15C241.932 137.287 242.1 137.498 242.1 137.845C242.1 138.319 241.7 138.604 241.005 138.604C240.352 138.604 239.952 138.288 239.952 137.761H239.004ZM243.619 137.761C243.619 138.74 244.387 139.383 245.598 139.383C246.82 139.383 247.662 138.761 247.662 137.782C247.662 137.014 247.23 136.613 246.356 136.403L245.451 136.182C244.946 136.055 244.693 135.824 244.693 135.476C244.693 135.002 245.04 134.729 245.662 134.729C246.262 134.729 246.609 135.055 246.63 135.571H247.578C247.557 134.592 246.82 133.96 245.693 133.96C244.556 133.96 243.756 134.56 243.756 135.508C243.756 136.266 244.187 136.719 245.103 136.94L246.009 137.15C246.546 137.287 246.714 137.498 246.714 137.845C246.714 138.319 246.314 138.604 245.619 138.604C244.967 138.604 244.566 138.288 244.566 137.761H243.619ZM249.139 132.886C249.497 132.886 249.792 132.591 249.792 132.233C249.792 131.865 249.497 131.58 249.139 131.58C248.781 131.58 248.486 131.865 248.486 132.233C248.486 132.591 248.781 132.886 249.139 132.886ZM248.654 139.256H249.644V134.107H248.654V139.256ZM250.639 136.677C250.639 138.267 251.776 139.383 253.324 139.383C254.861 139.383 255.998 138.267 255.998 136.677C255.998 135.087 254.861 133.971 253.324 133.971C251.776 133.971 250.639 135.087 250.639 136.677ZM251.639 136.677C251.639 135.603 252.324 134.855 253.324 134.855C254.314 134.855 255.009 135.603 255.009 136.677C255.009 137.751 254.314 138.498 253.324 138.498C252.324 138.498 251.639 137.751 251.639 136.677ZM257.978 139.256V136.529C257.978 135.529 258.515 134.866 259.442 134.866C260.2 134.866 260.685 135.287 260.685 136.329V139.256H261.674V136.108C261.674 134.792 261.053 133.96 259.695 133.96C258.968 133.96 258.315 134.308 257.989 134.897L257.884 134.107H256.989V139.256H257.978ZM262.457 137.761C262.457 138.74 263.226 139.383 264.437 139.383C265.658 139.383 266.5 138.761 266.5 137.782C266.5 137.014 266.069 136.613 265.195 136.403L264.289 136.182C263.784 136.055 263.531 135.824 263.531 135.476C263.531 135.002 263.878 134.729 264.5 134.729C265.1 134.729 265.447 135.055 265.468 135.571H266.416C266.395 134.592 265.658 133.96 264.531 133.96C263.394 133.96 262.594 134.56 262.594 135.508C262.594 136.266 263.026 136.719 263.942 136.94L264.847 137.15C265.384 137.287 265.553 137.498 265.553 137.845C265.553 138.319 265.153 138.604 264.458 138.604C263.805 138.604 263.405 138.288 263.405 137.761H262.457Z" fill="#A0A7C4"/>
<path fill-rule="evenodd" clip-rule="evenodd" d="M331.014 139.313H332.986C333.112 139.312 333.222 139.312 333.326 139.329C333.736 139.394 334.091 139.65 334.283 140.019C334.332 140.112 334.367 140.216 334.406 140.336L334.472 140.532C334.483 140.565 334.486 140.574 334.488 140.581C334.591 140.864 334.855 141.055 335.156 141.062C335.164 141.062 335.173 141.063 335.208 141.063H336.958C337.2 141.063 337.396 141.258 337.396 141.5C337.396 141.742 337.2 141.938 336.958 141.938H327.042C326.8 141.938 326.604 141.742 326.604 141.5C326.604 141.258 326.8 141.063 327.042 141.063H328.792C328.827 141.063 328.836 141.062 328.844 141.062C329.144 141.055 329.409 140.864 329.511 140.581C329.514 140.574 329.517 140.565 329.528 140.532L329.593 140.336C329.633 140.216 329.668 140.112 329.716 140.019C329.908 139.65 330.263 139.394 330.674 139.329C330.777 139.312 330.887 139.312 331.014 139.313ZM330.255 141.063C330.285 141.004 330.311 140.942 330.334 140.879C330.341 140.86 330.348 140.839 330.357 140.813L330.415 140.638C330.468 140.479 330.48 140.446 330.493 140.423C330.556 140.3 330.675 140.215 330.812 140.193C330.838 140.189 330.872 140.188 331.04 140.188H332.959C333.128 140.188 333.162 140.189 333.188 140.193C333.325 140.215 333.443 140.3 333.507 140.423C333.519 140.446 333.532 140.479 333.585 140.638L333.643 140.813L333.666 140.879C333.689 140.942 333.715 141.004 333.745 141.063H330.255Z" fill="#6C6F93"/>
<path d="M328.45 142.929C328.434 142.688 328.226 142.506 327.985 142.522C327.744 142.538 327.561 142.746 327.577 142.987L327.848 147.043C327.897 147.791 327.938 148.395 328.032 148.87C328.13 149.363 328.298 149.775 328.643 150.097C328.988 150.42 329.41 150.56 329.908 150.625C330.388 150.688 330.994 150.688 331.744 150.688H332.256C333.006 150.688 333.612 150.688 334.091 150.625C334.59 150.56 335.012 150.42 335.357 150.097C335.702 149.775 335.869 149.363 335.968 148.87C336.062 148.395 336.102 147.791 336.152 147.043L336.423 142.987C336.439 142.746 336.256 142.538 336.015 142.522C335.774 142.506 335.566 142.688 335.549 142.929L335.281 146.954C335.229 147.74 335.191 148.287 335.109 148.699C335.03 149.098 334.919 149.309 334.759 149.458C334.6 149.608 334.382 149.704 333.978 149.757C333.562 149.812 333.013 149.813 332.225 149.813H331.774C330.986 149.813 330.438 149.812 330.022 149.757C329.618 149.704 329.4 149.608 329.24 149.458C329.081 149.309 328.97 149.098 328.89 148.699C328.808 148.287 328.771 147.74 328.719 146.954L328.45 142.929Z" fill="#6C6F93"/>
<path d="M330.498 143.981C330.738 143.957 330.953 144.133 330.977 144.373L331.269 147.29C331.293 147.53 331.117 147.745 330.877 147.769C330.636 147.793 330.422 147.617 330.398 147.377L330.106 144.46C330.082 144.22 330.258 144.005 330.498 143.981Z" fill="#6C6F93"/>
<path d="M333.502 143.981C333.742 144.005 333.918 144.22 333.894 144.46L333.602 147.377C333.578 147.617 333.363 147.793 333.123 147.769C332.883 147.745 332.707 147.53 332.731 147.29L333.023 144.373C333.047 144.133 333.261 143.957 333.502 143.981Z" fill="#6C6F93"/>
<path fill-rule="evenodd" clip-rule="evenodd" d="M355.469 139.177L356.313 139.177C356.537 139.177 356.719 139.359 356.719 139.583C356.719 139.808 356.537 139.99 356.313 139.99H355.5C354.212 139.99 353.287 139.99 352.583 140.085C351.89 140.178 351.473 140.355 351.164 140.664C350.855 140.972 350.678 141.39 350.585 142.082C350.491 142.787 350.49 143.712 350.49 145C350.49 146.288 350.491 147.214 350.585 147.918C350.678 148.61 350.855 149.028 351.164 149.336C351.473 149.645 351.89 149.822 352.583 149.915C353.287 150.01 354.212 150.01 355.5 150.01C356.788 150.01 357.714 150.01 358.418 149.915C359.11 149.822 359.528 149.645 359.836 149.336C360.145 149.028 360.322 148.61 360.415 147.918C360.51 147.214 360.511 146.288 360.511 145V144.188C360.511 143.963 360.692 143.781 360.917 143.781C361.141 143.781 361.323 143.963 361.323 144.188V145.031C361.323 146.281 361.323 147.261 361.22 148.026C361.115 148.809 360.896 149.426 360.411 149.911C359.926 150.395 359.309 150.615 358.526 150.72C357.762 150.823 356.782 150.823 355.531 150.823H355.469C354.219 150.823 353.239 150.823 352.474 150.72C351.692 150.615 351.074 150.395 350.589 149.911C350.105 149.426 349.885 148.809 349.78 148.026C349.677 147.261 349.677 146.281 349.677 145.031V144.969C349.677 143.719 349.677 142.739 349.78 141.974C349.885 141.192 350.105 140.574 350.589 140.089C351.074 139.605 351.692 139.385 352.474 139.28C353.239 139.177 354.219 139.177 355.469 139.177ZM358.084 139.733C358.825 138.992 360.026 138.992 360.767 139.733C361.508 140.474 361.508 141.675 360.767 142.416L357.166 146.017C356.965 146.218 356.839 146.344 356.699 146.454C356.533 146.583 356.354 146.694 356.164 146.784C356.003 146.861 355.834 146.917 355.565 147.007L353.991 147.531C353.701 147.628 353.381 147.553 353.164 147.336C352.948 147.12 352.872 146.799 352.969 146.509L353.493 144.936C353.583 144.666 353.639 144.497 353.716 144.336C353.806 144.146 353.917 143.967 354.046 143.802C354.156 143.661 354.282 143.535 354.483 143.334L358.084 139.733ZM360.193 140.307C359.769 139.884 359.082 139.884 358.659 140.307L358.455 140.511C358.467 140.563 358.484 140.625 358.508 140.694C358.586 140.918 358.733 141.213 359.01 141.49C359.288 141.768 359.582 141.914 359.806 141.992C359.875 142.016 359.937 142.033 359.989 142.045L360.193 141.841C360.616 141.418 360.616 140.731 360.193 140.307ZM359.349 142.686C359.069 142.565 358.744 142.373 358.436 142.065C358.128 141.756 357.935 141.431 357.815 141.151L355.076 143.89C354.851 144.115 354.762 144.205 354.687 144.301C354.594 144.42 354.515 144.549 354.45 144.685C354.397 144.796 354.357 144.915 354.256 145.218L354.022 145.919L354.581 146.479L355.283 146.245C355.585 146.144 355.704 146.103 355.815 146.051C355.951 145.986 356.08 145.906 356.199 145.813C356.295 145.738 356.385 145.65 356.61 145.424L359.349 142.686Z" fill="#6C6F93"/>
<path fill-rule="evenodd" clip-rule="evenodd" d="M379 142.812C377.792 142.812 376.812 143.792 376.812 145C376.812 146.208 377.792 147.187 379 147.187C380.208 147.187 381.187 146.208 381.187 145C381.187 143.792 380.208 142.812 379 142.812ZM377.687 145C377.687 144.275 378.275 143.687 379 143.687C379.725 143.687 380.312 144.275 380.312 145C380.312 145.725 379.725 146.312 379 146.312C378.275 146.312 377.687 145.725 377.687 145Z" fill="#6C6F93"/>
<path fill-rule="evenodd" clip-rule="evenodd" d="M378.985 138.729C378.726 138.729 378.509 138.729 378.332 138.741C378.147 138.754 377.972 138.781 377.803 138.851C377.41 139.014 377.097 139.326 376.934 139.719C376.85 139.924 376.827 140.14 376.818 140.374C376.811 140.563 376.716 140.72 376.575 140.801C376.435 140.882 376.251 140.886 376.085 140.797C375.877 140.688 375.679 140.6 375.459 140.571C375.038 140.515 374.611 140.63 374.274 140.889C374.128 141 374.017 141.138 373.914 141.292C373.814 141.44 373.706 141.627 373.577 141.852L373.562 141.877C373.432 142.102 373.324 142.289 373.246 142.449C373.164 142.616 373.1 142.781 373.076 142.962C373.021 143.384 373.135 143.811 373.394 144.148C373.529 144.324 373.704 144.452 373.903 144.577C374.062 144.677 374.151 144.838 374.151 145C374.151 145.162 374.062 145.323 373.903 145.423C373.704 145.548 373.529 145.676 373.394 145.852C373.135 146.189 373.021 146.616 373.076 147.037C373.1 147.219 373.164 147.384 373.246 147.551C373.324 147.711 373.432 147.898 373.562 148.123L373.576 148.148C373.706 148.373 373.814 148.56 373.914 148.708C374.017 148.862 374.128 149 374.273 149.111C374.611 149.37 375.038 149.484 375.459 149.429C375.679 149.4 375.877 149.312 376.085 149.202C376.251 149.114 376.435 149.118 376.575 149.199C376.716 149.28 376.811 149.437 376.818 149.626C376.827 149.86 376.85 150.076 376.934 150.281C377.097 150.674 377.41 150.986 377.803 151.149C377.972 151.219 378.147 151.246 378.332 151.259C378.509 151.271 378.726 151.271 378.985 151.271H379.015C379.274 151.271 379.49 151.271 379.668 151.259C379.853 151.246 380.028 151.219 380.197 151.149C380.59 150.986 380.902 150.674 381.065 150.281C381.15 150.076 381.173 149.86 381.182 149.626C381.189 149.437 381.284 149.28 381.424 149.199C381.564 149.118 381.748 149.114 381.915 149.202C382.122 149.312 382.321 149.4 382.54 149.429C382.962 149.484 383.389 149.37 383.726 149.111C383.872 148.999 383.982 148.862 384.086 148.708C384.185 148.56 384.293 148.373 384.423 148.148L384.438 148.123C384.567 147.898 384.676 147.711 384.754 147.551C384.836 147.384 384.899 147.219 384.923 147.037C384.979 146.616 384.865 146.189 384.606 145.852C384.471 145.676 384.295 145.548 384.097 145.423C383.937 145.323 383.849 145.162 383.849 145C383.849 144.838 383.937 144.677 384.097 144.577C384.295 144.452 384.471 144.324 384.606 144.148C384.865 143.811 384.979 143.384 384.923 142.962C384.899 142.781 384.836 142.616 384.754 142.449C384.676 142.289 384.568 142.102 384.438 141.877L384.423 141.852C384.294 141.627 384.185 141.44 384.086 141.292C383.983 141.138 383.872 141 383.726 140.889C383.389 140.63 382.962 140.515 382.54 140.571C382.321 140.6 382.122 140.688 381.915 140.797C381.748 140.886 381.565 140.882 381.424 140.801C381.284 140.72 381.189 140.563 381.182 140.374C381.173 140.14 381.15 139.924 381.065 139.719C380.902 139.326 380.59 139.014 380.197 138.851C380.028 138.781 379.853 138.754 379.668 138.741C379.49 138.729 379.274 138.729 379.015 138.729H378.985ZM378.137 139.66C378.182 139.641 378.251 139.624 378.391 139.614C378.536 139.604 378.722 139.604 379 139.604C379.278 139.604 379.464 139.604 379.608 139.614C379.749 139.624 379.817 139.641 379.862 139.66C380.041 139.734 380.183 139.876 380.257 140.054C380.28 140.111 380.299 140.198 380.307 140.407C380.325 140.869 380.563 141.314 380.987 141.559C381.41 141.803 381.915 141.787 382.324 141.571C382.508 141.474 382.594 141.446 382.654 141.439C382.846 141.413 383.04 141.465 383.193 141.583C383.232 141.613 383.281 141.663 383.36 141.78C383.44 141.9 383.534 142.061 383.673 142.302C383.812 142.543 383.905 142.704 383.968 142.834C384.03 142.961 384.049 143.028 384.056 143.077C384.081 143.268 384.029 143.462 383.911 143.616C383.874 143.664 383.808 143.725 383.631 143.836C383.24 144.082 382.974 144.511 382.974 145C382.974 145.489 383.24 145.918 383.631 146.164C383.808 146.275 383.874 146.336 383.911 146.384C384.029 146.538 384.081 146.732 384.056 146.923C384.049 146.972 384.03 147.039 383.968 147.166C383.905 147.296 383.812 147.457 383.673 147.698C383.534 147.938 383.44 148.1 383.36 148.22C383.281 148.337 383.232 148.387 383.193 148.417C383.04 148.535 382.846 148.587 382.654 148.561C382.594 148.553 382.508 148.526 382.324 148.429C381.915 148.213 381.41 148.197 380.987 148.441C380.563 148.686 380.325 149.131 380.307 149.593C380.299 149.801 380.28 149.889 380.257 149.946C380.183 150.124 380.041 150.266 379.862 150.34C379.817 150.359 379.749 150.376 379.608 150.386C379.464 150.396 379.278 150.396 379 150.396C378.722 150.396 378.536 150.396 378.391 150.386C378.251 150.376 378.182 150.359 378.137 150.34C377.959 150.266 377.817 150.124 377.743 149.946C377.719 149.889 377.7 149.801 377.692 149.593C377.675 149.131 377.436 148.686 377.013 148.441C376.589 148.197 376.085 148.213 375.676 148.429C375.491 148.526 375.406 148.553 375.345 148.561C375.153 148.587 374.96 148.535 374.806 148.417C374.767 148.387 374.718 148.337 374.64 148.22C374.559 148.1 374.466 147.938 374.327 147.698C374.188 147.457 374.095 147.296 374.031 147.166C373.969 147.039 373.95 146.972 373.944 146.923C373.919 146.732 373.97 146.538 374.088 146.384C374.125 146.336 374.192 146.275 374.368 146.164C374.76 145.918 375.026 145.489 375.026 145C375.026 144.511 374.76 144.082 374.368 143.836C374.192 143.725 374.125 143.664 374.088 143.616C373.971 143.462 373.919 143.268 373.944 143.077C373.95 143.028 373.969 142.96 374.031 142.834C374.095 142.704 374.188 142.543 374.327 142.302C374.466 142.061 374.559 141.9 374.64 141.78C374.718 141.663 374.768 141.613 374.806 141.583C374.96 141.465 375.154 141.413 375.345 141.438C375.406 141.446 375.491 141.474 375.676 141.571C376.085 141.787 376.589 141.803 377.013 141.559C377.436 141.314 377.675 140.869 377.692 140.407C377.7 140.198 377.719 140.111 377.743 140.054C377.817 139.876 377.959 139.734 378.137 139.66Z" fill="#6C6F93"/>
<rect x="24" y="19" width="10" height="10" rx="5" fill="#FA85A4"/>
<rect x="44" y="19" width="10" height="10" rx="5" fill="#FFE56E"/>
<rect x="64" y="19" width="10" height="10" rx="5" fill="#52E282"/>
<rect x="162" y="12" width="91" height="24" rx="12" fill="#F7F9FC"/>
<path d="M177.31 22.5455V23.3977H174.227V22.5455H177.31ZM175.072 28V21.9134C175.072 21.5724 175.147 21.2895 175.296 21.0646C175.445 20.8374 175.643 20.6681 175.889 20.5568C176.135 20.4432 176.403 20.3864 176.692 20.3864C176.905 20.3864 177.087 20.4041 177.239 20.4396C177.39 20.4728 177.503 20.5036 177.576 20.532L177.327 21.3913C177.278 21.3771 177.214 21.3606 177.136 21.3416C177.058 21.3203 176.963 21.3097 176.852 21.3097C176.594 21.3097 176.409 21.3736 176.298 21.5014C176.189 21.6293 176.134 21.8139 176.134 22.0554V28H175.072ZM180.488 28.1101C179.977 28.1101 179.53 27.9929 179.149 27.7585C178.768 27.5241 178.472 27.1963 178.261 26.7749C178.051 26.3535 177.945 25.861 177.945 25.2976C177.945 24.7318 178.051 24.237 178.261 23.8132C178.472 23.3894 178.768 23.0604 179.149 22.826C179.53 22.5916 179.977 22.4744 180.488 22.4744C180.999 22.4744 181.446 22.5916 181.827 22.826C182.208 23.0604 182.504 23.3894 182.714 23.8132C182.925 24.237 183.031 24.7318 183.031 25.2976C183.031 25.861 182.925 26.3535 182.714 26.7749C182.504 27.1963 182.208 27.5241 181.827 27.7585C181.446 27.9929 180.999 28.1101 180.488 28.1101ZM180.491 27.2188C180.823 27.2188 181.098 27.1312 181.315 26.956C181.533 26.7808 181.694 26.5476 181.798 26.2564C181.905 25.9652 181.958 25.6444 181.958 25.294C181.958 24.946 181.905 24.6264 181.798 24.3352C181.694 24.0417 181.533 23.8061 181.315 23.6286C181.098 23.451 180.823 23.3622 180.491 23.3622C180.158 23.3622 179.881 23.451 179.661 23.6286C179.443 23.8061 179.281 24.0417 179.174 24.3352C179.07 24.6264 179.018 24.946 179.018 25.294C179.018 25.6444 179.07 25.9652 179.174 26.2564C179.281 26.5476 179.443 26.7808 179.661 26.956C179.881 27.1312 180.158 27.2188 180.491 27.2188ZM184.216 28V22.5455H185.242V23.4119H185.299C185.398 23.1184 185.573 22.8875 185.824 22.7195C186.078 22.549 186.364 22.4638 186.684 22.4638C186.75 22.4638 186.828 22.4661 186.918 22.4709C187.01 22.4756 187.083 22.4815 187.135 22.4886V23.5043C187.092 23.4924 187.016 23.4794 186.907 23.4652C186.799 23.4486 186.69 23.4403 186.581 23.4403C186.33 23.4403 186.106 23.4936 185.91 23.6001C185.715 23.7043 185.562 23.8499 185.448 24.0369C185.334 24.2216 185.278 24.4323 185.278 24.669V28H184.216ZM188.054 28V22.5455H189.073V23.4332H189.14C189.254 23.1326 189.44 22.8982 189.698 22.7301C189.956 22.5597 190.265 22.4744 190.625 22.4744C190.989 22.4744 191.295 22.5597 191.541 22.7301C191.789 22.9006 191.973 23.1349 192.091 23.4332H192.148C192.278 23.142 192.485 22.91 192.77 22.7372C193.054 22.562 193.392 22.4744 193.785 22.4744C194.28 22.4744 194.684 22.6295 194.996 22.9396C195.311 23.2498 195.468 23.7173 195.468 24.3423V28H194.407V24.4418C194.407 24.0724 194.306 23.8049 194.105 23.6392C193.904 23.4735 193.663 23.3906 193.384 23.3906C193.038 23.3906 192.77 23.4972 192.578 23.7102C192.386 23.9209 192.29 24.192 192.29 24.5234V28H191.232V24.3743C191.232 24.0784 191.14 23.8404 190.955 23.6605C190.77 23.4806 190.53 23.3906 190.234 23.3906C190.033 23.3906 189.847 23.4439 189.676 23.5504C189.508 23.6546 189.372 23.8002 189.268 23.9872C189.166 24.1742 189.115 24.3909 189.115 24.6371V28H188.054ZM196.977 28V20.7273H198.039V23.4297H198.102C198.164 23.3161 198.253 23.1847 198.369 23.0355C198.485 22.8864 198.646 22.7562 198.852 22.6449C199.058 22.5312 199.33 22.4744 199.669 22.4744C200.109 22.4744 200.502 22.5857 200.847 22.8082C201.193 23.0308 201.464 23.3516 201.661 23.7706C201.86 24.1896 201.959 24.6939 201.959 25.2834C201.959 25.8729 201.861 26.3783 201.664 26.7997C201.468 27.2187 201.198 27.5419 200.855 27.7692C200.511 27.9941 200.119 28.1065 199.679 28.1065C199.348 28.1065 199.077 28.0509 198.866 27.9396C198.658 27.8284 198.494 27.6982 198.376 27.549C198.258 27.3999 198.166 27.2673 198.102 27.1513H198.014V28H196.977ZM198.017 25.2727C198.017 25.6562 198.073 25.9924 198.184 26.2812C198.295 26.5701 198.456 26.7962 198.667 26.9595C198.878 27.1205 199.136 27.201 199.441 27.201C199.758 27.201 200.024 27.117 200.237 26.9489C200.45 26.7784 200.611 26.5476 200.72 26.2564C200.831 25.9652 200.887 25.6373 200.887 25.2727C200.887 24.9129 200.832 24.5897 200.723 24.3033C200.617 24.0168 200.456 23.7907 200.24 23.625C200.027 23.4593 199.761 23.3764 199.441 23.3764C199.133 23.3764 198.873 23.4557 198.66 23.6143C198.449 23.773 198.289 23.9943 198.181 24.2784C198.072 24.5625 198.017 24.8939 198.017 25.2727ZM205.449 28.1101C204.938 28.1101 204.491 27.9929 204.11 27.7585C203.729 27.5241 203.433 27.1963 203.222 26.7749C203.012 26.3535 202.906 25.861 202.906 25.2976C202.906 24.7318 203.012 24.237 203.222 23.8132C203.433 23.3894 203.729 23.0604 204.11 22.826C204.491 22.5916 204.938 22.4744 205.449 22.4744C205.96 22.4744 206.406 22.5916 206.788 22.826C207.169 23.0604 207.465 23.3894 207.675 23.8132C207.886 24.237 207.991 24.7318 207.991 25.2976C207.991 25.861 207.886 26.3535 207.675 26.7749C207.465 27.1963 207.169 27.5241 206.788 27.7585C206.406 27.9929 205.96 28.1101 205.449 28.1101ZM205.452 27.2188C205.784 27.2188 206.058 27.1312 206.276 26.956C206.494 26.7808 206.655 26.5476 206.759 26.2564C206.866 25.9652 206.919 25.6444 206.919 25.294C206.919 24.946 206.866 24.6264 206.759 24.3352C206.655 24.0417 206.494 23.8061 206.276 23.6286C206.058 23.451 205.784 23.3622 205.452 23.3622C205.119 23.3622 204.842 23.451 204.621 23.6286C204.404 23.8061 204.241 24.0417 204.135 24.3352C204.031 24.6264 203.979 24.946 203.979 25.294C203.979 25.6444 204.031 25.9652 204.135 26.2564C204.241 26.5476 204.404 26.7808 204.621 26.956C204.842 27.1312 205.119 27.2188 205.452 27.2188ZM210.238 20.7273V28H209.177V20.7273H210.238ZM213.709 28.1065C213.268 28.1065 212.875 27.9941 212.53 27.7692C212.187 27.5419 211.917 27.2187 211.72 26.7997C211.526 26.3783 211.429 25.8729 211.429 25.2834C211.429 24.6939 211.527 24.1896 211.724 23.7706C211.923 23.3516 212.195 23.0308 212.54 22.8082C212.886 22.5857 213.278 22.4744 213.716 22.4744C214.054 22.4744 214.327 22.5312 214.533 22.6449C214.741 22.7562 214.902 22.8864 215.016 23.0355C215.132 23.1847 215.222 23.3161 215.286 23.4297H215.349V20.7273H216.411V28H215.374V27.1513H215.286C215.222 27.2673 215.129 27.3999 215.009 27.549C214.89 27.6982 214.727 27.8284 214.518 27.9396C214.31 28.0509 214.04 28.1065 213.709 28.1065ZM213.943 27.201C214.249 27.201 214.507 27.1205 214.717 26.9595C214.93 26.7962 215.091 26.5701 215.2 26.2812C215.312 25.9924 215.367 25.6562 215.367 25.2727C215.367 24.8939 215.313 24.5625 215.204 24.2784C215.095 23.9943 214.935 23.773 214.724 23.6143C214.514 23.4557 214.253 23.3764 213.943 23.3764C213.624 23.3764 213.357 23.4593 213.144 23.625C212.931 23.7907 212.77 24.0168 212.661 24.3033C212.555 24.5897 212.501 24.9129 212.501 25.2727C212.501 25.6373 212.556 25.9652 212.665 26.2564C212.774 26.5476 212.935 26.7784 213.148 26.9489C213.363 27.117 213.628 27.201 213.943 27.201ZM218.626 28.0675C218.432 28.0675 218.265 27.9988 218.126 27.8615C217.986 27.7218 217.916 27.5537 217.916 27.3572C217.916 27.1631 217.986 26.9974 218.126 26.8601C218.265 26.7204 218.432 26.6506 218.626 26.6506C218.82 26.6506 218.987 26.7204 219.127 26.8601C219.267 26.9974 219.336 27.1631 219.336 27.3572C219.336 27.4875 219.303 27.607 219.237 27.7159C219.173 27.8224 219.088 27.9077 218.981 27.9716C218.875 28.0355 218.756 28.0675 218.626 28.0675ZM223.056 28.1101C222.528 28.1101 222.074 27.9905 221.693 27.7514C221.314 27.5099 221.023 27.1773 220.819 26.7536C220.615 26.3298 220.514 25.8445 220.514 25.2976C220.514 24.7436 220.618 24.2547 220.826 23.831C221.035 23.4048 221.328 23.0722 221.707 22.8331C222.086 22.594 222.532 22.4744 223.046 22.4744C223.46 22.4744 223.829 22.5514 224.154 22.7053C224.478 22.8568 224.74 23.0698 224.938 23.3445C225.14 23.6191 225.259 23.9399 225.297 24.3068H224.264C224.207 24.0511 224.077 23.831 223.873 23.6463C223.672 23.4616 223.402 23.3693 223.063 23.3693C222.767 23.3693 222.508 23.4474 222.286 23.6037C222.066 23.7576 221.894 23.9777 221.771 24.2642C221.648 24.5483 221.586 24.8845 221.586 25.2727C221.586 25.6705 221.646 26.0137 221.767 26.3026C221.888 26.5914 222.058 26.8151 222.279 26.9737C222.501 27.1323 222.763 27.2116 223.063 27.2116C223.265 27.2116 223.447 27.175 223.61 27.1016C223.776 27.0258 223.914 26.9181 224.026 26.7784C224.139 26.6387 224.219 26.4706 224.264 26.2741H225.297C225.259 26.6269 225.144 26.9418 224.953 27.2188C224.761 27.4957 224.504 27.7135 224.182 27.8722C223.862 28.0308 223.487 28.1101 223.056 28.1101ZM228.73 28.1101C228.219 28.1101 227.772 27.9929 227.391 27.7585C227.01 27.5241 226.714 27.1963 226.504 26.7749C226.293 26.3535 226.188 25.861 226.188 25.2976C226.188 24.7318 226.293 24.237 226.504 23.8132C226.714 23.3894 227.01 23.0604 227.391 22.826C227.772 22.5916 228.219 22.4744 228.73 22.4744C229.241 22.4744 229.688 22.5916 230.069 22.826C230.45 23.0604 230.746 23.3894 230.957 23.8132C231.167 24.237 231.273 24.7318 231.273 25.2976C231.273 25.861 231.167 26.3535 230.957 26.7749C230.746 27.1963 230.45 27.5241 230.069 27.7585C229.688 27.9929 229.241 28.1101 228.73 28.1101ZM228.734 27.2188C229.065 27.2188 229.34 27.1312 229.558 26.956C229.775 26.7808 229.936 26.5476 230.04 26.2564C230.147 25.9652 230.2 25.6444 230.2 25.294C230.2 24.946 230.147 24.6264 230.04 24.3352C229.936 24.0417 229.775 23.8061 229.558 23.6286C229.34 23.451 229.065 23.3622 228.734 23.3622C228.4 23.3622 228.123 23.451 227.903 23.6286C227.685 23.8061 227.523 24.0417 227.416 24.3352C227.312 24.6264 227.26 24.946 227.26 25.294C227.26 25.6444 227.312 25.9652 227.416 26.2564C227.523 26.5476 227.685 26.7808 227.903 26.956C228.123 27.1312 228.4 27.2188 228.734 27.2188ZM232.458 28V22.5455H233.477V23.4332H233.545C233.658 23.1326 233.844 22.8982 234.102 22.7301C234.36 22.5597 234.669 22.4744 235.029 22.4744C235.394 22.4744 235.699 22.5597 235.945 22.7301C236.194 22.9006 236.377 23.1349 236.496 23.4332H236.552C236.683 23.142 236.89 22.91 237.174 22.7372C237.458 22.562 237.796 22.4744 238.189 22.4744C238.684 22.4744 239.088 22.6295 239.4 22.9396C239.715 23.2498 239.873 23.7173 239.873 24.3423V28H238.811V24.4418C238.811 24.0724 238.71 23.8049 238.509 23.6392C238.308 23.4735 238.068 23.3906 237.788 23.3906C237.443 23.3906 237.174 23.4972 236.982 23.7102C236.79 23.9209 236.694 24.192 236.694 24.5234V28H235.636V24.3743C235.636 24.0784 235.544 23.8404 235.359 23.6605C235.175 23.4806 234.934 23.3906 234.638 23.3906C234.437 23.3906 234.251 23.4439 234.081 23.5504C233.913 23.6546 233.777 23.8002 233.672 23.9872C233.571 24.1742 233.52 24.3909 233.52 24.6371V28H232.458Z" fill="#6C6F93"/>
<defs>
<filter id="filter0_d_198_10077" x="255" y="219.618" width="128" height="31" filterUnits="userSpaceOnUse" color-interpolation-filters="sRGB">
<feFlood flood-opacity="0" result="BackgroundImageFix"/>
<feColorMatrix in="SourceAlpha" type="matrix" values="0 0 0 0 0 0 0 0 0 0 0 0 0 0 0 0 0 0 127 0" result="hardAlpha"/>
<feOffset dy="1"/>
<feGaussianBlur stdDeviation="1"/>
<feComposite in2="hardAlpha" operator="out"/>
<feColorMatrix type="matrix" values="0 0 0 0 0.329531 0 0 0 0 0.33976 0 0 0 0 0.4625 0 0 0 0.1 0"/>
<feBlend mode="normal" in2="BackgroundImageFix" result="effect1_dropShadow_198_10077"/>
<feBlend mode="normal" in="SourceGraphic" in2="effect1_dropShadow_198_10077" result="shape"/>
</filter>
</defs>
</svg>
