<svg width="415" height="264" viewBox="0 0 415 264" fill="none" xmlns="http://www.w3.org/2000/svg">
<rect width="415" height="264" rx="10" fill="white"/>
<rect x="24" y="19" width="10" height="10" rx="5" fill="#FA85A4"/>
<rect x="44" y="19" width="10" height="10" rx="5" fill="#FFE56E"/>
<rect x="64" y="19" width="10" height="10" rx="5" fill="#52E282"/>
<rect x="162" y="12" width="91" height="24" rx="12" fill="#F7F9FC"/>
<path d="M177.31 22.5455V23.3977H174.227V22.5455H177.31ZM175.072 28V21.9134C175.072 21.5724 175.147 21.2895 175.296 21.0646C175.445 20.8374 175.643 20.6681 175.889 20.5568C176.135 20.4432 176.403 20.3864 176.692 20.3864C176.905 20.3864 177.087 20.4041 177.239 20.4396C177.39 20.4728 177.503 20.5036 177.576 20.532L177.327 21.3913C177.278 21.3771 177.214 21.3606 177.136 21.3416C177.058 21.3203 176.963 21.3097 176.852 21.3097C176.594 21.3097 176.409 21.3736 176.298 21.5014C176.189 21.6293 176.134 21.8139 176.134 22.0554V28H175.072ZM180.488 28.1101C179.977 28.1101 179.53 27.9929 179.149 27.7585C178.768 27.5241 178.472 27.1963 178.261 26.7749C178.051 26.3535 177.945 25.861 177.945 25.2976C177.945 24.7318 178.051 24.237 178.261 23.8132C178.472 23.3894 178.768 23.0604 179.149 22.826C179.53 22.5916 179.977 22.4744 180.488 22.4744C180.999 22.4744 181.446 22.5916 181.827 22.826C182.208 23.0604 182.504 23.3894 182.714 23.8132C182.925 24.237 183.031 24.7318 183.031 25.2976C183.031 25.861 182.925 26.3535 182.714 26.7749C182.504 27.1963 182.208 27.5241 181.827 27.7585C181.446 27.9929 180.999 28.1101 180.488 28.1101ZM180.491 27.2188C180.823 27.2188 181.098 27.1312 181.315 26.956C181.533 26.7808 181.694 26.5476 181.798 26.2564C181.905 25.9652 181.958 25.6444 181.958 25.294C181.958 24.946 181.905 24.6264 181.798 24.3352C181.694 24.0417 181.533 23.8061 181.315 23.6286C181.098 23.451 180.823 23.3622 180.491 23.3622C180.158 23.3622 179.881 23.451 179.661 23.6286C179.443 23.8061 179.281 24.0417 179.174 24.3352C179.07 24.6264 179.018 24.946 179.018 25.294C179.018 25.6444 179.07 25.9652 179.174 26.2564C179.281 26.5476 179.443 26.7808 179.661 26.956C179.881 27.1312 180.158 27.2188 180.491 27.2188ZM184.216 28V22.5455H185.242V23.4119H185.299C185.398 23.1184 185.573 22.8875 185.824 22.7195C186.078 22.549 186.364 22.4638 186.684 22.4638C186.75 22.4638 186.828 22.4661 186.918 22.4709C187.01 22.4756 187.083 22.4815 187.135 22.4886V23.5043C187.092 23.4924 187.016 23.4794 186.907 23.4652C186.799 23.4486 186.69 23.4403 186.581 23.4403C186.33 23.4403 186.106 23.4936 185.91 23.6001C185.715 23.7043 185.562 23.8499 185.448 24.0369C185.334 24.2216 185.278 24.4323 185.278 24.669V28H184.216ZM188.054 28V22.5455H189.073V23.4332H189.14C189.254 23.1326 189.44 22.8982 189.698 22.7301C189.956 22.5597 190.265 22.4744 190.625 22.4744C190.989 22.4744 191.295 22.5597 191.541 22.7301C191.789 22.9006 191.973 23.1349 192.091 23.4332H192.148C192.278 23.142 192.485 22.91 192.77 22.7372C193.054 22.562 193.392 22.4744 193.785 22.4744C194.28 22.4744 194.684 22.6295 194.996 22.9396C195.311 23.2498 195.468 23.7173 195.468 24.3423V28H194.407V24.4418C194.407 24.0724 194.306 23.8049 194.105 23.6392C193.904 23.4735 193.663 23.3906 193.384 23.3906C193.038 23.3906 192.77 23.4972 192.578 23.7102C192.386 23.9209 192.29 24.192 192.29 24.5234V28H191.232V24.3743C191.232 24.0784 191.14 23.8404 190.955 23.6605C190.77 23.4806 190.53 23.3906 190.234 23.3906C190.033 23.3906 189.847 23.4439 189.676 23.5504C189.508 23.6546 189.372 23.8002 189.268 23.9872C189.166 24.1742 189.115 24.3909 189.115 24.6371V28H188.054ZM196.977 28V20.7273H198.039V23.4297H198.102C198.164 23.3161 198.253 23.1847 198.369 23.0355C198.485 22.8864 198.646 22.7562 198.852 22.6449C199.058 22.5312 199.33 22.4744 199.669 22.4744C200.109 22.4744 200.502 22.5857 200.847 22.8082C201.193 23.0308 201.464 23.3516 201.661 23.7706C201.86 24.1896 201.959 24.6939 201.959 25.2834C201.959 25.8729 201.861 26.3783 201.664 26.7997C201.468 27.2187 201.198 27.5419 200.855 27.7692C200.511 27.9941 200.119 28.1065 199.679 28.1065C199.348 28.1065 199.077 28.0509 198.866 27.9396C198.658 27.8284 198.494 27.6982 198.376 27.549C198.258 27.3999 198.166 27.2673 198.102 27.1513H198.014V28H196.977ZM198.017 25.2727C198.017 25.6562 198.073 25.9924 198.184 26.2812C198.295 26.5701 198.456 26.7962 198.667 26.9595C198.878 27.1205 199.136 27.201 199.441 27.201C199.758 27.201 200.024 27.117 200.237 26.9489C200.45 26.7784 200.611 26.5476 200.72 26.2564C200.831 25.9652 200.887 25.6373 200.887 25.2727C200.887 24.9129 200.832 24.5897 200.723 24.3033C200.617 24.0168 200.456 23.7907 200.24 23.625C200.027 23.4593 199.761 23.3764 199.441 23.3764C199.133 23.3764 198.873 23.4557 198.66 23.6143C198.449 23.773 198.289 23.9943 198.181 24.2784C198.072 24.5625 198.017 24.8939 198.017 25.2727ZM205.449 28.1101C204.938 28.1101 204.491 27.9929 204.11 27.7585C203.729 27.5241 203.433 27.1963 203.222 26.7749C203.012 26.3535 202.906 25.861 202.906 25.2976C202.906 24.7318 203.012 24.237 203.222 23.8132C203.433 23.3894 203.729 23.0604 204.11 22.826C204.491 22.5916 204.938 22.4744 205.449 22.4744C205.96 22.4744 206.406 22.5916 206.788 22.826C207.169 23.0604 207.465 23.3894 207.675 23.8132C207.886 24.237 207.991 24.7318 207.991 25.2976C207.991 25.861 207.886 26.3535 207.675 26.7749C207.465 27.1963 207.169 27.5241 206.788 27.7585C206.406 27.9929 205.96 28.1101 205.449 28.1101ZM205.452 27.2188C205.784 27.2188 206.058 27.1312 206.276 26.956C206.494 26.7808 206.655 26.5476 206.759 26.2564C206.866 25.9652 206.919 25.6444 206.919 25.294C206.919 24.946 206.866 24.6264 206.759 24.3352C206.655 24.0417 206.494 23.8061 206.276 23.6286C206.058 23.451 205.784 23.3622 205.452 23.3622C205.119 23.3622 204.842 23.451 204.621 23.6286C204.404 23.8061 204.241 24.0417 204.135 24.3352C204.031 24.6264 203.979 24.946 203.979 25.294C203.979 25.6444 204.031 25.9652 204.135 26.2564C204.241 26.5476 204.404 26.7808 204.621 26.956C204.842 27.1312 205.119 27.2188 205.452 27.2188ZM210.238 20.7273V28H209.177V20.7273H210.238ZM213.709 28.1065C213.268 28.1065 212.875 27.9941 212.53 27.7692C212.187 27.5419 211.917 27.2187 211.72 26.7997C211.526 26.3783 211.429 25.8729 211.429 25.2834C211.429 24.6939 211.527 24.1896 211.724 23.7706C211.923 23.3516 212.195 23.0308 212.54 22.8082C212.886 22.5857 213.278 22.4744 213.716 22.4744C214.054 22.4744 214.327 22.5312 214.533 22.6449C214.741 22.7562 214.902 22.8864 215.016 23.0355C215.132 23.1847 215.222 23.3161 215.286 23.4297H215.349V20.7273H216.411V28H215.374V27.1513H215.286C215.222 27.2673 215.129 27.3999 215.009 27.549C214.89 27.6982 214.727 27.8284 214.518 27.9396C214.31 28.0509 214.04 28.1065 213.709 28.1065ZM213.943 27.201C214.249 27.201 214.507 27.1205 214.717 26.9595C214.93 26.7962 215.091 26.5701 215.2 26.2812C215.312 25.9924 215.367 25.6562 215.367 25.2727C215.367 24.8939 215.313 24.5625 215.204 24.2784C215.095 23.9943 214.935 23.773 214.724 23.6143C214.514 23.4557 214.253 23.3764 213.943 23.3764C213.624 23.3764 213.357 23.4593 213.144 23.625C212.931 23.7907 212.77 24.0168 212.661 24.3033C212.555 24.5897 212.501 24.9129 212.501 25.2727C212.501 25.6373 212.556 25.9652 212.665 26.2564C212.774 26.5476 212.935 26.7784 213.148 26.9489C213.363 27.117 213.628 27.201 213.943 27.201ZM218.626 28.0675C218.432 28.0675 218.265 27.9988 218.126 27.8615C217.986 27.7218 217.916 27.5537 217.916 27.3572C217.916 27.1631 217.986 26.9974 218.126 26.8601C218.265 26.7204 218.432 26.6506 218.626 26.6506C218.82 26.6506 218.987 26.7204 219.127 26.8601C219.267 26.9974 219.336 27.1631 219.336 27.3572C219.336 27.4875 219.303 27.607 219.237 27.7159C219.173 27.8224 219.088 27.9077 218.981 27.9716C218.875 28.0355 218.756 28.0675 218.626 28.0675ZM223.056 28.1101C222.528 28.1101 222.074 27.9905 221.693 27.7514C221.314 27.5099 221.023 27.1773 220.819 26.7536C220.615 26.3298 220.514 25.8445 220.514 25.2976C220.514 24.7436 220.618 24.2547 220.826 23.831C221.035 23.4048 221.328 23.0722 221.707 22.8331C222.086 22.594 222.532 22.4744 223.046 22.4744C223.46 22.4744 223.829 22.5514 224.154 22.7053C224.478 22.8568 224.74 23.0698 224.938 23.3445C225.14 23.6191 225.259 23.9399 225.297 24.3068H224.264C224.207 24.0511 224.077 23.831 223.873 23.6463C223.672 23.4616 223.402 23.3693 223.063 23.3693C222.767 23.3693 222.508 23.4474 222.286 23.6037C222.066 23.7576 221.894 23.9777 221.771 24.2642C221.648 24.5483 221.586 24.8845 221.586 25.2727C221.586 25.6705 221.646 26.0137 221.767 26.3026C221.888 26.5914 222.058 26.8151 222.279 26.9737C222.501 27.1323 222.763 27.2116 223.063 27.2116C223.265 27.2116 223.447 27.175 223.61 27.1016C223.776 27.0258 223.914 26.9181 224.026 26.7784C224.139 26.6387 224.219 26.4706 224.264 26.2741H225.297C225.259 26.6269 225.144 26.9418 224.953 27.2188C224.761 27.4957 224.504 27.7135 224.182 27.8722C223.862 28.0308 223.487 28.1101 223.056 28.1101ZM228.73 28.1101C228.219 28.1101 227.772 27.9929 227.391 27.7585C227.01 27.5241 226.714 27.1963 226.504 26.7749C226.293 26.3535 226.188 25.861 226.188 25.2976C226.188 24.7318 226.293 24.237 226.504 23.8132C226.714 23.3894 227.01 23.0604 227.391 22.826C227.772 22.5916 228.219 22.4744 228.73 22.4744C229.241 22.4744 229.688 22.5916 230.069 22.826C230.45 23.0604 230.746 23.3894 230.957 23.8132C231.167 24.237 231.273 24.7318 231.273 25.2976C231.273 25.861 231.167 26.3535 230.957 26.7749C230.746 27.1963 230.45 27.5241 230.069 27.7585C229.688 27.9929 229.241 28.1101 228.73 28.1101ZM228.734 27.2188C229.065 27.2188 229.34 27.1312 229.558 26.956C229.775 26.7808 229.936 26.5476 230.04 26.2564C230.147 25.9652 230.2 25.6444 230.2 25.294C230.2 24.946 230.147 24.6264 230.04 24.3352C229.936 24.0417 229.775 23.8061 229.558 23.6286C229.34 23.451 229.065 23.3622 228.734 23.3622C228.4 23.3622 228.123 23.451 227.903 23.6286C227.685 23.8061 227.523 24.0417 227.416 24.3352C227.312 24.6264 227.26 24.946 227.26 25.294C227.26 25.6444 227.312 25.9652 227.416 26.2564C227.523 26.5476 227.685 26.7808 227.903 26.956C228.123 27.1312 228.4 27.2188 228.734 27.2188ZM232.458 28V22.5455H233.477V23.4332H233.545C233.658 23.1326 233.844 22.8982 234.102 22.7301C234.36 22.5597 234.669 22.4744 235.029 22.4744C235.394 22.4744 235.699 22.5597 235.945 22.7301C236.194 22.9006 236.377 23.1349 236.496 23.4332H236.552C236.683 23.142 236.89 22.91 237.174 22.7372C237.458 22.562 237.796 22.4744 238.189 22.4744C238.684 22.4744 239.088 22.6295 239.4 22.9396C239.715 23.2498 239.873 23.7173 239.873 24.3423V28H238.811V24.4418C238.811 24.0724 238.71 23.8049 238.509 23.6392C238.308 23.4735 238.068 23.3906 237.788 23.3906C237.443 23.3906 237.174 23.4972 236.982 23.7102C236.79 23.9209 236.694 24.192 236.694 24.5234V28H235.636V24.3743C235.636 24.0784 235.544 23.8404 235.359 23.6605C235.175 23.4806 234.934 23.3906 234.638 23.3906C234.437 23.3906 234.251 23.4439 234.081 23.5504C233.913 23.6546 233.777 23.8002 233.672 23.9872C233.571 24.1742 233.52 24.3909 233.52 24.6371V28H232.458Z" fill="#6C6F93"/>
<path d="M25.0568 81V72.2727H30.3239V73.2102H26.1136V76.1591H30.0511V77.0966H26.1136V80.0625H30.392V81H25.0568ZM31.9723 81V74.4545H32.9439V75.4773H33.0291C33.1655 75.1278 33.3857 74.8565 33.6897 74.6634C33.9936 74.4673 34.3587 74.3693 34.7848 74.3693C35.2166 74.3693 35.576 74.4673 35.863 74.6634C36.1527 74.8565 36.3786 75.1278 36.5405 75.4773H36.6087C36.7763 75.1392 37.0277 74.8707 37.363 74.6719C37.6982 74.4702 38.1002 74.3693 38.5689 74.3693C39.1541 74.3693 39.6328 74.5526 40.005 74.919C40.3772 75.2827 40.5632 75.8494 40.5632 76.6193V81H39.5576V76.6193C39.5576 76.1364 39.4255 75.7912 39.1613 75.5838C38.897 75.3764 38.586 75.2727 38.228 75.2727C37.7678 75.2727 37.4113 75.4119 37.1584 75.6903C36.9056 75.9659 36.7791 76.3153 36.7791 76.7386V81H35.7564V76.517C35.7564 76.1449 35.6357 75.8452 35.3942 75.6179C35.1527 75.3878 34.8416 75.2727 34.461 75.2727C34.1996 75.2727 33.9553 75.3423 33.728 75.4815C33.5036 75.6207 33.3218 75.8139 33.1826 76.0611C33.0462 76.3054 32.978 76.5881 32.978 76.9091V81H31.9723ZM44.2082 81.1534C43.7934 81.1534 43.417 81.0753 43.0789 80.919C42.7408 80.7599 42.4724 80.5312 42.2735 80.233C42.0746 79.9318 41.9752 79.5682 41.9752 79.142C41.9752 78.767 42.0491 78.4631 42.1968 78.2301C42.3445 77.9943 42.542 77.8097 42.7891 77.6761C43.0363 77.5426 43.309 77.4432 43.6073 77.3778C43.9084 77.3097 44.211 77.2557 44.515 77.2159C44.9127 77.1648 45.2351 77.1264 45.4823 77.1009C45.7323 77.0724 45.9141 77.0256 46.0278 76.9602C46.1442 76.8949 46.2025 76.7812 46.2025 76.6193V76.5852C46.2025 76.1648 46.0874 75.8381 45.8573 75.6051C45.63 75.3722 45.2849 75.2557 44.8218 75.2557C44.3417 75.2557 43.9653 75.3608 43.6925 75.571C43.4198 75.7812 43.228 76.0057 43.1172 76.2443L42.1627 75.9034C42.3332 75.5057 42.5604 75.196 42.8445 74.9744C43.1314 74.75 43.4439 74.5937 43.782 74.5057C44.1229 74.4148 44.4582 74.3693 44.7877 74.3693C44.9979 74.3693 45.2394 74.3949 45.5121 74.446C45.7877 74.4943 46.0533 74.5952 46.309 74.7486C46.5675 74.902 46.782 75.1335 46.9525 75.4432C47.1229 75.7528 47.2082 76.1676 47.2082 76.6875V81H46.2025V80.1136H46.1513C46.0832 80.2557 45.9695 80.4077 45.8104 80.5696C45.6513 80.7315 45.4397 80.8693 45.1755 80.983C44.9113 81.0966 44.5888 81.1534 44.2082 81.1534ZM44.3616 80.25C44.7593 80.25 45.0945 80.1719 45.3672 80.0156C45.6428 79.8594 45.8502 79.6577 45.9894 79.4105C46.1314 79.1634 46.2025 78.9034 46.2025 78.6307V77.7102C46.1599 77.7614 46.0661 77.8082 45.9212 77.8509C45.7792 77.8906 45.6144 77.9261 45.4269 77.9574C45.2422 77.9858 45.0618 78.0114 44.8857 78.0341C44.7124 78.054 44.5718 78.071 44.4638 78.0852C44.2025 78.1193 43.9582 78.1747 43.7309 78.2514C43.5064 78.3253 43.3246 78.4375 43.1854 78.5881C43.0491 78.7358 42.9809 78.9375 42.9809 79.1932C42.9809 79.5426 43.1101 79.8068 43.3687 79.9858C43.63 80.1619 43.961 80.25 44.3616 80.25ZM48.9237 81V74.4545H49.9294V81H48.9237ZM49.4351 73.3636C49.2391 73.3636 49.07 73.2969 48.928 73.1634C48.7888 73.0298 48.7192 72.8693 48.7192 72.6818C48.7192 72.4943 48.7888 72.3338 48.928 72.2003C49.07 72.0668 49.2391 72 49.4351 72C49.6311 72 49.7987 72.0668 49.9379 72.2003C50.08 72.3338 50.151 72.4943 50.151 72.6818C50.151 72.8693 50.08 73.0298 49.9379 73.1634C49.7987 73.2969 49.6311 73.3636 49.4351 73.3636ZM52.6571 72.2727V81H51.6514V72.2727H52.6571Z" fill="#0E0B3D"/>
<rect x="24" y="90" width="367" height="32" rx="6" fill="#F7F9FC"/>
<g clip-path="url(#clip0_198_10035)">
<path d="M39.6648 110.636C39.0341 110.636 38.4901 110.497 38.0327 110.219C37.5781 109.938 37.2273 109.545 36.9801 109.043C36.7358 108.537 36.6136 107.949 36.6136 107.278C36.6136 106.608 36.7358 106.017 36.9801 105.506C37.2273 104.991 37.571 104.591 38.0114 104.304C38.4545 104.014 38.9716 103.869 39.5625 103.869C39.9034 103.869 40.2401 103.926 40.5724 104.04C40.9048 104.153 41.2074 104.338 41.4801 104.594C41.7528 104.847 41.9702 105.182 42.1321 105.599C42.294 106.017 42.375 106.531 42.375 107.142V107.568H37.3295V106.699H41.3523C41.3523 106.33 41.2784 106 41.1307 105.71C40.9858 105.42 40.7784 105.192 40.5085 105.024C40.2415 104.857 39.9261 104.773 39.5625 104.773C39.1619 104.773 38.8153 104.872 38.5227 105.071C38.233 105.267 38.0099 105.523 37.8537 105.838C37.6974 106.153 37.6193 106.491 37.6193 106.852V107.432C37.6193 107.926 37.7045 108.345 37.875 108.689C38.0483 109.03 38.2884 109.29 38.5952 109.469C38.902 109.645 39.2585 109.733 39.6648 109.733C39.929 109.733 40.1676 109.696 40.3807 109.622C40.5966 109.545 40.7827 109.432 40.9389 109.281C41.0952 109.128 41.2159 108.937 41.3011 108.71L42.2727 108.983C42.1705 109.312 41.9986 109.602 41.7571 109.852C41.5156 110.099 41.2173 110.293 40.8622 110.432C40.5071 110.568 40.108 110.636 39.6648 110.636ZM44.359 103.955L45.9272 106.631L47.4954 103.955H48.6545L46.5409 107.227L48.6545 110.5H47.4954L45.9272 107.96L44.359 110.5H43.2L45.2795 107.227L43.2 103.955H44.359ZM51.8957 110.653C51.4809 110.653 51.1045 110.575 50.7664 110.419C50.4283 110.26 50.1599 110.031 49.961 109.733C49.7621 109.432 49.6627 109.068 49.6627 108.642C49.6627 108.267 49.7366 107.963 49.8843 107.73C50.032 107.494 50.2295 107.31 50.4766 107.176C50.7238 107.043 50.9965 106.943 51.2948 106.878C51.5959 106.81 51.8985 106.756 52.2025 106.716C52.6002 106.665 52.9226 106.626 53.1698 106.601C53.4198 106.572 53.6016 106.526 53.7153 106.46C53.8317 106.395 53.89 106.281 53.89 106.119V106.085C53.89 105.665 53.7749 105.338 53.5448 105.105C53.3175 104.872 52.9724 104.756 52.5093 104.756C52.0292 104.756 51.6528 104.861 51.38 105.071C51.1073 105.281 50.9155 105.506 50.8047 105.744L49.8502 105.403C50.0207 105.006 50.2479 104.696 50.532 104.474C50.8189 104.25 51.1314 104.094 51.4695 104.006C51.8104 103.915 52.1457 103.869 52.4752 103.869C52.6854 103.869 52.9269 103.895 53.1996 103.946C53.4752 103.994 53.7408 104.095 53.9965 104.249C54.255 104.402 54.4695 104.634 54.64 104.943C54.8104 105.253 54.8957 105.668 54.8957 106.188V110.5H53.89V109.614H53.8388C53.7707 109.756 53.657 109.908 53.4979 110.07C53.3388 110.232 53.1272 110.369 52.863 110.483C52.5988 110.597 52.2763 110.653 51.8957 110.653ZM52.0491 109.75C52.4468 109.75 52.782 109.672 53.0547 109.516C53.3303 109.359 53.5377 109.158 53.6769 108.911C53.8189 108.663 53.89 108.403 53.89 108.131V107.21C53.8474 107.261 53.7536 107.308 53.6087 107.351C53.4667 107.391 53.3019 107.426 53.1144 107.457C52.9297 107.486 52.7493 107.511 52.5732 107.534C52.3999 107.554 52.2593 107.571 52.1513 107.585C51.89 107.619 51.6457 107.675 51.4184 107.751C51.1939 107.825 51.0121 107.937 50.8729 108.088C50.7366 108.236 50.6684 108.437 50.6684 108.693C50.6684 109.043 50.7976 109.307 51.0562 109.486C51.3175 109.662 51.6485 109.75 52.0491 109.75ZM56.6112 110.5V103.955H57.5828V104.977H57.6681C57.8044 104.628 58.0246 104.357 58.3286 104.163C58.6325 103.967 58.9976 103.869 59.4237 103.869C59.8556 103.869 60.2149 103.967 60.5019 104.163C60.7916 104.357 61.0175 104.628 61.1794 104.977H61.2476C61.4152 104.639 61.6666 104.371 62.0019 104.172C62.3371 103.97 62.7391 103.869 63.2078 103.869C63.7931 103.869 64.2717 104.053 64.6439 104.419C65.0161 104.783 65.2021 105.349 65.2021 106.119V110.5H64.1965V106.119C64.1965 105.636 64.0644 105.291 63.8002 105.084C63.536 104.876 63.2249 104.773 62.8669 104.773C62.4067 104.773 62.0502 104.912 61.7973 105.19C61.5445 105.466 61.4181 105.815 61.4181 106.239V110.5H60.3953V106.017C60.3953 105.645 60.2746 105.345 60.0331 105.118C59.7916 104.888 59.4806 104.773 59.0999 104.773C58.8385 104.773 58.5942 104.842 58.3669 104.982C58.1425 105.121 57.9607 105.314 57.8215 105.561C57.6851 105.805 57.6169 106.088 57.6169 106.409V110.5H56.6112ZM66.9209 112.955V103.955H67.8925V104.994H68.0118C68.0857 104.881 68.188 104.736 68.3187 104.56C68.4522 104.381 68.6425 104.222 68.8897 104.082C69.1397 103.94 69.4777 103.869 69.9039 103.869C70.455 103.869 70.9408 104.007 71.3613 104.283C71.7817 104.558 72.1098 104.949 72.3456 105.455C72.5814 105.96 72.6993 106.557 72.6993 107.244C72.6993 107.938 72.5814 108.538 72.3456 109.047C72.1098 109.553 71.7831 109.945 71.3655 110.223C70.9479 110.499 70.4664 110.636 69.9209 110.636C69.5005 110.636 69.1638 110.567 68.911 110.428C68.6581 110.286 68.4635 110.125 68.3272 109.946C68.1908 109.764 68.0857 109.614 68.0118 109.494H67.9266V112.955H66.9209ZM67.9096 107.227C67.9096 107.722 67.982 108.158 68.1269 108.536C68.2718 108.911 68.4834 109.205 68.7618 109.418C69.0402 109.628 69.3812 109.733 69.7846 109.733C70.205 109.733 70.5559 109.622 70.8371 109.401C71.1212 109.176 71.3343 108.875 71.4763 108.497C71.6212 108.116 71.6937 107.693 71.6937 107.227C71.6937 106.767 71.6226 106.352 71.4806 105.983C71.3414 105.611 71.1297 105.317 70.8456 105.101C70.5644 104.882 70.2107 104.773 69.7846 104.773C69.3755 104.773 69.0317 104.876 68.7533 105.084C68.4749 105.288 68.2647 105.575 68.1226 105.945C67.9806 106.311 67.9096 106.739 67.9096 107.227ZM75.1191 101.773V110.5H74.1134V101.773H75.1191ZM79.5854 110.636C78.9547 110.636 78.4107 110.497 77.9533 110.219C77.4987 109.938 77.1479 109.545 76.9007 109.043C76.6564 108.537 76.5343 107.949 76.5343 107.278C76.5343 106.608 76.6564 106.017 76.9007 105.506C77.1479 104.991 77.4916 104.591 77.932 104.304C78.3752 104.014 78.8922 103.869 79.4831 103.869C79.824 103.869 80.1607 103.926 80.4931 104.04C80.8255 104.153 81.128 104.338 81.4007 104.594C81.6735 104.847 81.8908 105.182 82.0527 105.599C82.2147 106.017 82.2956 106.531 82.2956 107.142V107.568H77.2502V106.699H81.2729C81.2729 106.33 81.199 106 81.0513 105.71C80.9064 105.42 80.699 105.192 80.4291 105.024C80.1621 104.857 79.8468 104.773 79.4831 104.773C79.0826 104.773 78.736 104.872 78.4434 105.071C78.1536 105.267 77.9306 105.523 77.7743 105.838C77.6181 106.153 77.5399 106.491 77.5399 106.852V107.432C77.5399 107.926 77.6252 108.345 77.7956 108.689C77.9689 109.03 78.209 109.29 78.5158 109.469C78.8226 109.645 79.1791 109.733 79.5854 109.733C79.8496 109.733 80.0882 109.696 80.3013 109.622C80.5172 109.545 80.7033 109.432 80.8595 109.281C81.0158 109.128 81.1365 108.937 81.2218 108.71L82.1934 108.983C82.0911 109.312 81.9192 109.602 81.6777 109.852C81.4362 110.099 81.138 110.293 80.7828 110.432C80.4277 110.568 80.0286 110.636 79.5854 110.636ZM88.7339 112.801C87.8645 112.801 87.0961 112.682 86.4285 112.443C85.7609 112.207 85.1998 111.859 84.7452 111.399C84.2907 110.939 83.9469 110.375 83.714 109.707C83.481 109.04 83.3645 108.276 83.3645 107.415C83.3645 106.582 83.4824 105.838 83.7182 105.182C83.9569 104.526 84.302 103.969 84.7537 103.511C85.2083 103.051 85.7594 102.7 86.4072 102.459C87.0577 102.217 87.7935 102.097 88.6145 102.097C89.4128 102.097 90.1117 102.227 90.7111 102.489C91.3134 102.747 91.8163 103.098 92.2197 103.541C92.6259 103.982 92.9299 104.477 93.1316 105.028C93.3361 105.58 93.4384 106.148 93.4384 106.733C93.4384 107.145 93.4185 107.562 93.3787 107.986C93.339 108.409 93.2552 108.798 93.1273 109.153C92.9995 109.506 92.802 109.79 92.535 110.006C92.2708 110.222 91.9128 110.33 91.4611 110.33C91.2623 110.33 91.0435 110.298 90.8049 110.236C90.5662 110.173 90.3546 110.07 90.1699 109.925C89.9853 109.78 89.8759 109.585 89.8418 109.341H89.7907C89.7225 109.506 89.6174 109.662 89.4753 109.81C89.3361 109.957 89.1529 110.075 88.9256 110.163C88.7012 110.251 88.427 110.29 88.1032 110.278C87.7339 110.264 87.4086 110.182 87.1273 110.031C86.8461 109.878 86.6103 109.67 86.4199 109.409C86.2324 109.145 86.0904 108.839 85.9938 108.493C85.9001 108.143 85.8532 107.767 85.8532 107.364C85.8532 106.98 85.91 106.629 86.0236 106.311C86.1373 105.993 86.2949 105.714 86.4966 105.476C86.7012 105.237 86.9398 105.047 87.2126 104.905C87.4881 104.76 87.785 104.67 88.1032 104.636C88.3873 104.608 88.6458 104.621 88.8787 104.675C89.1117 104.726 89.3035 104.804 89.454 104.909C89.6046 105.011 89.6998 105.125 89.7395 105.25H89.7907V104.773H90.6941V108.625C90.6941 108.864 90.7609 109.074 90.8944 109.256C91.0279 109.437 91.2225 109.528 91.4782 109.528C91.768 109.528 91.9895 109.429 92.143 109.23C92.2992 109.031 92.4057 108.724 92.4626 108.31C92.5222 107.895 92.552 107.364 92.552 106.716C92.552 106.335 92.4995 105.96 92.3944 105.591C92.2921 105.219 92.1359 104.871 91.9256 104.547C91.7182 104.223 91.4555 103.937 91.1373 103.69C90.8191 103.443 90.4455 103.25 90.0165 103.111C89.5904 102.969 89.106 102.898 88.5634 102.898C87.8958 102.898 87.2978 103.001 86.7694 103.209C86.2438 103.413 85.7964 103.713 85.427 104.108C85.0606 104.5 84.7807 104.977 84.5876 105.54C84.3972 106.099 84.302 106.736 84.302 107.449C84.302 108.173 84.3972 108.817 84.5876 109.379C84.7807 109.942 85.0648 110.416 85.4398 110.803C85.8177 111.189 86.285 111.482 86.8418 111.68C87.3986 111.882 88.0407 111.983 88.768 111.983C89.0805 111.983 89.3887 111.953 89.6927 111.893C89.9966 111.834 90.2651 111.768 90.4981 111.697C90.731 111.626 90.8986 111.574 91.0009 111.54L91.2395 112.324C91.0634 112.398 90.8333 112.472 90.5492 112.545C90.268 112.619 89.9668 112.68 89.6458 112.729C89.3276 112.777 89.0236 112.801 88.7339 112.801ZM88.2395 109.409C88.6202 109.409 88.9285 109.332 89.1643 109.179C89.4001 109.026 89.5719 108.794 89.6799 108.484C89.7878 108.175 89.8418 107.784 89.8418 107.312C89.8418 106.835 89.7822 106.463 89.6628 106.196C89.5435 105.929 89.3674 105.741 89.1344 105.634C88.9015 105.526 88.6145 105.472 88.2736 105.472C87.9498 105.472 87.6728 105.557 87.4427 105.727C87.2154 105.895 87.0407 106.119 86.9185 106.401C86.7992 106.679 86.7395 106.983 86.7395 107.312C86.7395 107.676 86.7878 108.018 86.8844 108.339C86.981 108.658 87.1387 108.916 87.3574 109.115C87.5762 109.311 87.8702 109.409 88.2395 109.409ZM97.4658 113.091C96.98 113.091 96.5624 113.028 96.2129 112.903C95.8635 112.781 95.5723 112.619 95.3394 112.418C95.1092 112.219 94.926 112.006 94.7896 111.778L95.5908 111.216C95.6817 111.335 95.7967 111.472 95.936 111.625C96.0752 111.781 96.2655 111.916 96.507 112.03C96.7513 112.146 97.0709 112.205 97.4658 112.205C97.9942 112.205 98.4303 112.077 98.774 111.821C99.1178 111.565 99.2896 111.165 99.2896 110.619V109.29H99.2044C99.1306 109.409 99.0254 109.557 98.8891 109.733C98.7556 109.906 98.5624 110.061 98.3095 110.197C98.0595 110.331 97.7215 110.398 97.2953 110.398C96.7669 110.398 96.2925 110.273 95.872 110.023C95.4544 109.773 95.1235 109.409 94.8791 108.932C94.6377 108.455 94.5169 107.875 94.5169 107.193C94.5169 106.523 94.6348 105.939 94.8706 105.442C95.1064 104.942 95.4345 104.555 95.855 104.283C96.2754 104.007 96.7612 103.869 97.3124 103.869C97.7385 103.869 98.0766 103.94 98.3266 104.082C98.5794 104.222 98.7726 104.381 98.9061 104.56C99.0425 104.736 99.1476 104.881 99.2215 104.994H99.3237V103.955H100.295V110.688C100.295 111.25 100.167 111.707 99.9118 112.06C99.659 112.415 99.3181 112.675 98.8891 112.839C98.4629 113.007 97.9885 113.091 97.4658 113.091ZM97.4317 109.494C97.8351 109.494 98.176 109.402 98.4544 109.217C98.7328 109.033 98.9445 108.767 99.0894 108.42C99.2342 108.074 99.3067 107.659 99.3067 107.176C99.3067 106.705 99.2357 106.288 99.0936 105.928C98.9516 105.567 98.7414 105.284 98.4629 105.08C98.1845 104.875 97.8408 104.773 97.4317 104.773C97.0056 104.773 96.6504 104.881 96.3664 105.097C96.0851 105.312 95.8735 105.602 95.7314 105.966C95.5922 106.33 95.5226 106.733 95.5226 107.176C95.5226 107.631 95.5936 108.033 95.7357 108.382C95.8806 108.729 96.0936 109.001 96.3749 109.2C96.659 109.396 97.0112 109.494 97.4317 109.494ZM102.016 110.5V103.955H102.988V104.977H103.073C103.209 104.628 103.43 104.357 103.734 104.163C104.038 103.967 104.403 103.869 104.829 103.869C105.261 103.869 105.62 103.967 105.907 104.163C106.197 104.357 106.422 104.628 106.584 104.977H106.653C106.82 104.639 107.072 104.371 107.407 104.172C107.742 103.97 108.144 103.869 108.613 103.869C109.198 103.869 109.677 104.053 110.049 104.419C110.421 104.783 110.607 105.349 110.607 106.119V110.5H109.601V106.119C109.601 105.636 109.469 105.291 109.205 105.084C108.941 104.876 108.63 104.773 108.272 104.773C107.812 104.773 107.455 104.912 107.202 105.19C106.949 105.466 106.823 105.815 106.823 106.239V110.5H105.8V106.017C105.8 105.645 105.68 105.345 105.438 105.118C105.197 104.888 104.886 104.773 104.505 104.773C104.244 104.773 103.999 104.842 103.772 104.982C103.547 105.121 103.366 105.314 103.226 105.561C103.09 105.805 103.022 106.088 103.022 106.409V110.5H102.016ZM114.252 110.653C113.837 110.653 113.461 110.575 113.123 110.419C112.785 110.26 112.516 110.031 112.317 109.733C112.119 109.432 112.019 109.068 112.019 108.642C112.019 108.267 112.093 107.963 112.241 107.73C112.388 107.494 112.586 107.31 112.833 107.176C113.08 107.043 113.353 106.943 113.651 106.878C113.952 106.81 114.255 106.756 114.559 106.716C114.957 106.665 115.279 106.626 115.526 106.601C115.776 106.572 115.958 106.526 116.072 106.46C116.188 106.395 116.246 106.281 116.246 106.119V106.085C116.246 105.665 116.131 105.338 115.901 105.105C115.674 104.872 115.329 104.756 114.866 104.756C114.386 104.756 114.009 104.861 113.736 105.071C113.464 105.281 113.272 105.506 113.161 105.744L112.207 105.403C112.377 105.006 112.604 104.696 112.888 104.474C113.175 104.25 113.488 104.094 113.826 104.006C114.167 103.915 114.502 103.869 114.832 103.869C115.042 103.869 115.283 103.895 115.556 103.946C115.832 103.994 116.097 104.095 116.353 104.249C116.611 104.402 116.826 104.634 116.996 104.943C117.167 105.253 117.252 105.668 117.252 106.188V110.5H116.246V109.614H116.195C116.127 109.756 116.013 109.908 115.854 110.07C115.695 110.232 115.484 110.369 115.219 110.483C114.955 110.597 114.633 110.653 114.252 110.653ZM114.405 109.75C114.803 109.75 115.138 109.672 115.411 109.516C115.687 109.359 115.894 109.158 116.033 108.911C116.175 108.663 116.246 108.403 116.246 108.131V107.21C116.204 107.261 116.11 107.308 115.965 107.351C115.823 107.391 115.658 107.426 115.471 107.457C115.286 107.486 115.106 107.511 114.93 107.534C114.756 107.554 114.616 107.571 114.508 107.585C114.246 107.619 114.002 107.675 113.775 107.751C113.55 107.825 113.369 107.937 113.229 108.088C113.093 108.236 113.025 108.437 113.025 108.693C113.025 109.043 113.154 109.307 113.413 109.486C113.674 109.662 114.005 109.75 114.405 109.75ZM118.968 110.5V103.955H119.973V110.5H118.968ZM119.479 102.864C119.283 102.864 119.114 102.797 118.972 102.663C118.833 102.53 118.763 102.369 118.763 102.182C118.763 101.994 118.833 101.834 118.972 101.7C119.114 101.567 119.283 101.5 119.479 101.5C119.675 101.5 119.843 101.567 119.982 101.7C120.124 101.834 120.195 101.994 120.195 102.182C120.195 102.369 120.124 102.53 119.982 102.663C119.843 102.797 119.675 102.864 119.479 102.864ZM122.701 101.773V110.5H121.695V101.773H122.701ZM125.156 110.568C124.946 110.568 124.765 110.493 124.615 110.342C124.464 110.192 124.389 110.011 124.389 109.801C124.389 109.591 124.464 109.411 124.615 109.26C124.765 109.109 124.946 109.034 125.156 109.034C125.366 109.034 125.547 109.109 125.697 109.26C125.848 109.411 125.923 109.591 125.923 109.801C125.923 109.94 125.887 110.068 125.816 110.185C125.748 110.301 125.656 110.395 125.539 110.466C125.426 110.534 125.298 110.568 125.156 110.568ZM130.267 110.636C129.653 110.636 129.125 110.491 128.682 110.202C128.238 109.912 127.897 109.513 127.659 109.004C127.42 108.496 127.301 107.915 127.301 107.261C127.301 106.597 127.423 106.01 127.667 105.501C127.914 104.99 128.258 104.591 128.699 104.304C129.142 104.014 129.659 103.869 130.25 103.869C130.71 103.869 131.125 103.955 131.494 104.125C131.863 104.295 132.166 104.534 132.402 104.841C132.637 105.148 132.784 105.506 132.841 105.915H131.835C131.758 105.616 131.588 105.352 131.324 105.122C131.062 104.889 130.71 104.773 130.267 104.773C129.875 104.773 129.531 104.875 129.235 105.08C128.943 105.281 128.714 105.567 128.549 105.936C128.387 106.303 128.307 106.733 128.307 107.227C128.307 107.733 128.386 108.173 128.545 108.548C128.707 108.923 128.934 109.214 129.227 109.422C129.522 109.629 129.869 109.733 130.267 109.733C130.528 109.733 130.765 109.688 130.978 109.597C131.191 109.506 131.372 109.375 131.52 109.205C131.667 109.034 131.772 108.83 131.835 108.591H132.841C132.784 108.977 132.643 109.325 132.419 109.635C132.197 109.942 131.903 110.186 131.537 110.368C131.173 110.547 130.75 110.636 130.267 110.636ZM136.85 110.636C136.259 110.636 135.74 110.496 135.294 110.214C134.851 109.933 134.505 109.54 134.255 109.034C134.008 108.528 133.884 107.937 133.884 107.261C133.884 106.58 134.008 105.984 134.255 105.476C134.505 104.967 134.851 104.572 135.294 104.291C135.74 104.01 136.259 103.869 136.85 103.869C137.441 103.869 137.958 104.01 138.401 104.291C138.847 104.572 139.194 104.967 139.441 105.476C139.691 105.984 139.816 106.58 139.816 107.261C139.816 107.937 139.691 108.528 139.441 109.034C139.194 109.54 138.847 109.933 138.401 110.214C137.958 110.496 137.441 110.636 136.85 110.636ZM136.85 109.733C137.299 109.733 137.668 109.618 137.958 109.388C138.248 109.158 138.462 108.855 138.601 108.48C138.74 108.105 138.81 107.699 138.81 107.261C138.81 106.824 138.74 106.416 138.601 106.038C138.462 105.661 138.248 105.355 137.958 105.122C137.668 104.889 137.299 104.773 136.85 104.773C136.401 104.773 136.032 104.889 135.742 105.122C135.452 105.355 135.238 105.661 135.098 106.038C134.959 106.416 134.89 106.824 134.89 107.261C134.89 107.699 134.959 108.105 135.098 108.48C135.238 108.855 135.452 109.158 135.742 109.388C136.032 109.618 136.401 109.733 136.85 109.733ZM141.231 110.5V103.955H142.203V104.977H142.288C142.424 104.628 142.644 104.357 142.948 104.163C143.252 103.967 143.617 103.869 144.043 103.869C144.475 103.869 144.835 103.967 145.122 104.163C145.411 104.357 145.637 104.628 145.799 104.977H145.867C146.035 104.639 146.286 104.371 146.622 104.172C146.957 103.97 147.359 103.869 147.828 103.869C148.413 103.869 148.891 104.053 149.264 104.419C149.636 104.783 149.822 105.349 149.822 106.119V110.5H148.816V106.119C148.816 105.636 148.684 105.291 148.42 105.084C148.156 104.876 147.845 104.773 147.487 104.773C147.026 104.773 146.67 104.912 146.417 105.19C146.164 105.466 146.038 105.815 146.038 106.239V110.5H145.015V106.017C145.015 105.645 144.894 105.345 144.653 105.118C144.411 104.888 144.1 104.773 143.72 104.773C143.458 104.773 143.214 104.842 142.987 104.982C142.762 105.121 142.58 105.314 142.441 105.561C142.305 105.805 142.237 106.088 142.237 106.409V110.5H141.231Z" fill="#B3B8D0"/>
</g>
<path d="M25.0568 149V140.273H28.0057C28.6903 140.273 29.25 140.396 29.6847 140.643C30.1222 140.888 30.446 141.219 30.6562 141.636C30.8665 142.054 30.9716 142.52 30.9716 143.034C30.9716 143.548 30.8665 144.016 30.6562 144.436C30.4489 144.857 30.1278 145.192 29.6932 145.442C29.2585 145.689 28.7017 145.812 28.0227 145.812H25.9091V144.875H27.9886C28.4574 144.875 28.8338 144.794 29.1179 144.632C29.402 144.47 29.608 144.251 29.7358 143.976C29.8665 143.697 29.9318 143.384 29.9318 143.034C29.9318 142.685 29.8665 142.372 29.7358 142.097C29.608 141.821 29.4006 141.605 29.1136 141.449C28.8267 141.29 28.446 141.21 27.9716 141.21H26.1136V149H25.0568ZM34.3438 149.153C33.929 149.153 33.5526 149.075 33.2145 148.919C32.8764 148.76 32.608 148.531 32.4091 148.233C32.2103 147.932 32.1108 147.568 32.1108 147.142C32.1108 146.767 32.1847 146.463 32.3324 146.23C32.4801 145.994 32.6776 145.81 32.9247 145.676C33.1719 145.543 33.4446 145.443 33.7429 145.378C34.0441 145.31 34.3466 145.256 34.6506 145.216C35.0483 145.165 35.3708 145.126 35.6179 145.101C35.8679 145.072 36.0497 145.026 36.1634 144.96C36.2799 144.895 36.3381 144.781 36.3381 144.619V144.585C36.3381 144.165 36.223 143.838 35.9929 143.605C35.7657 143.372 35.4205 143.256 34.9574 143.256C34.4773 143.256 34.1009 143.361 33.8282 143.571C33.5554 143.781 33.3637 144.006 33.2529 144.244L32.2983 143.903C32.4688 143.506 32.6961 143.196 32.9801 142.974C33.2671 142.75 33.5796 142.594 33.9176 142.506C34.2586 142.415 34.5938 142.369 34.9233 142.369C35.1336 142.369 35.375 142.395 35.6478 142.446C35.9233 142.494 36.1889 142.595 36.4446 142.749C36.7032 142.902 36.9176 143.134 37.0881 143.443C37.2586 143.753 37.3438 144.168 37.3438 144.688V149H36.3381V148.114H36.287C36.2188 148.256 36.1051 148.408 35.9461 148.57C35.787 148.732 35.5753 148.869 35.3111 148.983C35.0469 149.097 34.7245 149.153 34.3438 149.153ZM34.4972 148.25C34.8949 148.25 35.2301 148.172 35.5029 148.016C35.7784 147.859 35.9858 147.658 36.125 147.411C36.2671 147.163 36.3381 146.903 36.3381 146.631V145.71C36.2955 145.761 36.2017 145.808 36.0568 145.851C35.9148 145.891 35.75 145.926 35.5625 145.957C35.3779 145.986 35.1975 146.011 35.0213 146.034C34.848 146.054 34.7074 146.071 34.5995 146.085C34.3381 146.119 34.0938 146.175 33.8665 146.251C33.6421 146.325 33.4603 146.437 33.3211 146.588C33.1847 146.736 33.1165 146.937 33.1165 147.193C33.1165 147.543 33.2458 147.807 33.5043 147.986C33.7657 148.162 34.0966 148.25 34.4972 148.25ZM43.6957 143.92L42.7923 144.176C42.7355 144.026 42.6517 143.879 42.5409 143.737C42.4329 143.592 42.2852 143.473 42.0977 143.379C41.9102 143.286 41.6702 143.239 41.3775 143.239C40.977 143.239 40.6432 143.331 40.3761 143.516C40.1119 143.697 39.9798 143.929 39.9798 144.21C39.9798 144.46 40.0707 144.658 40.2525 144.803C40.4344 144.947 40.7185 145.068 41.1048 145.165L42.0764 145.403C42.6616 145.545 43.0977 145.763 43.3846 146.055C43.6716 146.345 43.815 146.719 43.815 147.176C43.815 147.551 43.7071 147.886 43.4912 148.182C43.2781 148.477 42.9798 148.71 42.5963 148.881C42.2128 149.051 41.7667 149.136 41.2582 149.136C40.5906 149.136 40.0381 148.991 39.6006 148.702C39.1631 148.412 38.8861 147.989 38.7696 147.432L39.7241 147.193C39.815 147.545 39.9869 147.81 40.2398 147.986C40.4954 148.162 40.8292 148.25 41.2412 148.25C41.7099 148.25 42.0821 148.151 42.3577 147.952C42.6361 147.75 42.7753 147.509 42.7753 147.227C42.7753 147 42.6957 146.81 42.5366 146.656C42.3775 146.5 42.1332 146.384 41.8037 146.307L40.7128 146.051C40.1133 145.909 39.673 145.689 39.3917 145.391C39.1133 145.089 38.9741 144.713 38.9741 144.261C38.9741 143.892 39.0778 143.565 39.2852 143.281C39.4954 142.997 39.781 142.774 40.1417 142.612C40.5054 142.45 40.9173 142.369 41.3775 142.369C42.0253 142.369 42.5338 142.511 42.9031 142.795C43.2753 143.08 43.5395 143.455 43.6957 143.92ZM49.8453 143.92L48.9418 144.176C48.885 144.026 48.8012 143.879 48.6904 143.737C48.5825 143.592 48.4347 143.473 48.2472 143.379C48.0597 143.286 47.8197 143.239 47.5271 143.239C47.1265 143.239 46.7927 143.331 46.5257 143.516C46.2614 143.697 46.1293 143.929 46.1293 144.21C46.1293 144.46 46.2203 144.658 46.4021 144.803C46.5839 144.947 46.868 145.068 47.2543 145.165L48.2259 145.403C48.8112 145.545 49.2472 145.763 49.5342 146.055C49.8211 146.345 49.9646 146.719 49.9646 147.176C49.9646 147.551 49.8566 147.886 49.6407 148.182C49.4276 148.477 49.1293 148.71 48.7458 148.881C48.3623 149.051 47.9163 149.136 47.4078 149.136C46.7401 149.136 46.1876 148.991 45.7501 148.702C45.3126 148.412 45.0356 147.989 44.9191 147.432L45.8737 147.193C45.9646 147.545 46.1364 147.81 46.3893 147.986C46.645 148.162 46.9788 148.25 47.3907 148.25C47.8595 148.25 48.2316 148.151 48.5072 147.952C48.7856 147.75 48.9248 147.509 48.9248 147.227C48.9248 147 48.8453 146.81 48.6862 146.656C48.5271 146.5 48.2828 146.384 47.9532 146.307L46.8623 146.051C46.2629 145.909 45.8225 145.689 45.5413 145.391C45.2629 145.089 45.1237 144.713 45.1237 144.261C45.1237 143.892 45.2274 143.565 45.4347 143.281C45.645 142.997 45.9305 142.774 46.2913 142.612C46.6549 142.45 47.0668 142.369 47.5271 142.369C48.1748 142.369 48.6833 142.511 49.0526 142.795C49.4248 143.08 49.689 143.455 49.8453 143.92ZM52.8414 149L50.8471 142.455H51.9039L53.3187 147.466H53.3868L54.7846 142.455H55.8584L57.2391 147.449H57.3073L58.7221 142.455H59.7789L57.7846 149H56.7959L55.3641 143.972H55.2618L53.83 149H52.8414ZM63.4249 149.136C62.834 149.136 62.3155 148.996 61.8695 148.714C61.4263 148.433 61.0797 148.04 60.8297 147.534C60.5825 147.028 60.459 146.437 60.459 145.761C60.459 145.08 60.5825 144.484 60.8297 143.976C61.0797 143.467 61.4263 143.072 61.8695 142.791C62.3155 142.51 62.834 142.369 63.4249 142.369C64.0158 142.369 64.5328 142.51 64.976 142.791C65.422 143.072 65.7686 143.467 66.0158 143.976C66.2658 144.484 66.3908 145.08 66.3908 145.761C66.3908 146.437 66.2658 147.028 66.0158 147.534C65.7686 148.04 65.422 148.433 64.976 148.714C64.5328 148.996 64.0158 149.136 63.4249 149.136ZM63.4249 148.233C63.8737 148.233 64.243 148.118 64.5328 147.888C64.8226 147.658 65.0371 147.355 65.1763 146.98C65.3155 146.605 65.3851 146.199 65.3851 145.761C65.3851 145.324 65.3155 144.916 65.1763 144.538C65.0371 144.161 64.8226 143.855 64.5328 143.622C64.243 143.389 63.8737 143.273 63.4249 143.273C62.976 143.273 62.6067 143.389 62.3169 143.622C62.0271 143.855 61.8126 144.161 61.6734 144.538C61.5342 144.916 61.4646 145.324 61.4646 145.761C61.4646 146.199 61.5342 146.605 61.6734 146.98C61.8126 147.355 62.0271 147.658 62.3169 147.888C62.6067 148.118 62.976 148.233 63.4249 148.233ZM67.8059 149V142.455H68.7775V143.443H68.8457C68.965 143.119 69.1809 142.857 69.4934 142.655C69.8059 142.453 70.1582 142.352 70.5502 142.352C70.6241 142.352 70.7164 142.354 70.8272 142.357C70.938 142.359 71.0218 142.364 71.0786 142.369V143.392C71.0446 143.384 70.9664 143.371 70.8443 143.354C70.725 143.334 70.5985 143.324 70.465 143.324C70.1468 143.324 69.8627 143.391 69.6127 143.524C69.3656 143.655 69.1696 143.837 69.0247 144.07C68.8826 144.3 68.8116 144.562 68.8116 144.858V149H67.8059ZM74.4231 149.136C73.8777 149.136 73.3962 148.999 72.9785 148.723C72.5609 148.445 72.2342 148.053 71.9984 147.547C71.7626 147.038 71.6447 146.438 71.6447 145.744C71.6447 145.057 71.7626 144.46 71.9984 143.955C72.2342 143.449 72.5623 143.058 72.9828 142.783C73.4033 142.507 73.889 142.369 74.4402 142.369C74.8663 142.369 75.203 142.44 75.4501 142.582C75.7001 142.722 75.8905 142.881 76.0212 143.06C76.1547 143.236 76.2584 143.381 76.3322 143.494H76.4175V140.273H77.4231V149H76.4515V147.994H76.3322C76.2584 148.114 76.1533 148.264 76.0169 148.446C75.8805 148.625 75.6859 148.786 75.4331 148.928C75.1802 149.067 74.8436 149.136 74.4231 149.136ZM74.5595 148.233C74.9629 148.233 75.3038 148.128 75.5822 147.918C75.8606 147.705 76.0723 147.411 76.2172 147.036C76.3621 146.658 76.4345 146.222 76.4345 145.727C76.4345 145.239 76.3635 144.811 76.2214 144.445C76.0794 144.075 75.8692 143.788 75.5908 143.584C75.3123 143.376 74.9686 143.273 74.5595 143.273C74.1334 143.273 73.7783 143.382 73.4942 143.601C73.2129 143.817 73.0013 144.111 72.8592 144.483C72.72 144.852 72.6504 145.267 72.6504 145.727C72.6504 146.193 72.7214 146.616 72.8635 146.997C73.0084 147.375 73.2214 147.676 73.5027 147.901C73.7868 148.122 74.139 148.233 74.5595 148.233Z" fill="#0E0B3D"/>
<rect x="24" y="158" width="367" height="32" rx="6" fill="#F7F9FC"/>
<circle cx="38" cy="174" r="2" fill="#B3B8D0"/>
<circle cx="48" cy="174" r="2" fill="#B3B8D0"/>
<circle cx="58" cy="174" r="2" fill="#B3B8D0"/>
<circle cx="68" cy="174" r="2" fill="#B3B8D0"/>
<circle cx="78" cy="174" r="2" fill="#B3B8D0"/>
<circle cx="88" cy="174" r="2" fill="#B3B8D0"/>
<circle cx="98" cy="174" r="2" fill="#B3B8D0"/>
<circle cx="108" cy="174" r="2" fill="#B3B8D0"/>
<circle cx="118" cy="174" r="2" fill="#B3B8D0"/>
<circle cx="128" cy="174" r="2" fill="#B3B8D0"/>
<g filter="url(#filter0_d_198_10035)">
<rect x="24" y="205" width="367" height="35" rx="6" fill="#5750F1" shape-rendering="crispEdges"/>
<path d="M195.184 219.324H194.008V228H199V226.908H195.184V219.324ZM199.584 225.06C199.584 226.872 200.88 228.144 202.644 228.144C204.396 228.144 205.692 226.872 205.692 225.06C205.692 223.248 204.396 221.976 202.644 221.976C200.88 221.976 199.584 223.248 199.584 225.06ZM200.724 225.06C200.724 223.836 201.504 222.984 202.644 222.984C203.772 222.984 204.564 223.836 204.564 225.06C204.564 226.284 203.772 227.136 202.644 227.136C201.504 227.136 200.724 226.284 200.724 225.06ZM206.569 224.916C206.569 226.56 207.625 227.844 209.293 227.844C210.217 227.844 210.985 227.436 211.369 226.752V227.928C211.369 229.044 210.649 229.764 209.545 229.764C208.561 229.764 207.913 229.26 207.769 228.396H206.641C206.857 229.884 207.949 230.784 209.545 230.784C211.345 230.784 212.485 229.608 212.485 227.76V222.132H211.477L211.393 223.128C211.021 222.396 210.289 221.964 209.341 221.964C207.637 221.964 206.569 223.26 206.569 224.916ZM207.697 224.892C207.697 223.812 208.369 222.948 209.497 222.948C210.649 222.948 211.321 223.764 211.321 224.892C211.321 226.044 210.625 226.86 209.485 226.86C208.381 226.86 207.697 225.996 207.697 224.892ZM214.665 220.74C215.073 220.74 215.409 220.404 215.409 219.996C215.409 219.576 215.073 219.252 214.665 219.252C214.257 219.252 213.921 219.576 213.921 219.996C213.921 220.404 214.257 220.74 214.665 220.74ZM214.113 228H215.241V222.132H214.113V228ZM218.007 228V224.892C218.007 223.752 218.619 222.996 219.675 222.996C220.539 222.996 221.091 223.476 221.091 224.664V228H222.219V224.412C222.219 222.912 221.511 221.964 219.963 221.964C219.135 221.964 218.391 222.36 218.019 223.032L217.899 222.132H216.879V228H218.007Z" fill="white"/>
</g>
<defs>
<filter id="filter0_d_198_10035" x="22" y="204" width="371" height="39" filterUnits="userSpaceOnUse" color-interpolation-filters="sRGB">
<feFlood flood-opacity="0" result="BackgroundImageFix"/>
<feColorMatrix in="SourceAlpha" type="matrix" values="0 0 0 0 0 0 0 0 0 0 0 0 0 0 0 0 0 0 127 0" result="hardAlpha"/>
<feOffset dy="1"/>
<feGaussianBlur stdDeviation="1"/>
<feComposite in2="hardAlpha" operator="out"/>
<feColorMatrix type="matrix" values="0 0 0 0 0.329531 0 0 0 0 0.33976 0 0 0 0 0.4625 0 0 0 0.1 0"/>
<feBlend mode="normal" in2="BackgroundImageFix" result="effect1_dropShadow_198_10035"/>
<feBlend mode="normal" in="SourceGraphic" in2="effect1_dropShadow_198_10035" result="shape"/>
</filter>
<clipPath id="clip0_198_10035">
<rect width="264" height="15" fill="white" transform="translate(32 98.5)"/>
</clipPath>
</defs>
</svg>
