<svg width="391" height="384" viewBox="0 0 391 384" fill="none" xmlns="http://www.w3.org/2000/svg">
<rect x="2" y="0.861328" width="388" height="57" rx="3.5" fill="white" stroke="#F1F1F1"/>
<path d="M27.7784 35.3613H35.142V33.85H29.5341V30.2875H34.6932V28.7818H29.5341V25.2363H35.0739V23.725H27.7784V35.3613ZM37.2827 35.3613H38.9815V29.9806C38.9815 28.8045 39.8054 27.9863 40.7713 27.9863C41.7145 27.9863 42.3679 28.6113 42.3679 29.5602V35.3613H44.0611V29.7988C44.0611 28.7477 44.7031 27.9863 45.8111 27.9863C46.7088 27.9863 47.4474 28.4863 47.4474 29.6681V35.3613H49.1463V29.5091C49.1463 27.5147 48.0327 26.5204 46.4531 26.5204C45.1974 26.5204 44.2543 27.1227 43.8338 28.0545H43.7429C43.3622 27.1 42.5611 26.5204 41.3963 26.5204C40.2429 26.5204 39.3849 27.0943 39.0213 28.0545H38.9134V26.6341H37.2827V35.3613ZM53.9631 35.5545C55.4062 35.5545 56.2188 34.8216 56.5426 34.1681H56.6108V35.3613H58.2699V29.5659C58.2699 27.0261 56.2699 26.5204 54.8835 26.5204C53.304 26.5204 51.8494 27.1568 51.2812 28.7477L52.8778 29.1113C53.1278 28.492 53.7642 27.8954 54.9062 27.8954C56.0028 27.8954 56.5653 28.4693 56.5653 29.4579V29.4977C56.5653 30.117 55.929 30.1056 54.3608 30.2875C52.7074 30.4806 51.0142 30.9125 51.0142 32.8954C51.0142 34.6113 52.304 35.5545 53.9631 35.5545ZM54.3324 34.1909C53.3722 34.1909 52.679 33.7591 52.679 32.9181C52.679 32.0091 53.4858 31.6852 54.4688 31.5545C55.0199 31.4806 56.3267 31.3329 56.571 31.0886V32.2136C56.571 33.2477 55.7472 34.1909 54.3324 34.1909ZM60.5327 35.3613H62.2315V26.6341H60.5327V35.3613ZM61.3906 25.2875C61.9759 25.2875 62.4645 24.8329 62.4645 24.2761C62.4645 23.7193 61.9759 23.2591 61.3906 23.2591C60.7997 23.2591 60.3168 23.7193 60.3168 24.2761C60.3168 24.8329 60.7997 25.2875 61.3906 25.2875ZM66.2159 23.725H64.517V35.3613H66.2159V23.725Z" fill="#6B7280"/>
<rect x="2.5" y="80.8613" width="388" height="57" rx="3.5" fill="white" stroke="#F1F1F1"/>
<path d="M34.625 106.782H36.3182C36.267 104.918 34.6193 103.566 32.2557 103.566C29.9205 103.566 28.1307 104.901 28.1307 106.907C28.1307 108.526 29.2898 109.475 31.1591 109.981L32.5341 110.356C33.7784 110.685 34.7386 111.094 34.7386 112.128C34.7386 113.265 33.6534 114.015 32.1591 114.015C30.8068 114.015 29.6818 113.412 29.5795 112.145H27.8182C27.9318 114.253 29.5625 115.555 32.1705 115.555C34.9034 115.555 36.4773 114.117 36.4773 112.145C36.4773 110.049 34.608 109.236 33.1307 108.873L31.9943 108.577C31.0852 108.344 29.875 107.918 29.8807 106.805C29.8807 105.816 30.7841 105.083 32.2159 105.083C33.5511 105.083 34.5 105.708 34.625 106.782ZM43.9673 111.742C43.973 113.225 42.8707 113.93 41.9162 113.93C40.8651 113.93 40.1378 113.168 40.1378 111.981V106.634H38.4389V112.185C38.4389 114.35 39.6264 115.475 41.3026 115.475C42.6151 115.475 43.5071 114.782 43.9105 113.85H44.0014V115.361H45.6719V106.634H43.9673V111.742ZM48.0909 115.361H49.75V114.003H49.892C50.1989 114.56 50.8239 115.532 52.4148 115.532C54.5284 115.532 56.0625 113.839 56.0625 111.015C56.0625 108.185 54.5057 106.52 52.3977 106.52C50.7784 106.52 50.1932 107.509 49.892 108.049H49.7898V103.725H48.0909V115.361ZM49.7557 110.998C49.7557 109.174 50.5511 107.964 52.0341 107.964C53.5739 107.964 54.3466 109.265 54.3466 110.998C54.3466 112.748 53.5511 114.083 52.0341 114.083C50.5739 114.083 49.7557 112.833 49.7557 110.998ZM57.9702 106.634V115.918C57.9702 116.725 57.6349 117.168 56.8281 117.168H56.5554V118.628C56.6747 118.634 56.7827 118.634 56.902 118.634C58.7088 118.634 59.669 117.68 59.669 115.93V106.634H57.9702ZM58.8111 105.287C59.3963 105.287 59.8849 104.833 59.8849 104.276C59.8849 103.719 59.3963 103.259 58.8111 103.259C58.2202 103.259 57.7372 103.719 57.7372 104.276C57.7372 104.833 58.2202 105.287 58.8111 105.287ZM65.7159 115.537C67.6193 115.537 68.9659 114.6 69.3523 113.18L67.7443 112.89C67.4375 113.714 66.6989 114.134 65.733 114.134C64.2784 114.134 63.3011 113.191 63.2557 111.509H69.4602V110.907C69.4602 107.753 67.5739 106.52 65.5966 106.52C63.1648 106.52 61.5625 108.373 61.5625 111.055C61.5625 113.765 63.142 115.537 65.7159 115.537ZM63.2614 110.236C63.3295 108.998 64.2273 107.924 65.608 107.924C66.9261 107.924 67.7898 108.901 67.7955 110.236H63.2614ZM75.0213 115.537C77.0838 115.537 78.419 114.299 78.6065 112.6H76.9531C76.7372 113.543 76.0043 114.1 75.0327 114.1C73.5952 114.1 72.669 112.901 72.669 110.998C72.669 109.128 73.6122 107.952 75.0327 107.952C76.1122 107.952 76.7713 108.634 76.9531 109.452H78.6065C78.4247 107.691 76.9872 106.52 75.0043 106.52C72.544 106.52 70.9531 108.373 70.9531 111.037C70.9531 113.668 72.4872 115.537 75.0213 115.537ZM84.4972 106.634H82.7074V104.543H81.0085V106.634H79.7301V107.998H81.0085V113.151C81.0028 114.736 82.2131 115.503 83.554 115.475C84.0938 115.469 84.4574 115.367 84.6562 115.293L84.3494 113.89C84.2358 113.912 84.0256 113.964 83.7528 113.964C83.2017 113.964 82.7074 113.782 82.7074 112.799V107.998H84.4972V106.634Z" fill="#6B7280"/>
<rect x="0.5" y="325.361" width="389" height="58" rx="4" fill="#07074D"/>
<path d="M147.234 351.782H148.928C148.876 349.918 147.229 348.566 144.865 348.566C142.53 348.566 140.74 349.901 140.74 351.907C140.74 353.526 141.899 354.475 143.768 354.981L145.143 355.356C146.388 355.685 147.348 356.094 147.348 357.128C147.348 358.265 146.263 359.015 144.768 359.015C143.416 359.015 142.291 358.412 142.189 357.145H140.428C140.541 359.253 142.172 360.555 144.78 360.555C147.513 360.555 149.087 359.117 149.087 357.145C149.087 355.049 147.217 354.236 145.74 353.873L144.604 353.577C143.695 353.344 142.484 352.918 142.49 351.805C142.49 350.816 143.393 350.083 144.825 350.083C146.161 350.083 147.109 350.708 147.234 351.782ZM154.81 360.537C156.713 360.537 158.06 359.6 158.446 358.18L156.838 357.89C156.531 358.714 155.793 359.134 154.827 359.134C153.372 359.134 152.395 358.191 152.349 356.509H158.554V355.907C158.554 352.753 156.668 351.52 154.69 351.52C152.259 351.52 150.656 353.373 150.656 356.055C150.656 358.765 152.236 360.537 154.81 360.537ZM152.355 355.236C152.423 353.998 153.321 352.924 154.702 352.924C156.02 352.924 156.884 353.901 156.889 355.236H152.355ZM162.138 355.18C162.138 353.787 162.99 352.992 164.172 352.992C165.325 352.992 166.024 353.748 166.024 355.015V360.361H167.723V354.81C167.723 352.651 166.536 351.52 164.751 351.52C163.439 351.52 162.581 352.128 162.178 353.055H162.07V351.634H160.439V360.361H162.138V355.18ZM173.268 360.532C174.859 360.532 175.484 359.56 175.791 359.003H175.933V360.361H177.592V348.725H175.893V353.049H175.791C175.484 352.509 174.905 351.52 173.28 351.52C171.172 351.52 169.621 353.185 169.621 356.015C169.621 358.839 171.149 360.532 173.268 360.532ZM173.643 359.083C172.126 359.083 171.337 357.748 171.337 355.998C171.337 354.265 172.109 352.964 173.643 352.964C175.126 352.964 175.922 354.174 175.922 355.998C175.922 357.833 175.109 359.083 173.643 359.083ZM184.388 348.725V360.361H186.058V351.935H186.166L189.598 360.344H190.984L194.416 351.941H194.524V360.361H196.195V348.725H194.064L190.359 357.77H190.223L186.518 348.725H184.388ZM202.372 360.537C204.276 360.537 205.622 359.6 206.009 358.18L204.401 357.89C204.094 358.714 203.355 359.134 202.389 359.134C200.935 359.134 199.957 358.191 199.912 356.509H206.116V355.907C206.116 352.753 204.23 351.52 202.253 351.52C199.821 351.52 198.219 353.373 198.219 356.055C198.219 358.765 199.798 360.537 202.372 360.537ZM199.918 355.236C199.986 353.998 200.884 352.924 202.264 352.924C203.582 352.924 204.446 353.901 204.452 355.236H199.918ZM214.541 353.765C214.189 352.407 213.126 351.52 211.24 351.52C209.268 351.52 207.871 352.56 207.871 354.106C207.871 355.344 208.621 356.168 210.257 356.532L211.734 356.856C212.575 357.043 212.967 357.418 212.967 357.964C212.967 358.64 212.246 359.168 211.132 359.168C210.115 359.168 209.462 358.731 209.257 357.873L207.615 358.123C207.899 359.668 209.183 360.537 211.143 360.537C213.251 360.537 214.712 359.418 214.712 357.839C214.712 356.606 213.928 355.844 212.325 355.475L210.939 355.157C209.979 354.93 209.564 354.606 209.57 354.015C209.564 353.344 210.291 352.867 211.257 352.867C212.314 352.867 212.803 353.452 213.001 354.037L214.541 353.765ZM223.119 353.765C222.767 352.407 221.705 351.52 219.818 351.52C217.847 351.52 216.449 352.56 216.449 354.106C216.449 355.344 217.199 356.168 218.835 356.532L220.312 356.856C221.153 357.043 221.545 357.418 221.545 357.964C221.545 358.64 220.824 359.168 219.71 359.168C218.693 359.168 218.04 358.731 217.835 357.873L216.193 358.123C216.477 359.668 217.761 360.537 219.722 360.537C221.83 360.537 223.29 359.418 223.29 357.839C223.29 356.606 222.506 355.844 220.903 355.475L219.517 355.157C218.557 354.93 218.142 354.606 218.148 354.015C218.142 353.344 218.869 352.867 219.835 352.867C220.892 352.867 221.381 353.452 221.58 354.037L223.119 353.765ZM227.697 360.555C229.141 360.555 229.953 359.822 230.277 359.168H230.345V360.361H232.004V354.566C232.004 352.026 230.004 351.52 228.618 351.52C227.038 351.52 225.584 352.157 225.016 353.748L226.612 354.111C226.862 353.492 227.499 352.895 228.641 352.895C229.737 352.895 230.3 353.469 230.3 354.458V354.498C230.3 355.117 229.663 355.106 228.095 355.287C226.442 355.481 224.749 355.912 224.749 357.895C224.749 359.611 226.038 360.555 227.697 360.555ZM228.067 359.191C227.107 359.191 226.413 358.759 226.413 357.918C226.413 357.009 227.22 356.685 228.203 356.555C228.754 356.481 230.061 356.333 230.305 356.089V357.214C230.305 358.248 229.482 359.191 228.067 359.191ZM237.926 363.816C240.148 363.816 241.864 362.799 241.864 360.555V351.634H240.199V353.049H240.074C239.773 352.509 239.17 351.52 237.545 351.52C235.438 351.52 233.886 353.185 233.886 355.964C233.886 358.748 235.472 360.231 237.534 360.231C239.136 360.231 239.756 359.327 240.062 358.77H240.17V360.486C240.17 361.856 239.233 362.447 237.943 362.447C236.528 362.447 235.977 361.736 235.676 361.236L234.216 361.839C234.676 362.907 235.841 363.816 237.926 363.816ZM237.909 358.822C236.392 358.822 235.602 357.657 235.602 355.941C235.602 354.265 236.375 352.964 237.909 352.964C239.392 352.964 240.188 354.174 240.188 355.941C240.188 357.742 239.375 358.822 237.909 358.822ZM247.903 360.537C249.807 360.537 251.153 359.6 251.54 358.18L249.932 357.89C249.625 358.714 248.886 359.134 247.92 359.134C246.466 359.134 245.489 358.191 245.443 356.509H251.648V355.907C251.648 352.753 249.761 351.52 247.784 351.52C245.352 351.52 243.75 353.373 243.75 356.055C243.75 358.765 245.33 360.537 247.903 360.537ZM245.449 355.236C245.517 353.998 246.415 352.924 247.795 352.924C249.114 352.924 249.977 353.901 249.983 355.236H245.449Z" fill="white"/>
<rect x="1" y="160.861" width="388" height="142" rx="3.5" fill="white" stroke="#F1F1F1"/>
<path d="M26.2045 188.236H29.8295V198.361H31.5795V188.236H35.2102V186.725H26.2045V188.236ZM37.1378 201.634C38.5412 201.634 39.4276 200.901 39.9332 199.526L43.5412 189.651L41.706 189.634L39.4957 196.407H39.4048L37.1946 189.634H35.3764L38.5696 198.475L38.3594 199.055C37.9276 200.214 37.3196 200.31 36.3878 200.055L35.9787 201.447C36.1832 201.537 36.6264 201.634 37.1378 201.634ZM45.142 201.634H46.8409V197.003H46.9432C47.25 197.56 47.875 198.532 49.4659 198.532C51.5795 198.532 53.1136 196.839 53.1136 194.015C53.1136 191.185 51.5568 189.52 49.4489 189.52C47.8295 189.52 47.2443 190.509 46.9432 191.049H46.8011V189.634H45.142V201.634ZM46.8068 193.998C46.8068 192.174 47.6023 190.964 49.0852 190.964C50.625 190.964 51.3977 192.265 51.3977 193.998C51.3977 195.748 50.6023 197.083 49.0852 197.083C47.625 197.083 46.8068 195.833 46.8068 193.998ZM58.7784 198.537C60.6818 198.537 62.0284 197.6 62.4148 196.18L60.8068 195.89C60.5 196.714 59.7614 197.134 58.7955 197.134C57.3409 197.134 56.3636 196.191 56.3182 194.509H62.5227V193.907C62.5227 190.753 60.6364 189.52 58.6591 189.52C56.2273 189.52 54.625 191.373 54.625 194.055C54.625 196.765 56.2045 198.537 58.7784 198.537ZM56.3239 193.236C56.392 191.998 57.2898 190.924 58.6705 190.924C59.9886 190.924 60.8523 191.901 60.858 193.236H56.3239ZM69.7159 201.634C71.1193 201.634 72.0057 200.901 72.5114 199.526L76.1193 189.651L74.2841 189.634L72.0739 196.407H71.983L69.7727 189.634H67.9545L71.1477 198.475L70.9375 199.055C70.5057 200.214 69.8977 200.31 68.9659 200.055L68.5568 201.447C68.7614 201.537 69.2045 201.634 69.7159 201.634ZM81.0838 198.537C83.544 198.537 85.152 196.736 85.152 194.037C85.152 191.322 83.544 189.52 81.0838 189.52C78.6236 189.52 77.0156 191.322 77.0156 194.037C77.0156 196.736 78.6236 198.537 81.0838 198.537ZM81.0895 197.111C79.4815 197.111 78.7315 195.708 78.7315 194.032C78.7315 192.361 79.4815 190.941 81.0895 190.941C82.6861 190.941 83.4361 192.361 83.4361 194.032C83.4361 195.708 82.6861 197.111 81.0895 197.111ZM92.5767 194.742C92.5824 196.225 91.4801 196.93 90.5256 196.93C89.4744 196.93 88.7472 196.168 88.7472 194.981V189.634H87.0483V195.185C87.0483 197.35 88.2358 198.475 89.9119 198.475C91.2244 198.475 92.1165 197.782 92.5199 196.85H92.6108V198.361H94.2812V189.634H92.5767V194.742ZM96.5639 198.361H98.2628V193.032C98.2628 191.89 99.1435 191.066 100.348 191.066C100.7 191.066 101.098 191.128 101.234 191.168V189.543C101.064 189.52 100.729 189.503 100.513 189.503C99.4901 189.503 98.6151 190.083 98.2969 191.02H98.206V189.634H96.5639V198.361ZM106.939 198.361H108.638V192.981C108.638 191.805 109.462 190.986 110.428 190.986C111.371 190.986 112.024 191.611 112.024 192.56V198.361H113.717V192.799C113.717 191.748 114.359 190.986 115.467 190.986C116.365 190.986 117.104 191.486 117.104 192.668V198.361H118.803V192.509C118.803 190.515 117.689 189.52 116.109 189.52C114.854 189.52 113.911 190.123 113.49 191.055H113.399C113.018 190.1 112.217 189.52 111.053 189.52C109.899 189.52 109.041 190.094 108.678 191.055H108.57V189.634H106.939V198.361ZM124.841 198.537C126.744 198.537 128.091 197.6 128.477 196.18L126.869 195.89C126.562 196.714 125.824 197.134 124.858 197.134C123.403 197.134 122.426 196.191 122.381 194.509H128.585V193.907C128.585 190.753 126.699 189.52 124.722 189.52C122.29 189.52 120.688 191.373 120.688 194.055C120.688 196.765 122.267 198.537 124.841 198.537ZM122.386 193.236C122.455 191.998 123.352 190.924 124.733 190.924C126.051 190.924 126.915 191.901 126.92 193.236H122.386ZM137.01 191.765C136.658 190.407 135.595 189.52 133.709 189.52C131.737 189.52 130.339 190.56 130.339 192.106C130.339 193.344 131.089 194.168 132.726 194.532L134.203 194.856C135.044 195.043 135.436 195.418 135.436 195.964C135.436 196.64 134.714 197.168 133.601 197.168C132.584 197.168 131.93 196.731 131.726 195.873L130.084 196.123C130.368 197.668 131.652 198.537 133.612 198.537C135.72 198.537 137.18 197.418 137.18 195.839C137.18 194.606 136.396 193.844 134.794 193.475L133.408 193.157C132.447 192.93 132.033 192.606 132.038 192.015C132.033 191.344 132.76 190.867 133.726 190.867C134.783 190.867 135.271 191.452 135.47 192.037L137.01 191.765ZM145.588 191.765C145.236 190.407 144.173 189.52 142.287 189.52C140.315 189.52 138.918 190.56 138.918 192.106C138.918 193.344 139.668 194.168 141.304 194.532L142.781 194.856C143.622 195.043 144.014 195.418 144.014 195.964C144.014 196.64 143.293 197.168 142.179 197.168C141.162 197.168 140.509 196.731 140.304 195.873L138.662 196.123C138.946 197.668 140.23 198.537 142.19 198.537C144.298 198.537 145.759 197.418 145.759 195.839C145.759 194.606 144.974 193.844 143.372 193.475L141.986 193.157C141.026 192.93 140.611 192.606 140.616 192.015C140.611 191.344 141.338 190.867 142.304 190.867C143.361 190.867 143.849 191.452 144.048 192.037L145.588 191.765ZM150.166 198.555C151.609 198.555 152.422 197.822 152.746 197.168H152.814V198.361H154.473V192.566C154.473 190.026 152.473 189.52 151.087 189.52C149.507 189.52 148.053 190.157 147.484 191.748L149.081 192.111C149.331 191.492 149.967 190.895 151.109 190.895C152.206 190.895 152.768 191.469 152.768 192.458V192.498C152.768 193.117 152.132 193.106 150.564 193.287C148.911 193.481 147.217 193.912 147.217 195.895C147.217 197.611 148.507 198.555 150.166 198.555ZM150.536 197.191C149.575 197.191 148.882 196.759 148.882 195.918C148.882 195.009 149.689 194.685 150.672 194.555C151.223 194.481 152.53 194.333 152.774 194.089V195.214C152.774 196.248 151.95 197.191 150.536 197.191ZM160.395 201.816C162.616 201.816 164.332 200.799 164.332 198.555V189.634H162.668V191.049H162.543C162.241 190.509 161.639 189.52 160.014 189.52C157.906 189.52 156.355 191.185 156.355 193.964C156.355 196.748 157.94 198.231 160.003 198.231C161.605 198.231 162.224 197.327 162.531 196.77H162.639V198.486C162.639 199.856 161.702 200.447 160.412 200.447C158.997 200.447 158.446 199.736 158.145 199.236L156.685 199.839C157.145 200.907 158.31 201.816 160.395 201.816ZM160.378 196.822C158.861 196.822 158.071 195.657 158.071 193.941C158.071 192.265 158.844 190.964 160.378 190.964C161.861 190.964 162.656 192.174 162.656 193.941C162.656 195.742 161.844 196.822 160.378 196.822ZM170.372 198.537C172.276 198.537 173.622 197.6 174.009 196.18L172.401 195.89C172.094 196.714 171.355 197.134 170.389 197.134C168.935 197.134 167.957 196.191 167.912 194.509H174.116V193.907C174.116 190.753 172.23 189.52 170.253 189.52C167.821 189.52 166.219 191.373 166.219 194.055C166.219 196.765 167.798 198.537 170.372 198.537ZM167.918 193.236C167.986 191.998 168.884 190.924 170.264 190.924C171.582 190.924 172.446 191.901 172.452 193.236H167.918Z" fill="#6B7280"/>
</svg>
