<svg width="371" height="297" viewBox="0 0 371 297" fill="none" xmlns="http://www.w3.org/2000/svg">
<path d="M3.05682 15V6.27273H8.32386V7.21023H4.11364V10.1591H8.05114V11.0966H4.11364V14.0625H8.39205V15H3.05682ZM9.97233 15V8.45455H10.9439V9.47727H11.0291C11.1655 9.12784 11.3857 8.85653 11.6897 8.66335C11.9936 8.46733 12.3587 8.36932 12.7848 8.36932C13.2166 8.36932 13.576 8.46733 13.863 8.66335C14.1527 8.85653 14.3786 9.12784 14.5405 9.47727H14.6087C14.7763 9.1392 15.0277 8.87074 15.363 8.67188C15.6982 8.47017 16.1002 8.36932 16.5689 8.36932C17.1541 8.36932 17.6328 8.55256 18.005 8.91903C18.3772 9.28267 18.5632 9.84943 18.5632 10.6193V15H17.5576V10.6193C17.5576 10.1364 17.4255 9.79119 17.1613 9.58381C16.897 9.37642 16.586 9.27273 16.228 9.27273C15.7678 9.27273 15.4113 9.41193 15.1584 9.69034C14.9056 9.96591 14.7791 10.3153 14.7791 10.7386V15H13.7564V10.517C13.7564 10.1449 13.6357 9.84517 13.3942 9.6179C13.1527 9.38778 12.8416 9.27273 12.461 9.27273C12.1996 9.27273 11.9553 9.34233 11.728 9.48153C11.5036 9.62074 11.3218 9.81392 11.1826 10.0611C11.0462 10.3054 10.978 10.5881 10.978 10.9091V15H9.97233ZM22.2082 15.1534C21.7934 15.1534 21.417 15.0753 21.0789 14.919C20.7408 14.7599 20.4724 14.5312 20.2735 14.233C20.0746 13.9318 19.9752 13.5682 19.9752 13.142C19.9752 12.767 20.0491 12.4631 20.1968 12.2301C20.3445 11.9943 20.542 11.8097 20.7891 11.6761C21.0363 11.5426 21.309 11.4432 21.6073 11.3778C21.9084 11.3097 22.211 11.2557 22.515 11.2159C22.9127 11.1648 23.2351 11.1264 23.4823 11.1009C23.7323 11.0724 23.9141 11.0256 24.0278 10.9602C24.1442 10.8949 24.2025 10.7812 24.2025 10.6193V10.5852C24.2025 10.1648 24.0874 9.83807 23.8573 9.60511C23.63 9.37216 23.2849 9.25568 22.8218 9.25568C22.3417 9.25568 21.9653 9.3608 21.6925 9.57102C21.4198 9.78125 21.228 10.0057 21.1172 10.2443L20.1627 9.90341C20.3332 9.50568 20.5604 9.19602 20.8445 8.97443C21.1314 8.75 21.4439 8.59375 21.782 8.50568C22.1229 8.41477 22.4582 8.36932 22.7877 8.36932C22.9979 8.36932 23.2394 8.39489 23.5121 8.44602C23.7877 8.49432 24.0533 8.59517 24.309 8.74858C24.5675 8.90199 24.782 9.13352 24.9525 9.44318C25.1229 9.75284 25.2082 10.1676 25.2082 10.6875V15H24.2025V14.1136H24.1513C24.0832 14.2557 23.9695 14.4077 23.8104 14.5696C23.6513 14.7315 23.4397 14.8693 23.1755 14.983C22.9113 15.0966 22.5888 15.1534 22.2082 15.1534ZM22.3616 14.25C22.7593 14.25 23.0945 14.1719 23.3672 14.0156C23.6428 13.8594 23.8502 13.6577 23.9894 13.4105C24.1314 13.1634 24.2025 12.9034 24.2025 12.6307V11.7102C24.1599 11.7614 24.0661 11.8082 23.9212 11.8509C23.7792 11.8906 23.6144 11.9261 23.4269 11.9574C23.2422 11.9858 23.0618 12.0114 22.8857 12.0341C22.7124 12.054 22.5718 12.071 22.4638 12.0852C22.2025 12.1193 21.9582 12.1747 21.7309 12.2514C21.5064 12.3253 21.3246 12.4375 21.1854 12.5881C21.0491 12.7358 20.9809 12.9375 20.9809 13.1932C20.9809 13.5426 21.1101 13.8068 21.3687 13.9858C21.63 14.1619 21.961 14.25 22.3616 14.25ZM26.9237 15V8.45455H27.9294V15H26.9237ZM27.4351 7.36364C27.2391 7.36364 27.07 7.29688 26.928 7.16335C26.7888 7.02983 26.7192 6.86932 26.7192 6.68182C26.7192 6.49432 26.7888 6.33381 26.928 6.20028C27.07 6.06676 27.2391 6 27.4351 6C27.6311 6 27.7987 6.06676 27.9379 6.20028C28.08 6.33381 28.151 6.49432 28.151 6.68182C28.151 6.86932 28.08 7.02983 27.9379 7.16335C27.7987 7.29688 27.6311 7.36364 27.4351 7.36364ZM30.6571 6.27273V15H29.6514V6.27273H30.6571Z" fill="#0E0B3D"/>
<rect x="2" y="24" width="367" height="32" rx="6" fill="#F7F9FC"/>
<g clip-path="url(#clip0_198_9853)">
<path d="M17.6648 44.6364C17.0341 44.6364 16.4901 44.4972 16.0327 44.2188C15.5781 43.9375 15.2273 43.5455 14.9801 43.0426C14.7358 42.5369 14.6136 41.9489 14.6136 41.2784C14.6136 40.608 14.7358 40.017 14.9801 39.5057C15.2273 38.9915 15.571 38.5909 16.0114 38.304C16.4545 38.0142 16.9716 37.8693 17.5625 37.8693C17.9034 37.8693 18.2401 37.9261 18.5724 38.0398C18.9048 38.1534 19.2074 38.3381 19.4801 38.5938C19.7528 38.8466 19.9702 39.1818 20.1321 39.5994C20.294 40.017 20.375 40.5312 20.375 41.142V41.5682H15.3295V40.6989H19.3523C19.3523 40.3295 19.2784 40 19.1307 39.7102C18.9858 39.4205 18.7784 39.1918 18.5085 39.0241C18.2415 38.8565 17.9261 38.7727 17.5625 38.7727C17.1619 38.7727 16.8153 38.8722 16.5227 39.071C16.233 39.267 16.0099 39.5227 15.8537 39.8381C15.6974 40.1534 15.6193 40.4915 15.6193 40.8523V41.4318C15.6193 41.9261 15.7045 42.3452 15.875 42.6889C16.0483 43.0298 16.2884 43.2898 16.5952 43.4688C16.902 43.6449 17.2585 43.733 17.6648 43.733C17.929 43.733 18.1676 43.696 18.3807 43.6222C18.5966 43.5455 18.7827 43.4318 18.9389 43.2812C19.0952 43.1278 19.2159 42.9375 19.3011 42.7102L20.2727 42.983C20.1705 43.3125 19.9986 43.6023 19.7571 43.8523C19.5156 44.0994 19.2173 44.2926 18.8622 44.4318C18.5071 44.5682 18.108 44.6364 17.6648 44.6364ZM22.359 37.9545L23.9272 40.6307L25.4954 37.9545H26.6545L24.5409 41.2273L26.6545 44.5H25.4954L23.9272 41.9602L22.359 44.5H21.2L23.2795 41.2273L21.2 37.9545H22.359ZM29.8957 44.6534C29.4809 44.6534 29.1045 44.5753 28.7664 44.419C28.4283 44.2599 28.1599 44.0312 27.961 43.733C27.7621 43.4318 27.6627 43.0682 27.6627 42.642C27.6627 42.267 27.7366 41.9631 27.8843 41.7301C28.032 41.4943 28.2295 41.3097 28.4766 41.1761C28.7238 41.0426 28.9965 40.9432 29.2948 40.8778C29.5959 40.8097 29.8985 40.7557 30.2025 40.7159C30.6002 40.6648 30.9226 40.6264 31.1698 40.6009C31.4198 40.5724 31.6016 40.5256 31.7153 40.4602C31.8317 40.3949 31.89 40.2812 31.89 40.1193V40.0852C31.89 39.6648 31.7749 39.3381 31.5448 39.1051C31.3175 38.8722 30.9724 38.7557 30.5093 38.7557C30.0292 38.7557 29.6528 38.8608 29.38 39.071C29.1073 39.2812 28.9155 39.5057 28.8047 39.7443L27.8502 39.4034C28.0207 39.0057 28.2479 38.696 28.532 38.4744C28.8189 38.25 29.1314 38.0937 29.4695 38.0057C29.8104 37.9148 30.1457 37.8693 30.4752 37.8693C30.6854 37.8693 30.9269 37.8949 31.1996 37.946C31.4752 37.9943 31.7408 38.0952 31.9965 38.2486C32.255 38.402 32.4695 38.6335 32.64 38.9432C32.8104 39.2528 32.8957 39.6676 32.8957 40.1875V44.5H31.89V43.6136H31.8388C31.7707 43.7557 31.657 43.9077 31.4979 44.0696C31.3388 44.2315 31.1272 44.3693 30.863 44.483C30.5988 44.5966 30.2763 44.6534 29.8957 44.6534ZM30.0491 43.75C30.4468 43.75 30.782 43.6719 31.0547 43.5156C31.3303 43.3594 31.5377 43.1577 31.6769 42.9105C31.8189 42.6634 31.89 42.4034 31.89 42.1307V41.2102C31.8474 41.2614 31.7536 41.3082 31.6087 41.3509C31.4667 41.3906 31.3019 41.4261 31.1144 41.4574C30.9297 41.4858 30.7493 41.5114 30.5732 41.5341C30.3999 41.554 30.2593 41.571 30.1513 41.5852C29.89 41.6193 29.6457 41.6747 29.4184 41.7514C29.1939 41.8253 29.0121 41.9375 28.8729 42.0881C28.7366 42.2358 28.6684 42.4375 28.6684 42.6932C28.6684 43.0426 28.7976 43.3068 29.0562 43.4858C29.3175 43.6619 29.6485 43.75 30.0491 43.75ZM34.6112 44.5V37.9545H35.5828V38.9773H35.6681C35.8044 38.6278 36.0246 38.3565 36.3286 38.1634C36.6325 37.9673 36.9976 37.8693 37.4237 37.8693C37.8556 37.8693 38.2149 37.9673 38.5019 38.1634C38.7916 38.3565 39.0175 38.6278 39.1794 38.9773H39.2476C39.4152 38.6392 39.6666 38.3707 40.0019 38.1719C40.3371 37.9702 40.7391 37.8693 41.2078 37.8693C41.7931 37.8693 42.2717 38.0526 42.6439 38.419C43.0161 38.7827 43.2021 39.3494 43.2021 40.1193V44.5H42.1965V40.1193C42.1965 39.6364 42.0644 39.2912 41.8002 39.0838C41.536 38.8764 41.2249 38.7727 40.8669 38.7727C40.4067 38.7727 40.0502 38.9119 39.7973 39.1903C39.5445 39.4659 39.4181 39.8153 39.4181 40.2386V44.5H38.3953V40.017C38.3953 39.6449 38.2746 39.3452 38.0331 39.1179C37.7916 38.8878 37.4806 38.7727 37.0999 38.7727C36.8385 38.7727 36.5942 38.8423 36.3669 38.9815C36.1425 39.1207 35.9607 39.3139 35.8215 39.5611C35.6851 39.8054 35.6169 40.0881 35.6169 40.4091V44.5H34.6112ZM44.9209 46.9545V37.9545H45.8925V38.9943H46.0118C46.0857 38.8807 46.188 38.7358 46.3187 38.5597C46.4522 38.3807 46.6425 38.2216 46.8897 38.0824C47.1397 37.9403 47.4777 37.8693 47.9039 37.8693C48.455 37.8693 48.9408 38.0071 49.3613 38.2827C49.7817 38.5582 50.1098 38.9489 50.3456 39.4545C50.5814 39.9602 50.6993 40.5568 50.6993 41.2443C50.6993 41.9375 50.5814 42.5384 50.3456 43.0469C50.1098 43.5526 49.7831 43.9446 49.3655 44.223C48.9479 44.4986 48.4664 44.6364 47.9209 44.6364C47.5005 44.6364 47.1638 44.5668 46.911 44.4276C46.6581 44.2855 46.4635 44.125 46.3272 43.946C46.1908 43.7642 46.0857 43.6136 46.0118 43.4943H45.9266V46.9545H44.9209ZM45.9096 41.2273C45.9096 41.7216 45.982 42.1577 46.1269 42.5355C46.2718 42.9105 46.4834 43.2045 46.7618 43.4176C47.0402 43.6278 47.3812 43.733 47.7846 43.733C48.205 43.733 48.5559 43.6222 48.8371 43.4006C49.1212 43.1761 49.3343 42.875 49.4763 42.4972C49.6212 42.1165 49.6937 41.6932 49.6937 41.2273C49.6937 40.767 49.6226 40.3523 49.4806 39.983C49.3414 39.6108 49.1297 39.3168 48.8456 39.1009C48.5644 38.8821 48.2107 38.7727 47.7846 38.7727C47.3755 38.7727 47.0317 38.8764 46.7533 39.0838C46.4749 39.2884 46.2647 39.5753 46.1226 39.9446C45.9806 40.3111 45.9096 40.7386 45.9096 41.2273ZM53.1191 35.7727V44.5H52.1134V35.7727H53.1191ZM57.5854 44.6364C56.9547 44.6364 56.4107 44.4972 55.9533 44.2188C55.4987 43.9375 55.1479 43.5455 54.9007 43.0426C54.6564 42.5369 54.5343 41.9489 54.5343 41.2784C54.5343 40.608 54.6564 40.017 54.9007 39.5057C55.1479 38.9915 55.4916 38.5909 55.932 38.304C56.3752 38.0142 56.8922 37.8693 57.4831 37.8693C57.824 37.8693 58.1607 37.9261 58.4931 38.0398C58.8255 38.1534 59.128 38.3381 59.4007 38.5938C59.6735 38.8466 59.8908 39.1818 60.0527 39.5994C60.2147 40.017 60.2956 40.5312 60.2956 41.142V41.5682H55.2502V40.6989H59.2729C59.2729 40.3295 59.199 40 59.0513 39.7102C58.9064 39.4205 58.699 39.1918 58.4291 39.0241C58.1621 38.8565 57.8468 38.7727 57.4831 38.7727C57.0826 38.7727 56.736 38.8722 56.4434 39.071C56.1536 39.267 55.9306 39.5227 55.7743 39.8381C55.6181 40.1534 55.5399 40.4915 55.5399 40.8523V41.4318C55.5399 41.9261 55.6252 42.3452 55.7956 42.6889C55.9689 43.0298 56.209 43.2898 56.5158 43.4688C56.8226 43.6449 57.1791 43.733 57.5854 43.733C57.8496 43.733 58.0882 43.696 58.3013 43.6222C58.5172 43.5455 58.7033 43.4318 58.8595 43.2812C59.0158 43.1278 59.1365 42.9375 59.2218 42.7102L60.1934 42.983C60.0911 43.3125 59.9192 43.6023 59.6777 43.8523C59.4362 44.0994 59.138 44.2926 58.7828 44.4318C58.4277 44.5682 58.0286 44.6364 57.5854 44.6364ZM66.7339 46.8011C65.8645 46.8011 65.0961 46.6818 64.4285 46.4432C63.7609 46.2074 63.1998 45.8594 62.7452 45.3991C62.2907 44.9389 61.9469 44.375 61.714 43.7074C61.481 43.0398 61.3645 42.2756 61.3645 41.4148C61.3645 40.5824 61.4824 39.8381 61.7182 39.1818C61.9569 38.5256 62.302 37.9688 62.7537 37.5114C63.2083 37.0511 63.7594 36.7003 64.4072 36.4588C65.0577 36.2173 65.7935 36.0966 66.6145 36.0966C67.4128 36.0966 68.1117 36.2273 68.7111 36.4886C69.3134 36.7472 69.8163 37.098 70.2197 37.5412C70.6259 37.9815 70.9299 38.4773 71.1316 39.0284C71.3361 39.5795 71.4384 40.1477 71.4384 40.733C71.4384 41.1449 71.4185 41.5625 71.3787 41.9858C71.339 42.4091 71.2552 42.7983 71.1273 43.1534C70.9995 43.5057 70.802 43.7898 70.535 44.0057C70.2708 44.2216 69.9128 44.3295 69.4611 44.3295C69.2623 44.3295 69.0435 44.2983 68.8049 44.2358C68.5662 44.1733 68.3546 44.0696 68.1699 43.9247C67.9853 43.7798 67.8759 43.5852 67.8418 43.3409H67.7907C67.7225 43.5057 67.6174 43.6619 67.4753 43.8097C67.3361 43.9574 67.1529 44.0753 66.9256 44.1634C66.7012 44.2514 66.427 44.2898 66.1032 44.2784C65.7339 44.2642 65.4086 44.1818 65.1273 44.0312C64.8461 43.8778 64.6103 43.6705 64.4199 43.4091C64.2324 43.1449 64.0904 42.8395 63.9938 42.4929C63.9001 42.1435 63.8532 41.767 63.8532 41.3636C63.8532 40.9801 63.91 40.6293 64.0236 40.3111C64.1373 39.9929 64.2949 39.7145 64.4966 39.4759C64.7012 39.2372 64.9398 39.0469 65.2126 38.9048C65.4881 38.7599 65.785 38.6705 66.1032 38.6364C66.3873 38.608 66.6458 38.6207 66.8787 38.6747C67.1117 38.7259 67.3035 38.804 67.454 38.9091C67.6046 39.0114 67.6998 39.125 67.7395 39.25H67.7907V38.7727H68.6941V42.625C68.6941 42.8636 68.7609 43.0739 68.8944 43.2557C69.0279 43.4375 69.2225 43.5284 69.4782 43.5284C69.768 43.5284 69.9895 43.429 70.143 43.2301C70.2992 43.0312 70.4057 42.7244 70.4626 42.3097C70.5222 41.8949 70.552 41.3636 70.552 40.7159C70.552 40.3352 70.4995 39.9602 70.3944 39.5909C70.2921 39.2187 70.1359 38.8707 69.9256 38.5469C69.7182 38.223 69.4555 37.9375 69.1373 37.6903C68.8191 37.4432 68.4455 37.25 68.0165 37.1108C67.5904 36.9687 67.106 36.8977 66.5634 36.8977C65.8958 36.8977 65.2978 37.0014 64.7694 37.2088C64.2438 37.4134 63.7964 37.7131 63.427 38.108C63.0606 38.5 62.7807 38.9773 62.5876 39.5398C62.3972 40.0994 62.302 40.7358 62.302 41.4489C62.302 42.1733 62.3972 42.8168 62.5876 43.3793C62.7807 43.9418 63.0648 44.4162 63.4398 44.8026C63.8177 45.1889 64.285 45.4815 64.8418 45.6804C65.3986 45.8821 66.0407 45.983 66.768 45.983C67.0805 45.983 67.3887 45.9531 67.6927 45.8935C67.9966 45.8338 68.2651 45.7685 68.4981 45.6974C68.731 45.6264 68.8986 45.5739 69.0009 45.5398L69.2395 46.3239C69.0634 46.3977 68.8333 46.4716 68.5492 46.5455C68.268 46.6193 67.9668 46.6804 67.6458 46.7287C67.3276 46.777 67.0236 46.8011 66.7339 46.8011ZM66.2395 43.4091C66.6202 43.4091 66.9285 43.3324 67.1643 43.179C67.4001 43.0256 67.5719 42.794 67.6799 42.4844C67.7878 42.1747 67.8418 41.7841 67.8418 41.3125C67.8418 40.8352 67.7822 40.4631 67.6628 40.196C67.5435 39.929 67.3674 39.7415 67.1344 39.6335C66.9015 39.5256 66.6145 39.4716 66.2736 39.4716C65.9498 39.4716 65.6728 39.5568 65.4427 39.7273C65.2154 39.8949 65.0407 40.1193 64.9185 40.4006C64.7992 40.679 64.7395 40.983 64.7395 41.3125C64.7395 41.6761 64.7878 42.0185 64.8844 42.3395C64.981 42.6577 65.1387 42.9162 65.3574 43.1151C65.5762 43.3111 65.8702 43.4091 66.2395 43.4091ZM75.4658 47.0909C74.98 47.0909 74.5624 47.0284 74.2129 46.9034C73.8635 46.7812 73.5723 46.6193 73.3394 46.4176C73.1092 46.2188 72.926 46.0057 72.7896 45.7784L73.5908 45.2159C73.6817 45.3352 73.7967 45.4716 73.936 45.625C74.0752 45.7812 74.2655 45.9162 74.507 46.0298C74.7513 46.1463 75.0709 46.2045 75.4658 46.2045C75.9942 46.2045 76.4303 46.0767 76.774 45.821C77.1178 45.5653 77.2896 45.1648 77.2896 44.6193V43.2898H77.2044C77.1306 43.4091 77.0254 43.5568 76.8891 43.733C76.7556 43.9062 76.5624 44.0611 76.3095 44.1974C76.0595 44.331 75.7215 44.3977 75.2953 44.3977C74.7669 44.3977 74.2925 44.2727 73.872 44.0227C73.4544 43.7727 73.1235 43.4091 72.8791 42.9318C72.6377 42.4545 72.5169 41.875 72.5169 41.1932C72.5169 40.5227 72.6348 39.9389 72.8706 39.4418C73.1064 38.9418 73.4345 38.5554 73.855 38.2827C74.2754 38.0071 74.7612 37.8693 75.3124 37.8693C75.7385 37.8693 76.0766 37.9403 76.3266 38.0824C76.5794 38.2216 76.7726 38.3807 76.9061 38.5597C77.0425 38.7358 77.1476 38.8807 77.2215 38.9943H77.3237V37.9545H78.2953V44.6875C78.2953 45.25 78.1675 45.7074 77.9118 46.0597C77.659 46.4148 77.3181 46.6747 76.8891 46.8395C76.4629 47.0071 75.9885 47.0909 75.4658 47.0909ZM75.4317 43.4943C75.8351 43.4943 76.176 43.402 76.4544 43.2173C76.7328 43.0327 76.9445 42.767 77.0894 42.4205C77.2342 42.0739 77.3067 41.6591 77.3067 41.1761C77.3067 40.7045 77.2357 40.2884 77.0936 39.9276C76.9516 39.5668 76.7414 39.2841 76.4629 39.0795C76.1845 38.875 75.8408 38.7727 75.4317 38.7727C75.0056 38.7727 74.6504 38.8807 74.3664 39.0966C74.0851 39.3125 73.8735 39.6023 73.7314 39.9659C73.5922 40.3295 73.5226 40.733 73.5226 41.1761C73.5226 41.6307 73.5936 42.0327 73.7357 42.3821C73.8806 42.7287 74.0936 43.0014 74.3749 43.2003C74.659 43.3963 75.0112 43.4943 75.4317 43.4943ZM80.0162 44.5V37.9545H80.9878V38.9773H81.0731C81.2094 38.6278 81.4296 38.3565 81.7336 38.1634C82.0375 37.9673 82.4026 37.8693 82.8287 37.8693C83.2606 37.8693 83.6199 37.9673 83.9069 38.1634C84.1966 38.3565 84.4225 38.6278 84.5844 38.9773H84.6526C84.8202 38.6392 85.0716 38.3707 85.4069 38.1719C85.7421 37.9702 86.1441 37.8693 86.6128 37.8693C87.1981 37.8693 87.6767 38.0526 88.0489 38.419C88.4211 38.7827 88.6071 39.3494 88.6071 40.1193V44.5H87.6015V40.1193C87.6015 39.6364 87.4694 39.2912 87.2052 39.0838C86.9409 38.8764 86.6299 38.7727 86.2719 38.7727C85.8117 38.7727 85.4552 38.9119 85.2023 39.1903C84.9495 39.4659 84.8231 39.8153 84.8231 40.2386V44.5H83.8003V40.017C83.8003 39.6449 83.6796 39.3452 83.4381 39.1179C83.1966 38.8878 82.8856 38.7727 82.5049 38.7727C82.2435 38.7727 81.9992 38.8423 81.7719 38.9815C81.5475 39.1207 81.3657 39.3139 81.2265 39.5611C81.0901 39.8054 81.0219 40.0881 81.0219 40.4091V44.5H80.0162ZM92.2521 44.6534C91.8373 44.6534 91.4609 44.5753 91.1228 44.419C90.7847 44.2599 90.5163 44.0312 90.3174 43.733C90.1185 43.4318 90.0191 43.0682 90.0191 42.642C90.0191 42.267 90.093 41.9631 90.2407 41.7301C90.3884 41.4943 90.5859 41.3097 90.833 41.1761C91.0802 41.0426 91.3529 40.9432 91.6512 40.8778C91.9523 40.8097 92.2549 40.7557 92.5589 40.7159C92.9566 40.6648 93.2791 40.6264 93.5262 40.6009C93.7762 40.5724 93.958 40.5256 94.0717 40.4602C94.1881 40.3949 94.2464 40.2812 94.2464 40.1193V40.0852C94.2464 39.6648 94.1313 39.3381 93.9012 39.1051C93.6739 38.8722 93.3288 38.7557 92.8657 38.7557C92.3856 38.7557 92.0092 38.8608 91.7364 39.071C91.4637 39.2812 91.2719 39.5057 91.1612 39.7443L90.2066 39.4034C90.3771 39.0057 90.6043 38.696 90.8884 38.4744C91.1754 38.25 91.4879 38.0937 91.8259 38.0057C92.1668 37.9148 92.5021 37.8693 92.8316 37.8693C93.0418 37.8693 93.2833 37.8949 93.556 37.946C93.8316 37.9943 94.0972 38.0952 94.3529 38.2486C94.6114 38.402 94.8259 38.6335 94.9964 38.9432C95.1668 39.2528 95.2521 39.6676 95.2521 40.1875V44.5H94.2464V43.6136H94.1952C94.1271 43.7557 94.0134 43.9077 93.8543 44.0696C93.6952 44.2315 93.4836 44.3693 93.2194 44.483C92.9552 44.5966 92.6327 44.6534 92.2521 44.6534ZM92.4055 43.75C92.8032 43.75 93.1384 43.6719 93.4112 43.5156C93.6867 43.3594 93.8941 43.1577 94.0333 42.9105C94.1754 42.6634 94.2464 42.4034 94.2464 42.1307V41.2102C94.2038 41.2614 94.11 41.3082 93.9651 41.3509C93.8231 41.3906 93.6583 41.4261 93.4708 41.4574C93.2862 41.4858 93.1058 41.5114 92.9296 41.5341C92.7563 41.554 92.6157 41.571 92.5077 41.5852C92.2464 41.6193 92.0021 41.6747 91.7748 41.7514C91.5504 41.8253 91.3685 41.9375 91.2293 42.0881C91.093 42.2358 91.0248 42.4375 91.0248 42.6932C91.0248 43.0426 91.1541 43.3068 91.4126 43.4858C91.6739 43.6619 92.0049 43.75 92.4055 43.75ZM96.9676 44.5V37.9545H97.9733V44.5H96.9676ZM97.479 36.8636C97.283 36.8636 97.1139 36.7969 96.9719 36.6634C96.8327 36.5298 96.7631 36.3693 96.7631 36.1818C96.7631 35.9943 96.8327 35.8338 96.9719 35.7003C97.1139 35.5668 97.283 35.5 97.479 35.5C97.675 35.5 97.8426 35.5668 97.9818 35.7003C98.1239 35.8338 98.1949 35.9943 98.1949 36.1818C98.1949 36.3693 98.1239 36.5298 97.9818 36.6634C97.8426 36.7969 97.675 36.8636 97.479 36.8636ZM100.701 35.7727V44.5H99.6953V35.7727H100.701ZM103.156 44.5682C102.946 44.5682 102.765 44.4929 102.615 44.3423C102.464 44.1918 102.389 44.0114 102.389 43.8011C102.389 43.5909 102.464 43.4105 102.615 43.2599C102.765 43.1094 102.946 43.0341 103.156 43.0341C103.366 43.0341 103.547 43.1094 103.697 43.2599C103.848 43.4105 103.923 43.5909 103.923 43.8011C103.923 43.9403 103.887 44.0682 103.816 44.1847C103.748 44.3011 103.656 44.3949 103.539 44.4659C103.426 44.5341 103.298 44.5682 103.156 44.5682ZM108.267 44.6364C107.653 44.6364 107.125 44.4915 106.682 44.2017C106.238 43.9119 105.897 43.5128 105.659 43.0043C105.42 42.4957 105.301 41.9148 105.301 41.2614C105.301 40.5966 105.423 40.0099 105.667 39.5014C105.914 38.9901 106.258 38.5909 106.699 38.304C107.142 38.0142 107.659 37.8693 108.25 37.8693C108.71 37.8693 109.125 37.9545 109.494 38.125C109.863 38.2955 110.166 38.5341 110.402 38.8409C110.637 39.1477 110.784 39.5057 110.841 39.9148H109.835C109.758 39.6165 109.588 39.3523 109.324 39.1222C109.062 38.8892 108.71 38.7727 108.267 38.7727C107.875 38.7727 107.531 38.875 107.235 39.0795C106.943 39.2812 106.714 39.5668 106.549 39.9361C106.387 40.3026 106.307 40.733 106.307 41.2273C106.307 41.733 106.386 42.1733 106.545 42.5483C106.707 42.9233 106.934 43.2145 107.227 43.4219C107.522 43.6293 107.869 43.733 108.267 43.733C108.528 43.733 108.765 43.6875 108.978 43.5966C109.191 43.5057 109.372 43.375 109.52 43.2045C109.667 43.0341 109.772 42.8295 109.835 42.5909H110.841C110.784 42.9773 110.643 43.3253 110.419 43.6349C110.197 43.9418 109.903 44.1861 109.537 44.3679C109.173 44.5469 108.75 44.6364 108.267 44.6364ZM114.85 44.6364C114.259 44.6364 113.74 44.4957 113.294 44.2145C112.851 43.9332 112.505 43.5398 112.255 43.0341C112.008 42.5284 111.884 41.9375 111.884 41.2614C111.884 40.5795 112.008 39.9844 112.255 39.4759C112.505 38.9673 112.851 38.5724 113.294 38.2912C113.74 38.0099 114.259 37.8693 114.85 37.8693C115.441 37.8693 115.958 38.0099 116.401 38.2912C116.847 38.5724 117.194 38.9673 117.441 39.4759C117.691 39.9844 117.816 40.5795 117.816 41.2614C117.816 41.9375 117.691 42.5284 117.441 43.0341C117.194 43.5398 116.847 43.9332 116.401 44.2145C115.958 44.4957 115.441 44.6364 114.85 44.6364ZM114.85 43.733C115.299 43.733 115.668 43.6179 115.958 43.3878C116.248 43.1577 116.462 42.8551 116.601 42.4801C116.74 42.1051 116.81 41.6989 116.81 41.2614C116.81 40.8239 116.74 40.4162 116.601 40.0384C116.462 39.6605 116.248 39.3551 115.958 39.1222C115.668 38.8892 115.299 38.7727 114.85 38.7727C114.401 38.7727 114.032 38.8892 113.742 39.1222C113.452 39.3551 113.238 39.6605 113.098 40.0384C112.959 40.4162 112.89 40.8239 112.89 41.2614C112.89 41.6989 112.959 42.1051 113.098 42.4801C113.238 42.8551 113.452 43.1577 113.742 43.3878C114.032 43.6179 114.401 43.733 114.85 43.733ZM119.231 44.5V37.9545H120.203V38.9773H120.288C120.424 38.6278 120.644 38.3565 120.948 38.1634C121.252 37.9673 121.617 37.8693 122.043 37.8693C122.475 37.8693 122.835 37.9673 123.122 38.1634C123.411 38.3565 123.637 38.6278 123.799 38.9773H123.867C124.035 38.6392 124.286 38.3707 124.622 38.1719C124.957 37.9702 125.359 37.8693 125.828 37.8693C126.413 37.8693 126.891 38.0526 127.264 38.419C127.636 38.7827 127.822 39.3494 127.822 40.1193V44.5H126.816V40.1193C126.816 39.6364 126.684 39.2912 126.42 39.0838C126.156 38.8764 125.845 38.7727 125.487 38.7727C125.026 38.7727 124.67 38.9119 124.417 39.1903C124.164 39.4659 124.038 39.8153 124.038 40.2386V44.5H123.015V40.017C123.015 39.6449 122.894 39.3452 122.653 39.1179C122.411 38.8878 122.1 38.7727 121.72 38.7727C121.458 38.7727 121.214 38.8423 120.987 38.9815C120.762 39.1207 120.58 39.3139 120.441 39.5611C120.305 39.8054 120.237 40.0881 120.237 40.4091V44.5H119.231Z" fill="#B3B8D0"/>
</g>
<path d="M7.82955 76.4545C7.77841 76.0227 7.57102 75.6875 7.20739 75.4489C6.84375 75.2102 6.39773 75.0909 5.86932 75.0909C5.48295 75.0909 5.14489 75.1534 4.85511 75.2784C4.56818 75.4034 4.34375 75.5753 4.18182 75.794C4.02273 76.0128 3.94318 76.2614 3.94318 76.5398C3.94318 76.7727 3.99858 76.973 4.10938 77.1406C4.22301 77.3054 4.3679 77.4432 4.54403 77.554C4.72017 77.6619 4.90483 77.7514 5.09801 77.8224C5.29119 77.8906 5.46875 77.946 5.63068 77.9886L6.51705 78.2273C6.74432 78.2869 6.99716 78.3693 7.27557 78.4744C7.55682 78.5795 7.82528 78.723 8.08097 78.9048C8.33949 79.0838 8.55256 79.3139 8.72017 79.5952C8.88778 79.8764 8.97159 80.2216 8.97159 80.6307C8.97159 81.1023 8.84801 81.5284 8.60085 81.9091C8.35653 82.2898 7.99858 82.5923 7.52699 82.8168C7.05824 83.0412 6.48864 83.1534 5.81818 83.1534C5.19318 83.1534 4.65199 83.0526 4.1946 82.8509C3.74006 82.6491 3.3821 82.3679 3.12074 82.0071C2.86222 81.6463 2.71591 81.2273 2.68182 80.75H3.77273C3.80114 81.0795 3.91193 81.3523 4.10511 81.5682C4.30114 81.7812 4.5483 81.9403 4.84659 82.0455C5.14773 82.1477 5.47159 82.1989 5.81818 82.1989C6.22159 82.1989 6.58381 82.1335 6.90483 82.0028C7.22585 81.8693 7.48011 81.6847 7.66761 81.4489C7.85511 81.2102 7.94886 80.9318 7.94886 80.6136C7.94886 80.3239 7.8679 80.0881 7.70597 79.9062C7.54403 79.7244 7.33097 79.5767 7.06676 79.4631C6.80256 79.3494 6.51705 79.25 6.21023 79.1648L5.13636 78.858C4.45455 78.6619 3.91477 78.3821 3.51705 78.0185C3.11932 77.6548 2.92045 77.179 2.92045 76.5909C2.92045 76.1023 3.05256 75.6761 3.31676 75.3125C3.58381 74.946 3.94176 74.6619 4.39062 74.4602C4.84233 74.2557 5.34659 74.1534 5.90341 74.1534C6.46591 74.1534 6.96591 74.2543 7.40341 74.456C7.84091 74.6548 8.1875 74.9276 8.44318 75.2741C8.7017 75.6207 8.83807 76.0142 8.85227 76.4545H7.82955ZM14.5778 80.3239V76.4545H15.5835V83H14.5778V81.892H14.5096C14.3562 82.2244 14.1176 82.5071 13.7937 82.7401C13.4698 82.9702 13.0608 83.0852 12.5664 83.0852C12.1573 83.0852 11.7937 82.9957 11.4755 82.8168C11.1573 82.6349 10.9073 82.3622 10.7255 81.9986C10.5437 81.6321 10.4528 81.1705 10.4528 80.6136V76.4545H11.4585V80.5455C11.4585 81.0227 11.592 81.4034 11.859 81.6875C12.1289 81.9716 12.4727 82.1136 12.8903 82.1136C13.1403 82.1136 13.3946 82.0497 13.6531 81.9219C13.9144 81.794 14.1332 81.598 14.3093 81.3338C14.4883 81.0696 14.5778 80.733 14.5778 80.3239ZM17.4418 83V74.2727H18.4475V77.4943H18.5327C18.6066 77.3807 18.7089 77.2358 18.8395 77.0597C18.9731 76.8807 19.1634 76.7216 19.4106 76.5824C19.6606 76.4403 19.9986 76.3693 20.4248 76.3693C20.9759 76.3693 21.4617 76.5071 21.8822 76.7827C22.3026 77.0582 22.6307 77.4489 22.8665 77.9545C23.1023 78.4602 23.2202 79.0568 23.2202 79.7443C23.2202 80.4375 23.1023 81.0384 22.8665 81.5469C22.6307 82.0526 22.304 82.4446 21.8864 82.723C21.4688 82.9986 20.9873 83.1364 20.4418 83.1364C20.0214 83.1364 19.6847 83.0668 19.4319 82.9276C19.179 82.7855 18.9844 82.625 18.8481 82.446C18.7117 82.2642 18.6066 82.1136 18.5327 81.9943H18.4134V83H17.4418ZM18.4305 79.7273C18.4305 80.2216 18.5029 80.6577 18.6478 81.0355C18.7927 81.4105 19.0043 81.7045 19.2827 81.9176C19.5611 82.1278 19.902 82.233 20.3055 82.233C20.7259 82.233 21.0768 82.1222 21.358 81.9006C21.6421 81.6761 21.8552 81.375 21.9972 80.9972C22.1421 80.6165 22.2145 80.1932 22.2145 79.7273C22.2145 79.267 22.1435 78.8523 22.0015 78.483C21.8623 78.1108 21.6506 77.8168 21.3665 77.6009C21.0853 77.3821 20.7316 77.2727 20.3055 77.2727C19.8964 77.2727 19.5526 77.3764 19.2742 77.5838C18.9958 77.7884 18.7856 78.0753 18.6435 78.4446C18.5015 78.8111 18.4305 79.2386 18.4305 79.7273ZM24.6386 76.4545H25.6443V83.4773C25.6443 83.8807 25.5747 84.2301 25.4355 84.5256C25.2991 84.821 25.0917 85.0497 24.8133 85.2116C24.5377 85.3736 24.1897 85.4545 23.7693 85.4545C23.7352 85.4545 23.7011 85.4545 23.667 85.4545C23.6329 85.4545 23.5988 85.4545 23.5647 85.4545V84.517C23.5988 84.517 23.6301 84.517 23.6585 84.517C23.6869 84.517 23.7181 84.517 23.7522 84.517C24.059 84.517 24.2835 84.4261 24.4255 84.2443C24.5676 84.0653 24.6386 83.8097 24.6386 83.4773V76.4545ZM25.1329 75.3636C24.9369 75.3636 24.7678 75.2969 24.6258 75.1634C24.4866 75.0298 24.417 74.8693 24.417 74.6818C24.417 74.4943 24.4866 74.3338 24.6258 74.2003C24.7678 74.0668 24.9369 74 25.1329 74C25.3289 74 25.4965 74.0668 25.6357 74.2003C25.7778 74.3338 25.8488 74.4943 25.8488 74.6818C25.8488 74.8693 25.7778 75.0298 25.6357 75.1634C25.4965 75.2969 25.3289 75.3636 25.1329 75.3636ZM30.1106 83.1364C29.4799 83.1364 28.9358 82.9972 28.4785 82.7188C28.0239 82.4375 27.6731 82.0455 27.4259 81.5426C27.1816 81.0369 27.0594 80.4489 27.0594 79.7784C27.0594 79.108 27.1816 78.517 27.4259 78.0057C27.6731 77.4915 28.0168 77.0909 28.4571 76.804C28.9003 76.5142 29.4174 76.3693 30.0083 76.3693C30.3492 76.3693 30.6858 76.4261 31.0182 76.5398C31.3506 76.6534 31.6532 76.8381 31.9259 77.0938C32.1986 77.3466 32.416 77.6818 32.5779 78.0994C32.7398 78.517 32.8208 79.0312 32.8208 79.642V80.0682H27.7753V79.1989H31.7981C31.7981 78.8295 31.7242 78.5 31.5765 78.2102C31.4316 77.9205 31.2242 77.6918 30.9543 77.5241C30.6873 77.3565 30.3719 77.2727 30.0083 77.2727C29.6077 77.2727 29.2611 77.3722 28.9685 77.571C28.6787 77.767 28.4557 78.0227 28.2995 78.3381C28.1432 78.6534 28.0651 78.9915 28.0651 79.3523V79.9318C28.0651 80.4261 28.1503 80.8452 28.3208 81.1889C28.4941 81.5298 28.7341 81.7898 29.041 81.9688C29.3478 82.1449 29.7043 82.233 30.1106 82.233C30.3748 82.233 30.6134 82.196 30.8265 82.1222C31.0424 82.0455 31.2285 81.9318 31.3847 81.7812C31.541 81.6278 31.6617 81.4375 31.7469 81.2102L32.7185 81.483C32.6162 81.8125 32.4444 82.1023 32.2029 82.3523C31.9614 82.5994 31.6631 82.7926 31.308 82.9318C30.9529 83.0682 30.5537 83.1364 30.1106 83.1364ZM36.8897 83.1364C36.2761 83.1364 35.7477 82.9915 35.3045 82.7017C34.8613 82.4119 34.5204 82.0128 34.2817 81.5043C34.0431 80.9957 33.9238 80.4148 33.9238 79.7614C33.9238 79.0966 34.046 78.5099 34.2903 78.0014C34.5374 77.4901 34.8812 77.0909 35.3215 76.804C35.7647 76.5142 36.2817 76.3693 36.8727 76.3693C37.3329 76.3693 37.7477 76.4545 38.117 76.625C38.4863 76.7955 38.7888 77.0341 39.0246 77.3409C39.2604 77.6477 39.4067 78.0057 39.4636 78.4148H38.4579C38.3812 78.1165 38.2107 77.8523 37.9465 77.6222C37.6852 77.3892 37.3329 77.2727 36.8897 77.2727C36.4977 77.2727 36.1539 77.375 35.8585 77.5795C35.5658 77.7812 35.3371 78.0668 35.1724 78.4361C35.0104 78.8026 34.9295 79.233 34.9295 79.7273C34.9295 80.233 35.009 80.6733 35.1681 81.0483C35.33 81.4233 35.5573 81.7145 35.8499 81.9219C36.1454 82.1293 36.492 82.233 36.8897 82.233C37.1511 82.233 37.3883 82.1875 37.6013 82.0966C37.8144 82.0057 37.9948 81.875 38.1425 81.7045C38.2903 81.5341 38.3954 81.3295 38.4579 81.0909H39.4636C39.4067 81.4773 39.2661 81.8253 39.0417 82.1349C38.8201 82.4418 38.5261 82.6861 38.1596 82.8679C37.796 83.0469 37.3727 83.1364 36.8897 83.1364ZM43.6603 76.4545V77.3068H40.2683V76.4545H43.6603ZM41.2569 74.8864H42.2626V81.125C42.2626 81.4091 42.3038 81.6222 42.3862 81.7642C42.4714 81.9034 42.5794 81.9972 42.71 82.0455C42.8436 82.0909 42.9842 82.1136 43.1319 82.1136C43.2427 82.1136 43.3336 82.108 43.4046 82.0966C43.4757 82.0824 43.5325 82.071 43.5751 82.0625L43.7796 82.9659C43.7115 82.9915 43.6163 83.017 43.4941 83.0426C43.372 83.071 43.2171 83.0852 43.0296 83.0852C42.7456 83.0852 42.4671 83.0241 42.1944 82.902C41.9245 82.7798 41.7001 82.5938 41.5211 82.3438C41.345 82.0938 41.2569 81.7784 41.2569 81.3977V74.8864Z" fill="#0E0B3D"/>
<rect x="2" y="92" width="367" height="32" rx="6" fill="#F7F9FC"/>
<path d="M14.3068 104.273H15.517L17.9375 108.347H18.0398L20.4602 104.273H21.6705L18.517 109.403V113H17.4602V109.403L14.3068 104.273ZM24.5142 113.136C23.9233 113.136 23.4049 112.996 22.9588 112.714C22.5157 112.433 22.1691 112.04 21.9191 111.534C21.6719 111.028 21.5483 110.437 21.5483 109.761C21.5483 109.08 21.6719 108.484 21.9191 107.976C22.1691 107.467 22.5157 107.072 22.9588 106.791C23.4049 106.51 23.9233 106.369 24.5142 106.369C25.1051 106.369 25.6222 106.51 26.0654 106.791C26.5114 107.072 26.858 107.467 27.1051 107.976C27.3551 108.484 27.4801 109.08 27.4801 109.761C27.4801 110.437 27.3551 111.028 27.1051 111.534C26.858 112.04 26.5114 112.433 26.0654 112.714C25.6222 112.996 25.1051 113.136 24.5142 113.136ZM24.5142 112.233C24.9631 112.233 25.3324 112.118 25.6222 111.888C25.912 111.658 26.1264 111.355 26.2657 110.98C26.4049 110.605 26.4745 110.199 26.4745 109.761C26.4745 109.324 26.4049 108.916 26.2657 108.538C26.1264 108.161 25.912 107.855 25.6222 107.622C25.3324 107.389 24.9631 107.273 24.5142 107.273C24.0654 107.273 23.6961 107.389 23.4063 107.622C23.1165 107.855 22.902 108.161 22.7628 108.538C22.6236 108.916 22.554 109.324 22.554 109.761C22.554 110.199 22.6236 110.605 22.7628 110.98C22.902 111.355 23.1165 111.658 23.4063 111.888C23.6961 112.118 24.0654 112.233 24.5142 112.233ZM33.0203 110.324V106.455H34.026V113H33.0203V111.892H32.9521C32.7987 112.224 32.5601 112.507 32.2362 112.74C31.9123 112.97 31.5033 113.085 31.0089 113.085C30.5998 113.085 30.2362 112.996 29.918 112.817C29.5998 112.635 29.3498 112.362 29.168 111.999C28.9862 111.632 28.8953 111.17 28.8953 110.614V106.455H29.901V110.545C29.901 111.023 30.0345 111.403 30.3015 111.688C30.5714 111.972 30.9152 112.114 31.3328 112.114C31.5828 112.114 31.8371 112.05 32.0956 111.922C32.3569 111.794 32.5757 111.598 32.7518 111.334C32.9308 111.07 33.0203 110.733 33.0203 110.324ZM35.748 113V106.455H36.7195V107.443H36.7877C36.907 107.119 37.123 106.857 37.4355 106.655C37.748 106.453 38.1002 106.352 38.4923 106.352C38.5661 106.352 38.6585 106.354 38.7693 106.357C38.8801 106.359 38.9639 106.364 39.0207 106.369V107.392C38.9866 107.384 38.9085 107.371 38.7863 107.354C38.667 107.334 38.5406 107.324 38.407 107.324C38.0889 107.324 37.8048 107.391 37.5548 107.524C37.3076 107.655 37.1116 107.837 36.9667 108.07C36.8247 108.3 36.7536 108.562 36.7536 108.858V113H35.748ZM47.9842 107.92L47.0808 108.176C47.0239 108.026 46.9401 107.879 46.8293 107.737C46.7214 107.592 46.5737 107.473 46.3862 107.379C46.1987 107.286 45.9586 107.239 45.666 107.239C45.2654 107.239 44.9316 107.331 44.6646 107.516C44.4004 107.697 44.2683 107.929 44.2683 108.21C44.2683 108.46 44.3592 108.658 44.541 108.803C44.7228 108.947 45.0069 109.068 45.3933 109.165L46.3648 109.403C46.9501 109.545 47.3862 109.763 47.6731 110.055C47.96 110.345 48.1035 110.719 48.1035 111.176C48.1035 111.551 47.9955 111.886 47.7796 112.182C47.5665 112.477 47.2683 112.71 46.8847 112.881C46.5012 113.051 46.0552 113.136 45.5467 113.136C44.879 113.136 44.3265 112.991 43.889 112.702C43.4515 112.412 43.1745 111.989 43.058 111.432L44.0126 111.193C44.1035 111.545 44.2754 111.81 44.5282 111.986C44.7839 112.162 45.1177 112.25 45.5296 112.25C45.9984 112.25 46.3705 112.151 46.6461 111.952C46.9245 111.75 47.0637 111.509 47.0637 111.227C47.0637 111 46.9842 110.81 46.8251 110.656C46.666 110.5 46.4217 110.384 46.0921 110.307L45.0012 110.051C44.4018 109.909 43.9614 109.689 43.6802 109.391C43.4018 109.089 43.2626 108.713 43.2626 108.261C43.2626 107.892 43.3663 107.565 43.5737 107.281C43.7839 106.997 44.0694 106.774 44.4302 106.612C44.7938 106.45 45.2058 106.369 45.666 106.369C46.3137 106.369 46.8222 106.511 47.1915 106.795C47.5637 107.08 47.8279 107.455 47.9842 107.92ZM53.6223 110.324V106.455H54.628V113H53.6223V111.892H53.5541C53.4007 112.224 53.1621 112.507 52.8382 112.74C52.5144 112.97 52.1053 113.085 51.611 113.085C51.2019 113.085 50.8382 112.996 50.5201 112.817C50.2019 112.635 49.9519 112.362 49.7701 111.999C49.5882 111.632 49.4973 111.17 49.4973 110.614V106.455H50.503V110.545C50.503 111.023 50.6365 111.403 50.9036 111.688C51.1735 111.972 51.5172 112.114 51.9348 112.114C52.1848 112.114 52.4391 112.05 52.6976 111.922C52.959 111.794 53.1777 111.598 53.3539 111.334C53.5328 111.07 53.6223 110.733 53.6223 110.324ZM56.4863 113V104.273H57.492V107.494H57.5773C57.6511 107.381 57.7534 107.236 57.8841 107.06C58.0176 106.881 58.2079 106.722 58.4551 106.582C58.7051 106.44 59.0432 106.369 59.4693 106.369C60.0204 106.369 60.5062 106.507 60.9267 106.783C61.3471 107.058 61.6753 107.449 61.9111 107.955C62.1469 108.46 62.2648 109.057 62.2648 109.744C62.2648 110.438 62.1469 111.038 61.9111 111.547C61.6753 112.053 61.3486 112.445 60.931 112.723C60.5133 112.999 60.0318 113.136 59.4863 113.136C59.0659 113.136 58.7292 113.067 58.4764 112.928C58.2236 112.786 58.029 112.625 57.8926 112.446C57.7562 112.264 57.6511 112.114 57.5773 111.994H57.4579V113H56.4863ZM57.475 109.727C57.475 110.222 57.5474 110.658 57.6923 111.036C57.8372 111.411 58.0488 111.705 58.3273 111.918C58.6057 112.128 58.9466 112.233 59.35 112.233C59.7704 112.233 60.1213 112.122 60.4025 111.901C60.6866 111.676 60.8997 111.375 61.0417 110.997C61.1866 110.616 61.2591 110.193 61.2591 109.727C61.2591 109.267 61.1881 108.852 61.046 108.483C60.9068 108.111 60.6952 107.817 60.4111 107.601C60.1298 107.382 59.7761 107.273 59.35 107.273C58.9409 107.273 58.5971 107.376 58.3187 107.584C58.0403 107.788 57.8301 108.075 57.6881 108.445C57.546 108.811 57.475 109.239 57.475 109.727ZM63.6831 106.455H64.6888V113.477C64.6888 113.881 64.6192 114.23 64.48 114.526C64.3436 114.821 64.1362 115.05 63.8578 115.212C63.5823 115.374 63.2342 115.455 62.8138 115.455C62.7797 115.455 62.7456 115.455 62.7115 115.455C62.6774 115.455 62.6433 115.455 62.6092 115.455V114.517C62.6433 114.517 62.6746 114.517 62.703 114.517C62.7314 114.517 62.7627 114.517 62.7967 114.517C63.1036 114.517 63.328 114.426 63.47 114.244C63.6121 114.065 63.6831 113.81 63.6831 113.477V106.455ZM64.1774 105.364C63.9814 105.364 63.8124 105.297 63.6703 105.163C63.5311 105.03 63.4615 104.869 63.4615 104.682C63.4615 104.494 63.5311 104.334 63.6703 104.2C63.8124 104.067 63.9814 104 64.1774 104C64.3735 104 64.5411 104.067 64.6803 104.2C64.8223 104.334 64.8933 104.494 64.8933 104.682C64.8933 104.869 64.8223 105.03 64.6803 105.163C64.5411 105.297 64.3735 105.364 64.1774 105.364ZM69.1551 113.136C68.5244 113.136 67.9804 112.997 67.523 112.719C67.0684 112.438 66.7176 112.045 66.4704 111.543C66.2261 111.037 66.1039 110.449 66.1039 109.778C66.1039 109.108 66.2261 108.517 66.4704 108.006C66.7176 107.491 67.0613 107.091 67.5017 106.804C67.9449 106.514 68.4619 106.369 69.0528 106.369C69.3937 106.369 69.7304 106.426 70.0628 106.54C70.3951 106.653 70.6977 106.838 70.9704 107.094C71.2432 107.347 71.4605 107.682 71.6224 108.099C71.7843 108.517 71.8653 109.031 71.8653 109.642V110.068H66.8199V109.199H70.8426C70.8426 108.83 70.7687 108.5 70.621 108.21C70.4761 107.92 70.2687 107.692 69.9988 107.524C69.7318 107.357 69.4164 107.273 69.0528 107.273C68.6522 107.273 68.3057 107.372 68.013 107.571C67.7233 107.767 67.5003 108.023 67.344 108.338C67.1878 108.653 67.1096 108.991 67.1096 109.352V109.932C67.1096 110.426 67.1949 110.845 67.3653 111.189C67.5386 111.53 67.7787 111.79 68.0855 111.969C68.3923 112.145 68.7488 112.233 69.1551 112.233C69.4193 112.233 69.6579 112.196 69.871 112.122C70.0869 112.045 70.273 111.932 70.4292 111.781C70.5855 111.628 70.7062 111.437 70.7914 111.21L71.763 111.483C71.6608 111.812 71.4889 112.102 71.2474 112.352C71.0059 112.599 70.7076 112.793 70.3525 112.932C69.9974 113.068 69.5983 113.136 69.1551 113.136ZM75.9342 113.136C75.3206 113.136 74.7922 112.991 74.349 112.702C73.9058 112.412 73.5649 112.013 73.3263 111.504C73.0876 110.996 72.9683 110.415 72.9683 109.761C72.9683 109.097 73.0905 108.51 73.3348 108.001C73.582 107.49 73.9257 107.091 74.3661 106.804C74.8092 106.514 75.3263 106.369 75.9172 106.369C76.3774 106.369 76.7922 106.455 77.1615 106.625C77.5308 106.795 77.8334 107.034 78.0692 107.341C78.305 107.648 78.4513 108.006 78.5081 108.415H77.5024C77.4257 108.116 77.2553 107.852 76.9911 107.622C76.7297 107.389 76.3774 107.273 75.9342 107.273C75.5422 107.273 75.1984 107.375 74.903 107.58C74.6104 107.781 74.3817 108.067 74.2169 108.436C74.055 108.803 73.974 109.233 73.974 109.727C73.974 110.233 74.0536 110.673 74.2126 111.048C74.3746 111.423 74.6018 111.714 74.8945 111.922C75.1899 112.129 75.5365 112.233 75.9342 112.233C76.1956 112.233 76.4328 112.188 76.6459 112.097C76.8589 112.006 77.0393 111.875 77.1871 111.705C77.3348 111.534 77.4399 111.33 77.5024 111.091H78.5081C78.4513 111.477 78.3107 111.825 78.0862 112.135C77.8646 112.442 77.5706 112.686 77.2041 112.868C76.8405 113.047 76.4172 113.136 75.9342 113.136ZM82.7049 106.455V107.307H79.3128V106.455H82.7049ZM80.3014 104.886H81.3071V111.125C81.3071 111.409 81.3483 111.622 81.4307 111.764C81.5159 111.903 81.6239 111.997 81.7546 112.045C81.8881 112.091 82.0287 112.114 82.1764 112.114C82.2872 112.114 82.3782 112.108 82.4492 112.097C82.5202 112.082 82.577 112.071 82.6196 112.062L82.8242 112.966C82.756 112.991 82.6608 113.017 82.5387 113.043C82.4165 113.071 82.2617 113.085 82.0742 113.085C81.7901 113.085 81.5117 113.024 81.2389 112.902C80.9691 112.78 80.7446 112.594 80.5657 112.344C80.3895 112.094 80.3014 111.778 80.3014 111.398V104.886Z" fill="#B3B8D0"/>
<path d="M3.05682 142.273H4.31818L7.28409 149.517H7.38636L10.3523 142.273H11.6136V151H10.625V144.369H10.5398L7.8125 151H6.85795L4.13068 144.369H4.04545V151H3.05682V142.273ZM16.2206 151.136C15.5899 151.136 15.0458 150.997 14.5885 150.719C14.1339 150.438 13.7831 150.045 13.5359 149.543C13.2916 149.037 13.1694 148.449 13.1694 147.778C13.1694 147.108 13.2916 146.517 13.5359 146.006C13.7831 145.491 14.1268 145.091 14.5671 144.804C15.0103 144.514 15.5274 144.369 16.1183 144.369C16.4592 144.369 16.7958 144.426 17.1282 144.54C17.4606 144.653 17.7632 144.838 18.0359 145.094C18.3086 145.347 18.526 145.682 18.6879 146.099C18.8498 146.517 18.9308 147.031 18.9308 147.642V148.068H13.8853V147.199H17.9081C17.9081 146.83 17.8342 146.5 17.6865 146.21C17.5416 145.92 17.3342 145.692 17.0643 145.524C16.7973 145.357 16.4819 145.273 16.1183 145.273C15.7177 145.273 15.3711 145.372 15.0785 145.571C14.7887 145.767 14.5657 146.023 14.4095 146.338C14.2532 146.653 14.1751 146.991 14.1751 147.352V147.932C14.1751 148.426 14.2603 148.845 14.4308 149.189C14.6041 149.53 14.8441 149.79 15.151 149.969C15.4578 150.145 15.8143 150.233 16.2206 150.233C16.4848 150.233 16.7234 150.196 16.9365 150.122C17.1524 150.045 17.3385 149.932 17.4947 149.781C17.651 149.628 17.7717 149.437 17.8569 149.21L18.8285 149.483C18.7262 149.812 18.5544 150.102 18.3129 150.352C18.0714 150.599 17.7731 150.793 17.418 150.932C17.0629 151.068 16.6637 151.136 16.2206 151.136ZM24.977 145.92L24.0736 146.176C24.0167 146.026 23.9329 145.879 23.8221 145.737C23.7142 145.592 23.5665 145.473 23.379 145.379C23.1915 145.286 22.9514 145.239 22.6588 145.239C22.2582 145.239 21.9244 145.331 21.6574 145.516C21.3932 145.697 21.2611 145.929 21.2611 146.21C21.2611 146.46 21.352 146.658 21.5338 146.803C21.7156 146.947 21.9997 147.068 22.3861 147.165L23.3577 147.403C23.9429 147.545 24.379 147.763 24.6659 148.055C24.9528 148.345 25.0963 148.719 25.0963 149.176C25.0963 149.551 24.9883 149.886 24.7724 150.182C24.5594 150.477 24.2611 150.71 23.8775 150.881C23.494 151.051 23.048 151.136 22.5395 151.136C21.8719 151.136 21.3193 150.991 20.8818 150.702C20.4443 150.412 20.1673 149.989 20.0508 149.432L21.0054 149.193C21.0963 149.545 21.2682 149.81 21.521 149.986C21.7767 150.162 22.1105 150.25 22.5224 150.25C22.9912 150.25 23.3633 150.151 23.6389 149.952C23.9173 149.75 24.0565 149.509 24.0565 149.227C24.0565 149 23.977 148.81 23.8179 148.656C23.6588 148.5 23.4145 148.384 23.0849 148.307L21.994 148.051C21.3946 147.909 20.9542 147.689 20.673 147.391C20.3946 147.089 20.2554 146.713 20.2554 146.261C20.2554 145.892 20.3591 145.565 20.5665 145.281C20.7767 144.997 21.0622 144.774 21.423 144.612C21.7866 144.45 22.1986 144.369 22.6588 144.369C23.3065 144.369 23.815 144.511 24.1844 144.795C24.5565 145.08 24.8207 145.455 24.977 145.92ZM31.1265 145.92L30.2231 146.176C30.1663 146.026 30.0825 145.879 29.9717 145.737C29.8637 145.592 29.716 145.473 29.5285 145.379C29.341 145.286 29.1009 145.239 28.8083 145.239C28.4078 145.239 28.0739 145.331 27.8069 145.516C27.5427 145.697 27.4106 145.929 27.4106 146.21C27.4106 146.46 27.5015 146.658 27.6833 146.803C27.8651 146.947 28.1492 147.068 28.5356 147.165L29.5072 147.403C30.0924 147.545 30.5285 147.763 30.8154 148.055C31.1024 148.345 31.2458 148.719 31.2458 149.176C31.2458 149.551 31.1379 149.886 30.922 150.182C30.7089 150.477 30.4106 150.71 30.0271 150.881C29.6436 151.051 29.1975 151.136 28.689 151.136C28.0214 151.136 27.4688 150.991 27.0313 150.702C26.5938 150.412 26.3168 149.989 26.2004 149.432L27.1549 149.193C27.2458 149.545 27.4177 149.81 27.6705 149.986C27.9262 150.162 28.26 150.25 28.672 150.25C29.1407 150.25 29.5129 150.151 29.7884 149.952C30.0668 149.75 30.2061 149.509 30.2061 149.227C30.2061 149 30.1265 148.81 29.9674 148.656C29.8083 148.5 29.564 148.384 29.2345 148.307L28.1436 148.051C27.5441 147.909 27.1038 147.689 26.8225 147.391C26.5441 147.089 26.4049 146.713 26.4049 146.261C26.4049 145.892 26.5086 145.565 26.716 145.281C26.9262 144.997 27.2117 144.774 27.5725 144.612C27.9362 144.45 28.3481 144.369 28.8083 144.369C29.4561 144.369 29.9646 144.511 30.3339 144.795C30.7061 145.08 30.9703 145.455 31.1265 145.92ZM34.5658 151.153C34.151 151.153 33.7746 151.075 33.4365 150.919C33.0985 150.76 32.83 150.531 32.6312 150.233C32.4323 149.932 32.3329 149.568 32.3329 149.142C32.3329 148.767 32.4067 148.463 32.5544 148.23C32.7022 147.994 32.8996 147.81 33.1468 147.676C33.3939 147.543 33.6667 147.443 33.965 147.378C34.2661 147.31 34.5687 147.256 34.8726 147.216C35.2704 147.165 35.5928 147.126 35.84 147.101C36.09 147.072 36.2718 147.026 36.3854 146.96C36.5019 146.895 36.5601 146.781 36.5601 146.619V146.585C36.5601 146.165 36.4451 145.838 36.215 145.605C35.9877 145.372 35.6425 145.256 35.1794 145.256C34.6993 145.256 34.3229 145.361 34.0502 145.571C33.7775 145.781 33.5857 146.006 33.4749 146.244L32.5204 145.903C32.6908 145.506 32.9181 145.196 33.2022 144.974C33.4891 144.75 33.8016 144.594 34.1397 144.506C34.4806 144.415 34.8158 144.369 35.1454 144.369C35.3556 144.369 35.5971 144.395 35.8698 144.446C36.1454 144.494 36.411 144.595 36.6667 144.749C36.9252 144.902 37.1397 145.134 37.3101 145.443C37.4806 145.753 37.5658 146.168 37.5658 146.688V151H36.5601V150.114H36.509C36.4408 150.256 36.3272 150.408 36.1681 150.57C36.009 150.732 35.7973 150.869 35.5331 150.983C35.2689 151.097 34.9465 151.153 34.5658 151.153ZM34.7192 150.25C35.1169 150.25 35.4522 150.172 35.7249 150.016C36.0005 149.859 36.2079 149.658 36.3471 149.411C36.4891 149.163 36.5601 148.903 36.5601 148.631V147.71C36.5175 147.761 36.4238 147.808 36.2789 147.851C36.1368 147.891 35.9721 147.926 35.7846 147.957C35.5999 147.986 35.4195 148.011 35.2434 148.034C35.0701 148.054 34.9294 148.071 34.8215 148.085C34.5601 148.119 34.3158 148.175 34.0885 148.251C33.8641 148.325 33.6823 148.437 33.5431 148.588C33.4067 148.736 33.3385 148.937 33.3385 149.193C33.3385 149.543 33.4678 149.807 33.7263 149.986C33.9877 150.162 34.3187 150.25 34.7192 150.25ZM41.9234 153.591C41.4376 153.591 41.02 153.528 40.6706 153.403C40.3212 153.281 40.03 153.119 39.797 152.918C39.5669 152.719 39.3837 152.506 39.2473 152.278L40.0484 151.716C40.1393 151.835 40.2544 151.972 40.3936 152.125C40.5328 152.281 40.7232 152.416 40.9646 152.53C41.209 152.646 41.5286 152.705 41.9234 152.705C42.4518 152.705 42.8879 152.577 43.2317 152.321C43.5754 152.065 43.7473 151.665 43.7473 151.119V149.79H43.6621C43.5882 149.909 43.4831 150.057 43.3467 150.233C43.2132 150.406 43.02 150.561 42.7672 150.697C42.5172 150.831 42.1791 150.898 41.753 150.898C41.2246 150.898 40.7501 150.773 40.3297 150.523C39.9121 150.273 39.5811 149.909 39.3368 149.432C39.0953 148.955 38.9746 148.375 38.9746 147.693C38.9746 147.023 39.0925 146.439 39.3283 145.942C39.5641 145.442 39.8922 145.055 40.3126 144.783C40.7331 144.507 41.2189 144.369 41.77 144.369C42.1962 144.369 42.5342 144.44 42.7842 144.582C43.0371 144.722 43.2303 144.881 43.3638 145.06C43.5001 145.236 43.6053 145.381 43.6791 145.494H43.7814V144.455H44.753V151.188C44.753 151.75 44.6251 152.207 44.3695 152.56C44.1166 152.915 43.7757 153.175 43.3467 153.339C42.9206 153.507 42.4462 153.591 41.9234 153.591ZM41.8893 149.994C42.2928 149.994 42.6337 149.902 42.9121 149.717C43.1905 149.533 43.4021 149.267 43.547 148.92C43.6919 148.574 43.7643 148.159 43.7643 147.676C43.7643 147.205 43.6933 146.788 43.5513 146.428C43.4092 146.067 43.199 145.784 42.9206 145.58C42.6422 145.375 42.2984 145.273 41.8893 145.273C41.4632 145.273 41.1081 145.381 40.824 145.597C40.5428 145.812 40.3311 146.102 40.1891 146.466C40.0499 146.83 39.9803 147.233 39.9803 147.676C39.9803 148.131 40.0513 148.533 40.1933 148.882C40.3382 149.229 40.5513 149.501 40.8325 149.7C41.1166 149.896 41.4689 149.994 41.8893 149.994ZM49.2182 151.136C48.5875 151.136 48.0435 150.997 47.5861 150.719C47.1316 150.438 46.7807 150.045 46.5335 149.543C46.2892 149.037 46.1671 148.449 46.1671 147.778C46.1671 147.108 46.2892 146.517 46.5335 146.006C46.7807 145.491 47.1245 145.091 47.5648 144.804C48.008 144.514 48.525 144.369 49.1159 144.369C49.4568 144.369 49.7935 144.426 50.1259 144.54C50.4583 144.653 50.7608 144.838 51.0336 145.094C51.3063 145.347 51.5236 145.682 51.6855 146.099C51.8475 146.517 51.9284 147.031 51.9284 147.642V148.068H46.883V147.199H50.9057C50.9057 146.83 50.8318 146.5 50.6841 146.21C50.5392 145.92 50.3318 145.692 50.062 145.524C49.7949 145.357 49.4796 145.273 49.1159 145.273C48.7154 145.273 48.3688 145.372 48.0762 145.571C47.7864 145.767 47.5634 146.023 47.4071 146.338C47.2509 146.653 47.1728 146.991 47.1728 147.352V147.932C47.1728 148.426 47.258 148.845 47.4284 149.189C47.6017 149.53 47.8418 149.79 48.1486 149.969C48.4554 150.145 48.812 150.233 49.2182 150.233C49.4824 150.233 49.7211 150.196 49.9341 150.122C50.15 150.045 50.3361 149.932 50.4924 149.781C50.6486 149.628 50.7693 149.437 50.8546 149.21L51.8262 149.483C51.7239 149.812 51.552 150.102 51.3105 150.352C51.0691 150.599 50.7708 150.793 50.4157 150.932C50.0605 151.068 49.6614 151.136 49.2182 151.136Z" fill="#0E0B3D"/>
<rect x="2" y="160" width="367" height="79" rx="6" fill="#F7F9FC"/>
<path d="M15.0568 184V175.273H16.1136V183.062H20.1705V184H15.0568ZM24.2095 184.136C23.6186 184.136 23.1002 183.996 22.6541 183.714C22.211 183.433 21.8644 183.04 21.6144 182.534C21.3672 182.028 21.2436 181.437 21.2436 180.761C21.2436 180.08 21.3672 179.484 21.6144 178.976C21.8644 178.467 22.211 178.072 22.6541 177.791C23.1002 177.51 23.6186 177.369 24.2095 177.369C24.8005 177.369 25.3175 177.51 25.7607 177.791C26.2067 178.072 26.5533 178.467 26.8005 178.976C27.0505 179.484 27.1755 180.08 27.1755 180.761C27.1755 181.437 27.0505 182.028 26.8005 182.534C26.5533 183.04 26.2067 183.433 25.7607 183.714C25.3175 183.996 24.8005 184.136 24.2095 184.136ZM24.2095 183.233C24.6584 183.233 25.0277 183.118 25.3175 182.888C25.6073 182.658 25.8218 182.355 25.961 181.98C26.1002 181.605 26.1698 181.199 26.1698 180.761C26.1698 180.324 26.1002 179.916 25.961 179.538C25.8218 179.161 25.6073 178.855 25.3175 178.622C25.0277 178.389 24.6584 178.273 24.2095 178.273C23.7607 178.273 23.3914 178.389 23.1016 178.622C22.8118 178.855 22.5973 179.161 22.4581 179.538C22.3189 179.916 22.2493 180.324 22.2493 180.761C22.2493 181.199 22.3189 181.605 22.4581 181.98C22.5973 182.355 22.8118 182.658 23.1016 182.888C23.3914 183.118 23.7607 183.233 24.2095 183.233ZM28.5906 184V177.455H29.5622V178.443H29.6304C29.7497 178.119 29.9656 177.857 30.2781 177.655C30.5906 177.453 30.9429 177.352 31.3349 177.352C31.4088 177.352 31.5011 177.354 31.6119 177.357C31.7227 177.359 31.8065 177.364 31.8633 177.369V178.392C31.8292 178.384 31.7511 178.371 31.629 178.354C31.5096 178.334 31.3832 178.324 31.2497 178.324C30.9315 178.324 30.6474 178.391 30.3974 178.524C30.1503 178.655 29.9542 178.837 29.8094 179.07C29.6673 179.3 29.5963 179.562 29.5963 179.858V184H28.5906ZM35.4806 184.136C34.8499 184.136 34.3058 183.997 33.8485 183.719C33.3939 183.438 33.0431 183.045 32.7959 182.543C32.5516 182.037 32.4294 181.449 32.4294 180.778C32.4294 180.108 32.5516 179.517 32.7959 179.006C33.0431 178.491 33.3868 178.091 33.8271 177.804C34.2703 177.514 34.7874 177.369 35.3783 177.369C35.7192 177.369 36.0558 177.426 36.3882 177.54C36.7206 177.653 37.0232 177.838 37.2959 178.094C37.5686 178.347 37.786 178.682 37.9479 179.099C38.1098 179.517 38.1908 180.031 38.1908 180.642V181.068H33.1453V180.199H37.1681C37.1681 179.83 37.0942 179.5 36.9465 179.21C36.8016 178.92 36.5942 178.692 36.3243 178.524C36.0573 178.357 35.7419 178.273 35.3783 178.273C34.9777 178.273 34.6311 178.372 34.3385 178.571C34.0487 178.767 33.8257 179.023 33.6695 179.338C33.5132 179.653 33.4351 179.991 33.4351 180.352V180.932C33.4351 181.426 33.5203 181.845 33.6908 182.189C33.8641 182.53 34.1041 182.79 34.411 182.969C34.7178 183.145 35.0743 183.233 35.4806 183.233C35.7448 183.233 35.9834 183.196 36.1965 183.122C36.4124 183.045 36.5985 182.932 36.7547 182.781C36.911 182.628 37.0317 182.437 37.1169 182.21L38.0885 182.483C37.9862 182.812 37.8144 183.102 37.5729 183.352C37.3314 183.599 37.0331 183.793 36.678 183.932C36.3229 184.068 35.9237 184.136 35.4806 184.136ZM39.6006 184V177.455H40.5722V178.477H40.6574C40.7938 178.128 41.014 177.857 41.3179 177.663C41.6219 177.467 41.987 177.369 42.4131 177.369C42.8449 177.369 43.2043 177.467 43.4912 177.663C43.781 177.857 44.0069 178.128 44.1688 178.477H44.237C44.4046 178.139 44.656 177.871 44.9912 177.672C45.3265 177.47 45.7285 177.369 46.1972 177.369C46.7824 177.369 47.2611 177.553 47.6333 177.919C48.0054 178.283 48.1915 178.849 48.1915 179.619V184H47.1858V179.619C47.1858 179.136 47.0537 178.791 46.7895 178.584C46.5253 178.376 46.2142 178.273 45.8563 178.273C45.3961 178.273 45.0395 178.412 44.7867 178.69C44.5339 178.966 44.4074 179.315 44.4074 179.739V184H43.3847V179.517C43.3847 179.145 43.264 178.845 43.0225 178.618C42.781 178.388 42.4699 178.273 42.0892 178.273C41.8279 178.273 41.5836 178.342 41.3563 178.482C41.1319 178.621 40.95 178.814 40.8108 179.061C40.6745 179.305 40.6063 179.588 40.6063 179.909V184H39.6006ZM53.1653 184V177.455H54.171V184H53.1653ZM53.6767 176.364C53.4806 176.364 53.3116 176.297 53.1696 176.163C53.0304 176.03 52.9608 175.869 52.9608 175.682C52.9608 175.494 53.0304 175.334 53.1696 175.2C53.3116 175.067 53.4806 175 53.6767 175C53.8727 175 54.0403 175.067 54.1795 175.2C54.3215 175.334 54.3926 175.494 54.3926 175.682C54.3926 175.869 54.3215 176.03 54.1795 176.163C54.0403 176.297 53.8727 176.364 53.6767 176.364ZM55.893 186.455V177.455H56.8645V178.494H56.9839C57.0577 178.381 57.16 178.236 57.2907 178.06C57.4242 177.881 57.6145 177.722 57.8617 177.582C58.1117 177.44 58.4498 177.369 58.8759 177.369C59.427 177.369 59.9128 177.507 60.3333 177.783C60.7537 178.058 61.0819 178.449 61.3177 178.955C61.5535 179.46 61.6714 180.057 61.6714 180.744C61.6714 181.438 61.5535 182.038 61.3177 182.547C61.0819 183.053 60.7552 183.445 60.3376 183.723C59.9199 183.999 59.4384 184.136 58.893 184.136C58.4725 184.136 58.1359 184.067 57.883 183.928C57.6302 183.786 57.4356 183.625 57.2992 183.446C57.1628 183.264 57.0577 183.114 56.9839 182.994H56.8986V186.455H55.893ZM56.8816 180.727C56.8816 181.222 56.954 181.658 57.0989 182.036C57.2438 182.411 57.4555 182.705 57.7339 182.918C58.0123 183.128 58.3532 183.233 58.7566 183.233C59.177 183.233 59.5279 183.122 59.8091 182.901C60.0932 182.676 60.3063 182.375 60.4484 181.997C60.5932 181.616 60.6657 181.193 60.6657 180.727C60.6657 180.267 60.5947 179.852 60.4526 179.483C60.3134 179.111 60.1018 178.817 59.8177 178.601C59.5364 178.382 59.1827 178.273 58.7566 178.273C58.3475 178.273 58.0038 178.376 57.7253 178.584C57.4469 178.788 57.2367 179.075 57.0947 179.445C56.9526 179.811 56.8816 180.239 56.8816 180.727ZM67.7218 178.92L66.8184 179.176C66.7616 179.026 66.6778 178.879 66.567 178.737C66.459 178.592 66.3113 178.473 66.1238 178.379C65.9363 178.286 65.6963 178.239 65.4036 178.239C65.0031 178.239 64.6693 178.331 64.4022 178.516C64.138 178.697 64.0059 178.929 64.0059 179.21C64.0059 179.46 64.0968 179.658 64.2786 179.803C64.4605 179.947 64.7445 180.068 65.1309 180.165L66.1025 180.403C66.6877 180.545 67.1238 180.763 67.4107 181.055C67.6977 181.345 67.8411 181.719 67.8411 182.176C67.8411 182.551 67.7332 182.886 67.5173 183.182C67.3042 183.477 67.0059 183.71 66.6224 183.881C66.2389 184.051 65.7928 184.136 65.2843 184.136C64.6167 184.136 64.0641 183.991 63.6266 183.702C63.1891 183.412 62.9122 182.989 62.7957 182.432L63.7502 182.193C63.8411 182.545 64.013 182.81 64.2659 182.986C64.5215 183.162 64.8553 183.25 65.2673 183.25C65.736 183.25 66.1082 183.151 66.3838 182.952C66.6622 182.75 66.8014 182.509 66.8014 182.227C66.8014 182 66.7218 181.81 66.5627 181.656C66.4036 181.5 66.1593 181.384 65.8298 181.307L64.7389 181.051C64.1394 180.909 63.6991 180.689 63.4178 180.391C63.1394 180.089 63.0002 179.713 63.0002 179.261C63.0002 178.892 63.1039 178.565 63.3113 178.281C63.5215 177.997 63.807 177.774 64.1678 177.612C64.5315 177.45 64.9434 177.369 65.4036 177.369C66.0514 177.369 66.5599 177.511 66.9292 177.795C67.3014 178.08 67.5656 178.455 67.7218 178.92ZM73.36 181.324V177.455H74.3657V184H73.36V182.892H73.2918C73.1384 183.224 72.8998 183.507 72.5759 183.74C72.252 183.97 71.8429 184.085 71.3486 184.085C70.9395 184.085 70.5759 183.996 70.2577 183.817C69.9395 183.635 69.6895 183.362 69.5077 182.999C69.3259 182.632 69.235 182.17 69.235 181.614V177.455H70.2407V181.545C70.2407 182.023 70.3742 182.403 70.6412 182.688C70.9111 182.972 71.2549 183.114 71.6725 183.114C71.9225 183.114 72.1767 183.05 72.4353 182.922C72.6966 182.794 72.9154 182.598 73.0915 182.334C73.2705 182.07 73.36 181.733 73.36 181.324ZM76.0876 184V177.455H77.0592V178.477H77.1445C77.2808 178.128 77.501 177.857 77.805 177.663C78.1089 177.467 78.474 177.369 78.9001 177.369C79.332 177.369 79.6913 177.467 79.9783 177.663C80.268 177.857 80.4939 178.128 80.6558 178.477H80.724C80.8916 178.139 81.143 177.871 81.4783 177.672C81.8135 177.47 82.2155 177.369 82.6842 177.369C83.2695 177.369 83.7482 177.553 84.1203 177.919C84.4925 178.283 84.6786 178.849 84.6786 179.619V184H83.6729V179.619C83.6729 179.136 83.5408 178.791 83.2766 178.584C83.0124 178.376 82.7013 178.273 82.3433 178.273C81.8831 178.273 81.5266 178.412 81.2737 178.69C81.0209 178.966 80.8945 179.315 80.8945 179.739V184H79.8717V179.517C79.8717 179.145 79.751 178.845 79.5095 178.618C79.268 178.388 78.957 178.273 78.5763 178.273C78.3149 178.273 78.0706 178.342 77.8433 178.482C77.6189 178.621 77.4371 178.814 77.2979 179.061C77.1615 179.305 77.0933 179.588 77.0933 179.909V184H76.0876ZM92.1239 184.136C91.5785 184.136 91.0969 183.999 90.6793 183.723C90.2617 183.445 89.935 183.053 89.6992 182.547C89.4634 182.038 89.3455 181.438 89.3455 180.744C89.3455 180.057 89.4634 179.46 89.6992 178.955C89.935 178.449 90.2631 178.058 90.6836 177.783C91.104 177.507 91.5898 177.369 92.141 177.369C92.5671 177.369 92.9037 177.44 93.1509 177.582C93.4009 177.722 93.5912 177.881 93.7219 178.06C93.8555 178.236 93.9591 178.381 94.033 178.494H94.1182V175.273H95.1239V184H94.1523V182.994H94.033C93.9591 183.114 93.854 183.264 93.7177 183.446C93.5813 183.625 93.3867 183.786 93.1339 183.928C92.881 184.067 92.5444 184.136 92.1239 184.136ZM92.2603 183.233C92.6637 183.233 93.0046 183.128 93.283 182.918C93.5614 182.705 93.7731 182.411 93.918 182.036C94.0628 181.658 94.1353 181.222 94.1353 180.727C94.1353 180.239 94.0643 179.811 93.9222 179.445C93.7802 179.075 93.5699 178.788 93.2915 178.584C93.0131 178.376 92.6694 178.273 92.2603 178.273C91.8341 178.273 91.479 178.382 91.1949 178.601C90.9137 178.817 90.702 179.111 90.56 179.483C90.4208 179.852 90.3512 180.267 90.3512 180.727C90.3512 181.193 90.4222 181.616 90.5643 181.997C90.7091 182.375 90.9222 182.676 91.2035 182.901C91.4876 183.122 91.8398 183.233 92.2603 183.233ZM99.6445 184.136C99.0536 184.136 98.5352 183.996 98.0892 183.714C97.646 183.433 97.2994 183.04 97.0494 182.534C96.8022 182.028 96.6786 181.437 96.6786 180.761C96.6786 180.08 96.8022 179.484 97.0494 178.976C97.2994 178.467 97.646 178.072 98.0892 177.791C98.5352 177.51 99.0536 177.369 99.6445 177.369C100.235 177.369 100.753 177.51 101.196 177.791C101.642 178.072 101.988 178.467 102.235 178.976C102.485 179.484 102.61 180.08 102.61 180.761C102.61 181.437 102.485 182.028 102.235 182.534C101.988 183.04 101.642 183.433 101.196 183.714C100.753 183.996 100.235 184.136 99.6445 184.136ZM99.6445 183.233C100.093 183.233 100.463 183.118 100.753 182.888C101.042 182.658 101.257 182.355 101.396 181.98C101.535 181.605 101.605 181.199 101.605 180.761C101.605 180.324 101.535 179.916 101.396 179.538C101.257 179.161 101.042 178.855 100.753 178.622C100.463 178.389 100.093 178.273 99.6445 178.273C99.1957 178.273 98.8264 178.389 98.5366 178.622C98.2468 178.855 98.0323 179.161 97.8931 179.538C97.7539 179.916 97.6843 180.324 97.6843 180.761C97.6843 181.199 97.7539 181.605 97.8931 181.98C98.0323 182.355 98.2468 182.658 98.5366 182.888C98.8264 183.118 99.1957 183.233 99.6445 183.233ZM105.031 175.273V184H104.026V175.273H105.031ZM109.412 184.136C108.821 184.136 108.303 183.996 107.857 183.714C107.414 183.433 107.067 183.04 106.817 182.534C106.57 182.028 106.446 181.437 106.446 180.761C106.446 180.08 106.57 179.484 106.817 178.976C107.067 178.467 107.414 178.072 107.857 177.791C108.303 177.51 108.821 177.369 109.412 177.369C110.003 177.369 110.52 177.51 110.963 177.791C111.41 178.072 111.756 178.467 112.003 178.976C112.253 179.484 112.378 180.08 112.378 180.761C112.378 181.437 112.253 182.028 112.003 182.534C111.756 183.04 111.41 183.433 110.963 183.714C110.52 183.996 110.003 184.136 109.412 184.136ZM109.412 183.233C109.861 183.233 110.231 183.118 110.52 182.888C110.81 182.658 111.025 182.355 111.164 181.98C111.303 181.605 111.373 181.199 111.373 180.761C111.373 180.324 111.303 179.916 111.164 179.538C111.025 179.161 110.81 178.855 110.52 178.622C110.231 178.389 109.861 178.273 109.412 178.273C108.963 178.273 108.594 178.389 108.304 178.622C108.015 178.855 107.8 179.161 107.661 179.538C107.522 179.916 107.452 180.324 107.452 180.761C107.452 181.199 107.522 181.605 107.661 181.98C107.8 182.355 108.015 182.658 108.304 182.888C108.594 183.118 108.963 183.233 109.412 183.233ZM113.793 184V177.455H114.765V178.443H114.833C114.953 178.119 115.168 177.857 115.481 177.655C115.793 177.453 116.146 177.352 116.538 177.352C116.612 177.352 116.704 177.354 116.815 177.357C116.926 177.359 117.009 177.364 117.066 177.369V178.392C117.032 178.384 116.954 178.371 116.832 178.354C116.712 178.334 116.586 178.324 116.453 178.324C116.134 178.324 115.85 178.391 115.6 178.524C115.353 178.655 115.157 178.837 115.012 179.07C114.87 179.3 114.799 179.562 114.799 179.858V184H113.793ZM126.03 178.92L125.126 179.176C125.069 179.026 124.986 178.879 124.875 178.737C124.767 178.592 124.619 178.473 124.432 178.379C124.244 178.286 124.004 178.239 123.711 178.239C123.311 178.239 122.977 178.331 122.71 178.516C122.446 178.697 122.314 178.929 122.314 179.21C122.314 179.46 122.405 179.658 122.586 179.803C122.768 179.947 123.052 180.068 123.439 180.165L124.41 180.403C124.996 180.545 125.432 180.763 125.719 181.055C126.005 181.345 126.149 181.719 126.149 182.176C126.149 182.551 126.041 182.886 125.825 183.182C125.612 183.477 125.314 183.71 124.93 183.881C124.547 184.051 124.101 184.136 123.592 184.136C122.925 184.136 122.372 183.991 121.934 183.702C121.497 183.412 121.22 182.989 121.103 182.432L122.058 182.193C122.149 182.545 122.321 182.81 122.574 182.986C122.829 183.162 123.163 183.25 123.575 183.25C124.044 183.25 124.416 183.151 124.692 182.952C124.97 182.75 125.109 182.509 125.109 182.227C125.109 182 125.03 181.81 124.871 181.656C124.711 181.5 124.467 181.384 124.138 181.307L123.047 181.051C122.447 180.909 122.007 180.689 121.726 180.391C121.447 180.089 121.308 179.713 121.308 179.261C121.308 178.892 121.412 178.565 121.619 178.281C121.829 177.997 122.115 177.774 122.476 177.612C122.839 177.45 123.251 177.369 123.711 177.369C124.359 177.369 124.868 177.511 125.237 177.795C125.609 178.08 125.873 178.455 126.03 178.92ZM130.287 184.136C129.656 184.136 129.112 183.997 128.655 183.719C128.2 183.438 127.85 183.045 127.602 182.543C127.358 182.037 127.236 181.449 127.236 180.778C127.236 180.108 127.358 179.517 127.602 179.006C127.85 178.491 128.193 178.091 128.634 177.804C129.077 177.514 129.594 177.369 130.185 177.369C130.526 177.369 130.862 177.426 131.195 177.54C131.527 177.653 131.83 177.838 132.102 178.094C132.375 178.347 132.593 178.682 132.754 179.099C132.916 179.517 132.997 180.031 132.997 180.642V181.068H127.952V180.199H131.975C131.975 179.83 131.901 179.5 131.753 179.21C131.608 178.92 131.401 178.692 131.131 178.524C130.864 178.357 130.548 178.273 130.185 178.273C129.784 178.273 129.438 178.372 129.145 178.571C128.855 178.767 128.632 179.023 128.476 179.338C128.32 179.653 128.242 179.991 128.242 180.352V180.932C128.242 181.426 128.327 181.845 128.497 182.189C128.671 182.53 128.911 182.79 129.218 182.969C129.524 183.145 129.881 183.233 130.287 183.233C130.551 183.233 130.79 183.196 131.003 183.122C131.219 183.045 131.405 182.932 131.561 182.781C131.718 182.628 131.838 182.437 131.923 182.21L132.895 182.483C132.793 182.812 132.621 183.102 132.379 183.352C132.138 183.599 131.84 183.793 131.485 183.932C131.129 184.068 130.73 184.136 130.287 184.136ZM137.254 177.455V178.307H133.862V177.455H137.254ZM134.85 175.886H135.856V182.125C135.856 182.409 135.897 182.622 135.98 182.764C136.065 182.903 136.173 182.997 136.303 183.045C136.437 183.091 136.578 183.114 136.725 183.114C136.836 183.114 136.927 183.108 136.998 183.097C137.069 183.082 137.126 183.071 137.169 183.062L137.373 183.966C137.305 183.991 137.21 184.017 137.088 184.043C136.965 184.071 136.811 184.085 136.623 184.085C136.339 184.085 136.061 184.024 135.788 183.902C135.518 183.78 135.294 183.594 135.115 183.344C134.938 183.094 134.85 182.778 134.85 182.398V175.886ZM139.38 184.068C139.169 184.068 138.989 183.993 138.838 183.842C138.688 183.692 138.612 183.511 138.612 183.301C138.612 183.091 138.688 182.911 138.838 182.76C138.989 182.609 139.169 182.534 139.38 182.534C139.59 182.534 139.77 182.609 139.921 182.76C140.071 182.911 140.147 183.091 140.147 183.301C140.147 183.44 140.111 183.568 140.04 183.685C139.972 183.801 139.88 183.895 139.763 183.966C139.649 184.034 139.522 184.068 139.38 184.068ZM142.564 184.068C142.354 184.068 142.174 183.993 142.023 183.842C141.872 183.692 141.797 183.511 141.797 183.301C141.797 183.091 141.872 182.911 142.023 182.76C142.174 182.609 142.354 182.534 142.564 182.534C142.774 182.534 142.955 182.609 143.105 182.76C143.256 182.911 143.331 183.091 143.331 183.301C143.331 183.44 143.296 183.568 143.225 183.685C143.157 183.801 143.064 183.895 142.948 183.966C142.834 184.034 142.706 184.068 142.564 184.068ZM145.749 184.068C145.539 184.068 145.358 183.993 145.208 183.842C145.057 183.692 144.982 183.511 144.982 183.301C144.982 183.091 145.057 182.911 145.208 182.76C145.358 182.609 145.539 182.534 145.749 182.534C145.959 182.534 146.14 182.609 146.29 182.76C146.441 182.911 146.516 183.091 146.516 183.301C146.516 183.44 146.48 183.568 146.409 183.685C146.341 183.801 146.249 183.895 146.132 183.966C146.019 184.034 145.891 184.068 145.749 184.068ZM148.934 184.068C148.723 184.068 148.543 183.993 148.392 183.842C148.242 183.692 148.167 183.511 148.167 183.301C148.167 183.091 148.242 182.911 148.392 182.76C148.543 182.609 148.723 182.534 148.934 182.534C149.144 182.534 149.324 182.609 149.475 182.76C149.625 182.911 149.701 183.091 149.701 183.301C149.701 183.44 149.665 183.568 149.594 183.685C149.526 183.801 149.434 183.895 149.317 183.966C149.203 184.034 149.076 184.068 148.934 184.068ZM152.118 184.068C151.908 184.068 151.728 183.993 151.577 183.842C151.426 183.692 151.351 183.511 151.351 183.301C151.351 183.091 151.426 182.911 151.577 182.76C151.728 182.609 151.908 182.534 152.118 182.534C152.328 182.534 152.509 182.609 152.659 182.76C152.81 182.911 152.885 183.091 152.885 183.301C152.885 183.44 152.85 183.568 152.779 183.685C152.711 183.801 152.618 183.895 152.502 183.966C152.388 184.034 152.26 184.068 152.118 184.068Z" fill="#B3B8D0"/>
<g filter="url(#filter0_d_198_9853)">
<rect x="2" y="259" width="367" height="35" rx="6" fill="#5750F1" shape-rendering="crispEdges"/>
<path d="M146.504 275.664C146.504 276.912 147.236 277.728 148.652 278.052L150.08 278.376C150.908 278.568 151.28 279 151.28 279.684C151.28 280.548 150.548 281.088 149.396 281.088C148.304 281.088 147.608 280.56 147.584 279.732H146.384C146.456 281.22 147.632 282.144 149.396 282.144C151.244 282.144 152.456 281.148 152.456 279.588C152.456 278.364 151.736 277.596 150.32 277.272L148.892 276.936C148.076 276.744 147.68 276.324 147.68 275.628C147.68 274.776 148.388 274.224 149.48 274.224C150.452 274.224 151.064 274.728 151.124 275.592H152.312C152.216 274.092 151.148 273.168 149.492 273.168C147.704 273.168 146.504 274.176 146.504 275.664ZM156.274 282.144C157.726 282.144 158.71 281.436 158.998 280.176H157.942C157.75 280.848 157.174 281.208 156.298 281.208C155.182 281.208 154.534 280.524 154.45 279.288L158.986 279.276V278.856C158.986 277.116 157.894 275.964 156.226 275.964C154.522 275.964 153.358 277.236 153.358 279.072C153.358 280.896 154.546 282.144 156.274 282.144ZM156.226 276.912C157.222 276.912 157.858 277.56 157.858 278.532H154.474C154.618 277.5 155.242 276.912 156.226 276.912ZM161.374 282V278.892C161.374 277.752 161.986 276.996 163.042 276.996C163.906 276.996 164.458 277.476 164.458 278.664V282H165.586V278.412C165.586 276.912 164.878 275.964 163.33 275.964C162.502 275.964 161.758 276.36 161.386 277.032L161.266 276.132H160.246V282H161.374ZM169.5 282.144C170.436 282.144 171.228 281.736 171.612 280.932L171.708 282H172.716V273.168H171.6V277.08C171.204 276.36 170.448 275.964 169.548 275.964C167.808 275.964 166.764 277.284 166.764 279.084C166.764 280.872 167.796 282.144 169.5 282.144ZM169.728 281.124C168.576 281.124 167.904 280.26 167.904 279.048C167.904 277.848 168.576 276.984 169.728 276.984C170.88 276.984 171.588 277.848 171.588 279.048C171.588 280.272 170.88 281.124 169.728 281.124ZM178.969 282V278.292C178.969 277.08 178.945 276.192 178.885 275.772L181.405 282H182.509L185.041 275.748C184.981 276.36 184.969 276.948 184.969 278.568V282H186.121V273.324H184.945L181.957 280.62L178.969 273.324H177.817V282H178.969ZM190.481 282.144C191.933 282.144 192.917 281.436 193.205 280.176H192.149C191.957 280.848 191.381 281.208 190.505 281.208C189.389 281.208 188.741 280.524 188.657 279.288L193.193 279.276V278.856C193.193 277.116 192.101 275.964 190.433 275.964C188.729 275.964 187.565 277.236 187.565 279.072C187.565 280.896 188.753 282.144 190.481 282.144ZM190.433 276.912C191.429 276.912 192.065 277.56 192.065 278.532H188.681C188.825 277.5 189.449 276.912 190.433 276.912ZM193.973 280.296C193.973 281.412 194.849 282.144 196.229 282.144C197.621 282.144 198.581 281.436 198.581 280.32C198.581 279.444 198.089 278.988 197.093 278.748L196.061 278.496C195.485 278.352 195.197 278.088 195.197 277.692C195.197 277.152 195.593 276.84 196.301 276.84C196.985 276.84 197.381 277.212 197.405 277.8H198.485C198.461 276.684 197.621 275.964 196.337 275.964C195.041 275.964 194.129 276.648 194.129 277.728C194.129 278.592 194.621 279.108 195.665 279.36L196.697 279.6C197.309 279.756 197.501 279.996 197.501 280.392C197.501 280.932 197.045 281.256 196.253 281.256C195.509 281.256 195.053 280.896 195.053 280.296H193.973ZM199.352 280.296C199.352 281.412 200.228 282.144 201.608 282.144C203 282.144 203.96 281.436 203.96 280.32C203.96 279.444 203.468 278.988 202.472 278.748L201.44 278.496C200.864 278.352 200.576 278.088 200.576 277.692C200.576 277.152 200.972 276.84 201.68 276.84C202.364 276.84 202.76 277.212 202.784 277.8H203.864C203.84 276.684 203 275.964 201.716 275.964C200.42 275.964 199.508 276.648 199.508 277.728C199.508 278.592 200 279.108 201.044 279.36L202.076 279.6C202.688 279.756 202.88 279.996 202.88 280.392C202.88 280.932 202.424 281.256 201.632 281.256C200.888 281.256 200.432 280.896 200.432 280.296H199.352ZM206.927 282.144C207.875 282.144 208.679 281.724 208.979 281.052L209.099 282H210.059V278.316C210.059 276.732 209.075 275.964 207.623 275.964C206.111 275.964 205.103 276.768 205.103 277.992H206.087C206.087 277.284 206.627 276.864 207.575 276.864C208.367 276.864 208.955 277.212 208.955 278.196V278.364L207.107 278.508C205.727 278.616 204.923 279.288 204.923 280.368C204.923 281.436 205.667 282.144 206.927 282.144ZM207.251 281.268C206.519 281.268 206.063 280.956 206.063 280.332C206.063 279.756 206.471 279.372 207.467 279.276L208.967 279.156V279.468C208.967 280.572 208.319 281.268 207.251 281.268ZM211.249 278.916C211.249 280.56 212.305 281.844 213.973 281.844C214.897 281.844 215.665 281.436 216.049 280.752V281.928C216.049 283.044 215.329 283.764 214.225 283.764C213.241 283.764 212.593 283.26 212.449 282.396H211.321C211.537 283.884 212.629 284.784 214.225 284.784C216.025 284.784 217.165 283.608 217.165 281.76V276.132H216.157L216.073 277.128C215.701 276.396 214.969 275.964 214.021 275.964C212.317 275.964 211.249 277.26 211.249 278.916ZM212.377 278.892C212.377 277.812 213.049 276.948 214.177 276.948C215.329 276.948 216.001 277.764 216.001 278.892C216.001 280.044 215.305 280.86 214.165 280.86C213.061 280.86 212.377 279.996 212.377 278.892ZM221.325 282.144C222.777 282.144 223.761 281.436 224.049 280.176H222.993C222.801 280.848 222.225 281.208 221.349 281.208C220.233 281.208 219.585 280.524 219.501 279.288L224.037 279.276V278.856C224.037 277.116 222.945 275.964 221.277 275.964C219.573 275.964 218.409 277.236 218.409 279.072C218.409 280.896 219.597 282.144 221.325 282.144ZM221.277 276.912C222.273 276.912 222.909 277.56 222.909 278.532H219.525C219.669 277.5 220.293 276.912 221.277 276.912Z" fill="white"/>
</g>
<defs>
<filter id="filter0_d_198_9853" x="0" y="258" width="371" height="39" filterUnits="userSpaceOnUse" color-interpolation-filters="sRGB">
<feFlood flood-opacity="0" result="BackgroundImageFix"/>
<feColorMatrix in="SourceAlpha" type="matrix" values="0 0 0 0 0 0 0 0 0 0 0 0 0 0 0 0 0 0 127 0" result="hardAlpha"/>
<feOffset dy="1"/>
<feGaussianBlur stdDeviation="1"/>
<feComposite in2="hardAlpha" operator="out"/>
<feColorMatrix type="matrix" values="0 0 0 0 0.329531 0 0 0 0 0.33976 0 0 0 0 0.4625 0 0 0 0.1 0"/>
<feBlend mode="normal" in2="BackgroundImageFix" result="effect1_dropShadow_198_9853"/>
<feBlend mode="normal" in="SourceGraphic" in2="effect1_dropShadow_198_9853" result="shape"/>
</filter>
<clipPath id="clip0_198_9853">
<rect width="264" height="15" fill="white" transform="translate(10 32.5)"/>
</clipPath>
</defs>
</svg>
