<svg width="403" height="479" viewBox="0 0 403 479" fill="none" xmlns="http://www.w3.org/2000/svg">
<g filter="url(#filter0_d_524_623)">
<path d="M63.3048 9.00001C63.3048 4.58173 66.8865 1 71.3048 1H331.695C336.113 1 339.695 4.58172 339.695 9V283.273C339.695 287.691 336.113 291.273 331.695 291.273H71.3048C66.8865 291.273 63.3048 287.691 63.3048 283.273V9.00001Z" fill="white"/>
<path d="M63.8048 9.00001C63.8048 4.85787 67.1627 1.5 71.3048 1.5H331.695C335.837 1.5 339.195 4.85786 339.195 9V283.273C339.195 287.415 335.837 290.773 331.695 290.773H71.3048C67.1627 290.773 63.8048 287.415 63.8048 283.273V9.00001Z" stroke="#EEEEEE"/>
</g>
<path d="M63.9528 9.64356C63.9528 5.22528 67.5345 1.64355 71.9528 1.64355H159.082V25.426H63.9528V9.64356Z" fill="white"/>
<path d="M78.736 13.2137C78.736 14.6336 77.5848 15.7847 76.1649 15.7847C74.7449 15.7847 73.5938 14.6336 73.5938 13.2137C73.5938 11.7937 74.7449 10.6426 76.1649 10.6426C77.5848 10.6426 78.736 11.7937 78.736 13.2137Z" fill="#E36B72"/>
<path d="M87.7347 13.2127C87.7347 14.6326 86.5836 15.7837 85.1637 15.7837C83.7437 15.7837 82.5926 14.6326 82.5926 13.2127C82.5926 11.7927 83.7437 10.6416 85.1637 10.6416C86.5836 10.6416 87.7347 11.7927 87.7347 13.2127Z" fill="#FBB910"/>
<path d="M96.7335 13.2127C96.7335 14.6326 95.5823 15.7837 94.1624 15.7837C92.7424 15.7837 91.5913 14.6326 91.5913 13.2127C91.5913 11.7927 92.7424 10.6416 94.1624 10.6416C95.5823 10.6416 96.7335 11.7927 96.7335 13.2127Z" fill="#53C749"/>
<path d="M148.798 10.6418C148.798 10.9968 148.51 11.2846 148.155 11.2846C147.8 11.2846 147.512 10.9968 147.512 10.6418C147.512 10.2868 147.8 9.99902 148.155 9.99902C148.51 9.99902 148.798 10.2868 148.798 10.6418Z" fill="#8F8F8F"/>
<path d="M148.798 13.2131C148.798 13.5681 148.51 13.8558 148.155 13.8558C147.8 13.8558 147.512 13.5681 147.512 13.2131C147.512 12.8581 147.8 12.5703 148.155 12.5703C148.51 12.5703 148.798 12.8581 148.798 13.2131Z" fill="#8F8F8F"/>
<path d="M148.798 15.7844C148.798 16.1394 148.51 16.4271 148.155 16.4271C147.8 16.4271 147.512 16.1394 147.512 15.7844C147.512 15.4294 147.8 15.1416 148.155 15.1416C148.51 15.1416 148.798 15.4294 148.798 15.7844Z" fill="#8F8F8F"/>
<path fill-rule="evenodd" clip-rule="evenodd" d="M339.695 26.0558H63.3048V25.4248H339.695V26.0558Z" fill="#EEEEEE"/>
<path fill-rule="evenodd" clip-rule="evenodd" d="M339.695 26.0558H63.3048V25.4248H339.695V26.0558Z" fill="#EEEEEE"/>
<path fill-rule="evenodd" clip-rule="evenodd" d="M159.72 1.0004L159.72 26.0684L159.077 26.0684L159.077 1.0004L159.72 1.0004Z" fill="#EEEEEE"/>
<rect x="168.719" y="253.607" width="64.2768" height="19.283" rx="3" fill="#6A64F1"/>
<rect x="85.1589" y="92.916" width="110.556" height="19.283" rx="3" fill="#EEEEEE"/>
<rect x="85.1589" y="121.841" width="231.397" height="19.283" rx="3" fill="#EEEEEE"/>
<rect x="85.1589" y="150.766" width="231.397" height="93.2014" rx="3" fill="#EEEEEE"/>
<rect x="205.999" y="92.916" width="110.556" height="19.283" rx="3" fill="#EEEEEE"/>
<rect x="81.9451" y="45.3506" width="183.189" height="9.64152" rx="2" fill="#EEEEEE"/>
<rect x="81.9451" y="62.7051" width="63.634" height="4.49938" rx="1" fill="#EEEEEE"/>
<rect x="153.292" y="62.7051" width="39.2089" height="4.49938" rx="1" fill="#EEEEEE"/>
<g filter="url(#filter1_d_524_623)">
<path d="M29.8988 33.9277C29.8988 29.5095 33.4805 25.9277 37.8988 25.9277H365.101C369.519 25.9277 373.101 29.5095 373.101 33.9277V378.369C373.101 382.787 369.519 386.369 365.101 386.369H37.8988C33.4805 386.369 29.8988 382.787 29.8988 378.369V33.9277Z" fill="white"/>
<path d="M30.3988 33.9277C30.3988 29.7856 33.7567 26.4277 37.8988 26.4277H365.101C369.243 26.4277 372.601 29.7856 372.601 33.9277V378.369C372.601 382.511 369.243 385.869 365.101 385.869H37.8988C33.7567 385.869 30.3988 382.511 30.3988 378.369V33.9277Z" stroke="#EEEEEE"/>
</g>
<path d="M30.7034 34.7266C30.7034 30.3083 34.2851 26.7266 38.7034 26.7266H148.829V56.2579H30.7034V34.7266Z" fill="white"/>
<path d="M49.0601 41.092C49.0601 42.8552 47.6307 44.2846 45.8675 44.2846C44.1043 44.2846 42.6749 42.8552 42.6749 41.092C42.6749 39.3288 44.1043 37.8994 45.8675 37.8994C47.6307 37.8994 49.0601 39.3288 49.0601 41.092Z" fill="#E36B72"/>
<path d="M60.2341 41.092C60.2341 42.8552 58.8047 44.2846 57.0415 44.2846C55.2783 44.2846 53.8489 42.8552 53.8489 41.092C53.8489 39.3288 55.2783 37.8994 57.0415 37.8994C58.8047 37.8994 60.2341 39.3288 60.2341 41.092Z" fill="#FBB910"/>
<path d="M71.4081 41.092C71.4081 42.8552 69.9787 44.2846 68.2155 44.2846C66.4523 44.2846 65.0229 42.8552 65.0229 41.092C65.0229 39.3288 66.4523 37.8994 68.2155 37.8994C69.9787 37.8994 71.4081 39.3288 71.4081 41.092Z" fill="#53C749"/>
<path d="M136.058 37.8997C136.058 38.3405 135.701 38.6979 135.26 38.6979C134.819 38.6979 134.462 38.3405 134.462 37.8997C134.462 37.4589 134.819 37.1016 135.26 37.1016C135.701 37.1016 136.058 37.4589 136.058 37.8997Z" fill="#8F8F8F"/>
<path d="M136.058 41.0921C136.058 41.5329 135.701 41.8902 135.26 41.8902C134.819 41.8902 134.462 41.5329 134.462 41.0921C134.462 40.6513 134.819 40.2939 135.26 40.2939C135.701 40.2939 136.058 40.6513 136.058 41.0921Z" fill="#8F8F8F"/>
<path d="M136.058 44.2854C136.058 44.7263 135.701 45.0836 135.26 45.0836C134.819 45.0836 134.462 44.7263 134.462 44.2854C134.462 43.8446 134.819 43.4873 135.26 43.4873C135.701 43.4873 136.058 43.8446 136.058 44.2854Z" fill="#8F8F8F"/>
<path fill-rule="evenodd" clip-rule="evenodd" d="M373.101 57.0404H29.8988V56.2568H373.101V57.0404Z" fill="#EEEEEE"/>
<path fill-rule="evenodd" clip-rule="evenodd" d="M373.101 57.0404H29.8988V56.2568H373.101V57.0404Z" fill="#EEEEEE"/>
<path fill-rule="evenodd" clip-rule="evenodd" d="M149.621 25.928L149.621 57.0557L148.822 57.0557L148.822 25.928L149.621 25.928Z" fill="#EEEEEE"/>
<rect x="160.795" y="339.599" width="79.8145" height="23.9443" rx="3" fill="#6A64F1"/>
<rect x="57.0357" y="140.062" width="137.281" height="23.9443" rx="3" fill="#EEEEEE"/>
<rect x="57.0357" y="175.979" width="287.332" height="23.9443" rx="3" fill="#EEEEEE"/>
<rect x="57.0357" y="211.896" width="287.332" height="115.731" rx="3" fill="#EEEEEE"/>
<rect x="207.087" y="140.062" width="137.281" height="23.9443" rx="3" fill="#EEEEEE"/>
<rect x="53.045" y="81" width="227.471" height="11.9722" rx="2" fill="#EEEEEE"/>
<rect x="53.045" y="102.55" width="79.0164" height="5.58701" rx="1" fill="#EEEEEE"/>
<rect x="141.639" y="102.55" width="48.6868" height="5.58701" rx="1" fill="#EEEEEE"/>
<g filter="url(#filter2_d_524_623)">
<path d="M3 64.6123C3 60.194 6.58172 56.6123 11 56.6123H392C396.418 56.6123 400 60.194 400 64.6123V465.553C400 469.971 396.418 473.553 392 473.553H11C6.58172 473.553 3 469.971 3 465.553V64.6123Z" fill="white"/>
<path d="M3.5 64.6123C3.5 60.4702 6.85786 57.1123 11 57.1123H392C396.142 57.1123 399.5 60.4702 399.5 64.6123V465.553C399.5 469.695 396.142 473.053 392 473.053H11C6.85787 473.053 3.5 469.695 3.5 465.553V64.6123Z" stroke="#EEEEEE"/>
</g>
<path d="M3.92999 65.5352C3.92999 61.1169 7.51171 57.5352 11.93 57.5352H140.572V91.6956H3.92999V65.5352Z" fill="white"/>
<path d="M25.1649 74.154C25.1649 76.1936 23.5115 77.847 21.4719 77.847C19.4323 77.847 17.7789 76.1936 17.7789 74.154C17.7789 72.1144 19.4323 70.4609 21.4719 70.4609C23.5115 70.4609 25.1649 72.1144 25.1649 74.154Z" fill="#E36B72"/>
<path d="M38.0905 74.154C38.0905 76.1936 36.4371 77.847 34.3975 77.847C32.3579 77.847 30.7045 76.1936 30.7045 74.154C30.7045 72.1144 32.3579 70.4609 34.3975 70.4609C36.4371 70.4609 38.0905 72.1144 38.0905 74.154Z" fill="#FBB910"/>
<path d="M51.0161 74.154C51.0161 76.1936 49.3626 77.847 47.323 77.847C45.2834 77.847 43.63 76.1936 43.63 74.154C43.63 72.1144 45.2834 70.4609 47.323 70.4609C49.3626 70.4609 51.0161 72.1144 51.0161 74.154Z" fill="#53C749"/>
<path d="M125.8 70.4613C125.8 70.9712 125.386 71.3846 124.877 71.3846C124.367 71.3846 123.953 70.9712 123.953 70.4613C123.953 69.9514 124.367 69.5381 124.877 69.5381C125.386 69.5381 125.8 69.9514 125.8 70.4613Z" fill="#8F8F8F"/>
<path d="M125.8 74.1547C125.8 74.6646 125.386 75.078 124.877 75.078C124.367 75.078 123.953 74.6646 123.953 74.1547C123.953 73.6448 124.367 73.2314 124.877 73.2314C125.386 73.2314 125.8 73.6448 125.8 74.1547Z" fill="#8F8F8F"/>
<path d="M125.8 77.8471C125.8 78.357 125.386 78.7703 124.877 78.7703C124.367 78.7703 123.953 78.357 123.953 77.8471C123.953 77.3372 124.367 76.9238 124.877 76.9238C125.386 76.9238 125.8 77.3372 125.8 77.8471Z" fill="#8F8F8F"/>
<path fill-rule="evenodd" clip-rule="evenodd" d="M400 92.6027H3V91.6963H400V92.6027Z" fill="#EEEEEE"/>
<path fill-rule="evenodd" clip-rule="evenodd" d="M400 92.6027H3V91.6963H400V92.6027Z" fill="#EEEEEE"/>
<path fill-rule="evenodd" clip-rule="evenodd" d="M141.488 56.6122L141.488 92.6191L140.565 92.6191L140.565 56.6122L141.488 56.6122Z" fill="#EEEEEE"/>
<rect x="154.414" y="419.452" width="92.3256" height="27.6977" rx="3" fill="#6A64F1"/>
<rect x="34.3907" y="188.638" width="158.8" height="27.6977" rx="3" fill="#EEEEEE"/>
<rect x="34.3907" y="230.185" width="332.372" height="27.6977" rx="3" fill="#EEEEEE"/>
<rect x="34.3907" y="271.73" width="332.372" height="133.872" rx="3" fill="#EEEEEE"/>
<rect x="207.963" y="188.638" width="158.8" height="27.6977" rx="3" fill="#EEEEEE"/>
<rect x="29.7744" y="120.317" width="263.128" height="13.8488" rx="2" fill="#EEEEEE"/>
<rect x="29.7744" y="145.245" width="91.4023" height="6.46279" rx="1" fill="#EEEEEE"/>
<rect x="132.256" y="145.245" width="56.3186" height="6.46279" rx="1" fill="#EEEEEE"/>
<defs>
<filter id="filter0_d_524_623" x="60.3048" y="0" width="282.39" height="296.272" filterUnits="userSpaceOnUse" color-interpolation-filters="sRGB">
<feFlood flood-opacity="0" result="BackgroundImageFix"/>
<feColorMatrix in="SourceAlpha" type="matrix" values="0 0 0 0 0 0 0 0 0 0 0 0 0 0 0 0 0 0 127 0" result="hardAlpha"/>
<feOffset dy="2"/>
<feGaussianBlur stdDeviation="1.5"/>
<feComposite in2="hardAlpha" operator="out"/>
<feColorMatrix type="matrix" values="0 0 0 0 0.0352941 0 0 0 0 0.054902 0 0 0 0 0.203922 0 0 0 0.05 0"/>
<feBlend mode="normal" in2="BackgroundImageFix" result="effect1_dropShadow_524_623"/>
<feBlend mode="normal" in="SourceGraphic" in2="effect1_dropShadow_524_623" result="shape"/>
</filter>
<filter id="filter1_d_524_623" x="26.8988" y="24.9277" width="349.202" height="366.44" filterUnits="userSpaceOnUse" color-interpolation-filters="sRGB">
<feFlood flood-opacity="0" result="BackgroundImageFix"/>
<feColorMatrix in="SourceAlpha" type="matrix" values="0 0 0 0 0 0 0 0 0 0 0 0 0 0 0 0 0 0 127 0" result="hardAlpha"/>
<feOffset dy="2"/>
<feGaussianBlur stdDeviation="1.5"/>
<feComposite in2="hardAlpha" operator="out"/>
<feColorMatrix type="matrix" values="0 0 0 0 0.0352941 0 0 0 0 0.054902 0 0 0 0 0.203922 0 0 0 0.05 0"/>
<feBlend mode="normal" in2="BackgroundImageFix" result="effect1_dropShadow_524_623"/>
<feBlend mode="normal" in="SourceGraphic" in2="effect1_dropShadow_524_623" result="shape"/>
</filter>
<filter id="filter2_d_524_623" x="0" y="55.6123" width="403" height="422.94" filterUnits="userSpaceOnUse" color-interpolation-filters="sRGB">
<feFlood flood-opacity="0" result="BackgroundImageFix"/>
<feColorMatrix in="SourceAlpha" type="matrix" values="0 0 0 0 0 0 0 0 0 0 0 0 0 0 0 0 0 0 127 0" result="hardAlpha"/>
<feOffset dy="2"/>
<feGaussianBlur stdDeviation="1.5"/>
<feComposite in2="hardAlpha" operator="out"/>
<feColorMatrix type="matrix" values="0 0 0 0 0.0352941 0 0 0 0 0.054902 0 0 0 0 0.203922 0 0 0 0.05 0"/>
<feBlend mode="normal" in2="BackgroundImageFix" result="effect1_dropShadow_524_623"/>
<feBlend mode="normal" in="SourceGraphic" in2="effect1_dropShadow_524_623" result="shape"/>
</filter>
</defs>
</svg>
