<svg width="611" height="438" viewBox="0 0 611 438" fill="none" xmlns="http://www.w3.org/2000/svg">
<rect x="1" y="1.02344" width="391.742" height="429.782" rx="11.5" fill="white" stroke="#E7E7E7"/>
<rect x="31.4938" y="53.109" width="153.229" height="35.6842" rx="3.85" fill="#EEF0F8" stroke="#E9E9E9" stroke-width="0.3"/>
<rect x="51.906" y="68.3809" width="22.6186" height="4.11248" rx="2.05624" fill="#C6CDEB"/>
<rect x="79.6653" y="68.3809" width="45.2373" height="4.11248" rx="2.05624" fill="#C6CDEB"/>
<rect x="129.015" y="68.3809" width="28.7873" height="4.11248" rx="2.05624" fill="#C6CDEB"/>
<path d="M31.9187 39.9774V31.8867H36.9358V32.9376H33.1394V35.4027H36.5763V36.4496H33.1394V39.9774H31.9187Z" fill="#636E72"/>
<path d="M41.8058 37.4609V33.9094H42.991V39.9774H41.8295V38.9265H41.7663C41.6267 39.2505 41.4029 39.5204 41.0947 39.7364C40.7892 39.9497 40.4087 40.0564 39.953 40.0564C39.5633 40.0564 39.2183 39.9708 38.918 39.7996C38.6204 39.6258 38.386 39.369 38.2148 39.0292C38.0463 38.6895 37.962 38.2694 37.962 37.769V33.9094H39.1432V37.6268C39.1432 38.0403 39.2578 38.3695 39.4869 38.6144C39.716 38.8594 40.0136 38.9818 40.3797 38.9818C40.6009 38.9818 40.8208 38.9265 41.0394 38.8159C41.2607 38.7053 41.4437 38.5381 41.5886 38.3142C41.736 38.0903 41.8085 37.8059 41.8058 37.4609Z" fill="#636E72"/>
<path d="M45.7593 31.8867V39.9774H44.5781V31.8867H45.7593Z" fill="#636E72"/>
<path d="M48.5296 31.8867V39.9774H47.3484V31.8867H48.5296Z" fill="#636E72"/>
<path d="M59.6878 31.8867V39.9774H58.5659L54.4534 34.0437H54.3783V39.9774H53.1576V31.8867H54.2875L58.4039 37.8283H58.4789V31.8867H59.6878Z" fill="#636E72"/>
<path d="M63.1396 40.1117C62.755 40.1117 62.4074 40.0406 62.0966 39.8983C61.7859 39.7535 61.5396 39.5441 61.3579 39.2702C61.1788 38.9963 61.0892 38.6605 61.0892 38.2628C61.0892 37.9205 61.1551 37.6387 61.2868 37.4174C61.4185 37.1962 61.5962 37.0211 61.8201 36.892C62.044 36.763 62.2941 36.6655 62.5707 36.5997C62.8472 36.5338 63.129 36.4838 63.4161 36.4496C63.7795 36.4074 64.0745 36.3732 64.301 36.3468C64.5275 36.3179 64.6921 36.2718 64.7948 36.2086C64.8975 36.1454 64.9489 36.0427 64.9489 35.9004V35.8728C64.9489 35.5278 64.8514 35.2605 64.6566 35.0708C64.4643 34.8812 64.1772 34.7864 63.7953 34.7864C63.3977 34.7864 63.0843 34.8746 62.8551 35.0511C62.6286 35.2249 62.4719 35.4185 62.385 35.6318L61.2749 35.379C61.4066 35.0103 61.5989 34.7126 61.8517 34.4862C62.1072 34.257 62.4008 34.0911 62.7327 33.9884C63.0645 33.883 63.4135 33.8304 63.7795 33.8304C64.0218 33.8304 64.2786 33.8593 64.5499 33.9173C64.8238 33.9726 65.0793 34.0753 65.3163 34.2254C65.556 34.3755 65.7522 34.5902 65.9049 34.8694C66.0577 35.1459 66.134 35.5054 66.134 35.9478V39.9774H64.9805V39.1478H64.9331C64.8567 39.3005 64.7421 39.4506 64.5894 39.5981C64.4366 39.7456 64.2404 39.8681 64.0008 39.9655C63.7611 40.063 63.474 40.1117 63.1396 40.1117ZM63.3963 39.1636C63.7229 39.1636 64.0021 39.099 64.2338 38.97C64.4682 38.8409 64.646 38.6724 64.7672 38.4643C64.891 38.2536 64.9528 38.0284 64.9528 37.7888V37.0066C64.9107 37.0487 64.8291 37.0882 64.7079 37.1251C64.5894 37.1593 64.4538 37.1896 64.301 37.216C64.1483 37.2397 63.9995 37.262 63.8546 37.2831C63.7097 37.3015 63.5886 37.3173 63.4912 37.3305C63.262 37.3595 63.0526 37.4082 62.863 37.4767C62.676 37.5452 62.5259 37.6439 62.4127 37.773C62.3021 37.8994 62.2467 38.0679 62.2467 38.2786C62.2467 38.571 62.3547 38.7922 62.5707 38.9423C62.7866 39.0898 63.0619 39.1636 63.3963 39.1636Z" fill="#636E72"/>
<path d="M67.7073 39.9774V33.9094H68.8411V34.897H68.9162C69.0426 34.5625 69.2493 34.3018 69.5364 34.1148C69.8235 33.9252 70.1672 33.8304 70.5675 33.8304C70.9731 33.8304 71.3128 33.9252 71.5867 34.1148C71.8633 34.3044 72.0674 34.5652 72.1991 34.897H72.2623C72.4071 34.5731 72.6376 34.315 72.9536 34.1227C73.2696 33.9278 73.6463 33.8304 74.0835 33.8304C74.6339 33.8304 75.0829 34.0029 75.4306 34.3479C75.7809 34.6929 75.956 35.213 75.956 35.9083V39.9774H74.7748V36.0189C74.7748 35.6081 74.6629 35.3105 74.439 35.1261C74.2151 34.9418 73.9478 34.8496 73.637 34.8496C73.2525 34.8496 72.9536 34.9681 72.7403 35.2051C72.527 35.4395 72.4203 35.7411 72.4203 36.1098V39.9774H71.243V35.9439C71.243 35.6147 71.1403 35.35 70.9349 35.1498C70.7295 34.9497 70.4622 34.8496 70.1329 34.8496C69.9091 34.8496 69.7023 34.9089 69.5127 35.0274C69.3257 35.1433 69.1743 35.3052 69.0584 35.5133C68.9452 35.7213 68.8885 35.9623 68.8885 36.2362V39.9774H67.7073Z" fill="#636E72"/>
<path d="M80.1544 40.0998C79.5565 40.0998 79.0417 39.9721 78.6097 39.7166C78.1805 39.4585 77.8486 39.0964 77.6142 38.6302C77.3825 38.1614 77.2666 37.6123 77.2666 36.9829C77.2666 36.3613 77.3825 35.8135 77.6142 35.3395C77.8486 34.8654 78.1752 34.4954 78.5939 34.2294C79.0153 33.9634 79.5078 33.8304 80.0714 33.8304C80.4138 33.8304 80.7457 33.887 81.067 34.0002C81.3883 34.1135 81.6767 34.2913 81.9321 34.5336C82.1876 34.7759 82.3891 35.0906 82.5366 35.4777C82.684 35.8622 82.7578 36.3297 82.7578 36.8802V37.2989H77.9342V36.414H81.6003C81.6003 36.1032 81.5371 35.828 81.4107 35.5883C81.2842 35.346 81.1065 35.1551 80.8773 35.0155C80.6508 34.8759 80.3848 34.8061 80.0793 34.8061C79.7475 34.8061 79.4578 34.8878 79.2102 35.0511C78.9653 35.2117 78.7757 35.4224 78.6413 35.6832C78.5097 35.9413 78.4438 36.2217 78.4438 36.5246V37.216C78.4438 37.6215 78.5149 37.9665 78.6572 38.251C78.802 38.5354 79.0035 38.7527 79.2616 38.9028C79.5197 39.0503 79.8212 39.124 80.1662 39.124C80.3901 39.124 80.5942 39.0924 80.7786 39.0292C80.9629 38.9634 81.1223 38.8659 81.2566 38.7369C81.3909 38.6078 81.4936 38.4485 81.5647 38.2589L82.6827 38.4604C82.5932 38.7896 82.4325 39.078 82.2008 39.3255C81.9716 39.5705 81.6832 39.7614 81.3356 39.8983C80.9906 40.0327 80.5968 40.0998 80.1544 40.0998Z" fill="#636E72"/>
<path d="M85.7473 36.4377L85.8224 34.7706L84.416 35.6753L83.9854 34.9247L85.4787 34.1622L83.9854 33.3998L84.416 32.6492L85.8224 33.5538L85.7473 31.8867H86.6046L86.5295 33.5538L87.9359 32.6492L88.3665 33.3998L86.8732 34.1622L88.3665 34.9247L87.9359 35.6753L86.5295 34.7706L86.6046 36.4377H85.7473Z" fill="#636E72"/>
<path d="M31.3438 368.479C31.3438 366.269 33.1346 364.479 35.3437 364.479H358.398C360.607 364.479 362.398 366.269 362.398 368.479V396.463C362.398 398.672 360.607 400.463 358.398 400.463H35.3437C33.1346 400.463 31.3438 398.672 31.3438 396.463V368.479Z" fill="#6A64F1"/>
<path d="M171.255 378.016C171.188 377.395 170.909 376.912 170.416 376.567C169.929 376.221 169.294 376.048 168.513 376.048C167.964 376.048 167.493 376.131 167.1 376.297C166.707 376.463 166.406 376.687 166.198 376.972C165.989 377.256 165.883 377.58 165.878 377.945C165.878 378.248 165.947 378.51 166.084 378.733C166.226 378.955 166.418 379.145 166.659 379.301C166.901 379.453 167.168 379.58 167.462 379.685C167.755 379.789 168.051 379.876 168.35 379.947L169.713 380.288C170.263 380.416 170.791 380.589 171.297 380.807C171.809 381.025 172.265 381.299 172.668 381.631C173.075 381.962 173.397 382.362 173.634 382.831C173.871 383.3 173.989 383.849 173.989 384.479C173.989 385.331 173.771 386.081 173.335 386.73C172.9 387.374 172.27 387.878 171.446 388.243C170.627 388.603 169.635 388.783 168.47 388.783C167.339 388.783 166.356 388.607 165.523 388.257C164.694 387.907 164.046 387.395 163.577 386.723C163.113 386.051 162.862 385.232 162.824 384.266H165.416C165.454 384.772 165.611 385.194 165.885 385.53C166.16 385.866 166.517 386.117 166.958 386.283C167.403 386.448 167.9 386.531 168.449 386.531C169.022 386.531 169.524 386.446 169.955 386.276C170.39 386.1 170.731 385.859 170.978 385.551C171.224 385.239 171.349 384.874 171.354 384.457C171.349 384.079 171.238 383.766 171.02 383.52C170.802 383.269 170.497 383.061 170.104 382.895C169.716 382.724 169.261 382.573 168.74 382.44L167.085 382.014C165.888 381.706 164.941 381.24 164.245 380.615C163.553 379.985 163.208 379.15 163.208 378.108C163.208 377.251 163.44 376.5 163.904 375.857C164.372 375.213 165.009 374.713 165.814 374.358C166.619 373.998 167.531 373.818 168.549 373.818C169.581 373.818 170.485 373.998 171.262 374.358C172.043 374.713 172.656 375.208 173.101 375.842C173.546 376.472 173.776 377.196 173.79 378.016H171.255ZM183.177 383.974V377.653H185.748V388.562H183.256V386.624H183.142C182.896 387.234 182.491 387.734 181.927 388.122C181.369 388.51 180.68 388.705 179.861 388.705C179.146 388.705 178.514 388.546 177.964 388.229C177.42 387.907 176.994 387.44 176.686 386.83C176.378 386.214 176.224 385.471 176.224 384.599V377.653H178.795V384.202C178.795 384.893 178.985 385.442 179.364 385.849C179.742 386.257 180.239 386.46 180.855 386.46C181.234 386.46 181.601 386.368 181.956 386.183C182.311 385.999 182.602 385.724 182.829 385.359C183.061 384.99 183.177 384.528 183.177 383.974ZM188.506 388.562V374.017H191.077V379.457H191.184C191.316 379.192 191.503 378.911 191.745 378.612C191.986 378.309 192.313 378.051 192.725 377.838C193.137 377.62 193.662 377.511 194.301 377.511C195.144 377.511 195.904 377.727 196.581 378.158C197.263 378.584 197.803 379.216 198.201 380.054C198.603 380.887 198.804 381.91 198.804 383.122C198.804 384.32 198.608 385.338 198.215 386.176C197.822 387.014 197.287 387.653 196.61 388.094C195.933 388.534 195.166 388.754 194.309 388.754C193.684 388.754 193.165 388.65 192.753 388.442C192.341 388.233 192.01 387.982 191.759 387.689C191.513 387.391 191.321 387.109 191.184 386.844H191.034V388.562H188.506ZM191.027 383.108C191.027 383.813 191.127 384.431 191.326 384.962C191.529 385.492 191.82 385.906 192.199 386.205C192.583 386.498 193.047 386.645 193.591 386.645C194.159 386.645 194.635 386.493 195.019 386.19C195.402 385.883 195.691 385.464 195.885 384.933C196.084 384.398 196.184 383.79 196.184 383.108C196.184 382.431 196.086 381.83 195.892 381.304C195.698 380.778 195.409 380.366 195.026 380.068C194.642 379.77 194.164 379.621 193.591 379.621C193.042 379.621 192.576 379.765 192.192 380.054C191.809 380.343 191.517 380.748 191.318 381.268C191.124 381.789 191.027 382.402 191.027 383.108ZM200.99 388.562V377.653H203.447V379.507H203.575C203.802 378.882 204.179 378.394 204.704 378.044C205.23 377.689 205.857 377.511 206.587 377.511C207.325 377.511 207.948 377.691 208.454 378.051C208.966 378.406 209.326 378.892 209.534 379.507H209.648C209.889 378.901 210.296 378.418 210.869 378.058C211.447 377.694 212.131 377.511 212.922 377.511C213.926 377.511 214.745 377.829 215.379 378.463C216.014 379.098 216.331 380.023 216.331 381.24V388.562H213.753V381.638C213.753 380.961 213.573 380.466 213.213 380.153C212.853 379.836 212.413 379.678 211.892 379.678C211.272 379.678 210.786 379.872 210.436 380.26C210.09 380.643 209.918 381.143 209.918 381.759V388.562H207.396V381.531C207.396 380.968 207.226 380.518 206.885 380.182C206.549 379.846 206.108 379.678 205.564 379.678C205.195 379.678 204.858 379.772 204.555 379.962C204.252 380.146 204.011 380.409 203.831 380.75C203.651 381.086 203.561 381.479 203.561 381.929V388.562H200.99ZM218.939 388.562V377.653H221.51V388.562H218.939ZM220.232 376.105C219.825 376.105 219.474 375.97 219.181 375.7C218.887 375.426 218.74 375.097 218.74 374.713C218.74 374.325 218.887 373.996 219.181 373.726C219.474 373.451 219.825 373.314 220.232 373.314C220.644 373.314 220.994 373.451 221.283 373.726C221.576 373.996 221.723 374.325 221.723 374.713C221.723 375.097 221.576 375.426 221.283 375.7C220.994 375.97 220.644 376.105 220.232 376.105ZM229.601 377.653V379.642H223.33V377.653H229.601ZM224.878 375.04H227.449V385.281C227.449 385.627 227.502 385.892 227.606 386.077C227.715 386.257 227.857 386.38 228.032 386.446C228.207 386.512 228.401 386.545 228.614 386.545C228.775 386.545 228.922 386.534 229.055 386.51C229.192 386.486 229.296 386.465 229.367 386.446L229.8 388.456C229.663 388.503 229.467 388.555 229.211 388.612C228.96 388.669 228.652 388.702 228.288 388.712C227.644 388.731 227.064 388.634 226.547 388.42C226.031 388.203 225.622 387.866 225.319 387.412C225.021 386.957 224.874 386.389 224.878 385.707V375.04Z" fill="white"/>
<g clip-path="url(#clip0_1228_1695)">
<path d="M272.815 385.008C272.124 385.008 271.462 385.282 270.973 385.771C270.485 386.259 270.21 386.922 270.21 387.612V426.852C270.21 428.292 271.375 429.457 272.815 429.457C273.466 429.457 274.014 429.251 274.46 428.908L281.005 423.597L286.694 436.002C287.14 436.928 288.065 437.476 289.059 437.476C289.436 437.476 289.813 437.476 290.19 437.202L299.649 432.815C300.951 432.198 301.568 430.622 300.882 429.354L295.159 416.914L303.418 415.372C303.967 415.2 304.481 414.96 304.892 414.481C305.817 413.384 305.68 411.773 304.481 410.779L274.528 385.59L274.494 385.625C274.049 385.248 273.466 385.008 272.815 385.008ZM287.346 389.497V382.643H304.481V389.497H287.346ZM283.336 371.539L293.034 361.841L297.867 366.673L288.168 376.372L283.336 371.539ZM270.21 355.227H277.064V372.362H270.21V355.227ZM249.408 405.467L259.107 395.769L263.939 400.601L254.24 410.299L249.408 405.467ZM249.408 366.673L254.24 361.841L263.939 371.539L259.107 376.372L249.408 366.673ZM259.929 389.497H242.794V382.643H259.929V389.497Z" fill="#1BDC3A"/>
</g>
<path d="M36.2648 109.295C36.2243 108.935 36.0571 108.657 35.7633 108.459C35.4695 108.259 35.0997 108.159 34.6539 108.159C34.3347 108.159 34.0586 108.21 33.8256 108.311C33.5926 108.41 33.4115 108.547 33.2823 108.721C33.1556 108.894 33.0923 109.09 33.0923 109.31C33.0923 109.495 33.1354 109.655 33.2215 109.789C33.3102 109.923 33.4254 110.036 33.5672 110.127C33.7116 110.216 33.8661 110.291 34.0308 110.351C34.1954 110.41 34.3537 110.458 34.5057 110.496L35.2656 110.693C35.5138 110.754 35.7684 110.836 36.0293 110.94C36.2902 111.044 36.532 111.181 36.7549 111.351C36.9778 111.52 37.1577 111.731 37.2945 111.981C37.4338 112.232 37.5034 112.532 37.5034 112.882C37.5034 113.322 37.3894 113.714 37.1615 114.056C36.9361 114.398 36.608 114.667 36.1774 114.865C35.7494 115.063 35.2314 115.161 34.6235 115.161C34.0409 115.161 33.5369 115.069 33.1113 114.884C32.6858 114.699 32.3527 114.437 32.1121 114.098C31.8714 113.756 31.7385 113.35 31.7131 112.882H32.891C32.9137 113.163 33.0049 113.397 33.1645 113.585C33.3266 113.77 33.5331 113.908 33.7838 113.999C34.0371 114.087 34.3145 114.132 34.6159 114.132C34.9477 114.132 35.2428 114.08 35.5011 113.976C35.762 113.87 35.9672 113.723 36.1166 113.535C36.2661 113.345 36.3408 113.124 36.3408 112.87C36.3408 112.64 36.275 112.451 36.1432 112.304C36.0141 112.157 35.838 112.036 35.6151 111.939C35.3948 111.843 35.1453 111.758 34.8666 111.685L33.9472 111.434C33.3241 111.264 32.8302 111.015 32.4654 110.686C32.1032 110.356 31.9221 109.921 31.9221 109.379C31.9221 108.93 32.0437 108.539 32.2868 108.205C32.53 107.87 32.8593 107.611 33.2747 107.426C33.6901 107.238 34.1587 107.145 34.6805 107.145C35.2073 107.145 35.6721 107.237 36.0749 107.422C36.4801 107.607 36.7993 107.861 37.0323 108.186C37.2653 108.507 37.3869 108.877 37.397 109.295H36.2648Z" fill="#636E72"/>
<path d="M42.512 112.612V109.196H43.6518V115.032H42.5348V114.022H42.474C42.3398 114.333 42.1245 114.593 41.8281 114.8C41.5343 115.006 41.1683 115.108 40.7301 115.108C40.3552 115.108 40.0234 115.026 39.7346 114.861C39.4484 114.694 39.223 114.447 39.0583 114.12C38.8962 113.794 38.8152 113.39 38.8152 112.908V109.196H39.9512V112.772C39.9512 113.169 40.0614 113.486 40.2817 113.721C40.5021 113.957 40.7883 114.075 41.1404 114.075C41.3532 114.075 41.5647 114.022 41.7749 113.915C41.9877 113.809 42.1637 113.648 42.303 113.433C42.4449 113.217 42.5145 112.944 42.512 112.612Z" fill="#636E72"/>
<path d="M45.2694 115.032V107.251H46.4054V110.142H46.4738C46.5397 110.021 46.6347 109.88 46.7588 109.721C46.8829 109.561 47.0551 109.422 47.2755 109.303C47.4959 109.181 47.7872 109.12 48.1494 109.12C48.6205 109.12 49.041 109.239 49.4108 109.477C49.7806 109.716 50.0706 110.059 50.2808 110.507C50.4936 110.955 50.6 111.495 50.6 112.126C50.6 112.756 50.4949 113.297 50.2846 113.748C50.0744 114.196 49.7856 114.542 49.4184 114.785C49.0511 115.026 48.6319 115.146 48.1608 115.146C47.8062 115.146 47.5161 115.087 47.2907 114.968C47.0678 114.849 46.893 114.709 46.7664 114.55C46.6397 114.39 46.5422 114.248 46.4738 114.124H46.3788V115.032H45.2694ZM46.3826 112.114C46.3826 112.525 46.4422 112.884 46.5612 113.193C46.6803 113.502 46.8525 113.744 47.0779 113.919C47.3034 114.091 47.5795 114.177 47.9062 114.177C48.2456 114.177 48.5293 114.087 48.7573 113.908C48.9852 113.725 49.1575 113.478 49.274 113.167C49.393 112.855 49.4526 112.504 49.4526 112.114C49.4526 111.729 49.3943 111.383 49.2778 111.077C49.1638 110.771 48.9916 110.529 48.7611 110.351C48.5331 110.174 48.2482 110.085 47.9062 110.085C47.5769 110.085 47.2983 110.17 47.0703 110.34C46.8449 110.51 46.6739 110.746 46.5574 111.05C46.4409 111.354 46.3826 111.709 46.3826 112.114Z" fill="#636E72"/>
<path d="M51.8756 109.196H53.0117V115.412C53.0117 115.802 52.9407 116.131 52.7989 116.4C52.6596 116.668 52.4519 116.872 52.1758 117.012C51.9022 117.151 51.5641 117.221 51.1613 117.221C51.1208 117.221 51.0828 117.221 51.0474 117.221C51.0094 117.221 50.9701 117.219 50.9296 117.217V116.24C50.965 116.24 50.9967 116.24 51.0246 116.24C51.0499 116.24 51.079 116.24 51.112 116.24C51.3804 116.24 51.5742 116.168 51.6933 116.024C51.8148 115.882 51.8756 115.676 51.8756 115.405V109.196ZM52.4379 108.296C52.2404 108.296 52.0707 108.23 51.9288 108.098C51.7895 107.964 51.7199 107.804 51.7199 107.62C51.7199 107.432 51.7895 107.273 51.9288 107.141C52.0707 107.007 52.2404 106.939 52.4379 106.939C52.6355 106.939 52.804 107.007 52.9433 107.141C53.0851 107.273 53.156 107.432 53.156 107.62C53.156 107.804 53.0851 107.964 52.9433 108.098C52.804 108.23 52.6355 108.296 52.4379 108.296Z" fill="#636E72"/>
<path d="M57.0552 115.15C56.4802 115.15 55.985 115.027 55.5696 114.781C55.1567 114.533 54.8376 114.185 54.6122 113.737C54.3893 113.286 54.2778 112.758 54.2778 112.152C54.2778 111.554 54.3893 111.028 54.6122 110.572C54.8376 110.116 55.1517 109.76 55.5544 109.504C55.9597 109.248 56.4333 109.12 56.9754 109.12C57.3047 109.12 57.6238 109.175 57.9328 109.284C58.2419 109.393 58.5192 109.564 58.7649 109.797C59.0106 110.03 59.2044 110.332 59.3462 110.705C59.4881 111.074 59.559 111.524 59.559 112.053V112.456H54.9199V111.605H58.4458C58.4458 111.306 58.385 111.042 58.2634 110.811C58.1418 110.578 57.9708 110.394 57.7505 110.26C57.5326 110.126 57.2768 110.059 56.983 110.059C56.6638 110.059 56.3852 110.137 56.1471 110.294C55.9116 110.449 55.7292 110.651 55.6 110.902C55.4734 111.15 55.41 111.42 55.41 111.712V112.376C55.41 112.766 55.4784 113.098 55.6152 113.372C55.7545 113.645 55.9483 113.854 56.1965 113.999C56.4447 114.141 56.7348 114.212 57.0666 114.212C57.2819 114.212 57.4782 114.181 57.6555 114.12C57.8328 114.057 57.986 113.963 58.1152 113.839C58.2444 113.715 58.3432 113.562 58.4116 113.379L59.4868 113.573C59.4007 113.89 59.2462 114.167 59.0233 114.405C58.8029 114.641 58.5255 114.824 58.1912 114.956C57.8594 115.085 57.4807 115.15 57.0552 115.15Z" fill="#636E72"/>
<path d="M63.2777 115.15C62.7128 115.15 62.2265 115.022 61.8187 114.766C61.4134 114.508 61.1019 114.152 60.884 113.699C60.6662 113.245 60.5573 112.726 60.5573 112.141C60.5573 111.548 60.6687 111.025 60.8916 110.572C61.1145 110.116 61.4286 109.76 61.8339 109.504C62.2392 109.248 62.7166 109.12 63.2663 109.12C63.7095 109.12 64.1047 109.203 64.4517 109.367C64.7987 109.529 65.0786 109.757 65.2913 110.051C65.5066 110.345 65.6346 110.688 65.6751 111.081H64.5695C64.5087 110.807 64.3694 110.572 64.1515 110.374C63.9362 110.177 63.6475 110.078 63.2853 110.078C62.9686 110.078 62.6913 110.161 62.4532 110.329C62.2176 110.493 62.034 110.729 61.9023 111.035C61.7706 111.339 61.7047 111.699 61.7047 112.114C61.7047 112.54 61.7693 112.907 61.8985 113.216C62.0277 113.525 62.21 113.764 62.4456 113.934C62.6837 114.104 62.9636 114.189 63.2853 114.189C63.5006 114.189 63.6956 114.149 63.8704 114.071C64.0477 113.99 64.1958 113.875 64.3149 113.725C64.4365 113.576 64.5213 113.396 64.5695 113.186H65.6751C65.6346 113.563 65.5117 113.9 65.3065 114.196C65.1014 114.493 64.8265 114.726 64.4821 114.895C64.1401 115.065 63.7387 115.15 63.2777 115.15Z" fill="#636E72"/>
<path d="M69.6141 109.196V110.108H66.4264V109.196H69.6141ZM67.2813 107.798H68.4173V113.319C68.4173 113.539 68.4502 113.705 68.5161 113.816C68.5819 113.925 68.6668 114 68.7706 114.041C68.877 114.079 68.9923 114.098 69.1164 114.098C69.2076 114.098 69.2874 114.091 69.3558 114.079C69.4241 114.066 69.4773 114.056 69.5153 114.048L69.7205 114.987C69.6546 115.012 69.5609 115.037 69.4393 115.063C69.3178 115.09 69.1658 115.106 68.9834 115.108C68.6845 115.113 68.4059 115.06 68.1475 114.949C67.8892 114.837 67.6802 114.665 67.5206 114.432C67.3611 114.199 67.2813 113.906 67.2813 113.554V107.798Z" fill="#636E72"/>
<path d="M72.4855 111.628L72.5577 110.025L71.2051 110.895L70.791 110.173L72.2272 109.439L70.791 108.706L71.2051 107.984L72.5577 108.854L72.4855 107.251H73.31L73.2378 108.854L74.5904 107.984L75.0045 108.706L73.5683 109.439L75.0045 110.173L74.5904 110.895L73.2378 110.025L73.31 111.628H72.4855Z" fill="#636E72"/>
<rect x="31.4938" y="130.218" width="330.378" height="35.6842" rx="3.85" fill="#EEF0F8" stroke="#E9E9E9" stroke-width="0.3"/>
<rect x="51.906" y="146.52" width="62.8596" height="4.11248" rx="2.05624" fill="#C6CDEB"/>
<rect x="138.115" y="146.52" width="33.7295" height="4.11248" rx="2.05624" fill="#C6CDEB"/>
<rect x="179.042" y="146.52" width="64.3927" height="4.11248" rx="2.05624" fill="#C6CDEB"/>
<rect x="121.666" y="146.52" width="9.25308" height="4.11248" rx="2.05624" fill="#C6CDEB"/>
<path d="M31.9189 184.049H33.3705L35.8944 190.211H35.9873L38.5111 184.049H39.9627V191.976H38.8247V186.24H38.7511L36.4131 191.965H35.4686L33.1305 186.236H33.057V191.976H31.9189V184.049Z" fill="#636E72"/>
<path d="M44.1714 192.096C43.5856 192.096 43.0811 191.971 42.6579 191.721C42.2372 191.468 41.9121 191.113 41.6824 190.657C41.4553 190.197 41.3418 189.659 41.3418 189.042C41.3418 188.433 41.4553 187.897 41.6824 187.432C41.9121 186.968 42.2321 186.605 42.6424 186.344C43.0553 186.084 43.5379 185.953 44.0901 185.953C44.4256 185.953 44.7508 186.009 45.0656 186.12C45.3804 186.231 45.663 186.405 45.9133 186.642C46.1637 186.88 46.3611 187.188 46.5056 187.568C46.6501 187.944 46.7224 188.402 46.7224 188.942V189.352H41.9959V188.485H45.5882C45.5882 188.18 45.5262 187.911 45.4024 187.676C45.2785 187.438 45.1043 187.251 44.8798 187.115C44.6579 186.978 44.3972 186.909 44.0979 186.909C43.7727 186.909 43.4888 186.989 43.2463 187.149C43.0063 187.307 42.8205 187.513 42.6888 187.769C42.5598 188.022 42.4953 188.297 42.4953 188.593V189.271C42.4953 189.668 42.565 190.006 42.7043 190.285C42.8463 190.564 43.0437 190.777 43.2966 190.924C43.5495 191.068 43.845 191.14 44.183 191.14C44.4024 191.14 44.6024 191.109 44.783 191.047C44.9637 190.983 45.1198 190.887 45.2514 190.761C45.383 190.635 45.4837 190.478 45.5533 190.293L46.6488 190.49C46.5611 190.813 46.4036 191.095 46.1766 191.338C45.952 191.578 45.6695 191.765 45.3288 191.899C44.9908 192.031 44.605 192.096 44.1714 192.096Z" fill="#636E72"/>
<path d="M52.462 187.482L51.413 187.668C51.3691 187.534 51.2994 187.406 51.2039 187.285C51.111 187.164 50.9846 187.064 50.8246 186.987C50.6646 186.909 50.4646 186.871 50.2246 186.871C49.8968 186.871 49.6233 186.944 49.4039 187.091C49.1846 187.236 49.0749 187.423 49.0749 187.653C49.0749 187.851 49.1485 188.011 49.2956 188.133C49.4427 188.254 49.6801 188.353 50.0078 188.431L50.9523 188.647C51.4994 188.774 51.9071 188.969 52.1755 189.232C52.4439 189.495 52.5781 189.837 52.5781 190.258C52.5781 190.614 52.4749 190.931 52.2684 191.21C52.0646 191.486 51.7794 191.703 51.413 191.86C51.0491 192.018 50.6272 192.096 50.1472 192.096C49.4814 192.096 48.9381 191.955 48.5175 191.671C48.0969 191.384 47.8388 190.978 47.7433 190.451L48.862 190.281C48.9317 190.573 49.0749 190.793 49.2917 190.943C49.5085 191.09 49.791 191.164 50.1394 191.164C50.5188 191.164 50.822 191.085 51.0491 190.927C51.2762 190.767 51.3897 190.573 51.3897 190.343C51.3897 190.157 51.3201 190.001 51.1807 189.875C51.0439 189.748 50.8336 189.653 50.5497 189.588L49.5433 189.367C48.9885 189.241 48.5781 189.04 48.3123 188.764C48.0491 188.487 47.9175 188.138 47.9175 187.715C47.9175 187.364 48.0156 187.057 48.2117 186.793C48.4078 186.53 48.6788 186.325 49.0246 186.178C49.3704 186.028 49.7665 185.953 50.213 185.953C50.8555 185.953 51.3613 186.093 51.7304 186.371C52.0994 186.648 52.3433 187.018 52.462 187.482Z" fill="#636E72"/>
<path d="M58.3061 187.482L57.2571 187.668C57.2132 187.534 57.1435 187.406 57.0481 187.285C56.9552 187.164 56.8287 187.064 56.6687 186.987C56.5087 186.909 56.3087 186.871 56.0687 186.871C55.741 186.871 55.4674 186.944 55.2481 187.091C55.0287 187.236 54.9191 187.423 54.9191 187.653C54.9191 187.851 54.9926 188.011 55.1397 188.133C55.2868 188.254 55.5242 188.353 55.8519 188.431L56.7965 188.647C57.3435 188.774 57.7513 188.969 58.0197 189.232C58.2881 189.495 58.4222 189.837 58.4222 190.258C58.4222 190.614 58.319 190.931 58.1126 191.21C57.9087 191.486 57.6235 191.703 57.2571 191.86C56.8932 192.018 56.4713 192.096 55.9913 192.096C55.3255 192.096 54.7823 191.955 54.3616 191.671C53.941 191.384 53.6829 190.978 53.5875 190.451L54.7062 190.281C54.7758 190.573 54.9191 190.793 55.1358 190.943C55.3526 191.09 55.6352 191.164 55.9836 191.164C56.3629 191.164 56.6661 191.085 56.8932 190.927C57.1203 190.767 57.2339 190.573 57.2339 190.343C57.2339 190.157 57.1642 190.001 57.0248 189.875C56.8881 189.748 56.6777 189.653 56.3939 189.588L55.3874 189.367C54.8326 189.241 54.4223 189.04 54.1565 188.764C53.8933 188.487 53.7616 188.138 53.7616 187.715C53.7616 187.364 53.8597 187.057 54.0558 186.793C54.252 186.53 54.5229 186.325 54.8687 186.178C55.2145 186.028 55.6107 185.953 56.0571 185.953C56.6997 185.953 57.2055 186.093 57.5745 186.371C57.9435 186.648 58.1874 187.018 58.3061 187.482Z" fill="#636E72"/>
<path d="M61.4251 192.108C61.0483 192.108 60.7077 192.038 60.4032 191.899C60.0987 191.757 59.8574 191.552 59.6793 191.284C59.5038 191.015 59.4161 190.686 59.4161 190.297C59.4161 189.961 59.4806 189.685 59.6097 189.468C59.7387 189.251 59.9129 189.08 60.1322 188.953C60.3516 188.827 60.5967 188.731 60.8677 188.667C61.1387 188.602 61.4148 188.553 61.6961 188.52C62.0522 188.478 62.3412 188.445 62.5632 188.419C62.7851 188.391 62.9464 188.346 63.047 188.284C63.1477 188.222 63.198 188.121 63.198 187.982V187.955C63.198 187.617 63.1025 187.355 62.9116 187.169C62.7232 186.983 62.4419 186.89 62.0677 186.89C61.678 186.89 61.3709 186.977 61.1464 187.149C60.9245 187.32 60.7709 187.509 60.6858 187.718L59.598 187.471C59.7271 187.109 59.9155 186.818 60.1632 186.596C60.4135 186.371 60.7013 186.209 61.0264 186.108C61.3516 186.005 61.6935 185.953 62.0522 185.953C62.2896 185.953 62.5412 185.982 62.807 186.038C63.0754 186.093 63.3257 186.193 63.558 186.34C63.7928 186.488 63.9851 186.698 64.1348 186.971C64.2844 187.242 64.3593 187.595 64.3593 188.028V191.976H63.229V191.164H63.1825C63.1077 191.313 62.9954 191.46 62.8458 191.605C62.6961 191.749 62.5038 191.869 62.269 191.965C62.0341 192.06 61.7529 192.108 61.4251 192.108ZM61.6767 191.179C61.9967 191.179 62.2703 191.116 62.4974 190.989C62.727 190.863 62.9012 190.698 63.0199 190.494C63.1412 190.287 63.2019 190.067 63.2019 189.832V189.066C63.1606 189.107 63.0806 189.146 62.9619 189.182C62.8458 189.215 62.7129 189.245 62.5632 189.271C62.4135 189.294 62.2677 189.316 62.1258 189.337C61.9838 189.355 61.8651 189.37 61.7696 189.383C61.5451 189.411 61.34 189.459 61.1542 189.526C60.9709 189.593 60.8238 189.69 60.7129 189.817C60.6045 189.94 60.5503 190.106 60.5503 190.312C60.5503 190.598 60.6561 190.815 60.8677 190.962C61.0793 191.107 61.349 191.179 61.6767 191.179Z" fill="#636E72"/>
<path d="M68.3938 194.33C67.9215 194.33 67.5151 194.268 67.1744 194.144C66.8364 194.02 66.5602 193.856 66.346 193.653C66.1319 193.449 65.9719 193.226 65.866 192.983L66.8609 192.573C66.9306 192.686 67.0235 192.806 67.1396 192.933C67.2583 193.062 67.4183 193.171 67.6196 193.262C67.8234 193.352 68.0854 193.397 68.4054 193.397C68.8441 193.397 69.2067 193.29 69.4931 193.076C69.7796 192.864 69.9228 192.526 69.9228 192.062V190.893H69.8492C69.7796 191.019 69.6789 191.16 69.5473 191.315C69.4183 191.469 69.2402 191.604 69.0131 191.717C68.786 191.831 68.4905 191.887 68.1267 191.887C67.657 191.887 67.2338 191.778 66.857 191.558C66.4828 191.337 66.186 191.01 65.9667 190.579C65.7499 190.146 65.6415 189.613 65.6415 188.98C65.6415 188.348 65.7486 187.806 65.9628 187.355C66.1796 186.903 66.4764 186.557 66.8531 186.317C67.2299 186.075 67.657 185.953 68.1344 185.953C68.5034 185.953 68.8015 186.015 69.0286 186.139C69.2557 186.26 69.4325 186.402 69.5589 186.565C69.6879 186.728 69.7873 186.871 69.857 186.995H69.9421V186.031H71.0763V192.108C71.0763 192.619 70.9576 193.038 70.7202 193.366C70.4828 193.694 70.1615 193.936 69.7563 194.094C69.3538 194.251 68.8996 194.33 68.3938 194.33ZM68.3822 190.927C68.7151 190.927 68.9963 190.85 69.226 190.695C69.4583 190.538 69.6338 190.313 69.7525 190.022C69.8738 189.727 69.9344 189.375 69.9344 188.965C69.9344 188.565 69.875 188.213 69.7563 187.908C69.6376 187.604 69.4634 187.366 69.2338 187.196C69.0041 187.023 68.7202 186.937 68.3822 186.937C68.0338 186.937 67.7434 187.027 67.5112 187.208C67.2789 187.386 67.1035 187.628 66.9847 187.935C66.8686 188.242 66.8106 188.586 66.8106 188.965C66.8106 189.355 66.8699 189.697 66.9886 189.991C67.1073 190.285 67.2828 190.515 67.5151 190.68C67.7499 190.845 68.0389 190.927 68.3822 190.927Z" fill="#636E72"/>
<path d="M75.1911 192.096C74.6053 192.096 74.1008 191.971 73.6776 191.721C73.2569 191.468 72.9318 191.113 72.7021 190.657C72.475 190.197 72.3615 189.659 72.3615 189.042C72.3615 188.433 72.475 187.897 72.7021 187.432C72.9318 186.968 73.2518 186.605 73.6621 186.344C74.075 186.084 74.5576 185.953 75.1098 185.953C75.4453 185.953 75.7705 186.009 76.0853 186.12C76.4001 186.231 76.6827 186.405 76.933 186.642C77.1834 186.88 77.3808 187.188 77.5253 187.568C77.6698 187.944 77.7421 188.402 77.7421 188.942V189.352H73.0157V188.485H76.6079C76.6079 188.18 76.5459 187.911 76.4221 187.676C76.2982 187.438 76.124 187.251 75.8995 187.115C75.6776 186.978 75.4169 186.909 75.1176 186.909C74.7924 186.909 74.5085 186.989 74.266 187.149C74.026 187.307 73.8402 187.513 73.7086 187.769C73.5795 188.022 73.515 188.297 73.515 188.593V189.271C73.515 189.668 73.5847 190.006 73.724 190.285C73.866 190.564 74.0634 190.777 74.3163 190.924C74.5692 191.068 74.8647 191.14 75.2027 191.14C75.4221 191.14 75.6221 191.109 75.8027 191.047C75.9834 190.983 76.1395 190.887 76.2711 190.761C76.4027 190.635 76.5034 190.478 76.573 190.293L77.6685 190.49C77.5808 190.813 77.4234 191.095 77.1963 191.338C76.9717 191.578 76.6892 191.765 76.3485 191.899C76.0105 192.031 75.6247 192.096 75.1911 192.096Z" fill="#636E72"/>
<path d="M80.6714 188.508L80.7449 186.875L79.3669 187.761L78.945 187.026L80.4082 186.278L78.945 185.531L79.3669 184.796L80.7449 185.682L80.6714 184.049H81.5114L81.4378 185.682L82.8159 184.796L83.2378 185.531L81.7746 186.278L83.2378 187.026L82.8159 187.761L81.4378 186.875L81.5114 188.508H80.6714Z" fill="#636E72"/>
<rect x="31.4938" y="206.818" width="330.754" height="138.496" rx="3.85" fill="#EEF0F8" stroke="#E9E9E9" stroke-width="0.3"/>
<rect x="51.9062" y="227.74" width="114.121" height="4.11248" rx="2.05624" fill="#C6CDEB"/>
<rect x="51.9062" y="242.133" width="93.5589" height="4.11248" rx="2.05624" fill="#C6CDEB"/>
<rect x="51.9062" y="256.527" width="84.3058" height="4.11248" rx="2.05624" fill="#C6CDEB"/>
<rect x="51.9062" y="270.92" width="53.4622" height="4.11248" rx="2.05624" fill="#C6CDEB"/>
<rect x="51.9062" y="285.314" width="45.2373" height="4.11248" rx="2.05624" fill="#C6CDEB"/>
<rect x="160.887" y="285.314" width="23.6467" height="4.11248" rx="2.05624" fill="#C6CDEB"/>
<rect x="105.368" y="285.314" width="46.2654" height="4.11248" rx="2.05624" fill="#C6CDEB"/>
<rect x="214.349" y="270.92" width="42.1529" height="4.11248" rx="2.05624" fill="#C6CDEB"/>
<rect x="174.252" y="227.74" width="50.3779" height="4.11248" rx="2.05624" fill="#C6CDEB"/>
<rect x="153.69" y="242.133" width="50.3779" height="4.11248" rx="2.05624" fill="#C6CDEB"/>
<rect x="239.024" y="256.527" width="45.2373" height="4.11248" rx="2.05624" fill="#C6CDEB"/>
<rect x="177.337" y="270.92" width="28.7873" height="4.11248" rx="2.05624" fill="#C6CDEB"/>
<rect x="316.133" y="270.92" width="22.6186" height="4.11248" rx="2.05624" fill="#C6CDEB"/>
<rect x="232.855" y="227.74" width="104.868" height="4.11248" rx="2.05624" fill="#C6CDEB"/>
<rect x="212.293" y="242.133" width="94.587" height="4.11248" rx="2.05624" fill="#C6CDEB"/>
<rect x="144.437" y="256.527" width="86.362" height="4.11248" rx="2.05624" fill="#C6CDEB"/>
<rect x="113.594" y="270.92" width="55.5185" height="4.11248" rx="2.05624" fill="#C6CDEB"/>
<rect x="264.727" y="270.92" width="43.181" height="4.11248" rx="2.05624" fill="#C6CDEB"/>
<path d="M208.518 39.7696V31.9855H213.398V32.9965H209.692V35.3682H213.143V36.3754H209.692V38.7585H213.443V39.7696H208.518Z" fill="#636E72"/>
<path d="M214.875 39.7696V33.9315H215.966V34.8817H216.038C216.16 34.5599 216.359 34.3091 216.635 34.1292C216.911 33.9467 217.242 33.8555 217.627 33.8555C218.017 33.8555 218.344 33.9467 218.608 34.1292C218.874 34.3116 219.07 34.5624 219.197 34.8817H219.258C219.397 34.57 219.619 34.3217 219.923 34.1368C220.227 33.9492 220.589 33.8555 221.01 33.8555C221.539 33.8555 221.972 34.0215 222.306 34.3534C222.643 34.6853 222.811 35.1858 222.811 35.8547V39.7696H221.675V35.9611C221.675 35.5659 221.567 35.2795 221.352 35.1022C221.137 34.9248 220.879 34.8361 220.58 34.8361C220.21 34.8361 219.923 34.9501 219.718 35.1782C219.512 35.4037 219.41 35.6938 219.41 36.0486V39.7696H218.277V35.8889C218.277 35.5722 218.178 35.3175 217.981 35.125C217.783 34.9324 217.526 34.8361 217.209 34.8361C216.994 34.8361 216.795 34.8931 216.612 35.0071C216.432 35.1186 216.287 35.2745 216.175 35.4746C216.066 35.6748 216.012 35.9067 216.012 36.1702V39.7696H214.875Z" fill="#636E72"/>
<path d="M226.034 39.8988C225.664 39.8988 225.329 39.8304 225.03 39.6935C224.731 39.5542 224.494 39.3527 224.319 39.0892C224.147 38.8257 224.061 38.5026 224.061 38.12C224.061 37.7906 224.124 37.5195 224.251 37.3066C224.378 37.0938 224.549 36.9253 224.764 36.8011C224.98 36.677 225.22 36.5832 225.486 36.5199C225.752 36.4565 226.023 36.4084 226.3 36.3754C226.649 36.3349 226.933 36.3019 227.151 36.2766C227.369 36.2487 227.527 36.2044 227.626 36.1436C227.725 36.0828 227.774 35.9839 227.774 35.8471V35.8205C227.774 35.4886 227.681 35.2314 227.493 35.0489C227.308 34.8665 227.032 34.7753 226.665 34.7753C226.282 34.7753 225.98 34.8602 225.76 35.0299C225.542 35.1972 225.391 35.3834 225.308 35.5887L224.24 35.3454C224.366 34.9907 224.551 34.7043 224.795 34.4864C225.04 34.266 225.323 34.1063 225.642 34.0075C225.961 33.9062 226.297 33.8555 226.649 33.8555C226.882 33.8555 227.13 33.8834 227.391 33.9391C227.654 33.9923 227.9 34.0911 228.128 34.2356C228.358 34.38 228.547 34.5865 228.694 34.8551C228.841 35.1212 228.915 35.467 228.915 35.8927V39.7696H227.805V38.9714H227.759C227.686 39.1184 227.575 39.2628 227.429 39.4047C227.282 39.5466 227.093 39.6644 226.862 39.7582C226.632 39.8519 226.355 39.8988 226.034 39.8988ZM226.281 38.9866C226.595 38.9866 226.863 38.9245 227.086 38.8004C227.312 38.6762 227.483 38.514 227.6 38.3138C227.719 38.1111 227.778 37.8945 227.778 37.6639V36.9113C227.738 36.9519 227.659 36.9899 227.543 37.0254C227.429 37.0583 227.298 37.0875 227.151 37.1128C227.004 37.1356 226.861 37.1571 226.722 37.1774C226.582 37.1951 226.466 37.2103 226.372 37.223C226.151 37.2509 225.95 37.2978 225.768 37.3636C225.588 37.4295 225.443 37.5245 225.334 37.6487C225.228 37.7703 225.175 37.9325 225.175 38.1352C225.175 38.4165 225.279 38.6293 225.486 38.7737C225.694 38.9156 225.959 38.9866 226.281 38.9866Z" fill="#636E72"/>
<path d="M230.428 39.7696V33.9315H231.565V39.7696H230.428ZM231.002 33.0307C230.805 33.0307 230.635 32.9648 230.493 32.8331C230.354 32.6988 230.284 32.5391 230.284 32.3542C230.284 32.1667 230.354 32.007 230.493 31.8753C230.635 31.741 230.805 31.6738 231.002 31.6738C231.2 31.6738 231.368 31.741 231.508 31.8753C231.65 32.007 231.721 32.1667 231.721 32.3542C231.721 32.5391 231.65 32.6988 231.508 32.8331C231.368 32.9648 231.2 33.0307 231.002 33.0307Z" fill="#636E72"/>
<path d="M234.23 31.9855V39.7696H233.094V31.9855H234.23Z" fill="#636E72"/>
<path d="M239.34 39.7696H238.094L240.895 31.9855H242.252L245.053 39.7696H243.806L241.606 33.3994H241.545L239.34 39.7696ZM239.549 36.7213H243.593V37.7095H239.549V36.7213Z" fill="#636E72"/>
<path d="M248.177 39.8836C247.706 39.8836 247.285 39.7632 246.915 39.5225C246.548 39.2793 246.259 38.9334 246.049 38.4849C245.841 38.0339 245.737 37.4929 245.737 36.8619C245.737 36.231 245.842 35.6913 246.052 35.2428C246.265 34.7943 246.557 34.451 246.927 34.2128C247.297 33.9746 247.716 33.8555 248.185 33.8555C248.547 33.8555 248.838 33.9163 249.059 34.0379C249.282 34.157 249.454 34.2964 249.576 34.456C249.7 34.6157 249.796 34.7563 249.865 34.8779H249.933V31.9855H251.07V39.7696H249.96V38.8612H249.865C249.796 38.9853 249.697 39.1272 249.568 39.2869C249.442 39.4465 249.267 39.5859 249.044 39.7049C248.821 39.824 248.532 39.8836 248.177 39.8836ZM248.428 38.9144C248.755 38.9144 249.031 38.8282 249.257 38.6559C249.485 38.4811 249.657 38.2391 249.773 37.93C249.893 37.6208 249.952 37.261 249.952 36.8505C249.952 36.4451 249.894 36.0904 249.777 35.7863C249.661 35.4822 249.49 35.2453 249.264 35.0756C249.039 34.9058 248.76 34.8209 248.428 34.8209C248.086 34.8209 247.801 34.9096 247.573 35.087C247.345 35.2643 247.172 35.5063 247.056 35.8129C246.942 36.1195 246.885 36.4654 246.885 36.8505C246.885 37.2408 246.943 37.5917 247.06 37.9034C247.176 38.215 247.349 38.4621 247.577 38.6445C247.807 38.8244 248.091 38.9144 248.428 38.9144Z" fill="#636E72"/>
<path d="M254.877 39.8836C254.406 39.8836 253.985 39.7632 253.615 39.5225C253.248 39.2793 252.959 38.9334 252.749 38.4849C252.541 38.0339 252.437 37.4929 252.437 36.8619C252.437 36.231 252.542 35.6913 252.752 35.2428C252.965 34.7943 253.257 34.451 253.627 34.2128C253.997 33.9746 254.416 33.8555 254.885 33.8555C255.247 33.8555 255.538 33.9163 255.759 34.0379C255.982 34.157 256.154 34.2964 256.276 34.456C256.4 34.6157 256.496 34.7563 256.565 34.8779H256.633V31.9855H257.769V39.7696H256.66V38.8612H256.565C256.496 38.9853 256.397 39.1272 256.268 39.2869C256.141 39.4465 255.967 39.5859 255.744 39.7049C255.521 39.824 255.232 39.8836 254.877 39.8836ZM255.128 38.9144C255.455 38.9144 255.731 38.8282 255.956 38.6559C256.185 38.4811 256.357 38.2391 256.473 37.93C256.592 37.6208 256.652 37.261 256.652 36.8505C256.652 36.4451 256.594 36.0904 256.477 35.7863C256.361 35.4822 256.19 35.2453 255.964 35.0756C255.739 34.9058 255.46 34.8209 255.128 34.8209C254.786 34.8209 254.501 34.9096 254.273 35.087C254.045 35.2643 253.872 35.5063 253.756 35.8129C253.642 36.1195 253.585 36.4654 253.585 36.8505C253.585 37.2408 253.643 37.5917 253.76 37.9034C253.876 38.215 254.048 38.4621 254.276 38.6445C254.507 38.8244 254.791 38.9144 255.128 38.9144Z" fill="#636E72"/>
<path d="M259.391 39.7696V33.9315H260.49V34.8589H260.551C260.657 34.5447 260.845 34.2977 261.113 34.1178C261.384 33.9353 261.691 33.8441 262.033 33.8441C262.104 33.8441 262.188 33.8466 262.284 33.8517C262.383 33.8568 262.46 33.8631 262.516 33.8707V34.9577C262.47 34.9451 262.389 34.9311 262.272 34.9159C262.156 34.8982 262.039 34.8893 261.923 34.8893C261.654 34.8893 261.415 34.9463 261.204 35.0604C260.997 35.1718 260.832 35.3277 260.71 35.5279C260.589 35.7255 260.528 35.951 260.528 36.2044V39.7696H259.391Z" fill="#636E72"/>
<path d="M265.806 39.8874C265.231 39.8874 264.736 39.7645 264.32 39.5187C263.907 39.2704 263.588 38.922 263.362 38.4735C263.139 38.0225 263.028 37.4941 263.028 36.8885C263.028 36.2905 263.139 35.7635 263.362 35.3074C263.588 34.8513 263.902 34.4953 264.305 34.2394C264.71 33.9835 265.184 33.8555 265.726 33.8555C266.056 33.8555 266.375 33.91 266.684 34.0189C266.993 34.1279 267.271 34.2989 267.517 34.532C267.762 34.7652 267.956 35.068 268.098 35.4404C268.24 35.8104 268.311 36.2601 268.311 36.7897V37.1926H263.67V36.3412H267.197C267.197 36.0422 267.137 35.7774 267.015 35.5469C266.893 35.3137 266.722 35.13 266.502 34.9957C266.284 34.8614 266.028 34.7943 265.734 34.7943C265.415 34.7943 265.136 34.8728 264.898 35.0299C264.662 35.1845 264.48 35.3872 264.351 35.6381C264.224 35.8864 264.161 36.1563 264.161 36.4476V37.1128C264.161 37.503 264.229 37.8349 264.366 38.1086C264.505 38.3823 264.699 38.5913 264.947 38.7357C265.196 38.8776 265.486 38.9486 265.818 38.9486C266.033 38.9486 266.229 38.9182 266.407 38.8574C266.584 38.794 266.737 38.7003 266.867 38.5761C266.996 38.4519 267.095 38.2986 267.163 38.1162L268.239 38.31C268.153 38.6268 267.998 38.9042 267.775 39.1424C267.555 39.3781 267.277 39.5618 266.943 39.6935C266.611 39.8228 266.232 39.8874 265.806 39.8874Z" fill="#636E72"/>
<path d="M273.947 35.3568L272.917 35.5393C272.874 35.4075 272.805 35.2821 272.711 35.163C272.62 35.0439 272.496 34.9463 272.339 34.8703C272.182 34.7943 271.985 34.7563 271.75 34.7563C271.428 34.7563 271.159 34.8285 270.944 34.9729C270.729 35.1148 270.621 35.2985 270.621 35.5241C270.621 35.7192 270.693 35.8763 270.838 35.9954C270.982 36.1144 271.215 36.212 271.537 36.288L272.464 36.5009C273.002 36.625 273.402 36.8163 273.665 37.0748C273.929 37.3332 274.061 37.669 274.061 38.082C274.061 38.4317 273.959 38.7433 273.757 39.017C273.556 39.2881 273.276 39.501 272.917 39.6555C272.559 39.8101 272.145 39.8874 271.674 39.8874C271.02 39.8874 270.487 39.748 270.074 39.4693C269.661 39.188 269.407 38.7889 269.313 38.272L270.412 38.1048C270.48 38.3911 270.621 38.6078 270.834 38.7547C271.047 38.8992 271.324 38.9714 271.666 38.9714C272.039 38.9714 272.336 38.8941 272.559 38.7395C272.782 38.5824 272.894 38.3911 272.894 38.1656C272.894 37.9832 272.825 37.8299 272.689 37.7057C272.554 37.5816 272.348 37.4878 272.069 37.4245L271.081 37.2078C270.536 37.0837 270.133 36.886 269.872 36.6149C269.614 36.3438 269.484 36.0004 269.484 35.5849C269.484 35.2403 269.581 34.9387 269.773 34.6803C269.966 34.4218 270.232 34.2204 270.572 34.0759C270.911 33.929 271.3 33.8555 271.738 33.8555C272.369 33.8555 272.866 33.9923 273.228 34.266C273.591 34.5371 273.83 34.9007 273.947 35.3568Z" fill="#636E72"/>
<path d="M279.685 35.3568L278.655 35.5393C278.612 35.4075 278.543 35.2821 278.45 35.163C278.358 35.0439 278.234 34.9463 278.077 34.8703C277.92 34.7943 277.724 34.7563 277.488 34.7563C277.166 34.7563 276.898 34.8285 276.682 34.9729C276.467 35.1148 276.359 35.2985 276.359 35.5241C276.359 35.7192 276.431 35.8763 276.576 35.9954C276.72 36.1144 276.953 36.212 277.275 36.288L278.203 36.5009C278.74 36.625 279.14 36.8163 279.404 37.0748C279.667 37.3332 279.799 37.669 279.799 38.082C279.799 38.4317 279.698 38.7433 279.495 39.017C279.295 39.2881 279.015 39.501 278.655 39.6555C278.298 39.8101 277.883 39.8874 277.412 39.8874C276.758 39.8874 276.225 39.748 275.812 39.4693C275.399 39.188 275.145 38.7889 275.052 38.272L276.15 38.1048C276.219 38.3911 276.359 38.6078 276.572 38.7547C276.785 38.8992 277.062 38.9714 277.404 38.9714C277.777 38.9714 278.075 38.8941 278.298 38.7395C278.521 38.5824 278.632 38.3911 278.632 38.1656C278.632 37.9832 278.564 37.8299 278.427 37.7057C278.293 37.5816 278.086 37.4878 277.807 37.4245L276.819 37.2078C276.274 37.0837 275.871 36.886 275.61 36.6149C275.352 36.3438 275.223 36.0004 275.223 35.5849C275.223 35.2403 275.319 34.9387 275.512 34.6803C275.704 34.4218 275.97 34.2204 276.31 34.0759C276.649 33.929 277.038 33.8555 277.477 33.8555C278.108 33.8555 278.604 33.9923 278.967 34.266C279.329 34.5371 279.568 34.9007 279.685 35.3568Z" fill="#636E72"/>
<path d="M282.664 36.364L282.736 34.7601L281.383 35.6305L280.969 34.9083L282.405 34.1748L280.969 33.4412L281.383 32.7191L282.736 33.5894L282.664 31.9855H283.489L283.416 33.5894L284.769 32.7191L285.184 33.4412L283.747 34.1748L285.184 34.9083L284.769 35.6305L283.416 34.7601L283.489 36.364H282.664Z" fill="#636E72"/>
<rect x="208.737" y="52.0816" width="153.229" height="35.6842" rx="3.85" fill="#EEF0F8" stroke="#E9E9E9" stroke-width="0.3"/>
<rect x="263.699" y="68.3809" width="22.6186" height="4.11248" rx="2.05624" fill="#C6CDEB"/>
<rect x="291.458" y="68.3809" width="45.2373" height="4.11248" rx="2.05624" fill="#C6CDEB"/>
<rect x="229.771" y="68.3809" width="28.7873" height="4.11248" rx="2.05624" fill="#C6CDEB"/>
<g filter="url(#filter0_d_1228_1695)">
<rect x="523.813" y="67.3496" width="61.6872" height="61.6872" rx="14" fill="white"/>
</g>
<path d="M567.765 83.8008H542.576C539.595 83.8008 537.179 86.2174 537.179 89.1984V107.191C537.179 110.172 539.595 112.588 542.576 112.588H567.765C570.746 112.588 573.163 110.172 573.163 107.191V89.1984C573.163 86.2174 570.746 83.8008 567.765 83.8008Z" fill="#6A64F1"/>
<path d="M553.21 98.7189L537.179 88.2988C537.179 85.8146 539.193 83.8008 541.677 83.8008H568.665C571.149 83.8008 573.163 85.8146 573.163 88.2988L557.132 98.7189C555.939 99.494 554.402 99.494 553.21 98.7189Z" fill="#B9B6FD"/>
<g filter="url(#filter1_d_1228_1695)">
<rect x="523.813" y="154.738" width="61.6872" height="61.6872" rx="14" fill="white"/>
</g>
<g filter="url(#filter2_d_1228_1695)">
<rect x="534.094" y="165.02" width="41.1283" height="41.1283" rx="20.5642" fill="url(#paint0_linear_1228_1695)"/>
<g clip-path="url(#clip1_1228_1695)">
<path d="M564.125 179.071L561.236 192.594C561.021 193.547 560.468 193.762 559.669 193.331L555.335 190.135L553.214 192.164C552.999 192.379 552.784 192.594 552.292 192.594L552.63 188.137L560.714 180.792C561.052 180.454 560.621 180.331 560.191 180.607L550.141 186.939L545.807 185.617C544.855 185.31 544.855 184.664 546.023 184.234L562.865 177.688C563.695 177.442 564.402 177.872 564.125 179.071Z" fill="white"/>
</g>
</g>
<g filter="url(#filter3_d_1228_1695)">
<rect x="523.813" y="329.521" width="61.6872" height="61.6872" rx="14" fill="white"/>
</g>
<g clip-path="url(#clip2_1228_1695)">
<path fill-rule="evenodd" clip-rule="evenodd" d="M543.086 348.446C544.231 349.376 544.661 349.305 546.812 349.162L567.087 347.944C567.517 347.944 567.159 347.515 567.016 347.444L563.649 345.01C563.003 344.509 562.144 343.935 560.496 344.079L540.864 345.511C540.148 345.582 540.005 345.94 540.29 346.227L543.086 348.446ZM544.303 353.171V374.504C544.303 375.65 544.876 376.079 546.166 376.008L568.448 374.719C569.738 374.648 569.882 373.859 569.882 372.928V351.738C569.882 350.809 569.524 350.307 568.734 350.379L545.449 351.738C544.59 351.811 544.303 352.241 544.303 353.171H544.303ZM566.3 354.315C566.443 354.96 566.3 355.605 565.654 355.677L564.581 355.891V371.64C563.649 372.141 562.789 372.428 562.073 372.428C560.926 372.428 560.639 372.069 559.78 370.996L552.757 359.972V370.638L554.979 371.14C554.979 371.14 554.979 372.428 553.186 372.428L548.244 372.714C548.1 372.428 548.244 371.712 548.745 371.569L550.035 371.212V357.108L548.244 356.965C548.101 356.32 548.458 355.39 549.462 355.318L554.764 354.96L562.073 366.129V356.249L560.209 356.035C560.066 355.247 560.639 354.674 561.355 354.603L566.3 354.315ZM539.216 343.578L559.636 342.074C562.144 341.859 562.789 342.003 564.365 343.148L570.884 347.73C571.959 348.518 572.318 348.732 572.318 349.591V374.719C572.318 376.294 571.744 377.225 569.739 377.368L546.024 378.8C544.518 378.871 543.802 378.657 543.013 377.654L538.213 371.426C537.353 370.279 536.995 369.422 536.995 368.418V346.083C536.995 344.795 537.569 343.721 539.216 343.578V343.578Z" fill="black"/>
</g>
<g filter="url(#filter4_d_1228_1695)">
<rect x="523.813" y="242.133" width="61.6872" height="61.6872" rx="14" fill="white"/>
</g>
<g clip-path="url(#clip3_1228_1695)">
<path d="M550.178 273.906C548.266 273.906 546.628 275.545 546.628 277.456V286.305C546.628 288.216 548.266 289.855 550.178 289.855C552.09 289.855 553.728 288.216 553.728 286.305V277.456C553.728 275.436 552.199 273.906 550.178 273.906Z" fill="#D81C57"/>
<path d="M537.725 277.456C537.725 279.368 539.363 281.007 541.275 281.007C543.187 281.007 544.825 279.368 544.825 277.456V273.906H541.33C539.363 273.906 537.725 275.436 537.725 277.456Z" fill="#D81C57"/>
<path d="M550.178 256.045C548.266 256.045 546.628 257.683 546.628 259.595C546.628 261.507 548.266 263.145 550.178 263.145H553.728C553.728 261.124 553.728 261.616 553.728 259.595C553.728 257.683 552.199 256.045 550.178 256.045Z" fill="#34BFE9"/>
<path d="M541.275 272.048H550.178C552.09 272.048 553.728 270.409 553.728 268.497C553.728 266.586 552.09 264.947 550.178 264.947H541.275C539.363 264.947 537.725 266.586 537.725 268.497C537.725 270.409 539.254 272.048 541.275 272.048Z" fill="#34BFE9"/>
<path d="M567.984 264.947C566.072 264.947 564.434 266.586 564.434 268.497V272.048H567.984C569.895 272.048 571.534 270.409 571.534 268.497C571.534 266.586 569.95 264.947 567.984 264.947Z" fill="#2CB07A"/>
<path d="M555.585 259.595V268.498C555.585 270.41 557.224 272.048 559.135 272.048C561.047 272.048 562.686 270.41 562.686 268.498V259.595C562.686 257.683 561.047 256.045 559.135 256.045C557.115 256.045 555.585 257.683 555.585 259.595Z" fill="#2CB07A"/>
<path d="M562.686 286.359C562.686 284.447 561.047 282.809 559.135 282.809H555.585V286.359C555.585 288.27 557.224 289.909 559.135 289.909C561.047 289.909 562.686 288.27 562.686 286.359Z" fill="#E4AC2C"/>
<path d="M568.038 273.906H559.135C557.224 273.906 555.585 275.545 555.585 277.456C555.585 279.368 557.224 281.007 559.135 281.007H568.038C569.95 281.007 571.589 279.368 571.589 277.456C571.589 275.436 569.95 273.906 568.038 273.906Z" fill="#E4AC2C"/>
</g>
<line x1="476.491" y1="224.684" x2="504.307" y2="224.684" stroke="#A8B2BF" stroke-width="2" stroke-linecap="round" stroke-dasharray="4 4"/>
<line x1="504.25" y1="273.004" x2="522.812" y2="273.004" stroke="#A8B2BF" stroke-width="2" stroke-linecap="round" stroke-dasharray="4 4"/>
<line x1="504.25" y1="360.395" x2="522.812" y2="360.395" stroke="#A8B2BF" stroke-width="2" stroke-linecap="round" stroke-dasharray="4 4"/>
<line x1="504.25" y1="184.586" x2="522.812" y2="184.586" stroke="#A8B2BF" stroke-width="2" stroke-linecap="round" stroke-dasharray="4 4"/>
<line x1="504.25" y1="99.252" x2="522.812" y2="99.252" stroke="#A8B2BF" stroke-width="2" stroke-linecap="round" stroke-dasharray="4 4"/>
<line x1="504.306" y1="360.395" x2="504.306" y2="99.1959" stroke="#A8B2BF" stroke-width="2" stroke-linecap="round" stroke-dasharray="4 4"/>
<line x1="394.242" y1="224.682" x2="422.057" y2="224.682" stroke="#A8B2BF" stroke-width="2" stroke-linecap="round" stroke-dasharray="4 4"/>
<rect x="423.057" y="322.324" width="185.062" height="52.4341" rx="7" transform="rotate(-90 423.057 322.324)" fill="#F0EFFE"/>
<path d="M435.395 276.059L463.154 276.059L463.154 293.108L457.512 293.108L457.512 281.327L452.02 281.327L452.02 293.108L446.603 293.108L446.603 281.327L441.185 281.327L441.185 298.476L463.154 298.476L463.154 303.818L435.395 303.818L435.395 276.059Z" fill="#6A64F1"/>
<path d="M458.693 263.172L440.65 263.172L440.65 252.513L443.794 252.513L443.794 260.027L447.455 260.027L447.455 253.751L450.599 253.751L450.599 260.027L458.693 260.027L458.693 263.172Z" fill="#07074D"/>
<path d="M459.028 245.997C459.028 247.183 458.723 248.266 458.113 249.245C457.503 250.216 456.687 250.994 455.664 251.578C454.633 252.154 453.495 252.441 452.249 252.441C451.304 252.441 450.423 252.274 449.607 251.939C448.782 251.604 448.06 251.144 447.442 250.56C446.815 249.967 446.325 249.28 445.972 248.498C445.62 247.716 445.444 246.882 445.444 245.997C445.444 244.812 445.749 243.733 446.359 242.762C446.969 241.783 447.79 241.005 448.821 240.43C449.852 239.845 450.995 239.553 452.249 239.553C453.186 239.553 454.062 239.721 454.878 240.056C455.695 240.391 456.416 240.855 457.043 241.448C457.662 242.032 458.148 242.715 458.5 243.497C458.852 244.27 459.028 245.104 459.028 245.997ZM455.884 245.997C455.884 245.37 455.716 244.807 455.381 244.309C455.046 243.811 454.603 243.42 454.053 243.136C453.504 242.844 452.902 242.698 452.249 242.698C451.579 242.698 450.969 242.848 450.419 243.149C449.86 243.441 449.418 243.841 449.091 244.348C448.756 244.846 448.589 245.396 448.589 245.997C448.589 246.616 448.756 247.174 449.091 247.673C449.427 248.171 449.873 248.566 450.432 248.859C450.99 249.151 451.596 249.297 452.249 249.297C452.928 249.297 453.542 249.146 454.092 248.846C454.642 248.545 455.08 248.145 455.407 247.647C455.725 247.14 455.884 246.59 455.884 245.997Z" fill="#07074D"/>
<path d="M449.001 229.71C448.847 229.942 448.722 230.196 448.627 230.471C448.533 230.737 448.486 231.034 448.486 231.36C448.486 231.987 448.649 232.529 448.975 232.984C449.302 233.431 449.74 233.775 450.29 234.015C450.831 234.256 451.433 234.376 452.094 234.376L458.693 234.376L458.693 237.546L445.805 237.546L445.805 234.402L447.326 234.402C446.759 233.972 446.308 233.461 445.972 232.868C445.637 232.267 445.47 231.588 445.47 230.832C445.47 230.54 445.478 230.26 445.496 229.994C445.513 229.719 445.56 229.457 445.637 229.208L449.001 229.71Z" fill="#07074D"/>
<path d="M458.693 227.727L445.805 227.727L445.805 224.583L447.107 224.583C446.686 224.205 446.346 223.805 446.088 223.384C445.822 222.954 445.689 222.469 445.689 221.928C445.689 221.051 445.874 220.252 446.243 219.53C446.604 218.8 447.12 218.173 447.79 217.649C447.12 217.125 446.604 216.497 446.243 215.767C445.874 215.037 445.689 214.238 445.689 213.37C445.689 212.261 445.964 211.273 446.514 210.406C447.064 209.529 447.803 208.837 448.731 208.331C449.65 207.824 450.668 207.57 451.785 207.57L458.693 207.57L458.693 210.715L451.785 210.715C451.235 210.715 450.741 210.827 450.303 211.05C449.856 211.273 449.5 211.587 449.233 211.991C448.967 212.386 448.834 212.846 448.834 213.37C448.834 213.894 448.967 214.362 449.233 214.775C449.5 215.178 449.856 215.496 450.303 215.728C450.741 215.96 451.235 216.076 451.785 216.076L458.693 216.076L458.693 219.221L451.785 219.221C451.235 219.221 450.741 219.341 450.303 219.582C449.856 219.814 449.5 220.136 449.233 220.549C448.967 220.952 448.834 221.412 448.834 221.928C448.834 222.426 448.971 222.877 449.246 223.281C449.521 223.685 449.886 224.003 450.342 224.235C450.797 224.467 451.295 224.583 451.837 224.583L458.693 224.583L458.693 227.727Z" fill="#07074D"/>
<path d="M458.693 203.957L440.65 203.957L440.65 197.384C440.65 196.43 440.847 195.571 441.243 194.806C441.629 194.033 442.188 193.423 442.918 192.976C443.64 192.521 444.495 192.293 445.483 192.293C445.921 192.293 446.363 192.358 446.81 192.486C447.257 192.615 447.661 192.813 448.022 193.079C448.374 193.346 448.636 193.689 448.808 194.11C448.945 193.552 449.195 193.097 449.555 192.744C449.916 192.392 450.342 192.117 450.831 191.919C451.313 191.722 451.807 191.589 452.313 191.52C452.812 191.443 453.276 191.404 453.705 191.404C454.659 191.404 455.51 191.64 456.257 192.113C457.005 192.585 457.598 193.221 458.036 194.02C458.474 194.811 458.693 195.687 458.693 196.649L458.693 203.957ZM456 200.812L456 196.972C456 196.456 455.875 195.992 455.626 195.58C455.377 195.167 455.033 194.836 454.595 194.587C454.157 194.338 453.658 194.213 453.1 194.213C452.619 194.213 452.163 194.338 451.734 194.587C451.304 194.836 450.956 195.167 450.69 195.58C450.423 195.992 450.29 196.456 450.29 196.972L450.29 200.812L456 200.812ZM447.635 200.812L447.635 197.745C447.635 197.109 447.437 196.568 447.042 196.121C446.647 195.666 446.123 195.438 445.47 195.438C444.774 195.438 444.25 195.666 443.897 196.121C443.537 196.568 443.356 197.109 443.356 197.745L443.356 200.812L447.635 200.812Z" fill="#07074D"/>
<path d="M459.028 183.158C459.028 184.343 458.723 185.426 458.113 186.405C457.503 187.376 456.687 188.154 455.664 188.738C454.633 189.314 453.495 189.602 452.249 189.602C451.304 189.602 450.423 189.434 449.607 189.099C448.782 188.764 448.06 188.304 447.442 187.72C446.815 187.127 446.325 186.44 445.972 185.658C445.62 184.876 445.444 184.043 445.444 183.158C445.444 181.972 445.749 180.894 446.359 179.923C446.969 178.943 447.79 178.166 448.821 177.59C449.852 177.006 450.995 176.714 452.249 176.714C453.186 176.714 454.062 176.881 454.878 177.216C455.694 177.551 456.416 178.015 457.043 178.608C457.662 179.192 458.148 179.875 458.5 180.657C458.852 181.431 459.028 182.264 459.028 183.158ZM455.884 183.158C455.884 182.53 455.716 181.968 455.381 181.469C455.046 180.971 454.603 180.58 454.053 180.296C453.504 180.004 452.902 179.858 452.249 179.858C451.579 179.858 450.969 180.009 450.419 180.309C449.86 180.601 449.418 181.001 449.091 181.508C448.756 182.006 448.589 182.556 448.589 183.158C448.589 183.776 448.756 184.335 449.091 184.833C449.427 185.331 449.873 185.727 450.432 186.019C450.99 186.311 451.596 186.457 452.249 186.457C452.928 186.457 453.542 186.307 454.092 186.006C454.642 185.705 455.08 185.306 455.407 184.807C455.725 184.3 455.884 183.75 455.884 183.158Z" fill="#07074D"/>
<path d="M458.693 174.717L439.361 174.717L439.361 171.573L458.693 171.573L458.693 174.717Z" fill="#07074D"/>
<path d="M439.361 158.645L439.361 155.5L458.693 155.5L458.693 158.645L457.082 158.645C457.658 159.057 458.126 159.577 458.487 160.205C458.848 160.832 459.028 161.558 459.028 162.383C459.028 163.319 458.852 164.196 458.5 165.012C458.148 165.828 457.662 166.55 457.043 167.177C456.416 167.796 455.694 168.281 454.878 168.633C454.062 168.986 453.186 169.162 452.249 169.162C451.313 169.162 450.436 168.986 449.62 168.633C448.804 168.281 448.086 167.796 447.468 167.177C446.84 166.55 446.351 165.828 445.998 165.012C445.646 164.196 445.47 163.319 445.47 162.383C445.47 161.558 445.65 160.832 446.011 160.205C446.363 159.577 446.832 159.057 447.416 158.645L439.361 158.645ZM456 162.344C456 161.674 455.832 161.081 455.497 160.565C455.162 160.05 454.711 159.646 454.144 159.354C453.568 159.062 452.936 158.916 452.249 158.916C451.553 158.916 450.922 159.062 450.354 159.354C449.779 159.646 449.323 160.054 448.988 160.578C448.653 161.094 448.486 161.682 448.486 162.344C448.486 163.006 448.658 163.607 449.001 164.148C449.336 164.69 449.787 165.124 450.354 165.45C450.922 165.777 451.553 165.94 452.249 165.94C452.945 165.94 453.577 165.777 454.144 165.45C454.711 165.124 455.162 164.69 455.497 164.148C455.832 163.598 456 162.997 456 162.344Z" fill="#07074D"/>
<defs>
<filter id="filter0_d_1228_1695" x="498.813" y="46.3496" width="111.687" height="111.688" filterUnits="userSpaceOnUse" color-interpolation-filters="sRGB">
<feFlood flood-opacity="0" result="BackgroundImageFix"/>
<feColorMatrix in="SourceAlpha" type="matrix" values="0 0 0 0 0 0 0 0 0 0 0 0 0 0 0 0 0 0 127 0" result="hardAlpha"/>
<feOffset dy="4"/>
<feGaussianBlur stdDeviation="12.5"/>
<feColorMatrix type="matrix" values="0 0 0 0 0.306696 0 0 0 0 0.302795 0 0 0 0 0.445833 0 0 0 0.1 0"/>
<feBlend mode="normal" in2="BackgroundImageFix" result="effect1_dropShadow_1228_1695"/>
<feBlend mode="normal" in="SourceGraphic" in2="effect1_dropShadow_1228_1695" result="shape"/>
</filter>
<filter id="filter1_d_1228_1695" x="498.813" y="133.738" width="111.687" height="111.688" filterUnits="userSpaceOnUse" color-interpolation-filters="sRGB">
<feFlood flood-opacity="0" result="BackgroundImageFix"/>
<feColorMatrix in="SourceAlpha" type="matrix" values="0 0 0 0 0 0 0 0 0 0 0 0 0 0 0 0 0 0 127 0" result="hardAlpha"/>
<feOffset dy="4"/>
<feGaussianBlur stdDeviation="12.5"/>
<feColorMatrix type="matrix" values="0 0 0 0 0.306696 0 0 0 0 0.302795 0 0 0 0 0.445833 0 0 0 0.1 0"/>
<feBlend mode="normal" in2="BackgroundImageFix" result="effect1_dropShadow_1228_1695"/>
<feBlend mode="normal" in="SourceGraphic" in2="effect1_dropShadow_1228_1695" result="shape"/>
</filter>
<filter id="filter2_d_1228_1695" x="521.094" y="156.02" width="67.1283" height="67.1289" filterUnits="userSpaceOnUse" color-interpolation-filters="sRGB">
<feFlood flood-opacity="0" result="BackgroundImageFix"/>
<feColorMatrix in="SourceAlpha" type="matrix" values="0 0 0 0 0 0 0 0 0 0 0 0 0 0 0 0 0 0 127 0" result="hardAlpha"/>
<feOffset dy="4"/>
<feGaussianBlur stdDeviation="6.5"/>
<feComposite in2="hardAlpha" operator="out"/>
<feColorMatrix type="matrix" values="0 0 0 0 0 0 0 0 0 0 0 0 0 0 0 0 0 0 0.05 0"/>
<feBlend mode="normal" in2="BackgroundImageFix" result="effect1_dropShadow_1228_1695"/>
<feBlend mode="normal" in="SourceGraphic" in2="effect1_dropShadow_1228_1695" result="shape"/>
</filter>
<filter id="filter3_d_1228_1695" x="498.813" y="308.521" width="111.687" height="111.688" filterUnits="userSpaceOnUse" color-interpolation-filters="sRGB">
<feFlood flood-opacity="0" result="BackgroundImageFix"/>
<feColorMatrix in="SourceAlpha" type="matrix" values="0 0 0 0 0 0 0 0 0 0 0 0 0 0 0 0 0 0 127 0" result="hardAlpha"/>
<feOffset dy="4"/>
<feGaussianBlur stdDeviation="12.5"/>
<feColorMatrix type="matrix" values="0 0 0 0 0.306696 0 0 0 0 0.302795 0 0 0 0 0.445833 0 0 0 0.1 0"/>
<feBlend mode="normal" in2="BackgroundImageFix" result="effect1_dropShadow_1228_1695"/>
<feBlend mode="normal" in="SourceGraphic" in2="effect1_dropShadow_1228_1695" result="shape"/>
</filter>
<filter id="filter4_d_1228_1695" x="498.813" y="221.133" width="111.687" height="111.688" filterUnits="userSpaceOnUse" color-interpolation-filters="sRGB">
<feFlood flood-opacity="0" result="BackgroundImageFix"/>
<feColorMatrix in="SourceAlpha" type="matrix" values="0 0 0 0 0 0 0 0 0 0 0 0 0 0 0 0 0 0 127 0" result="hardAlpha"/>
<feOffset dy="4"/>
<feGaussianBlur stdDeviation="12.5"/>
<feColorMatrix type="matrix" values="0 0 0 0 0.306696 0 0 0 0 0.302795 0 0 0 0 0.445833 0 0 0 0.1 0"/>
<feBlend mode="normal" in2="BackgroundImageFix" result="effect1_dropShadow_1228_1695"/>
<feBlend mode="normal" in="SourceGraphic" in2="effect1_dropShadow_1228_1695" result="shape"/>
</filter>
<linearGradient id="paint0_linear_1228_1695" x1="534.094" y1="165.02" x2="575.223" y2="206.148" gradientUnits="userSpaceOnUse">
<stop stop-color="#1D91C2"/>
<stop offset="1" stop-color="#1FADF5"/>
</linearGradient>
<clipPath id="clip0_1228_1695">
<rect width="82.2496" height="82.2496" fill="white" transform="translate(235.939 355.227)"/>
</clipPath>
<clipPath id="clip1_1228_1695">
<rect width="19.6701" height="19.6701" fill="white" transform="translate(544.824 175.752)"/>
</clipPath>
<clipPath id="clip2_1228_1695">
<rect width="37.0123" height="37.0123" fill="white" transform="translate(536.15 341.859)"/>
</clipPath>
<clipPath id="clip3_1228_1695">
<rect width="34.9561" height="34.9561" fill="white" transform="translate(537.179 255.498)"/>
</clipPath>
</defs>
</svg>
