<svg width="40" height="40" viewBox="0 0 46 42" fill="none" xmlns="http://www.w3.org/2000/svg">
<path fill-rule="evenodd" clip-rule="evenodd" d="M28.497 0L7.665 7.917V12.621C3.822 12.894 0.357 15.666 0 15.96L2.037 16.485C8.19 18.081 7.686 28.602 7.623 29.757L24.864 42L45.108 35.007L45.276 10.29C45.276 10.29 34.965 4.053 28.497 0ZM9.891 28.686C10.017 26.124 9.891 18.48 4.893 15.351C5.712 15.078 6.636 14.91 7.644 14.847C10.689 14.595 16.065 15.183 23.898 19.194L23.94 38.661L9.891 28.686ZM38.157 31.458L35.553 28.959L32.298 33.348V22.092L38.157 19.74V31.458ZM25.095 17.346L11.235 8.904L28.266 2.415L41.769 10.689L25.095 17.346Z" fill="#686EF8"/>
<path d="M18.7841 28.0241C18.8524 28.0346 18.9154 28.0399 18.9836 28.0346C19.4141 28.0294 19.7501 27.8614 19.9969 27.5254C20.2541 27.1894 20.3854 26.7221 20.3906 26.1079C20.3959 25.4726 20.2699 24.8374 20.0231 24.1864C19.7869 23.5354 19.4561 22.9211 19.0256 22.3541C18.6004 21.7714 18.1226 21.3094 17.5976 20.9576L13.8281 18.4376L13.7441 28.6699L15.5029 29.8459L15.5344 26.1709L16.8784 27.0739L18.5689 31.8934L20.6846 33.3161L18.7841 28.0241ZM18.4376 25.6354C18.3484 25.7876 18.2171 25.8769 18.0439 25.8926C17.8811 25.8979 17.6869 25.8191 17.4716 25.6721L15.5501 24.3911L15.5711 21.5141L17.2669 22.6481C17.5346 22.8266 17.7656 23.0419 17.9704 23.3044C18.1699 23.5564 18.3221 23.8241 18.4271 24.1076C18.5321 24.4016 18.5794 24.6904 18.5741 24.9791C18.5741 25.2521 18.5321 25.4674 18.4376 25.6354Z" fill="#686EF8"/>
</svg>
