<svg width="40" height="40" viewBox="0 0 40 40" fill="none" xmlns="http://www.w3.org/2000/svg">
<path d="M38.4375 0H1.5625C0.687502 0 0 0.687502 0 1.5625V23.9375C0 24.8126 0.687502 25.5001 1.5625 25.5001H38.4375C39.3125 25.5001 40 24.8126 40 23.9375V1.5625C40 0.687502 39.3125 0 38.4375 0ZM36.8751 22.375H3.12502V3.12502H36.8751V22.375Z" fill="#0ED7B5"/>
<path d="M34.8751 30H5.12499C4.24998 30 3.5625 30.6875 3.5625 31.5626C3.5625 32.4376 4.24998 33.1251 5.12499 33.1251H34.8751C35.7501 33.1251 36.4376 32.4376 36.4376 31.5626C36.4376 30.6875 35.7501 30 34.8751 30Z" fill="#0ED7B5"/>
<path d="M34.8751 36.875H5.12499C4.24998 36.875 3.5625 37.5625 3.5625 38.4375C3.5625 39.3124 4.24998 39.9999 5.12499 39.9999H34.8751C35.7501 39.9999 36.4376 39.3124 36.4376 38.4375C36.4376 37.5625 35.7501 36.875 34.8751 36.875Z" fill="#0ED7B5"/>
<path fill-rule="evenodd" clip-rule="evenodd" d="M20 5.62549C16.8333 5.62549 14.8542 7.15325 14.0625 10.2088C15.25 8.68104 16.6354 8.10811 18.2188 8.49006C19.1221 8.70797 19.7678 9.34039 20.4826 10.0404C21.6468 11.1807 22.9944 12.5005 25.9375 12.5005C29.1042 12.5005 31.0833 10.9727 31.8752 7.91713C30.6875 9.44497 29.3022 10.0178 27.7188 9.63594C26.8154 9.41797 26.1697 8.78562 25.455 8.08557C24.2908 6.94526 22.9432 5.62549 20 5.62549ZM14.0625 12.5005C10.8958 12.5005 8.91664 14.0282 8.125 17.0838C9.31249 15.556 10.6979 14.9831 12.2812 15.365C13.1847 15.583 13.8303 16.2154 14.5451 16.9154C15.7093 18.0557 17.0568 19.3755 20 19.3755C23.1667 19.3755 25.1458 17.8477 25.9375 14.7921C24.75 16.3199 23.3646 16.8929 21.7813 16.5109C20.8779 16.293 20.2322 15.6606 19.5175 14.9606C18.3532 13.8203 17.0057 12.5005 14.0625 12.5005Z" fill="#0ED7B5"/>
</svg>
