<svg xmlns="http://www.w3.org/2000/svg" viewBox="0 0 22 28" fill="none">
    <path d="M9.74363 10.5452C7.6434 10.5447 5.54705 10.365 3.47737 10.0081C3.42026 9.9979 3.36574 9.97647 3.31696 9.94507C3.26818 9.91366 3.22611 9.87289 3.19318 9.82513C3.16025 9.77737 3.13711 9.72355 3.1251 9.6668C3.1131 9.61004 3.11246 9.55146 3.12323 9.49445L3.92225 5.19793C3.94361 5.08463 4.0087 4.98428 4.10344 4.91856C4.19818 4.85284 4.31497 4.82703 4.42857 4.84671C8.09051 5.46765 11.8329 5.4419 15.486 4.77061C16.5386 4.57557 17.5801 4.32449 18.6059 4.01843C18.7171 3.98516 18.837 3.99726 18.9393 4.05211C19.0416 4.10695 19.118 4.20008 19.1518 4.31111L20.4688 8.47886C20.4862 8.53429 20.4924 8.59262 20.4871 8.65047C20.4817 8.70831 20.4649 8.76451 20.4377 8.81583C20.4105 8.86715 20.3734 8.91255 20.3285 8.94941C20.2836 8.98627 20.2318 9.01385 20.1762 9.03056C18.9477 9.4002 17.7 9.7026 16.4387 9.9364C14.2302 10.3428 11.9892 10.5466 9.74363 10.5452Z" fill="#293FFF"/>
    <path d="M9.74367 18.9802C7.12008 18.9818 4.50137 18.7541 1.91744 18.2997C1.86033 18.2895 1.80581 18.2681 1.75703 18.2366C1.70825 18.2052 1.66617 18.1645 1.63324 18.1167C1.60031 18.069 1.57718 18.0151 1.56517 17.9584C1.55317 17.9016 1.55252 17.843 1.56329 17.786L2.36962 13.491C2.39097 13.3771 2.45648 13.2762 2.55188 13.2104C2.64728 13.1446 2.76483 13.1192 2.87889 13.1398C7.42167 13.9256 12.0657 13.9256 16.6085 13.1398C16.7225 13.1192 16.8401 13.1446 16.9355 13.2104C17.0309 13.2762 17.0964 13.3771 17.1177 13.491L17.9211 17.786C17.9319 17.843 17.9312 17.9016 17.9192 17.9584C17.9072 18.0151 17.8841 18.069 17.8512 18.1167C17.8182 18.1645 17.7762 18.2052 17.7274 18.2366C17.6786 18.2681 17.6241 18.2895 17.567 18.2997C14.984 18.754 12.3663 18.9817 9.74367 18.9802Z" fill="#1579FF"/>
    <path d="M9.30169 27.4137C6.30353 27.3893 3.31266 27.1142 0.360354 26.5913C0.303376 26.5809 0.249017 26.5594 0.200403 26.5279C0.151789 26.4964 0.109881 26.4556 0.0770985 26.4079C0.0443163 26.3601 0.0213007 26.3064 0.00938608 26.2497C-0.00252856 26.193 -0.0031029 26.1346 0.0076801 26.0777L0.809617 21.7826C0.830975 21.669 0.896275 21.5684 0.991345 21.5026C1.08641 21.4369 1.20358 21.4113 1.31741 21.4314C3.95504 21.8954 6.62658 22.1401 9.30462 22.1631C9.42106 22.1631 9.53273 22.2093 9.61506 22.2917C9.69739 22.374 9.74364 22.4857 9.74364 22.6021V26.9718C9.74403 27.0299 9.73286 27.0876 9.71079 27.1414C9.68872 27.1952 9.65618 27.244 9.61507 27.2852C9.57395 27.3263 9.52508 27.3588 9.47128 27.3809C9.41749 27.403 9.35984 27.4141 9.30169 27.4137Z" fill="#00B3FF"/>
</svg>