<svg width="328" height="373" viewBox="0 0 328 373" fill="none" xmlns="http://www.w3.org/2000/svg">
<rect width="328" height="373" rx="16" fill="white"/>
<rect width="280" height="24" transform="translate(24 12)" fill="white"/>
<rect x="24" y="19" width="10" height="10" rx="5" fill="#FA85A4"/>
<rect x="44" y="19" width="10" height="10" rx="5" fill="#FFE56E"/>
<rect x="64" y="19" width="10" height="10" rx="5" fill="#52E282"/>
<rect x="119" y="12" width="91" height="24" rx="12" fill="#F7F9FC"/>
<path d="M134.31 22.5455V23.3977H131.227V22.5455H134.31ZM132.072 28V21.9134C132.072 21.5724 132.147 21.2895 132.296 21.0646C132.445 20.8374 132.643 20.6681 132.889 20.5568C133.135 20.4432 133.403 20.3864 133.692 20.3864C133.905 20.3864 134.087 20.4041 134.239 20.4396C134.39 20.4728 134.503 20.5036 134.576 20.532L134.327 21.3913C134.278 21.3771 134.214 21.3606 134.136 21.3416C134.058 21.3203 133.963 21.3097 133.852 21.3097C133.594 21.3097 133.409 21.3736 133.298 21.5014C133.189 21.6293 133.134 21.8139 133.134 22.0554V28H132.072ZM137.488 28.1101C136.977 28.1101 136.53 27.9929 136.149 27.7585C135.768 27.5241 135.472 27.1963 135.261 26.7749C135.051 26.3535 134.945 25.861 134.945 25.2976C134.945 24.7318 135.051 24.237 135.261 23.8132C135.472 23.3894 135.768 23.0604 136.149 22.826C136.53 22.5916 136.977 22.4744 137.488 22.4744C137.999 22.4744 138.446 22.5916 138.827 22.826C139.208 23.0604 139.504 23.3894 139.714 23.8132C139.925 24.237 140.031 24.7318 140.031 25.2976C140.031 25.861 139.925 26.3535 139.714 26.7749C139.504 27.1963 139.208 27.5241 138.827 27.7585C138.446 27.9929 137.999 28.1101 137.488 28.1101ZM137.491 27.2188C137.823 27.2188 138.098 27.1312 138.315 26.956C138.533 26.7808 138.694 26.5476 138.798 26.2564C138.905 25.9652 138.958 25.6444 138.958 25.294C138.958 24.946 138.905 24.6264 138.798 24.3352C138.694 24.0417 138.533 23.8061 138.315 23.6286C138.098 23.451 137.823 23.3622 137.491 23.3622C137.158 23.3622 136.881 23.451 136.661 23.6286C136.443 23.8061 136.281 24.0417 136.174 24.3352C136.07 24.6264 136.018 24.946 136.018 25.294C136.018 25.6444 136.07 25.9652 136.174 26.2564C136.281 26.5476 136.443 26.7808 136.661 26.956C136.881 27.1312 137.158 27.2188 137.491 27.2188ZM141.216 28V22.5455H142.242V23.4119H142.299C142.398 23.1184 142.573 22.8875 142.824 22.7195C143.078 22.549 143.364 22.4638 143.684 22.4638C143.75 22.4638 143.828 22.4661 143.918 22.4709C144.01 22.4756 144.083 22.4815 144.135 22.4886V23.5043C144.092 23.4924 144.016 23.4794 143.907 23.4652C143.799 23.4486 143.69 23.4403 143.581 23.4403C143.33 23.4403 143.106 23.4936 142.91 23.6001C142.715 23.7043 142.562 23.8499 142.448 24.0369C142.334 24.2216 142.278 24.4323 142.278 24.669V28H141.216ZM145.054 28V22.5455H146.073V23.4332H146.14C146.254 23.1326 146.44 22.8982 146.698 22.7301C146.956 22.5597 147.265 22.4744 147.625 22.4744C147.989 22.4744 148.295 22.5597 148.541 22.7301C148.789 22.9006 148.973 23.1349 149.091 23.4332H149.148C149.278 23.142 149.485 22.91 149.77 22.7372C150.054 22.562 150.392 22.4744 150.785 22.4744C151.28 22.4744 151.684 22.6295 151.996 22.9396C152.311 23.2498 152.468 23.7173 152.468 24.3423V28H151.407V24.4418C151.407 24.0724 151.306 23.8049 151.105 23.6392C150.904 23.4735 150.663 23.3906 150.384 23.3906C150.038 23.3906 149.77 23.4972 149.578 23.7102C149.386 23.9209 149.29 24.192 149.29 24.5234V28H148.232V24.3743C148.232 24.0784 148.14 23.8404 147.955 23.6605C147.77 23.4806 147.53 23.3906 147.234 23.3906C147.033 23.3906 146.847 23.4439 146.676 23.5504C146.508 23.6546 146.372 23.8002 146.268 23.9872C146.166 24.1742 146.115 24.3909 146.115 24.6371V28H145.054ZM153.977 28V20.7273H155.039V23.4297H155.102C155.164 23.3161 155.253 23.1847 155.369 23.0355C155.485 22.8864 155.646 22.7562 155.852 22.6449C156.058 22.5312 156.33 22.4744 156.669 22.4744C157.109 22.4744 157.502 22.5857 157.847 22.8082C158.193 23.0308 158.464 23.3516 158.661 23.7706C158.86 24.1896 158.959 24.6939 158.959 25.2834C158.959 25.8729 158.861 26.3783 158.664 26.7997C158.468 27.2187 158.198 27.5419 157.855 27.7692C157.511 27.9941 157.119 28.1065 156.679 28.1065C156.348 28.1065 156.077 28.0509 155.866 27.9396C155.658 27.8284 155.494 27.6982 155.376 27.549C155.258 27.3999 155.166 27.2673 155.102 27.1513H155.014V28H153.977ZM155.017 25.2727C155.017 25.6562 155.073 25.9924 155.184 26.2812C155.295 26.5701 155.456 26.7962 155.667 26.9595C155.878 27.1205 156.136 27.201 156.441 27.201C156.758 27.201 157.024 27.117 157.237 26.9489C157.45 26.7784 157.611 26.5476 157.72 26.2564C157.831 25.9652 157.887 25.6373 157.887 25.2727C157.887 24.9129 157.832 24.5897 157.723 24.3033C157.617 24.0168 157.456 23.7907 157.24 23.625C157.027 23.4593 156.761 23.3764 156.441 23.3764C156.133 23.3764 155.873 23.4557 155.66 23.6143C155.449 23.773 155.289 23.9943 155.181 24.2784C155.072 24.5625 155.017 24.8939 155.017 25.2727ZM162.449 28.1101C161.938 28.1101 161.491 27.9929 161.11 27.7585C160.729 27.5241 160.433 27.1963 160.222 26.7749C160.012 26.3535 159.906 25.861 159.906 25.2976C159.906 24.7318 160.012 24.237 160.222 23.8132C160.433 23.3894 160.729 23.0604 161.11 22.826C161.491 22.5916 161.938 22.4744 162.449 22.4744C162.96 22.4744 163.406 22.5916 163.788 22.826C164.169 23.0604 164.465 23.3894 164.675 23.8132C164.886 24.237 164.991 24.7318 164.991 25.2976C164.991 25.861 164.886 26.3535 164.675 26.7749C164.465 27.1963 164.169 27.5241 163.788 27.7585C163.406 27.9929 162.96 28.1101 162.449 28.1101ZM162.452 27.2188C162.784 27.2188 163.058 27.1312 163.276 26.956C163.494 26.7808 163.655 26.5476 163.759 26.2564C163.866 25.9652 163.919 25.6444 163.919 25.294C163.919 24.946 163.866 24.6264 163.759 24.3352C163.655 24.0417 163.494 23.8061 163.276 23.6286C163.058 23.451 162.784 23.3622 162.452 23.3622C162.119 23.3622 161.842 23.451 161.621 23.6286C161.404 23.8061 161.241 24.0417 161.135 24.3352C161.031 24.6264 160.979 24.946 160.979 25.294C160.979 25.6444 161.031 25.9652 161.135 26.2564C161.241 26.5476 161.404 26.7808 161.621 26.956C161.842 27.1312 162.119 27.2188 162.452 27.2188ZM167.238 20.7273V28H166.177V20.7273H167.238ZM170.709 28.1065C170.268 28.1065 169.875 27.9941 169.53 27.7692C169.187 27.5419 168.917 27.2187 168.72 26.7997C168.526 26.3783 168.429 25.8729 168.429 25.2834C168.429 24.6939 168.527 24.1896 168.724 23.7706C168.923 23.3516 169.195 23.0308 169.54 22.8082C169.886 22.5857 170.278 22.4744 170.716 22.4744C171.054 22.4744 171.327 22.5312 171.533 22.6449C171.741 22.7562 171.902 22.8864 172.016 23.0355C172.132 23.1847 172.222 23.3161 172.286 23.4297H172.349V20.7273H173.411V28H172.374V27.1513H172.286C172.222 27.2673 172.129 27.3999 172.009 27.549C171.89 27.6982 171.727 27.8284 171.518 27.9396C171.31 28.0509 171.04 28.1065 170.709 28.1065ZM170.943 27.201C171.249 27.201 171.507 27.1205 171.717 26.9595C171.93 26.7962 172.091 26.5701 172.2 26.2812C172.312 25.9924 172.367 25.6562 172.367 25.2727C172.367 24.8939 172.313 24.5625 172.204 24.2784C172.095 23.9943 171.935 23.773 171.724 23.6143C171.514 23.4557 171.253 23.3764 170.943 23.3764C170.624 23.3764 170.357 23.4593 170.144 23.625C169.931 23.7907 169.77 24.0168 169.661 24.3033C169.555 24.5897 169.501 24.9129 169.501 25.2727C169.501 25.6373 169.556 25.9652 169.665 26.2564C169.774 26.5476 169.935 26.7784 170.148 26.9489C170.363 27.117 170.628 27.201 170.943 27.201ZM175.626 28.0675C175.432 28.0675 175.265 27.9988 175.126 27.8615C174.986 27.7218 174.916 27.5537 174.916 27.3572C174.916 27.1631 174.986 26.9974 175.126 26.8601C175.265 26.7204 175.432 26.6506 175.626 26.6506C175.82 26.6506 175.987 26.7204 176.127 26.8601C176.267 26.9974 176.336 27.1631 176.336 27.3572C176.336 27.4875 176.303 27.607 176.237 27.7159C176.173 27.8224 176.088 27.9077 175.981 27.9716C175.875 28.0355 175.756 28.0675 175.626 28.0675ZM180.056 28.1101C179.528 28.1101 179.074 27.9905 178.693 27.7514C178.314 27.5099 178.023 27.1773 177.819 26.7536C177.615 26.3298 177.514 25.8445 177.514 25.2976C177.514 24.7436 177.618 24.2547 177.826 23.831C178.035 23.4048 178.328 23.0722 178.707 22.8331C179.086 22.594 179.532 22.4744 180.046 22.4744C180.46 22.4744 180.829 22.5514 181.154 22.7053C181.478 22.8568 181.74 23.0698 181.938 23.3445C182.14 23.6191 182.259 23.9399 182.297 24.3068H181.264C181.207 24.0511 181.077 23.831 180.873 23.6463C180.672 23.4616 180.402 23.3693 180.063 23.3693C179.767 23.3693 179.508 23.4474 179.286 23.6037C179.066 23.7576 178.894 23.9777 178.771 24.2642C178.648 24.5483 178.586 24.8845 178.586 25.2727C178.586 25.6705 178.646 26.0137 178.767 26.3026C178.888 26.5914 179.058 26.8151 179.279 26.9737C179.501 27.1323 179.763 27.2116 180.063 27.2116C180.265 27.2116 180.447 27.175 180.61 27.1016C180.776 27.0258 180.914 26.9181 181.026 26.7784C181.139 26.6387 181.219 26.4706 181.264 26.2741H182.297C182.259 26.6269 182.144 26.9418 181.953 27.2188C181.761 27.4957 181.504 27.7135 181.182 27.8722C180.862 28.0308 180.487 28.1101 180.056 28.1101ZM185.73 28.1101C185.219 28.1101 184.772 27.9929 184.391 27.7585C184.01 27.5241 183.714 27.1963 183.504 26.7749C183.293 26.3535 183.188 25.861 183.188 25.2976C183.188 24.7318 183.293 24.237 183.504 23.8132C183.714 23.3894 184.01 23.0604 184.391 22.826C184.772 22.5916 185.219 22.4744 185.73 22.4744C186.241 22.4744 186.688 22.5916 187.069 22.826C187.45 23.0604 187.746 23.3894 187.957 23.8132C188.167 24.237 188.273 24.7318 188.273 25.2976C188.273 25.861 188.167 26.3535 187.957 26.7749C187.746 27.1963 187.45 27.5241 187.069 27.7585C186.688 27.9929 186.241 28.1101 185.73 28.1101ZM185.734 27.2188C186.065 27.2188 186.34 27.1312 186.558 26.956C186.775 26.7808 186.936 26.5476 187.04 26.2564C187.147 25.9652 187.2 25.6444 187.2 25.294C187.2 24.946 187.147 24.6264 187.04 24.3352C186.936 24.0417 186.775 23.8061 186.558 23.6286C186.34 23.451 186.065 23.3622 185.734 23.3622C185.4 23.3622 185.123 23.451 184.903 23.6286C184.685 23.8061 184.523 24.0417 184.416 24.3352C184.312 24.6264 184.26 24.946 184.26 25.294C184.26 25.6444 184.312 25.9652 184.416 26.2564C184.523 26.5476 184.685 26.7808 184.903 26.956C185.123 27.1312 185.4 27.2188 185.734 27.2188ZM189.458 28V22.5455H190.477V23.4332H190.545C190.658 23.1326 190.844 22.8982 191.102 22.7301C191.36 22.5597 191.669 22.4744 192.029 22.4744C192.394 22.4744 192.699 22.5597 192.945 22.7301C193.194 22.9006 193.377 23.1349 193.496 23.4332H193.552C193.683 23.142 193.89 22.91 194.174 22.7372C194.458 22.562 194.796 22.4744 195.189 22.4744C195.684 22.4744 196.088 22.6295 196.4 22.9396C196.715 23.2498 196.873 23.7173 196.873 24.3423V28H195.811V24.4418C195.811 24.0724 195.71 23.8049 195.509 23.6392C195.308 23.4735 195.068 23.3906 194.788 23.3906C194.443 23.3906 194.174 23.4972 193.982 23.7102C193.79 23.9209 193.694 24.192 193.694 24.5234V28H192.636V24.3743C192.636 24.0784 192.544 23.8404 192.359 23.6605C192.175 23.4806 191.934 23.3906 191.638 23.3906C191.437 23.3906 191.251 23.4439 191.081 23.5504C190.913 23.6546 190.777 23.8002 190.672 23.9872C190.571 24.1742 190.52 24.3909 190.52 24.6371V28H189.458Z" fill="#6C6F93"/>
<path d="M25.0568 75V66.2727H30.3239V67.2102H26.1136V70.1591H30.0511V71.0966H26.1136V74.0625H30.392V75H25.0568ZM31.9723 75V68.4545H32.9439V69.4773H33.0291C33.1655 69.1278 33.3857 68.8565 33.6897 68.6634C33.9936 68.4673 34.3587 68.3693 34.7848 68.3693C35.2166 68.3693 35.576 68.4673 35.863 68.6634C36.1527 68.8565 36.3786 69.1278 36.5405 69.4773H36.6087C36.7763 69.1392 37.0277 68.8707 37.363 68.6719C37.6982 68.4702 38.1002 68.3693 38.5689 68.3693C39.1541 68.3693 39.6328 68.5526 40.005 68.919C40.3772 69.2827 40.5632 69.8494 40.5632 70.6193V75H39.5576V70.6193C39.5576 70.1364 39.4255 69.7912 39.1613 69.5838C38.897 69.3764 38.586 69.2727 38.228 69.2727C37.7678 69.2727 37.4113 69.4119 37.1584 69.6903C36.9056 69.9659 36.7791 70.3153 36.7791 70.7386V75H35.7564V70.517C35.7564 70.1449 35.6357 69.8452 35.3942 69.6179C35.1527 69.3878 34.8416 69.2727 34.461 69.2727C34.1996 69.2727 33.9553 69.3423 33.728 69.4815C33.5036 69.6207 33.3218 69.8139 33.1826 70.0611C33.0462 70.3054 32.978 70.5881 32.978 70.9091V75H31.9723ZM44.2082 75.1534C43.7934 75.1534 43.417 75.0753 43.0789 74.919C42.7408 74.7599 42.4724 74.5312 42.2735 74.233C42.0746 73.9318 41.9752 73.5682 41.9752 73.142C41.9752 72.767 42.0491 72.4631 42.1968 72.2301C42.3445 71.9943 42.542 71.8097 42.7891 71.6761C43.0363 71.5426 43.309 71.4432 43.6073 71.3778C43.9084 71.3097 44.211 71.2557 44.515 71.2159C44.9127 71.1648 45.2351 71.1264 45.4823 71.1009C45.7323 71.0724 45.9141 71.0256 46.0278 70.9602C46.1442 70.8949 46.2025 70.7812 46.2025 70.6193V70.5852C46.2025 70.1648 46.0874 69.8381 45.8573 69.6051C45.63 69.3722 45.2849 69.2557 44.8218 69.2557C44.3417 69.2557 43.9653 69.3608 43.6925 69.571C43.4198 69.7812 43.228 70.0057 43.1172 70.2443L42.1627 69.9034C42.3332 69.5057 42.5604 69.196 42.8445 68.9744C43.1314 68.75 43.4439 68.5937 43.782 68.5057C44.1229 68.4148 44.4582 68.3693 44.7877 68.3693C44.9979 68.3693 45.2394 68.3949 45.5121 68.446C45.7877 68.4943 46.0533 68.5952 46.309 68.7486C46.5675 68.902 46.782 69.1335 46.9525 69.4432C47.1229 69.7528 47.2082 70.1676 47.2082 70.6875V75H46.2025V74.1136H46.1513C46.0832 74.2557 45.9695 74.4077 45.8104 74.5696C45.6513 74.7315 45.4397 74.8693 45.1755 74.983C44.9113 75.0966 44.5888 75.1534 44.2082 75.1534ZM44.3616 74.25C44.7593 74.25 45.0945 74.1719 45.3672 74.0156C45.6428 73.8594 45.8502 73.6577 45.9894 73.4105C46.1314 73.1634 46.2025 72.9034 46.2025 72.6307V71.7102C46.1599 71.7614 46.0661 71.8082 45.9212 71.8509C45.7792 71.8906 45.6144 71.9261 45.4269 71.9574C45.2422 71.9858 45.0618 72.0114 44.8857 72.0341C44.7124 72.054 44.5718 72.071 44.4638 72.0852C44.2025 72.1193 43.9582 72.1747 43.7309 72.2514C43.5064 72.3253 43.3246 72.4375 43.1854 72.5881C43.0491 72.7358 42.9809 72.9375 42.9809 73.1932C42.9809 73.5426 43.1101 73.8068 43.3687 73.9858C43.63 74.1619 43.961 74.25 44.3616 74.25ZM48.9237 75V68.4545H49.9294V75H48.9237ZM49.4351 67.3636C49.2391 67.3636 49.07 67.2969 48.928 67.1634C48.7888 67.0298 48.7192 66.8693 48.7192 66.6818C48.7192 66.4943 48.7888 66.3338 48.928 66.2003C49.07 66.0668 49.2391 66 49.4351 66C49.6311 66 49.7987 66.0668 49.9379 66.2003C50.08 66.3338 50.151 66.4943 50.151 66.6818C50.151 66.8693 50.08 67.0298 49.9379 67.1634C49.7987 67.2969 49.6311 67.3636 49.4351 67.3636ZM52.6571 66.2727V75H51.6514V66.2727H52.6571Z" fill="#0E0B3D"/>
<rect x="24" y="84" width="280" height="32" rx="6" fill="#F7F9FC"/>
<g clip-path="url(#clip0_198_10199)">
<path d="M39.6648 104.636C39.0341 104.636 38.4901 104.497 38.0327 104.219C37.5781 103.938 37.2273 103.545 36.9801 103.043C36.7358 102.537 36.6136 101.949 36.6136 101.278C36.6136 100.608 36.7358 100.017 36.9801 99.5057C37.2273 98.9915 37.571 98.5909 38.0114 98.304C38.4545 98.0142 38.9716 97.8693 39.5625 97.8693C39.9034 97.8693 40.2401 97.9261 40.5724 98.0398C40.9048 98.1534 41.2074 98.3381 41.4801 98.5938C41.7528 98.8466 41.9702 99.1818 42.1321 99.5994C42.294 100.017 42.375 100.531 42.375 101.142V101.568H37.3295V100.699H41.3523C41.3523 100.33 41.2784 100 41.1307 99.7102C40.9858 99.4205 40.7784 99.1918 40.5085 99.0241C40.2415 98.8565 39.9261 98.7727 39.5625 98.7727C39.1619 98.7727 38.8153 98.8722 38.5227 99.071C38.233 99.267 38.0099 99.5227 37.8537 99.8381C37.6974 100.153 37.6193 100.491 37.6193 100.852V101.432C37.6193 101.926 37.7045 102.345 37.875 102.689C38.0483 103.03 38.2884 103.29 38.5952 103.469C38.902 103.645 39.2585 103.733 39.6648 103.733C39.929 103.733 40.1676 103.696 40.3807 103.622C40.5966 103.545 40.7827 103.432 40.9389 103.281C41.0952 103.128 41.2159 102.937 41.3011 102.71L42.2727 102.983C42.1705 103.312 41.9986 103.602 41.7571 103.852C41.5156 104.099 41.2173 104.293 40.8622 104.432C40.5071 104.568 40.108 104.636 39.6648 104.636ZM44.359 97.9545L45.9272 100.631L47.4954 97.9545H48.6545L46.5409 101.227L48.6545 104.5H47.4954L45.9272 101.96L44.359 104.5H43.2L45.2795 101.227L43.2 97.9545H44.359ZM51.8957 104.653C51.4809 104.653 51.1045 104.575 50.7664 104.419C50.4283 104.26 50.1599 104.031 49.961 103.733C49.7621 103.432 49.6627 103.068 49.6627 102.642C49.6627 102.267 49.7366 101.963 49.8843 101.73C50.032 101.494 50.2295 101.31 50.4766 101.176C50.7238 101.043 50.9965 100.943 51.2948 100.878C51.5959 100.81 51.8985 100.756 52.2025 100.716C52.6002 100.665 52.9226 100.626 53.1698 100.601C53.4198 100.572 53.6016 100.526 53.7153 100.46C53.8317 100.395 53.89 100.281 53.89 100.119V100.085C53.89 99.6648 53.7749 99.3381 53.5448 99.1051C53.3175 98.8722 52.9724 98.7557 52.5093 98.7557C52.0292 98.7557 51.6528 98.8608 51.38 99.071C51.1073 99.2812 50.9155 99.5057 50.8047 99.7443L49.8502 99.4034C50.0207 99.0057 50.2479 98.696 50.532 98.4744C50.8189 98.25 51.1314 98.0937 51.4695 98.0057C51.8104 97.9148 52.1457 97.8693 52.4752 97.8693C52.6854 97.8693 52.9269 97.8949 53.1996 97.946C53.4752 97.9943 53.7408 98.0952 53.9965 98.2486C54.255 98.402 54.4695 98.6335 54.64 98.9432C54.8104 99.2528 54.8957 99.6676 54.8957 100.188V104.5H53.89V103.614H53.8388C53.7707 103.756 53.657 103.908 53.4979 104.07C53.3388 104.232 53.1272 104.369 52.863 104.483C52.5988 104.597 52.2763 104.653 51.8957 104.653ZM52.0491 103.75C52.4468 103.75 52.782 103.672 53.0547 103.516C53.3303 103.359 53.5377 103.158 53.6769 102.911C53.8189 102.663 53.89 102.403 53.89 102.131V101.21C53.8474 101.261 53.7536 101.308 53.6087 101.351C53.4667 101.391 53.3019 101.426 53.1144 101.457C52.9297 101.486 52.7493 101.511 52.5732 101.534C52.3999 101.554 52.2593 101.571 52.1513 101.585C51.89 101.619 51.6457 101.675 51.4184 101.751C51.1939 101.825 51.0121 101.937 50.8729 102.088C50.7366 102.236 50.6684 102.437 50.6684 102.693C50.6684 103.043 50.7976 103.307 51.0562 103.486C51.3175 103.662 51.6485 103.75 52.0491 103.75ZM56.6112 104.5V97.9545H57.5828V98.9773H57.6681C57.8044 98.6278 58.0246 98.3565 58.3286 98.1634C58.6325 97.9673 58.9976 97.8693 59.4237 97.8693C59.8556 97.8693 60.2149 97.9673 60.5019 98.1634C60.7916 98.3565 61.0175 98.6278 61.1794 98.9773H61.2476C61.4152 98.6392 61.6666 98.3707 62.0019 98.1719C62.3371 97.9702 62.7391 97.8693 63.2078 97.8693C63.7931 97.8693 64.2717 98.0526 64.6439 98.419C65.0161 98.7827 65.2021 99.3494 65.2021 100.119V104.5H64.1965V100.119C64.1965 99.6364 64.0644 99.2912 63.8002 99.0838C63.536 98.8764 63.2249 98.7727 62.8669 98.7727C62.4067 98.7727 62.0502 98.9119 61.7973 99.1903C61.5445 99.4659 61.4181 99.8153 61.4181 100.239V104.5H60.3953V100.017C60.3953 99.6449 60.2746 99.3452 60.0331 99.1179C59.7916 98.8878 59.4806 98.7727 59.0999 98.7727C58.8385 98.7727 58.5942 98.8423 58.3669 98.9815C58.1425 99.1207 57.9607 99.3139 57.8215 99.5611C57.6851 99.8054 57.6169 100.088 57.6169 100.409V104.5H56.6112ZM66.9209 106.955V97.9545H67.8925V98.9943H68.0118C68.0857 98.8807 68.188 98.7358 68.3187 98.5597C68.4522 98.3807 68.6425 98.2216 68.8897 98.0824C69.1397 97.9403 69.4777 97.8693 69.9039 97.8693C70.455 97.8693 70.9408 98.0071 71.3613 98.2827C71.7817 98.5582 72.1098 98.9489 72.3456 99.4545C72.5814 99.9602 72.6993 100.557 72.6993 101.244C72.6993 101.938 72.5814 102.538 72.3456 103.047C72.1098 103.553 71.7831 103.945 71.3655 104.223C70.9479 104.499 70.4664 104.636 69.9209 104.636C69.5005 104.636 69.1638 104.567 68.911 104.428C68.6581 104.286 68.4635 104.125 68.3272 103.946C68.1908 103.764 68.0857 103.614 68.0118 103.494H67.9266V106.955H66.9209ZM67.9096 101.227C67.9096 101.722 67.982 102.158 68.1269 102.536C68.2718 102.911 68.4834 103.205 68.7618 103.418C69.0402 103.628 69.3812 103.733 69.7846 103.733C70.205 103.733 70.5559 103.622 70.8371 103.401C71.1212 103.176 71.3343 102.875 71.4763 102.497C71.6212 102.116 71.6937 101.693 71.6937 101.227C71.6937 100.767 71.6226 100.352 71.4806 99.983C71.3414 99.6108 71.1297 99.3168 70.8456 99.1009C70.5644 98.8821 70.2107 98.7727 69.7846 98.7727C69.3755 98.7727 69.0317 98.8764 68.7533 99.0838C68.4749 99.2884 68.2647 99.5753 68.1226 99.9446C67.9806 100.311 67.9096 100.739 67.9096 101.227ZM75.1191 95.7727V104.5H74.1134V95.7727H75.1191ZM79.5854 104.636C78.9547 104.636 78.4107 104.497 77.9533 104.219C77.4987 103.938 77.1479 103.545 76.9007 103.043C76.6564 102.537 76.5343 101.949 76.5343 101.278C76.5343 100.608 76.6564 100.017 76.9007 99.5057C77.1479 98.9915 77.4916 98.5909 77.932 98.304C78.3752 98.0142 78.8922 97.8693 79.4831 97.8693C79.824 97.8693 80.1607 97.9261 80.4931 98.0398C80.8255 98.1534 81.128 98.3381 81.4007 98.5938C81.6735 98.8466 81.8908 99.1818 82.0527 99.5994C82.2147 100.017 82.2956 100.531 82.2956 101.142V101.568H77.2502V100.699H81.2729C81.2729 100.33 81.199 100 81.0513 99.7102C80.9064 99.4205 80.699 99.1918 80.4291 99.0241C80.1621 98.8565 79.8468 98.7727 79.4831 98.7727C79.0826 98.7727 78.736 98.8722 78.4434 99.071C78.1536 99.267 77.9306 99.5227 77.7743 99.8381C77.6181 100.153 77.5399 100.491 77.5399 100.852V101.432C77.5399 101.926 77.6252 102.345 77.7956 102.689C77.9689 103.03 78.209 103.29 78.5158 103.469C78.8226 103.645 79.1791 103.733 79.5854 103.733C79.8496 103.733 80.0882 103.696 80.3013 103.622C80.5172 103.545 80.7033 103.432 80.8595 103.281C81.0158 103.128 81.1365 102.937 81.2218 102.71L82.1934 102.983C82.0911 103.312 81.9192 103.602 81.6777 103.852C81.4362 104.099 81.138 104.293 80.7828 104.432C80.4277 104.568 80.0286 104.636 79.5854 104.636ZM88.7339 106.801C87.8645 106.801 87.0961 106.682 86.4285 106.443C85.7609 106.207 85.1998 105.859 84.7452 105.399C84.2907 104.939 83.9469 104.375 83.714 103.707C83.481 103.04 83.3645 102.276 83.3645 101.415C83.3645 100.582 83.4824 99.8381 83.7182 99.1818C83.9569 98.5256 84.302 97.9688 84.7537 97.5114C85.2083 97.0511 85.7594 96.7003 86.4072 96.4588C87.0577 96.2173 87.7935 96.0966 88.6145 96.0966C89.4128 96.0966 90.1117 96.2273 90.7111 96.4886C91.3134 96.7472 91.8163 97.098 92.2197 97.5412C92.6259 97.9815 92.9299 98.4773 93.1316 99.0284C93.3361 99.5795 93.4384 100.148 93.4384 100.733C93.4384 101.145 93.4185 101.562 93.3787 101.986C93.339 102.409 93.2552 102.798 93.1273 103.153C92.9995 103.506 92.802 103.79 92.535 104.006C92.2708 104.222 91.9128 104.33 91.4611 104.33C91.2623 104.33 91.0435 104.298 90.8049 104.236C90.5662 104.173 90.3546 104.07 90.1699 103.925C89.9853 103.78 89.8759 103.585 89.8418 103.341H89.7907C89.7225 103.506 89.6174 103.662 89.4753 103.81C89.3361 103.957 89.1529 104.075 88.9256 104.163C88.7012 104.251 88.427 104.29 88.1032 104.278C87.7339 104.264 87.4086 104.182 87.1273 104.031C86.8461 103.878 86.6103 103.67 86.4199 103.409C86.2324 103.145 86.0904 102.839 85.9938 102.493C85.9001 102.143 85.8532 101.767 85.8532 101.364C85.8532 100.98 85.91 100.629 86.0236 100.311C86.1373 99.9929 86.2949 99.7145 86.4966 99.4759C86.7012 99.2372 86.9398 99.0469 87.2126 98.9048C87.4881 98.7599 87.785 98.6705 88.1032 98.6364C88.3873 98.608 88.6458 98.6207 88.8787 98.6747C89.1117 98.7259 89.3035 98.804 89.454 98.9091C89.6046 99.0114 89.6998 99.125 89.7395 99.25H89.7907V98.7727H90.6941V102.625C90.6941 102.864 90.7609 103.074 90.8944 103.256C91.0279 103.437 91.2225 103.528 91.4782 103.528C91.768 103.528 91.9895 103.429 92.143 103.23C92.2992 103.031 92.4057 102.724 92.4626 102.31C92.5222 101.895 92.552 101.364 92.552 100.716C92.552 100.335 92.4995 99.9602 92.3944 99.5909C92.2921 99.2187 92.1359 98.8707 91.9256 98.5469C91.7182 98.223 91.4555 97.9375 91.1373 97.6903C90.8191 97.4432 90.4455 97.25 90.0165 97.1108C89.5904 96.9687 89.106 96.8977 88.5634 96.8977C87.8958 96.8977 87.2978 97.0014 86.7694 97.2088C86.2438 97.4134 85.7964 97.7131 85.427 98.108C85.0606 98.5 84.7807 98.9773 84.5876 99.5398C84.3972 100.099 84.302 100.736 84.302 101.449C84.302 102.173 84.3972 102.817 84.5876 103.379C84.7807 103.942 85.0648 104.416 85.4398 104.803C85.8177 105.189 86.285 105.482 86.8418 105.68C87.3986 105.882 88.0407 105.983 88.768 105.983C89.0805 105.983 89.3887 105.953 89.6927 105.893C89.9966 105.834 90.2651 105.768 90.4981 105.697C90.731 105.626 90.8986 105.574 91.0009 105.54L91.2395 106.324C91.0634 106.398 90.8333 106.472 90.5492 106.545C90.268 106.619 89.9668 106.68 89.6458 106.729C89.3276 106.777 89.0236 106.801 88.7339 106.801ZM88.2395 103.409C88.6202 103.409 88.9285 103.332 89.1643 103.179C89.4001 103.026 89.5719 102.794 89.6799 102.484C89.7878 102.175 89.8418 101.784 89.8418 101.312C89.8418 100.835 89.7822 100.463 89.6628 100.196C89.5435 99.929 89.3674 99.7415 89.1344 99.6335C88.9015 99.5256 88.6145 99.4716 88.2736 99.4716C87.9498 99.4716 87.6728 99.5568 87.4427 99.7273C87.2154 99.8949 87.0407 100.119 86.9185 100.401C86.7992 100.679 86.7395 100.983 86.7395 101.312C86.7395 101.676 86.7878 102.018 86.8844 102.339C86.981 102.658 87.1387 102.916 87.3574 103.115C87.5762 103.311 87.8702 103.409 88.2395 103.409ZM97.4658 107.091C96.98 107.091 96.5624 107.028 96.2129 106.903C95.8635 106.781 95.5723 106.619 95.3394 106.418C95.1092 106.219 94.926 106.006 94.7896 105.778L95.5908 105.216C95.6817 105.335 95.7967 105.472 95.936 105.625C96.0752 105.781 96.2655 105.916 96.507 106.03C96.7513 106.146 97.0709 106.205 97.4658 106.205C97.9942 106.205 98.4303 106.077 98.774 105.821C99.1178 105.565 99.2896 105.165 99.2896 104.619V103.29H99.2044C99.1306 103.409 99.0254 103.557 98.8891 103.733C98.7556 103.906 98.5624 104.061 98.3095 104.197C98.0595 104.331 97.7215 104.398 97.2953 104.398C96.7669 104.398 96.2925 104.273 95.872 104.023C95.4544 103.773 95.1235 103.409 94.8791 102.932C94.6377 102.455 94.5169 101.875 94.5169 101.193C94.5169 100.523 94.6348 99.9389 94.8706 99.4418C95.1064 98.9418 95.4345 98.5554 95.855 98.2827C96.2754 98.0071 96.7612 97.8693 97.3124 97.8693C97.7385 97.8693 98.0766 97.9403 98.3266 98.0824C98.5794 98.2216 98.7726 98.3807 98.9061 98.5597C99.0425 98.7358 99.1476 98.8807 99.2215 98.9943H99.3237V97.9545H100.295V104.688C100.295 105.25 100.167 105.707 99.9118 106.06C99.659 106.415 99.3181 106.675 98.8891 106.839C98.4629 107.007 97.9885 107.091 97.4658 107.091ZM97.4317 103.494C97.8351 103.494 98.176 103.402 98.4544 103.217C98.7328 103.033 98.9445 102.767 99.0894 102.42C99.2342 102.074 99.3067 101.659 99.3067 101.176C99.3067 100.705 99.2357 100.288 99.0936 99.9276C98.9516 99.5668 98.7414 99.2841 98.4629 99.0795C98.1845 98.875 97.8408 98.7727 97.4317 98.7727C97.0056 98.7727 96.6504 98.8807 96.3664 99.0966C96.0851 99.3125 95.8735 99.6023 95.7314 99.9659C95.5922 100.33 95.5226 100.733 95.5226 101.176C95.5226 101.631 95.5936 102.033 95.7357 102.382C95.8806 102.729 96.0936 103.001 96.3749 103.2C96.659 103.396 97.0112 103.494 97.4317 103.494ZM102.016 104.5V97.9545H102.988V98.9773H103.073C103.209 98.6278 103.43 98.3565 103.734 98.1634C104.038 97.9673 104.403 97.8693 104.829 97.8693C105.261 97.8693 105.62 97.9673 105.907 98.1634C106.197 98.3565 106.422 98.6278 106.584 98.9773H106.653C106.82 98.6392 107.072 98.3707 107.407 98.1719C107.742 97.9702 108.144 97.8693 108.613 97.8693C109.198 97.8693 109.677 98.0526 110.049 98.419C110.421 98.7827 110.607 99.3494 110.607 100.119V104.5H109.601V100.119C109.601 99.6364 109.469 99.2912 109.205 99.0838C108.941 98.8764 108.63 98.7727 108.272 98.7727C107.812 98.7727 107.455 98.9119 107.202 99.1903C106.949 99.4659 106.823 99.8153 106.823 100.239V104.5H105.8V100.017C105.8 99.6449 105.68 99.3452 105.438 99.1179C105.197 98.8878 104.886 98.7727 104.505 98.7727C104.244 98.7727 103.999 98.8423 103.772 98.9815C103.547 99.1207 103.366 99.3139 103.226 99.5611C103.09 99.8054 103.022 100.088 103.022 100.409V104.5H102.016ZM114.252 104.653C113.837 104.653 113.461 104.575 113.123 104.419C112.785 104.26 112.516 104.031 112.317 103.733C112.119 103.432 112.019 103.068 112.019 102.642C112.019 102.267 112.093 101.963 112.241 101.73C112.388 101.494 112.586 101.31 112.833 101.176C113.08 101.043 113.353 100.943 113.651 100.878C113.952 100.81 114.255 100.756 114.559 100.716C114.957 100.665 115.279 100.626 115.526 100.601C115.776 100.572 115.958 100.526 116.072 100.46C116.188 100.395 116.246 100.281 116.246 100.119V100.085C116.246 99.6648 116.131 99.3381 115.901 99.1051C115.674 98.8722 115.329 98.7557 114.866 98.7557C114.386 98.7557 114.009 98.8608 113.736 99.071C113.464 99.2812 113.272 99.5057 113.161 99.7443L112.207 99.4034C112.377 99.0057 112.604 98.696 112.888 98.4744C113.175 98.25 113.488 98.0937 113.826 98.0057C114.167 97.9148 114.502 97.8693 114.832 97.8693C115.042 97.8693 115.283 97.8949 115.556 97.946C115.832 97.9943 116.097 98.0952 116.353 98.2486C116.611 98.402 116.826 98.6335 116.996 98.9432C117.167 99.2528 117.252 99.6676 117.252 100.188V104.5H116.246V103.614H116.195C116.127 103.756 116.013 103.908 115.854 104.07C115.695 104.232 115.484 104.369 115.219 104.483C114.955 104.597 114.633 104.653 114.252 104.653ZM114.405 103.75C114.803 103.75 115.138 103.672 115.411 103.516C115.687 103.359 115.894 103.158 116.033 102.911C116.175 102.663 116.246 102.403 116.246 102.131V101.21C116.204 101.261 116.11 101.308 115.965 101.351C115.823 101.391 115.658 101.426 115.471 101.457C115.286 101.486 115.106 101.511 114.93 101.534C114.756 101.554 114.616 101.571 114.508 101.585C114.246 101.619 114.002 101.675 113.775 101.751C113.55 101.825 113.369 101.937 113.229 102.088C113.093 102.236 113.025 102.437 113.025 102.693C113.025 103.043 113.154 103.307 113.413 103.486C113.674 103.662 114.005 103.75 114.405 103.75ZM118.968 104.5V97.9545H119.973V104.5H118.968ZM119.479 96.8636C119.283 96.8636 119.114 96.7969 118.972 96.6634C118.833 96.5298 118.763 96.3693 118.763 96.1818C118.763 95.9943 118.833 95.8338 118.972 95.7003C119.114 95.5668 119.283 95.5 119.479 95.5C119.675 95.5 119.843 95.5668 119.982 95.7003C120.124 95.8338 120.195 95.9943 120.195 96.1818C120.195 96.3693 120.124 96.5298 119.982 96.6634C119.843 96.7969 119.675 96.8636 119.479 96.8636ZM122.701 95.7727V104.5H121.695V95.7727H122.701ZM125.156 104.568C124.946 104.568 124.765 104.493 124.615 104.342C124.464 104.192 124.389 104.011 124.389 103.801C124.389 103.591 124.464 103.411 124.615 103.26C124.765 103.109 124.946 103.034 125.156 103.034C125.366 103.034 125.547 103.109 125.697 103.26C125.848 103.411 125.923 103.591 125.923 103.801C125.923 103.94 125.887 104.068 125.816 104.185C125.748 104.301 125.656 104.395 125.539 104.466C125.426 104.534 125.298 104.568 125.156 104.568ZM130.267 104.636C129.653 104.636 129.125 104.491 128.682 104.202C128.238 103.912 127.897 103.513 127.659 103.004C127.42 102.496 127.301 101.915 127.301 101.261C127.301 100.597 127.423 100.01 127.667 99.5014C127.914 98.9901 128.258 98.5909 128.699 98.304C129.142 98.0142 129.659 97.8693 130.25 97.8693C130.71 97.8693 131.125 97.9545 131.494 98.125C131.863 98.2955 132.166 98.5341 132.402 98.8409C132.637 99.1477 132.784 99.5057 132.841 99.9148H131.835C131.758 99.6165 131.588 99.3523 131.324 99.1222C131.062 98.8892 130.71 98.7727 130.267 98.7727C129.875 98.7727 129.531 98.875 129.235 99.0795C128.943 99.2812 128.714 99.5668 128.549 99.9361C128.387 100.303 128.307 100.733 128.307 101.227C128.307 101.733 128.386 102.173 128.545 102.548C128.707 102.923 128.934 103.214 129.227 103.422C129.522 103.629 129.869 103.733 130.267 103.733C130.528 103.733 130.765 103.688 130.978 103.597C131.191 103.506 131.372 103.375 131.52 103.205C131.667 103.034 131.772 102.83 131.835 102.591H132.841C132.784 102.977 132.643 103.325 132.419 103.635C132.197 103.942 131.903 104.186 131.537 104.368C131.173 104.547 130.75 104.636 130.267 104.636ZM136.85 104.636C136.259 104.636 135.74 104.496 135.294 104.214C134.851 103.933 134.505 103.54 134.255 103.034C134.008 102.528 133.884 101.937 133.884 101.261C133.884 100.58 134.008 99.9844 134.255 99.4759C134.505 98.9673 134.851 98.5724 135.294 98.2912C135.74 98.0099 136.259 97.8693 136.85 97.8693C137.441 97.8693 137.958 98.0099 138.401 98.2912C138.847 98.5724 139.194 98.9673 139.441 99.4759C139.691 99.9844 139.816 100.58 139.816 101.261C139.816 101.937 139.691 102.528 139.441 103.034C139.194 103.54 138.847 103.933 138.401 104.214C137.958 104.496 137.441 104.636 136.85 104.636ZM136.85 103.733C137.299 103.733 137.668 103.618 137.958 103.388C138.248 103.158 138.462 102.855 138.601 102.48C138.74 102.105 138.81 101.699 138.81 101.261C138.81 100.824 138.74 100.416 138.601 100.038C138.462 99.6605 138.248 99.3551 137.958 99.1222C137.668 98.8892 137.299 98.7727 136.85 98.7727C136.401 98.7727 136.032 98.8892 135.742 99.1222C135.452 99.3551 135.238 99.6605 135.098 100.038C134.959 100.416 134.89 100.824 134.89 101.261C134.89 101.699 134.959 102.105 135.098 102.48C135.238 102.855 135.452 103.158 135.742 103.388C136.032 103.618 136.401 103.733 136.85 103.733ZM141.231 104.5V97.9545H142.203V98.9773H142.288C142.424 98.6278 142.644 98.3565 142.948 98.1634C143.252 97.9673 143.617 97.8693 144.043 97.8693C144.475 97.8693 144.835 97.9673 145.122 98.1634C145.411 98.3565 145.637 98.6278 145.799 98.9773H145.867C146.035 98.6392 146.286 98.3707 146.622 98.1719C146.957 97.9702 147.359 97.8693 147.828 97.8693C148.413 97.8693 148.891 98.0526 149.264 98.419C149.636 98.7827 149.822 99.3494 149.822 100.119V104.5H148.816V100.119C148.816 99.6364 148.684 99.2912 148.42 99.0838C148.156 98.8764 147.845 98.7727 147.487 98.7727C147.026 98.7727 146.67 98.9119 146.417 99.1903C146.164 99.4659 146.038 99.8153 146.038 100.239V104.5H145.015V100.017C145.015 99.6449 144.894 99.3452 144.653 99.1179C144.411 98.8878 144.1 98.7727 143.72 98.7727C143.458 98.7727 143.214 98.8423 142.987 98.9815C142.762 99.1207 142.58 99.3139 142.441 99.5611C142.305 99.8054 142.237 100.088 142.237 100.409V104.5H141.231Z" fill="#B3B8D0"/>
</g>
<path d="M29.8295 136.455C29.7784 136.023 29.571 135.688 29.2074 135.449C28.8438 135.21 28.3977 135.091 27.8693 135.091C27.483 135.091 27.1449 135.153 26.8551 135.278C26.5682 135.403 26.3438 135.575 26.1818 135.794C26.0227 136.013 25.9432 136.261 25.9432 136.54C25.9432 136.773 25.9986 136.973 26.1094 137.141C26.223 137.305 26.3679 137.443 26.544 137.554C26.7202 137.662 26.9048 137.751 27.098 137.822C27.2912 137.891 27.4688 137.946 27.6307 137.989L28.517 138.227C28.7443 138.287 28.9972 138.369 29.2756 138.474C29.5568 138.58 29.8253 138.723 30.081 138.905C30.3395 139.084 30.5526 139.314 30.7202 139.595C30.8878 139.876 30.9716 140.222 30.9716 140.631C30.9716 141.102 30.848 141.528 30.6009 141.909C30.3565 142.29 29.9986 142.592 29.527 142.817C29.0582 143.041 28.4886 143.153 27.8182 143.153C27.1932 143.153 26.652 143.053 26.1946 142.851C25.7401 142.649 25.3821 142.368 25.1207 142.007C24.8622 141.646 24.7159 141.227 24.6818 140.75H25.7727C25.8011 141.08 25.9119 141.352 26.1051 141.568C26.3011 141.781 26.5483 141.94 26.8466 142.045C27.1477 142.148 27.4716 142.199 27.8182 142.199C28.2216 142.199 28.5838 142.134 28.9048 142.003C29.2259 141.869 29.4801 141.685 29.6676 141.449C29.8551 141.21 29.9489 140.932 29.9489 140.614C29.9489 140.324 29.8679 140.088 29.706 139.906C29.544 139.724 29.331 139.577 29.0668 139.463C28.8026 139.349 28.517 139.25 28.2102 139.165L27.1364 138.858C26.4545 138.662 25.9148 138.382 25.517 138.018C25.1193 137.655 24.9205 137.179 24.9205 136.591C24.9205 136.102 25.0526 135.676 25.3168 135.312C25.5838 134.946 25.9418 134.662 26.3906 134.46C26.8423 134.256 27.3466 134.153 27.9034 134.153C28.4659 134.153 28.9659 134.254 29.4034 134.456C29.8409 134.655 30.1875 134.928 30.4432 135.274C30.7017 135.621 30.8381 136.014 30.8523 136.455H29.8295ZM36.5778 140.324V136.455H37.5835V143H36.5778V141.892H36.5096C36.3562 142.224 36.1176 142.507 35.7937 142.74C35.4698 142.97 35.0608 143.085 34.5664 143.085C34.1573 143.085 33.7937 142.996 33.4755 142.817C33.1573 142.635 32.9073 142.362 32.7255 141.999C32.5437 141.632 32.4528 141.17 32.4528 140.614V136.455H33.4585V140.545C33.4585 141.023 33.592 141.403 33.859 141.688C34.1289 141.972 34.4727 142.114 34.8903 142.114C35.1403 142.114 35.3946 142.05 35.6531 141.922C35.9144 141.794 36.1332 141.598 36.3093 141.334C36.4883 141.07 36.5778 140.733 36.5778 140.324ZM39.4418 143V134.273H40.4475V137.494H40.5327C40.6066 137.381 40.7089 137.236 40.8395 137.06C40.9731 136.881 41.1634 136.722 41.4106 136.582C41.6606 136.44 41.9986 136.369 42.4248 136.369C42.9759 136.369 43.4617 136.507 43.8822 136.783C44.3026 137.058 44.6307 137.449 44.8665 137.955C45.1023 138.46 45.2202 139.057 45.2202 139.744C45.2202 140.438 45.1023 141.038 44.8665 141.547C44.6307 142.053 44.304 142.445 43.8864 142.723C43.4688 142.999 42.9873 143.136 42.4418 143.136C42.0214 143.136 41.6847 143.067 41.4319 142.928C41.179 142.786 40.9844 142.625 40.8481 142.446C40.7117 142.264 40.6066 142.114 40.5327 141.994H40.4134V143H39.4418ZM40.4305 139.727C40.4305 140.222 40.5029 140.658 40.6478 141.036C40.7927 141.411 41.0043 141.705 41.2827 141.918C41.5611 142.128 41.902 142.233 42.3055 142.233C42.7259 142.233 43.0768 142.122 43.358 141.901C43.6421 141.676 43.8552 141.375 43.9972 140.997C44.1421 140.616 44.2145 140.193 44.2145 139.727C44.2145 139.267 44.1435 138.852 44.0015 138.483C43.8623 138.111 43.6506 137.817 43.3665 137.601C43.0853 137.382 42.7316 137.273 42.3055 137.273C41.8964 137.273 41.5526 137.376 41.2742 137.584C40.9958 137.788 40.7856 138.075 40.6435 138.445C40.5015 138.811 40.4305 139.239 40.4305 139.727ZM46.6386 136.455H47.6443V143.477C47.6443 143.881 47.5747 144.23 47.4355 144.526C47.2991 144.821 47.0917 145.05 46.8133 145.212C46.5377 145.374 46.1897 145.455 45.7693 145.455C45.7352 145.455 45.7011 145.455 45.667 145.455C45.6329 145.455 45.5988 145.455 45.5647 145.455V144.517C45.5988 144.517 45.6301 144.517 45.6585 144.517C45.6869 144.517 45.7181 144.517 45.7522 144.517C46.059 144.517 46.2835 144.426 46.4255 144.244C46.5676 144.065 46.6386 143.81 46.6386 143.477V136.455ZM47.1329 135.364C46.9369 135.364 46.7678 135.297 46.6258 135.163C46.4866 135.03 46.417 134.869 46.417 134.682C46.417 134.494 46.4866 134.334 46.6258 134.2C46.7678 134.067 46.9369 134 47.1329 134C47.3289 134 47.4965 134.067 47.6357 134.2C47.7778 134.334 47.8488 134.494 47.8488 134.682C47.8488 134.869 47.7778 135.03 47.6357 135.163C47.4965 135.297 47.3289 135.364 47.1329 135.364ZM52.1106 143.136C51.4799 143.136 50.9358 142.997 50.4785 142.719C50.0239 142.438 49.6731 142.045 49.4259 141.543C49.1816 141.037 49.0594 140.449 49.0594 139.778C49.0594 139.108 49.1816 138.517 49.4259 138.006C49.6731 137.491 50.0168 137.091 50.4571 136.804C50.9003 136.514 51.4174 136.369 52.0083 136.369C52.3492 136.369 52.6858 136.426 53.0182 136.54C53.3506 136.653 53.6532 136.838 53.9259 137.094C54.1986 137.347 54.416 137.682 54.5779 138.099C54.7398 138.517 54.8208 139.031 54.8208 139.642V140.068H49.7753V139.199H53.7981C53.7981 138.83 53.7242 138.5 53.5765 138.21C53.4316 137.92 53.2242 137.692 52.9543 137.524C52.6873 137.357 52.3719 137.273 52.0083 137.273C51.6077 137.273 51.2611 137.372 50.9685 137.571C50.6787 137.767 50.4557 138.023 50.2995 138.338C50.1432 138.653 50.0651 138.991 50.0651 139.352V139.932C50.0651 140.426 50.1503 140.845 50.3208 141.189C50.4941 141.53 50.7341 141.79 51.041 141.969C51.3478 142.145 51.7043 142.233 52.1106 142.233C52.3748 142.233 52.6134 142.196 52.8265 142.122C53.0424 142.045 53.2285 141.932 53.3847 141.781C53.541 141.628 53.6617 141.437 53.7469 141.21L54.7185 141.483C54.6162 141.812 54.4444 142.102 54.2029 142.352C53.9614 142.599 53.6631 142.793 53.308 142.932C52.9529 143.068 52.5537 143.136 52.1106 143.136ZM58.8897 143.136C58.2761 143.136 57.7477 142.991 57.3045 142.702C56.8613 142.412 56.5204 142.013 56.2817 141.504C56.0431 140.996 55.9238 140.415 55.9238 139.761C55.9238 139.097 56.046 138.51 56.2903 138.001C56.5374 137.49 56.8812 137.091 57.3215 136.804C57.7647 136.514 58.2817 136.369 58.8727 136.369C59.3329 136.369 59.7477 136.455 60.117 136.625C60.4863 136.795 60.7888 137.034 61.0246 137.341C61.2604 137.648 61.4067 138.006 61.4636 138.415H60.4579C60.3812 138.116 60.2107 137.852 59.9465 137.622C59.6852 137.389 59.3329 137.273 58.8897 137.273C58.4977 137.273 58.1539 137.375 57.8585 137.58C57.5658 137.781 57.3371 138.067 57.1724 138.436C57.0104 138.803 56.9295 139.233 56.9295 139.727C56.9295 140.233 57.009 140.673 57.1681 141.048C57.33 141.423 57.5573 141.714 57.8499 141.922C58.1454 142.129 58.492 142.233 58.8897 142.233C59.1511 142.233 59.3883 142.188 59.6013 142.097C59.8144 142.006 59.9948 141.875 60.1425 141.705C60.2903 141.534 60.3954 141.33 60.4579 141.091H61.4636C61.4067 141.477 61.2661 141.825 61.0417 142.135C60.8201 142.442 60.5261 142.686 60.1596 142.868C59.796 143.047 59.3727 143.136 58.8897 143.136ZM65.6603 136.455V137.307H62.2683V136.455H65.6603ZM63.2569 134.886H64.2626V141.125C64.2626 141.409 64.3038 141.622 64.3862 141.764C64.4714 141.903 64.5794 141.997 64.71 142.045C64.8436 142.091 64.9842 142.114 65.1319 142.114C65.2427 142.114 65.3336 142.108 65.4046 142.097C65.4757 142.082 65.5325 142.071 65.5751 142.062L65.7796 142.966C65.7115 142.991 65.6163 143.017 65.4941 143.043C65.372 143.071 65.2171 143.085 65.0296 143.085C64.7456 143.085 64.4671 143.024 64.1944 142.902C63.9245 142.78 63.7001 142.594 63.5211 142.344C63.345 142.094 63.2569 141.778 63.2569 141.398V134.886Z" fill="#0E0B3D"/>
<rect x="24" y="152" width="280" height="32" rx="6" fill="#F7F9FC"/>
<path d="M41.8295 166.455C41.7784 166.023 41.571 165.688 41.2074 165.449C40.8438 165.21 40.3977 165.091 39.8693 165.091C39.483 165.091 39.1449 165.153 38.8551 165.278C38.5682 165.403 38.3438 165.575 38.1818 165.794C38.0227 166.013 37.9432 166.261 37.9432 166.54C37.9432 166.773 37.9986 166.973 38.1094 167.141C38.223 167.305 38.3679 167.443 38.544 167.554C38.7202 167.662 38.9048 167.751 39.098 167.822C39.2912 167.891 39.4688 167.946 39.6307 167.989L40.517 168.227C40.7443 168.287 40.9972 168.369 41.2756 168.474C41.5568 168.58 41.8253 168.723 42.081 168.905C42.3395 169.084 42.5526 169.314 42.7202 169.595C42.8878 169.876 42.9716 170.222 42.9716 170.631C42.9716 171.102 42.848 171.528 42.6009 171.909C42.3565 172.29 41.9986 172.592 41.527 172.817C41.0582 173.041 40.4886 173.153 39.8182 173.153C39.1932 173.153 38.652 173.053 38.1946 172.851C37.7401 172.649 37.3821 172.368 37.1207 172.007C36.8622 171.646 36.7159 171.227 36.6818 170.75H37.7727C37.8011 171.08 37.9119 171.352 38.1051 171.568C38.3011 171.781 38.5483 171.94 38.8466 172.045C39.1477 172.148 39.4716 172.199 39.8182 172.199C40.2216 172.199 40.5838 172.134 40.9048 172.003C41.2259 171.869 41.4801 171.685 41.6676 171.449C41.8551 171.21 41.9489 170.932 41.9489 170.614C41.9489 170.324 41.8679 170.088 41.706 169.906C41.544 169.724 41.331 169.577 41.0668 169.463C40.8026 169.349 40.517 169.25 40.2102 169.165L39.1364 168.858C38.4545 168.662 37.9148 168.382 37.517 168.018C37.1193 167.655 36.9205 167.179 36.9205 166.591C36.9205 166.102 37.0526 165.676 37.3168 165.312C37.5838 164.946 37.9418 164.662 38.3906 164.46C38.8423 164.256 39.3466 164.153 39.9034 164.153C40.4659 164.153 40.9659 164.254 41.4034 164.456C41.8409 164.655 42.1875 164.928 42.4432 165.274C42.7017 165.621 42.8381 166.014 42.8523 166.455H41.8295ZM48.5778 170.324V166.455H49.5835V173H48.5778V171.892H48.5096C48.3562 172.224 48.1176 172.507 47.7937 172.74C47.4698 172.97 47.0608 173.085 46.5664 173.085C46.1573 173.085 45.7937 172.996 45.4755 172.817C45.1573 172.635 44.9073 172.362 44.7255 171.999C44.5437 171.632 44.4528 171.17 44.4528 170.614V166.455H45.4585V170.545C45.4585 171.023 45.592 171.403 45.859 171.688C46.1289 171.972 46.4727 172.114 46.8903 172.114C47.1403 172.114 47.3946 172.05 47.6531 171.922C47.9144 171.794 48.1332 171.598 48.3093 171.334C48.4883 171.07 48.5778 170.733 48.5778 170.324ZM51.4418 173V164.273H52.4475V167.494H52.5327C52.6066 167.381 52.7089 167.236 52.8395 167.06C52.9731 166.881 53.1634 166.722 53.4106 166.582C53.6606 166.44 53.9986 166.369 54.4248 166.369C54.9759 166.369 55.4617 166.507 55.8822 166.783C56.3026 167.058 56.6307 167.449 56.8665 167.955C57.1023 168.46 57.2202 169.057 57.2202 169.744C57.2202 170.438 57.1023 171.038 56.8665 171.547C56.6307 172.053 56.304 172.445 55.8864 172.723C55.4688 172.999 54.9873 173.136 54.4418 173.136C54.0214 173.136 53.6847 173.067 53.4319 172.928C53.179 172.786 52.9844 172.625 52.8481 172.446C52.7117 172.264 52.6066 172.114 52.5327 171.994H52.4134V173H51.4418ZM52.4305 169.727C52.4305 170.222 52.5029 170.658 52.6478 171.036C52.7927 171.411 53.0043 171.705 53.2827 171.918C53.5611 172.128 53.902 172.233 54.3055 172.233C54.7259 172.233 55.0768 172.122 55.358 171.901C55.6421 171.676 55.8552 171.375 55.9972 170.997C56.1421 170.616 56.2145 170.193 56.2145 169.727C56.2145 169.267 56.1435 168.852 56.0015 168.483C55.8623 168.111 55.6506 167.817 55.3665 167.601C55.0853 167.382 54.7316 167.273 54.3055 167.273C53.8964 167.273 53.5526 167.376 53.2742 167.584C52.9958 167.788 52.7856 168.075 52.6435 168.445C52.5015 168.811 52.4305 169.239 52.4305 169.727ZM58.6386 166.455H59.6443V173.477C59.6443 173.881 59.5747 174.23 59.4355 174.526C59.2991 174.821 59.0917 175.05 58.8133 175.212C58.5377 175.374 58.1897 175.455 57.7693 175.455C57.7352 175.455 57.7011 175.455 57.667 175.455C57.6329 175.455 57.5988 175.455 57.5647 175.455V174.517C57.5988 174.517 57.6301 174.517 57.6585 174.517C57.6869 174.517 57.7181 174.517 57.7522 174.517C58.059 174.517 58.2835 174.426 58.4255 174.244C58.5676 174.065 58.6386 173.81 58.6386 173.477V166.455ZM59.1329 165.364C58.9369 165.364 58.7678 165.297 58.6258 165.163C58.4866 165.03 58.417 164.869 58.417 164.682C58.417 164.494 58.4866 164.334 58.6258 164.2C58.7678 164.067 58.9369 164 59.1329 164C59.3289 164 59.4965 164.067 59.6357 164.2C59.7778 164.334 59.8488 164.494 59.8488 164.682C59.8488 164.869 59.7778 165.03 59.6357 165.163C59.4965 165.297 59.3289 165.364 59.1329 165.364ZM64.1106 173.136C63.4799 173.136 62.9358 172.997 62.4785 172.719C62.0239 172.438 61.6731 172.045 61.4259 171.543C61.1816 171.037 61.0594 170.449 61.0594 169.778C61.0594 169.108 61.1816 168.517 61.4259 168.006C61.6731 167.491 62.0168 167.091 62.4571 166.804C62.9003 166.514 63.4174 166.369 64.0083 166.369C64.3492 166.369 64.6858 166.426 65.0182 166.54C65.3506 166.653 65.6532 166.838 65.9259 167.094C66.1986 167.347 66.416 167.682 66.5779 168.099C66.7398 168.517 66.8208 169.031 66.8208 169.642V170.068H61.7753V169.199H65.7981C65.7981 168.83 65.7242 168.5 65.5765 168.21C65.4316 167.92 65.2242 167.692 64.9543 167.524C64.6873 167.357 64.3719 167.273 64.0083 167.273C63.6077 167.273 63.2611 167.372 62.9685 167.571C62.6787 167.767 62.4557 168.023 62.2995 168.338C62.1432 168.653 62.0651 168.991 62.0651 169.352V169.932C62.0651 170.426 62.1503 170.845 62.3208 171.189C62.4941 171.53 62.7341 171.79 63.041 171.969C63.3478 172.145 63.7043 172.233 64.1106 172.233C64.3748 172.233 64.6134 172.196 64.8265 172.122C65.0424 172.045 65.2285 171.932 65.3847 171.781C65.541 171.628 65.6617 171.437 65.7469 171.21L66.7185 171.483C66.6162 171.812 66.4444 172.102 66.2029 172.352C65.9614 172.599 65.6631 172.793 65.308 172.932C64.9529 173.068 64.5537 173.136 64.1106 173.136ZM70.8897 173.136C70.2761 173.136 69.7477 172.991 69.3045 172.702C68.8613 172.412 68.5204 172.013 68.2817 171.504C68.0431 170.996 67.9238 170.415 67.9238 169.761C67.9238 169.097 68.046 168.51 68.2903 168.001C68.5374 167.49 68.8812 167.091 69.3215 166.804C69.7647 166.514 70.2817 166.369 70.8727 166.369C71.3329 166.369 71.7477 166.455 72.117 166.625C72.4863 166.795 72.7888 167.034 73.0246 167.341C73.2604 167.648 73.4067 168.006 73.4636 168.415H72.4579C72.3812 168.116 72.2107 167.852 71.9465 167.622C71.6852 167.389 71.3329 167.273 70.8897 167.273C70.4977 167.273 70.1539 167.375 69.8585 167.58C69.5658 167.781 69.3371 168.067 69.1724 168.436C69.0104 168.803 68.9295 169.233 68.9295 169.727C68.9295 170.233 69.009 170.673 69.1681 171.048C69.33 171.423 69.5573 171.714 69.8499 171.922C70.1454 172.129 70.492 172.233 70.8897 172.233C71.1511 172.233 71.3883 172.188 71.6013 172.097C71.8144 172.006 71.9948 171.875 72.1425 171.705C72.2903 171.534 72.3954 171.33 72.4579 171.091H73.4636C73.4067 171.477 73.2661 171.825 73.0417 172.135C72.8201 172.442 72.5261 172.686 72.1596 172.868C71.796 173.047 71.3727 173.136 70.8897 173.136ZM77.6603 166.455V167.307H74.2683V166.455H77.6603ZM75.2569 164.886H76.2626V171.125C76.2626 171.409 76.3038 171.622 76.3862 171.764C76.4714 171.903 76.5794 171.997 76.71 172.045C76.8436 172.091 76.9842 172.114 77.1319 172.114C77.2427 172.114 77.3336 172.108 77.4046 172.097C77.4757 172.082 77.5325 172.071 77.5751 172.062L77.7796 172.966C77.7115 172.991 77.6163 173.017 77.4941 173.043C77.372 173.071 77.2171 173.085 77.0296 173.085C76.7456 173.085 76.4671 173.024 76.1944 172.902C75.9245 172.78 75.7001 172.594 75.5211 172.344C75.345 172.094 75.2569 171.778 75.2569 171.398V164.886Z" fill="#B3B8D0"/>
<path d="M25.0568 203.273H26.3182L29.2841 210.517H29.3864L32.3523 203.273H33.6136V212H32.625V205.369H32.5398L29.8125 212H28.858L26.1307 205.369H26.0455V212H25.0568V203.273ZM38.2206 212.136C37.5899 212.136 37.0458 211.997 36.5885 211.719C36.1339 211.438 35.7831 211.045 35.5359 210.543C35.2916 210.037 35.1694 209.449 35.1694 208.778C35.1694 208.108 35.2916 207.517 35.5359 207.006C35.7831 206.491 36.1268 206.091 36.5671 205.804C37.0103 205.514 37.5274 205.369 38.1183 205.369C38.4592 205.369 38.7958 205.426 39.1282 205.54C39.4606 205.653 39.7632 205.838 40.0359 206.094C40.3086 206.347 40.526 206.682 40.6879 207.099C40.8498 207.517 40.9308 208.031 40.9308 208.642V209.068H35.8853V208.199H39.9081C39.9081 207.83 39.8342 207.5 39.6865 207.21C39.5416 206.92 39.3342 206.692 39.0643 206.524C38.7973 206.357 38.4819 206.273 38.1183 206.273C37.7177 206.273 37.3711 206.372 37.0785 206.571C36.7887 206.767 36.5657 207.023 36.4095 207.338C36.2532 207.653 36.1751 207.991 36.1751 208.352V208.932C36.1751 209.426 36.2603 209.845 36.4308 210.189C36.6041 210.53 36.8441 210.79 37.151 210.969C37.4578 211.145 37.8143 211.233 38.2206 211.233C38.4848 211.233 38.7234 211.196 38.9365 211.122C39.1524 211.045 39.3385 210.932 39.4947 210.781C39.651 210.628 39.7717 210.437 39.8569 210.21L40.8285 210.483C40.7262 210.812 40.5544 211.102 40.3129 211.352C40.0714 211.599 39.7731 211.793 39.418 211.932C39.0629 212.068 38.6637 212.136 38.2206 212.136ZM46.977 206.92L46.0736 207.176C46.0167 207.026 45.9329 206.879 45.8221 206.737C45.7142 206.592 45.5665 206.473 45.379 206.379C45.1915 206.286 44.9514 206.239 44.6588 206.239C44.2582 206.239 43.9244 206.331 43.6574 206.516C43.3932 206.697 43.2611 206.929 43.2611 207.21C43.2611 207.46 43.352 207.658 43.5338 207.803C43.7156 207.947 43.9997 208.068 44.3861 208.165L45.3577 208.403C45.9429 208.545 46.379 208.763 46.6659 209.055C46.9528 209.345 47.0963 209.719 47.0963 210.176C47.0963 210.551 46.9883 210.886 46.7724 211.182C46.5594 211.477 46.2611 211.71 45.8775 211.881C45.494 212.051 45.048 212.136 44.5395 212.136C43.8719 212.136 43.3193 211.991 42.8818 211.702C42.4443 211.412 42.1673 210.989 42.0508 210.432L43.0054 210.193C43.0963 210.545 43.2682 210.81 43.521 210.986C43.7767 211.162 44.1105 211.25 44.5224 211.25C44.9912 211.25 45.3633 211.151 45.6389 210.952C45.9173 210.75 46.0565 210.509 46.0565 210.227C46.0565 210 45.977 209.81 45.8179 209.656C45.6588 209.5 45.4145 209.384 45.0849 209.307L43.994 209.051C43.3946 208.909 42.9542 208.689 42.673 208.391C42.3946 208.089 42.2554 207.713 42.2554 207.261C42.2554 206.892 42.3591 206.565 42.5665 206.281C42.7767 205.997 43.0622 205.774 43.423 205.612C43.7866 205.45 44.1986 205.369 44.6588 205.369C45.3065 205.369 45.815 205.511 46.1844 205.795C46.5565 206.08 46.8207 206.455 46.977 206.92ZM53.1265 206.92L52.2231 207.176C52.1663 207.026 52.0825 206.879 51.9717 206.737C51.8637 206.592 51.716 206.473 51.5285 206.379C51.341 206.286 51.1009 206.239 50.8083 206.239C50.4078 206.239 50.0739 206.331 49.8069 206.516C49.5427 206.697 49.4106 206.929 49.4106 207.21C49.4106 207.46 49.5015 207.658 49.6833 207.803C49.8651 207.947 50.1492 208.068 50.5356 208.165L51.5072 208.403C52.0924 208.545 52.5285 208.763 52.8154 209.055C53.1024 209.345 53.2458 209.719 53.2458 210.176C53.2458 210.551 53.1379 210.886 52.922 211.182C52.7089 211.477 52.4106 211.71 52.0271 211.881C51.6436 212.051 51.1975 212.136 50.689 212.136C50.0214 212.136 49.4688 211.991 49.0313 211.702C48.5938 211.412 48.3168 210.989 48.2004 210.432L49.1549 210.193C49.2458 210.545 49.4177 210.81 49.6705 210.986C49.9262 211.162 50.26 211.25 50.672 211.25C51.1407 211.25 51.5129 211.151 51.7884 210.952C52.0668 210.75 52.2061 210.509 52.2061 210.227C52.2061 210 52.1265 209.81 51.9674 209.656C51.8083 209.5 51.564 209.384 51.2345 209.307L50.1436 209.051C49.5441 208.909 49.1038 208.689 48.8225 208.391C48.5441 208.089 48.4049 207.713 48.4049 207.261C48.4049 206.892 48.5086 206.565 48.716 206.281C48.9262 205.997 49.2117 205.774 49.5725 205.612C49.9362 205.45 50.3481 205.369 50.8083 205.369C51.4561 205.369 51.9646 205.511 52.3339 205.795C52.7061 206.08 52.9703 206.455 53.1265 206.92ZM56.5658 212.153C56.151 212.153 55.7746 212.075 55.4365 211.919C55.0985 211.76 54.83 211.531 54.6312 211.233C54.4323 210.932 54.3329 210.568 54.3329 210.142C54.3329 209.767 54.4067 209.463 54.5544 209.23C54.7022 208.994 54.8996 208.81 55.1468 208.676C55.3939 208.543 55.6667 208.443 55.965 208.378C56.2661 208.31 56.5687 208.256 56.8726 208.216C57.2704 208.165 57.5928 208.126 57.84 208.101C58.09 208.072 58.2718 208.026 58.3854 207.96C58.5019 207.895 58.5601 207.781 58.5601 207.619V207.585C58.5601 207.165 58.4451 206.838 58.215 206.605C57.9877 206.372 57.6425 206.256 57.1794 206.256C56.6993 206.256 56.3229 206.361 56.0502 206.571C55.7775 206.781 55.5857 207.006 55.4749 207.244L54.5204 206.903C54.6908 206.506 54.9181 206.196 55.2022 205.974C55.4891 205.75 55.8016 205.594 56.1397 205.506C56.4806 205.415 56.8158 205.369 57.1454 205.369C57.3556 205.369 57.5971 205.395 57.8698 205.446C58.1454 205.494 58.411 205.595 58.6667 205.749C58.9252 205.902 59.1397 206.134 59.3101 206.443C59.4806 206.753 59.5658 207.168 59.5658 207.688V212H58.5601V211.114H58.509C58.4408 211.256 58.3272 211.408 58.1681 211.57C58.009 211.732 57.7973 211.869 57.5331 211.983C57.2689 212.097 56.9465 212.153 56.5658 212.153ZM56.7192 211.25C57.1169 211.25 57.4522 211.172 57.7249 211.016C58.0005 210.859 58.2079 210.658 58.3471 210.411C58.4891 210.163 58.5601 209.903 58.5601 209.631V208.71C58.5175 208.761 58.4238 208.808 58.2789 208.851C58.1368 208.891 57.9721 208.926 57.7846 208.957C57.5999 208.986 57.4195 209.011 57.2434 209.034C57.0701 209.054 56.9294 209.071 56.8215 209.085C56.5601 209.119 56.3158 209.175 56.0885 209.251C55.8641 209.325 55.6823 209.437 55.5431 209.588C55.4067 209.736 55.3385 209.937 55.3385 210.193C55.3385 210.543 55.4678 210.807 55.7263 210.986C55.9877 211.162 56.3187 211.25 56.7192 211.25ZM63.9234 214.591C63.4376 214.591 63.02 214.528 62.6706 214.403C62.3212 214.281 62.03 214.119 61.797 213.918C61.5669 213.719 61.3837 213.506 61.2473 213.278L62.0484 212.716C62.1393 212.835 62.2544 212.972 62.3936 213.125C62.5328 213.281 62.7232 213.416 62.9646 213.53C63.209 213.646 63.5286 213.705 63.9234 213.705C64.4518 213.705 64.8879 213.577 65.2317 213.321C65.5754 213.065 65.7473 212.665 65.7473 212.119V210.79H65.6621C65.5882 210.909 65.4831 211.057 65.3467 211.233C65.2132 211.406 65.02 211.561 64.7672 211.697C64.5172 211.831 64.1791 211.898 63.753 211.898C63.2246 211.898 62.7501 211.773 62.3297 211.523C61.9121 211.273 61.5811 210.909 61.3368 210.432C61.0953 209.955 60.9746 209.375 60.9746 208.693C60.9746 208.023 61.0925 207.439 61.3283 206.942C61.5641 206.442 61.8922 206.055 62.3126 205.783C62.7331 205.507 63.2189 205.369 63.77 205.369C64.1962 205.369 64.5342 205.44 64.7842 205.582C65.0371 205.722 65.2303 205.881 65.3638 206.06C65.5001 206.236 65.6053 206.381 65.6791 206.494H65.7814V205.455H66.753V212.188C66.753 212.75 66.6251 213.207 66.3695 213.56C66.1166 213.915 65.7757 214.175 65.3467 214.339C64.9206 214.507 64.4462 214.591 63.9234 214.591ZM63.8893 210.994C64.2928 210.994 64.6337 210.902 64.9121 210.717C65.1905 210.533 65.4021 210.267 65.547 209.92C65.6919 209.574 65.7643 209.159 65.7643 208.676C65.7643 208.205 65.6933 207.788 65.5513 207.428C65.4092 207.067 65.199 206.784 64.9206 206.58C64.6422 206.375 64.2984 206.273 63.8893 206.273C63.4632 206.273 63.1081 206.381 62.824 206.597C62.5428 206.812 62.3311 207.102 62.1891 207.466C62.0499 207.83 61.9803 208.233 61.9803 208.676C61.9803 209.131 62.0513 209.533 62.1933 209.882C62.3382 210.229 62.5513 210.501 62.8325 210.7C63.1166 210.896 63.4689 210.994 63.8893 210.994ZM71.2182 212.136C70.5875 212.136 70.0435 211.997 69.5861 211.719C69.1316 211.438 68.7807 211.045 68.5335 210.543C68.2892 210.037 68.1671 209.449 68.1671 208.778C68.1671 208.108 68.2892 207.517 68.5335 207.006C68.7807 206.491 69.1245 206.091 69.5648 205.804C70.008 205.514 70.525 205.369 71.1159 205.369C71.4568 205.369 71.7935 205.426 72.1259 205.54C72.4583 205.653 72.7608 205.838 73.0336 206.094C73.3063 206.347 73.5236 206.682 73.6855 207.099C73.8475 207.517 73.9284 208.031 73.9284 208.642V209.068H68.883V208.199H72.9057C72.9057 207.83 72.8318 207.5 72.6841 207.21C72.5392 206.92 72.3318 206.692 72.062 206.524C71.7949 206.357 71.4796 206.273 71.1159 206.273C70.7154 206.273 70.3688 206.372 70.0762 206.571C69.7864 206.767 69.5634 207.023 69.4071 207.338C69.2509 207.653 69.1728 207.991 69.1728 208.352V208.932C69.1728 209.426 69.258 209.845 69.4284 210.189C69.6017 210.53 69.8418 210.79 70.1486 210.969C70.4554 211.145 70.812 211.233 71.2182 211.233C71.4824 211.233 71.7211 211.196 71.9341 211.122C72.15 211.045 72.3361 210.932 72.4924 210.781C72.6486 210.628 72.7693 210.437 72.8546 210.21L73.8262 210.483C73.7239 210.812 73.552 211.102 73.3105 211.352C73.0691 211.599 72.7708 211.793 72.4157 211.932C72.0605 212.068 71.6614 212.136 71.2182 212.136Z" fill="#0E0B3D"/>
<rect x="24" y="221" width="280" height="81" rx="6" fill="#F7F9FC"/>
<path d="M37.0568 245V236.273H38.1136V244.062H42.1705V245H37.0568ZM46.2095 245.136C45.6186 245.136 45.1002 244.996 44.6541 244.714C44.211 244.433 43.8644 244.04 43.6144 243.534C43.3672 243.028 43.2436 242.437 43.2436 241.761C43.2436 241.08 43.3672 240.484 43.6144 239.976C43.8644 239.467 44.211 239.072 44.6541 238.791C45.1002 238.51 45.6186 238.369 46.2095 238.369C46.8005 238.369 47.3175 238.51 47.7607 238.791C48.2067 239.072 48.5533 239.467 48.8005 239.976C49.0505 240.484 49.1755 241.08 49.1755 241.761C49.1755 242.437 49.0505 243.028 48.8005 243.534C48.5533 244.04 48.2067 244.433 47.7607 244.714C47.3175 244.996 46.8005 245.136 46.2095 245.136ZM46.2095 244.233C46.6584 244.233 47.0277 244.118 47.3175 243.888C47.6073 243.658 47.8218 243.355 47.961 242.98C48.1002 242.605 48.1698 242.199 48.1698 241.761C48.1698 241.324 48.1002 240.916 47.961 240.538C47.8218 240.161 47.6073 239.855 47.3175 239.622C47.0277 239.389 46.6584 239.273 46.2095 239.273C45.7607 239.273 45.3914 239.389 45.1016 239.622C44.8118 239.855 44.5973 240.161 44.4581 240.538C44.3189 240.916 44.2493 241.324 44.2493 241.761C44.2493 242.199 44.3189 242.605 44.4581 242.98C44.5973 243.355 44.8118 243.658 45.1016 243.888C45.3914 244.118 45.7607 244.233 46.2095 244.233ZM50.5906 245V238.455H51.5622V239.443H51.6304C51.7497 239.119 51.9656 238.857 52.2781 238.655C52.5906 238.453 52.9429 238.352 53.3349 238.352C53.4088 238.352 53.5011 238.354 53.6119 238.357C53.7227 238.359 53.8065 238.364 53.8633 238.369V239.392C53.8292 239.384 53.7511 239.371 53.629 239.354C53.5096 239.334 53.3832 239.324 53.2497 239.324C52.9315 239.324 52.6474 239.391 52.3974 239.524C52.1503 239.655 51.9542 239.837 51.8094 240.07C51.6673 240.3 51.5963 240.562 51.5963 240.858V245H50.5906ZM57.4806 245.136C56.8499 245.136 56.3058 244.997 55.8485 244.719C55.3939 244.438 55.0431 244.045 54.7959 243.543C54.5516 243.037 54.4294 242.449 54.4294 241.778C54.4294 241.108 54.5516 240.517 54.7959 240.006C55.0431 239.491 55.3868 239.091 55.8271 238.804C56.2703 238.514 56.7874 238.369 57.3783 238.369C57.7192 238.369 58.0558 238.426 58.3882 238.54C58.7206 238.653 59.0232 238.838 59.2959 239.094C59.5686 239.347 59.786 239.682 59.9479 240.099C60.1098 240.517 60.1908 241.031 60.1908 241.642V242.068H55.1453V241.199H59.1681C59.1681 240.83 59.0942 240.5 58.9465 240.21C58.8016 239.92 58.5942 239.692 58.3243 239.524C58.0573 239.357 57.7419 239.273 57.3783 239.273C56.9777 239.273 56.6311 239.372 56.3385 239.571C56.0487 239.767 55.8257 240.023 55.6695 240.338C55.5132 240.653 55.4351 240.991 55.4351 241.352V241.932C55.4351 242.426 55.5203 242.845 55.6908 243.189C55.8641 243.53 56.1041 243.79 56.411 243.969C56.7178 244.145 57.0743 244.233 57.4806 244.233C57.7448 244.233 57.9834 244.196 58.1965 244.122C58.4124 244.045 58.5985 243.932 58.7547 243.781C58.911 243.628 59.0317 243.437 59.1169 243.21L60.0885 243.483C59.9862 243.812 59.8144 244.102 59.5729 244.352C59.3314 244.599 59.0331 244.793 58.678 244.932C58.3229 245.068 57.9237 245.136 57.4806 245.136ZM61.6006 245V238.455H62.5722V239.477H62.6574C62.7938 239.128 63.014 238.857 63.3179 238.663C63.6219 238.467 63.987 238.369 64.4131 238.369C64.8449 238.369 65.2043 238.467 65.4912 238.663C65.781 238.857 66.0069 239.128 66.1688 239.477H66.237C66.4046 239.139 66.656 238.871 66.9912 238.672C67.3265 238.47 67.7285 238.369 68.1972 238.369C68.7824 238.369 69.2611 238.553 69.6333 238.919C70.0054 239.283 70.1915 239.849 70.1915 240.619V245H69.1858V240.619C69.1858 240.136 69.0537 239.791 68.7895 239.584C68.5253 239.376 68.2142 239.273 67.8563 239.273C67.3961 239.273 67.0395 239.412 66.7867 239.69C66.5339 239.966 66.4074 240.315 66.4074 240.739V245H65.3847V240.517C65.3847 240.145 65.264 239.845 65.0225 239.618C64.781 239.388 64.4699 239.273 64.0892 239.273C63.8279 239.273 63.5836 239.342 63.3563 239.482C63.1319 239.621 62.95 239.814 62.8108 240.061C62.6745 240.305 62.6063 240.588 62.6063 240.909V245H61.6006ZM75.1653 245V238.455H76.171V245H75.1653ZM75.6767 237.364C75.4806 237.364 75.3116 237.297 75.1696 237.163C75.0304 237.03 74.9608 236.869 74.9608 236.682C74.9608 236.494 75.0304 236.334 75.1696 236.2C75.3116 236.067 75.4806 236 75.6767 236C75.8727 236 76.0403 236.067 76.1795 236.2C76.3215 236.334 76.3926 236.494 76.3926 236.682C76.3926 236.869 76.3215 237.03 76.1795 237.163C76.0403 237.297 75.8727 237.364 75.6767 237.364ZM77.893 247.455V238.455H78.8645V239.494H78.9839C79.0577 239.381 79.16 239.236 79.2907 239.06C79.4242 238.881 79.6145 238.722 79.8617 238.582C80.1117 238.44 80.4498 238.369 80.8759 238.369C81.427 238.369 81.9128 238.507 82.3333 238.783C82.7537 239.058 83.0819 239.449 83.3177 239.955C83.5535 240.46 83.6714 241.057 83.6714 241.744C83.6714 242.438 83.5535 243.038 83.3177 243.547C83.0819 244.053 82.7552 244.445 82.3376 244.723C81.9199 244.999 81.4384 245.136 80.893 245.136C80.4725 245.136 80.1359 245.067 79.883 244.928C79.6302 244.786 79.4356 244.625 79.2992 244.446C79.1628 244.264 79.0577 244.114 78.9839 243.994H78.8986V247.455H77.893ZM78.8816 241.727C78.8816 242.222 78.954 242.658 79.0989 243.036C79.2438 243.411 79.4555 243.705 79.7339 243.918C80.0123 244.128 80.3532 244.233 80.7566 244.233C81.177 244.233 81.5279 244.122 81.8091 243.901C82.0932 243.676 82.3063 243.375 82.4484 242.997C82.5932 242.616 82.6657 242.193 82.6657 241.727C82.6657 241.267 82.5947 240.852 82.4526 240.483C82.3134 240.111 82.1018 239.817 81.8177 239.601C81.5364 239.382 81.1827 239.273 80.7566 239.273C80.3475 239.273 80.0038 239.376 79.7253 239.584C79.4469 239.788 79.2367 240.075 79.0947 240.445C78.9526 240.811 78.8816 241.239 78.8816 241.727ZM89.7218 239.92L88.8184 240.176C88.7616 240.026 88.6778 239.879 88.567 239.737C88.459 239.592 88.3113 239.473 88.1238 239.379C87.9363 239.286 87.6963 239.239 87.4036 239.239C87.0031 239.239 86.6693 239.331 86.4022 239.516C86.138 239.697 86.0059 239.929 86.0059 240.21C86.0059 240.46 86.0968 240.658 86.2786 240.803C86.4605 240.947 86.7445 241.068 87.1309 241.165L88.1025 241.403C88.6877 241.545 89.1238 241.763 89.4107 242.055C89.6977 242.345 89.8411 242.719 89.8411 243.176C89.8411 243.551 89.7332 243.886 89.5173 244.182C89.3042 244.477 89.0059 244.71 88.6224 244.881C88.2389 245.051 87.7928 245.136 87.2843 245.136C86.6167 245.136 86.0641 244.991 85.6266 244.702C85.1891 244.412 84.9122 243.989 84.7957 243.432L85.7502 243.193C85.8411 243.545 86.013 243.81 86.2659 243.986C86.5215 244.162 86.8553 244.25 87.2673 244.25C87.736 244.25 88.1082 244.151 88.3838 243.952C88.6622 243.75 88.8014 243.509 88.8014 243.227C88.8014 243 88.7218 242.81 88.5627 242.656C88.4036 242.5 88.1593 242.384 87.8298 242.307L86.7389 242.051C86.1394 241.909 85.6991 241.689 85.4178 241.391C85.1394 241.089 85.0002 240.713 85.0002 240.261C85.0002 239.892 85.1039 239.565 85.3113 239.281C85.5215 238.997 85.807 238.774 86.1678 238.612C86.5315 238.45 86.9434 238.369 87.4036 238.369C88.0514 238.369 88.5599 238.511 88.9292 238.795C89.3014 239.08 89.5656 239.455 89.7218 239.92ZM95.36 242.324V238.455H96.3657V245H95.36V243.892H95.2918C95.1384 244.224 94.8998 244.507 94.5759 244.74C94.252 244.97 93.8429 245.085 93.3486 245.085C92.9395 245.085 92.5759 244.996 92.2577 244.817C91.9395 244.635 91.6895 244.362 91.5077 243.999C91.3259 243.632 91.235 243.17 91.235 242.614V238.455H92.2407V242.545C92.2407 243.023 92.3742 243.403 92.6412 243.688C92.9111 243.972 93.2549 244.114 93.6725 244.114C93.9225 244.114 94.1767 244.05 94.4353 243.922C94.6966 243.794 94.9154 243.598 95.0915 243.334C95.2705 243.07 95.36 242.733 95.36 242.324ZM98.0876 245V238.455H99.0592V239.477H99.1445C99.2808 239.128 99.501 238.857 99.805 238.663C100.109 238.467 100.474 238.369 100.9 238.369C101.332 238.369 101.691 238.467 101.978 238.663C102.268 238.857 102.494 239.128 102.656 239.477H102.724C102.892 239.139 103.143 238.871 103.478 238.672C103.813 238.47 104.215 238.369 104.684 238.369C105.269 238.369 105.748 238.553 106.12 238.919C106.492 239.283 106.679 239.849 106.679 240.619V245H105.673V240.619C105.673 240.136 105.541 239.791 105.277 239.584C105.012 239.376 104.701 239.273 104.343 239.273C103.883 239.273 103.527 239.412 103.274 239.69C103.021 239.966 102.894 240.315 102.894 240.739V245H101.872V240.517C101.872 240.145 101.751 239.845 101.51 239.618C101.268 239.388 100.957 239.273 100.576 239.273C100.315 239.273 100.071 239.342 99.8433 239.482C99.6189 239.621 99.4371 239.814 99.2979 240.061C99.1615 240.305 99.0933 240.588 99.0933 240.909V245H98.0876ZM114.124 245.136C113.578 245.136 113.097 244.999 112.679 244.723C112.262 244.445 111.935 244.053 111.699 243.547C111.463 243.038 111.346 242.438 111.346 241.744C111.346 241.057 111.463 240.46 111.699 239.955C111.935 239.449 112.263 239.058 112.684 238.783C113.104 238.507 113.59 238.369 114.141 238.369C114.567 238.369 114.904 238.44 115.151 238.582C115.401 238.722 115.591 238.881 115.722 239.06C115.855 239.236 115.959 239.381 116.033 239.494H116.118V236.273H117.124V245H116.152V243.994H116.033C115.959 244.114 115.854 244.264 115.718 244.446C115.581 244.625 115.387 244.786 115.134 244.928C114.881 245.067 114.544 245.136 114.124 245.136ZM114.26 244.233C114.664 244.233 115.005 244.128 115.283 243.918C115.561 243.705 115.773 243.411 115.918 243.036C116.063 242.658 116.135 242.222 116.135 241.727C116.135 241.239 116.064 240.811 115.922 240.445C115.78 240.075 115.57 239.788 115.292 239.584C115.013 239.376 114.669 239.273 114.26 239.273C113.834 239.273 113.479 239.382 113.195 239.601C112.914 239.817 112.702 240.111 112.56 240.483C112.421 240.852 112.351 241.267 112.351 241.727C112.351 242.193 112.422 242.616 112.564 242.997C112.709 243.375 112.922 243.676 113.203 243.901C113.488 244.122 113.84 244.233 114.26 244.233ZM121.645 245.136C121.054 245.136 120.535 244.996 120.089 244.714C119.646 244.433 119.299 244.04 119.049 243.534C118.802 243.028 118.679 242.437 118.679 241.761C118.679 241.08 118.802 240.484 119.049 239.976C119.299 239.467 119.646 239.072 120.089 238.791C120.535 238.51 121.054 238.369 121.645 238.369C122.235 238.369 122.753 238.51 123.196 238.791C123.642 239.072 123.988 239.467 124.235 239.976C124.485 240.484 124.61 241.08 124.61 241.761C124.61 242.437 124.485 243.028 124.235 243.534C123.988 244.04 123.642 244.433 123.196 244.714C122.753 244.996 122.235 245.136 121.645 245.136ZM121.645 244.233C122.093 244.233 122.463 244.118 122.753 243.888C123.042 243.658 123.257 243.355 123.396 242.98C123.535 242.605 123.605 242.199 123.605 241.761C123.605 241.324 123.535 240.916 123.396 240.538C123.257 240.161 123.042 239.855 122.753 239.622C122.463 239.389 122.093 239.273 121.645 239.273C121.196 239.273 120.826 239.389 120.537 239.622C120.247 239.855 120.032 240.161 119.893 240.538C119.754 240.916 119.684 241.324 119.684 241.761C119.684 242.199 119.754 242.605 119.893 242.98C120.032 243.355 120.247 243.658 120.537 243.888C120.826 244.118 121.196 244.233 121.645 244.233ZM127.031 236.273V245H126.026V236.273H127.031ZM131.412 245.136C130.821 245.136 130.303 244.996 129.857 244.714C129.414 244.433 129.067 244.04 128.817 243.534C128.57 243.028 128.446 242.437 128.446 241.761C128.446 241.08 128.57 240.484 128.817 239.976C129.067 239.467 129.414 239.072 129.857 238.791C130.303 238.51 130.821 238.369 131.412 238.369C132.003 238.369 132.52 238.51 132.963 238.791C133.41 239.072 133.756 239.467 134.003 239.976C134.253 240.484 134.378 241.08 134.378 241.761C134.378 242.437 134.253 243.028 134.003 243.534C133.756 244.04 133.41 244.433 132.963 244.714C132.52 244.996 132.003 245.136 131.412 245.136ZM131.412 244.233C131.861 244.233 132.231 244.118 132.52 243.888C132.81 243.658 133.025 243.355 133.164 242.98C133.303 242.605 133.373 242.199 133.373 241.761C133.373 241.324 133.303 240.916 133.164 240.538C133.025 240.161 132.81 239.855 132.52 239.622C132.231 239.389 131.861 239.273 131.412 239.273C130.963 239.273 130.594 239.389 130.304 239.622C130.015 239.855 129.8 240.161 129.661 240.538C129.522 240.916 129.452 241.324 129.452 241.761C129.452 242.199 129.522 242.605 129.661 242.98C129.8 243.355 130.015 243.658 130.304 243.888C130.594 244.118 130.963 244.233 131.412 244.233ZM135.793 245V238.455H136.765V239.443H136.833C136.953 239.119 137.168 238.857 137.481 238.655C137.793 238.453 138.146 238.352 138.538 238.352C138.612 238.352 138.704 238.354 138.815 238.357C138.926 238.359 139.009 238.364 139.066 238.369V239.392C139.032 239.384 138.954 239.371 138.832 239.354C138.712 239.334 138.586 239.324 138.453 239.324C138.134 239.324 137.85 239.391 137.6 239.524C137.353 239.655 137.157 239.837 137.012 240.07C136.87 240.3 136.799 240.562 136.799 240.858V245H135.793ZM140.121 245.068C139.911 245.068 139.731 244.993 139.58 244.842C139.429 244.692 139.354 244.511 139.354 244.301C139.354 244.091 139.429 243.911 139.58 243.76C139.731 243.609 139.911 243.534 140.121 243.534C140.331 243.534 140.512 243.609 140.662 243.76C140.813 243.911 140.888 244.091 140.888 244.301C140.888 244.44 140.853 244.568 140.782 244.685C140.714 244.801 140.621 244.895 140.505 244.966C140.391 245.034 140.263 245.068 140.121 245.068ZM143.306 245.068C143.096 245.068 142.915 244.993 142.765 244.842C142.614 244.692 142.539 244.511 142.539 244.301C142.539 244.091 142.614 243.911 142.765 243.76C142.915 243.609 143.096 243.534 143.306 243.534C143.516 243.534 143.697 243.609 143.847 243.76C143.998 243.911 144.073 244.091 144.073 244.301C144.073 244.44 144.037 244.568 143.966 244.685C143.898 244.801 143.806 244.895 143.689 244.966C143.576 245.034 143.448 245.068 143.306 245.068ZM146.491 245.068C146.28 245.068 146.1 244.993 145.949 244.842C145.799 244.692 145.724 244.511 145.724 244.301C145.724 244.091 145.799 243.911 145.949 243.76C146.1 243.609 146.28 243.534 146.491 243.534C146.701 243.534 146.881 243.609 147.032 243.76C147.182 243.911 147.258 244.091 147.258 244.301C147.258 244.44 147.222 244.568 147.151 244.685C147.083 244.801 146.991 244.895 146.874 244.966C146.76 245.034 146.633 245.068 146.491 245.068ZM149.675 245.068C149.465 245.068 149.285 244.993 149.134 244.842C148.984 244.692 148.908 244.511 148.908 244.301C148.908 244.091 148.984 243.911 149.134 243.76C149.285 243.609 149.465 243.534 149.675 243.534C149.886 243.534 150.066 243.609 150.216 243.76C150.367 243.911 150.442 244.091 150.442 244.301C150.442 244.44 150.407 244.568 150.336 244.685C150.268 244.801 150.175 244.895 150.059 244.966C149.945 245.034 149.817 245.068 149.675 245.068Z" fill="#B3B8D0"/>
<g filter="url(#filter0_d_198_10199)">
<rect x="24" y="316" width="280" height="35" rx="6" fill="#5750F1" shape-rendering="crispEdges"/>
<path d="M145.504 332.664C145.504 333.912 146.236 334.728 147.652 335.052L149.08 335.376C149.908 335.568 150.28 336 150.28 336.684C150.28 337.548 149.548 338.088 148.396 338.088C147.304 338.088 146.608 337.56 146.584 336.732H145.384C145.456 338.22 146.632 339.144 148.396 339.144C150.244 339.144 151.456 338.148 151.456 336.588C151.456 335.364 150.736 334.596 149.32 334.272L147.892 333.936C147.076 333.744 146.68 333.324 146.68 332.628C146.68 331.776 147.388 331.224 148.48 331.224C149.452 331.224 150.064 331.728 150.124 332.592H151.312C151.216 331.092 150.148 330.168 148.492 330.168C146.704 330.168 145.504 331.176 145.504 332.664ZM156.798 333.132V336.228C156.798 337.488 156.234 338.148 155.202 338.148C154.338 338.148 153.798 337.668 153.798 336.408V333.132H152.67V336.78C152.67 338.22 153.438 339.144 154.806 339.144C155.67 339.144 156.45 338.724 156.786 338.112L156.906 339H157.914V333.132H156.798ZM160.57 339L160.654 337.932C161.038 338.736 161.818 339.144 162.742 339.144C164.446 339.144 165.502 337.872 165.502 336.096C165.502 334.284 164.494 332.964 162.814 332.964C161.854 332.964 161.062 333.372 160.678 334.14V330.168H159.55V339H160.57ZM160.69 336.048C160.69 334.848 161.386 333.984 162.538 333.984C163.69 333.984 164.374 334.848 164.374 336.048C164.374 337.26 163.69 338.124 162.538 338.124C161.386 338.124 160.69 337.272 160.69 336.048ZM167.874 339V335.52C167.874 334.584 168.438 333.996 169.29 333.996C170.082 333.996 170.586 334.5 170.586 335.424V339H171.702V335.52C171.702 334.584 172.266 333.984 173.118 333.984C173.91 333.984 174.426 334.512 174.426 335.436V339H175.53V335.16C175.53 333.804 174.714 332.964 173.37 332.964C172.458 332.964 171.75 333.42 171.474 334.152C171.174 333.42 170.526 332.964 169.614 332.964C168.786 332.964 168.162 333.348 167.862 333.9L167.754 333.132H166.746V339H167.874ZM177.645 331.74C178.053 331.74 178.389 331.404 178.389 330.996C178.389 330.576 178.053 330.252 177.645 330.252C177.237 330.252 176.901 330.576 176.901 330.996C176.901 331.404 177.237 331.74 177.645 331.74ZM177.093 339H178.221V333.132H177.093V339ZM181.515 339V334.08H182.667V333.132H181.515V331.296H180.387V333.132H179.235V334.08H180.387V339H181.515Z" fill="white"/>
</g>
<g opacity="0.1" filter="url(#filter1_d_198_10199)">
<circle cx="217" cy="339" r="30" fill="white"/>
</g>
<g opacity="0.4" filter="url(#filter2_d_198_10199)">
<circle cx="217" cy="339" r="25.3846" fill="white"/>
</g>
<g opacity="0.2" filter="url(#filter3_d_198_10199)">
<circle cx="217" cy="339" r="20.7692" fill="white"/>
</g>
<g filter="url(#filter4_d_198_10199)">
<circle cx="217" cy="339" r="15" fill="white"/>
</g>
<path d="M217.054 337.543C216.823 337.543 216.601 337.631 216.438 337.787C216.274 337.944 216.182 338.156 216.182 338.377V350.951C216.182 351.412 216.572 351.786 217.054 351.786C217.273 351.786 217.456 351.72 217.605 351.61L219.798 349.908L221.703 353.883C221.852 354.18 222.162 354.355 222.495 354.355C222.621 354.355 222.747 354.355 222.874 354.268L226.041 352.862C226.478 352.664 226.684 352.159 226.455 351.753L224.538 347.767L227.304 347.272C227.488 347.218 227.66 347.141 227.798 346.987C228.107 346.635 228.062 346.119 227.66 345.801L217.628 337.73L217.617 337.741C217.468 337.62 217.273 337.543 217.054 337.543ZM221.921 338.981V336.785H227.66V338.981H221.921ZM220.578 333.227L223.826 330.119L225.445 331.668L222.196 334.776L220.578 333.227ZM216.182 328H218.478V333.491H216.182V328ZM209.215 344.099L212.463 340.991L214.082 342.539L210.834 345.647L209.215 344.099ZM209.215 331.668L210.834 330.119L214.082 333.227L212.463 334.776L209.215 331.668ZM212.739 338.981H207V336.785H212.739V338.981Z" fill="#5750F1"/>
<defs>
<filter id="filter0_d_198_10199" x="22" y="315" width="284" height="39" filterUnits="userSpaceOnUse" color-interpolation-filters="sRGB">
<feFlood flood-opacity="0" result="BackgroundImageFix"/>
<feColorMatrix in="SourceAlpha" type="matrix" values="0 0 0 0 0 0 0 0 0 0 0 0 0 0 0 0 0 0 127 0" result="hardAlpha"/>
<feOffset dy="1"/>
<feGaussianBlur stdDeviation="1"/>
<feComposite in2="hardAlpha" operator="out"/>
<feColorMatrix type="matrix" values="0 0 0 0 0.329531 0 0 0 0 0.33976 0 0 0 0 0.4625 0 0 0 0.1 0"/>
<feBlend mode="normal" in2="BackgroundImageFix" result="effect1_dropShadow_198_10199"/>
<feBlend mode="normal" in="SourceGraphic" in2="effect1_dropShadow_198_10199" result="shape"/>
</filter>
<filter id="filter1_d_198_10199" x="185" y="308" width="64" height="64" filterUnits="userSpaceOnUse" color-interpolation-filters="sRGB">
<feFlood flood-opacity="0" result="BackgroundImageFix"/>
<feColorMatrix in="SourceAlpha" type="matrix" values="0 0 0 0 0 0 0 0 0 0 0 0 0 0 0 0 0 0 127 0" result="hardAlpha"/>
<feOffset dy="1"/>
<feGaussianBlur stdDeviation="1"/>
<feComposite in2="hardAlpha" operator="out"/>
<feColorMatrix type="matrix" values="0 0 0 0 0.329531 0 0 0 0 0.33976 0 0 0 0 0.4625 0 0 0 0.1 0"/>
<feBlend mode="normal" in2="BackgroundImageFix" result="effect1_dropShadow_198_10199"/>
<feBlend mode="normal" in="SourceGraphic" in2="effect1_dropShadow_198_10199" result="shape"/>
</filter>
<filter id="filter2_d_198_10199" x="189.615" y="312.615" width="54.769" height="54.7693" filterUnits="userSpaceOnUse" color-interpolation-filters="sRGB">
<feFlood flood-opacity="0" result="BackgroundImageFix"/>
<feColorMatrix in="SourceAlpha" type="matrix" values="0 0 0 0 0 0 0 0 0 0 0 0 0 0 0 0 0 0 127 0" result="hardAlpha"/>
<feOffset dy="1"/>
<feGaussianBlur stdDeviation="1"/>
<feComposite in2="hardAlpha" operator="out"/>
<feColorMatrix type="matrix" values="0 0 0 0 0.329531 0 0 0 0 0.33976 0 0 0 0 0.4625 0 0 0 0.1 0"/>
<feBlend mode="normal" in2="BackgroundImageFix" result="effect1_dropShadow_198_10199"/>
<feBlend mode="normal" in="SourceGraphic" in2="effect1_dropShadow_198_10199" result="shape"/>
</filter>
<filter id="filter3_d_198_10199" x="194.231" y="317.231" width="45.5386" height="45.5386" filterUnits="userSpaceOnUse" color-interpolation-filters="sRGB">
<feFlood flood-opacity="0" result="BackgroundImageFix"/>
<feColorMatrix in="SourceAlpha" type="matrix" values="0 0 0 0 0 0 0 0 0 0 0 0 0 0 0 0 0 0 127 0" result="hardAlpha"/>
<feOffset dy="1"/>
<feGaussianBlur stdDeviation="1"/>
<feComposite in2="hardAlpha" operator="out"/>
<feColorMatrix type="matrix" values="0 0 0 0 0.329531 0 0 0 0 0.33976 0 0 0 0 0.4625 0 0 0 0.1 0"/>
<feBlend mode="normal" in2="BackgroundImageFix" result="effect1_dropShadow_198_10199"/>
<feBlend mode="normal" in="SourceGraphic" in2="effect1_dropShadow_198_10199" result="shape"/>
</filter>
<filter id="filter4_d_198_10199" x="200" y="323" width="34" height="34" filterUnits="userSpaceOnUse" color-interpolation-filters="sRGB">
<feFlood flood-opacity="0" result="BackgroundImageFix"/>
<feColorMatrix in="SourceAlpha" type="matrix" values="0 0 0 0 0 0 0 0 0 0 0 0 0 0 0 0 0 0 127 0" result="hardAlpha"/>
<feOffset dy="1"/>
<feGaussianBlur stdDeviation="1"/>
<feComposite in2="hardAlpha" operator="out"/>
<feColorMatrix type="matrix" values="0 0 0 0 0.329531 0 0 0 0 0.33976 0 0 0 0 0.4625 0 0 0 0.1 0"/>
<feBlend mode="normal" in2="BackgroundImageFix" result="effect1_dropShadow_198_10199"/>
<feBlend mode="normal" in="SourceGraphic" in2="effect1_dropShadow_198_10199" result="shape"/>
</filter>
<clipPath id="clip0_198_10199">
<rect width="264" height="15" fill="white" transform="translate(32 92.5)"/>
</clipPath>
</defs>
</svg>
