<svg width="78" height="281" viewBox="0 0 78 281" fill="none" xmlns="http://www.w3.org/2000/svg">
<rect x="0.35" y="0.35" width="77.3" height="280.3" rx="9.65" fill="white" stroke="#F1F3F9" stroke-width="0.7"/>
<rect x="10" y="9" width="6" height="6" rx="3" fill="#FA85A4"/>
<rect x="21" y="9" width="6" height="6" rx="3" fill="#FFE56E"/>
<rect x="32" y="9" width="6" height="6" rx="3" fill="#52E282"/>
<rect x="15.5" y="98.5" width="47" height="47" rx="7.5" fill="#F7F9FC" stroke="#EAEFF5"/>
<path d="M35.9764 122.628C34.6861 122.628 33.5801 123.734 33.5801 125.024V130.997C33.5801 132.287 34.6861 133.393 35.9764 133.393C37.2667 133.393 38.3727 132.287 38.3727 130.997V125.024C38.3727 123.66 37.3405 122.628 35.9764 122.628Z" fill="#D81C57"/>
<path d="M27.5703 125.024C27.5703 126.315 28.6763 127.421 29.9666 127.421C31.257 127.421 32.363 126.315 32.363 125.024V122.628H30.0035C28.6763 122.628 27.5703 123.66 27.5703 125.024Z" fill="#D81C57"/>
<path d="M35.9764 110.571C34.6861 110.571 33.5801 111.677 33.5801 112.967C33.5801 114.257 34.6861 115.363 35.9764 115.363H38.3727C38.3727 113.999 38.3727 114.331 38.3727 112.967C38.3727 111.677 37.3405 110.571 35.9764 110.571Z" fill="#34BFE9"/>
<path d="M29.9666 121.375H35.9759C37.2662 121.375 38.3722 120.269 38.3722 118.979C38.3722 117.688 37.2662 116.582 35.9759 116.582H29.9666C28.6763 116.582 27.5703 117.688 27.5703 118.979C27.5703 120.269 28.6026 121.375 29.9666 121.375Z" fill="#34BFE9"/>
<path d="M47.995 116.582C46.7046 116.582 45.5986 117.688 45.5986 118.979V121.375H47.995C49.2853 121.375 50.3913 120.269 50.3913 118.979C50.3913 117.688 49.3221 116.582 47.995 116.582Z" fill="#2CB07A"/>
<path d="M39.625 112.967V118.976C39.625 120.266 40.731 121.372 42.0213 121.372C43.3117 121.372 44.4176 120.266 44.4176 118.976V112.967C44.4176 111.677 43.3117 110.571 42.0213 110.571C40.6573 110.571 39.625 111.677 39.625 112.967Z" fill="#2CB07A"/>
<path d="M44.4176 131.032C44.4176 129.741 43.3117 128.635 42.0213 128.635H39.625V131.032C39.625 132.322 40.731 133.428 42.0213 133.428C43.3117 133.428 44.4176 132.322 44.4176 131.032Z" fill="#E4AC2C"/>
<path d="M48.0305 122.628H42.0213C40.731 122.628 39.625 123.734 39.625 125.024C39.625 126.315 40.731 127.421 42.0213 127.421H48.0305C49.3209 127.421 50.4269 126.315 50.4269 125.024C50.4269 123.66 49.3209 122.628 48.0305 122.628Z" fill="#E4AC2C"/>
<rect x="15.5" y="158.5" width="47" height="47" rx="7.5" fill="#F7F9FC" stroke="#EAEFF5"/>
<g clip-path="url(#clip0_198_10230)">
<path d="M38.9975 195.715C46.5717 195.715 52.7118 189.575 52.7118 182C52.7118 174.426 46.5717 168.286 38.9975 168.286C31.4233 168.286 25.2832 174.426 25.2832 182C25.2832 189.575 31.4233 195.715 38.9975 195.715Z" fill="url(#paint0_linear_198_10230)"/>
<path d="M34.5664 183.003L36.1935 187.506C36.1935 187.506 36.3969 187.928 36.6147 187.928C36.8326 187.928 40.0725 184.557 40.0725 184.557L43.6753 177.598L34.6245 181.84L34.5664 183.003Z" fill="#C8DAEA"/>
<path d="M36.7241 184.158L36.4117 187.478C36.4117 187.478 36.281 188.495 37.2979 187.478C38.3148 186.46 39.2882 185.676 39.2882 185.676" fill="#A9C6D8"/>
<path d="M34.5959 183.164L31.2489 182.073C31.2489 182.073 30.8489 181.911 30.9777 181.543C31.0042 181.467 31.0577 181.402 31.2177 181.291C31.9593 180.775 44.9441 176.107 44.9441 176.107C44.9441 176.107 45.3107 175.984 45.527 176.066C45.5805 176.083 45.6286 176.113 45.6664 176.154C45.7043 176.196 45.7305 176.246 45.7424 176.301C45.7658 176.398 45.7755 176.497 45.7714 176.596C45.7704 176.682 45.76 176.762 45.7521 176.887C45.673 178.163 43.3064 187.686 43.3064 187.686C43.3064 187.686 43.1648 188.243 42.6575 188.262C42.5328 188.266 42.4086 188.245 42.2923 188.2C42.1759 188.155 42.0698 188.087 41.9803 188C40.9848 187.144 37.5439 184.832 36.7835 184.323C36.7664 184.311 36.7519 184.296 36.7412 184.278C36.7304 184.261 36.7236 184.241 36.7211 184.22C36.7105 184.167 36.7688 184.1 36.7688 184.1C36.7688 184.1 42.7603 178.775 42.9198 178.215C42.9321 178.172 42.8855 178.151 42.8228 178.17C42.4249 178.316 35.5264 182.673 34.765 183.153C34.7102 183.17 34.6523 183.173 34.5959 183.164Z" fill="white"/>
</g>
<rect x="15.5" y="218.5" width="47" height="47" rx="7.5" fill="#F7F9FC" stroke="#EAEFF5"/>
<path fill-rule="evenodd" clip-rule="evenodd" d="M30.5888 233.838C31.3708 234.473 31.6642 234.424 33.1327 234.326L46.9768 233.495C47.2705 233.495 47.0263 233.202 46.9284 233.154L44.6292 231.491C44.1886 231.149 43.6017 230.758 42.4767 230.856L29.0714 231.833C28.5825 231.882 28.4849 232.126 28.6796 232.322L30.5888 233.838ZM31.42 237.064V251.63C31.42 252.413 31.8112 252.706 32.6917 252.658L47.9064 251.777C48.7873 251.729 48.8855 251.19 48.8855 250.554V236.086C48.8855 235.451 48.6412 235.108 48.102 235.157L32.2024 236.086C31.6157 236.135 31.4199 236.429 31.4199 237.064H31.42ZM46.4399 237.845C46.5375 238.286 46.4399 238.726 45.9987 238.775L45.2657 238.921V249.675C44.6292 250.017 44.0422 250.213 43.5532 250.213C42.7701 250.213 42.574 249.968 41.9874 249.235L37.1923 241.708V248.991L38.7097 249.333C38.7097 249.333 38.7097 250.213 37.4855 250.213L34.1106 250.409C34.0125 250.213 34.1106 249.724 34.4529 249.627L35.3336 249.382V239.752L34.1108 239.654C34.0127 239.214 34.257 238.579 34.9424 238.53L38.5629 238.286L43.5532 245.912V239.166L42.2808 239.02C42.1832 238.481 42.574 238.09 43.0633 238.042L46.4399 237.845ZM27.9459 230.514L41.8896 229.487C43.6019 229.34 44.0424 229.438 45.1187 230.22L49.5697 233.348C50.3041 233.886 50.5489 234.033 50.5489 234.619V251.777C50.5489 252.853 50.1571 253.489 48.7876 253.586L32.5948 254.564C31.5667 254.613 31.0774 254.466 30.539 253.781L27.2612 249.529C26.6739 248.746 26.4297 248.16 26.4297 247.475V232.224C26.4297 231.345 26.8215 230.611 27.9459 230.514V230.514Z" fill="black"/>
<rect x="15.5" y="38.5" width="47" height="47" rx="7.5" fill="#F7F9FC" stroke="#EAEFF5"/>
<path fill-rule="evenodd" clip-rule="evenodd" d="M28.0692 53.5455C26.6187 54.996 26.6187 57.3306 26.6187 61.9997C26.6187 66.6689 26.6187 69.0035 28.0692 70.454C29.5197 71.9045 31.8543 71.9045 36.5234 71.9045H41.4758C46.1449 71.9045 48.4795 71.9045 49.93 70.454C51.3806 69.0035 51.3806 66.6689 51.3806 61.9997C51.3806 57.3306 51.3806 54.996 49.93 53.5455C48.4795 52.095 46.1449 52.095 41.4758 52.095H36.5234C31.8543 52.095 29.5197 52.095 28.0692 53.5455ZM47.1415 56.4529C47.4698 56.8469 47.4166 57.4324 47.0226 57.7607L44.3032 60.0269C43.2058 60.9414 42.3163 61.6827 41.5313 62.1876C40.7135 62.7135 39.9171 63.0458 38.9996 63.0458C38.0821 63.0458 37.2857 62.7135 36.4679 62.1876C35.6829 61.6827 34.7934 60.9414 33.696 60.0269L30.9766 57.7607C30.5826 57.4324 30.5294 56.8469 30.8577 56.4529C31.186 56.0589 31.7715 56.0057 32.1655 56.334L34.8384 58.5614C35.9935 59.524 36.7955 60.1902 37.4725 60.6256C38.1279 61.0471 38.5724 61.1886 38.9996 61.1886C39.4268 61.1886 39.8713 61.0471 40.5267 60.6256C41.2037 60.1902 42.0057 59.524 43.1608 58.5614L45.8337 56.334C46.2277 56.0057 46.8132 56.0589 47.1415 56.4529Z" fill="#5750F1"/>
<line x1="2.62268e-08" y1="22.7" x2="78" y2="22.7" stroke="#F1F3F9" stroke-width="0.6"/>
<defs>
<linearGradient id="paint0_linear_198_10230" x1="38.9975" y1="195.715" x2="38.9975" y2="168.286" gradientUnits="userSpaceOnUse">
<stop stop-color="#1D93D2"/>
<stop offset="1" stop-color="#38B0E3"/>
</linearGradient>
<clipPath id="clip0_198_10230">
<rect width="27.4286" height="27.4286" fill="white" transform="translate(25.2832 168.286)"/>
</clipPath>
</defs>
</svg>
