<svg width="62" height="62" viewBox="0 0 62 62" fill="none" xmlns="http://www.w3.org/2000/svg">
<path d="M52.9069 12.1537L48.9154 56.8693L30.9732 61.8433L13.0804 56.8761L9.09302 12.1537H52.9069Z" fill="#E44D26"/>
<path d="M31 58.0413L45.4982 54.0219L48.9091 15.8104H31V58.0413Z" fill="#F16529"/>
<path d="M23.2405 26.7806H31V21.2955H17.2461L17.3773 22.767L18.7255 37.8823H31V32.3973H23.7418L23.2405 26.7806V26.7806ZM24.4767 40.6249H18.9706L19.739 49.2373L30.9747 52.3562L31 52.3493V46.6425L30.9759 46.6489L24.8673 44.9995L24.4767 40.6249V40.6249Z" fill="#EBEBEB"/>
<path d="M13.1694 0H15.9569V2.75393H18.5068V0H21.2944V8.3396H18.5069V5.54702H15.957V8.3396H13.1696V0H13.1694ZM24.9597 2.76561H22.5062V0H30.2028V2.76561H27.7477V8.3396H24.9603V2.76561H24.9601H24.9597ZM31.4242 0H34.3307L36.1185 2.93032L37.9047 0H40.8123V8.3396H38.0362V4.20604L36.1185 7.17122H36.0704L34.1515 4.20604V8.3396H31.4242V0ZM42.1995 0H44.9878V5.58309H48.9077V8.3396H42.1993V0H42.1995Z" fill="black"/>
<path d="M30.9811 37.8823H37.7353L37.0985 44.996L30.981 46.6472V52.3536L42.2256 49.2373L42.3081 48.3105L43.5972 33.8702L43.731 32.3973H30.9811V37.8823ZM30.9811 26.7672V26.7806H44.2301L44.34 25.5478L44.59 22.767L44.7211 21.2955H30.9811V26.7673V26.7672Z" fill="white"/>
</svg>
