<svg width="1021" height="282" viewBox="0 0 1021 282" fill="none" xmlns="http://www.w3.org/2000/svg">
<path fill-rule="evenodd" clip-rule="evenodd" d="M-208.823 450L-208.823 -236L-207.732 -236L-207.732 450H-208.823Z" fill="url(#paint0_linear_198_9777)"/>
<path fill-rule="evenodd" clip-rule="evenodd" d="M-172.83 450L-172.829 -236L-171.739 -236L-171.739 450H-172.83Z" fill="url(#paint1_linear_198_9777)"/>
<path fill-rule="evenodd" clip-rule="evenodd" d="M-136.836 450L-136.836 -236L-135.745 -236L-135.745 450H-136.836Z" fill="url(#paint2_linear_198_9777)"/>
<path fill-rule="evenodd" clip-rule="evenodd" d="M-100.843 450L-100.843 -236L-99.7519 -236L-99.7519 450H-100.843Z" fill="url(#paint3_linear_198_9777)"/>
<path fill-rule="evenodd" clip-rule="evenodd" d="M-64.8492 450L-64.8491 -236L-63.7584 -236L-63.7585 450H-64.8492Z" fill="url(#paint4_linear_198_9777)"/>
<path fill-rule="evenodd" clip-rule="evenodd" d="M-28.8557 450L-28.8557 -236L-27.765 -236L-27.765 450H-28.8557Z" fill="url(#paint5_linear_198_9777)"/>
<path fill-rule="evenodd" clip-rule="evenodd" d="M7.13773 450L7.13776 -236L8.22847 -236L8.22844 450H7.13773Z" fill="url(#paint6_linear_198_9777)"/>
<path fill-rule="evenodd" clip-rule="evenodd" d="M43.1312 450L43.1312 -236L44.222 -236L44.2219 450H43.1312Z" fill="url(#paint7_linear_198_9777)"/>
<path fill-rule="evenodd" clip-rule="evenodd" d="M79.1246 450L79.1247 -236L80.2154 -236L80.2153 450H79.1246Z" fill="url(#paint8_linear_198_9777)"/>
<path fill-rule="evenodd" clip-rule="evenodd" d="M115.118 450L115.118 -236L116.209 -236L116.209 450H115.118Z" fill="url(#paint9_linear_198_9777)"/>
<path fill-rule="evenodd" clip-rule="evenodd" d="M151.112 450L151.112 -236L152.202 -236L152.202 450H151.112Z" fill="url(#paint10_linear_198_9777)"/>
<path fill-rule="evenodd" clip-rule="evenodd" d="M187.105 450L187.105 -236L188.196 -236L188.196 450H187.105Z" fill="url(#paint11_linear_198_9777)"/>
<path fill-rule="evenodd" clip-rule="evenodd" d="M223.098 450L223.098 -236L224.189 -236L224.189 450H223.098Z" fill="url(#paint12_linear_198_9777)"/>
<path fill-rule="evenodd" clip-rule="evenodd" d="M259.092 450L259.092 -236L260.183 -236L260.183 450H259.092Z" fill="url(#paint13_linear_198_9777)"/>
<path fill-rule="evenodd" clip-rule="evenodd" d="M295.085 450V-236L296.176 -236L296.176 450H295.085Z" fill="url(#paint14_linear_198_9777)"/>
<path fill-rule="evenodd" clip-rule="evenodd" d="M331.079 450V-236L332.169 -236V450H331.079Z" fill="url(#paint15_linear_198_9777)"/>
<path fill-rule="evenodd" clip-rule="evenodd" d="M367.072 450L367.072 -236L368.163 -236L368.163 450H367.072Z" fill="url(#paint16_linear_198_9777)"/>
<path fill-rule="evenodd" clip-rule="evenodd" d="M403.066 450L403.066 -236L404.156 -236L404.156 450H403.066Z" fill="url(#paint17_linear_198_9777)"/>
<path fill-rule="evenodd" clip-rule="evenodd" d="M439.059 450L439.059 -236L440.15 -236L440.15 450H439.059Z" fill="url(#paint18_linear_198_9777)"/>
<path fill-rule="evenodd" clip-rule="evenodd" d="M475.052 450L475.052 -236L476.143 -236L476.143 450H475.052Z" fill="url(#paint19_linear_198_9777)"/>
<path fill-rule="evenodd" clip-rule="evenodd" d="M511.046 450L511.046 -236L512.137 -236L512.137 450H511.046Z" fill="url(#paint20_linear_198_9777)"/>
<path fill-rule="evenodd" clip-rule="evenodd" d="M547.039 450L547.039 -236L548.13 -236L548.13 450H547.039Z" fill="url(#paint21_linear_198_9777)"/>
<path fill-rule="evenodd" clip-rule="evenodd" d="M583.033 450L583.033 -236L584.123 -236L584.123 450H583.033Z" fill="url(#paint22_linear_198_9777)"/>
<path fill-rule="evenodd" clip-rule="evenodd" d="M619.026 450L619.026 -236L620.117 -236L620.117 450H619.026Z" fill="url(#paint23_linear_198_9777)"/>
<path fill-rule="evenodd" clip-rule="evenodd" d="M655.019 450L655.02 -236L656.11 -236L656.11 450H655.019Z" fill="url(#paint24_linear_198_9777)"/>
<path fill-rule="evenodd" clip-rule="evenodd" d="M691.013 450L691.013 -236L692.104 -236L692.104 450H691.013Z" fill="url(#paint25_linear_198_9777)"/>
<path fill-rule="evenodd" clip-rule="evenodd" d="M727.006 450L727.006 -236L728.097 -236L728.097 450H727.006Z" fill="url(#paint26_linear_198_9777)"/>
<path fill-rule="evenodd" clip-rule="evenodd" d="M763 450L763 -236L764.091 -236L764.09 450H763Z" fill="url(#paint27_linear_198_9777)"/>
<path fill-rule="evenodd" clip-rule="evenodd" d="M798.993 450V-236L800.084 -236V450H798.993Z" fill="url(#paint28_linear_198_9777)"/>
<path fill-rule="evenodd" clip-rule="evenodd" d="M834.987 450V-236L836.077 -236V450H834.987Z" fill="url(#paint29_linear_198_9777)"/>
<path fill-rule="evenodd" clip-rule="evenodd" d="M870.98 450V-236L872.071 -236V450H870.98Z" fill="url(#paint30_linear_198_9777)"/>
<path fill-rule="evenodd" clip-rule="evenodd" d="M906.973 450V-236L908.064 -236V450H906.973Z" fill="url(#paint31_linear_198_9777)"/>
<path fill-rule="evenodd" clip-rule="evenodd" d="M942.967 450V-236L944.058 -236V450H942.967Z" fill="url(#paint32_linear_198_9777)"/>
<path fill-rule="evenodd" clip-rule="evenodd" d="M978.96 450V-236L980.051 -236V450H978.96Z" fill="url(#paint33_linear_198_9777)"/>
<path fill-rule="evenodd" clip-rule="evenodd" d="M1014.95 450V-236L1016.04 -236V450H1014.95Z" fill="url(#paint34_linear_198_9777)"/>
<path fill-rule="evenodd" clip-rule="evenodd" d="M1050.95 450V-236L1052.04 -236V450H1050.95Z" fill="url(#paint35_linear_198_9777)"/>
<path fill-rule="evenodd" clip-rule="evenodd" d="M1086.94 450V-236L1088.03 -236V450H1086.94Z" fill="url(#paint36_linear_198_9777)"/>
<path fill-rule="evenodd" clip-rule="evenodd" d="M1122.93 450V-236L1124.02 -236V450H1122.93Z" fill="url(#paint37_linear_198_9777)"/>
<path fill-rule="evenodd" clip-rule="evenodd" d="M1158.93 450V-236L1160.02 -236V450H1158.93Z" fill="url(#paint38_linear_198_9777)"/>
<path fill-rule="evenodd" clip-rule="evenodd" d="M1194.92 450V-236L1196.01 -236V450H1194.92Z" fill="url(#paint39_linear_198_9777)"/>
<path fill-rule="evenodd" clip-rule="evenodd" d="M1230.91 450V-236L1232 -236V450H1230.91Z" fill="url(#paint40_linear_198_9777)"/>
<path fill-rule="evenodd" clip-rule="evenodd" d="M1256 430.401H-235V429.312H1256V430.401Z" fill="url(#paint41_linear_198_9777)"/>
<path fill-rule="evenodd" clip-rule="evenodd" d="M1256 394.468H-235V393.379H1256V394.468Z" fill="url(#paint42_linear_198_9777)"/>
<path fill-rule="evenodd" clip-rule="evenodd" d="M1256 358.534H-235V357.445H1256V358.534Z" fill="url(#paint43_linear_198_9777)"/>
<path fill-rule="evenodd" clip-rule="evenodd" d="M1256 322.601H-235V321.512H1256V322.601Z" fill="url(#paint44_linear_198_9777)"/>
<path fill-rule="evenodd" clip-rule="evenodd" d="M1256 286.667H-235V285.578H1256V286.667Z" fill="url(#paint45_linear_198_9777)"/>
<path fill-rule="evenodd" clip-rule="evenodd" d="M1256 250.734H-235V249.645H1256V250.734Z" fill="url(#paint46_linear_198_9777)"/>
<path fill-rule="evenodd" clip-rule="evenodd" d="M1256 214.801H-235V213.712H1256V214.801Z" fill="url(#paint47_linear_198_9777)"/>
<path fill-rule="evenodd" clip-rule="evenodd" d="M1256 178.867H-235V177.778H1256V178.867Z" fill="url(#paint48_linear_198_9777)"/>
<path fill-rule="evenodd" clip-rule="evenodd" d="M1256 142.934H-235V141.845H1256V142.934Z" fill="url(#paint49_linear_198_9777)"/>
<path fill-rule="evenodd" clip-rule="evenodd" d="M1256 107H-235V105.911H1256V107Z" fill="url(#paint50_linear_198_9777)"/>
<path fill-rule="evenodd" clip-rule="evenodd" d="M1256 71.0667H-235V69.9778H1256V71.0667Z" fill="url(#paint51_linear_198_9777)"/>
<path fill-rule="evenodd" clip-rule="evenodd" d="M1256 35.1333H-235V34.0444H1256V35.1333Z" fill="url(#paint52_linear_198_9777)"/>
<path fill-rule="evenodd" clip-rule="evenodd" d="M1256 -0.800003H-235V-1.88889H1256V-0.800003Z" fill="url(#paint53_linear_198_9777)"/>
<path fill-rule="evenodd" clip-rule="evenodd" d="M1256 -36.7333H-235V-37.8222H1256V-36.7333Z" fill="url(#paint54_linear_198_9777)"/>
<path fill-rule="evenodd" clip-rule="evenodd" d="M1256 -72.6667H-235V-73.7556H1256V-72.6667Z" fill="url(#paint55_linear_198_9777)"/>
<path fill-rule="evenodd" clip-rule="evenodd" d="M1256 -108.6H-235V-109.689H1256V-108.6Z" fill="url(#paint56_linear_198_9777)"/>
<path fill-rule="evenodd" clip-rule="evenodd" d="M1256 -144.533H-235V-145.622H1256V-144.533Z" fill="url(#paint57_linear_198_9777)"/>
<path fill-rule="evenodd" clip-rule="evenodd" d="M1256 -180.467H-235V-181.556H1256V-180.467Z" fill="url(#paint58_linear_198_9777)"/>
<path fill-rule="evenodd" clip-rule="evenodd" d="M1256 -216.401H-235V-217.489H1256V-216.401Z" fill="url(#paint59_linear_198_9777)"/>
<defs>
<linearGradient id="paint0_linear_198_9777" x1="510.5" y1="-236" x2="510.5" y2="377.589" gradientUnits="userSpaceOnUse">
<stop stop-color="#EBEEF8" stop-opacity="0"/>
<stop offset="0.453125" stop-color="#EBEEF8" stop-opacity="0.546875"/>
<stop offset="1" stop-color="#EBEEF8" stop-opacity="0"/>
</linearGradient>
<linearGradient id="paint1_linear_198_9777" x1="510.5" y1="-236" x2="510.5" y2="377.589" gradientUnits="userSpaceOnUse">
<stop stop-color="#EBEEF8" stop-opacity="0"/>
<stop offset="0.453125" stop-color="#EBEEF8" stop-opacity="0.546875"/>
<stop offset="1" stop-color="#EBEEF8" stop-opacity="0"/>
</linearGradient>
<linearGradient id="paint2_linear_198_9777" x1="510.5" y1="-236" x2="510.5" y2="377.589" gradientUnits="userSpaceOnUse">
<stop stop-color="#EBEEF8" stop-opacity="0"/>
<stop offset="0.453125" stop-color="#EBEEF8" stop-opacity="0.546875"/>
<stop offset="1" stop-color="#EBEEF8" stop-opacity="0"/>
</linearGradient>
<linearGradient id="paint3_linear_198_9777" x1="510.5" y1="-236" x2="510.5" y2="377.589" gradientUnits="userSpaceOnUse">
<stop stop-color="#EBEEF8" stop-opacity="0"/>
<stop offset="0.453125" stop-color="#EBEEF8" stop-opacity="0.546875"/>
<stop offset="1" stop-color="#EBEEF8" stop-opacity="0"/>
</linearGradient>
<linearGradient id="paint4_linear_198_9777" x1="510.5" y1="-236" x2="510.5" y2="377.589" gradientUnits="userSpaceOnUse">
<stop stop-color="#EBEEF8" stop-opacity="0"/>
<stop offset="0.453125" stop-color="#EBEEF8" stop-opacity="0.546875"/>
<stop offset="1" stop-color="#EBEEF8" stop-opacity="0"/>
</linearGradient>
<linearGradient id="paint5_linear_198_9777" x1="510.5" y1="-236" x2="510.5" y2="377.589" gradientUnits="userSpaceOnUse">
<stop stop-color="#EBEEF8" stop-opacity="0"/>
<stop offset="0.453125" stop-color="#EBEEF8" stop-opacity="0.546875"/>
<stop offset="1" stop-color="#EBEEF8" stop-opacity="0"/>
</linearGradient>
<linearGradient id="paint6_linear_198_9777" x1="510.5" y1="-236" x2="510.5" y2="377.589" gradientUnits="userSpaceOnUse">
<stop stop-color="#EBEEF8" stop-opacity="0"/>
<stop offset="0.453125" stop-color="#EBEEF8" stop-opacity="0.546875"/>
<stop offset="1" stop-color="#EBEEF8" stop-opacity="0"/>
</linearGradient>
<linearGradient id="paint7_linear_198_9777" x1="510.5" y1="-236" x2="510.5" y2="377.589" gradientUnits="userSpaceOnUse">
<stop stop-color="#EBEEF8" stop-opacity="0"/>
<stop offset="0.453125" stop-color="#EBEEF8" stop-opacity="0.546875"/>
<stop offset="1" stop-color="#EBEEF8" stop-opacity="0"/>
</linearGradient>
<linearGradient id="paint8_linear_198_9777" x1="510.5" y1="-236" x2="510.5" y2="377.589" gradientUnits="userSpaceOnUse">
<stop stop-color="#EBEEF8" stop-opacity="0"/>
<stop offset="0.453125" stop-color="#EBEEF8" stop-opacity="0.546875"/>
<stop offset="1" stop-color="#EBEEF8" stop-opacity="0"/>
</linearGradient>
<linearGradient id="paint9_linear_198_9777" x1="510.5" y1="-236" x2="510.5" y2="377.589" gradientUnits="userSpaceOnUse">
<stop stop-color="#EBEEF8" stop-opacity="0"/>
<stop offset="0.453125" stop-color="#EBEEF8" stop-opacity="0.546875"/>
<stop offset="1" stop-color="#EBEEF8" stop-opacity="0"/>
</linearGradient>
<linearGradient id="paint10_linear_198_9777" x1="510.5" y1="-236" x2="510.5" y2="377.589" gradientUnits="userSpaceOnUse">
<stop stop-color="#EBEEF8" stop-opacity="0"/>
<stop offset="0.453125" stop-color="#EBEEF8" stop-opacity="0.546875"/>
<stop offset="1" stop-color="#EBEEF8" stop-opacity="0"/>
</linearGradient>
<linearGradient id="paint11_linear_198_9777" x1="510.5" y1="-236" x2="510.5" y2="377.589" gradientUnits="userSpaceOnUse">
<stop stop-color="#EBEEF8" stop-opacity="0"/>
<stop offset="0.453125" stop-color="#EBEEF8" stop-opacity="0.546875"/>
<stop offset="1" stop-color="#EBEEF8" stop-opacity="0"/>
</linearGradient>
<linearGradient id="paint12_linear_198_9777" x1="510.5" y1="-236" x2="510.5" y2="377.589" gradientUnits="userSpaceOnUse">
<stop stop-color="#EBEEF8" stop-opacity="0"/>
<stop offset="0.453125" stop-color="#EBEEF8" stop-opacity="0.546875"/>
<stop offset="1" stop-color="#EBEEF8" stop-opacity="0"/>
</linearGradient>
<linearGradient id="paint13_linear_198_9777" x1="510.5" y1="-236" x2="510.5" y2="377.589" gradientUnits="userSpaceOnUse">
<stop stop-color="#EBEEF8" stop-opacity="0"/>
<stop offset="0.453125" stop-color="#EBEEF8" stop-opacity="0.546875"/>
<stop offset="1" stop-color="#EBEEF8" stop-opacity="0"/>
</linearGradient>
<linearGradient id="paint14_linear_198_9777" x1="510.5" y1="-236" x2="510.5" y2="377.589" gradientUnits="userSpaceOnUse">
<stop stop-color="#EBEEF8" stop-opacity="0"/>
<stop offset="0.453125" stop-color="#EBEEF8" stop-opacity="0.546875"/>
<stop offset="1" stop-color="#EBEEF8" stop-opacity="0"/>
</linearGradient>
<linearGradient id="paint15_linear_198_9777" x1="510.5" y1="-236" x2="510.5" y2="377.589" gradientUnits="userSpaceOnUse">
<stop stop-color="#EBEEF8" stop-opacity="0"/>
<stop offset="0.453125" stop-color="#EBEEF8" stop-opacity="0.546875"/>
<stop offset="1" stop-color="#EBEEF8" stop-opacity="0"/>
</linearGradient>
<linearGradient id="paint16_linear_198_9777" x1="510.5" y1="-236" x2="510.5" y2="377.589" gradientUnits="userSpaceOnUse">
<stop stop-color="#EBEEF8" stop-opacity="0"/>
<stop offset="0.453125" stop-color="#EBEEF8" stop-opacity="0.546875"/>
<stop offset="1" stop-color="#EBEEF8" stop-opacity="0"/>
</linearGradient>
<linearGradient id="paint17_linear_198_9777" x1="510.5" y1="-236" x2="510.5" y2="377.589" gradientUnits="userSpaceOnUse">
<stop stop-color="#EBEEF8" stop-opacity="0"/>
<stop offset="0.453125" stop-color="#EBEEF8" stop-opacity="0.546875"/>
<stop offset="1" stop-color="#EBEEF8" stop-opacity="0"/>
</linearGradient>
<linearGradient id="paint18_linear_198_9777" x1="510.5" y1="-236" x2="510.5" y2="377.589" gradientUnits="userSpaceOnUse">
<stop stop-color="#EBEEF8" stop-opacity="0"/>
<stop offset="0.453125" stop-color="#EBEEF8" stop-opacity="0.546875"/>
<stop offset="1" stop-color="#EBEEF8" stop-opacity="0"/>
</linearGradient>
<linearGradient id="paint19_linear_198_9777" x1="510.5" y1="-236" x2="510.5" y2="377.589" gradientUnits="userSpaceOnUse">
<stop stop-color="#EBEEF8" stop-opacity="0"/>
<stop offset="0.453125" stop-color="#EBEEF8" stop-opacity="0.546875"/>
<stop offset="1" stop-color="#EBEEF8" stop-opacity="0"/>
</linearGradient>
<linearGradient id="paint20_linear_198_9777" x1="510.5" y1="-236" x2="510.5" y2="377.589" gradientUnits="userSpaceOnUse">
<stop stop-color="#EBEEF8" stop-opacity="0"/>
<stop offset="0.453125" stop-color="#EBEEF8" stop-opacity="0.546875"/>
<stop offset="1" stop-color="#EBEEF8" stop-opacity="0"/>
</linearGradient>
<linearGradient id="paint21_linear_198_9777" x1="510.5" y1="-236" x2="510.5" y2="377.589" gradientUnits="userSpaceOnUse">
<stop stop-color="#EBEEF8" stop-opacity="0"/>
<stop offset="0.453125" stop-color="#EBEEF8" stop-opacity="0.546875"/>
<stop offset="1" stop-color="#EBEEF8" stop-opacity="0"/>
</linearGradient>
<linearGradient id="paint22_linear_198_9777" x1="510.5" y1="-236" x2="510.5" y2="377.589" gradientUnits="userSpaceOnUse">
<stop stop-color="#EBEEF8" stop-opacity="0"/>
<stop offset="0.453125" stop-color="#EBEEF8" stop-opacity="0.546875"/>
<stop offset="1" stop-color="#EBEEF8" stop-opacity="0"/>
</linearGradient>
<linearGradient id="paint23_linear_198_9777" x1="510.5" y1="-236" x2="510.5" y2="377.589" gradientUnits="userSpaceOnUse">
<stop stop-color="#EBEEF8" stop-opacity="0"/>
<stop offset="0.453125" stop-color="#EBEEF8" stop-opacity="0.546875"/>
<stop offset="1" stop-color="#EBEEF8" stop-opacity="0"/>
</linearGradient>
<linearGradient id="paint24_linear_198_9777" x1="510.5" y1="-236" x2="510.5" y2="377.589" gradientUnits="userSpaceOnUse">
<stop stop-color="#EBEEF8" stop-opacity="0"/>
<stop offset="0.453125" stop-color="#EBEEF8" stop-opacity="0.546875"/>
<stop offset="1" stop-color="#EBEEF8" stop-opacity="0"/>
</linearGradient>
<linearGradient id="paint25_linear_198_9777" x1="510.5" y1="-236" x2="510.5" y2="377.589" gradientUnits="userSpaceOnUse">
<stop stop-color="#EBEEF8" stop-opacity="0"/>
<stop offset="0.453125" stop-color="#EBEEF8" stop-opacity="0.546875"/>
<stop offset="1" stop-color="#EBEEF8" stop-opacity="0"/>
</linearGradient>
<linearGradient id="paint26_linear_198_9777" x1="510.5" y1="-236" x2="510.5" y2="377.589" gradientUnits="userSpaceOnUse">
<stop stop-color="#EBEEF8" stop-opacity="0"/>
<stop offset="0.453125" stop-color="#EBEEF8" stop-opacity="0.546875"/>
<stop offset="1" stop-color="#EBEEF8" stop-opacity="0"/>
</linearGradient>
<linearGradient id="paint27_linear_198_9777" x1="510.5" y1="-236" x2="510.5" y2="377.589" gradientUnits="userSpaceOnUse">
<stop stop-color="#EBEEF8" stop-opacity="0"/>
<stop offset="0.453125" stop-color="#EBEEF8" stop-opacity="0.546875"/>
<stop offset="1" stop-color="#EBEEF8" stop-opacity="0"/>
</linearGradient>
<linearGradient id="paint28_linear_198_9777" x1="510.5" y1="-236" x2="510.5" y2="377.589" gradientUnits="userSpaceOnUse">
<stop stop-color="#EBEEF8" stop-opacity="0"/>
<stop offset="0.453125" stop-color="#EBEEF8" stop-opacity="0.546875"/>
<stop offset="1" stop-color="#EBEEF8" stop-opacity="0"/>
</linearGradient>
<linearGradient id="paint29_linear_198_9777" x1="510.5" y1="-236" x2="510.5" y2="377.589" gradientUnits="userSpaceOnUse">
<stop stop-color="#EBEEF8" stop-opacity="0"/>
<stop offset="0.453125" stop-color="#EBEEF8" stop-opacity="0.546875"/>
<stop offset="1" stop-color="#EBEEF8" stop-opacity="0"/>
</linearGradient>
<linearGradient id="paint30_linear_198_9777" x1="510.5" y1="-236" x2="510.5" y2="377.589" gradientUnits="userSpaceOnUse">
<stop stop-color="#EBEEF8" stop-opacity="0"/>
<stop offset="0.453125" stop-color="#EBEEF8" stop-opacity="0.546875"/>
<stop offset="1" stop-color="#EBEEF8" stop-opacity="0"/>
</linearGradient>
<linearGradient id="paint31_linear_198_9777" x1="510.5" y1="-236" x2="510.5" y2="377.589" gradientUnits="userSpaceOnUse">
<stop stop-color="#EBEEF8" stop-opacity="0"/>
<stop offset="0.453125" stop-color="#EBEEF8" stop-opacity="0.546875"/>
<stop offset="1" stop-color="#EBEEF8" stop-opacity="0"/>
</linearGradient>
<linearGradient id="paint32_linear_198_9777" x1="510.5" y1="-236" x2="510.5" y2="377.589" gradientUnits="userSpaceOnUse">
<stop stop-color="#EBEEF8" stop-opacity="0"/>
<stop offset="0.453125" stop-color="#EBEEF8" stop-opacity="0.546875"/>
<stop offset="1" stop-color="#EBEEF8" stop-opacity="0"/>
</linearGradient>
<linearGradient id="paint33_linear_198_9777" x1="510.5" y1="-236" x2="510.5" y2="377.589" gradientUnits="userSpaceOnUse">
<stop stop-color="#EBEEF8" stop-opacity="0"/>
<stop offset="0.453125" stop-color="#EBEEF8" stop-opacity="0.546875"/>
<stop offset="1" stop-color="#EBEEF8" stop-opacity="0"/>
</linearGradient>
<linearGradient id="paint34_linear_198_9777" x1="510.5" y1="-236" x2="510.5" y2="377.589" gradientUnits="userSpaceOnUse">
<stop stop-color="#EBEEF8" stop-opacity="0"/>
<stop offset="0.453125" stop-color="#EBEEF8" stop-opacity="0.546875"/>
<stop offset="1" stop-color="#EBEEF8" stop-opacity="0"/>
</linearGradient>
<linearGradient id="paint35_linear_198_9777" x1="510.5" y1="-236" x2="510.5" y2="377.589" gradientUnits="userSpaceOnUse">
<stop stop-color="#EBEEF8" stop-opacity="0"/>
<stop offset="0.453125" stop-color="#EBEEF8" stop-opacity="0.546875"/>
<stop offset="1" stop-color="#EBEEF8" stop-opacity="0"/>
</linearGradient>
<linearGradient id="paint36_linear_198_9777" x1="510.5" y1="-236" x2="510.5" y2="377.589" gradientUnits="userSpaceOnUse">
<stop stop-color="#EBEEF8" stop-opacity="0"/>
<stop offset="0.453125" stop-color="#EBEEF8" stop-opacity="0.546875"/>
<stop offset="1" stop-color="#EBEEF8" stop-opacity="0"/>
</linearGradient>
<linearGradient id="paint37_linear_198_9777" x1="510.5" y1="-236" x2="510.5" y2="377.589" gradientUnits="userSpaceOnUse">
<stop stop-color="#EBEEF8" stop-opacity="0"/>
<stop offset="0.453125" stop-color="#EBEEF8" stop-opacity="0.546875"/>
<stop offset="1" stop-color="#EBEEF8" stop-opacity="0"/>
</linearGradient>
<linearGradient id="paint38_linear_198_9777" x1="510.5" y1="-236" x2="510.5" y2="377.589" gradientUnits="userSpaceOnUse">
<stop stop-color="#EBEEF8" stop-opacity="0"/>
<stop offset="0.453125" stop-color="#EBEEF8" stop-opacity="0.546875"/>
<stop offset="1" stop-color="#EBEEF8" stop-opacity="0"/>
</linearGradient>
<linearGradient id="paint39_linear_198_9777" x1="510.5" y1="-236" x2="510.5" y2="377.589" gradientUnits="userSpaceOnUse">
<stop stop-color="#EBEEF8" stop-opacity="0"/>
<stop offset="0.453125" stop-color="#EBEEF8" stop-opacity="0.546875"/>
<stop offset="1" stop-color="#EBEEF8" stop-opacity="0"/>
</linearGradient>
<linearGradient id="paint40_linear_198_9777" x1="510.5" y1="-236" x2="510.5" y2="377.589" gradientUnits="userSpaceOnUse">
<stop stop-color="#EBEEF8" stop-opacity="0"/>
<stop offset="0.453125" stop-color="#EBEEF8" stop-opacity="0.546875"/>
<stop offset="1" stop-color="#EBEEF8" stop-opacity="0"/>
</linearGradient>
<linearGradient id="paint41_linear_198_9777" x1="510.5" y1="-236" x2="510.5" y2="377.589" gradientUnits="userSpaceOnUse">
<stop stop-color="#EBEEF8" stop-opacity="0"/>
<stop offset="0.453125" stop-color="#EBEEF8" stop-opacity="0.546875"/>
<stop offset="1" stop-color="#EBEEF8" stop-opacity="0"/>
</linearGradient>
<linearGradient id="paint42_linear_198_9777" x1="510.5" y1="-236" x2="510.5" y2="377.589" gradientUnits="userSpaceOnUse">
<stop stop-color="#EBEEF8" stop-opacity="0"/>
<stop offset="0.453125" stop-color="#EBEEF8" stop-opacity="0.546875"/>
<stop offset="1" stop-color="#EBEEF8" stop-opacity="0"/>
</linearGradient>
<linearGradient id="paint43_linear_198_9777" x1="510.5" y1="-236" x2="510.5" y2="377.589" gradientUnits="userSpaceOnUse">
<stop stop-color="#EBEEF8" stop-opacity="0"/>
<stop offset="0.453125" stop-color="#EBEEF8" stop-opacity="0.546875"/>
<stop offset="1" stop-color="#EBEEF8" stop-opacity="0"/>
</linearGradient>
<linearGradient id="paint44_linear_198_9777" x1="510.5" y1="-236" x2="510.5" y2="377.589" gradientUnits="userSpaceOnUse">
<stop stop-color="#EBEEF8" stop-opacity="0"/>
<stop offset="0.453125" stop-color="#EBEEF8" stop-opacity="0.546875"/>
<stop offset="1" stop-color="#EBEEF8" stop-opacity="0"/>
</linearGradient>
<linearGradient id="paint45_linear_198_9777" x1="510.5" y1="-236" x2="510.5" y2="377.589" gradientUnits="userSpaceOnUse">
<stop stop-color="#EBEEF8" stop-opacity="0"/>
<stop offset="0.453125" stop-color="#EBEEF8" stop-opacity="0.546875"/>
<stop offset="1" stop-color="#EBEEF8" stop-opacity="0"/>
</linearGradient>
<linearGradient id="paint46_linear_198_9777" x1="510.5" y1="-236" x2="510.5" y2="377.589" gradientUnits="userSpaceOnUse">
<stop stop-color="#EBEEF8" stop-opacity="0"/>
<stop offset="0.453125" stop-color="#EBEEF8" stop-opacity="0.546875"/>
<stop offset="1" stop-color="#EBEEF8" stop-opacity="0"/>
</linearGradient>
<linearGradient id="paint47_linear_198_9777" x1="510.5" y1="-236" x2="510.5" y2="377.589" gradientUnits="userSpaceOnUse">
<stop stop-color="#EBEEF8" stop-opacity="0"/>
<stop offset="0.453125" stop-color="#EBEEF8" stop-opacity="0.546875"/>
<stop offset="1" stop-color="#EBEEF8" stop-opacity="0"/>
</linearGradient>
<linearGradient id="paint48_linear_198_9777" x1="510.5" y1="-236" x2="510.5" y2="377.589" gradientUnits="userSpaceOnUse">
<stop stop-color="#EBEEF8" stop-opacity="0"/>
<stop offset="0.453125" stop-color="#EBEEF8" stop-opacity="0.546875"/>
<stop offset="1" stop-color="#EBEEF8" stop-opacity="0"/>
</linearGradient>
<linearGradient id="paint49_linear_198_9777" x1="510.5" y1="-236" x2="510.5" y2="377.589" gradientUnits="userSpaceOnUse">
<stop stop-color="#EBEEF8" stop-opacity="0"/>
<stop offset="0.453125" stop-color="#EBEEF8" stop-opacity="0.546875"/>
<stop offset="1" stop-color="#EBEEF8" stop-opacity="0"/>
</linearGradient>
<linearGradient id="paint50_linear_198_9777" x1="510.5" y1="-236" x2="510.5" y2="377.589" gradientUnits="userSpaceOnUse">
<stop stop-color="#EBEEF8" stop-opacity="0"/>
<stop offset="0.453125" stop-color="#EBEEF8" stop-opacity="0.546875"/>
<stop offset="1" stop-color="#EBEEF8" stop-opacity="0"/>
</linearGradient>
<linearGradient id="paint51_linear_198_9777" x1="510.5" y1="-236" x2="510.5" y2="377.589" gradientUnits="userSpaceOnUse">
<stop stop-color="#EBEEF8" stop-opacity="0"/>
<stop offset="0.453125" stop-color="#EBEEF8" stop-opacity="0.546875"/>
<stop offset="1" stop-color="#EBEEF8" stop-opacity="0"/>
</linearGradient>
<linearGradient id="paint52_linear_198_9777" x1="510.5" y1="-236" x2="510.5" y2="377.589" gradientUnits="userSpaceOnUse">
<stop stop-color="#EBEEF8" stop-opacity="0"/>
<stop offset="0.453125" stop-color="#EBEEF8" stop-opacity="0.546875"/>
<stop offset="1" stop-color="#EBEEF8" stop-opacity="0"/>
</linearGradient>
<linearGradient id="paint53_linear_198_9777" x1="510.5" y1="-236" x2="510.5" y2="377.589" gradientUnits="userSpaceOnUse">
<stop stop-color="#EBEEF8" stop-opacity="0"/>
<stop offset="0.453125" stop-color="#EBEEF8" stop-opacity="0.546875"/>
<stop offset="1" stop-color="#EBEEF8" stop-opacity="0"/>
</linearGradient>
<linearGradient id="paint54_linear_198_9777" x1="510.5" y1="-236" x2="510.5" y2="377.589" gradientUnits="userSpaceOnUse">
<stop stop-color="#EBEEF8" stop-opacity="0"/>
<stop offset="0.453125" stop-color="#EBEEF8" stop-opacity="0.546875"/>
<stop offset="1" stop-color="#EBEEF8" stop-opacity="0"/>
</linearGradient>
<linearGradient id="paint55_linear_198_9777" x1="510.5" y1="-236" x2="510.5" y2="377.589" gradientUnits="userSpaceOnUse">
<stop stop-color="#EBEEF8" stop-opacity="0"/>
<stop offset="0.453125" stop-color="#EBEEF8" stop-opacity="0.546875"/>
<stop offset="1" stop-color="#EBEEF8" stop-opacity="0"/>
</linearGradient>
<linearGradient id="paint56_linear_198_9777" x1="510.5" y1="-236" x2="510.5" y2="377.589" gradientUnits="userSpaceOnUse">
<stop stop-color="#EBEEF8" stop-opacity="0"/>
<stop offset="0.453125" stop-color="#EBEEF8" stop-opacity="0.546875"/>
<stop offset="1" stop-color="#EBEEF8" stop-opacity="0"/>
</linearGradient>
<linearGradient id="paint57_linear_198_9777" x1="510.5" y1="-236" x2="510.5" y2="377.589" gradientUnits="userSpaceOnUse">
<stop stop-color="#EBEEF8" stop-opacity="0"/>
<stop offset="0.453125" stop-color="#EBEEF8" stop-opacity="0.546875"/>
<stop offset="1" stop-color="#EBEEF8" stop-opacity="0"/>
</linearGradient>
<linearGradient id="paint58_linear_198_9777" x1="510.5" y1="-236" x2="510.5" y2="377.589" gradientUnits="userSpaceOnUse">
<stop stop-color="#EBEEF8" stop-opacity="0"/>
<stop offset="0.453125" stop-color="#EBEEF8" stop-opacity="0.546875"/>
<stop offset="1" stop-color="#EBEEF8" stop-opacity="0"/>
</linearGradient>
<linearGradient id="paint59_linear_198_9777" x1="510.5" y1="-236" x2="510.5" y2="377.589" gradientUnits="userSpaceOnUse">
<stop stop-color="#EBEEF8" stop-opacity="0"/>
<stop offset="0.453125" stop-color="#EBEEF8" stop-opacity="0.546875"/>
<stop offset="1" stop-color="#EBEEF8" stop-opacity="0"/>
</linearGradient>
</defs>
</svg>
