<svg width="45" height="60" viewBox="0 0 45 60" fill="none" xmlns="http://www.w3.org/2000/svg">
<mask id="mask0_1758_3" style="mask-type:alpha" maskUnits="userSpaceOnUse" x="0" y="0" width="44" height="60">
<path d="M27.2388 0.858215H4.7201C2.53446 0.858215 0.746216 2.64646 0.746216 4.8321V55.1679C0.746216 57.3536 2.53446 59.1418 4.7201 59.1418H39.1604C41.346 59.1418 43.1343 57.3536 43.1343 55.1679V16.7537L27.2388 0.858215Z" fill="white"/>
</mask>
<g mask="url(#mask0_1758_3)">
<path d="M27.2388 0.858215H4.7201C2.53446 0.858215 0.746216 2.64646 0.746216 4.8321V55.1679C0.746216 57.3536 2.53446 59.1418 4.7201 59.1418H39.1604C41.346 59.1418 43.1343 57.3536 43.1343 55.1679V16.7537L33.8619 10.1306L27.2388 0.858215Z" fill="#0F9D58"/>
</g>
<mask id="mask1_1758_3" style="mask-type:alpha" maskUnits="userSpaceOnUse" x="0" y="0" width="44" height="60">
<path d="M27.2388 0.858215H4.7201C2.53446 0.858215 0.746216 2.64646 0.746216 4.8321V55.1679C0.746216 57.3536 2.53446 59.1418 4.7201 59.1418H39.1604C41.346 59.1418 43.1343 57.3536 43.1343 55.1679V16.7537L27.2388 0.858215Z" fill="white"/>
</mask>
<g mask="url(#mask1_1758_3)">
<path d="M11.3433 29.3377V48.5448H32.5373V29.3377H11.3433ZM20.6157 45.8955H13.9926V42.584H20.6157V45.8955ZM20.6157 40.597H13.9926V37.2854H20.6157V40.597ZM20.6157 35.2985H13.9926V31.9869H20.6157V35.2985ZM29.8881 45.8955H23.2649V42.584H29.8881V45.8955ZM29.8881 40.597H23.2649V37.2854H29.8881V40.597ZM29.8881 35.2985H23.2649V31.9869H29.8881V35.2985Z" fill="#F1F1F1"/>
</g>
<mask id="mask2_1758_3" style="mask-type:alpha" maskUnits="userSpaceOnUse" x="0" y="0" width="44" height="60">
<path d="M27.2388 0.858215H4.7201C2.53446 0.858215 0.746216 2.64646 0.746216 4.8321V55.1679C0.746216 57.3536 2.53446 59.1418 4.7201 59.1418H39.1604C41.346 59.1418 43.1343 57.3536 43.1343 55.1679V16.7537L27.2388 0.858215Z" fill="white"/>
</mask>
<g mask="url(#mask2_1758_3)">
<path d="M28.4011 15.5914L43.1343 30.3213V16.7537L28.4011 15.5914Z" fill="url(#paint0_linear_1758_3)"/>
</g>
<mask id="mask3_1758_3" style="mask-type:alpha" maskUnits="userSpaceOnUse" x="0" y="0" width="44" height="60">
<path d="M27.2388 0.858215H4.7201C2.53446 0.858215 0.746216 2.64646 0.746216 4.8321V55.1679C0.746216 57.3536 2.53446 59.1418 4.7201 59.1418H39.1604C41.346 59.1418 43.1343 57.3536 43.1343 55.1679V16.7537L27.2388 0.858215Z" fill="white"/>
</mask>
<g mask="url(#mask3_1758_3)">
<path d="M27.2388 0.858215V12.7799C27.2388 14.9754 29.017 16.7537 31.2126 16.7537H43.1343L27.2388 0.858215Z" fill="#87CEAC"/>
</g>
<mask id="mask4_1758_3" style="mask-type:alpha" maskUnits="userSpaceOnUse" x="0" y="0" width="44" height="60">
<path d="M27.2388 0.858215H4.7201C2.53446 0.858215 0.746216 2.64646 0.746216 4.8321V55.1679C0.746216 57.3536 2.53446 59.1418 4.7201 59.1418H39.1604C41.346 59.1418 43.1343 57.3536 43.1343 55.1679V16.7537L27.2388 0.858215Z" fill="white"/>
</mask>
<g mask="url(#mask4_1758_3)">
<path d="M4.7201 0.858215C2.53446 0.858215 0.746216 2.64646 0.746216 4.8321V5.16325C0.746216 2.97762 2.53446 1.18937 4.7201 1.18937H27.2388V0.858215H4.7201Z" fill="white" fill-opacity="0.2"/>
<path d="M39.1604 58.8106H4.7201C2.53446 58.8106 0.746216 57.0224 0.746216 54.8368V55.1679C0.746216 57.3536 2.53446 59.1418 4.7201 59.1418H39.1604C41.346 59.1418 43.1343 57.3536 43.1343 55.1679V54.8368C43.1343 57.0224 41.346 58.8106 39.1604 58.8106Z" fill="#263238" fill-opacity="0.2"/>
<path d="M31.2126 16.7537C29.017 16.7537 27.2388 14.9754 27.2388 12.7799V13.111C27.2388 15.3066 29.017 17.0849 31.2126 17.0849H43.1343V16.7537H31.2126Z" fill="#263238" fill-opacity="0.1"/>
</g>
<defs>
<linearGradient id="paint0_linear_1758_3" x1="35.7685" y1="16.8561" x2="35.7685" y2="30.3233" gradientUnits="userSpaceOnUse">
<stop stop-color="#263238" stop-opacity="0.2"/>
<stop offset="1" stop-color="#263238" stop-opacity="0.02"/>
</linearGradient>
</defs>
</svg>
