<svg width="60" height="60" viewBox="0 0 60 60" fill="none" xmlns="http://www.w3.org/2000/svg">
<g clip-path="url(#clip0_1725_4093)">
<path fill-rule="evenodd" clip-rule="evenodd" d="M11.2433 10.6781C13.0999 12.1865 13.7963 12.0714 17.2827 11.8388L50.1501 9.86522C50.8472 9.86522 50.2675 9.16979 50.035 9.05424L44.5765 5.10811C43.5305 4.29608 42.1371 3.36615 39.4664 3.59878L7.64086 5.92002C6.48018 6.03511 6.24837 6.61545 6.71058 7.08059L11.2433 10.6781ZM13.2166 18.3378V52.92C13.2166 54.7786 14.1453 55.4739 16.2357 55.3589L52.357 53.2688C54.4484 53.1538 54.6814 51.8755 54.6814 50.3657V16.0155C54.6814 14.5082 54.1015 13.6953 52.8213 13.8113L15.0742 16.0155C13.6811 16.1326 13.2165 16.8294 13.2165 18.3378H13.2166ZM48.8754 20.1929C49.1069 21.2383 48.8754 22.2829 47.8279 22.4004L46.0876 22.7472V48.278C44.5765 49.0901 43.1831 49.5545 42.0219 49.5545C40.1629 49.5545 39.6973 48.9738 38.3048 47.234L26.9206 29.3623V46.6537L30.523 47.4665C30.523 47.4665 30.523 49.5545 27.6166 49.5545L19.6043 50.0192C19.3716 49.5545 19.6043 48.3949 20.4171 48.1627L22.5079 47.5832V24.7206L19.6049 24.488C19.372 23.4425 19.9519 21.9351 21.5791 21.8181L30.1745 21.2387L42.0219 39.3431V23.3274L39.0012 22.9808C38.7694 21.7027 39.6973 20.7746 40.8589 20.6595L48.8754 20.1929ZM4.96873 2.78686L38.0724 0.349009C42.1376 0.000358412 43.1835 0.233927 45.7386 2.08991L56.3057 9.51703C58.0493 10.7942 58.6304 11.1419 58.6304 12.5342V53.2688C58.6304 55.8217 57.7004 57.3315 54.449 57.5625L16.0057 59.884C13.5649 60.0004 12.4033 59.6525 11.125 58.0268L3.34326 47.9304C1.94901 46.0718 1.36914 44.6814 1.36914 43.0548V6.84714C1.36914 4.75946 2.29942 3.01797 4.96873 2.78686V2.78686Z" fill="black"/>
</g>
<defs>
<clipPath id="clip0_1725_4093">
<rect width="60" height="60" fill="white"/>
</clipPath>
</defs>
</svg>
