<svg width="60" height="60" viewBox="0 0 60 60" fill="none" xmlns="http://www.w3.org/2000/svg">
<g clip-path="url(#clip0_1725_3981)">
<g clip-path="url(#clip1_1725_3981)">
<path d="M22.3125 31.5938C19.0313 31.5938 16.2188 34.4063 16.2188 37.6875V52.875C16.2188 56.1563 19.0313 58.9688 22.3125 58.9688C25.5938 58.9688 28.4063 56.1563 28.4063 52.875V37.6875C28.4063 34.2188 25.7813 31.5938 22.3125 31.5938Z" fill="#D81C57"/>
<path d="M0.9375 37.6875C0.9375 40.9688 3.75 43.7813 7.03125 43.7813C10.3125 43.7813 13.125 40.9688 13.125 37.6875V31.5938H7.125C3.75 31.5938 0.9375 34.2188 0.9375 37.6875Z" fill="#D81C57"/>
<path d="M22.3125 0.9375C19.0313 0.9375 16.2188 3.75 16.2188 7.03125C16.2188 10.3125 19.0313 13.125 22.3125 13.125H28.4063C28.4063 9.65625 28.4063 10.5 28.4063 7.03125C28.4063 3.75 25.7813 0.9375 22.3125 0.9375Z" fill="#34BFE9"/>
<path d="M7.03125 28.4063H22.3125C25.5938 28.4063 28.4063 25.5938 28.4063 22.3125C28.4063 19.0313 25.5938 16.2188 22.3125 16.2188H7.03125C3.75 16.2188 0.9375 19.0313 0.9375 22.3125C0.9375 25.5938 3.5625 28.4063 7.03125 28.4063Z" fill="#34BFE9"/>
<path d="M52.875 16.2188C49.5938 16.2188 46.7812 19.0313 46.7812 22.3125V28.4063H52.875C56.1562 28.4063 58.9688 25.5938 58.9688 22.3125C58.9688 19.0313 56.25 16.2188 52.875 16.2188Z" fill="#2CB07A"/>
<path d="M31.5938 7.03125V22.3125C31.5938 25.5937 34.4063 28.4062 37.6875 28.4062C40.9688 28.4062 43.7813 25.5937 43.7813 22.3125V7.03125C43.7813 3.75 40.9688 0.9375 37.6875 0.9375C34.2188 0.9375 31.5938 3.75 31.5938 7.03125Z" fill="#2CB07A"/>
<path d="M43.7813 52.9687C43.7813 49.6875 40.9688 46.875 37.6875 46.875H31.5938V52.9687C31.5938 56.25 34.4063 59.0625 37.6875 59.0625C40.9688 59.0625 43.7813 56.25 43.7813 52.9687Z" fill="#E4AC2C"/>
<path d="M52.9688 31.5938H37.6875C34.4063 31.5938 31.5938 34.4063 31.5938 37.6875C31.5938 40.9688 34.4063 43.7813 37.6875 43.7813H52.9688C56.25 43.7813 59.0625 40.9688 59.0625 37.6875C59.0625 34.2188 56.25 31.5938 52.9688 31.5938Z" fill="#E4AC2C"/>
</g>
</g>
<defs>
<clipPath id="clip0_1725_3981">
<rect width="60" height="60" fill="white"/>
</clipPath>
<clipPath id="clip1_1725_3981">
<rect width="60" height="60" fill="white"/>
</clipPath>
</defs>
</svg>
