<svg width="60" height="60" viewBox="0 0 60 60" fill="none" xmlns="http://www.w3.org/2000/svg">
<g clip-path="url(#clip0_1725_4136)">
<g filter="url(#filter0_d_1725_4136)">
<rect width="60" height="60" rx="30" fill="url(#paint0_linear_1725_4136)"/>
<path d="M43.812 20.5024L39.5973 40.2306C39.2835 41.6206 38.4764 41.9344 37.3107 41.3067L30.9887 36.6437L27.8949 39.6029C27.5811 39.9168 27.2672 40.2306 26.5498 40.2306L27.043 33.7293L38.8351 23.0132C39.3283 22.52 38.7006 22.3407 38.0729 22.7442L23.4112 31.9806L17.0892 30.0526C15.6993 29.6043 15.6993 28.6627 17.4031 28.035L41.9737 18.4847C43.1843 18.126 44.2155 18.7537 43.812 20.5024Z" fill="white"/>
</g>
</g>
<defs>
<filter id="filter0_d_1725_4136" x="-13" y="-9" width="86" height="86" filterUnits="userSpaceOnUse" color-interpolation-filters="sRGB">
<feFlood flood-opacity="0" result="BackgroundImageFix"/>
<feColorMatrix in="SourceAlpha" type="matrix" values="0 0 0 0 0 0 0 0 0 0 0 0 0 0 0 0 0 0 127 0" result="hardAlpha"/>
<feOffset dy="4"/>
<feGaussianBlur stdDeviation="6.5"/>
<feComposite in2="hardAlpha" operator="out"/>
<feColorMatrix type="matrix" values="0 0 0 0 0 0 0 0 0 0 0 0 0 0 0 0 0 0 0.05 0"/>
<feBlend mode="normal" in2="BackgroundImageFix" result="effect1_dropShadow_1725_4136"/>
<feBlend mode="normal" in="SourceGraphic" in2="effect1_dropShadow_1725_4136" result="shape"/>
</filter>
<linearGradient id="paint0_linear_1725_4136" x1="0" y1="0" x2="60" y2="60" gradientUnits="userSpaceOnUse">
<stop stop-color="#1D91C2"/>
<stop offset="1" stop-color="#1FADF5"/>
</linearGradient>
<clipPath id="clip0_1725_4136">
<rect width="60" height="60" fill="white"/>
</clipPath>
</defs>
</svg>
