<svg width="60" height="60" viewBox="0 0 60 60" fill="none" xmlns="http://www.w3.org/2000/svg">
<g clip-path="url(#clip0_1725_4119)">
<g filter="url(#filter0_d_1725_4119)">
<rect width="60" height="60" rx="30" fill="#E91E63"/>
<path d="M29.9969 15.7705C26.2586 15.7705 23.2143 18.8147 23.2143 22.5531C23.2143 24.784 24.3218 26.7419 25.991 27.9792L22.642 33.5113C22.6156 33.5033 22.5864 33.498 22.5573 33.4901C21.8578 33.302 21.1292 33.4053 20.5013 33.7656C19.2057 34.5154 18.7579 36.1793 19.5051 37.4749C20.0058 38.3439 20.9199 38.8314 21.8578 38.8314C22.3188 38.8314 22.7878 38.7175 23.2143 38.4711C23.8422 38.1081 24.298 37.5172 24.4861 36.8178C24.6742 36.1183 24.5735 35.3897 24.2105 34.7618C24.0966 34.5658 23.9403 34.3909 23.7866 34.2319L27.4747 28.17L27.835 27.5765L27.2415 27.2374C25.6439 26.2941 24.5708 24.5482 24.5708 22.5531C24.5708 19.5486 26.9925 17.127 29.9969 17.127C33.0014 17.127 35.423 19.5486 35.423 22.5531C35.423 23.1122 35.3462 23.6367 35.1899 24.1428L36.4828 24.5455C36.6789 23.9123 36.7795 23.2473 36.7795 22.5531C36.7795 18.8147 33.7353 15.7705 29.9969 15.7705ZM29.9969 19.8401C28.5 19.8401 27.2839 21.0562 27.2839 22.5531C27.2839 24.0501 28.5 25.2662 29.9969 25.2662C30.2221 25.2662 30.4447 25.2344 30.654 25.1814L33.9181 31.095L34.2361 31.6884L34.8507 31.3705C35.627 30.9413 36.5067 30.6922 37.4578 30.6922C40.4623 30.6922 42.8839 33.1139 42.8839 36.1183C42.8839 39.1228 40.4623 41.5444 37.4578 41.5444C35.9927 41.5444 34.6626 40.9589 33.685 40.0183L32.7524 40.9933C33.9711 42.167 35.635 42.9009 37.4578 42.9009C41.1962 42.9009 44.2404 39.8567 44.2404 36.1183C44.2404 32.38 41.1962 29.3357 37.4578 29.3357C36.5173 29.3357 35.6456 29.5821 34.8295 29.9292L31.841 24.5243C32.3709 24.0289 32.71 23.3347 32.71 22.5531C32.71 21.0562 31.4939 19.8401 29.9969 19.8401ZM20.2045 29.5265C17.2504 30.263 15.0752 32.9469 15.0752 36.1183C15.0752 39.8567 18.1194 42.9009 21.8578 42.9009C25.3551 42.9009 28.1556 40.2011 28.5132 36.7966H34.8507C35.1528 37.965 36.1967 38.8314 37.4578 38.8314C38.9548 38.8314 40.1709 37.6153 40.1709 36.1183C40.1709 34.6214 38.9548 33.4053 37.4578 33.4053C36.1967 33.4053 35.1528 34.2717 34.8507 35.4401H27.2839V36.1183C27.2839 39.1228 24.8623 41.5444 21.8578 41.5444C18.8533 41.5444 16.4317 39.1228 16.4317 36.1183C16.4317 33.5696 18.1857 31.45 20.5437 30.8618L20.2045 29.5265Z" fill="white"/>
</g>
</g>
<defs>
<filter id="filter0_d_1725_4119" x="-13" y="-9" width="86" height="86" filterUnits="userSpaceOnUse" color-interpolation-filters="sRGB">
<feFlood flood-opacity="0" result="BackgroundImageFix"/>
<feColorMatrix in="SourceAlpha" type="matrix" values="0 0 0 0 0 0 0 0 0 0 0 0 0 0 0 0 0 0 127 0" result="hardAlpha"/>
<feOffset dy="4"/>
<feGaussianBlur stdDeviation="6.5"/>
<feComposite in2="hardAlpha" operator="out"/>
<feColorMatrix type="matrix" values="0 0 0 0 0 0 0 0 0 0 0 0 0 0 0 0 0 0 0.05 0"/>
<feBlend mode="normal" in2="BackgroundImageFix" result="effect1_dropShadow_1725_4119"/>
<feBlend mode="normal" in="SourceGraphic" in2="effect1_dropShadow_1725_4119" result="shape"/>
</filter>
<clipPath id="clip0_1725_4119">
<rect width="60" height="60" fill="white"/>
</clipPath>
</defs>
</svg>
